<?xml version="1.0" standalone="no"?>
<!DOCTYPE svg PUBLIC "-//W3C//DTD SVG 1.1//EN" "http://www.w3.org/Graphics/SVG/1.1/DTD/svg11.dtd" >
<svg xmlns="http://www.w3.org/2000/svg" xmlns:xlink="http://www.w3.org/1999/xlink" version="1.1">
<metadata>
Created by FontForge 20201107 at Mon Sep  3 20:57:53 2018
 By 
Copyright (c) 2018 Kilotype GmbH. All rights reserved.
</metadata>
<defs>
<font id="Frequenz-Bold" horiz-adv-x="0" >
  <font-face 
    font-family="Frequenz"
    font-weight="700"
    font-stretch="normal"
    units-per-em="1000"
    panose-1="2 11 8 4 4 2 4 3 8 4"
    ascent="740"
    descent="-260"
    x-height="518"
    cap-height="680"
    bbox="-301 -390 1253 1109"
    underline-thickness="50"
    underline-position="-125"
    unicode-range="U+000D-1F310"
  />
<missing-glyph horiz-adv-x="500" 
d="M0 0v680h500v-680h-500zM251 386l157 243h-316zM446 89v505l-164 -255zM54 87l164 255l-164 250v-505zM91 51h318l-160 244z" />
    <glyph glyph-name="f_f" unicode="ff" horiz-adv-x="854" 
d="M122 0v367h-101v123h101v81q0 85 46.5 132t130.5 47q53 0 125 -26l12 -4v-130l-26 10q-55 20 -79 20q-59 0 -59 -71v-59h223v81q0 85 47 132t131 47q32 0 65 -7.5t78 -25.5l27 -10v-131l-40 16q-39 16 -59.5 22t-39.5 6q-59 0 -59 -71v-59h198v-123h-198v-367h-150v367
h-223v-367h-150z" />
    <glyph glyph-name="f_f_i" unicode="ffi" horiz-adv-x="1134" 
d="M122 0v367h-101v123h101v81q0 85 46.5 132t130.5 47q53 0 125 -26l12 -4v-130l-26 10q-55 20 -79 20q-59 0 -59 -71v-59h223v81q0 85 47 132t131 47q32 0 65 -7.5t78 -25.5l27 -10v-131l-40 16q-39 16 -59.5 22t-39.5 6q-59 0 -59 -71v-59h198v-123h-198v-367h-150v367
h-223v-367h-150zM910 592v147h168v-147h-168zM919 0v518h150v-518h-150z" />
    <glyph glyph-name="f_f_l" unicode="ffl" horiz-adv-x="1179" 
d="M122 0v367h-101v123h101v81q0 85 46.5 132t130.5 47q53 0 125 -26l12 -4v-130l-26 10q-55 20 -79 20q-59 0 -59 -71v-59h223v81q0 85 47 132t131 47q32 0 65 -7.5t78 -25.5l27 -10v-131l-40 16q-39 16 -59.5 22t-39.5 6q-59 0 -59 -71v-59h198v-123h-198v-367h-150v367
h-223v-367h-150zM1037 -10q-121 0 -121 137v613h150v-581q0 -18 5.5 -25.5t17.5 -7.5q17 0 53 21l23 12v-130l-17 -8q-59 -31 -111 -31z" />
    <glyph glyph-name="f_i" unicode="fi" horiz-adv-x="761" 
d="M122 0v367h-101v123h101v81q0 85 47 132t131 47q32 0 65 -7.5t78 -25.5l27 -10v-131l-41 16q-39 17 -60 22.5t-38 5.5q-59 0 -59 -71v-59h198v-123h-198v-367h-150zM537 592v147h168v-147h-168zM546 0v518h150v-518h-150z" />
    <glyph glyph-name="f_l" unicode="fl" horiz-adv-x="805" 
d="M122 0v367h-101v123h101v81q0 85 47 132t131 47q32 0 65 -7.5t78 -25.5l27 -10v-131l-41 16q-39 17 -60 22.5t-38 5.5q-59 0 -59 -71v-59h198v-123h-198v-367h-150zM664 -10q-121 0 -121 137v613h150v-581q0 -18 5.5 -25.5t17.5 -7.5q17 0 53 21l23 12v-130l-17 -8
q-59 -31 -111 -31z" />
    <glyph glyph-name=".notdef" horiz-adv-x="500" 
d="M0 0v680h500v-680h-500zM251 386l157 243h-316zM446 89v505l-164 -255zM54 87l164 255l-164 250v-505zM91 51h318l-160 244z" />
    <glyph glyph-name=".null" 
 />
    <glyph glyph-name="nonmarkingreturn" horiz-adv-x="333" 
 />
    <glyph glyph-name="NULL" 
 />
    <glyph glyph-name="CR" unicode="&#xd;" 
 />
    <glyph glyph-name="space" unicode=" " horiz-adv-x="265" 
 />
    <glyph glyph-name="exclam" unicode="!" horiz-adv-x="297" 
d="M89 204l-23 476h165l-23 -476h-119zM60 0v149h178v-149h-178z" />
    <glyph glyph-name="quotedbl" unicode="&#x22;" horiz-adv-x="452" 
d="M264 431v309h147l-26 -309h-121zM54 431v309h147l-26 -309h-121z" />
    <glyph glyph-name="numbersign" unicode="#" horiz-adv-x="782" 
d="M72 0l52 153h-94v124h136l43 126h-123v124h165l52 153h130l-52 -153h148l52 153h130l-52 -153h94v-124h-136l-43 -126h123v-124h-165l-52 -153h-130l52 153h-148l-52 -153h-130zM296 277h148l43 126h-148z" />
    <glyph glyph-name="dollar" unicode="$" horiz-adv-x="620" 
d="M277 -80v104q-46 8 -97 24.5t-112 41.5l-40 17v140l94 -42q46 -20 84 -34.5t71 -22.5v133l-34 7q-74 17 -118.5 40.5t-63.5 59.5t-19 89q0 87 60.5 137.5t164.5 50.5h10v95h78v-104q32 -7 72.5 -19.5t92.5 -31.5l49 -19v-136l-113 43q-32 13 -56.5 22t-44.5 15v-129
l36 -8q76 -16 120 -39.5t63 -59t19 -89.5q0 -91 -58.5 -140.5t-165.5 -49.5h-14v-95h-78zM191 486q0 -29 18 -43.5t68 -24.5v127h-10q-35 0 -55.5 -16t-20.5 -43zM355 264v-129h10q37 0 57.5 16t20.5 45t-18 43t-70 25z" />
    <glyph glyph-name="percent" unicode="%" horiz-adv-x="872" 
d="M213 326q-53 0 -95 22t-66.5 60.5t-24.5 89.5v10q0 51 24.5 89.5t66.5 60.5t95 22t95 -22t66.5 -60.5t24.5 -89.5v-10q0 -51 -24.5 -89.5t-66.5 -60.5t-95 -22zM100 0l526 670h147l-526 -670h-147zM213 427q32 0 49 19t17 54v5q0 36 -17 55t-49 19q-31 0 -48.5 -19
t-17.5 -55v-5q0 -35 17.5 -54t48.5 -19zM659 -10q-53 0 -95 22t-66.5 60.5t-24.5 89.5v10q0 51 24.5 89.5t66.5 60.5t95 22t95 -22t66.5 -60.5t24.5 -89.5v-10q0 -51 -24.5 -89.5t-66.5 -60.5t-95 -22zM659 91q32 0 49 19t17 54v5q0 36 -17 55t-49 19q-31 0 -48.5 -19
t-17.5 -55v-5q0 -35 17.5 -54t48.5 -19z" />
    <glyph glyph-name="ampersand" unicode="&#x26;" horiz-adv-x="785" 
d="M263 -9q-70 0 -121 23.5t-79 64.5t-28 94q0 59 32.5 102.5t102.5 77.5q-43 38 -62.5 77t-19.5 85q0 83 64 131.5t172 48.5q107 0 169.5 -47t62.5 -128q0 -54 -28 -92t-95 -75l-9 -6l103 -61l221 204v-172l-104 -102l104 -62v-154h-7l-198 119q-77 -70 -142 -99t-138 -29z
M238 509q0 -28 17 -49t60 -48q58 30 78.5 50.5t20.5 48.5q0 30 -23.5 47t-65.5 17q-41 0 -64 -17t-23 -49zM191 192q0 -33 22.5 -53.5t60.5 -20.5q36 0 70 16.5t80 56.5l-150 91l-2 -1q-46 -20 -63.5 -39.5t-17.5 -49.5z" />
    <glyph glyph-name="quotesingle" unicode="'" horiz-adv-x="242" 
d="M54 431v309h147l-26 -309h-121z" />
    <glyph glyph-name="parenleft" unicode="(" horiz-adv-x="368" 
d="M213 -200l-42 65q-70 108 -103 206.5t-33 198.5t33 198.5t103 206.5l42 65h154l-47 -79q-44 -74 -72 -139t-40.5 -126t-12.5 -126q0 -64 12.5 -125.5t40.5 -126t72 -139.5l47 -79h-154z" />
    <glyph glyph-name="parenright" unicode=")" horiz-adv-x="368" 
d="M1 -200l47 79q44 75 71.5 139.5t40.5 126t13 125.5q0 65 -13 126t-40.5 126t-71.5 139l-47 79h154l42 -65q70 -108 103 -206.5t33 -198.5t-33 -198.5t-103 -206.5l-42 -65h-154z" />
    <glyph glyph-name="asterisk" unicode="*" horiz-adv-x="512" 
d="M175 317l-92 67l104 120l-156 36l36 108l145 -61l-15 153h116l-15 -154l147 62l37 -108l-157 -36l105 -120l-94 -67l-80 130z" />
    <glyph glyph-name="plus" unicode="+" horiz-adv-x="620" 
d="M245 97v172h-172v127h172v172h130v-172h172v-127h-172v-172h-130z" />
    <glyph glyph-name="comma" unicode="," horiz-adv-x="278" 
d="M-2 -175l74 347h168l-113 -347h-129z" />
    <glyph glyph-name="hyphen" unicode="-" horiz-adv-x="425" 
d="M55 217v141h315v-141h-315z" />
    <glyph glyph-name="period" unicode="." horiz-adv-x="295" 
d="M53 0v172h189v-172h-189z" />
    <glyph glyph-name="slash" unicode="/" horiz-adv-x="506" 
d="M19 -200l311 940h155l-311 -940h-155z" />
    <glyph glyph-name="zero" unicode="0" horiz-adv-x="687" 
d="M343 -15q-91 0 -158 41t-104 116t-37 178v25q0 103 37 178t104 116t158 41q92 0 159 -41t103.5 -116t36.5 -178v-25q0 -103 -36.5 -178t-103.5 -116t-159 -41zM343 115q66 0 101 54t35 156v15q0 101 -35 155.5t-101 54.5q-65 0 -100.5 -54.5t-35.5 -155.5v-15
q0 -101 35.5 -155.5t100.5 -54.5z" />
    <glyph glyph-name="one" unicode="1" horiz-adv-x="460" 
d="M227 0v515l-200 -158v157l200 156h155v-670h-155z" />
    <glyph glyph-name="two" unicode="2" horiz-adv-x="615" 
d="M41 0v125l240 184q46 35 72 61t37 49t11 48q0 37 -23 60t-60 23q-21 0 -45 -8t-56.5 -26.5t-79.5 -51.5l-78 -53v148l33 24q74 52 132 74.5t115 22.5q64 0 113 -25t76.5 -70t27.5 -104q0 -44 -17 -83t-55 -79t-103 -88l-137 -103h330v-128h-533z" />
    <glyph glyph-name="three" unicode="3" horiz-adv-x="629" 
d="M362 -15q-62 0 -132 18.5t-150 57.5l-33 16v141l83 -39q72 -34 121 -49t86 -15q93 0 93 78q0 41 -27 58.5t-91 17.5h-160v127h143q62 0 90.5 20t28.5 61q0 73 -85 73q-34 0 -78 -14t-111 -45l-83 -38v138l33 15q82 38 146.5 56t118.5 18q99 0 156.5 -50t57.5 -136
q0 -53 -23.5 -92.5t-65.5 -61.5q48 -20 76 -60.5t28 -96.5q0 -95 -59.5 -146.5t-162.5 -51.5z" />
    <glyph glyph-name="four" unicode="4" horiz-adv-x="665" 
d="M378 0v165h-355v118l348 387h151v-380h116v-125h-116v-165h-144zM187 290h191v208z" />
    <glyph glyph-name="five" unicode="5" horiz-adv-x="626" 
d="M357 -15q-59 0 -125 17t-149 53l-29 12v146l74 -33q54 -24 92.5 -38.5t66.5 -20.5t53 -6q44 0 68.5 23.5t24.5 64.5q0 84 -106 84h-261v383h494v-128h-353v-132h134q128 0 187.5 -51.5t59.5 -157.5q0 -100 -62 -158t-169 -58z" />
    <glyph glyph-name="six" unicode="6" horiz-adv-x="653" 
d="M349 -15q-95 0 -163 39t-105 111.5t-37 175.5v27q0 99 38 176t103 121.5t148 44.5q41 0 89 -10t115 -34l46 -16v-140l-68 27q-60 24 -98 33.5t-71 9.5q-65 0 -104.5 -50.5t-43.5 -136.5q60 35 106 49.5t90 14.5q99 0 158 -56t59 -150q0 -71 -32 -124t-90.5 -82.5
t-139.5 -29.5zM360 306q-33 0 -69.5 -13t-88.5 -44q12 -65 49 -99.5t97 -34.5q50 0 80 27.5t30 73.5q0 42 -26.5 66t-71.5 24z" />
    <glyph glyph-name="seven" unicode="7" horiz-adv-x="582" 
d="M96 0l303 540h-376v130h534v-123l-297 -547h-164z" />
    <glyph glyph-name="eight" unicode="8" horiz-adv-x="676" 
d="M340 -15q-141 0 -218.5 48.5t-77.5 134.5q0 44 22 82t68 77l14 11q-90 50 -90 149q0 90 73.5 141.5t205.5 51.5q135 0 208 -45.5t73 -130.5q0 -78 -86 -151l-8 -6q108 -46 108 -155q0 -97 -77 -152t-215 -55zM309 408l88 -21l10 8q32 29 45 48.5t13 41.5q0 34 -32.5 53
t-96.5 19q-124 0 -124 -74q0 -28 22 -45t75 -30zM198 191q0 -39 39 -61t111 -22q62 0 96.5 21.5t34.5 58.5q0 27 -20 43t-72 29l-125 29q-36 -30 -50 -52t-14 -46z" />
    <glyph glyph-name="nine" unicode="9" horiz-adv-x="653" 
d="M320 -15q-41 0 -89 10t-115 34l-45 16v140l68 -27q59 -24 97 -33.5t71 -9.5q65 0 104.5 50.5t43.5 136.5q-60 -35 -106 -49.5t-90 -14.5q-99 0 -158 56t-59 150q0 71 32 124t91 82.5t139 29.5q95 0 163.5 -39t105 -111.5t36.5 -175.5v-27q0 -99 -37.5 -176t-103 -121.5
t-148.5 -44.5zM196 449q0 -41 26 -65.5t72 -24.5q32 0 68.5 13t88.5 44q-11 65 -48 99.5t-97 34.5q-51 0 -80.5 -27.5t-29.5 -73.5z" />
    <glyph glyph-name="colon" unicode=":" horiz-adv-x="295" 
d="M53 347v172h189v-172h-189zM53 0v172h189v-172h-189z" />
    <glyph glyph-name="semicolon" unicode=";" horiz-adv-x="280" 
d="M-2 -175l74 347h168l-113 -347h-129zM53 347v172h189v-172h-189z" />
    <glyph glyph-name="less" unicode="&#x3c;" horiz-adv-x="620" 
d="M540 80l-475 189v126l475 189v-130l-315 -121l315 -122v-131z" />
    <glyph glyph-name="equal" unicode="=" horiz-adv-x="620" 
d="M73 391v126h474v-126h-474zM73 146v127h474v-127h-474z" />
    <glyph glyph-name="greater" unicode="&#x3e;" horiz-adv-x="620" 
d="M80 80v130l315 122l-315 121v131l475 -189v-126z" />
    <glyph glyph-name="question" unicode="?" horiz-adv-x="559" 
d="M179 204l-6 134l99 38q60 24 83 46.5t23 60.5q0 36 -25 58t-64 22q-23 0 -49.5 -6.5t-62.5 -23t-90 -45.5l-57 -31v143l32 17q75 40 129.5 56.5t111.5 16.5q67 0 118 -26t80.5 -71.5t29.5 -104.5q0 -79 -40.5 -126.5t-137.5 -85.5l-33 -12l-5 -60h-136zM160 0v149h178
v-149h-178z" />
    <glyph glyph-name="at" unicode="@" horiz-adv-x="1077" 
d="M436 18q-63 0 -99 48t-36 132q0 91 28.5 164t76.5 116.5t106 43.5q44 0 77.5 -26.5t72.5 -96.5l17 113h133l-54 -313q-2 -8 -3 -15.5t-1 -14.5q0 -42 47 -42q37 0 65 29t44 79.5t16 116.5q0 95 -44 160.5t-125 99t-192 33.5q-121 0 -209.5 -50.5t-137 -143.5t-48.5 -221
q0 -156 89 -245.5t256 -89.5q78 0 154.5 17.5t161.5 54.5l91 40v-115l-69 -28q-97 -39 -179 -56.5t-169 -17.5q-149 0 -254 52.5t-160.5 150.5t-55.5 233q0 162 65 279.5t185 181t285 63.5q103 0 191 -28.5t153 -81t100.5 -125.5t35.5 -163q0 -101 -33 -176t-94 -116.5
t-143 -41.5q-75 0 -116 32t-41 87q-50 -62 -95 -90.5t-92 -28.5zM443 209q0 -74 40 -74q21 0 48 22t73 77l37 44q-32 64 -56 95t-51 31q-24 0 -45 -27.5t-33.5 -72t-12.5 -95.5z" />
    <glyph glyph-name="A" unicode="A" horiz-adv-x="749" 
d="M3 0l284 680h175l284 -680h-164l-61 152h-298l-61 -152h-159zM273 280h197l-99 244z" />
    <glyph glyph-name="B" unicode="B" horiz-adv-x="717" 
d="M75 0v680h341q248 0 248 -185q0 -98 -80 -145q90 -42 90 -152q0 -96 -65 -147t-185 -51h-349zM403 554h-174v-154h174q98 0 98 77t-98 77zM413 280h-184v-154h184q98 0 98 77t-98 77z" />
    <glyph glyph-name="C" unicode="C" horiz-adv-x="700" 
d="M349 -15q-95 0 -164.5 42.5t-107.5 120t-38 182.5v20q0 105 38.5 182.5t109 120t165.5 42.5q60 0 121.5 -20.5t135.5 -64.5l44 -26v-155l-101 62q-64 39 -107 56t-79 17q-76 0 -118.5 -57.5t-42.5 -160.5v-12q0 -103 41.5 -160.5t117.5 -57.5q78 0 207 84l88 57v-155
l-42 -27q-74 -46 -140.5 -68t-127.5 -22z" />
    <glyph glyph-name="D" unicode="D" horiz-adv-x="776" 
d="M75 0v680h300q108 0 189.5 -38.5t126.5 -111.5t45 -177v-26q0 -104 -45 -177t-126.5 -111.5t-189.5 -38.5h-300zM373 553h-141v-426h141q92 0 145 52.5t53 153.5v14q0 101 -53 153.5t-145 52.5z" />
    <glyph glyph-name="E" unicode="E" horiz-adv-x="653" 
d="M75 0v680h526v-130h-372v-146h357v-128h-357v-146h372v-130h-526z" />
    <glyph glyph-name="F" unicode="F" horiz-adv-x="636" 
d="M75 0v680h526v-130h-369v-146h354v-128h-354v-276h-157z" />
    <glyph glyph-name="G" unicode="G" horiz-adv-x="757" 
d="M364 -15q-99 0 -172 42.5t-113 120t-40 182.5v20q0 105 42 182.5t118.5 120t178.5 42.5q57 0 117 -15t144 -48l52 -21v-146l-109 44q-50 20 -85 32t-62 17.5t-54 5.5q-83 0 -129.5 -57.5t-46.5 -160.5v-12q0 -106 43 -162t125 -56q44 0 87 13.5t95 43.5v97h-178v124h330
v-285l-38 -22q-168 -102 -305 -102z" />
    <glyph glyph-name="H" unicode="H" horiz-adv-x="778" 
d="M75 0v680h157v-275h314v275h157v-680h-157v275h-314v-275h-157z" />
    <glyph glyph-name="I" unicode="I" horiz-adv-x="307" 
d="M75 0v680h157v-680h-157z" />
    <glyph glyph-name="J" unicode="J" horiz-adv-x="585" 
d="M315 -15q-60 0 -116 19.5t-129 64.5l-42 25v161l81 -52q66 -42 105 -59.5t72 -17.5q39 0 56.5 22t17.5 72v460h157v-470q0 -111 -51 -168t-151 -57z" />
    <glyph glyph-name="K" unicode="K" horiz-adv-x="720" 
d="M75 0v680h157v-300l285 300h201l-300 -294l310 -386h-196l-230 289l-70 -69v-220h-157z" />
    <glyph glyph-name="L" unicode="L" horiz-adv-x="615" 
d="M75 0v680h157v-550h365v-130h-522z" />
    <glyph glyph-name="M" unicode="M" horiz-adv-x="897" 
d="M75 0v680h177l199 -413l197 413h174v-680h-154l4 447l-167 -367h-118l-167 359l4 -439h-149z" />
    <glyph glyph-name="N" unicode="N" horiz-adv-x="780" 
d="M557 680h148v-680h-161l-320 449v-449h-149v680h163l319 -449v449z" />
    <glyph glyph-name="O" unicode="O" horiz-adv-x="804" 
d="M402 -15q-108 0 -189.5 43t-127.5 120t-46 179v26q0 102 46 179t127.5 120t189.5 43t189.5 -43t127.5 -120t46 -179v-26q0 -102 -46 -179t-127.5 -120t-189.5 -43zM402 116q92 0 144.5 58.5t52.5 158.5v14q0 101 -52.5 159t-144.5 58t-144.5 -58t-52.5 -159v-14
q0 -100 52.5 -158.5t144.5 -58.5z" />
    <glyph glyph-name="P" unicode="P" horiz-adv-x="686" 
d="M75 0v680h342q119 0 182 -54t63 -162q0 -107 -65 -162t-185 -55h-182v-247h-155zM230 375h167q49 0 75 23t26 66q0 88 -101 88h-167v-177z" />
    <glyph glyph-name="Q" unicode="Q" horiz-adv-x="804" 
d="M402 -15q-107 0 -188.5 43t-128 120t-46.5 179v26q0 102 46 179t128 120t189 43t188.5 -43t128 -120t46.5 -179v-26q0 -86 -33.5 -155t-92.5 -114l122 -138h-163l-71 82q-59 -17 -125 -17zM402 116q13 0 26 1l-98 114h156l55 -63q58 59 58 165v14q0 101 -53 159t-144 58
t-144 -58t-53 -159v-14q0 -101 53 -159t144 -58z" />
    <glyph glyph-name="R" unicode="R" horiz-adv-x="730" 
d="M75 0v680h358q119 0 182 -53.5t63 -160.5q0 -72 -35.5 -119t-97.5 -70l167 -277h-178l-144 247h-160v-247h-155zM230 375h183q49 0 75 23t26 66q0 88 -101 88h-183v-177z" />
    <glyph glyph-name="S" unicode="S" horiz-adv-x="676" 
d="M395 -15q-76 0 -149.5 18.5t-159.5 58.5l-43 20v150l82 -39q85 -42 147.5 -60.5t114.5 -18.5q44 0 68.5 20t24.5 55q0 30 -21.5 45t-78.5 26l-123 25q-108 21 -155 67t-47 132q0 64 29.5 111.5t84 73.5t128.5 26q59 0 120.5 -14t144.5 -45l50 -19v-144l-82 32
q-58 23 -98.5 36.5t-70.5 19t-58 5.5q-42 0 -66 -18.5t-24 -50.5t19.5 -48t71.5 -25l129 -26q112 -22 158.5 -67t46.5 -132q0 -101 -64.5 -157.5t-178.5 -56.5z" />
    <glyph glyph-name="T" unicode="T" horiz-adv-x="663" 
d="M253 0v550h-237v130h631v-130h-237v-550h-157z" />
    <glyph glyph-name="U" unicode="U" horiz-adv-x="782" 
d="M391 -15q-157 0 -240 74t-83 214v407h157v-384q0 -96 39 -138t127 -42t127 42t39 138v384h157v-407q0 -140 -83 -214t-240 -74z" />
    <glyph glyph-name="V" unicode="V" horiz-adv-x="734" 
d="M279 0l-274 680h167l198 -511l197 511h162l-274 -680h-176z" />
    <glyph glyph-name="W" unicode="W" horiz-adv-x="949" 
d="M186 0l-169 680h167l103 -459l118 459h155l113 -458l106 458h153l-169 -680h-163l-123 460l-124 -460h-167z" />
    <glyph glyph-name="X" unicode="X" horiz-adv-x="747" 
d="M-9 0l285 348l-270 332h192l180 -224l178 224h186l-271 -330l286 -350h-193l-195 243l-192 -243h-186z" />
    <glyph glyph-name="Y" unicode="Y" horiz-adv-x="739" 
d="M291 0v253l-286 427h177l192 -293l192 293h168l-286 -427v-253h-157z" />
    <glyph glyph-name="Z" unicode="Z" horiz-adv-x="658" 
d="M30 0v116l382 434h-367v130h570v-116l-383 -434h398v-130h-600z" />
    <glyph glyph-name="bracketleft" unicode="[" horiz-adv-x="401" 
d="M74 -200v940h303v-120h-153v-700h153v-120h-303z" />
    <glyph glyph-name="backslash" unicode="\" horiz-adv-x="506" 
d="M331 -200l-311 940h155l311 -940h-155z" />
    <glyph glyph-name="bracketright" unicode="]" horiz-adv-x="401" 
d="M24 -200v120h153v700h-153v120h303v-940h-303z" />
    <glyph glyph-name="asciicircum" unicode="^" horiz-adv-x="620" 
d="M28 249l215 431h134l215 -431h-143l-139 284l-139 -284h-143z" />
    <glyph glyph-name="underscore" unicode="_" horiz-adv-x="500" 
d="M0 -181v134h500v-134h-500z" />
    <glyph glyph-name="grave" unicode="`" horiz-adv-x="310" 
d="M162 580l-142 180h148l118 -180h-124z" />
    <glyph glyph-name="a" unicode="a" horiz-adv-x="588" 
d="M195 -10q-77 0 -120.5 39.5t-43.5 109.5q0 74 49 112.5t163 52.5l140 17q-1 43 -18 61.5t-56 18.5q-25 0 -61 -9.5t-101 -34.5l-69 -26v129l38 15q71 28 124.5 40.5t99.5 12.5q188 0 188 -196v-332h-143v70q-53 -42 -98.5 -61t-91.5 -19zM178 157q0 -23 14.5 -36
t39.5 -13q29 0 63.5 16t87.5 53v62l-122 -21q-47 -8 -65 -21.5t-18 -39.5z" />
    <glyph glyph-name="b" unicode="b" horiz-adv-x="648" 
d="M66 0v740h150v-291q57 43 99 61t84 18q98 0 155.5 -69.5t57.5 -188.5v-21q0 -79 -25.5 -137t-73 -90t-111.5 -32q-45 0 -89 18.5t-99 61.5v-70h-148zM221 185q47 -37 77.5 -53t58.5 -16q47 0 74 36t27 99v17q0 62 -27 98t-74 36q-28 0 -58.5 -15.5t-77.5 -52.5l-5 -4
v-142z" />
    <glyph glyph-name="c" unicode="c" horiz-adv-x="533" 
d="M264 -10q-69 0 -120.5 32t-80 89.5t-28.5 133.5v28q0 74 30 131.5t82 90.5t117 33q45 0 88.5 -14.5t99.5 -47.5l38 -23v-139l-54 37q-54 36 -86.5 50t-61.5 14q-46 0 -72.5 -35t-26.5 -99v-24q0 -63 26 -98.5t71 -35.5q29 0 62 15t89 54l55 38v-140l-36 -24
q-53 -34 -99.5 -50t-92.5 -16z" />
    <glyph glyph-name="d" unicode="d" horiz-adv-x="646" 
d="M248 -10q-98 0 -155.5 70t-57.5 189v21q0 79 26 137t73 89.5t112 31.5q44 0 87.5 -18t97.5 -60v290h150v-740h-148v71q-57 -44 -99.5 -62.5t-85.5 -18.5zM190 251q0 -63 27 -99t74 -36q28 0 58.5 16t77.5 53l4 3v142l-4 4q-47 37 -77.5 52.5t-58.5 15.5q-47 0 -74 -36
t-27 -98v-17z" />
    <glyph glyph-name="e" unicode="e" horiz-adv-x="592" 
d="M278 -10q-74 0 -128.5 31t-84.5 87.5t-30 134.5v24q0 79 33 138t92.5 91t139.5 32q119 0 186.5 -64t67.5 -177v-67h-368q11 -104 116 -104q36 0 73.5 9t90.5 31l70 27v-129l-45 -18q-57 -24 -107 -35t-106 -11zM297 415q-96 0 -110 -103h219q-11 103 -109 103z" />
    <glyph glyph-name="f" unicode="f" horiz-adv-x="481" 
d="M122 0v367h-101v123h101v81q0 85 47 132t131 47q32 0 65 -7.5t78 -25.5l27 -10v-131l-41 16q-39 17 -60 22.5t-38 5.5q-59 0 -59 -71v-59h198v-123h-198v-367h-150z" />
    <glyph glyph-name="g" unicode="g" horiz-adv-x="653" 
d="M244 14q-62 0 -109.5 31t-73.5 87t-26 131v15q0 77 26 133t74 86.5t112 30.5q43 0 87.5 -20.5t105.5 -70.5v81h148v-498q0 -112 -60 -171t-176 -59q-54 0 -110.5 13t-124.5 39l-50 19v137l73 -31q63 -27 107.5 -39t82.5 -12q108 0 108 118v69q-60 -49 -104.5 -69
t-89.5 -20zM190 265q0 -60 25.5 -93.5t71.5 -33.5q26 0 59 17.5t81 55.5l11 10v98l-11 10q-48 38 -81 55.5t-59 17.5q-47 0 -72 -32.5t-25 -93.5v-11z" />
    <glyph glyph-name="h" unicode="h" horiz-adv-x="626" 
d="M66 0v740h150v-295q52 44 95.5 63.5t89.5 19.5q77 0 121 -51t44 -142v-335h-150v309q0 43 -18.5 66.5t-51.5 23.5q-25 0 -52 -14t-67 -48l-11 -9v-328h-150z" />
    <glyph glyph-name="i" unicode="i" horiz-adv-x="280" 
d="M56 592v147h168v-147h-168zM65 0v518h150v-518h-150z" />
    <glyph glyph-name="j" unicode="j" horiz-adv-x="280" 
d="M56 592v147h168v-147h-168zM90 -210q-27 0 -53 6t-52 16l-20 8v122l24 -10q19 -8 29.5 -11t19.5 -3q27 0 27 33v567h150v-588q0 -140 -125 -140z" />
    <glyph glyph-name="k" unicode="k" horiz-adv-x="610" 
d="M66 0v740h150v-435l214 213h179l-231 -220l241 -298h-188l-159 209l-56 -55v-154h-150z" />
    <glyph glyph-name="l" unicode="l" horiz-adv-x="324" 
d="M183 -10q-121 0 -121 137v613h150v-581q0 -18 5.5 -25.5t17.5 -7.5q17 0 53 21l23 12v-130l-17 -8q-59 -31 -111 -31z" />
    <glyph glyph-name="m" unicode="m" horiz-adv-x="908" 
d="M65 0v518h148v-69q55 45 92 62t79 17q93 0 126 -89l3 3q58 49 97 67.5t82 18.5q75 0 115.5 -49.5t40.5 -140.5v-338h-150v313q0 86 -55 86q-20 0 -41.5 -12t-65.5 -50l-5 -3v-334h-150v313q0 86 -54 86q-20 0 -41.5 -12t-66.5 -50l-4 -3v-334h-150z" />
    <glyph glyph-name="n" unicode="n" horiz-adv-x="625" 
d="M65 0v518h148v-76l3 3q52 44 95 63.5t89 19.5q77 0 121 -51t44 -142v-335h-150v309q0 43 -18.5 66.5t-52.5 23.5q-24 0 -51 -14t-65 -47l-13 -10v-328h-150z" />
    <glyph glyph-name="o" unicode="o" horiz-adv-x="627" 
d="M313 -10q-85 0 -147.5 31t-96.5 89t-34 136v25q0 79 34 137t96.5 89t147.5 31q86 0 148 -31t96 -89t34 -137v-25q0 -78 -34 -136t-96 -89t-148 -31zM313 112q60 0 92 35.5t32 100.5v21q0 65 -32 101t-92 36q-59 0 -91.5 -36t-32.5 -101v-21q0 -65 32.5 -100.5t91.5 -35.5
z" />
    <glyph glyph-name="p" unicode="p" horiz-adv-x="646" 
d="M65 -200v718h148v-71q58 44 100.5 62.5t84.5 18.5q98 0 155.5 -69.5t57.5 -188.5v-21q0 -79 -26 -137t-73 -90t-111 -32q-45 0 -88.5 18.5t-97.5 59.5v-268h-150zM220 185q46 -37 76.5 -53t59.5 -16q46 0 73 36t27 99v17q0 62 -27 98t-73 36q-29 0 -59.5 -15.5
t-76.5 -52.5l-5 -4v-142z" />
    <glyph glyph-name="q" unicode="q" horiz-adv-x="646" 
d="M248 -10q-98 0 -155.5 70t-57.5 189v21q0 79 26 137t73 89.5t112 31.5q45 0 89 -18.5t99 -61.5v70h148v-718h-150v270q-57 -43 -99.5 -61.5t-84.5 -18.5zM190 251q0 -63 27 -99t74 -36q28 0 58.5 16t77.5 53l5 4v140l-5 5q-47 37 -77.5 52.5t-58.5 15.5q-47 0 -74 -36
t-27 -98v-17z" />
    <glyph glyph-name="r" unicode="r" horiz-adv-x="428" 
d="M65 0v518h148v-91l29 21q58 42 95 59.5t74 20.5v-148q-46 -4 -85.5 -16.5t-87.5 -38.5l-23 -13v-312h-150z" />
    <glyph glyph-name="s" unicode="s" horiz-adv-x="546" 
d="M319 -9q-50 0 -105.5 13t-129.5 42l-46 18v124l92 -38q115 -48 178 -48q59 0 59 44q0 19 -11.5 28t-41.5 15l-103 18q-86 15 -124.5 52t-38.5 104q0 77 51 121t139 44q43 0 87 -9t110 -32l55 -18v-122l-88 32q-57 21 -90 29.5t-61 8.5q-59 0 -59 -43q0 -19 13 -28.5
t46 -15.5l109 -20q81 -14 116.5 -50t35.5 -103q0 -79 -50.5 -122.5t-142.5 -43.5z" />
    <glyph glyph-name="t" unicode="t" horiz-adv-x="545" 
d="M278 -10q-78 0 -119 43.5t-41 127.5v206h-102v123h102v171h150v-171h244v-123h-244v-177q0 -61 47 -61q21 0 41.5 10.5t57.5 38.5l98 75v-149l-46 -36q-54 -41 -97.5 -59.5t-90.5 -18.5z" />
    <glyph glyph-name="u" unicode="u" horiz-adv-x="614" 
d="M221 -10q-76 0 -118.5 50t-42.5 141v337h150v-311q0 -87 65 -87q24 0 48.5 13t58.5 42l17 14v329h150v-518h-148v73q-54 -46 -95 -64.5t-85 -18.5z" />
    <glyph glyph-name="v" unicode="v" horiz-adv-x="587" 
d="M221 0l-216 518h161l132 -346l130 346h154l-216 -518h-145z" />
    <glyph glyph-name="w" unicode="w" horiz-adv-x="812" 
d="M159 0l-148 518h153l85 -331l90 331h144l90 -331l85 331h143l-149 -518h-141l-104 348l-102 -348h-146z" />
    <glyph glyph-name="x" unicode="x" horiz-adv-x="595" 
d="M-6 0l213 263l-199 255h179l114 -157l115 157h170l-199 -248l213 -270h-179l-128 169l-129 -169h-170z" />
    <glyph glyph-name="y" unicode="y" horiz-adv-x="587" 
d="M177 -210q-50 0 -98 24l-15 7v134l33 -16q19 -10 31.5 -13.5t22.5 -3.5q17 0 28.5 10.5t23.5 36.5l16 35l-214 514h161l132 -345l130 345h154l-242 -580q-35 -83 -70.5 -115.5t-92.5 -32.5z" />
    <glyph glyph-name="z" unicode="z" horiz-adv-x="542" 
d="M29 0v108l278 287h-261v123h452v-107l-278 -288h295v-123h-486z" />
    <glyph glyph-name="braceleft" unicode="{" horiz-adv-x="389" 
d="M358 -204l-76 9q-104 15 -148 51t-44 106q0 28 8.5 62.5t16.5 66.5t8 52q0 25 -13.5 37.5t-48.5 22.5l-41 12v110l41 12q35 10 48.5 22.5t13.5 37.5q0 20 -8 52t-16.5 67t-8.5 63q0 70 44 106t148 51l76 9v-116l-55 -9q-30 -6 -45 -17t-15 -39q0 -20 8 -53t16.5 -66.5
t8.5 -57.5q0 -50 -29.5 -75t-78.5 -42q50 -18 79 -43t29 -74q0 -24 -8.5 -57.5t-16.5 -66t-8 -53.5q0 -28 15 -39t45 -16l55 -9v-116z" />
    <glyph glyph-name="bar" unicode="|" horiz-adv-x="297" 
d="M74 -200v940h150v-940h-150z" />
    <glyph glyph-name="braceright" unicode="}" horiz-adv-x="388" 
d="M31 -204v116l54 9q30 5 45.5 16t15.5 39q0 21 -8.5 53.5t-16.5 66t-8 57.5q0 50 29.5 75t77.5 42q-49 18 -78 43t-29 74q0 24 8 57.5t16.5 66.5t8.5 53q0 28 -15.5 39t-45.5 17l-54 9v116l75 -9q105 -15 148.5 -51t43.5 -106q0 -28 -8 -63t-16.5 -67t-8.5 -52
q0 -25 13.5 -37.5t49.5 -22.5l41 -12v-110l-41 -12q-36 -10 -49.5 -22.5t-13.5 -37.5q0 -20 8.5 -52t16.5 -66.5t8 -62.5q0 -70 -43.5 -106t-148.5 -51z" />
    <glyph glyph-name="asciitilde" unicode="~" horiz-adv-x="620" 
d="M411 220q-34 0 -62 14.5t-52 33t-46 32.5t-45 14q-15 0 -31 -6.5t-43 -25.5l-58 -42v142l26 17q33 23 59 34t52 11q31 0 58 -14.5t51 -33t47 -32.5t48 -14q16 0 31.5 6.5t43.5 25.5l58 42v-142l-26 -17q-34 -23 -59.5 -34t-51.5 -11z" />
    <glyph glyph-name="uni00A0" unicode="&#xa0;" horiz-adv-x="265" 
 />
    <glyph glyph-name="exclamdown" unicode="&#xa1;" horiz-adv-x="289" 
d="M55 369v149h178v-149h-178zM62 -162l23 476h119l23 -476h-165z" />
    <glyph glyph-name="cent" unicode="&#xa2;" horiz-adv-x="620" 
d="M267 0l10 83q-63 4 -111.5 35t-75.5 83.5t-27 120.5v27q0 70 29.5 124t82 84.5t120.5 30.5q22 0 45 -4l11 86h78l-13 -106q43 -16 96 -42l41 -21v-129l-70 37q-49 26 -82 38l-29 -233q38 11 113 49l70 35v-129l-42 -21q-90 -46 -157 -59l-11 -89h-78zM217 324
q0 -98 76 -115l32 256h-3q-105 0 -105 -118v-23z" />
    <glyph glyph-name="sterling" unicode="&#xa3;" horiz-adv-x="620" 
d="M45 0v123l40 22q37 21 53 42t16 49q0 9 -3 19h-106v71h74q-19 34 -37.5 73t-18.5 86q0 58 27.5 102t77 68.5t115.5 24.5q51 0 107 -20.5t139 -68.5l31 -18v-146l-80 49q-65 40 -107.5 57t-76.5 17q-36 0 -57 -21t-21 -57q0 -38 20.5 -74.5t40.5 -71.5h241v-71h-212
q1 -6 1 -13q-1 -66 -71 -114h340v-128h-533z" />
    <glyph glyph-name="currency" unicode="&#xa4;" horiz-adv-x="620" 
d="M95 27l-69 67l75 76q-26 30 -40 68.5t-14 82.5v23q0 44 14 82.5t40 68.5l-75 76l69 67l83 -84q59 29 132 29t132 -29l83 84l69 -67l-75 -76q26 -30 40 -68.5t14 -82.5v-23q0 -44 -14 -82.5t-40 -68.5l75 -76l-69 -67l-83 84q-59 -29 -132 -29t-132 29zM310 207
q54 0 85 32.5t31 85.5v15q0 53 -31 85.5t-85 32.5t-85 -32.5t-31 -85.5v-15q0 -53 31 -85.5t85 -32.5z" />
    <glyph glyph-name="yen" unicode="&#xa5;" horiz-adv-x="620" 
d="M67 127v71h173v70h-173v71h130l-186 331h163l143 -267l138 267h154l-181 -331h125v-71h-167v-70h167v-71h-167v-127h-146v127h-173z" />
    <glyph glyph-name="brokenbar" unicode="&#xa6;" horiz-adv-x="297" 
d="M74 387v353h150v-353h-150zM74 -200v353h150v-353h-150z" />
    <glyph glyph-name="section" unicode="&#xa7;" horiz-adv-x="597" 
d="M331 -210q-99 0 -215 46l-55 21v126l90 -36q51 -20 94.5 -31.5t75.5 -11.5q72 0 72 55q0 25 -18.5 39.5t-66.5 29.5l-118 39q-84 28 -121 67t-37 103q0 47 26 82.5t85 68.5q-70 49 -70 133q0 79 53.5 126.5t143.5 47.5q85 0 211 -45l56 -20v-126l-90 35q-57 22 -95 32
t-69 10t-48 -14t-17 -39q0 -22 17 -37.5t57 -28.5l112 -37q84 -27 120 -66t36 -101q0 -49 -24 -84.5t-80 -66.5q43 -26 62 -59.5t19 -80.5q0 -84 -54 -130.5t-152 -46.5zM248 185l84 -27l11 5q39 19 55.5 37t16.5 41q0 26 -16.5 40t-57.5 28l-78 25l-14 -6
q-40 -19 -56 -35.5t-16 -38.5q0 -24 16.5 -40t54.5 -29z" />
    <glyph glyph-name="dieresis" unicode="&#xa8;" horiz-adv-x="423" 
d="M267 594v136h132v-136h-132zM21 594v136h132v-136h-132z" />
    <glyph glyph-name="copyright" unicode="&#xa9;" horiz-adv-x="837" 
d="M418 -15q-82 0 -151.5 25.5t-120.5 72.5t-79.5 110t-28.5 138v18q0 75 28.5 138t79.5 110t120.5 72.5t151.5 25.5q83 0 152.5 -25.5t120.5 -72.5t79.5 -110t28.5 -138v-18q0 -75 -28.5 -138t-79.5 -110t-120.5 -72.5t-152.5 -25.5zM418 72q81 0 143.5 34t98 93.5
t35.5 136.5v8q0 78 -35.5 137t-98 93t-143.5 34t-143 -34t-97.5 -93t-35.5 -137v-8q0 -77 35.5 -136.5t97.5 -93.5t143 -34zM404 145q-51 0 -91.5 24.5t-63 67.5t-22.5 98v10q0 54 23 97t63 68t90 25q37 0 76 -11.5t88 -37.5l25 -14v-104l-34 18q-57 30 -86 40.5t-54 10.5
q-36 0 -56 -24t-20 -69v-8q0 -44 20.5 -68.5t56.5 -24.5q29 0 63.5 12.5t81.5 41.5l35 21v-104l-26 -15q-48 -29 -88 -41.5t-81 -12.5z" />
    <glyph glyph-name="ordfeminine" unicode="&#xaa;" horiz-adv-x="520" 
d="M183 304q-66 0 -102 32t-36 89q0 62 40.5 93.5t134.5 43.5l116 15q-1 33 -14 47.5t-45 14.5q-20 0 -51 -8t-86 -29l-56 -21v110l31 12q59 22 104.5 33t82.5 11q77 0 117 -41t40 -121v-274h-121v55q-42 -32 -80 -47t-75 -15zM170 443q0 -41 44 -41q24 0 52.5 11.5
t69.5 42.5v52l-99 -18q-36 -5 -51.5 -15t-15.5 -32zM55 126v126h404v-126h-404z" />
    <glyph glyph-name="guillemotleft" unicode="&#xab;" horiz-adv-x="522" 
d="M249 48l-213 169v101l213 169v-122l-112 -96l112 -98v-123zM471 48l-195 169v101l195 169v-122l-100 -96l100 -98v-123z" />
    <glyph glyph-name="logicalnot" unicode="&#xac;" horiz-adv-x="620" 
d="M68 329v127h474v-292h-130v165h-344z" />
    <glyph glyph-name="uni00AD" unicode="&#xad;" horiz-adv-x="425" 
d="M55 217v141h315v-141h-315z" />
    <glyph glyph-name="registered" unicode="&#xae;" horiz-adv-x="517" 
d="M258 269q-64 0 -114.5 27t-80 73.5t-29.5 105.5v10q0 59 29.5 105t80 73t114.5 27t115 -27t80.5 -73t29.5 -105v-10q0 -59 -29.5 -105.5t-80.5 -73.5t-115 -27zM258 325q73 0 117 41t44 111v6q0 69 -44 110.5t-117 41.5q-72 0 -116 -41.5t-44 -110.5v-6q0 -70 44 -111
t116 -41zM158 373v214h125q39 0 60.5 -19t21.5 -54q0 -42 -38 -59l44 -82h-69l-35 70h-47v-70h-62zM220 492h52q27 0 27 23q0 22 -27 22h-52v-45z" />
    <glyph glyph-name="macron" unicode="&#xaf;" horiz-adv-x="441" 
d="M21 606v105h396v-105h-396z" />
    <glyph glyph-name="degree" unicode="&#xb0;" horiz-adv-x="423" 
d="M211 402q-52 0 -93 22t-65 61.5t-24 90.5t24 90t65.5 61t92.5 22q53 0 94 -22t65 -61t24 -90t-23.5 -90.5t-65 -61.5t-94.5 -22zM211 491q37 0 59.5 23.5t22.5 61.5t-22.5 61t-59.5 23q-36 0 -58.5 -23t-22.5 -61t22.5 -61.5t58.5 -23.5z" />
    <glyph glyph-name="plusminus" unicode="&#xb1;" horiz-adv-x="620" 
d="M245 204v157h-172v127h172v157h130v-157h172v-127h-172v-157h-130zM73 29v125h474v-125h-474z" />
    <glyph glyph-name="uni00B2" unicode="&#xb2;" horiz-adv-x="404" 
d="M30 436v94l150 73q40 19 55 34t15 37q0 19 -11 30.5t-30 11.5q-15 0 -36 -9.5t-66 -37.5l-67 -41v112l27 18q54 34 88.5 48t68.5 14q63 0 102 -35t39 -90q0 -50 -26 -81t-90 -61l-47 -22h173v-95h-345z" />
    <glyph glyph-name="uni00B3" unicode="&#xb3;" horiz-adv-x="401" 
d="M235 431q-69 0 -174 37l-30 11v94l37 -13q43 -15 69 -23t43 -11t32 -3q40 0 40 32q0 30 -48 30h-106v79h97q47 0 47 33q0 30 -38 30q-11 0 -24 -2.5t-36 -9.5t-66 -21l-41 -14v94l34 11q51 18 88.5 26.5t68.5 8.5q63 0 99 -28.5t36 -77.5q0 -57 -48 -84q57 -22 57 -86
q0 -55 -35 -84t-102 -29z" />
    <glyph glyph-name="acute" unicode="&#xb4;" horiz-adv-x="310" 
d="M21 580l118 180h148l-142 -180h-124z" />
    <glyph glyph-name="uni00B5" unicode="&#xb5;" horiz-adv-x="619" 
d="M65 -200v718h150v-315q0 -83 65 -83q24 0 50 14t61 44l13 11v329h150v-518h-148v68l-3 -2q-43 -40 -78.5 -58t-75.5 -18q-28 0 -49 10l17 -200h-152z" />
    <glyph glyph-name="paragraph" unicode="&#xb6;" horiz-adv-x="752" 
d="M330 -117v363h-56q-119 0 -183.5 56t-64.5 160q0 107 63.5 162.5t179.5 55.5h408v-797h-136v673h-75v-673h-136z" />
    <glyph glyph-name="periodcentered" unicode="&#xb7;" horiz-adv-x="295" 
d="M53 202v172h189v-172h-189z" />
    <glyph glyph-name="cedilla" unicode="&#xb8;" horiz-adv-x="294" 
d="M163 -227q-24 0 -49.5 4.5t-60.5 14.5l-32 10v75l45 -14q32 -10 49 -13.5t32 -3.5q34 0 34 30q0 27 -42 27h-83v51l34 75l72 -2l-30 -68h28q111 0 111 -89q0 -46 -28.5 -71.5t-79.5 -25.5z" />
    <glyph glyph-name="uni00B9" unicode="&#xb9;" horiz-adv-x="327" 
d="M164 436v254l-141 -109v126l141 108h116v-379h-116z" />
    <glyph glyph-name="ordmasculine" unicode="&#xba;" horiz-adv-x="560" 
d="M281 304q-106 0 -169.5 57t-63.5 155v18q0 99 63.5 156t169.5 57q105 0 168.5 -57t63.5 -156v-18q0 -98 -63.5 -155t-168.5 -57zM281 408q47 0 73.5 29t26.5 81v14q0 53 -26.5 82t-73.5 29q-48 0 -75 -29.5t-27 -81.5v-14q0 -52 27 -81t75 -29zM58 126v126h445v-126h-445
z" />
    <glyph glyph-name="guillemotright" unicode="&#xbb;" horiz-adv-x="522" 
d="M273 48v123l113 96l-113 98v122l213 -168v-102zM52 48v123l99 96l-99 98v122l194 -168v-102z" />
    <glyph glyph-name="onequarter" unicode="&#xbc;" horiz-adv-x="870" 
d="M165 291v254l-141 -109v126l141 108h116v-379h-116zM209 0l312 670h97l-312 -670h-97zM683 0v73h-213v80l211 226h110v-221h59v-85h-59v-73h-108zM591 158h92v99z" />
    <glyph glyph-name="onehalf" unicode="&#xbd;" horiz-adv-x="900" 
d="M165 291v254l-141 -109v126l141 108h116v-379h-116zM209 0l312 670h97l-312 -670h-97zM509 0v94l150 73q40 19 55 34t15 37q0 19 -11 30.5t-30 11.5q-15 0 -36 -9.5t-66 -37.5l-67 -41v112l27 18q54 34 88.5 48t68.5 14q63 0 102 -35t39 -90q0 -50 -26 -81t-90 -61
l-47 -22h173v-95h-345z" />
    <glyph glyph-name="threequarters" unicode="&#xbe;" horiz-adv-x="920" 
d="M235 286q-69 0 -174 37l-30 11v94l37 -13q43 -15 69 -23t43 -11t32 -3q40 0 40 32q0 30 -48 30h-106v79h97q47 0 47 33q0 30 -38 30q-11 0 -24 -2.5t-36 -9.5t-66 -21l-41 -14v94l34 11q51 18 88.5 26.5t68.5 8.5q63 0 99 -28.5t36 -77.5q0 -57 -48 -84q57 -22 57 -86
q0 -55 -35 -84t-102 -29zM259 0l312 670h97l-312 -670h-97zM733 0v73h-213v80l211 226h110v-221h59v-85h-59v-73h-108zM641 158h92v99z" />
    <glyph glyph-name="questiondown" unicode="&#xbf;" horiz-adv-x="554" 
d="M218 369v149h178v-149h-178zM253 -172q-66 0 -117.5 26t-80.5 71.5t-29 104.5q0 79 40 126.5t138 85.5l32 13l6 59h136l6 -134l-99 -38q-61 -23 -83.5 -46t-22.5 -61q0 -36 24.5 -58t63.5 -22q24 0 50 7t62.5 23.5t89.5 44.5l57 31v-143l-32 -17q-75 -40 -129.5 -56.5
t-111.5 -16.5z" />
    <glyph glyph-name="Agrave" unicode="&#xc0;" horiz-adv-x="749" 
d="M3 0l284 680h175l284 -680h-164l-61 152h-298l-61 -152h-159zM273 280h197l-99 244zM317 725l-148 150h154l126 -150h-132z" />
    <glyph glyph-name="Aacute" unicode="&#xc1;" horiz-adv-x="749" 
d="M3 0l284 680h175l284 -680h-164l-61 152h-298l-61 -152h-159zM273 280h197l-99 244zM301 725l126 150h154l-148 -150h-132z" />
    <glyph glyph-name="Acircumflex" unicode="&#xc2;" horiz-adv-x="749" 
d="M3 0l284 680h175l284 -680h-164l-61 152h-298l-61 -152h-159zM273 280h197l-99 244zM171 725l141 150h125l142 -150h-121l-83 68l-83 -68h-121z" />
    <glyph glyph-name="Atilde" unicode="&#xc3;" horiz-adv-x="749" 
d="M3 0l284 680h175l284 -680h-164l-61 152h-298l-61 -152h-159zM273 280h197l-99 244zM464 722q-19 0 -37.5 5.5t-47.5 19.5l-40 20q-24 11 -37 11q-23 0 -33 -34l-6 -19h-93l10 39q16 58 39.5 83.5t60.5 25.5q33 0 84 -25l41 -20q13 -6 21.5 -8.5t14.5 -2.5q24 0 34 34
l6 19h93l-11 -39q-16 -60 -38.5 -84.5t-60.5 -24.5z" />
    <glyph glyph-name="Adieresis" unicode="&#xc4;" horiz-adv-x="749" 
d="M3 0l284 680h175l284 -680h-164l-61 152h-298l-61 -152h-159zM273 280h197l-99 244zM435 734v132h132v-132h-132zM183 734v132h132v-132h-132z" />
    <glyph glyph-name="Aring" unicode="&#xc5;" horiz-adv-x="749" 
d="M3 0l284 680h175l284 -680h-164l-61 152h-298l-61 -152h-159zM273 280h197l-99 244zM375 718q-60 0 -99.5 31t-39.5 82v5q0 51 39.5 82t99.5 31t99.5 -31t39.5 -82v-5q0 -51 -39.5 -82t-99.5 -31zM375 784q27 0 43 12.5t16 37.5q0 24 -16 36.5t-43 12.5t-43 -12.5
t-16 -37.5q0 -24 16 -36.5t43 -12.5z" />
    <glyph glyph-name="AE" unicode="&#xc6;" horiz-adv-x="1048" 
d="M3 0l355 680h639v-130h-350v-146h335v-128h-335v-146h350v-130h-505v169h-239l-87 -169h-163zM319 297h173v253h-42z" />
    <glyph glyph-name="Ccedilla" unicode="&#xc7;" horiz-adv-x="700" 
d="M349 -15q-95 0 -164.5 42.5t-107.5 120t-38 182.5v20q0 105 38.5 182.5t109 120t165.5 42.5q60 0 121.5 -20.5t135.5 -64.5l44 -26v-155l-101 62q-64 39 -107 56t-79 17q-76 0 -118.5 -57.5t-42.5 -160.5v-12q0 -103 41.5 -160.5t117.5 -57.5q78 0 207 84l88 57v-155
l-42 -27q-74 -46 -140.5 -68t-127.5 -22zM389 -227q-23 0 -49 4.5t-63 14.5l-34 10v75l47 -14q56 -17 83 -17q35 0 35 30q0 27 -43 27h-86v40l44 86l75 -2l-34 -68h22q115 0 115 -89q0 -46 -29.5 -71.5t-82.5 -25.5z" />
    <glyph glyph-name="Egrave" unicode="&#xc8;" horiz-adv-x="653" 
d="M75 0v680h526v-130h-372v-146h357v-128h-357v-146h372v-130h-526zM284 725l-148 150h154l126 -150h-132z" />
    <glyph glyph-name="Eacute" unicode="&#xc9;" horiz-adv-x="653" 
d="M75 0v680h526v-130h-372v-146h357v-128h-357v-146h372v-130h-526zM268 725l126 150h154l-148 -150h-132z" />
    <glyph glyph-name="Ecircumflex" unicode="&#xca;" horiz-adv-x="653" 
d="M75 0v680h526v-130h-372v-146h357v-128h-357v-146h372v-130h-526zM138 725l141 150h125l142 -150h-121l-83 68l-83 -68h-121z" />
    <glyph glyph-name="Edieresis" unicode="&#xcb;" horiz-adv-x="653" 
d="M75 0v680h526v-130h-372v-146h357v-128h-357v-146h372v-130h-526zM402 734v132h132v-132h-132zM150 734v132h132v-132h-132z" />
    <glyph glyph-name="Igrave" unicode="&#xcc;" horiz-adv-x="308" 
d="M76 0v680h157v-680h-157zM96 725l-148 150h154l126 -150h-132z" />
    <glyph glyph-name="Iacute" unicode="&#xcd;" horiz-adv-x="307" 
d="M75 0v680h157v-680h-157zM79 725l126 150h154l-148 -150h-132z" />
    <glyph glyph-name="Icircumflex" unicode="&#xce;" horiz-adv-x="307" 
d="M76 0v680h157v-680h-157zM-50 725l141 150h125l142 -150h-121l-83 68l-83 -68h-121z" />
    <glyph glyph-name="Idieresis" unicode="&#xcf;" horiz-adv-x="307" 
d="M76 0v680h157v-680h-157zM214 734v132h132v-132h-132zM-38 734v132h132v-132h-132z" />
    <glyph glyph-name="Eth" unicode="&#xd0;" horiz-adv-x="807" 
d="M106 0v297h-90v86h90v297h300q108 0 189.5 -38.5t126.5 -111.5t45 -177v-26q0 -104 -45 -177t-126.5 -111.5t-189.5 -38.5h-300zM399 297h-136v-170h141q93 0 145.5 52.5t52.5 153.5v14q0 101 -52.5 153.5t-145.5 52.5h-141v-170h136v-86z" />
    <glyph glyph-name="Ntilde" unicode="&#xd1;" horiz-adv-x="780" 
d="M557 680h148v-680h-161l-320 449v-449h-149v680h163l319 -449v449zM478 722q-19 0 -37.5 5.5t-47.5 19.5l-40 20q-24 11 -37 11q-23 0 -33 -34l-6 -19h-93l10 39q16 58 39.5 83.5t60.5 25.5q33 0 84 -25l41 -20q13 -6 21.5 -8.5t14.5 -2.5q24 0 34 34l6 19h93l-11 -39
q-16 -60 -38.5 -84.5t-60.5 -24.5z" />
    <glyph glyph-name="Ograve" unicode="&#xd2;" horiz-adv-x="804" 
d="M402 -15q-108 0 -189.5 43t-127.5 120t-46 179v26q0 102 46 179t127.5 120t189.5 43t189.5 -43t127.5 -120t46 -179v-26q0 -102 -46 -179t-127.5 -120t-189.5 -43zM402 116q92 0 144.5 58.5t52.5 158.5v14q0 101 -52.5 159t-144.5 58t-144.5 -58t-52.5 -159v-14
q0 -100 52.5 -158.5t144.5 -58.5zM344 725l-148 150h154l126 -150h-132z" />
    <glyph glyph-name="Oacute" unicode="&#xd3;" horiz-adv-x="804" 
d="M402 -15q-108 0 -189.5 43t-127.5 120t-46 179v26q0 102 46 179t127.5 120t189.5 43t189.5 -43t127.5 -120t46 -179v-26q0 -102 -46 -179t-127.5 -120t-189.5 -43zM402 116q92 0 144.5 58.5t52.5 158.5v14q0 101 -52.5 159t-144.5 58t-144.5 -58t-52.5 -159v-14
q0 -100 52.5 -158.5t144.5 -58.5zM328 725l126 150h154l-148 -150h-132z" />
    <glyph glyph-name="Ocircumflex" unicode="&#xd4;" horiz-adv-x="804" 
d="M402 -15q-108 0 -189.5 43t-127.5 120t-46 179v26q0 102 46 179t127.5 120t189.5 43t189.5 -43t127.5 -120t46 -179v-26q0 -102 -46 -179t-127.5 -120t-189.5 -43zM402 116q92 0 144.5 58.5t52.5 158.5v14q0 101 -52.5 159t-144.5 58t-144.5 -58t-52.5 -159v-14
q0 -100 52.5 -158.5t144.5 -58.5zM198 725l141 150h125l142 -150h-121l-83 68l-83 -68h-121z" />
    <glyph glyph-name="Otilde" unicode="&#xd5;" horiz-adv-x="804" 
d="M402 -15q-108 0 -189.5 43t-127.5 120t-46 179v26q0 102 46 179t127.5 120t189.5 43t189.5 -43t127.5 -120t46 -179v-26q0 -102 -46 -179t-127.5 -120t-189.5 -43zM402 116q92 0 144.5 58.5t52.5 158.5v14q0 101 -52.5 159t-144.5 58t-144.5 -58t-52.5 -159v-14
q0 -100 52.5 -158.5t144.5 -58.5zM491 722q-19 0 -37.5 5.5t-47.5 19.5l-40 20q-24 11 -37 11q-23 0 -33 -34l-6 -19h-93l10 39q16 58 39.5 83.5t60.5 25.5q33 0 84 -25l41 -20q13 -6 21.5 -8.5t14.5 -2.5q24 0 34 34l6 19h93l-11 -39q-16 -60 -38.5 -84.5t-60.5 -24.5z" />
    <glyph glyph-name="Odieresis" unicode="&#xd6;" horiz-adv-x="804" 
d="M402 -15q-108 0 -189.5 43t-127.5 120t-46 179v26q0 102 46 179t127.5 120t189.5 43t189.5 -43t127.5 -120t46 -179v-26q0 -102 -46 -179t-127.5 -120t-189.5 -43zM402 116q92 0 144.5 58.5t52.5 158.5v14q0 101 -52.5 159t-144.5 58t-144.5 -58t-52.5 -159v-14
q0 -100 52.5 -158.5t144.5 -58.5zM462 734v132h132v-132h-132zM210 734v132h132v-132h-132z" />
    <glyph glyph-name="multiply" unicode="&#xd7;" horiz-adv-x="620" 
d="M175 110l-87 88l135 135l-135 135l86 87l136 -135l135 135l88 -88l-136 -135l136 -135l-87 -87l-135 135z" />
    <glyph glyph-name="Oslash" unicode="&#xd8;" horiz-adv-x="804" 
d="M49 -35l92 114q-48 45 -75 108.5t-27 139.5v26q0 102 46 179t127.5 120t189.5 43q54 0 102 -11.5t88 -32.5l48 61h115l-91 -113q48 -45 74.5 -107.5t26.5 -138.5v-26q0 -102 -46 -179t-127.5 -120t-189.5 -43q-53 0 -100.5 11t-87.5 32l-50 -63h-115zM204 333
q0 -81 35 -135l265 342q-43 24 -102 24q-92 0 -145 -58t-53 -159v-14zM402 116q92 0 145 58.5t53 158.5v14q0 79 -33 133l-265 -341q43 -23 100 -23z" />
    <glyph glyph-name="Ugrave" unicode="&#xd9;" horiz-adv-x="782" 
d="M391 -15q-157 0 -240 74t-83 214v407h157v-384q0 -96 39 -138t127 -42t127 42t39 138v384h157v-407q0 -140 -83 -214t-240 -74zM330 725l-148 150h154l126 -150h-132z" />
    <glyph glyph-name="Uacute" unicode="&#xda;" horiz-adv-x="782" 
d="M391 -15q-157 0 -240 74t-83 214v407h157v-384q0 -96 39 -138t127 -42t127 42t39 138v384h157v-407q0 -140 -83 -214t-240 -74zM314 725l126 150h154l-148 -150h-132z" />
    <glyph glyph-name="Ucircumflex" unicode="&#xdb;" horiz-adv-x="782" 
d="M391 -15q-157 0 -240 74t-83 214v407h157v-384q0 -96 39 -138t127 -42t127 42t39 138v384h157v-407q0 -140 -83 -214t-240 -74zM184 725l141 150h125l142 -150h-121l-83 68l-83 -68h-121z" />
    <glyph glyph-name="Udieresis" unicode="&#xdc;" horiz-adv-x="782" 
d="M391 -15q-157 0 -240 74t-83 214v407h157v-384q0 -96 39 -138t127 -42t127 42t39 138v384h157v-407q0 -140 -83 -214t-240 -74zM448 734v132h132v-132h-132zM196 734v132h132v-132h-132z" />
    <glyph glyph-name="Yacute" unicode="&#xdd;" horiz-adv-x="739" 
d="M291 0v253l-286 427h177l192 -293l192 293h168l-286 -427v-253h-157zM299 725l126 150h154l-148 -150h-132z" />
    <glyph glyph-name="Thorn" unicode="&#xde;" horiz-adv-x="686" 
d="M75 0v680h157v-123h185q119 0 182 -54t63 -162q0 -107 -65 -162t-185 -55h-180v-124h-157zM397 429h-165v-177h165q49 0 75 23t26 66q0 88 -101 88z" />
    <glyph glyph-name="germandbls" unicode="&#xdf;" horiz-adv-x="669" 
d="M442 -10q-33 0 -70.5 10t-73.5 29l-25 14v128l37 -21q39 -21 61.5 -28t42.5 -7q32 0 50.5 20.5t18.5 57.5q0 39 -26.5 60.5t-86.5 29.5l-65 10v95l48 52q33 36 45.5 60.5t12.5 49.5q0 35 -25 54t-69 19q-97 0 -97 -98v-525h-154v541q0 100 66 154.5t188 54.5
q116 0 183 -48t67 -131q0 -40 -21 -79t-67 -86l-20 -20q86 -18 130.5 -65.5t44.5 -128.5q0 -94 -53 -148t-142 -54z" />
    <glyph glyph-name="agrave" unicode="&#xe0;" horiz-adv-x="588" 
d="M195 -10q-77 0 -120.5 39.5t-43.5 109.5q0 74 49 112.5t163 52.5l140 17q-1 43 -18 61.5t-56 18.5q-25 0 -61 -9.5t-101 -34.5l-69 -26v129l38 15q71 28 124.5 40.5t99.5 12.5q188 0 188 -196v-332h-143v70q-53 -42 -98.5 -61t-91.5 -19zM178 157q0 -23 14.5 -36
t39.5 -13q29 0 63.5 16t87.5 53v62l-122 -21q-47 -8 -65 -21.5t-18 -39.5zM238 580l-142 180h148l118 -180h-124z" />
    <glyph glyph-name="aacute" unicode="&#xe1;" horiz-adv-x="588" 
d="M195 -10q-77 0 -120.5 39.5t-43.5 109.5q0 74 49 112.5t163 52.5l140 17q-1 43 -18 61.5t-56 18.5q-25 0 -61 -9.5t-101 -34.5l-69 -26v129l38 15q71 28 124.5 40.5t99.5 12.5q188 0 188 -196v-332h-143v70q-53 -42 -98.5 -61t-91.5 -19zM178 157q0 -23 14.5 -36
t39.5 -13q29 0 63.5 16t87.5 53v62l-122 -21q-47 -8 -65 -21.5t-18 -39.5zM222 580l118 180h148l-142 -180h-124z" />
    <glyph glyph-name="acircumflex" unicode="&#xe2;" horiz-adv-x="588" 
d="M195 -10q-77 0 -120.5 39.5t-43.5 109.5q0 74 49 112.5t163 52.5l140 17q-1 43 -18 61.5t-56 18.5q-25 0 -61 -9.5t-101 -34.5l-69 -26v129l38 15q71 28 124.5 40.5t99.5 12.5q188 0 188 -196v-332h-143v70q-53 -42 -98.5 -61t-91.5 -19zM178 157q0 -23 14.5 -36
t39.5 -13q29 0 63.5 16t87.5 53v62l-122 -21q-47 -8 -65 -21.5t-18 -39.5zM91 580l138 180h125l139 -180h-120l-81 87l-81 -87h-120z" />
    <glyph glyph-name="atilde" unicode="&#xe3;" horiz-adv-x="588" 
d="M195 -10q-77 0 -120.5 39.5t-43.5 109.5q0 74 49 112.5t163 52.5l140 17q-1 43 -18 61.5t-56 18.5q-25 0 -61 -9.5t-101 -34.5l-69 -26v129l38 15q71 28 124.5 40.5t99.5 12.5q188 0 188 -196v-332h-143v70q-53 -42 -98.5 -61t-91.5 -19zM178 157q0 -23 14.5 -36
t39.5 -13q29 0 63.5 16t87.5 53v62l-122 -21q-47 -8 -65 -21.5t-18 -39.5zM375 582q-18 0 -35.5 6t-44.5 21l-34 19q-23 13 -36 13q-12 0 -19 -7.5t-13 -28.5l-6 -20h-94l11 41q17 62 41.5 89.5t62.5 27.5q17 0 34 -5.5t46 -21.5l34 -19q23 -14 36 -14q12 0 19 8t13 28l6 21
h94l-11 -41q-17 -63 -41.5 -90t-62.5 -27z" />
    <glyph glyph-name="adieresis" unicode="&#xe4;" horiz-adv-x="588" 
d="M195 -10q-77 0 -120.5 39.5t-43.5 109.5q0 74 49 112.5t163 52.5l140 17q-1 43 -18 61.5t-56 18.5q-25 0 -61 -9.5t-101 -34.5l-69 -26v129l38 15q71 28 124.5 40.5t99.5 12.5q188 0 188 -196v-332h-143v70q-53 -42 -98.5 -61t-91.5 -19zM178 157q0 -23 14.5 -36
t39.5 -13q29 0 63.5 16t87.5 53v62l-122 -21q-47 -8 -65 -21.5t-18 -39.5zM349 594v136h132v-136h-132zM103 594v136h132v-136h-132z" />
    <glyph glyph-name="aring" unicode="&#xe5;" horiz-adv-x="588" 
d="M195 -10q-77 0 -120.5 39.5t-43.5 109.5q0 74 49 112.5t163 52.5l140 17q-1 43 -18 61.5t-56 18.5q-25 0 -61 -9.5t-101 -34.5l-69 -26v129l38 15q71 28 124.5 40.5t99.5 12.5q188 0 188 -196v-332h-143v70q-53 -42 -98.5 -61t-91.5 -19zM178 157q0 -23 14.5 -36
t39.5 -13q29 0 63.5 16t87.5 53v62l-122 -21q-47 -8 -65 -21.5t-18 -39.5zM292 575q-59 0 -96.5 33.5t-37.5 86.5v5q0 53 37.5 86.5t96.5 33.5t97 -33.5t38 -86.5v-5q0 -53 -38 -86.5t-97 -33.5zM292 641q26 0 40.5 15.5t14.5 41.5q0 25 -14.5 40.5t-40.5 15.5
q-25 0 -39.5 -15.5t-14.5 -41.5q0 -25 14.5 -40.5t39.5 -15.5z" />
    <glyph glyph-name="ae" unicode="&#xe6;" horiz-adv-x="911" 
d="M193 -10q-76 0 -119 39.5t-43 109.5q0 75 50.5 115t163.5 51l126 14v2q0 44 -15 62t-53 18q-16 0 -35 -3.5t-47.5 -13.5t-74.5 -27l-68 -26v129l38 15q73 28 124 40.5t94 12.5q92 0 133 -59q65 59 168 59q111 0 174.5 -64t63.5 -177v-67h-361q10 -104 113 -104
q30 0 66.5 9t94.5 31l70 27v-129l-45 -17q-64 -26 -112 -36.5t-98 -10.5q-65 0 -113.5 24.5t-76.5 70.5l-13 -10q-59 -45 -107 -65t-98 -20zM620 415q-94 0 -107 -103h213q-10 103 -106 103zM178 158q0 -23 14 -36.5t37 -13.5q29 0 63.5 16.5t83.5 54.5q-5 30 -5 59
l-109 -19q-43 -6 -63.5 -20t-20.5 -41z" />
    <glyph glyph-name="ccedilla" unicode="&#xe7;" horiz-adv-x="533" 
d="M264 -10q-69 0 -120.5 32t-80 89.5t-28.5 133.5v28q0 74 30 131.5t82 90.5t117 33q45 0 88.5 -14.5t99.5 -47.5l38 -23v-139l-54 37q-54 36 -86.5 50t-61.5 14q-46 0 -72.5 -35t-26.5 -99v-24q0 -63 26 -98.5t71 -35.5q29 0 62 15t89 54l55 38v-140l-36 -24
q-53 -34 -99.5 -50t-92.5 -16zM307 -227q-24 0 -49.5 4.5t-60.5 14.5l-32 10v75l45 -14q32 -10 49 -13.5t32 -3.5q34 0 34 30q0 27 -42 27h-83v51l34 75l72 -2l-30 -68h28q111 0 111 -89q0 -46 -28.5 -71.5t-79.5 -25.5z" />
    <glyph glyph-name="egrave" unicode="&#xe8;" horiz-adv-x="592" 
d="M278 -10q-74 0 -128.5 31t-84.5 87.5t-30 134.5v24q0 79 33 138t92.5 91t139.5 32q119 0 186.5 -64t67.5 -177v-67h-368q11 -104 116 -104q36 0 73.5 9t90.5 31l70 27v-129l-45 -18q-57 -24 -107 -35t-106 -11zM297 415q-96 0 -110 -103h219q-11 103 -109 103zM249 580
l-142 180h148l118 -180h-124z" />
    <glyph glyph-name="eacute" unicode="&#xe9;" horiz-adv-x="592" 
d="M278 -10q-74 0 -128.5 31t-84.5 87.5t-30 134.5v24q0 79 33 138t92.5 91t139.5 32q119 0 186.5 -64t67.5 -177v-67h-368q11 -104 116 -104q36 0 73.5 9t90.5 31l70 27v-129l-45 -18q-57 -24 -107 -35t-106 -11zM297 415q-96 0 -110 -103h219q-11 103 -109 103zM233 580
l118 180h148l-142 -180h-124z" />
    <glyph glyph-name="ecircumflex" unicode="&#xea;" horiz-adv-x="592" 
d="M278 -10q-74 0 -128.5 31t-84.5 87.5t-30 134.5v24q0 79 33 138t92.5 91t139.5 32q119 0 186.5 -64t67.5 -177v-67h-368q11 -104 116 -104q36 0 73.5 9t90.5 31l70 27v-129l-45 -18q-57 -24 -107 -35t-106 -11zM297 415q-96 0 -110 -103h219q-11 103 -109 103zM102 580
l138 180h125l139 -180h-120l-81 87l-81 -87h-120z" />
    <glyph glyph-name="edieresis" unicode="&#xeb;" horiz-adv-x="592" 
d="M278 -10q-74 0 -128.5 31t-84.5 87.5t-30 134.5v24q0 79 33 138t92.5 91t139.5 32q119 0 186.5 -64t67.5 -177v-67h-368q11 -104 116 -104q36 0 73.5 9t90.5 31l70 27v-129l-45 -18q-57 -24 -107 -35t-106 -11zM297 415q-96 0 -110 -103h219q-11 103 -109 103zM360 594
v136h132v-136h-132zM114 594v136h132v-136h-132z" />
    <glyph glyph-name="igrave" unicode="&#xec;" horiz-adv-x="280" 
d="M63 0v518h150v-518h-150zM91 580l-132 180h146l109 -180h-123z" />
    <glyph glyph-name="iacute" unicode="&#xed;" horiz-adv-x="282" 
d="M65 0v518h150v-518h-150zM73 580l109 180h146l-132 -180h-123z" />
    <glyph glyph-name="icircumflex" unicode="&#xee;" horiz-adv-x="280" 
d="M65 0v518h150v-518h-150zM-46 580l128 180h115l129 -180h-115l-71 86l-72 -86h-114z" />
    <glyph glyph-name="idieresis" unicode="&#xef;" horiz-adv-x="280" 
d="M63 0v518h150v-518h-150zM182 594v136h129v-136h-129zM-31 594v136h129v-136h-129z" />
    <glyph glyph-name="eth" unicode="&#xf0;" horiz-adv-x="632" 
d="M311 -10q-128 0 -202 66t-74 181v15q0 71 29 124t80.5 82.5t120.5 29.5q30 0 59 -7.5t64 -23.5q-38 58 -105 123l-159 -55l-30 73l124 43l-106 99h178l58 -54l155 54l30 -73l-121 -42q98 -94 141 -173t43 -164v-20q0 -86 -34.5 -148.5t-98.5 -96t-152 -33.5zM189 242
q0 -62 32.5 -96t91.5 -34q62 0 95.5 40.5t33.5 114.5v21q0 24 -4 49q-42 22 -72 32t-60 10q-56 0 -86.5 -33.5t-30.5 -93.5v-10z" />
    <glyph glyph-name="ntilde" unicode="&#xf1;" horiz-adv-x="625" 
d="M65 0v518h148v-76l3 3q52 44 95 63.5t89 19.5q77 0 121 -51t44 -142v-335h-150v309q0 43 -18.5 66.5t-52.5 23.5q-24 0 -51 -14t-65 -47l-13 -10v-328h-150zM397 582q-18 0 -35.5 6t-44.5 21l-34 19q-23 13 -36 13q-12 0 -19 -7.5t-13 -28.5l-6 -20h-94l11 41
q17 62 41.5 89.5t62.5 27.5q17 0 34 -5.5t46 -21.5l34 -19q23 -14 36 -14q12 0 19 8t13 28l6 21h94l-11 -41q-17 -63 -41.5 -90t-62.5 -27z" />
    <glyph glyph-name="ograve" unicode="&#xf2;" horiz-adv-x="627" 
d="M313 -10q-85 0 -147.5 31t-96.5 89t-34 136v25q0 79 34 137t96.5 89t147.5 31q86 0 148 -31t96 -89t34 -137v-25q0 -78 -34 -136t-96 -89t-148 -31zM313 112q60 0 92 35.5t32 100.5v21q0 65 -32 101t-92 36q-59 0 -91.5 -36t-32.5 -101v-21q0 -65 32.5 -100.5t91.5 -35.5
zM259 580l-142 180h148l118 -180h-124z" />
    <glyph glyph-name="oacute" unicode="&#xf3;" horiz-adv-x="627" 
d="M313 -10q-85 0 -147.5 31t-96.5 89t-34 136v25q0 79 34 137t96.5 89t147.5 31q86 0 148 -31t96 -89t34 -137v-25q0 -78 -34 -136t-96 -89t-148 -31zM313 112q60 0 92 35.5t32 100.5v21q0 65 -32 101t-92 36q-59 0 -91.5 -36t-32.5 -101v-21q0 -65 32.5 -100.5t91.5 -35.5
zM243 580l118 180h148l-142 -180h-124z" />
    <glyph glyph-name="ocircumflex" unicode="&#xf4;" horiz-adv-x="627" 
d="M313 -10q-85 0 -147.5 31t-96.5 89t-34 136v25q0 79 34 137t96.5 89t147.5 31q86 0 148 -31t96 -89t34 -137v-25q0 -78 -34 -136t-96 -89t-148 -31zM313 112q60 0 92 35.5t32 100.5v21q0 65 -32 101t-92 36q-59 0 -91.5 -36t-32.5 -101v-21q0 -65 32.5 -100.5t91.5 -35.5
zM112 580l138 180h125l139 -180h-120l-81 87l-81 -87h-120z" />
    <glyph glyph-name="otilde" unicode="&#xf5;" horiz-adv-x="627" 
d="M313 -10q-85 0 -147.5 31t-96.5 89t-34 136v25q0 79 34 137t96.5 89t147.5 31q86 0 148 -31t96 -89t34 -137v-25q0 -78 -34 -136t-96 -89t-148 -31zM313 112q60 0 92 35.5t32 100.5v21q0 65 -32 101t-92 36q-59 0 -91.5 -36t-32.5 -101v-21q0 -65 32.5 -100.5t91.5 -35.5
zM396 582q-18 0 -35.5 6t-44.5 21l-34 19q-23 13 -36 13q-12 0 -19 -7.5t-13 -28.5l-6 -20h-94l11 41q17 62 41.5 89.5t62.5 27.5q17 0 34 -5.5t46 -21.5l34 -19q23 -14 36 -14q12 0 19 8t13 28l6 21h94l-11 -41q-17 -63 -41.5 -90t-62.5 -27z" />
    <glyph glyph-name="odieresis" unicode="&#xf6;" horiz-adv-x="627" 
d="M313 -10q-85 0 -147.5 31t-96.5 89t-34 136v25q0 79 34 137t96.5 89t147.5 31q86 0 148 -31t96 -89t34 -137v-25q0 -78 -34 -136t-96 -89t-148 -31zM313 112q60 0 92 35.5t32 100.5v21q0 65 -32 101t-92 36q-59 0 -91.5 -36t-32.5 -101v-21q0 -65 32.5 -100.5t91.5 -35.5
zM370 594v136h132v-136h-132zM124 594v136h132v-136h-132z" />
    <glyph glyph-name="divide" unicode="&#xf7;" horiz-adv-x="620" 
d="M235 454v126h150v-126h-150zM73 273v119h474v-119h-474zM235 85v126h150v-126h-150z" />
    <glyph glyph-name="oslash" unicode="&#xf8;" horiz-adv-x="627" 
d="M45 -30l68 88q-37 34 -57.5 81.5t-20.5 106.5v25q0 79 34 137t96.5 89t147.5 31q74 0 132 -25l34 45h102l-67 -88q37 -34 57 -82t20 -107v-25q0 -78 -34 -136t-96 -89t-148 -31q-73 0 -131 25l-34 -45h-103zM184 245q0 -46 16 -77l169 232q-24 9 -56 9q-60 0 -94.5 -37
t-34.5 -101v-26zM313 110q61 0 95.5 36.5t34.5 100.5v26q0 46 -16 77l-169 -232q24 -8 55 -8z" />
    <glyph glyph-name="ugrave" unicode="&#xf9;" horiz-adv-x="614" 
d="M221 -10q-76 0 -118.5 50t-42.5 141v337h150v-311q0 -87 65 -87q24 0 48.5 13t58.5 42l17 14v329h150v-518h-148v73q-54 -46 -95 -64.5t-85 -18.5zM253 580l-142 180h148l118 -180h-124z" />
    <glyph glyph-name="uacute" unicode="&#xfa;" horiz-adv-x="614" 
d="M221 -10q-76 0 -118.5 50t-42.5 141v337h150v-311q0 -87 65 -87q24 0 48.5 13t58.5 42l17 14v329h150v-518h-148v73q-54 -46 -95 -64.5t-85 -18.5zM237 580l118 180h148l-142 -180h-124z" />
    <glyph glyph-name="ucircumflex" unicode="&#xfb;" horiz-adv-x="614" 
d="M221 -10q-76 0 -118.5 50t-42.5 141v337h150v-311q0 -87 65 -87q24 0 48.5 13t58.5 42l17 14v329h150v-518h-148v73q-54 -46 -95 -64.5t-85 -18.5zM106 580l138 180h125l139 -180h-120l-81 87l-81 -87h-120z" />
    <glyph glyph-name="udieresis" unicode="&#xfc;" horiz-adv-x="614" 
d="M221 -10q-76 0 -118.5 50t-42.5 141v337h150v-311q0 -87 65 -87q24 0 48.5 13t58.5 42l17 14v329h150v-518h-148v73q-54 -46 -95 -64.5t-85 -18.5zM364 594v136h132v-136h-132zM118 594v136h132v-136h-132z" />
    <glyph glyph-name="yacute" unicode="&#xfd;" horiz-adv-x="587" 
d="M177 -210q-50 0 -98 24l-15 7v134l33 -16q19 -10 31.5 -13.5t22.5 -3.5q17 0 28.5 10.5t23.5 36.5l16 35l-214 514h161l132 -345l130 345h154l-242 -580q-35 -83 -70.5 -115.5t-92.5 -32.5zM219 580l118 180h148l-142 -180h-124z" />
    <glyph glyph-name="thorn" unicode="&#xfe;" horiz-adv-x="648" 
d="M66 -200v940h150v-291q57 43 99 61t84 18q98 0 155.5 -69.5t57.5 -188.5v-21q0 -79 -25.5 -137t-73 -90t-111.5 -32q-44 0 -87.5 18.5t-98.5 59.5v-268h-150zM221 185q47 -37 77.5 -53t58.5 -16q47 0 74 36t27 99v17q0 62 -27 98t-74 36q-28 0 -58.5 -15.5t-77.5 -52.5
l-5 -4v-142z" />
    <glyph glyph-name="ydieresis" unicode="&#xff;" horiz-adv-x="587" 
d="M177 -210q-50 0 -98 24l-15 7v134l33 -16q19 -10 31.5 -13.5t22.5 -3.5q17 0 28.5 10.5t23.5 36.5l16 35l-214 514h161l132 -345l130 345h154l-242 -580q-35 -83 -70.5 -115.5t-92.5 -32.5zM346 594v136h132v-136h-132zM100 594v136h132v-136h-132z" />
    <glyph glyph-name="Amacron" unicode="&#x100;" horiz-adv-x="749" 
d="M3 0l284 680h175l284 -680h-164l-61 152h-298l-61 -152h-159zM273 280h197l-99 244zM172 748v104h406v-104h-406z" />
    <glyph glyph-name="amacron" unicode="&#x101;" horiz-adv-x="588" 
d="M195 -10q-77 0 -120.5 39.5t-43.5 109.5q0 74 49 112.5t163 52.5l140 17q-1 43 -18 61.5t-56 18.5q-25 0 -61 -9.5t-101 -34.5l-69 -26v129l38 15q71 28 124.5 40.5t99.5 12.5q188 0 188 -196v-332h-143v70q-53 -42 -98.5 -61t-91.5 -19zM178 157q0 -23 14.5 -36
t39.5 -13q29 0 63.5 16t87.5 53v62l-122 -21q-47 -8 -65 -21.5t-18 -39.5zM94 606v105h396v-105h-396z" />
    <glyph glyph-name="Abreve" unicode="&#x102;" horiz-adv-x="749" 
d="M3 0l284 680h175l284 -680h-164l-61 152h-298l-61 -152h-159zM273 280h197l-99 244zM375 721q-144 0 -182 121l-7 25h104l4 -10q16 -41 81 -41t81 41l4 10h104l-7 -25q-38 -121 -182 -121z" />
    <glyph glyph-name="abreve" unicode="&#x103;" horiz-adv-x="588" 
d="M195 -10q-77 0 -120.5 39.5t-43.5 109.5q0 74 49 112.5t163 52.5l140 17q-1 43 -18 61.5t-56 18.5q-25 0 -61 -9.5t-101 -34.5l-69 -26v129l38 15q71 28 124.5 40.5t99.5 12.5q188 0 188 -196v-332h-143v70q-53 -42 -98.5 -61t-91.5 -19zM178 157q0 -23 14.5 -36
t39.5 -13q29 0 63.5 16t87.5 53v62l-122 -21q-47 -8 -65 -21.5t-18 -39.5zM292 579q-69 0 -112 36.5t-65 113.5l-7 28h104l4 -15q19 -63 76 -63q30 0 48 15t28 48l4 15h104l-7 -28q-22 -77 -65 -113.5t-112 -36.5z" />
    <glyph glyph-name="Aogonek" unicode="&#x104;" horiz-adv-x="749" 
d="M3 0l284 680h175l284 -680h-164l-61 152h-298l-61 -152h-159zM273 280h197l-99 244zM618 -227q-45 0 -73 25t-28 66q0 34 18.5 59t65.5 57l80 54l65 -34l-86 -61q-27 -19 -36.5 -30.5t-9.5 -26.5q0 -30 31 -30q21 0 52 15l39 19v-80l-22 -10q-27 -11 -49.5 -17t-46.5 -6z
" />
    <glyph glyph-name="aogonek" unicode="&#x105;" horiz-adv-x="588" 
d="M195 -10q-77 0 -120.5 39.5t-43.5 109.5q0 74 49 112.5t163 52.5l140 17q-1 43 -18 61.5t-56 18.5q-25 0 -61 -9.5t-101 -34.5l-69 -26v129l38 15q71 28 124.5 40.5t99.5 12.5q188 0 188 -196v-332h-143v70q-53 -42 -98.5 -61t-91.5 -19zM178 157q0 -23 14.5 -36
t39.5 -13q29 0 63.5 16t87.5 53v62l-122 -21q-47 -8 -65 -21.5t-18 -39.5zM402 -227q-44 0 -71 25t-27 65q0 35 18 60t66 57l76 54l64 -34l-81 -58q-29 -21 -39 -33t-10 -27q0 -30 31 -30q19 0 50 15l39 19v-80l-21 -9q-54 -24 -95 -24z" />
    <glyph glyph-name="Cacute" unicode="&#x106;" horiz-adv-x="700" 
d="M349 -15q-95 0 -164.5 42.5t-107.5 120t-38 182.5v20q0 105 38.5 182.5t109 120t165.5 42.5q60 0 121.5 -20.5t135.5 -64.5l44 -26v-155l-101 62q-64 39 -107 56t-79 17q-76 0 -118.5 -57.5t-42.5 -160.5v-12q0 -103 41.5 -160.5t117.5 -57.5q78 0 207 84l88 57v-155
l-42 -27q-74 -46 -140.5 -68t-127.5 -22zM305 725l126 150h154l-148 -150h-132z" />
    <glyph glyph-name="cacute" unicode="&#x107;" horiz-adv-x="533" 
d="M264 -10q-69 0 -120.5 32t-80 89.5t-28.5 133.5v28q0 74 30 131.5t82 90.5t117 33q45 0 88.5 -14.5t99.5 -47.5l38 -23v-139l-54 37q-54 36 -86.5 50t-61.5 14q-46 0 -72.5 -35t-26.5 -99v-24q0 -63 26 -98.5t71 -35.5q29 0 62 15t89 54l55 38v-140l-36 -24
q-53 -34 -99.5 -50t-92.5 -16zM206 580l118 180h148l-142 -180h-124z" />
    <glyph glyph-name="Ccircumflex" unicode="&#x108;" horiz-adv-x="700" 
d="M349 -15q-95 0 -164.5 42.5t-107.5 120t-38 182.5v20q0 105 38.5 182.5t109 120t165.5 42.5q60 0 121.5 -20.5t135.5 -64.5l44 -26v-155l-101 62q-64 39 -107 56t-79 17q-76 0 -118.5 -57.5t-42.5 -160.5v-12q0 -103 41.5 -160.5t117.5 -57.5q78 0 207 84l88 57v-155
l-42 -27q-74 -46 -140.5 -68t-127.5 -22zM175 725l141 150h125l142 -150h-121l-83 68l-83 -68h-121z" />
    <glyph glyph-name="ccircumflex" unicode="&#x109;" horiz-adv-x="533" 
d="M264 -10q-69 0 -120.5 32t-80 89.5t-28.5 133.5v28q0 74 30 131.5t82 90.5t117 33q45 0 88.5 -14.5t99.5 -47.5l38 -23v-139l-54 37q-54 36 -86.5 50t-61.5 14q-46 0 -72.5 -35t-26.5 -99v-24q0 -63 26 -98.5t71 -35.5q29 0 62 15t89 54l55 38v-140l-36 -24
q-53 -34 -99.5 -50t-92.5 -16zM75 580l138 180h125l139 -180h-120l-81 87l-81 -87h-120z" />
    <glyph glyph-name="Cdotaccent" unicode="&#x10a;" horiz-adv-x="700" 
d="M349 -15q-95 0 -164.5 42.5t-107.5 120t-38 182.5v20q0 105 38.5 182.5t109 120t165.5 42.5q60 0 121.5 -20.5t135.5 -64.5l44 -26v-155l-101 62q-64 39 -107 56t-79 17q-76 0 -118.5 -57.5t-42.5 -160.5v-12q0 -103 41.5 -160.5t117.5 -57.5q78 0 207 84l88 57v-155
l-42 -27q-74 -46 -140.5 -68t-127.5 -22zM295 730v140h165v-140h-165z" />
    <glyph glyph-name="cdotaccent" unicode="&#x10b;" horiz-adv-x="533" 
d="M264 -10q-69 0 -120.5 32t-80 89.5t-28.5 133.5v28q0 74 30 131.5t82 90.5t117 33q45 0 88.5 -14.5t99.5 -47.5l38 -23v-139l-54 37q-54 36 -86.5 50t-61.5 14q-46 0 -72.5 -35t-26.5 -99v-24q0 -63 26 -98.5t71 -35.5q29 0 62 15t89 54l55 38v-140l-36 -24
q-53 -34 -99.5 -50t-92.5 -16zM192 592v147h167v-147h-167z" />
    <glyph glyph-name="Ccaron" unicode="&#x10c;" horiz-adv-x="700" 
d="M349 -15q-95 0 -164.5 42.5t-107.5 120t-38 182.5v20q0 105 38.5 182.5t109 120t165.5 42.5q60 0 121.5 -20.5t135.5 -64.5l44 -26v-155l-101 62q-64 39 -107 56t-79 17q-76 0 -118.5 -57.5t-42.5 -160.5v-12q0 -103 41.5 -160.5t117.5 -57.5q78 0 207 84l88 57v-155
l-42 -27q-74 -46 -140.5 -68t-127.5 -22zM316 725l-141 150h122l82 -67l82 67h121l-140 -150h-126z" />
    <glyph glyph-name="ccaron" unicode="&#x10d;" horiz-adv-x="533" 
d="M264 -10q-69 0 -120.5 32t-80 89.5t-28.5 133.5v28q0 74 30 131.5t82 90.5t117 33q45 0 88.5 -14.5t99.5 -47.5l38 -23v-139l-54 37q-54 36 -86.5 50t-61.5 14q-46 0 -72.5 -35t-26.5 -99v-24q0 -63 26 -98.5t71 -35.5q29 0 62 15t89 54l55 38v-140l-36 -24
q-53 -34 -99.5 -50t-92.5 -16zM213 580l-138 180h120l81 -87l81 87h120l-138 -180h-126z" />
    <glyph glyph-name="Dcaron" unicode="&#x10e;" horiz-adv-x="776" 
d="M75 0v680h300q108 0 189.5 -38.5t126.5 -111.5t45 -177v-26q0 -104 -45 -177t-126.5 -111.5t-189.5 -38.5h-300zM373 553h-141v-426h141q92 0 145 52.5t53 153.5v14q0 101 -53 153.5t-145 52.5zM321 725l-141 150h122l82 -67l82 67h121l-140 -150h-126z" />
    <glyph glyph-name="dcaron" unicode="&#x10f;" horiz-adv-x="646" 
d="M248 -10q-98 0 -155.5 70t-57.5 189v21q0 79 26 137t73 89.5t112 31.5q44 0 87.5 -18t97.5 -60v290h150v-740h-148v71q-57 -44 -99.5 -62.5t-85.5 -18.5zM190 251q0 -63 27 -99t74 -36q28 0 58.5 16t77.5 53l4 3v142l-4 4q-47 37 -77.5 52.5t-58.5 15.5q-47 0 -74 -36
t-27 -98v-17zM623 546l23 220h131l-44 -220h-110z" />
    <glyph glyph-name="Dcroat" unicode="&#x110;" horiz-adv-x="807" 
d="M106 0v297h-90v86h90v297h300q108 0 189.5 -38.5t126.5 -111.5t45 -177v-26q0 -104 -45 -177t-126.5 -111.5t-189.5 -38.5h-300zM399 297h-136v-170h141q93 0 145.5 52.5t52.5 153.5v14q0 101 -52.5 153.5t-145.5 52.5h-141v-170h136v-86z" />
    <glyph glyph-name="dcroat" unicode="&#x111;" horiz-adv-x="646" 
d="M248 -10q-98 0 -155.5 70t-57.5 189v21q0 79 26 137t73 89.5t112 31.5q44 0 87.5 -18t97.5 -60v140h-180v81h180v69h150v-69h89v-81h-89v-590h-148v71q-57 -44 -99.5 -62.5t-85.5 -18.5zM190 251q0 -63 27 -99t74 -36q28 0 58.5 16t77.5 53l4 3v142l-4 4
q-47 37 -77.5 52.5t-58.5 15.5q-47 0 -74 -36t-27 -98v-17z" />
    <glyph glyph-name="Emacron" unicode="&#x112;" horiz-adv-x="653" 
d="M75 0v680h526v-130h-372v-146h357v-128h-357v-146h372v-130h-526zM139 748v104h406v-104h-406z" />
    <glyph glyph-name="emacron" unicode="&#x113;" horiz-adv-x="592" 
d="M278 -10q-74 0 -128.5 31t-84.5 87.5t-30 134.5v24q0 79 33 138t92.5 91t139.5 32q119 0 186.5 -64t67.5 -177v-67h-368q11 -104 116 -104q36 0 73.5 9t90.5 31l70 27v-129l-45 -18q-57 -24 -107 -35t-106 -11zM297 415q-96 0 -110 -103h219q-11 103 -109 103zM105 606
v105h396v-105h-396z" />
    <glyph glyph-name="Ebreve" unicode="&#x114;" horiz-adv-x="653" 
d="M75 0v680h526v-130h-372v-146h357v-128h-357v-146h372v-130h-526zM342 721q-144 0 -182 121l-7 25h104l4 -10q16 -41 81 -41t81 41l4 10h104l-7 -25q-38 -121 -182 -121z" />
    <glyph glyph-name="ebreve" unicode="&#x115;" horiz-adv-x="592" 
d="M278 -10q-74 0 -128.5 31t-84.5 87.5t-30 134.5v24q0 79 33 138t92.5 91t139.5 32q119 0 186.5 -64t67.5 -177v-67h-368q11 -104 116 -104q36 0 73.5 9t90.5 31l70 27v-129l-45 -18q-57 -24 -107 -35t-106 -11zM297 415q-96 0 -110 -103h219q-11 103 -109 103zM303 579
q-69 0 -112 36.5t-65 113.5l-7 28h104l4 -15q19 -63 76 -63q30 0 48 15t28 48l4 15h104l-7 -28q-22 -77 -65 -113.5t-112 -36.5z" />
    <glyph glyph-name="Edotaccent" unicode="&#x116;" horiz-adv-x="653" 
d="M75 0v680h526v-130h-372v-146h357v-128h-357v-146h372v-130h-526zM258 730v140h165v-140h-165z" />
    <glyph glyph-name="edotaccent" unicode="&#x117;" horiz-adv-x="592" 
d="M278 -10q-74 0 -128.5 31t-84.5 87.5t-30 134.5v24q0 79 33 138t92.5 91t139.5 32q119 0 186.5 -64t67.5 -177v-67h-368q11 -104 116 -104q36 0 73.5 9t90.5 31l70 27v-129l-45 -18q-57 -24 -107 -35t-106 -11zM297 415q-96 0 -110 -103h219q-11 103 -109 103zM219 592
v147h167v-147h-167z" />
    <glyph glyph-name="Eogonek" unicode="&#x118;" horiz-adv-x="653" 
d="M75 0v680h526v-130h-372v-146h357v-128h-357v-146h372v-130h-526zM473 -227q-45 0 -73 25t-28 66q0 34 18.5 59t65.5 57l80 54l65 -34l-86 -61q-27 -19 -36.5 -30.5t-9.5 -26.5q0 -30 31 -30q21 0 52 15l39 19v-80l-22 -10q-27 -11 -49.5 -17t-46.5 -6z" />
    <glyph glyph-name="eogonek" unicode="&#x119;" horiz-adv-x="592" 
d="M278 -10q-74 0 -128.5 31t-84.5 87.5t-30 134.5v24q0 79 33 138t92.5 91t139.5 32q119 0 186.5 -64t67.5 -177v-67h-368q11 -104 116 -104q36 0 73.5 9t90.5 31l70 27v-129l-45 -18q-57 -24 -107 -35t-106 -11zM297 415q-96 0 -110 -103h219q-11 103 -109 103zM412 -228
q-44 0 -71.5 24.5t-27.5 64.5q0 21 6.5 38.5t23 39t46.5 52.5l101 105l47 -42l-91 -101q-22 -26 -30.5 -40.5t-8.5 -29.5q0 -32 32 -32q10 0 21.5 3.5t29.5 11.5l38 19v-80l-22 -10q-51 -23 -94 -23z" />
    <glyph glyph-name="Ecaron" unicode="&#x11a;" horiz-adv-x="653" 
d="M75 0v680h526v-130h-372v-146h357v-128h-357v-146h372v-130h-526zM279 725l-141 150h122l82 -67l82 67h121l-140 -150h-126z" />
    <glyph glyph-name="ecaron" unicode="&#x11b;" horiz-adv-x="592" 
d="M278 -10q-74 0 -128.5 31t-84.5 87.5t-30 134.5v24q0 79 33 138t92.5 91t139.5 32q119 0 186.5 -64t67.5 -177v-67h-368q11 -104 116 -104q36 0 73.5 9t90.5 31l70 27v-129l-45 -18q-57 -24 -107 -35t-106 -11zM297 415q-96 0 -110 -103h219q-11 103 -109 103zM240 580
l-138 180h120l81 -87l81 87h120l-138 -180h-126z" />
    <glyph glyph-name="Gcircumflex" unicode="&#x11c;" horiz-adv-x="757" 
d="M364 -15q-99 0 -172 42.5t-113 120t-40 182.5v20q0 105 42 182.5t118.5 120t178.5 42.5q57 0 117 -15t144 -48l52 -21v-146l-109 44q-50 20 -85 32t-62 17.5t-54 5.5q-83 0 -129.5 -57.5t-46.5 -160.5v-12q0 -106 43 -162t125 -56q44 0 87 13.5t95 43.5v97h-178v124h330
v-285l-38 -22q-168 -102 -305 -102zM200 725l141 150h125l142 -150h-121l-83 68l-83 -68h-121z" />
    <glyph glyph-name="gcircumflex" unicode="&#x11d;" horiz-adv-x="653" 
d="M244 14q-62 0 -109.5 31t-73.5 87t-26 131v15q0 77 26 133t74 86.5t112 30.5q43 0 87.5 -20.5t105.5 -70.5v81h148v-498q0 -112 -60 -171t-176 -59q-54 0 -110.5 13t-124.5 39l-50 19v137l73 -31q63 -27 107.5 -39t82.5 -12q108 0 108 118v69q-60 -49 -104.5 -69
t-89.5 -20zM190 265q0 -60 25.5 -93.5t71.5 -33.5q26 0 59 17.5t81 55.5l11 10v98l-11 10q-48 38 -81 55.5t-59 17.5q-47 0 -72 -32.5t-25 -93.5v-11zM113 580l138 180h125l139 -180h-120l-81 87l-81 -87h-120z" />
    <glyph glyph-name="Gbreve" unicode="&#x11e;" horiz-adv-x="757" 
d="M364 -15q-99 0 -172 42.5t-113 120t-40 182.5v20q0 105 42 182.5t118.5 120t178.5 42.5q57 0 117 -15t144 -48l52 -21v-146l-109 44q-50 20 -85 32t-62 17.5t-54 5.5q-83 0 -129.5 -57.5t-46.5 -160.5v-12q0 -106 43 -162t125 -56q44 0 87 13.5t95 43.5v97h-178v124h330
v-285l-38 -22q-168 -102 -305 -102zM404 721q-144 0 -182 121l-7 25h104l4 -10q16 -41 81 -41t81 41l4 10h104l-7 -25q-38 -121 -182 -121z" />
    <glyph glyph-name="gbreve" unicode="&#x11f;" horiz-adv-x="653" 
d="M244 14q-62 0 -109.5 31t-73.5 87t-26 131v15q0 77 26 133t74 86.5t112 30.5q43 0 87.5 -20.5t105.5 -70.5v81h148v-498q0 -112 -60 -171t-176 -59q-54 0 -110.5 13t-124.5 39l-50 19v137l73 -31q63 -27 107.5 -39t82.5 -12q108 0 108 118v69q-60 -49 -104.5 -69
t-89.5 -20zM190 265q0 -60 25.5 -93.5t71.5 -33.5q26 0 59 17.5t81 55.5l11 10v98l-11 10q-48 38 -81 55.5t-59 17.5q-47 0 -72 -32.5t-25 -93.5v-11zM314 579q-69 0 -112 36.5t-65 113.5l-7 28h104l4 -15q19 -63 76 -63q30 0 48 15t28 48l4 15h104l-7 -28
q-22 -77 -65 -113.5t-112 -36.5z" />
    <glyph glyph-name="Gdotaccent" unicode="&#x120;" horiz-adv-x="757" 
d="M364 -15q-99 0 -172 42.5t-113 120t-40 182.5v20q0 105 42 182.5t118.5 120t178.5 42.5q57 0 117 -15t144 -48l52 -21v-146l-109 44q-50 20 -85 32t-62 17.5t-54 5.5q-83 0 -129.5 -57.5t-46.5 -160.5v-12q0 -106 43 -162t125 -56q44 0 87 13.5t95 43.5v97h-178v124h330
v-285l-38 -22q-168 -102 -305 -102zM320 730v140h165v-140h-165z" />
    <glyph glyph-name="gdotaccent" unicode="&#x121;" horiz-adv-x="653" 
d="M244 14q-62 0 -109.5 31t-73.5 87t-26 131v15q0 77 26 133t74 86.5t112 30.5q43 0 87.5 -20.5t105.5 -70.5v81h148v-498q0 -112 -60 -171t-176 -59q-54 0 -110.5 13t-124.5 39l-50 19v137l73 -31q63 -27 107.5 -39t82.5 -12q108 0 108 118v69q-60 -49 -104.5 -69
t-89.5 -20zM190 265q0 -60 25.5 -93.5t71.5 -33.5q26 0 59 17.5t81 55.5l11 10v98l-11 10q-48 38 -81 55.5t-59 17.5q-47 0 -72 -32.5t-25 -93.5v-11zM230 592v147h167v-147h-167z" />
    <glyph glyph-name="uni0122" unicode="&#x122;" horiz-adv-x="757" 
d="M364 -15q-99 0 -172 42.5t-113 120t-40 182.5v20q0 105 42 182.5t118.5 120t178.5 42.5q57 0 117 -15t144 -48l52 -21v-146l-109 44q-50 20 -85 32t-62 17.5t-54 5.5q-83 0 -129.5 -57.5t-46.5 -160.5v-12q0 -106 43 -162t125 -56q44 0 87 13.5t95 43.5v97h-178v124h330
v-285l-38 -22q-168 -102 -305 -102zM274 -227l40 174h137l-60 -174h-117z" />
    <glyph glyph-name="uni0123" unicode="&#x123;" horiz-adv-x="653" 
d="M244 14q-62 0 -109.5 31t-73.5 87t-26 131v15q0 77 26 133t74 86.5t112 30.5q43 0 87.5 -20.5t105.5 -70.5v81h148v-498q0 -112 -60 -171t-176 -59q-54 0 -110.5 13t-124.5 39l-50 19v137l73 -31q63 -27 107.5 -39t82.5 -12q108 0 108 118v69q-60 -49 -104.5 -69
t-89.5 -20zM190 265q0 -60 25.5 -93.5t71.5 -33.5q26 0 59 17.5t81 55.5l11 10v98l-11 10q-48 38 -81 55.5t-59 17.5q-47 0 -72 -32.5t-25 -93.5v-11zM245 580l61 180h119l-42 -180h-138z" />
    <glyph glyph-name="Hcircumflex" unicode="&#x124;" horiz-adv-x="778" 
d="M75 0v680h157v-275h314v275h157v-680h-157v275h-314v-275h-157zM184 725l141 150h125l142 -150h-121l-83 68l-83 -68h-121z" />
    <glyph glyph-name="hcircumflex" unicode="&#x125;" horiz-adv-x="626" 
d="M66 0v740h150v-295q52 44 95.5 63.5t89.5 19.5q77 0 121 -51t44 -142v-335h-150v309q0 43 -18.5 66.5t-51.5 23.5q-25 0 -52 -14t-67 -48l-11 -9v-328h-150zM-63 785l141 150h125l142 -150h-121l-83 68l-83 -68h-121z" />
    <glyph glyph-name="Hbar" unicode="&#x126;" horiz-adv-x="845" 
d="M109 0v484h-87v85h87v111h156v-111h315v111h156v-111h87v-85h-87v-484h-156v255h-315v-255h-156zM265 385h315v99h-315v-99z" />
    <glyph glyph-name="hbar" unicode="&#x127;" horiz-adv-x="626" 
d="M66 0v590h-88v81h88v69h150v-69h192v-81h-192v-145q52 44 95.5 63.5t89.5 19.5q77 0 121 -51t44 -142v-335h-150v309q0 43 -18.5 66.5t-51.5 23.5q-25 0 -52 -14t-67 -48l-11 -9v-328h-150z" />
    <glyph glyph-name="Itilde" unicode="&#x128;" horiz-adv-x="307" 
d="M76 0v680h157v-680h-157zM243 722q-19 0 -37.5 5.5t-47.5 19.5l-40 20q-24 11 -37 11q-23 0 -33 -34l-6 -19h-93l10 39q16 58 39.5 83.5t60.5 25.5q33 0 84 -25l41 -20q13 -6 21.5 -8.5t14.5 -2.5q24 0 34 34l6 19h93l-11 -39q-16 -60 -38.5 -84.5t-60.5 -24.5z" />
    <glyph glyph-name="itilde" unicode="&#x129;" horiz-adv-x="280" 
d="M65 0v518h150v-518h-150zM217 582q-18 0 -34.5 6t-38.5 20l-29 19q-22 14 -33 14q-9 0 -14 -6.5t-9 -25.5l-6 -24h-93l11 50q12 58 33 83t59 25q18 0 33.5 -6t39.5 -21l29 -19q22 -14 34 -14q8 0 13 7t9 25l6 25h93l-11 -50q-12 -58 -33 -83t-59 -25z" />
    <glyph glyph-name="Imacron" unicode="&#x12a;" horiz-adv-x="307" 
d="M76 0v680h157v-680h-157zM-49 748v104h406v-104h-406z" />
    <glyph glyph-name="imacron" unicode="&#x12b;" horiz-adv-x="280" 
d="M65 0v518h150v-518h-150zM-21 606v105h322v-105h-322z" />
    <glyph glyph-name="Ibreve" unicode="&#x12c;" horiz-adv-x="307" 
d="M76 0v680h157v-680h-157zM154 721q-144 0 -182 121l-7 25h104l4 -10q16 -41 81 -41t81 41l4 10h104l-7 -25q-38 -121 -182 -121z" />
    <glyph glyph-name="ibreve" unicode="&#x12d;" horiz-adv-x="280" 
d="M63 0v518h150v-518h-150zM140 578q-137 0 -172 155l-6 27h104l4 -16q16 -66 70 -66q55 0 70 66l4 16h104l-6 -27q-35 -155 -172 -155z" />
    <glyph glyph-name="Iogonek" unicode="&#x12e;" horiz-adv-x="297" 
d="M62 0v680h157v-680h-157zM119 -227q-44 0 -71.5 25.5t-27.5 65.5q0 32 17.5 57t62.5 63l60 51l58 -35l-57 -51q-28 -24 -37.5 -37.5t-9.5 -27.5q0 -32 32 -32q10 0 21.5 3.5t28.5 11.5l39 19v-80l-21 -9q-27 -12 -49 -18t-46 -6z" />
    <glyph glyph-name="iogonek" unicode="&#x12f;" horiz-adv-x="280" 
d="M56 592v147h168v-147h-168zM65 0v518h150v-518h-150zM116 -227q-44 0 -71.5 25.5t-27.5 65.5q0 32 17.5 57t62.5 63l60 51l58 -35l-57 -51q-28 -24 -37.5 -37.5t-9.5 -27.5q0 -32 32 -32q10 0 21.5 3.5t28.5 11.5l39 19v-80l-21 -9q-27 -12 -49 -18t-46 -6z" />
    <glyph glyph-name="Idotaccent" unicode="&#x130;" horiz-adv-x="308" 
d="M76 0v680h157v-680h-157zM70 730v140h165v-140h-165z" />
    <glyph glyph-name="dotlessi" unicode="&#x131;" horiz-adv-x="280" 
d="M65 0v518h150v-518h-150z" />
    <glyph glyph-name="IJ" unicode="&#x132;" horiz-adv-x="757" 
d="M429 -15q-74 0 -150 23t-165 69l-46 24v154l87 -46q92 -50 150 -71t107 -21q64 0 92 38.5t28 121.5v403h157v-418q0 -138 -64 -207.5t-196 -69.5zM68 299v381h155v-381h-155z" />
    <glyph glyph-name="ij" unicode="&#x133;" horiz-adv-x="622" 
d="M49 592v147h167v-147h-167zM396 592v147h167v-147h-167zM225 24q-79 0 -123 48.5t-44 139.5v306h150v-281q0 -87 64 -87q23 0 48.5 13.5t63.5 45.5l21 18v291h150v-503q0 -225 -223 -225q-46 0 -98.5 10t-112.5 31l-43 16v135l66 -25q58 -22 96 -31.5t70 -9.5
q51 0 73 25.5t22 84.5v79l-2 -2q-52 -44 -93.5 -61.5t-84.5 -17.5z" />
    <glyph glyph-name="Jcircumflex" unicode="&#x134;" horiz-adv-x="585" 
d="M315 -15q-60 0 -116 19.5t-129 64.5l-42 25v161l81 -52q66 -42 105 -59.5t72 -17.5q39 0 56.5 22t17.5 72v460h157v-470q0 -111 -51 -168t-151 -57zM235 725l141 150h125l142 -150h-121l-83 68l-83 -68h-121z" />
    <glyph glyph-name="jcircumflex" unicode="&#x135;" horiz-adv-x="285" 
d="M95 -210q-27 0 -53 6t-52 16l-20 8v122l24 -10q19 -8 29.5 -11t19.5 -3q27 0 27 33v567h150v-588q0 -140 -125 -140zM-41 580l128 180h115l129 -180h-115l-71 86l-72 -86h-114z" />
    <glyph glyph-name="uni0136" unicode="&#x136;" horiz-adv-x="720" 
d="M75 0v680h157v-300l285 300h201l-300 -294l310 -386h-196l-230 289l-70 -69v-220h-157zM272 -227l40 174h137l-60 -174h-117z" />
    <glyph glyph-name="uni0137" unicode="&#x137;" horiz-adv-x="610" 
d="M66 0v740h150v-435l214 213h179l-231 -220l241 -298h-188l-159 209l-56 -55v-154h-150zM213 -227l40 174h136l-60 -174h-116z" />
    <glyph glyph-name="Lacute" unicode="&#x139;" horiz-adv-x="615" 
d="M75 0v680h157v-550h365v-130h-522zM80 725l126 150h154l-148 -150h-132z" />
    <glyph glyph-name="lacute" unicode="&#x13a;" horiz-adv-x="324" 
d="M183 -10q-121 0 -121 137v613h150v-581q0 -18 5.5 -25.5t17.5 -7.5q17 0 53 21l23 12v-130l-17 -8q-59 -31 -111 -31zM65 785l126 150h154l-148 -150h-132z" />
    <glyph glyph-name="uni013B" unicode="&#x13b;" horiz-adv-x="615" 
d="M75 0v680h157v-550h365v-130h-522zM232 -227l40 174h137l-60 -174h-117z" />
    <glyph glyph-name="uni013C" unicode="&#x13c;" horiz-adv-x="324" 
d="M183 -10q-121 0 -121 137v613h150v-581q0 -18 5.5 -25.5t17.5 -7.5q17 0 53 21l23 12v-130l-17 -8q-59 -31 -111 -31zM80 -227l40 174h136l-60 -174h-116z" />
    <glyph glyph-name="Lcaron" unicode="&#x13d;" horiz-adv-x="615" 
d="M75 0v680h157v-550h365v-130h-522zM341 460l23 220h131l-44 -220h-110z" />
    <glyph glyph-name="lcaron" unicode="&#x13e;" horiz-adv-x="330" 
d="M183 -10q-121 0 -121 137v613h150v-581q0 -18 5.5 -25.5t17.5 -7.5q17 0 53 21l23 12v-130l-17 -8q-59 -31 -111 -31zM247 547l23 220h131l-44 -220h-110z" />
    <glyph glyph-name="Ldot" unicode="&#x13f;" horiz-adv-x="615" 
d="M75 0v680h157v-550h365v-130h-522zM379 307v140h165v-140h-165z" />
    <glyph glyph-name="ldot" unicode="&#x140;" horiz-adv-x="444" 
d="M183 -10q-121 0 -121 137v613h150v-581q0 -18 5.5 -25.5t17.5 -7.5q17 0 53 21l23 12v-130l-17 -8q-59 -31 -111 -31zM282 302v153h153v-153h-153z" />
    <glyph glyph-name="Lslash" unicode="&#x141;" horiz-adv-x="666" 
d="M120 0v220l-90 -46v93l90 46v367h158v-287l224 113v-93l-224 -113v-169h370v-131h-528z" />
    <glyph glyph-name="lslash" unicode="&#x142;" horiz-adv-x="411" 
d="M27 230v94l93 48v368h150v-291l99 51v-94l-99 -51v-196q0 -18 5.5 -25.5t18.5 -7.5q17 0 52 21l23 12v-130l-16 -8q-60 -31 -112 -31q-121 0 -121 137v151z" />
    <glyph glyph-name="Nacute" unicode="&#x143;" horiz-adv-x="780" 
d="M557 680h148v-680h-161l-320 449v-449h-149v680h163l319 -449v449zM315 725l126 150h154l-148 -150h-132z" />
    <glyph glyph-name="nacute" unicode="&#x144;" horiz-adv-x="625" 
d="M65 0v518h148v-76l3 3q52 44 95 63.5t89 19.5q77 0 121 -51t44 -142v-335h-150v309q0 43 -18.5 66.5t-52.5 23.5q-24 0 -51 -14t-65 -47l-13 -10v-328h-150zM244 580l118 180h148l-142 -180h-124z" />
    <glyph glyph-name="uni0145" unicode="&#x145;" horiz-adv-x="780" 
d="M557 680h148v-680h-161l-320 449v-449h-149v680h163l319 -449v449zM288 -227l40 174h137l-60 -174h-117z" />
    <glyph glyph-name="uni0146" unicode="&#x146;" horiz-adv-x="625" 
d="M65 0v518h148v-76l3 3q52 44 95 63.5t89 19.5q77 0 121 -51t44 -142v-335h-150v309q0 43 -18.5 66.5t-52.5 23.5q-24 0 -51 -14t-65 -47l-13 -10v-328h-150zM205 -227l40 174h136l-60 -174h-116z" />
    <glyph glyph-name="Ncaron" unicode="&#x147;" horiz-adv-x="780" 
d="M557 680h148v-680h-161l-320 449v-449h-149v680h163l319 -449v449zM326 725l-141 150h122l82 -67l82 67h121l-140 -150h-126z" />
    <glyph glyph-name="ncaron" unicode="&#x148;" horiz-adv-x="625" 
d="M65 0v518h148v-76l3 3q52 44 95 63.5t89 19.5q77 0 121 -51t44 -142v-335h-150v309q0 43 -18.5 66.5t-52.5 23.5q-24 0 -51 -14t-65 -47l-13 -10v-328h-150zM251 580l-138 180h120l81 -87l81 87h120l-138 -180h-126z" />
    <glyph glyph-name="Eng" unicode="&#x14a;" horiz-adv-x="798" 
d="M75 0v680h157v-101l20 14q56 38 97.5 60.5t78.5 32t76 9.5q226 0 226 -268v-427q0 -210 -196 -210q-83 0 -178 50l-30 16v155l57 -31q47 -26 76 -37t51 -11q34 0 49 19.5t15 64.5v386q0 79 -25 115t-80 36q-24 0 -47 -7t-53.5 -24.5t-77.5 -49.5l-59 -41v-431h-157z" />
    <glyph glyph-name="eng" unicode="&#x14b;" horiz-adv-x="625" 
d="M65 0v518h148v-76l3 3q52 44 95 63.5t89 19.5q77 0 121 -51t44 -142v-405q0 -140 -123 -140q-28 0 -56 7t-56 20l-17 7v122l22 -10q22 -10 33.5 -14t20.5 -4q26 0 26 34v357q0 43 -18.5 66.5t-52.5 23.5q-24 0 -51 -14t-65 -47l-13 -10v-328h-150z" />
    <glyph glyph-name="Omacron" unicode="&#x14c;" horiz-adv-x="804" 
d="M402 -15q-108 0 -189.5 43t-127.5 120t-46 179v26q0 102 46 179t127.5 120t189.5 43t189.5 -43t127.5 -120t46 -179v-26q0 -102 -46 -179t-127.5 -120t-189.5 -43zM402 116q92 0 144.5 58.5t52.5 158.5v14q0 101 -52.5 159t-144.5 58t-144.5 -58t-52.5 -159v-14
q0 -100 52.5 -158.5t144.5 -58.5zM199 748v104h406v-104h-406z" />
    <glyph glyph-name="omacron" unicode="&#x14d;" horiz-adv-x="627" 
d="M313 -10q-85 0 -147.5 31t-96.5 89t-34 136v25q0 79 34 137t96.5 89t147.5 31q86 0 148 -31t96 -89t34 -137v-25q0 -78 -34 -136t-96 -89t-148 -31zM313 112q60 0 92 35.5t32 100.5v21q0 65 -32 101t-92 36q-59 0 -91.5 -36t-32.5 -101v-21q0 -65 32.5 -100.5t91.5 -35.5
zM115 606v105h396v-105h-396z" />
    <glyph glyph-name="Obreve" unicode="&#x14e;" horiz-adv-x="804" 
d="M402 -15q-108 0 -189.5 43t-127.5 120t-46 179v26q0 102 46 179t127.5 120t189.5 43t189.5 -43t127.5 -120t46 -179v-26q0 -102 -46 -179t-127.5 -120t-189.5 -43zM402 116q92 0 144.5 58.5t52.5 158.5v14q0 101 -52.5 159t-144.5 58t-144.5 -58t-52.5 -159v-14
q0 -100 52.5 -158.5t144.5 -58.5zM402 721q-144 0 -182 121l-7 25h104l4 -10q16 -41 81 -41t81 41l4 10h104l-7 -25q-38 -121 -182 -121z" />
    <glyph glyph-name="obreve" unicode="&#x14f;" horiz-adv-x="627" 
d="M313 -10q-85 0 -147.5 31t-96.5 89t-34 136v25q0 79 34 137t96.5 89t147.5 31q86 0 148 -31t96 -89t34 -137v-25q0 -78 -34 -136t-96 -89t-148 -31zM313 112q60 0 92 35.5t32 100.5v21q0 65 -32 101t-92 36q-59 0 -91.5 -36t-32.5 -101v-21q0 -65 32.5 -100.5t91.5 -35.5
zM313 579q-69 0 -112 36.5t-65 113.5l-7 28h104l4 -15q19 -63 76 -63q30 0 48 15t28 48l4 15h104l-7 -28q-22 -77 -65 -113.5t-112 -36.5z" />
    <glyph glyph-name="Ohungarumlaut" unicode="&#x150;" horiz-adv-x="804" 
d="M402 -15q-108 0 -189.5 43t-127.5 120t-46 179v26q0 102 46 179t127.5 120t189.5 43t189.5 -43t127.5 -120t46 -179v-26q0 -102 -46 -179t-127.5 -120t-189.5 -43zM402 116q92 0 144.5 58.5t52.5 158.5v14q0 101 -52.5 159t-144.5 58t-144.5 -58t-52.5 -159v-14
q0 -100 52.5 -158.5t144.5 -58.5zM447 725l129 150h149l-152 -150h-126zM235 725l114 150h145l-137 -150h-122z" />
    <glyph glyph-name="ohungarumlaut" unicode="&#x151;" horiz-adv-x="627" 
d="M313 -10q-85 0 -147.5 31t-96.5 89t-34 136v25q0 79 34 137t96.5 89t147.5 31q86 0 148 -31t96 -89t34 -137v-25q0 -78 -34 -136t-96 -89t-148 -31zM313 112q60 0 92 35.5t32 100.5v21q0 65 -32 101t-92 36q-59 0 -91.5 -36t-32.5 -101v-21q0 -65 32.5 -100.5t91.5 -35.5
zM357 580l125 180h142l-147 -180h-120zM150 580l116 180h142l-139 -180h-119z" />
    <glyph glyph-name="OE" unicode="&#x152;" horiz-adv-x="1132" 
d="M332 -15q-86 0 -152 43t-103.5 120t-37.5 178v28q0 101 37.5 178t103.5 120t152 43q63 0 116.5 -22t120.5 -74v81h512v-130h-360v-146h345v-128h-345v-146h360v-130h-512v82q-68 -53 -121.5 -75t-115.5 -22zM205 327q0 -99 41.5 -155t112.5 -56q42 0 86 19.5t103 66.5
l21 17v242l-21 17q-59 47 -103 66.5t-86 19.5q-71 0 -112.5 -56t-41.5 -155v-26z" />
    <glyph glyph-name="oe" unicode="&#x153;" horiz-adv-x="980" 
d="M305 -10q-83 0 -143.5 31.5t-93.5 89t-33 135.5v25q0 79 33 137t93.5 89t143.5 31q129 0 196 -72q69 72 191 72q118 0 184.5 -64t66.5 -177v-67h-367q10 -104 116 -104q34 0 70 8.5t93 31.5l70 27v-129l-46 -18q-54 -23 -103 -34.5t-101 -11.5q-115 0 -178 67
q-68 -67 -192 -67zM686 415q-95 0 -109 -103h218q-11 103 -109 103zM308 112q58 0 88.5 35.5t30.5 100.5v21q0 66 -31 101.5t-88 35.5t-88 -35.5t-31 -101.5v-21q0 -65 30.5 -100.5t88.5 -35.5z" />
    <glyph glyph-name="Racute" unicode="&#x154;" horiz-adv-x="730" 
d="M75 0v680h358q119 0 182 -53.5t63 -160.5q0 -72 -35.5 -119t-97.5 -70l167 -277h-178l-144 247h-160v-247h-155zM230 375h183q49 0 75 23t26 66q0 88 -101 88h-183v-177zM288 725l126 150h154l-148 -150h-132z" />
    <glyph glyph-name="racute" unicode="&#x155;" horiz-adv-x="428" 
d="M65 0v518h148v-91l29 21q58 42 95 59.5t74 20.5v-148q-46 -4 -85.5 -16.5t-87.5 -38.5l-23 -13v-312h-150zM168 580l118 180h148l-142 -180h-124z" />
    <glyph glyph-name="uni0156" unicode="&#x156;" horiz-adv-x="730" 
d="M75 0v680h358q119 0 182 -53.5t63 -160.5q0 -72 -35.5 -119t-97.5 -70l167 -277h-178l-144 247h-160v-247h-155zM230 375h183q49 0 75 23t26 66q0 88 -101 88h-183v-177zM270 -227l40 174h137l-60 -174h-117z" />
    <glyph glyph-name="uni0157" unicode="&#x157;" horiz-adv-x="428" 
d="M65 0v518h148v-91l29 21q58 42 95 59.5t74 20.5v-148q-46 -4 -85.5 -16.5t-87.5 -38.5l-23 -13v-312h-150zM34 -227l40 174h136l-60 -174h-116z" />
    <glyph glyph-name="Rcaron" unicode="&#x158;" horiz-adv-x="730" 
d="M75 0v680h358q119 0 182 -53.5t63 -160.5q0 -72 -35.5 -119t-97.5 -70l167 -277h-178l-144 247h-160v-247h-155zM230 375h183q49 0 75 23t26 66q0 88 -101 88h-183v-177zM299 725l-141 150h122l82 -67l82 67h121l-140 -150h-126z" />
    <glyph glyph-name="rcaron" unicode="&#x159;" horiz-adv-x="428" 
d="M65 0v518h148v-91l29 21q58 42 95 59.5t74 20.5v-148q-46 -4 -85.5 -16.5t-87.5 -38.5l-23 -13v-312h-150zM175 580l-138 180h120l81 -87l81 87h120l-138 -180h-126z" />
    <glyph glyph-name="Sacute" unicode="&#x15a;" horiz-adv-x="676" 
d="M395 -15q-76 0 -149.5 18.5t-159.5 58.5l-43 20v150l82 -39q85 -42 147.5 -60.5t114.5 -18.5q44 0 68.5 20t24.5 55q0 30 -21.5 45t-78.5 26l-123 25q-108 21 -155 67t-47 132q0 64 29.5 111.5t84 73.5t128.5 26q59 0 120.5 -14t144.5 -45l50 -19v-144l-82 32
q-58 23 -98.5 36.5t-70.5 19t-58 5.5q-42 0 -66 -18.5t-24 -50.5t19.5 -48t71.5 -25l129 -26q112 -22 158.5 -67t46.5 -132q0 -101 -64.5 -157.5t-178.5 -56.5zM275 725l126 150h154l-148 -150h-132z" />
    <glyph glyph-name="sacute" unicode="&#x15b;" horiz-adv-x="546" 
d="M319 -9q-50 0 -105.5 13t-129.5 42l-46 18v124l92 -38q115 -48 178 -48q59 0 59 44q0 19 -11.5 28t-41.5 15l-103 18q-86 15 -124.5 52t-38.5 104q0 77 51 121t139 44q43 0 87 -9t110 -32l55 -18v-122l-88 32q-57 21 -90 29.5t-61 8.5q-59 0 -59 -43q0 -19 13 -28.5
t46 -15.5l109 -20q81 -14 116.5 -50t35.5 -103q0 -79 -50.5 -122.5t-142.5 -43.5zM209 580l118 180h148l-142 -180h-124z" />
    <glyph glyph-name="Scircumflex" unicode="&#x15c;" horiz-adv-x="676" 
d="M395 -15q-76 0 -149.5 18.5t-159.5 58.5l-43 20v150l82 -39q85 -42 147.5 -60.5t114.5 -18.5q44 0 68.5 20t24.5 55q0 30 -21.5 45t-78.5 26l-123 25q-108 21 -155 67t-47 132q0 64 29.5 111.5t84 73.5t128.5 26q59 0 120.5 -14t144.5 -45l50 -19v-144l-82 32
q-58 23 -98.5 36.5t-70.5 19t-58 5.5q-42 0 -66 -18.5t-24 -50.5t19.5 -48t71.5 -25l129 -26q112 -22 158.5 -67t46.5 -132q0 -101 -64.5 -157.5t-178.5 -56.5zM145 725l141 150h125l142 -150h-121l-83 68l-83 -68h-121z" />
    <glyph glyph-name="scircumflex" unicode="&#x15d;" horiz-adv-x="546" 
d="M319 -9q-50 0 -105.5 13t-129.5 42l-46 18v124l92 -38q115 -48 178 -48q59 0 59 44q0 19 -11.5 28t-41.5 15l-103 18q-86 15 -124.5 52t-38.5 104q0 77 51 121t139 44q43 0 87 -9t110 -32l55 -18v-122l-88 32q-57 21 -90 29.5t-61 8.5q-59 0 -59 -43q0 -19 13 -28.5
t46 -15.5l109 -20q81 -14 116.5 -50t35.5 -103q0 -79 -50.5 -122.5t-142.5 -43.5zM78 580l138 180h125l139 -180h-120l-81 87l-81 -87h-120z" />
    <glyph glyph-name="Scedilla" unicode="&#x15e;" horiz-adv-x="676" 
d="M395 -15q-76 0 -149.5 18.5t-159.5 58.5l-43 20v150l82 -39q85 -42 147.5 -60.5t114.5 -18.5q44 0 68.5 20t24.5 55q0 30 -21.5 45t-78.5 26l-123 25q-108 21 -155 67t-47 132q0 64 29.5 111.5t84 73.5t128.5 26q59 0 120.5 -14t144.5 -45l50 -19v-144l-82 32
q-58 23 -98.5 36.5t-70.5 19t-58 5.5q-42 0 -66 -18.5t-24 -50.5t19.5 -48t71.5 -25l129 -26q112 -22 158.5 -67t46.5 -132q0 -101 -64.5 -157.5t-178.5 -56.5zM360 -227q-23 0 -49 4.5t-63 14.5l-34 10v75l47 -14q56 -17 83 -17q35 0 35 30q0 27 -43 27h-86v40l44 86l75 -2
l-34 -68h22q115 0 115 -89q0 -46 -29.5 -71.5t-82.5 -25.5z" />
    <glyph glyph-name="scedilla" unicode="&#x15f;" horiz-adv-x="546" 
d="M319 -9q-50 0 -105.5 13t-129.5 42l-46 18v124l92 -38q115 -48 178 -48q59 0 59 44q0 19 -11.5 28t-41.5 15l-103 18q-86 15 -124.5 52t-38.5 104q0 77 51 121t139 44q43 0 87 -9t110 -32l55 -18v-122l-88 32q-57 21 -90 29.5t-61 8.5q-59 0 -59 -43q0 -19 13 -28.5
t46 -15.5l109 -20q81 -14 116.5 -50t35.5 -103q0 -79 -50.5 -122.5t-142.5 -43.5zM293 -227q-24 0 -49.5 4.5t-60.5 14.5l-32 10v75l45 -14q32 -10 49 -13.5t32 -3.5q34 0 34 30q0 27 -42 27h-83v51l34 75l72 -2l-30 -68h28q111 0 111 -89q0 -46 -28.5 -71.5t-79.5 -25.5z
" />
    <glyph glyph-name="Scaron" unicode="&#x160;" horiz-adv-x="676" 
d="M395 -15q-76 0 -149.5 18.5t-159.5 58.5l-43 20v150l82 -39q85 -42 147.5 -60.5t114.5 -18.5q44 0 68.5 20t24.5 55q0 30 -21.5 45t-78.5 26l-123 25q-108 21 -155 67t-47 132q0 64 29.5 111.5t84 73.5t128.5 26q59 0 120.5 -14t144.5 -45l50 -19v-144l-82 32
q-58 23 -98.5 36.5t-70.5 19t-58 5.5q-42 0 -66 -18.5t-24 -50.5t19.5 -48t71.5 -25l129 -26q112 -22 158.5 -67t46.5 -132q0 -101 -64.5 -157.5t-178.5 -56.5zM286 725l-141 150h122l82 -67l82 67h121l-140 -150h-126z" />
    <glyph glyph-name="scaron" unicode="&#x161;" horiz-adv-x="546" 
d="M319 -9q-50 0 -105.5 13t-129.5 42l-46 18v124l92 -38q115 -48 178 -48q59 0 59 44q0 19 -11.5 28t-41.5 15l-103 18q-86 15 -124.5 52t-38.5 104q0 77 51 121t139 44q43 0 87 -9t110 -32l55 -18v-122l-88 32q-57 21 -90 29.5t-61 8.5q-59 0 -59 -43q0 -19 13 -28.5
t46 -15.5l109 -20q81 -14 116.5 -50t35.5 -103q0 -79 -50.5 -122.5t-142.5 -43.5zM216 580l-138 180h120l81 -87l81 87h120l-138 -180h-126z" />
    <glyph glyph-name="uni0162" unicode="&#x162;" horiz-adv-x="663" 
d="M253 0v550h-237v130h631v-130h-237v-550h-157zM371 -227q-23 0 -49 4.5t-63 14.5l-34 10v75l47 -14q56 -17 83 -17q35 0 35 30q0 27 -43 27h-86v40l44 86l75 -2l-34 -68h22q115 0 115 -89q0 -46 -29.5 -71.5t-82.5 -25.5z" />
    <glyph glyph-name="uni0163" unicode="&#x163;" horiz-adv-x="545" 
d="M278 -10q-78 0 -119 43.5t-41 127.5v206h-102v123h102v171h150v-171h244v-123h-244v-177q0 -61 47 -61q21 0 41.5 10.5t57.5 38.5l98 75v-149l-46 -36q-54 -41 -97.5 -59.5t-90.5 -18.5zM332 -227q-24 0 -49.5 4.5t-60.5 14.5l-32 10v75l45 -14q32 -10 49 -13.5t32 -3.5
q34 0 34 30q0 27 -42 27h-83v51l34 75l72 -2l-30 -68h28q111 0 111 -89q0 -46 -28.5 -71.5t-79.5 -25.5z" />
    <glyph glyph-name="Tcaron" unicode="&#x164;" horiz-adv-x="663" 
d="M253 0v550h-237v130h631v-130h-237v-550h-157zM270 725l-141 150h122l82 -67l82 67h121l-140 -150h-126z" />
    <glyph glyph-name="tcaron" unicode="&#x165;" horiz-adv-x="545" 
d="M278 -10q-78 0 -119 43.5t-41 127.5v206h-102v123h102v171h150v-171h244v-123h-244v-177q0 -61 47 -61q21 0 41.5 10.5t57.5 38.5l98 75v-149l-46 -36q-54 -41 -97.5 -59.5t-90.5 -18.5zM334 546l23 220h131l-44 -220h-110z" />
    <glyph glyph-name="Tbar" unicode="&#x166;" horiz-adv-x="663" 
d="M253 0v298h-119v84h119v168h-237v130h631v-130h-237v-168h120v-84h-120v-298h-157z" />
    <glyph glyph-name="tbar" unicode="&#x167;" horiz-adv-x="545" 
d="M16 221v78h102v74h-102v117h102v171h150v-171h244v-117h-244v-74h244v-209l-43 -29q-55 -38 -99.5 -54.5t-91.5 -16.5q-78 0 -119 43.5t-41 127.5v60h-102zM268 182q0 -32 10 -46t34 -14q20 0 43.5 11t61.5 37l81 51h-230v-39z" />
    <glyph glyph-name="Utilde" unicode="&#x168;" horiz-adv-x="782" 
d="M391 -15q-157 0 -240 74t-83 214v407h157v-384q0 -96 39 -138t127 -42t127 42t39 138v384h157v-407q0 -140 -83 -214t-240 -74zM477 722q-19 0 -37.5 5.5t-47.5 19.5l-40 20q-24 11 -37 11q-23 0 -33 -34l-6 -19h-93l10 39q16 58 39.5 83.5t60.5 25.5q33 0 84 -25l41 -20
q13 -6 21.5 -8.5t14.5 -2.5q24 0 34 34l6 19h93l-11 -39q-16 -60 -38.5 -84.5t-60.5 -24.5z" />
    <glyph glyph-name="utilde" unicode="&#x169;" horiz-adv-x="614" 
d="M221 -10q-76 0 -118.5 50t-42.5 141v337h150v-311q0 -87 65 -87q24 0 48.5 13t58.5 42l17 14v329h150v-518h-148v73q-54 -46 -95 -64.5t-85 -18.5zM390 582q-18 0 -35.5 6t-44.5 21l-34 19q-23 13 -36 13q-12 0 -19 -7.5t-13 -28.5l-6 -20h-94l11 41q17 62 41.5 89.5
t62.5 27.5q17 0 34 -5.5t46 -21.5l34 -19q23 -14 36 -14q12 0 19 8t13 28l6 21h94l-11 -41q-17 -63 -41.5 -90t-62.5 -27z" />
    <glyph glyph-name="Umacron" unicode="&#x16a;" horiz-adv-x="782" 
d="M391 -15q-157 0 -240 74t-83 214v407h157v-384q0 -96 39 -138t127 -42t127 42t39 138v384h157v-407q0 -140 -83 -214t-240 -74zM185 748v104h406v-104h-406z" />
    <glyph glyph-name="umacron" unicode="&#x16b;" horiz-adv-x="614" 
d="M221 -10q-76 0 -118.5 50t-42.5 141v337h150v-311q0 -87 65 -87q24 0 48.5 13t58.5 42l17 14v329h150v-518h-148v73q-54 -46 -95 -64.5t-85 -18.5zM109 606v105h396v-105h-396z" />
    <glyph glyph-name="Ubreve" unicode="&#x16c;" horiz-adv-x="782" 
d="M391 -15q-157 0 -240 74t-83 214v407h157v-384q0 -96 39 -138t127 -42t127 42t39 138v384h157v-407q0 -140 -83 -214t-240 -74zM388 721q-144 0 -182 121l-7 25h104l4 -10q16 -41 81 -41t81 41l4 10h104l-7 -25q-38 -121 -182 -121z" />
    <glyph glyph-name="ubreve" unicode="&#x16d;" horiz-adv-x="614" 
d="M221 -10q-76 0 -118.5 50t-42.5 141v337h150v-311q0 -87 65 -87q24 0 48.5 13t58.5 42l17 14v329h150v-518h-148v73q-54 -46 -95 -64.5t-85 -18.5zM307 579q-69 0 -112 36.5t-65 113.5l-7 28h104l4 -15q19 -63 76 -63q30 0 48 15t28 48l4 15h104l-7 -28
q-22 -77 -65 -113.5t-112 -36.5z" />
    <glyph glyph-name="Uring" unicode="&#x16e;" horiz-adv-x="782" 
d="M391 -15q-157 0 -240 74t-83 214v407h157v-384q0 -96 39 -138t127 -42t127 42t39 138v384h157v-407q0 -140 -83 -214t-240 -74zM388 718q-60 0 -99.5 31t-39.5 82v5q0 51 39.5 82t99.5 31t99.5 -31t39.5 -82v-5q0 -51 -39.5 -82t-99.5 -31zM388 784q27 0 43 12.5t16 37.5
q0 24 -16 36.5t-43 12.5t-43 -12.5t-16 -37.5q0 -24 16 -36.5t43 -12.5z" />
    <glyph glyph-name="uring" unicode="&#x16f;" horiz-adv-x="614" 
d="M221 -10q-76 0 -118.5 50t-42.5 141v337h150v-311q0 -87 65 -87q24 0 48.5 13t58.5 42l17 14v329h150v-518h-148v73q-54 -46 -95 -64.5t-85 -18.5zM307 575q-59 0 -96.5 33.5t-37.5 86.5v5q0 53 37.5 86.5t96.5 33.5t97 -33.5t38 -86.5v-5q0 -53 -38 -86.5t-97 -33.5z
M307 641q26 0 40.5 15.5t14.5 41.5q0 25 -14.5 40.5t-40.5 15.5q-25 0 -39.5 -15.5t-14.5 -41.5q0 -25 14.5 -40.5t39.5 -15.5z" />
    <glyph glyph-name="Uhungarumlaut" unicode="&#x170;" horiz-adv-x="779" 
d="M391 -15q-157 0 -240 74t-83 214v407h157v-384q0 -96 39 -138t127 -42t127 42t39 138v384h157v-407q0 -140 -83 -214t-240 -74zM433 725l129 150h149l-152 -150h-126zM221 725l114 150h145l-137 -150h-122z" />
    <glyph glyph-name="uhungarumlaut" unicode="&#x171;" horiz-adv-x="617" 
d="M221 -10q-76 0 -118.5 50t-42.5 141v337h150v-311q0 -87 65 -87q24 0 48.5 13t58.5 42l17 14v329h150v-518h-148v73q-54 -46 -95 -64.5t-85 -18.5zM351 580l125 180h142l-147 -180h-120zM144 580l116 180h142l-139 -180h-119z" />
    <glyph glyph-name="Uogonek" unicode="&#x172;" horiz-adv-x="782" 
d="M557 680h157v-407q0 -59 -16 -108.5t-54 -98.5l-81 -107q-23 -29 -31 -44.5t-8 -31.5q0 -31 32 -31q19 0 51 15l39 19v-80l-22 -10q-24 -10 -47.5 -16.5t-47.5 -6.5q-45 0 -73.5 25.5t-28.5 65.5q0 19 5.5 36t20.5 38t43 51l6 8q-50 -12 -111 -12q-157 0 -240 74t-83 214
v407h157v-384q0 -96 39 -138t127 -42t127 42t39 138v384z" />
    <glyph glyph-name="uogonek" unicode="&#x173;" horiz-adv-x="617" 
d="M221 -10q-76 0 -118.5 50t-42.5 141v337h150v-311q0 -87 65 -87q24 0 48.5 13t58.5 42l17 14v329h150v-518h-148v73q-54 -46 -95 -64.5t-85 -18.5zM426 -227q-44 0 -71 25t-27 65q0 35 18 60t66 57l76 54l64 -34l-81 -58q-29 -21 -39 -33t-10 -27q0 -30 31 -30
q19 0 50 15l39 19v-80l-21 -9q-54 -24 -95 -24z" />
    <glyph glyph-name="Wcircumflex" unicode="&#x174;" horiz-adv-x="949" 
d="M186 0l-169 680h167l103 -459l118 459h155l113 -458l106 458h153l-169 -680h-163l-123 460l-124 -460h-167zM278 725l141 150h125l142 -150h-121l-83 68l-83 -68h-121z" />
    <glyph glyph-name="wcircumflex" unicode="&#x175;" horiz-adv-x="812" 
d="M159 0l-148 518h153l85 -331l90 331h144l90 -331l85 331h143l-149 -518h-141l-104 348l-102 -348h-146zM204 580l138 180h125l139 -180h-120l-81 87l-81 -87h-120z" />
    <glyph glyph-name="Ycircumflex" unicode="&#x176;" horiz-adv-x="739" 
d="M291 0v253l-286 427h177l192 -293l192 293h168l-286 -427v-253h-157zM169 725l141 150h125l142 -150h-121l-83 68l-83 -68h-121z" />
    <glyph glyph-name="ycircumflex" unicode="&#x177;" horiz-adv-x="587" 
d="M177 -210q-50 0 -98 24l-15 7v134l33 -16q19 -10 31.5 -13.5t22.5 -3.5q17 0 28.5 10.5t23.5 36.5l16 35l-214 514h161l132 -345l130 345h154l-242 -580q-35 -83 -70.5 -115.5t-92.5 -32.5zM88 580l138 180h125l139 -180h-120l-81 87l-81 -87h-120z" />
    <glyph glyph-name="Ydieresis" unicode="&#x178;" horiz-adv-x="739" 
d="M291 0v253l-286 427h177l192 -293l192 293h168l-286 -427v-253h-157zM433 734v132h132v-132h-132zM181 734v132h132v-132h-132z" />
    <glyph glyph-name="Zacute" unicode="&#x179;" horiz-adv-x="658" 
d="M30 0v116l382 434h-367v130h570v-116l-383 -434h398v-130h-600zM249 725l126 150h154l-148 -150h-132z" />
    <glyph glyph-name="zacute" unicode="&#x17a;" horiz-adv-x="542" 
d="M29 0v108l278 287h-261v123h452v-107l-278 -288h295v-123h-486zM204 580l118 180h148l-142 -180h-124z" />
    <glyph glyph-name="Zdotaccent" unicode="&#x17b;" horiz-adv-x="658" 
d="M30 0v116l382 434h-367v130h570v-116l-383 -434h398v-130h-600zM239 730v140h165v-140h-165z" />
    <glyph glyph-name="zdotaccent" unicode="&#x17c;" horiz-adv-x="542" 
d="M29 0v108l278 287h-261v123h452v-107l-278 -288h295v-123h-486zM190 592v147h167v-147h-167z" />
    <glyph glyph-name="Zcaron" unicode="&#x17d;" horiz-adv-x="658" 
d="M30 0v116l382 434h-367v130h570v-116l-383 -434h398v-130h-600zM260 725l-141 150h122l82 -67l82 67h121l-140 -150h-126z" />
    <glyph glyph-name="zcaron" unicode="&#x17e;" horiz-adv-x="542" 
d="M29 0v108l278 287h-261v123h452v-107l-278 -288h295v-123h-486zM211 580l-138 180h120l81 -87l81 87h120l-138 -180h-126z" />
    <glyph glyph-name="uni0180" unicode="&#x180;" horiz-adv-x="648" 
d="M66 0v590h-88v81h88v69h150v-69h192v-81h-192v-141q57 43 99 61t84 18q98 0 155.5 -69.5t57.5 -188.5v-21q0 -79 -25.5 -137t-73 -90t-111.5 -32q-45 0 -89 18.5t-99 61.5v-70h-148zM221 185q47 -37 77.5 -53t58.5 -16q47 0 74 36t27 99v17q0 62 -27 98t-74 36
q-28 0 -58.5 -15.5t-77.5 -52.5l-5 -4v-142z" />
    <glyph glyph-name="uni0181" unicode="&#x181;" horiz-adv-x="949" 
d="M307 0v554h-71q-39 0 -57 -14.5t-18 -46.5q0 -16 5.5 -39.5t21.5 -71.5l16 -46h-146l-10 30q-16 51 -24 87t-8 65q0 76 51.5 119t141.5 43h438q248 0 248 -185q0 -98 -79 -145q89 -42 89 -152q0 -96 -65 -147t-184 -51h-349zM634 554h-173v-154h173q99 0 99 77t-99 77z
M644 280h-183v-154h183q99 0 99 77t-99 77z" />
    <glyph glyph-name="uni0186" unicode="&#x186;" horiz-adv-x="700" 
d="M351 -15q-61 0 -127.5 22t-140.5 68l-42 27v155l88 -57q129 -84 207 -84q76 0 117.5 57.5t41.5 160.5v12q0 103 -42.5 160.5t-118.5 57.5q-36 0 -78.5 -17t-107.5 -56l-101 -62v155l44 26q74 44 135.5 64.5t121.5 20.5q95 0 165.5 -42.5t109 -120t38.5 -182.5v-20
q0 -105 -38 -182.5t-107.5 -120t-164.5 -42.5z" />
    <glyph glyph-name="uni0187" unicode="&#x187;" horiz-adv-x="700" 
d="M349 -15q-94 0 -163.5 42.5t-108 120t-38.5 182.5v20q0 105 38.5 182.5t109 120t165.5 42.5q78 0 162 -36v48q0 174 151 174q26 0 52.5 -5.5t56.5 -16.5l20 -8v-124l-29 12q-44 19 -66 19q-46 0 -46 -63v-266l-101 62q-66 40 -108.5 56.5t-77.5 16.5q-76 0 -118.5 -57.5
t-42.5 -160.5v-12q0 -103 42 -160.5t117 -57.5q78 0 207 84l88 57v-155l-42 -27q-144 -90 -268 -90z" />
    <glyph glyph-name="uni0188" unicode="&#x188;" horiz-adv-x="533" 
d="M264 -10q-69 0 -120.5 32t-80 89.5t-28.5 133.5v28q0 74 30 131.5t81.5 90.5t116.5 33q48 0 97 -18v42q0 135 118 135q26 0 49.5 -4.5t50.5 -13.5l21 -6v-106l-25 8q-34 11 -49 11q-34 0 -34 -45v-228l-55 38q-55 36 -87 50t-59 14q-47 0 -73.5 -35t-26.5 -99v-24
q0 -63 25.5 -98.5t70.5 -35.5q29 0 62.5 15t88.5 53l55 39v-140l-35 -22q-54 -35 -100.5 -51.5t-92.5 -16.5z" />
    <glyph glyph-name="uni0189" unicode="&#x189;" horiz-adv-x="807" 
d="M106 0v297h-90v86h90v297h300q108 0 189.5 -38.5t126.5 -111.5t45 -177v-26q0 -104 -45 -177t-126.5 -111.5t-189.5 -38.5h-300zM399 297h-136v-170h141q93 0 145.5 52.5t52.5 153.5v14q0 101 -52.5 153.5t-145.5 52.5h-141v-170h136v-86z" />
    <glyph glyph-name="uni018A" unicode="&#x18a;" horiz-adv-x="1007" 
d="M307 0v554h-71q-39 0 -57 -14.5t-18 -46.5q0 -16 5.5 -39.5t21.5 -71.5l16 -46h-146l-10 30q-16 51 -24 87t-8 65q0 76 51.5 119t141.5 43h398q107 0 188.5 -38.5t127 -111.5t45.5 -177v-26q0 -104 -45.5 -177t-127 -111.5t-188.5 -38.5h-300zM604 553h-141v-426h141
q93 0 145.5 52.5t52.5 153.5v14q0 101 -52.5 153.5t-145.5 52.5z" />
    <glyph glyph-name="uni018E" unicode="&#x18e;" horiz-adv-x="653" 
d="M51 0v130h372v146h-357v128h357v146h-372v130h526v-680h-526z" />
    <glyph glyph-name="uni018F" unicode="&#x18f;" horiz-adv-x="751" 
d="M381 -15q-106 0 -181.5 40t-116 114.5t-40.5 178.5v82h505q-10 78 -55 121t-116 43q-46 0 -100 -15t-142 -54l-75 -32v141l31 14q92 42 158 59.5t129 17.5q100 0 175 -42.5t117 -118.5t42 -178v-25q0 -106 -41 -183.5t-115 -120t-175 -42.5zM381 116q152 0 168 169h-344
q6 -83 51 -126t125 -43z" />
    <glyph glyph-name="uni0190" unicode="&#x190;" horiz-adv-x="658" 
d="M286 -15q-112 0 -177.5 53t-65.5 144q0 57 28 98t76 62q-43 21 -68.5 61.5t-25.5 93.5q0 61 29.5 105t83 68.5t125.5 24.5q39 0 78 -6.5t85 -21t107 -40.5l46 -19v-140l-75 33q-56 25 -95 39t-68.5 20t-57.5 6q-45 0 -70.5 -21t-25.5 -60q0 -85 126 -85h191v-120h-218
q-109 0 -109 -82q0 -40 26 -62t74 -22q46 0 98.5 18t132.5 60l77 41v-145l-46 -23q-86 -44 -153.5 -62t-127.5 -18z" />
    <glyph glyph-name="uni0191" unicode="&#x191;" horiz-adv-x="636" 
d="M601 550h-369v-146h354v-128h-354v-308q0 -90 -39 -134t-121 -44q-52 0 -114 23l-30 11v136l39 -16q22 -9 36.5 -13t28.5 -4q43 0 43 55v698h526v-130z" />
    <glyph glyph-name="florin" unicode="&#x192;" horiz-adv-x="481" 
d="M147 -210q-27 0 -53 6t-52 16l-20 8v122l24 -10q19 -8 29.5 -11t19.5 -3q27 0 27 33v416h-101v123h101v81q0 85 47 132t131 47q32 0 65 -7.5t78 -25.5l27 -10v-131l-41 16q-39 17 -60 22.5t-38 5.5q-59 0 -59 -71v-59h198v-123h-198v-437q0 -140 -125 -140z" />
    <glyph glyph-name="uni0193" unicode="&#x193;" horiz-adv-x="757" 
d="M364 -15q-99 0 -172 42.5t-113 120t-40 182.5v20q0 105 42 182.5t117.5 120t177.5 42.5q80 0 176 -32v44q0 174 151 174q26 0 52.5 -5.5t56.5 -16.5l20 -8v-124l-29 12q-44 19 -66 19q-46 0 -46 -63v-232l-103 42q-53 22 -89 35t-63.5 18.5t-54.5 5.5q-83 0 -129.5 -57
t-46.5 -161v-12q0 -106 43 -162t125 -56q44 0 87 13t95 44v101h-178v126h330v-291l-37 -22q-85 -53 -161.5 -77.5t-144.5 -24.5z" />
    <glyph glyph-name="uni0194" unicode="&#x194;" horiz-adv-x="734" 
d="M366 -210q-95 0 -149.5 42.5t-54.5 117.5q0 33 13 67.5t43 81.5l61 93l-275 488h166l201 -361l196 361h162l-271 -487l59 -88q57 -88 57 -155q0 -74 -55.5 -117t-152.5 -43zM364 -86q26 0 41.5 13t15.5 35q0 17 -7 35t-24 47l-25 42l-26 -43q-17 -28 -23.5 -45.5
t-6.5 -35.5q0 -22 15 -35t40 -13z" />
    <glyph glyph-name="uni0196" unicode="&#x196;" horiz-adv-x="363" 
d="M211 -10q-67 0 -103 36t-36 101v553h157v-516q0 -38 34 -38q20 0 59 22l24 13v-130l-17 -9q-64 -32 -118 -32z" />
    <glyph glyph-name="uni0197" unicode="&#x197;" horiz-adv-x="369" 
d="M106 0v298h-90v84h90v298h157v-298h90v-84h-90v-298h-157z" />
    <glyph glyph-name="uni0198" unicode="&#x198;" horiz-adv-x="748" 
d="M75 0v680h157v-302l189 217q49 56 83.5 78t76.5 22q25 0 50.5 -7t60.5 -23l24 -12v-142l-46 23q-39 19 -64 19q-19 0 -36.5 -10t-40.5 -35l-112 -120l316 -388h-196l-231 285l-74 -78v-207h-157z" />
    <glyph glyph-name="uni0199" unicode="&#x199;" horiz-adv-x="610" 
d="M66 0v579q0 88 47 129.5t122 41.5q65 0 145 -28l27 -9v-131l-40 15q-32 12 -53 17.5t-40 5.5q-32 0 -45 -17.5t-13 -52.5v-249l214 211h179l-230 -217l240 -295h-188l-159 206l-56 -55v-151h-150z" />
    <glyph glyph-name="uni019D" unicode="&#x19d;" horiz-adv-x="780" 
d="M557 680h148v-680h-161l-320 449v-481q0 -91 -36.5 -134.5t-113.5 -43.5q-55 0 -115 22l-27 11v132l35 -14q24 -10 39.5 -13.5t28.5 -3.5q22 0 31 12.5t9 41.5v702h163l319 -449v449z" />
    <glyph glyph-name="uni019F" unicode="&#x19f;" horiz-adv-x="804" 
d="M402 -15q-108 0 -189.5 43t-127.5 120t-46 179v26q0 102 46 179t127.5 120t189.5 43t189.5 -43t127.5 -120t46 -179v-26q0 -102 -46 -179t-127.5 -120t-189.5 -43zM402 564q-83 0 -134.5 -48.5t-60.5 -133.5h390q-9 85 -60.5 133.5t-134.5 48.5zM402 116q83 0 134.5 48.5
t61.5 133.5h-392q10 -85 61.5 -133.5t134.5 -48.5z" />
    <glyph glyph-name="Ohorn" unicode="&#x1a0;" horiz-adv-x="820" 
d="M402 -15q-108 0 -189.5 43t-127.5 120t-46 179v26q0 102 46 179t127.5 120t189.5 43q61 0 124 -7.5t105 -7.5q33 0 46.5 9t13.5 29q0 21 -18 61l-13 28h117l10 -22q12 -27 18.5 -50.5t6.5 -45.5q0 -50 -36 -76.5t-102 -26.5q44 -42 67.5 -101.5t23.5 -131.5v-26
q0 -102 -46 -179t-127.5 -120t-189.5 -43zM402 116q92 0 144.5 58.5t52.5 158.5v14q0 101 -52.5 159t-144.5 58t-144.5 -58t-52.5 -159v-14q0 -100 52.5 -158.5t144.5 -58.5z" />
    <glyph glyph-name="ohorn" unicode="&#x1a1;" horiz-adv-x="647" 
d="M313 528q46 0 91 -5t86 -5q52 0 52 38q0 12 -5 26.5t-19 42.5l-16 30h110l12 -22q36 -63 36 -103q0 -50 -34 -76t-95 -26q29 -30 44.5 -71t15.5 -90v-21q0 -78 -34 -136t-96 -89t-148 -31q-85 0 -147.5 31t-96.5 89t-34 136v25q0 79 34 137t96.5 89t147.5 31zM313 112
q60 0 92 35.5t32 100.5v21q0 65 -32 101t-92 36q-59 0 -91.5 -36t-32.5 -101v-21q0 -65 32.5 -100.5t91.5 -35.5z" />
    <glyph glyph-name="uni01A4" unicode="&#x1a4;" horiz-adv-x="918" 
d="M307 0v554h-71q-39 0 -57 -14.5t-18 -46.5q0 -16 5.5 -39.5t21.5 -71.5l16 -46h-146l-10 30q-16 51 -24 87t-8 65q0 76 51.5 119t141.5 43h440q118 0 181 -54t63 -162q0 -107 -65 -162t-185 -55h-182v-247h-154zM461 375h168q48 0 74 23t26 66q0 88 -100 88h-168v-177z
" />
    <glyph glyph-name="uni01A5" unicode="&#x1a5;" horiz-adv-x="648" 
d="M66 -200v779q0 88 47 129.5t122 41.5q65 0 145 -28l27 -9v-131l-40 15q-32 12 -53 17.5t-40 5.5q-32 0 -45 -17.5t-13 -52.5v-108q57 43 99 61.5t84 18.5q98 0 155.5 -68.5t57.5 -187.5v-21q0 -77 -25.5 -134.5t-73 -89t-111.5 -31.5q-44 0 -88 18t-98 60v-268h-150z
M221 185q47 -37 77.5 -53t58.5 -16q47 0 74 36t27 95v17q0 63 -27 97t-74 34q-28 0 -58.5 -15.5t-77.5 -52.5l-5 -4v-135z" />
    <glyph glyph-name="uni01A9" unicode="&#x1a9;" horiz-adv-x="612" 
d="M31 0v116l253 231l-238 217v116h518v-130h-307l173 -153v-100l-184 -167h333v-130h-548z" />
    <glyph glyph-name="uni01AC" unicode="&#x1ac;" horiz-adv-x="752" 
d="M58 336l-10 30q-16 51 -24 87t-8 65q0 76 51.5 119t141.5 43h527v-130h-237v-550h-157v550h-106q-39 0 -57 -12.5t-18 -44.5q0 -16 5.5 -39.5t21.5 -71.5l16 -46h-146z" />
    <glyph glyph-name="uni01AD" unicode="&#x1ad;" horiz-adv-x="545" 
d="M278 -10q-78 0 -119 43.5t-41 127.5v206h-102v123h102v89q0 88 46.5 129.5t122.5 41.5q64 0 145 -28l26 -9v-131l-40 15q-32 12 -53 17.5t-40 5.5q-31 0 -44 -17.5t-13 -52.5v-60h244v-123h-244v-177q0 -61 47 -61q21 0 41.5 10.5t57.5 38.5l98 75v-149l-46 -36
q-54 -41 -97.5 -59.5t-90.5 -18.5z" />
    <glyph glyph-name="uni01AE" unicode="&#x1ae;" horiz-adv-x="663" 
d="M253 550h-237v130h631v-130h-237v-539q0 -42 15 -60.5t49 -18.5q22 0 47.5 9t68.5 32l57 31v-149l-30 -16q-45 -24 -87.5 -36.5t-82.5 -12.5q-98 0 -146 48.5t-48 149.5v562z" />
    <glyph glyph-name="Uhorn" unicode="&#x1af;" horiz-adv-x="802" 
d="M391 -15q-157 0 -240 74t-83 214v407h157v-384q0 -96 39 -138t127 -42t127 42t39 138v384h99q33 0 47 9t14 29q0 21 -18 61l-13 28h116l10 -22q12 -27 18.5 -50.5t6.5 -45.5q0 -95 -123 -102v-314q0 -140 -83 -214t-240 -74z" />
    <glyph glyph-name="uhorn" unicode="&#x1b0;" horiz-adv-x="634" 
d="M221 -10q-76 0 -118.5 50t-42.5 141v337h150v-311q0 -87 65 -87q24 0 48.5 13t58.5 42l17 14v329h94q55 0 55 38q0 11 -5 26.5t-19 42.5l-16 30h110l11 -20q21 -36 29 -61.5t8 -46.5q0 -89 -117 -99v-428h-148v73q-54 -46 -95 -64.5t-85 -18.5z" />
    <glyph glyph-name="uni01B1" unicode="&#x1b1;" horiz-adv-x="839" 
d="M419 -15q-106 0 -188 40.5t-128 112t-46 165.5v13q0 129 119 234h-133v130h324v-116l-24 -20q-121 -96 -121 -216v-12q0 -91 54 -145.5t143 -54.5q90 0 144 54.5t54 145.5v12q0 121 -121 216l-25 20v116h325v-130h-133q119 -104 119 -234v-13q0 -94 -46.5 -165.5
t-128 -112t-188.5 -40.5z" />
    <glyph glyph-name="uni01B2" unicode="&#x1b2;" horiz-adv-x="766" 
d="M365 -15q-146 0 -221.5 69.5t-75.5 204.5v421h157v-398q0 -85 33.5 -125.5t104.5 -40.5q92 0 145 69.5t53 196.5v19q0 81 -22.5 120t-71.5 39q-18 0 -38 -5.5t-49 -18.5l-26 -11v132l16 7q68 31 133 31q108 0 166 -76t58 -216v-23q0 -124 -43 -212.5t-124 -135.5
t-195 -47z" />
    <glyph glyph-name="uni01B3" unicode="&#x1b3;" horiz-adv-x="786" 
d="M291 0v253l-286 427h177l191 -292l118 189q29 46 52.5 72t47 36t52.5 10q24 0 48.5 -7.5t60.5 -24.5l21 -10v-142l-43 21q-23 13 -35.5 17t-24.5 4q-17 0 -30 -11t-32 -39l-160 -250v-253h-157z" />
    <glyph glyph-name="uni01B4" unicode="&#x1b4;" horiz-adv-x="564" 
d="M178 -210q-52 0 -99 24l-15 7v134l33 -17q18 -9 30.5 -12.5t22.5 -3.5q19 0 31.5 12t24.5 41l13 30l-214 513h161l128 -336l124 359q29 87 65.5 122t94.5 35q40 0 90 -18l13 -5v-118l-21 7q-17 7 -27 9t-19 2q-34 0 -52 -47l-216 -581q-33 -88 -70.5 -122.5t-97.5 -34.5z
" />
    <glyph glyph-name="uni01B7" unicode="&#x1b7;" horiz-adv-x="645" 
d="M365 -15q-64 0 -133.5 20t-145.5 61l-46 25v146l76 -42q80 -43 134 -61.5t96 -18.5q94 0 94 83q0 41 -26.5 61t-82.5 23l-149 7v102l206 159h-338v130h543v-116l-217 -169q116 -6 171.5 -55.5t55.5 -144.5q0 -98 -63.5 -154t-174.5 -56z" />
    <glyph glyph-name="uni01C0" unicode="&#x1c0;" horiz-adv-x="280" 
d="M65 -200v940h150v-940h-150z" />
    <glyph glyph-name="uni01C1" unicode="&#x1c1;" horiz-adv-x="498" 
d="M295 -200v940h138v-940h-138zM65 -200v940h138v-940h-138z" />
    <glyph glyph-name="uni01C2" unicode="&#x1c2;" horiz-adv-x="495" 
d="M36 131v82h138v115h-138v82h138v330h147v-330h137v-82h-137v-115h137v-82h-137v-331h-147v331h-138z" />
    <glyph glyph-name="uni01C3" unicode="&#x1c3;" horiz-adv-x="258" 
d="M70 204l-24 536h166l-24 -536h-118zM40 0v149h178v-149h-178z" />
    <glyph glyph-name="uni01CD" unicode="&#x1cd;" horiz-adv-x="749" 
d="M3 0l284 680h175l284 -680h-164l-61 152h-298l-61 -152h-159zM273 280h197l-99 244zM312 725l-141 150h122l82 -67l82 67h121l-140 -150h-126z" />
    <glyph glyph-name="uni01CE" unicode="&#x1ce;" horiz-adv-x="588" 
d="M195 -10q-77 0 -120.5 39.5t-43.5 109.5q0 74 49 112.5t163 52.5l140 17q-1 43 -18 61.5t-56 18.5q-25 0 -61 -9.5t-101 -34.5l-69 -26v129l38 15q71 28 124.5 40.5t99.5 12.5q188 0 188 -196v-332h-143v70q-53 -42 -98.5 -61t-91.5 -19zM178 157q0 -23 14.5 -36
t39.5 -13q29 0 63.5 16t87.5 53v62l-122 -21q-47 -8 -65 -21.5t-18 -39.5zM229 580l-138 180h120l81 -87l81 87h120l-138 -180h-126z" />
    <glyph glyph-name="uni01CF" unicode="&#x1cf;" horiz-adv-x="307" 
d="M76 0v680h157v-680h-157zM91 725l-141 150h122l82 -67l82 67h121l-140 -150h-126z" />
    <glyph glyph-name="uni01D0" unicode="&#x1d0;" horiz-adv-x="280" 
d="M65 0v518h150v-518h-150zM83 580l-129 180h114l72 -86l71 86h115l-128 -180h-115z" />
    <glyph glyph-name="uni01D1" unicode="&#x1d1;" horiz-adv-x="804" 
d="M402 -15q-108 0 -189.5 43t-127.5 120t-46 179v26q0 102 46 179t127.5 120t189.5 43t189.5 -43t127.5 -120t46 -179v-26q0 -102 -46 -179t-127.5 -120t-189.5 -43zM402 116q92 0 144.5 58.5t52.5 158.5v14q0 101 -52.5 159t-144.5 58t-144.5 -58t-52.5 -159v-14
q0 -100 52.5 -158.5t144.5 -58.5zM339 725l-141 150h122l82 -67l82 67h121l-140 -150h-126z" />
    <glyph glyph-name="uni01D2" unicode="&#x1d2;" horiz-adv-x="627" 
d="M313 -10q-85 0 -147.5 31t-96.5 89t-34 136v25q0 79 34 137t96.5 89t147.5 31q86 0 148 -31t96 -89t34 -137v-25q0 -78 -34 -136t-96 -89t-148 -31zM313 112q60 0 92 35.5t32 100.5v21q0 65 -32 101t-92 36q-59 0 -91.5 -36t-32.5 -101v-21q0 -65 32.5 -100.5t91.5 -35.5
zM250 580l-138 180h120l81 -87l81 87h120l-138 -180h-126z" />
    <glyph glyph-name="uni01D3" unicode="&#x1d3;" horiz-adv-x="782" 
d="M391 -15q-157 0 -240 74t-83 214v407h157v-384q0 -96 39 -138t127 -42t127 42t39 138v384h157v-407q0 -140 -83 -214t-240 -74zM325 725l-141 150h122l82 -67l82 67h121l-140 -150h-126z" />
    <glyph glyph-name="uni01D4" unicode="&#x1d4;" horiz-adv-x="614" 
d="M221 -10q-76 0 -118.5 50t-42.5 141v337h150v-311q0 -87 65 -87q24 0 48.5 13t58.5 42l17 14v329h150v-518h-148v73q-54 -46 -95 -64.5t-85 -18.5zM244 580l-138 180h120l81 -87l81 87h120l-138 -180h-126z" />
    <glyph glyph-name="uni01D5" unicode="&#x1d5;" horiz-adv-x="782" 
d="M391 -15q-157 0 -240 74t-83 214v407h157v-384q0 -96 39 -138t127 -42t127 42t39 138v384h157v-407q0 -140 -83 -214t-240 -74zM447 729v126h131v-126h-131zM198 729v126h131v-126h-131zM187 907v97h402v-97h-402z" />
    <glyph glyph-name="uni01D6" unicode="&#x1d6;" horiz-adv-x="614" 
d="M221 -10q-76 0 -118.5 50t-42.5 141v337h150v-311q0 -87 65 -87q24 0 48.5 13t58.5 42l17 14v329h150v-518h-148v73q-54 -46 -95 -64.5t-85 -18.5zM361 581v131h130v-131h-130zM119 581v131h130v-131h-130zM110 776v98h389v-98h-389z" />
    <glyph glyph-name="uni01D7" unicode="&#x1d7;" horiz-adv-x="782" 
d="M391 -15q-157 0 -240 74t-83 214v407h157v-384q0 -96 39 -138t127 -42t127 42t39 138v384h157v-407q0 -140 -83 -214t-240 -74zM447 729v126h131v-126h-131zM198 729v126h131v-126h-131zM309 889l124 140h153l-147 -140h-130z" />
    <glyph glyph-name="uni01D8" unicode="&#x1d8;" horiz-adv-x="614" 
d="M221 -10q-76 0 -118.5 50t-42.5 141v337h150v-311q0 -87 65 -87q24 0 48.5 13t58.5 42l17 14v329h150v-518h-148v73q-54 -46 -95 -64.5t-85 -18.5zM361 581v131h130v-131h-130zM119 581v131h130v-131h-130zM217 748l116 163h145l-139 -163h-122z" />
    <glyph glyph-name="uni01D9" unicode="&#x1d9;" horiz-adv-x="782" 
d="M391 -15q-157 0 -240 74t-83 214v407h157v-384q0 -96 39 -138t127 -42t127 42t39 138v384h157v-407q0 -140 -83 -214t-240 -74zM447 729v126h131v-126h-131zM198 729v126h131v-126h-131zM326 889l-140 140h121l81 -61l81 61h120l-139 -140h-124z" />
    <glyph glyph-name="uni01DA" unicode="&#x1da;" horiz-adv-x="614" 
d="M221 -10q-76 0 -118.5 50t-42.5 141v337h150v-311q0 -87 65 -87q24 0 48.5 13t58.5 42l17 14v329h150v-518h-148v73q-54 -46 -95 -64.5t-85 -18.5zM361 581v131h130v-131h-130zM119 581v131h130v-131h-130zM243 748l-135 163h118l79 -77l79 77h118l-135 -163h-124z" />
    <glyph glyph-name="uni01DB" unicode="&#x1db;" horiz-adv-x="782" 
d="M391 -15q-157 0 -240 74t-83 214v407h157v-384q0 -96 39 -138t127 -42t127 42t39 138v384h157v-407q0 -140 -83 -214t-240 -74zM447 729v126h131v-126h-131zM198 729v126h131v-126h-131zM337 889l-147 140h153l124 -140h-130z" />
    <glyph glyph-name="uni01DC" unicode="&#x1dc;" horiz-adv-x="614" 
d="M221 -10q-76 0 -118.5 50t-42.5 141v337h150v-311q0 -87 65 -87q24 0 48.5 13t58.5 42l17 14v329h150v-518h-148v73q-54 -46 -95 -64.5t-85 -18.5zM361 581v131h130v-131h-130zM119 581v131h130v-131h-130zM271 748l-139 163h145l116 -163h-122z" />
    <glyph glyph-name="uni01DD" unicode="&#x1dd;" horiz-adv-x="592" 
d="M292 -10q-120 0 -187 64t-67 177v67h368q-11 105 -116 105q-36 0 -73.5 -9.5t-91.5 -30.5l-70 -27v128l46 18q57 24 107 35t105 11q75 0 129.5 -31t84 -87.5t29.5 -133.5v-25q0 -79 -32.5 -137.5t-92 -91t-139.5 -32.5zM295 104q96 0 110 103h-220q11 -103 110 -103z" />
    <glyph glyph-name="uni01DE" unicode="&#x1de;" horiz-adv-x="749" 
d="M3 0l284 680h175l284 -680h-164l-61 152h-298l-61 -152h-159zM273 280h197l-99 244zM434 729v126h131v-126h-131zM185 729v126h131v-126h-131zM174 907v97h402v-97h-402z" />
    <glyph glyph-name="uni01DF" unicode="&#x1df;" horiz-adv-x="588" 
d="M195 -10q-77 0 -120.5 39.5t-43.5 109.5q0 74 49 112.5t163 52.5l140 17q-1 43 -18 61.5t-56 18.5q-25 0 -61 -9.5t-101 -34.5l-69 -26v129l38 15q71 28 124.5 40.5t99.5 12.5q188 0 188 -196v-332h-143v70q-53 -42 -98.5 -61t-91.5 -19zM178 157q0 -23 14.5 -36
t39.5 -13q29 0 63.5 16t87.5 53v62l-122 -21q-47 -8 -65 -21.5t-18 -39.5zM348 581v131h130v-131h-130zM106 581v131h130v-131h-130zM97 776v98h389v-98h-389z" />
    <glyph glyph-name="uni01E4" unicode="&#x1e4;" horiz-adv-x="819" 
d="M364 -15q-99 0 -172 42.5t-113 120t-40 182.5v20q0 105 42 182.5t118.5 120t178.5 42.5q55 0 114.5 -14.5t148.5 -49.5l50 -20v-146l-109 44q-52 21 -87 33t-61.5 17t-52.5 5q-83 0 -129.5 -57.5t-46.5 -160.5v-12q0 -106 43 -162t125 -56q43 0 86 13.5t97 44.5v62h-147
v76h147v82h151v-82h87v-76h-87v-127l-37 -22q-87 -54 -164 -78t-142 -24z" />
    <glyph glyph-name="uni01E5" unicode="&#x1e5;" horiz-adv-x="760" 
d="M17 231v77h88q7 102 63.5 161t146.5 59q44 0 88 -20.5t106 -70.5v81h148v-210h86v-77h-86v-209q0 -114 -57.5 -173t-169.5 -59q-52 0 -111 13t-131 38l-52 18v139l75 -30q128 -51 200 -51q96 0 96 114v70q-60 -49 -105 -69t-89 -20q-88 0 -144 59.5t-64 159.5h-88z
M355 402q-82 0 -95 -94h247v11l-12 10q-47 38 -80.5 55.5t-59.5 17.5zM495 209l12 10v12h-246q6 -45 30.5 -70t63.5 -25q26 0 59.5 17.5t80.5 55.5z" />
    <glyph glyph-name="Gcaron" unicode="&#x1e6;" horiz-adv-x="757" 
d="M364 -15q-99 0 -172 42.5t-113 120t-40 182.5v20q0 105 42 182.5t118.5 120t178.5 42.5q57 0 117 -15t144 -48l52 -21v-146l-109 44q-50 20 -85 32t-62 17.5t-54 5.5q-83 0 -129.5 -57.5t-46.5 -160.5v-12q0 -106 43 -162t125 -56q44 0 87 13.5t95 43.5v97h-178v124h330
v-285l-38 -22q-168 -102 -305 -102zM341 725l-141 150h122l82 -67l82 67h121l-140 -150h-126z" />
    <glyph glyph-name="gcaron" unicode="&#x1e7;" horiz-adv-x="653" 
d="M244 14q-62 0 -109.5 31t-73.5 87t-26 131v15q0 77 26 133t74 86.5t112 30.5q43 0 87.5 -20.5t105.5 -70.5v81h148v-498q0 -112 -60 -171t-176 -59q-54 0 -110.5 13t-124.5 39l-50 19v137l73 -31q63 -27 107.5 -39t82.5 -12q108 0 108 118v69q-60 -49 -104.5 -69
t-89.5 -20zM190 265q0 -60 25.5 -93.5t71.5 -33.5q26 0 59 17.5t81 55.5l11 10v98l-11 10q-48 38 -81 55.5t-59 17.5q-47 0 -72 -32.5t-25 -93.5v-11zM251 580l-138 180h120l81 -87l81 87h120l-138 -180h-126z" />
    <glyph glyph-name="uni01E8" unicode="&#x1e8;" horiz-adv-x="720" 
d="M75 0v680h157v-300l285 300h201l-300 -294l310 -386h-196l-230 289l-70 -69v-220h-157zM311 725l-141 150h122l82 -67l82 67h121l-140 -150h-126z" />
    <glyph glyph-name="uni01E9" unicode="&#x1e9;" horiz-adv-x="609" 
d="M65 0v740h150v-435l214 213h179l-231 -220l241 -298h-188l-159 209l-56 -55v-154h-150zM78 785l-141 150h122l82 -67l82 67h121l-140 -150h-126z" />
    <glyph glyph-name="uni01EA" unicode="&#x1ea;" horiz-adv-x="804" 
d="M672 80l-94 -121q-23 -29 -30.5 -44.5t-7.5 -31.5q0 -31 31 -31q20 0 52 15l38 19v-80l-22 -10q-24 -10 -47 -16.5t-48 -6.5q-45 0 -73.5 25.5t-28.5 65.5q0 19 6 36t22 39t46 55l8 9q-55 -18 -122 -18q-108 0 -189.5 43t-127.5 120t-46 179v26q0 102 46 179t127.5 120
t189.5 43t189.5 -43t127.5 -120t46 -179v-26q0 -70 -22.5 -128t-70.5 -119zM205 333q0 -100 52.5 -158.5t144.5 -58.5t144.5 58.5t52.5 158.5v14q0 101 -52.5 159t-144.5 58t-144.5 -58t-52.5 -159v-14z" />
    <glyph glyph-name="uni01EB" unicode="&#x1eb;" horiz-adv-x="627" 
d="M505 42l-85 -88q-21 -23 -30 -38.5t-9 -31.5q0 -32 32 -32q19 0 51 15l38 19v-80l-22 -10q-51 -23 -94 -23q-44 0 -71.5 24.5t-27.5 64.5q0 31 16 57.5t61 70.5l5 4q-29 -4 -56 -4q-85 0 -147.5 31t-96.5 89t-34 136v25q0 79 34 137t96.5 89t147.5 31q86 0 148 -31
t96 -89t34 -137v-25q0 -115 -86 -204zM189 248q0 -65 32.5 -100.5t91.5 -35.5q60 0 92 35.5t32 100.5v21q0 65 -32 101t-92 36q-59 0 -91.5 -36t-32.5 -101v-21z" />
    <glyph glyph-name="uni01EC" unicode="&#x1ec;" horiz-adv-x="804" 
d="M402 -15q-108 0 -189.5 43t-127.5 120t-46 179v26q0 102 46 179t127.5 120t189.5 43t189.5 -43t127.5 -120t46 -179v-26q0 -102 -46 -179t-127.5 -120t-189.5 -43zM402 116q92 0 144.5 58.5t52.5 158.5v14q0 101 -52.5 159t-144.5 58t-144.5 -58t-52.5 -159v-14
q0 -100 52.5 -158.5t144.5 -58.5zM199 748v104h406v-104h-406zM544 -227q-45 0 -73.5 25.5t-28.5 65.5q0 19 6 36t21.5 38.5t44.5 55.5l121 139l42 -40l-99 -134q-23 -29 -31 -45t-8 -31q0 -31 32 -31q19 0 51 15l39 19v-80l-22 -10q-25 -11 -48 -17t-47 -6z" />
    <glyph glyph-name="uni01ED" unicode="&#x1ed;" horiz-adv-x="627" 
d="M505 42l-85 -88q-21 -23 -30 -38.5t-9 -31.5q0 -32 32 -32q19 0 51 15l38 19v-80l-22 -10q-51 -23 -94 -23q-44 0 -71.5 24.5t-27.5 64.5q0 31 16 57.5t61 70.5l5 4q-29 -4 -56 -4q-85 0 -147.5 31t-96.5 89t-34 136v25q0 79 34 137t96.5 89t147.5 31q86 0 148 -31
t96 -89t34 -137v-25q0 -115 -86 -204zM189 248q0 -65 32.5 -100.5t91.5 -35.5q60 0 92 35.5t32 100.5v21q0 65 -32 101t-92 36q-59 0 -91.5 -36t-32.5 -101v-21zM115 606v105h396v-105h-396z" />
    <glyph glyph-name="uni01EE" unicode="&#x1ee;" horiz-adv-x="645" 
d="M365 -15q-64 0 -133.5 20t-145.5 61l-46 25v146l76 -42q80 -43 134 -61.5t96 -18.5q94 0 94 83q0 41 -26.5 61t-82.5 23l-149 7v102l206 159h-338v130h543v-116l-217 -169q116 -6 171.5 -55.5t55.5 -144.5q0 -98 -63.5 -154t-174.5 -56zM251 725l-141 150h122l82 -67
l82 67h121l-140 -150h-126z" />
    <glyph glyph-name="uni01EF" unicode="&#x1ef;" horiz-adv-x="554" 
d="M298 -210q-119 0 -247 75l-29 16v137l51 -30q72 -42 117.5 -59t83.5 -17q48 0 74.5 26t26.5 71v9q0 95 -120 95q-21 0 -51 -3.5t-62 -9.5v110l184 185h-287v123h471v-107l-194 -191q103 -5 158 -56.5t55 -144.5v-13q0 -66 -28.5 -114.5t-80.5 -75t-122 -26.5zM199 580
l-138 180h120l81 -87l81 87h120l-138 -180h-126z" />
    <glyph glyph-name="uni01F0" unicode="&#x1f0;" horiz-adv-x="285" 
d="M95 -210q-27 0 -53 6t-52 16l-20 8v122l24 -10q19 -8 29.5 -11t19.5 -3q27 0 27 33v567h150v-588q0 -140 -125 -140zM88 580l-129 180h114l72 -86l71 86h115l-128 -180h-115z" />
    <glyph glyph-name="uni01F8" unicode="&#x1f8;" horiz-adv-x="780" 
d="M557 680h148v-680h-161l-320 449v-449h-149v680h163l319 -449v449zM331 725l-148 150h154l126 -150h-132z" />
    <glyph glyph-name="uni01F9" unicode="&#x1f9;" horiz-adv-x="625" 
d="M65 0v518h148v-76l3 3q52 44 95 63.5t89 19.5q77 0 121 -51t44 -142v-335h-150v309q0 43 -18.5 66.5t-52.5 23.5q-24 0 -51 -14t-65 -47l-13 -10v-328h-150zM260 580l-142 180h148l118 -180h-124z" />
    <glyph glyph-name="Aringacute" unicode="&#x1fa;" horiz-adv-x="749" 
d="M3 0l284 680h175l284 -680h-164l-61 152h-298l-61 -152h-159zM273 280h197l-99 244zM375 718q-59 0 -98.5 30t-39.5 79v4q0 49 39.5 79t98.5 30t98.5 -30t39.5 -79v-4q0 -49 -39.5 -79t-98.5 -30zM375 782q27 0 42.5 12t15.5 35t-15.5 34.5t-42.5 11.5t-42.5 -11.5
t-15.5 -34.5q0 -24 15.5 -35.5t42.5 -11.5zM296 969l124 140h153l-147 -140h-130z" />
    <glyph glyph-name="aringacute" unicode="&#x1fb;" horiz-adv-x="588" 
d="M195 -10q-77 0 -120.5 39.5t-43.5 109.5q0 74 49 112.5t163 52.5l140 17q-1 43 -18 61.5t-56 18.5q-25 0 -61 -9.5t-101 -34.5l-69 -26v129l38 15q71 28 124.5 40.5t99.5 12.5q188 0 188 -196v-332h-143v70q-53 -42 -98.5 -61t-91.5 -19zM178 157q0 -23 14.5 -36
t39.5 -13q29 0 63.5 16t87.5 53v62l-122 -21q-47 -8 -65 -21.5t-18 -39.5zM292 560q-59 0 -95.5 31t-36.5 80v5q0 49 36.5 80t95.5 31t95.5 -31t36.5 -80v-5q0 -49 -36.5 -80t-95.5 -31zM292 622q25 0 39 14t14 38q0 23 -14 37t-39 14t-39.5 -14t-14.5 -38q0 -23 14.5 -37
t39.5 -14zM204 815l116 163h145l-139 -163h-122z" />
    <glyph glyph-name="AEacute" unicode="&#x1fc;" horiz-adv-x="1032" 
d="M3 0l355 680h639v-130h-350v-146h335v-128h-335v-146h350v-130h-505v169h-239l-87 -169h-163zM319 297h173v253h-42zM498 725l126 150h154l-148 -150h-132z" />
    <glyph glyph-name="aeacute" unicode="&#x1fd;" horiz-adv-x="911" 
d="M193 -10q-76 0 -119 39.5t-43 109.5q0 75 50.5 115t163.5 51l126 14v2q0 44 -15 62t-53 18q-16 0 -35 -3.5t-47.5 -13.5t-74.5 -27l-68 -26v129l38 15q73 28 124 40.5t94 12.5q92 0 133 -59q65 59 168 59q111 0 174.5 -64t63.5 -177v-67h-361q10 -104 113 -104
q30 0 66.5 9t94.5 31l70 27v-129l-45 -17q-64 -26 -112 -36.5t-98 -10.5q-65 0 -113.5 24.5t-76.5 70.5l-13 -10q-59 -45 -107 -65t-98 -20zM620 415q-94 0 -107 -103h213q-10 103 -106 103zM178 158q0 -23 14 -36.5t37 -13.5q29 0 63.5 16.5t83.5 54.5q-5 30 -5 59
l-109 -19q-43 -6 -63.5 -20t-20.5 -41zM375 580l118 180h148l-142 -180h-124z" />
    <glyph glyph-name="Oslashacute" unicode="&#x1fe;" horiz-adv-x="804" 
d="M49 -35l92 114q-48 45 -75 108.5t-27 139.5v26q0 102 46 179t127.5 120t189.5 43q54 0 102 -11.5t88 -32.5l48 61h115l-91 -113q48 -45 74.5 -107.5t26.5 -138.5v-26q0 -102 -46 -179t-127.5 -120t-189.5 -43q-53 0 -100.5 11t-87.5 32l-50 -63h-115zM204 333
q0 -81 35 -135l265 342q-43 24 -102 24q-92 0 -145 -58t-53 -159v-14zM402 116q92 0 145 58.5t53 158.5v14q0 79 -33 133l-265 -341q43 -23 100 -23zM328 725l126 150h154l-148 -150h-132z" />
    <glyph glyph-name="oslashacute" unicode="&#x1ff;" horiz-adv-x="627" 
d="M45 -30l68 88q-37 34 -57.5 81.5t-20.5 106.5v25q0 79 34 137t96.5 89t147.5 31q74 0 132 -25l34 45h102l-67 -88q37 -34 57 -82t20 -107v-25q0 -78 -34 -136t-96 -89t-148 -31q-73 0 -131 25l-34 -45h-103zM184 245q0 -46 16 -77l169 232q-24 9 -56 9q-60 0 -94.5 -37
t-34.5 -101v-26zM313 110q61 0 95.5 36.5t34.5 100.5v26q0 46 -16 77l-169 -232q24 -8 55 -8zM243 580l118 180h148l-142 -180h-124z" />
    <glyph glyph-name="uni0218" unicode="&#x218;" horiz-adv-x="676" 
d="M395 -15q-76 0 -149.5 18.5t-159.5 58.5l-43 20v150l82 -39q85 -42 147.5 -60.5t114.5 -18.5q44 0 68.5 20t24.5 55q0 30 -21.5 45t-78.5 26l-123 25q-108 21 -155 67t-47 132q0 64 29.5 111.5t84 73.5t128.5 26q59 0 120.5 -14t144.5 -45l50 -19v-144l-82 32
q-58 23 -98.5 36.5t-70.5 19t-58 5.5q-42 0 -66 -18.5t-24 -50.5t19.5 -48t71.5 -25l129 -26q112 -22 158.5 -67t46.5 -132q0 -101 -64.5 -157.5t-178.5 -56.5zM228 -227l40 174h137l-60 -174h-117z" />
    <glyph glyph-name="uni0219" unicode="&#x219;" horiz-adv-x="546" 
d="M319 -9q-50 0 -105.5 13t-129.5 42l-46 18v124l92 -38q115 -48 178 -48q59 0 59 44q0 19 -11.5 28t-41.5 15l-103 18q-86 15 -124.5 52t-38.5 104q0 77 51 121t139 44q43 0 87 -9t110 -32l55 -18v-122l-88 32q-57 21 -90 29.5t-61 8.5q-59 0 -59 -43q0 -19 13 -28.5
t46 -15.5l109 -20q81 -14 116.5 -50t35.5 -103q0 -79 -50.5 -122.5t-142.5 -43.5zM153 -227l40 174h136l-60 -174h-116z" />
    <glyph glyph-name="uni021A" unicode="&#x21a;" horiz-adv-x="663" 
d="M253 0v550h-237v130h631v-130h-237v-550h-157zM223 -227l40 174h137l-60 -174h-117z" />
    <glyph glyph-name="uni021B" unicode="&#x21b;" horiz-adv-x="545" 
d="M278 -10q-78 0 -119 43.5t-41 127.5v206h-102v123h102v171h150v-171h244v-123h-244v-177q0 -61 47 -61q21 0 41.5 10.5t57.5 38.5l98 75v-149l-46 -36q-54 -41 -97.5 -59.5t-90.5 -18.5zM172 -227l40 174h136l-60 -174h-116z" />
    <glyph glyph-name="uni021E" unicode="&#x21e;" horiz-adv-x="778" 
d="M75 0v680h157v-275h314v275h157v-680h-157v275h-314v-275h-157zM325 725l-141 150h122l82 -67l82 67h121l-140 -150h-126z" />
    <glyph glyph-name="uni021F" unicode="&#x21f;" horiz-adv-x="626" 
d="M66 0v740h150v-295q52 44 95.5 63.5t89.5 19.5q77 0 121 -51t44 -142v-335h-150v309q0 43 -18.5 66.5t-51.5 23.5q-25 0 -52 -14t-67 -48l-11 -9v-328h-150zM78 785l-141 150h122l82 -67l82 67h121l-140 -150h-126z" />
    <glyph glyph-name="uni0226" unicode="&#x226;" horiz-adv-x="749" 
d="M3 0l284 680h175l284 -680h-164l-61 152h-298l-61 -152h-159zM273 280h197l-99 244zM291 730v140h165v-140h-165z" />
    <glyph glyph-name="uni0227" unicode="&#x227;" horiz-adv-x="588" 
d="M195 -10q-77 0 -120.5 39.5t-43.5 109.5q0 74 49 112.5t163 52.5l140 17q-1 43 -18 61.5t-56 18.5q-25 0 -61 -9.5t-101 -34.5l-69 -26v129l38 15q71 28 124.5 40.5t99.5 12.5q188 0 188 -196v-332h-143v70q-53 -42 -98.5 -61t-91.5 -19zM178 157q0 -23 14.5 -36
t39.5 -13q29 0 63.5 16t87.5 53v62l-122 -21q-47 -8 -65 -21.5t-18 -39.5zM208 592v147h167v-147h-167z" />
    <glyph glyph-name="uni0228" unicode="&#x228;" horiz-adv-x="653" 
d="M75 0v680h526v-130h-372v-146h357v-128h-357v-146h372v-130h-526zM376 -227q-23 0 -49 4.5t-63 14.5l-34 10v75l47 -14q56 -17 83 -17q35 0 35 30q0 27 -43 27h-86v40l44 86l75 -2l-34 -68h22q115 0 115 -89q0 -46 -29.5 -71.5t-82.5 -25.5z" />
    <glyph glyph-name="uni0229" unicode="&#x229;" horiz-adv-x="592" 
d="M278 -10q-74 0 -128.5 31t-84.5 87.5t-30 134.5v24q0 79 33 138t92.5 91t139.5 32q119 0 186.5 -64t67.5 -177v-67h-368q11 -104 116 -104q36 0 73.5 9t90.5 31l70 27v-129l-45 -18q-57 -24 -107 -35t-106 -11zM297 415q-96 0 -110 -103h219q-11 103 -109 103zM322 -227
q-24 0 -49.5 4.5t-60.5 14.5l-32 10v75l45 -14q32 -10 49 -13.5t32 -3.5q34 0 34 30q0 27 -42 27h-83v51l34 75l72 -2l-30 -68h28q111 0 111 -89q0 -46 -28.5 -71.5t-79.5 -25.5z" />
    <glyph glyph-name="uni022A" unicode="&#x22a;" horiz-adv-x="804" 
d="M402 -15q-108 0 -189.5 43t-127.5 120t-46 179v26q0 102 46 179t127.5 120t189.5 43t189.5 -43t127.5 -120t46 -179v-26q0 -102 -46 -179t-127.5 -120t-189.5 -43zM402 116q92 0 144.5 58.5t52.5 158.5v14q0 101 -52.5 159t-144.5 58t-144.5 -58t-52.5 -159v-14
q0 -100 52.5 -158.5t144.5 -58.5zM461 729v126h131v-126h-131zM212 729v126h131v-126h-131zM201 907v97h402v-97h-402z" />
    <glyph glyph-name="uni022B" unicode="&#x22b;" horiz-adv-x="627" 
d="M313 -10q-85 0 -147.5 31t-96.5 89t-34 136v25q0 79 34 137t96.5 89t147.5 31q86 0 148 -31t96 -89t34 -137v-25q0 -78 -34 -136t-96 -89t-148 -31zM313 112q60 0 92 35.5t32 100.5v21q0 65 -32 101t-92 36q-59 0 -91.5 -36t-32.5 -101v-21q0 -65 32.5 -100.5t91.5 -35.5
zM369 581v131h130v-131h-130zM127 581v131h130v-131h-130zM118 776v98h389v-98h-389z" />
    <glyph glyph-name="uni022C" unicode="&#x22c;" horiz-adv-x="804" 
d="M402 -15q-108 0 -189.5 43t-127.5 120t-46 179v26q0 102 46 179t127.5 120t189.5 43t189.5 -43t127.5 -120t46 -179v-26q0 -102 -46 -179t-127.5 -120t-189.5 -43zM402 116q92 0 144.5 58.5t52.5 158.5v14q0 101 -52.5 159t-144.5 58t-144.5 -58t-52.5 -159v-14
q0 -100 52.5 -158.5t144.5 -58.5zM203 725l10 37q16 55 39 78.5t61 23.5q17 0 35 -4.5t47 -18.5l40 -19q24 -11 35 -11q13 0 20 7.5t13 25.5l6 17h91l-10 -37q-16 -54 -39 -78t-61 -24q-18 0 -35 4.5t-47 18.5l-40 20q-22 10 -35 10q-23 0 -33 -33l-6 -17h-91zM201 915v97
h402v-97h-402z" />
    <glyph glyph-name="uni022D" unicode="&#x22d;" horiz-adv-x="627" 
d="M313 -10q-85 0 -147.5 31t-96.5 89t-34 136v25q0 79 34 137t96.5 89t147.5 31q86 0 148 -31t96 -89t34 -137v-25q0 -78 -34 -136t-96 -89t-148 -31zM313 112q60 0 92 35.5t32 100.5v21q0 65 -32 101t-92 36q-59 0 -91.5 -36t-32.5 -101v-21q0 -65 32.5 -100.5t91.5 -35.5
zM392 572q-15 0 -32.5 5.5t-43.5 18.5l-33 18q-24 13 -36 13q-21 0 -31 -33l-6 -19h-92l11 37q18 60 41.5 85t62.5 25q16 0 33 -5t43 -19l33 -18q25 -13 36 -13q12 0 18.5 7.5t12.5 25.5l6 19h92l-11 -38q-17 -59 -41 -84t-63 -25zM118 783v98h389v-98h-389z" />
    <glyph glyph-name="uni022E" unicode="&#x22e;" horiz-adv-x="804" 
d="M402 -15q-108 0 -189.5 43t-127.5 120t-46 179v26q0 102 46 179t127.5 120t189.5 43t189.5 -43t127.5 -120t46 -179v-26q0 -102 -46 -179t-127.5 -120t-189.5 -43zM402 116q92 0 144.5 58.5t52.5 158.5v14q0 101 -52.5 159t-144.5 58t-144.5 -58t-52.5 -159v-14
q0 -100 52.5 -158.5t144.5 -58.5zM318 730v140h165v-140h-165z" />
    <glyph glyph-name="uni022F" unicode="&#x22f;" horiz-adv-x="627" 
d="M313 -10q-85 0 -147.5 31t-96.5 89t-34 136v25q0 79 34 137t96.5 89t147.5 31q86 0 148 -31t96 -89t34 -137v-25q0 -78 -34 -136t-96 -89t-148 -31zM313 112q60 0 92 35.5t32 100.5v21q0 65 -32 101t-92 36q-59 0 -91.5 -36t-32.5 -101v-21q0 -65 32.5 -100.5t91.5 -35.5
zM229 592v147h167v-147h-167z" />
    <glyph glyph-name="uni0230" unicode="&#x230;" horiz-adv-x="804" 
d="M402 -15q-108 0 -189.5 43t-127.5 120t-46 179v26q0 102 46 179t127.5 120t189.5 43t189.5 -43t127.5 -120t46 -179v-26q0 -102 -46 -179t-127.5 -120t-189.5 -43zM402 116q92 0 144.5 58.5t52.5 158.5v14q0 101 -52.5 159t-144.5 58t-144.5 -58t-52.5 -159v-14
q0 -100 52.5 -158.5t144.5 -58.5zM321 725v133h163v-133h-163zM201 910v97h402v-97h-402z" />
    <glyph glyph-name="uni0231" unicode="&#x231;" horiz-adv-x="627" 
d="M313 -10q-85 0 -147.5 31t-96.5 89t-34 136v25q0 79 34 137t96.5 89t147.5 31q86 0 148 -31t96 -89t34 -137v-25q0 -78 -34 -136t-96 -89t-148 -31zM313 112q60 0 92 35.5t32 100.5v21q0 65 -32 101t-92 36q-59 0 -91.5 -36t-32.5 -101v-21q0 -65 32.5 -100.5t91.5 -35.5
zM231 580v141h164v-141h-164zM118 784v98h389v-98h-389z" />
    <glyph glyph-name="uni0232" unicode="&#x232;" horiz-adv-x="739" 
d="M291 0v253l-286 427h177l192 -293l192 293h168l-286 -427v-253h-157zM170 748v104h406v-104h-406z" />
    <glyph glyph-name="uni0233" unicode="&#x233;" horiz-adv-x="587" 
d="M177 -210q-50 0 -98 24l-15 7v134l33 -16q19 -10 31.5 -13.5t22.5 -3.5q17 0 28.5 10.5t23.5 36.5l16 35l-214 514h161l132 -345l130 345h154l-242 -580q-35 -83 -70.5 -115.5t-92.5 -32.5zM91 606v105h396v-105h-396z" />
    <glyph glyph-name="uni0237" unicode="&#x237;" horiz-adv-x="285" 
d="M95 -210q-27 0 -53 6t-52 16l-20 8v122l24 -10q19 -8 29.5 -11t19.5 -3q27 0 27 33v567h150v-588q0 -140 -125 -140z" />
    <glyph glyph-name="uni0241" unicode="&#x241;" horiz-adv-x="586" 
d="M183 0v299l82 26q69 21 100 52.5t31 77.5q0 51 -29.5 80.5t-81.5 29.5q-36 0 -80 -16t-116 -52l-62 -32v142l39 19q70 35 127 52t112 17q77 0 134.5 -29t89 -81.5t31.5 -123.5q0 -87 -46 -142.5t-145 -88.5l-31 -10v-220h-155z" />
    <glyph glyph-name="uni0242" unicode="&#x242;" horiz-adv-x="542" 
d="M158 0v176l101 36q55 20 77 43.5t22 61.5t-24.5 61.5t-63.5 23.5q-19 0 -41 -6.5t-56.5 -22.5t-89.5 -46l-60 -32v143l36 20q72 38 123.5 54t102.5 16q68 0 119.5 -25.5t79.5 -72t28 -107.5q0 -78 -39 -123t-133 -80l-32 -12v-108h-150z" />
    <glyph glyph-name="uni0243" unicode="&#x243;" horiz-adv-x="749" 
d="M107 0v165h-87v76h87v439h346q248 0 248 -185q0 -99 -82 -146q87 -43 87 -151q0 -96 -65 -147t-185 -51h-349zM440 554h-182v-154h182q98 0 98 77t-98 77zM399 165h-141v-49h190q99 0 99 87t-99 87h-190v-49h141v-76z" />
    <glyph glyph-name="uni0244" unicode="&#x244;" horiz-adv-x="836" 
d="M8 321v85h87v274h157v-274h332v274h157v-274h87v-85h-87v-48q0 -140 -83 -214t-240 -74t-240 74t-83 214v48h-87zM252 296q0 -96 39 -138t127 -42t127 42t39 138v25h-332v-25z" />
    <glyph glyph-name="uni0245" unicode="&#x245;" horiz-adv-x="731" 
d="M3 0l275 680h175l275 -680h-168l-197 511l-198 -511h-162z" />
    <glyph glyph-name="uni024B" unicode="&#x24b;" horiz-adv-x="646" 
d="M248 -10q-98 0 -155.5 70t-57.5 189v21q0 79 26 137t73 89.5t112 31.5q45 0 89 -18.5t100 -61.5v70h148v-567q0 -33 27 -33q15 0 49 14l24 10v-122l-20 -8q-26 -10 -52.5 -16t-53.5 -6q-124 0 -124 140v141q-58 -44 -100.5 -62.5t-84.5 -18.5zM190 251q0 -63 27 -99
t74 -36q28 0 58.5 16t77.5 53l6 4v140l-6 5q-47 37 -77.5 52.5t-58.5 15.5q-47 0 -74 -36t-27 -98v-17z" />
    <glyph glyph-name="uni024C" unicode="&#x24c;" horiz-adv-x="768" 
d="M113 0v248h-97v127h97v305h358q119 0 182 -53.5t63 -160.5q0 -72 -35.5 -119t-98.5 -70l167 -277h-177l-144 247h-160v-247h-155zM268 375h183q49 0 75 23t26 66q0 88 -101 88h-183v-177z" />
    <glyph glyph-name="uni024D" unicode="&#x24d;" horiz-adv-x="467" 
d="M104 0v192h-87v88h87v238h148v-91l28 21q59 42 96 59.5t74 20.5v-148q-47 -4 -86 -16.5t-88 -38.5l-22 -13v-32h152v-88h-152v-192h-150z" />
    <glyph glyph-name="uni0251" unicode="&#x251;" horiz-adv-x="646" 
d="M248 -10q-98 0 -155.5 70t-57.5 189v21q0 79 26 137t73 89.5t112 31.5q45 0 88.5 -18.5t98.5 -61.5v70h148v-518h-148v71q-57 -44 -99.5 -62.5t-85.5 -18.5zM190 251q0 -63 27 -99t74 -36q28 0 58.5 16t77.5 53l4 3v142l-4 4q-47 37 -77.5 52.5t-58.5 15.5q-47 0 -74 -36
t-27 -98v-17z" />
    <glyph glyph-name="uni0253" unicode="&#x253;" horiz-adv-x="648" 
d="M66 0v579q0 88 47 129.5t122 41.5q65 0 145 -28l27 -9v-131l-40 15q-32 12 -53 17.5t-40 5.5q-32 0 -45 -17.5t-13 -52.5v-108q57 43 99.5 61.5t83.5 18.5q98 0 155.5 -70t57.5 -189v-14q0 -79 -25.5 -137t-73 -90t-111.5 -32q-45 0 -88.5 18.5t-99.5 61.5v-70h-148z
M217 188q50 -40 81 -56t59 -16q47 0 74 36t27 99v10q0 62 -27 98t-74 36q-28 0 -59 -15.5t-79 -54.5l-3 -2v-135h1z" />
    <glyph glyph-name="uni0254" unicode="&#x254;" horiz-adv-x="534" 
d="M270 -10q-46 0 -92.5 16t-99.5 50l-36 24v140l55 -38q56 -39 89 -54t61 -15q46 0 71.5 35.5t25.5 98.5v24q0 64 -26.5 99t-71.5 35q-29 0 -61.5 -14t-86.5 -50l-54 -37v139l38 23q55 33 99 47.5t88 14.5q66 0 118 -33t81.5 -90.5t29.5 -131.5v-28q0 -76 -28.5 -133.5
t-79.5 -89.5t-120 -32z" />
    <glyph glyph-name="uni0256" unicode="&#x256;" horiz-adv-x="646" 
d="M248 -10q-98 0 -155.5 70t-57.5 189v21q0 79 26 137t73 89.5t112 31.5q44 0 87.5 -18t97.5 -60v290h150v-789q0 -33 28 -33q8 0 19 3t29 11l24 10v-122l-20 -8q-25 -10 -51.5 -16t-53.5 -6q-125 0 -125 140v140q-56 -44 -98.5 -62t-84.5 -18zM190 251q0 -63 27 -99
t74 -36q28 0 58.5 16t77.5 53l4 3v142l-4 4q-47 37 -77.5 52.5t-58.5 15.5q-47 0 -74 -36t-27 -98v-17z" />
    <glyph glyph-name="uni0257" unicode="&#x257;" horiz-adv-x="646" 
d="M248 -10q-98 0 -155.5 70t-57.5 189v21q0 79 26 137t73 89.5t112 31.5q44 0 87.5 -18t97.5 -60v144q0 76 35 116t102 40q26 0 52.5 -6t51.5 -13l12 -4v-118l-15 5q-36 12 -53 12q-35 0 -35 -45v-581h-148v71q-57 -44 -99.5 -62.5t-85.5 -18.5zM190 251q0 -63 27 -99
t74 -36q28 0 58.5 16t77.5 53l4 3v142l-4 4q-47 37 -77.5 52.5t-58.5 15.5q-47 0 -74 -36t-27 -98v-17z" />
    <glyph glyph-name="uni0259" unicode="&#x259;" horiz-adv-x="592" 
d="M292 -10q-120 0 -187 64t-67 177v67h368q-11 105 -116 105q-36 0 -73.5 -9.5t-91.5 -30.5l-70 -27v128l46 18q57 24 107 35t105 11q75 0 129.5 -31t84 -87.5t29.5 -133.5v-25q0 -79 -32.5 -137.5t-92 -91t-139.5 -32.5zM295 104q96 0 110 103h-220q11 -103 110 -103z" />
    <glyph glyph-name="uni025B" unicode="&#x25b;" horiz-adv-x="538" 
d="M223 -10q-86 0 -136 40.5t-50 109.5q0 86 74 118q-64 36 -64 116q0 71 50.5 112.5t136.5 41.5q42 0 92.5 -10t117.5 -32l43 -14v-129l-73 24q-60 21 -96.5 29.5t-63.5 8.5q-63 0 -63 -47q0 -48 71 -48h161v-99h-169q-72 0 -72 -47q0 -24 18 -37t50 -13q65 0 182 50l70 29
v-131l-40 -16q-70 -30 -128 -43t-111 -13z" />
    <glyph glyph-name="uni0260" unicode="&#x260;" horiz-adv-x="653" 
d="M244 14q-62 0 -109.5 31t-73.5 87t-26 131v15q0 77 26 133t74 86.5t112 30.5q43 0 87 -20t104 -69v155q0 76 35 116t102 40q26 0 52 -6t52 -13l12 -4v-118l-15 5q-36 12 -53 12q-35 0 -35 -45v-561q0 -112 -60 -171t-176 -59q-54 0 -110.5 13t-124.5 39l-50 19v137
l73 -31q63 -27 107.5 -39t82.5 -12q108 0 108 118v69q-60 -49 -104.5 -69t-89.5 -20zM190 265q0 -60 25.5 -93.5t71.5 -33.5q26 0 59 17.5t81 55.5l11 10v98l-11 10q-48 38 -81 55.5t-59 17.5q-47 0 -72 -32.5t-25 -93.5v-11z" />
    <glyph glyph-name="uni0263" unicode="&#x263;" horiz-adv-x="619" 
d="M308 -210q-89 0 -142 42t-53 112q0 36 13.5 68.5t51.5 85.5l43 61l-216 359h167l138 -247l142 247h162l-216 -358l42 -61q24 -35 37.5 -60t19 -47t5.5 -47q0 -71 -52.5 -113t-141.5 -42zM307 -97q26 0 40 13t14 36q0 16 -6.5 33t-24.5 42l-23 35l-24 -35
q-17 -26 -24 -42.5t-7 -32.5q0 -49 55 -49z" />
    <glyph glyph-name="uni0265" unicode="&#x265;" horiz-adv-x="614" 
d="M221 -10q-76 0 -118.5 50t-42.5 141v337h150v-311q0 -87 65 -87q24 0 49.5 14t62.5 44l12 11v329h150v-718h-150v272q-51 -44 -92.5 -63t-85.5 -19z" />
    <glyph glyph-name="uni0266" unicode="&#x266;" horiz-adv-x="625" 
d="M65 0v579q0 88 46.5 129.5t122.5 41.5q64 0 145 -28l26 -9v-131l-39 15q-33 12 -54 17.5t-40 5.5q-31 0 -44 -17.5t-13 -52.5v-111q52 44 95.5 63.5t89.5 19.5q77 0 121 -51.5t44 -142.5v-328h-150v303q0 42 -18.5 65.5t-52.5 23.5q-24 0 -51 -14t-67 -48l-11 -9v-321
h-150z" />
    <glyph glyph-name="uni0267" unicode="&#x267;" horiz-adv-x="626" 
d="M66 0v579q0 88 47 129.5t122 41.5q65 0 145 -28l27 -9v-131l-40 15q-32 12 -53 17.5t-40 5.5q-32 0 -45 -17.5t-13 -52.5v-111q52 44 95.5 63.5t89.5 19.5q77 0 121 -51.5t44 -142.5v-398q0 -140 -123 -140q-28 0 -55.5 7t-56.5 20l-16 7v122l21 -10q21 -10 33 -14t21 -4
q26 0 26 34v351q0 42 -18.5 65.5t-51.5 23.5q-25 0 -52 -14t-67 -48l-11 -9v-321h-150z" />
    <glyph glyph-name="uni0268" unicode="&#x268;" horiz-adv-x="357" 
d="M95 592v147h167v-147h-167zM104 0v216h-87v88h87v214h150v-214h86v-88h-86v-216h-150z" />
    <glyph glyph-name="uni0269" unicode="&#x269;" horiz-adv-x="324" 
d="M183 -10q-121 0 -121 137v391h150v-359q0 -18 5.5 -25.5t17.5 -7.5q17 0 53 21l23 12v-130l-17 -8q-59 -31 -111 -31z" />
    <glyph glyph-name="uni0272" unicode="&#x272;" horiz-adv-x="625" 
d="M415 0v309q0 43 -18.5 66.5t-52.5 23.5q-24 0 -51 -14t-65 -47l-13 -10v-398q0 -140 -125 -140q-27 0 -53 6t-52 16l-20 8v122l24 -10q19 -8 29.5 -11t19.5 -3q27 0 27 33v567h148v-76l3 3q52 44 95 63.5t89 19.5q77 0 121 -51t44 -142v-335h-150z" />
    <glyph glyph-name="uni0275" unicode="&#x275;" horiz-adv-x="627" 
d="M313 -10q-85 0 -147.5 31t-96.5 89t-34 136v25q0 79 34 137t96.5 89t147.5 31q86 0 148 -31t96 -89t34 -137v-25q0 -78 -34 -136t-96 -89t-148 -31zM313 406q-52 0 -83.5 -28t-38.5 -79h244q-7 51 -38 79t-84 28zM313 112q53 0 84.5 28t38.5 80h-245q7 -52 38.5 -80
t83.5 -28z" />
    <glyph glyph-name="uni027D" unicode="&#x27d;" horiz-adv-x="428" 
d="M367 -19l44 32v-146l-19 -13q-93 -64 -173 -64q-75 0 -114.5 44t-39.5 126v558h148v-91l29 21q58 42 95 59.5t74 20.5v-148q-46 -4 -85.5 -16.5t-87.5 -38.5l-23 -13v-322q0 -61 45 -61q18 0 40 10.5t67 41.5z" />
    <glyph glyph-name="uni027E" unicode="&#x27e;" horiz-adv-x="420" 
d="M61 0v350q0 85 44.5 131.5t124.5 46.5q34 0 68.5 -8.5t79.5 -28.5l23 -10v-131l-41 18q-40 18 -59.5 24t-35.5 6q-54 0 -54 -70v-328h-150z" />
    <glyph glyph-name="uni0283" unicode="&#x283;" horiz-adv-x="281" 
d="M109 -210q-47 0 -99 17l-23 8v125l22 -8q22 -8 34 -11t21 -3q29 0 29 32q0 7 -0.5 16.5t-1.5 18.5l-49 552q-1 9 -1.5 24t-0.5 23q0 80 41.5 123t116.5 43q54 0 127 -24l20 -7v-127l-33 10q-32 10 -48 14t-28 4q-47 0 -47 -53q0 -6 0.5 -17t1.5 -20l48 -553
q1 -12 1.5 -27t0.5 -23q0 -66 -34 -101.5t-98 -35.5z" />
    <glyph glyph-name="uni0288" unicode="&#x288;" horiz-adv-x="545" 
d="M278 -210q-78 0 -119 43.5t-41 127.5v406h-102v123h102v171h150v-171h244v-123h-244v-377q0 -61 47 -61q21 0 41.5 10.5t57.5 38.5l98 75v-149l-46 -36q-54 -41 -97.5 -59.5t-90.5 -18.5z" />
    <glyph glyph-name="uni0289" unicode="&#x289;" horiz-adv-x="703" 
d="M23 248v88h87v182h150v-182h189v182h150v-182h87v-88h-87v-248h-148v74l-1 -1q-52 -44 -93.5 -63.5t-85.5 -19.5q-77 0 -119 50t-42 141v67h-87zM260 207q0 -87 65 -87q24 0 49.5 14t61.5 44l13 11v59h-189v-41z" />
    <glyph glyph-name="uni028A" unicode="&#x28a;" horiz-adv-x="671" 
d="M335 -10q-84 0 -146.5 28t-97.5 79.5t-35 119.5v9q0 48 19.5 88t63.5 81h-103v123h267v-111l-20 -18q-38 -36 -55.5 -70t-17.5 -73v-13q0 -56 34 -88.5t91 -32.5q58 0 91.5 32.5t33.5 88.5v13q0 39 -17 73t-55 70l-20 18v111h266v-123h-101q44 -41 62.5 -81t18.5 -88v-9
q0 -68 -34.5 -119.5t-97.5 -79.5t-147 -28z" />
    <glyph glyph-name="uni028B" unicode="&#x28b;" horiz-adv-x="612" 
d="M288 -10q-111 0 -169.5 56.5t-58.5 164.5v307h150v-297q0 -54 20.5 -78t63.5 -24q59 0 93.5 48.5t34.5 130.5v10q0 96 -57 96q-11 0 -23.5 -3t-38.5 -13l-25 -10v120l20 7q61 23 106 23q79 0 125.5 -57.5t46.5 -160.5v-14q0 -96 -35 -164.5t-99.5 -105t-153.5 -36.5z" />
    <glyph glyph-name="uni028C" unicode="&#x28c;" horiz-adv-x="588" 
d="M6 0l215 518h146l216 -518h-162l-131 346l-130 -346h-154z" />
    <glyph glyph-name="uni0292" unicode="&#x292;" horiz-adv-x="554" 
d="M298 -210q-119 0 -247 75l-29 16v137l51 -30q72 -42 117.5 -59t83.5 -17q48 0 74.5 26t26.5 71v9q0 95 -120 95q-21 0 -51 -3.5t-62 -9.5v110l184 185h-287v123h471v-107l-194 -191q103 -5 158 -56.5t55 -144.5v-13q0 -66 -28.5 -114.5t-80.5 -75t-122 -26.5z" />
    <glyph glyph-name="uni0294" unicode="&#x294;" horiz-adv-x="531" 
d="M153 0v326l71 29q72 30 103.5 63t31.5 85q0 55 -31.5 85.5t-81.5 30.5q-33 0 -69.5 -13.5t-99.5 -48.5l-60 -33v142l37 20q65 35 114 49.5t100 14.5q72 0 127 -30.5t86.5 -85.5t31.5 -127q0 -88 -42.5 -143t-137.5 -98l-30 -13v-253h-150z" />
    <glyph glyph-name="uni0295" unicode="&#x295;" horiz-adv-x="500" 
d="M226 0v253l-30 13q-95 43 -137.5 98t-42.5 143q0 72 31.5 127t87 85.5t126.5 30.5q51 0 100 -14.5t114 -49.5l37 -20v-142l-60 33q-62 35 -99 48.5t-70 13.5q-50 0 -81.5 -30.5t-31.5 -85.5q0 -52 32 -85t104 -63l70 -29v-326h-150z" />
    <glyph glyph-name="uni0298" unicode="&#x298;" horiz-adv-x="814" 
d="M407 -15q-109 0 -192 43.5t-129.5 120.5t-46.5 178v26q0 101 46.5 178t129.5 120.5t192 43.5t192 -43.5t129.5 -120.5t46.5 -178v-26q0 -101 -46.5 -178t-129.5 -120.5t-192 -43.5zM407 108q99 0 154 61.5t55 163.5v14q0 103 -55 164t-154 61t-154 -61t-55 -164v-14
q0 -102 55 -163.5t154 -61.5zM331 263v154h153v-154h-153z" />
    <glyph glyph-name="uni029D" unicode="&#x29d;" horiz-adv-x="280" 
d="M224 739v-147h-168v147h168zM305 -39v-73l-93 33v-7q-17 -124 -163 -124q-69 0 -108.5 29.5t-39.5 83.5q0 56 38.5 86.5t109.5 30.5q7 0 16 -1v499h150v-527zM83 -48q-13 2 -27 2q-62 0 -62 -48q0 -19 12 -30t34 -11q43 0 43 54v33z" />
    <glyph glyph-name="uni02BB" unicode="&#x2bb;" horiz-adv-x="267" 
d="M25 455l97 285h120l-67 -285h-150z" />
    <glyph glyph-name="uni02BC" unicode="&#x2bc;" horiz-adv-x="262" 
d="M31 455l67 285h150l-97 -285h-120z" />
    <glyph glyph-name="uni02BE" unicode="&#x2be;" horiz-adv-x="247" 
d="M38 514v77h9q32 0 50.5 18.5t18.5 54.5q0 72 -69 72h-10v77h10q76 0 119.5 -38.5t43.5 -107.5v-7q0 -68 -44 -107t-119 -39h-9z" />
    <glyph glyph-name="uni02BF" unicode="&#x2bf;" horiz-adv-x="247" 
d="M200 514q-76 0 -119.5 38.5t-43.5 107.5v7q0 68 44 107t119 39h9v-77h-9q-32 0 -50.5 -18.5t-18.5 -54.5q0 -72 69 -72h10v-77h-10z" />
    <glyph glyph-name="uni02C0" unicode="&#x2c0;" horiz-adv-x="324" 
d="M95 492v108l52 21q34 14 46.5 28.5t12.5 36.5q0 23 -12.5 36.5t-33.5 13.5q-17 0 -37 -7.5t-63 -30.5l-35 -18v81l21 12q72 40 127 40q56 0 92 -34.5t36 -89.5q0 -45 -22.5 -72t-81.5 -51l-13 -6v-68h-89z" />
    <glyph glyph-name="circumflex" unicode="&#x2c6;" horiz-adv-x="446" 
d="M20 580l138 180h125l139 -180h-120l-81 87l-81 -87h-120z" />
    <glyph glyph-name="caron" unicode="&#x2c7;" horiz-adv-x="446" 
d="M158 580l-138 180h120l81 -87l81 87h120l-138 -180h-126z" />
    <glyph glyph-name="uni02C9" unicode="&#x2c9;" horiz-adv-x="440" 
d="M-196 606v105h396v-105h-396z" />
    <glyph glyph-name="uni02CA" unicode="&#x2ca;" horiz-adv-x="313" 
d="M-67 580l118 180h148l-142 -180h-124z" />
    <glyph glyph-name="uni02CB" unicode="&#x2cb;" horiz-adv-x="313" 
d="M-51 580l-142 180h148l118 -180h-124z" />
    <glyph glyph-name="uni02D7" unicode="&#x2d7;" horiz-adv-x="381" 
d="M33 217v141h315v-141h-315z" />
    <glyph glyph-name="breve" unicode="&#x2d8;" horiz-adv-x="413" 
d="M205 579q-69 0 -112 36.5t-65 113.5l-7 28h104l4 -15q19 -63 76 -63q30 0 48 15t28 48l4 15h104l-7 -28q-22 -77 -65 -113.5t-112 -36.5z" />
    <glyph glyph-name="dotaccent" unicode="&#x2d9;" horiz-adv-x="211" 
d="M20 592v147h167v-147h-167z" />
    <glyph glyph-name="ring" unicode="&#x2da;" horiz-adv-x="313" 
d="M155 575q-59 0 -96.5 33.5t-37.5 86.5v5q0 53 37.5 86.5t96.5 33.5t97 -33.5t38 -86.5v-5q0 -53 -38 -86.5t-97 -33.5zM155 641q26 0 40.5 15.5t14.5 41.5q0 25 -14.5 40.5t-40.5 15.5q-25 0 -39.5 -15.5t-14.5 -41.5q0 -25 14.5 -40.5t39.5 -15.5z" />
    <glyph glyph-name="ogonek" unicode="&#x2db;" horiz-adv-x="268" 
d="M119 -227q-44 0 -71 25t-27 65q0 35 18 60t66 57l76 54l64 -34l-81 -58q-29 -21 -39 -33t-10 -27q0 -30 31 -30q19 0 50 15l39 19v-80l-21 -9q-54 -24 -95 -24z" />
    <glyph glyph-name="tilde" unicode="&#x2dc;" horiz-adv-x="440" 
d="M302 582q-18 0 -35.5 6t-44.5 21l-34 19q-23 13 -36 13q-12 0 -19 -7.5t-13 -28.5l-6 -20h-94l11 41q17 62 41.5 89.5t62.5 27.5q17 0 34 -5.5t46 -21.5l34 -19q23 -14 36 -14q12 0 19 8t13 28l6 21h94l-11 -41q-17 -63 -41.5 -90t-62.5 -27z" />
    <glyph glyph-name="hungarumlaut" unicode="&#x2dd;" horiz-adv-x="518" 
d="M227 580l125 180h142l-147 -180h-120zM20 580l116 180h142l-139 -180h-119z" />
    <glyph glyph-name="uni02EE" unicode="&#x2ee;" horiz-adv-x="452" 
d="M264 431v309h147l-26 -309h-121zM54 431v309h147l-26 -309h-121z" />
    <glyph glyph-name="gravecomb" unicode="&#x300;" 
d="M-54 580l-142 180h148l118 -180h-124z" />
    <glyph glyph-name="acutecomb" unicode="&#x301;" 
d="M-70 580l118 180h148l-142 -180h-124z" />
    <glyph glyph-name="uni0302" unicode="&#x302;" 
d="M-201 580l138 180h125l139 -180h-120l-81 87l-81 -87h-120z" />
    <glyph glyph-name="tildecomb" unicode="&#x303;" 
d="M83 582q-18 0 -35.5 6t-44.5 21l-34 19q-23 13 -36 13q-12 0 -19 -7.5t-13 -28.5l-6 -20h-94l11 41q17 62 41.5 89.5t62.5 27.5q17 0 34 -5.5t46 -21.5l34 -19q23 -14 36 -14q12 0 19 8t13 28l6 21h94l-11 -41q-17 -63 -41.5 -90t-62.5 -27z" />
    <glyph glyph-name="uni0304" unicode="&#x304;" 
d="M-198 606v105h396v-105h-396z" />
    <glyph glyph-name="uni0306" unicode="&#x306;" 
d="M0 579q-69 0 -112 36.5t-65 113.5l-7 28h104l4 -15q19 -63 76 -63q30 0 48 15t28 48l4 15h104l-7 -28q-22 -77 -65 -113.5t-112 -36.5z" />
    <glyph glyph-name="uni0307" unicode="&#x307;" 
d="M-84 592v147h167v-147h-167z" />
    <glyph glyph-name="uni0308" unicode="&#x308;" 
d="M57 594v136h132v-136h-132zM-189 594v136h132v-136h-132z" />
    <glyph glyph-name="hookabovecomb" unicode="&#x309;" 
d="M-50 580l49 39q30 23 30 42q0 25 -29 25q-12 0 -27.5 -5t-41.5 -16l-47 -22v82l27 12q37 17 64 24.5t51 7.5q49 0 77.5 -25.5t28.5 -68.5q0 -44 -52 -84l-15 -11h-115z" />
    <glyph glyph-name="uni030A" unicode="&#x30a;" 
d="M0 575q-59 0 -96.5 33.5t-37.5 86.5v5q0 53 37.5 86.5t96.5 33.5t97 -33.5t38 -86.5v-5q0 -53 -38 -86.5t-97 -33.5zM0 641q26 0 40.5 15.5t14.5 41.5q0 25 -14.5 40.5t-40.5 15.5q-25 0 -39.5 -15.5t-14.5 -41.5q0 -25 14.5 -40.5t39.5 -15.5z" />
    <glyph glyph-name="uni030B" unicode="&#x30b;" 
d="M44 580l125 180h142l-147 -180h-120zM-163 580l116 180h142l-139 -180h-119z" />
    <glyph glyph-name="uni030C" unicode="&#x30c;" 
d="M-63 580l-138 180h120l81 -87l81 87h120l-138 -180h-126z" />
    <glyph glyph-name="uni030D" unicode="&#x30d;" 
d="M-50 580v191h100v-191h-100z" />
    <glyph glyph-name="uni0312" unicode="&#x312;" 
d="M-69 580l61 180h119l-42 -180h-138z" />
    <glyph glyph-name="uni031B" unicode="&#x31b;" 
d="M0 428v90h102q52 0 52 38q0 12 -5 26.5t-19 42.5l-16 30h110l12 -22q20 -35 28 -59.5t8 -45.5q0 -100 -143 -100h-129z" />
    <glyph glyph-name="dotbelowcomb" unicode="&#x323;" 
d="M-83 -203v142h165v-142h-165z" />
    <glyph glyph-name="uni0324" unicode="&#x324;" 
d="M56 -199v133h131v-133h-131zM-187 -199v133h131v-133h-131z" />
    <glyph glyph-name="uni0325" unicode="&#x325;" 
d="M0 -280q-58 0 -96 32.5t-38 82.5v4q0 50 38 82t96 32t96 -32t38 -82v-4q0 -50 -38 -82.5t-96 -32.5zM0 -215q26 0 40 14t14 38t-14 38t-40 14t-40 -14.5t-14 -37.5q0 -24 14 -38t40 -14z" />
    <glyph glyph-name="uni0326" unicode="&#x326;" 
d="M-110 -227l40 174h136l-60 -174h-116z" />
    <glyph glyph-name="uni0327" unicode="&#x327;" 
d="M38 -227q-24 0 -49.5 4.5t-60.5 14.5l-32 10v75l45 -14q32 -10 49 -13.5t32 -3.5q34 0 34 30q0 27 -42 27h-83v51l34 75l72 -2l-30 -68h28q111 0 111 -89q0 -46 -28.5 -71.5t-79.5 -25.5z" />
    <glyph glyph-name="uni0328" unicode="&#x328;" 
d="M-48 -227q-44 0 -71 25t-27 65q0 35 18 60t66 57l76 54l64 -34l-81 -58q-29 -21 -39 -33t-10 -27q0 -30 31 -30q19 0 50 15l39 19v-80l-21 -9q-54 -24 -95 -24z" />
    <glyph glyph-name="uni0329" unicode="&#x329;" 
d="M-50 -237v184h100v-184h-100z" />
    <glyph glyph-name="uni032D" unicode="&#x32d;" 
d="M-199 -223l136 170h125l137 -170h-119l-80 81l-80 -81h-119z" />
    <glyph glyph-name="uni032E" unicode="&#x32e;" 
d="M0 -221q-135 0 -175 141l-7 27h103l4 -15q16 -56 75 -56t75 56l4 15h103l-7 -27q-40 -141 -175 -141z" />
    <glyph glyph-name="uni032F" unicode="&#x32f;" 
d="M-182 -215l7 27q40 141 175 141t175 -141l7 -27h-103l-4 15q-16 55 -75 55t-75 -55l-4 -15h-103z" />
    <glyph glyph-name="uni0330" unicode="&#x330;" 
d="M80 -210q-16 0 -33 5.5t-44 20.5l-34 18q-23 13 -35 13t-19 -7t-13 -28l-6 -19h-93l11 40q17 61 41 87t64 26q16 0 33.5 -5.5t43.5 -20.5l34 -18q23 -13 35 -13t19 7t13 28l6 19h93l-11 -40q-17 -61 -41 -87t-64 -26z" />
    <glyph glyph-name="uni0331" unicode="&#x331;" 
d="M-196 -183v102h392v-102h-392z" />
    <glyph glyph-name="uni0332" unicode="&#x332;" 
d="M-296 -183v102h592v-102h-592z" />
    <glyph glyph-name="uni0394" unicode="&#x394;" horiz-adv-x="729" 
d="M3 0l274 670h175l274 -670h-723zM212 130h299l-150 383z" />
    <glyph glyph-name="uni03A9" unicode="&#x3a9;" horiz-adv-x="840" 
d="M43 0v130h133q-119 104 -119 234v13q0 94 46.5 165.5t128.5 112t188 40.5t188 -40.5t128.5 -112t46.5 -165.5v-13q0 -129 -120 -234h134v-130h-325v116l25 20q120 96 120 216v12q0 91 -53.5 145.5t-143.5 54.5t-143.5 -54.5t-53.5 -145.5v-12q0 -121 120 -216l25 -20
v-116h-325z" />
    <glyph glyph-name="uni03BC" unicode="&#x3bc;" horiz-adv-x="619" 
d="M65 -200v718h150v-315q0 -83 65 -83q24 0 50 14t61 44l13 11v329h150v-518h-148v68l-3 -2q-43 -40 -78.5 -58t-75.5 -18q-28 0 -49 10l17 -200h-152z" />
    <glyph glyph-name="pi" unicode="&#x3c0;" horiz-adv-x="681" 
d="M106 0v395h-90v123h632v-123h-98v-236q0 -18 5 -25.5t18 -7.5q10 0 21.5 4.5t31.5 16.5l22 12v-130l-16 -8q-58 -31 -112 -31q-120 0 -120 137v268h-144v-395h-150z" />
    <glyph glyph-name="uni058F" unicode="&#x58f;" horiz-adv-x="620" 
d="M198 185v71h188v61h-188v71h188v41q0 63 -26 91.5t-82 28.5t-82 -28.5t-26 -91.5v-13h-148v29q0 112 66.5 173.5t189.5 61.5q122 0 188.5 -61.5t66.5 -173.5v-57h60v-71h-60v-61h60v-71h-60v-185h-147v185h-188z" />
    <glyph glyph-name="uni0E3F" unicode="&#xe3f;" horiz-adv-x="620" 
d="M43 15v650h221v95h78v-95q235 -3 235 -178q0 -93 -80 -138q85 -39 85 -144q0 -92 -62.5 -141t-177.5 -49v-95h-78v95h-221zM264 546h-84v-152h84v152zM432 470q0 41 -22 58.5t-68 17.5v-152q47 1 68.5 19t21.5 57zM264 287h-84v-153h84v153zM436 210q0 40 -22.5 58.5
t-71.5 18.5v-153q50 0 72 18t22 58z" />
    <glyph glyph-name="uni1DC4" unicode="&#x1dc4;" 
d="M-182 580v100h218l81 80h118l-145 -180h-272z" />
    <glyph glyph-name="uni1DC5" unicode="&#x1dc5;" 
d="M-85 580l-144 180h118l81 -80h217v-100h-272z" />
    <glyph glyph-name="uni1DC6" unicode="&#x1dc6;" 
d="M111 580l-81 80h-218v100h272l145 -180h-118z" />
    <glyph glyph-name="uni1DC7" unicode="&#x1dc7;" 
d="M-235 580l145 180h272v-100h-217l-82 -80h-118z" />
    <glyph glyph-name="uni1E00" unicode="&#x1e00;" horiz-adv-x="749" 
d="M3 0l284 680h175l284 -680h-164l-61 152h-298l-61 -152h-159zM273 280h197l-99 244zM375 -276q-59 0 -98.5 31t-39.5 81v5q0 50 39.5 81t98.5 31t98.5 -31t39.5 -81v-5q0 -50 -39.5 -81t-98.5 -31zM375 -210q27 0 42.5 12.5t15.5 36.5q0 23 -15.5 35.5t-42.5 12.5
t-42.5 -12.5t-15.5 -36.5q0 -23 15.5 -35.5t42.5 -12.5z" />
    <glyph glyph-name="uni1E01" unicode="&#x1e01;" horiz-adv-x="588" 
d="M195 -10q-77 0 -120.5 39.5t-43.5 109.5q0 74 49 112.5t163 52.5l140 17q-1 43 -18 61.5t-56 18.5q-25 0 -61 -9.5t-101 -34.5l-69 -26v129l38 15q71 28 124.5 40.5t99.5 12.5q188 0 188 -196v-332h-143v70q-53 -42 -98.5 -61t-91.5 -19zM178 157q0 -23 14.5 -36
t39.5 -13q29 0 63.5 16t87.5 53v62l-122 -21q-47 -8 -65 -21.5t-18 -39.5zM287 -280q-58 0 -96 32.5t-38 82.5v4q0 50 38 82t96 32t96 -32t38 -82v-4q0 -50 -38 -82.5t-96 -32.5zM287 -215q26 0 40 14t14 38t-14 38t-40 14t-40 -14.5t-14 -37.5q0 -24 14 -38t40 -14z" />
    <glyph glyph-name="uni1E04" unicode="&#x1e04;" horiz-adv-x="717" 
d="M75 0v680h341q248 0 248 -185q0 -98 -80 -145q90 -42 90 -152q0 -96 -65 -147t-185 -51h-349zM403 554h-174v-154h174q98 0 98 77t-98 77zM413 280h-184v-154h184q98 0 98 77t-98 77zM273 -199v136h163v-136h-163z" />
    <glyph glyph-name="uni1E05" unicode="&#x1e05;" horiz-adv-x="648" 
d="M66 0v740h150v-291q57 43 99 61t84 18q98 0 155.5 -69.5t57.5 -188.5v-21q0 -79 -25.5 -137t-73 -90t-111.5 -32q-45 0 -89 18.5t-99 61.5v-70h-148zM221 185q47 -37 77.5 -53t58.5 -16q47 0 74 36t27 99v17q0 62 -27 98t-74 36q-28 0 -58.5 -15.5t-77.5 -52.5l-5 -4
v-142zM241 -203v142h165v-142h-165z" />
    <glyph glyph-name="uni1E06" unicode="&#x1e06;" horiz-adv-x="717" 
d="M75 0v680h341q248 0 248 -185q0 -98 -80 -145q90 -42 90 -152q0 -96 -65 -147t-185 -51h-349zM403 554h-174v-154h174q98 0 98 77t-98 77zM413 280h-184v-154h184q98 0 98 77t-98 77zM154 -183v101h402v-101h-402z" />
    <glyph glyph-name="uni1E07" unicode="&#x1e07;" horiz-adv-x="648" 
d="M66 0v740h150v-291q57 43 99 61t84 18q98 0 155.5 -69.5t57.5 -188.5v-21q0 -79 -25.5 -137t-73 -90t-111.5 -32q-45 0 -89 18.5t-99 61.5v-70h-148zM221 185q47 -37 77.5 -53t58.5 -16q47 0 74 36t27 99v17q0 62 -27 98t-74 36q-28 0 -58.5 -15.5t-77.5 -52.5l-5 -4
v-142zM128 -183v102h392v-102h-392z" />
    <glyph glyph-name="uni1E0C" unicode="&#x1e0c;" horiz-adv-x="776" 
d="M75 0v680h300q108 0 189.5 -38.5t126.5 -111.5t45 -177v-26q0 -104 -45 -177t-126.5 -111.5t-189.5 -38.5h-300zM373 553h-141v-426h141q92 0 145 52.5t53 153.5v14q0 101 -53 153.5t-145 52.5zM289 -199v136h163v-136h-163z" />
    <glyph glyph-name="uni1E0D" unicode="&#x1e0d;" horiz-adv-x="646" 
d="M248 -10q-98 0 -155.5 70t-57.5 189v21q0 79 26 137t73 89.5t112 31.5q44 0 87.5 -18t97.5 -60v290h150v-740h-148v71q-57 -44 -99.5 -62.5t-85.5 -18.5zM190 251q0 -63 27 -99t74 -36q28 0 58.5 16t77.5 53l4 3v142l-4 4q-47 37 -77.5 52.5t-58.5 15.5q-47 0 -74 -36
t-27 -98v-17zM232 -203v142h165v-142h-165z" />
    <glyph glyph-name="uni1E0E" unicode="&#x1e0e;" horiz-adv-x="776" 
d="M75 0v680h300q108 0 189.5 -38.5t126.5 -111.5t45 -177v-26q0 -104 -45 -177t-126.5 -111.5t-189.5 -38.5h-300zM373 553h-141v-426h141q92 0 145 52.5t53 153.5v14q0 101 -53 153.5t-145 52.5zM170 -183v101h402v-101h-402z" />
    <glyph glyph-name="uni1E0F" unicode="&#x1e0f;" horiz-adv-x="646" 
d="M248 -10q-98 0 -155.5 70t-57.5 189v21q0 79 26 137t73 89.5t112 31.5q44 0 87.5 -18t97.5 -60v290h150v-740h-148v71q-57 -44 -99.5 -62.5t-85.5 -18.5zM190 251q0 -63 27 -99t74 -36q28 0 58.5 16t77.5 53l4 3v142l-4 4q-47 37 -77.5 52.5t-58.5 15.5q-47 0 -74 -36
t-27 -98v-17zM119 -183v102h392v-102h-392z" />
    <glyph glyph-name="uni1E10" unicode="&#x1e10;" horiz-adv-x="776" 
d="M75 0v680h300q108 0 189.5 -38.5t126.5 -111.5t45 -177v-26q0 -104 -45 -177t-126.5 -111.5t-189.5 -38.5h-300zM373 553h-141v-426h141q92 0 145 52.5t53 153.5v14q0 101 -53 153.5t-145 52.5zM261 -227l40 174h137l-60 -174h-117z" />
    <glyph glyph-name="uni1E11" unicode="&#x1e11;" horiz-adv-x="646" 
d="M248 -10q-98 0 -155.5 70t-57.5 189v21q0 79 26 137t73 89.5t112 31.5q44 0 87.5 -18t97.5 -60v290h150v-740h-148v71q-57 -44 -99.5 -62.5t-85.5 -18.5zM190 251q0 -63 27 -99t74 -36q28 0 58.5 16t77.5 53l4 3v142l-4 4q-47 37 -77.5 52.5t-58.5 15.5q-47 0 -74 -36
t-27 -98v-17zM205 -227l40 174h136l-60 -174h-116z" />
    <glyph glyph-name="uni1E12" unicode="&#x1e12;" horiz-adv-x="776" 
d="M75 0v680h300q108 0 189.5 -38.5t126.5 -111.5t45 -177v-26q0 -104 -45 -177t-126.5 -111.5t-189.5 -38.5h-300zM373 553h-141v-426h141q92 0 145 52.5t53 153.5v14q0 101 -53 153.5t-145 52.5zM169 -198l139 145h125l140 -145h-120l-82 65l-82 -65h-120z" />
    <glyph glyph-name="uni1E13" unicode="&#x1e13;" horiz-adv-x="646" 
d="M248 -10q-98 0 -155.5 70t-57.5 189v21q0 79 26 137t73 89.5t112 31.5q44 0 87.5 -18t97.5 -60v290h150v-740h-148v71q-57 -44 -99.5 -62.5t-85.5 -18.5zM190 251q0 -63 27 -99t74 -36q28 0 58.5 16t77.5 53l4 3v142l-4 4q-47 37 -77.5 52.5t-58.5 15.5q-47 0 -74 -36
t-27 -98v-17zM116 -223l136 170h125l137 -170h-119l-80 81l-80 -81h-119z" />
    <glyph glyph-name="uni1E1A" unicode="&#x1e1a;" horiz-adv-x="653" 
d="M75 0v680h526v-130h-372v-146h357v-128h-357v-146h372v-130h-526zM430 -206q-19 0 -37 6t-44 18l-42 20q-11 5 -19.5 8t-15.5 3q-12 0 -20 -7.5t-14 -26.5l-5 -18h-93l10 38q16 58 39.5 83t62.5 25q19 0 37 -6t45 -18l41 -20q25 -11 35 -11q13 0 20.5 7.5t13.5 26.5l6 18
h93l-11 -38q-16 -60 -39.5 -84t-62.5 -24z" />
    <glyph glyph-name="uni1E1B" unicode="&#x1e1b;" horiz-adv-x="592" 
d="M278 -10q-74 0 -128.5 31t-84.5 87.5t-30 134.5v24q0 79 33 138t92.5 91t139.5 32q119 0 186.5 -64t67.5 -177v-67h-368q11 -104 116 -104q36 0 73.5 9t90.5 31l70 27v-129l-45 -18q-57 -24 -107 -35t-106 -11zM297 415q-96 0 -110 -103h219q-11 103 -109 103zM376 -210
q-16 0 -33 5.5t-44 20.5l-34 18q-23 13 -35 13t-19 -7t-13 -28l-6 -19h-93l11 40q17 61 41 87t64 26q16 0 33.5 -5.5t43.5 -20.5l34 -18q23 -13 35 -13t19 7t13 28l6 19h93l-11 -40q-17 -61 -41 -87t-64 -26z" />
    <glyph glyph-name="uni1E20" unicode="&#x1e20;" horiz-adv-x="757" 
d="M364 -15q-99 0 -172 42.5t-113 120t-40 182.5v20q0 105 42 182.5t118.5 120t178.5 42.5q57 0 117 -15t144 -48l52 -21v-146l-109 44q-50 20 -85 32t-62 17.5t-54 5.5q-83 0 -129.5 -57.5t-46.5 -160.5v-12q0 -106 43 -162t125 -56q44 0 87 13.5t95 43.5v97h-178v124h330
v-285l-38 -22q-168 -102 -305 -102zM201 748v104h406v-104h-406z" />
    <glyph glyph-name="uni1E21" unicode="&#x1e21;" horiz-adv-x="653" 
d="M244 14q-62 0 -109.5 31t-73.5 87t-26 131v15q0 77 26 133t74 86.5t112 30.5q43 0 87.5 -20.5t105.5 -70.5v81h148v-498q0 -112 -60 -171t-176 -59q-54 0 -110.5 13t-124.5 39l-50 19v137l73 -31q63 -27 107.5 -39t82.5 -12q108 0 108 118v69q-60 -49 -104.5 -69
t-89.5 -20zM190 265q0 -60 25.5 -93.5t71.5 -33.5q26 0 59 17.5t81 55.5l11 10v98l-11 10q-48 38 -81 55.5t-59 17.5q-47 0 -72 -32.5t-25 -93.5v-11zM116 606v105h396v-105h-396z" />
    <glyph glyph-name="uni1E22" unicode="&#x1e22;" horiz-adv-x="778" 
d="M75 0v680h157v-275h314v275h157v-680h-157v275h-314v-275h-157zM304 730v140h165v-140h-165z" />
    <glyph glyph-name="uni1E23" unicode="&#x1e23;" horiz-adv-x="626" 
d="M66 0v740h150v-295q52 44 95.5 63.5t89.5 19.5q77 0 121 -51t44 -142v-335h-150v309q0 43 -18.5 66.5t-51.5 23.5q-25 0 -52 -14t-67 -48l-11 -9v-328h-150zM57 790v140h165v-140h-165z" />
    <glyph glyph-name="uni1E24" unicode="&#x1e24;" horiz-adv-x="778" 
d="M75 0v680h157v-275h314v275h157v-680h-157v275h-314v-275h-157zM306 -199v136h163v-136h-163z" />
    <glyph glyph-name="uni1E25" unicode="&#x1e25;" horiz-adv-x="626" 
d="M66 0v740h150v-295q52 44 95.5 63.5t89.5 19.5q77 0 121 -51t44 -142v-335h-150v309q0 43 -18.5 66.5t-51.5 23.5q-25 0 -52 -14t-67 -48l-11 -9v-328h-150zM233 -203v142h165v-142h-165z" />
    <glyph glyph-name="uni1E26" unicode="&#x1e26;" horiz-adv-x="778" 
d="M75 0v680h157v-275h314v275h157v-680h-157v275h-314v-275h-157zM448 734v132h132v-132h-132zM196 734v132h132v-132h-132z" />
    <glyph glyph-name="uni1E27" unicode="&#x1e27;" horiz-adv-x="626" 
d="M66 0v740h150v-295q52 44 95.5 63.5t89.5 19.5q77 0 121 -51t44 -142v-335h-150v309q0 43 -18.5 66.5t-51.5 23.5q-25 0 -52 -14t-67 -48l-11 -9v-328h-150zM201 794v132h132v-132h-132zM-51 794v132h132v-132h-132z" />
    <glyph glyph-name="uni1E28" unicode="&#x1e28;" horiz-adv-x="779" 
d="M76 0v680h157v-275h314v275h157v-680h-157v275h-314v-275h-157zM193 -227q-23 0 -49 4.5t-63 14.5l-34 10v75l47 -14q56 -17 83 -17q35 0 35 30q0 27 -43 27h-86v40l44 86l75 -2l-34 -68h22q115 0 115 -89q0 -46 -29.5 -71.5t-82.5 -25.5z" />
    <glyph glyph-name="uni1E29" unicode="&#x1e29;" horiz-adv-x="626" 
d="M66 0v740h150v-295q52 44 95.5 63.5t89.5 19.5q77 0 121 -51t44 -142v-335h-150v309q0 43 -18.5 66.5t-51.5 23.5q-25 0 -52 -14t-67 -48l-11 -9v-328h-150zM182 -227q-24 0 -49.5 4.5t-60.5 14.5l-32 10v75l45 -14q32 -10 49 -13.5t32 -3.5q34 0 34 30q0 27 -42 27h-83
v51l34 75l72 -2l-30 -68h28q111 0 111 -89q0 -46 -28.5 -71.5t-79.5 -25.5z" />
    <glyph glyph-name="uni1E2A" unicode="&#x1e2a;" horiz-adv-x="778" 
d="M75 0v680h157v-275h314v275h157v-680h-157v275h-314v-275h-157zM388 -203q-141 0 -180 119l-7 23h103l4 -9q15 -41 80 -41t80 41l4 9h103l-7 -23q-39 -119 -180 -119z" />
    <glyph glyph-name="uni1E2B" unicode="&#x1e2b;" horiz-adv-x="626" 
d="M66 0v740h150v-295q52 44 95.5 63.5t89.5 19.5q77 0 121 -51t44 -142v-335h-150v309q0 43 -18.5 66.5t-51.5 23.5q-25 0 -52 -14t-67 -48l-11 -9v-328h-150zM316 -221q-135 0 -175 141l-7 27h103l4 -15q16 -56 75 -56t75 56l4 15h103l-7 -27q-40 -141 -175 -141z" />
    <glyph glyph-name="uni1E2C" unicode="&#x1e2c;" horiz-adv-x="307" 
d="M76 0v680h157v-680h-157zM226 -210q-17 0 -33 6.5t-39 21.5l-24 16q-20 13 -31 13t-18 -7t-13 -28l-6 -19h-93l12 40q19 62 42 87.5t62 25.5q30 0 73 -29l23 -15q20 -13 31 -13q12 0 18.5 7t12.5 28l6 19h93l-12 -40q-19 -62 -42 -87.5t-62 -25.5z" />
    <glyph glyph-name="uni1E2D" unicode="&#x1e2d;" horiz-adv-x="280" 
d="M56 592v147h168v-147h-168zM65 0v518h150v-518h-150zM210 -210q-17 0 -33 6.5t-39 21.5l-24 16q-20 13 -31 13t-18 -7t-13 -28l-6 -19h-93l12 40q19 62 42 87.5t62 25.5q30 0 73 -29l23 -15q20 -13 31 -13q12 0 18.5 7t12.5 28l6 19h93l-12 -40q-19 -62 -42 -87.5
t-62 -25.5z" />
    <glyph glyph-name="uni1E2E" unicode="&#x1e2e;" horiz-adv-x="307" 
d="M76 0v680h157v-680h-157zM213 729v126h131v-126h-131zM-36 729v126h131v-126h-131zM75 889l124 140h153l-147 -140h-130z" />
    <glyph glyph-name="uni1E2F" unicode="&#x1e2f;" horiz-adv-x="280" 
d="M63 0v518h150v-518h-150zM182 594v136h129v-136h-129zM-31 594v136h129v-136h-129zM52 766l116 163h145l-139 -163h-122z" />
    <glyph glyph-name="uni1E32" unicode="&#x1e32;" horiz-adv-x="720" 
d="M75 0v680h157v-300l285 300h201l-300 -294l310 -386h-196l-230 289l-70 -69v-220h-157zM300 -199v136h163v-136h-163z" />
    <glyph glyph-name="uni1E33" unicode="&#x1e33;" horiz-adv-x="610" 
d="M66 0v740h150v-435l214 213h179l-231 -220l241 -298h-188l-159 209l-56 -55v-154h-150zM240 -203v142h165v-142h-165z" />
    <glyph glyph-name="uni1E34" unicode="&#x1e34;" horiz-adv-x="720" 
d="M75 0v680h157v-300l285 300h201l-300 -294l310 -386h-196l-230 289l-70 -69v-220h-157zM181 -183v101h402v-101h-402z" />
    <glyph glyph-name="uni1E35" unicode="&#x1e35;" horiz-adv-x="610" 
d="M66 0v740h150v-435l214 213h179l-231 -220l241 -298h-188l-159 209l-56 -55v-154h-150zM127 -183v102h392v-102h-392z" />
    <glyph glyph-name="uni1E36" unicode="&#x1e36;" horiz-adv-x="615" 
d="M75 0v680h157v-550h365v-130h-522zM260 -199v136h163v-136h-163z" />
    <glyph glyph-name="uni1E37" unicode="&#x1e37;" horiz-adv-x="324" 
d="M183 -10q-121 0 -121 137v613h150v-581q0 -18 5.5 -25.5t17.5 -7.5q17 0 53 21l23 12v-130l-17 -8q-59 -31 -111 -31zM107 -203v142h165v-142h-165z" />
    <glyph glyph-name="uni1E3A" unicode="&#x1e3a;" horiz-adv-x="615" 
d="M75 0v680h157v-550h365v-130h-522zM141 -183v101h402v-101h-402z" />
    <glyph glyph-name="uni1E3B" unicode="&#x1e3b;" horiz-adv-x="324" 
d="M183 -10q-121 0 -121 137v613h150v-581q0 -18 5.5 -25.5t17.5 -7.5q17 0 53 21l23 12v-130l-17 -8q-59 -31 -111 -31zM44 -183v102h292v-102h-292z" />
    <glyph glyph-name="uni1E3C" unicode="&#x1e3c;" horiz-adv-x="615" 
d="M75 0v680h157v-550h365v-130h-522zM140 -198l139 145h125l140 -145h-120l-82 65l-82 -65h-120z" />
    <glyph glyph-name="uni1E3D" unicode="&#x1e3d;" horiz-adv-x="324" 
d="M183 -10q-121 0 -121 137v613h150v-581q0 -18 5.5 -25.5t17.5 -7.5q17 0 53 21l23 12v-130l-17 -8q-59 -31 -111 -31zM4 -223l126 170h119l127 -170h-116l-70 77l-70 -77h-116z" />
    <glyph glyph-name="uni1E3E" unicode="&#x1e3e;" horiz-adv-x="897" 
d="M75 0v680h177l199 -413l197 413h174v-680h-154l4 447l-167 -367h-118l-167 359l4 -439h-149zM374 725l126 150h154l-148 -150h-132z" />
    <glyph glyph-name="uni1E3F" unicode="&#x1e3f;" horiz-adv-x="908" 
d="M65 0v518h148v-69q55 45 92 62t79 17q93 0 126 -89l3 3q58 49 97 67.5t82 18.5q75 0 115.5 -49.5t40.5 -140.5v-338h-150v313q0 86 -55 86q-20 0 -41.5 -12t-65.5 -50l-5 -3v-334h-150v313q0 86 -54 86q-20 0 -41.5 -12t-66.5 -50l-4 -3v-334h-150zM386 580l118 180h148
l-142 -180h-124z" />
    <glyph glyph-name="uni1E40" unicode="&#x1e40;" horiz-adv-x="897" 
d="M75 0v680h177l199 -413l197 413h174v-680h-154l4 447l-167 -367h-118l-167 359l4 -439h-149zM364 730v140h165v-140h-165z" />
    <glyph glyph-name="uni1E41" unicode="&#x1e41;" horiz-adv-x="908" 
d="M65 0v518h148v-69q55 45 92 62t79 17q93 0 126 -89l3 3q58 49 97 67.5t82 18.5q75 0 115.5 -49.5t40.5 -140.5v-338h-150v313q0 86 -55 86q-20 0 -41.5 -12t-65.5 -50l-5 -3v-334h-150v313q0 86 -54 86q-20 0 -41.5 -12t-66.5 -50l-4 -3v-334h-150zM372 592v147h167v-147
h-167z" />
    <glyph glyph-name="uni1E42" unicode="&#x1e42;" horiz-adv-x="897" 
d="M75 0v680h177l199 -413l197 413h174v-680h-154l4 447l-167 -367h-118l-167 359l4 -439h-149zM366 -199v136h163v-136h-163z" />
    <glyph glyph-name="uni1E43" unicode="&#x1e43;" horiz-adv-x="908" 
d="M65 0v518h148v-69q55 45 92 62t79 17q93 0 126 -89l3 3q58 49 97 67.5t82 18.5q75 0 115.5 -49.5t40.5 -140.5v-338h-150v313q0 86 -55 86q-20 0 -41.5 -12t-65.5 -50l-5 -3v-334h-150v313q0 86 -54 86q-20 0 -41.5 -12t-66.5 -50l-4 -3v-334h-150zM374 -203v142h165
v-142h-165z" />
    <glyph glyph-name="uni1E44" unicode="&#x1e44;" horiz-adv-x="780" 
d="M557 680h148v-680h-161l-320 449v-449h-149v680h163l319 -449v449zM305 730v140h165v-140h-165z" />
    <glyph glyph-name="uni1E45" unicode="&#x1e45;" horiz-adv-x="625" 
d="M65 0v518h148v-76l3 3q52 44 95 63.5t89 19.5q77 0 121 -51t44 -142v-335h-150v309q0 43 -18.5 66.5t-52.5 23.5q-24 0 -51 -14t-65 -47l-13 -10v-328h-150zM230 592v147h167v-147h-167z" />
    <glyph glyph-name="uni1E46" unicode="&#x1e46;" horiz-adv-x="780" 
d="M557 680h148v-680h-161l-320 449v-449h-149v680h163l319 -449v449zM316 -199v136h163v-136h-163z" />
    <glyph glyph-name="uni1E47" unicode="&#x1e47;" horiz-adv-x="625" 
d="M65 0v518h148v-76l3 3q52 44 95 63.5t89 19.5q77 0 121 -51t44 -142v-335h-150v309q0 43 -18.5 66.5t-52.5 23.5q-24 0 -51 -14t-65 -47l-13 -10v-328h-150zM232 -203v142h165v-142h-165z" />
    <glyph glyph-name="uni1E48" unicode="&#x1e48;" horiz-adv-x="780" 
d="M557 680h148v-680h-161l-320 449v-449h-149v680h163l319 -449v449zM197 -183v101h402v-101h-402z" />
    <glyph glyph-name="uni1E49" unicode="&#x1e49;" horiz-adv-x="625" 
d="M65 0v518h148v-76l3 3q52 44 95 63.5t89 19.5q77 0 121 -51t44 -142v-335h-150v309q0 43 -18.5 66.5t-52.5 23.5q-24 0 -51 -14t-65 -47l-13 -10v-328h-150zM119 -183v102h392v-102h-392z" />
    <glyph glyph-name="uni1E4A" unicode="&#x1e4a;" horiz-adv-x="780" 
d="M557 680h148v-680h-161l-320 449v-449h-149v680h163l319 -449v449zM196 -198l139 145h125l140 -145h-120l-82 65l-82 -65h-120z" />
    <glyph glyph-name="uni1E4B" unicode="&#x1e4b;" horiz-adv-x="625" 
d="M65 0v518h148v-76l3 3q52 44 95 63.5t89 19.5q77 0 121 -51t44 -142v-335h-150v309q0 43 -18.5 66.5t-52.5 23.5q-24 0 -51 -14t-65 -47l-13 -10v-328h-150zM116 -223l136 170h125l137 -170h-119l-80 81l-80 -81h-119z" />
    <glyph glyph-name="uni1E4C" unicode="&#x1e4c;" horiz-adv-x="804" 
d="M402 -15q-108 0 -189.5 43t-127.5 120t-46 179v26q0 102 46 179t127.5 120t189.5 43t189.5 -43t127.5 -120t46 -179v-26q0 -102 -46 -179t-127.5 -120t-189.5 -43zM402 116q92 0 144.5 58.5t52.5 158.5v14q0 101 -52.5 159t-144.5 58t-144.5 -58t-52.5 -159v-14
q0 -100 52.5 -158.5t144.5 -58.5zM203 725l10 37q16 55 39 78.5t61 23.5q17 0 35 -4.5t47 -18.5l40 -19q24 -11 35 -11q13 0 20 7.5t13 25.5l6 17h91l-10 -37q-16 -54 -39 -78t-61 -24q-18 0 -35 4.5t-47 18.5l-40 20q-22 10 -35 10q-23 0 -33 -33l-6 -17h-91zM323 897
l124 140h153l-147 -140h-130z" />
    <glyph glyph-name="uni1E4D" unicode="&#x1e4d;" horiz-adv-x="627" 
d="M313 -10q-85 0 -147.5 31t-96.5 89t-34 136v25q0 79 34 137t96.5 89t147.5 31q86 0 148 -31t96 -89t34 -137v-25q0 -78 -34 -136t-96 -89t-148 -31zM313 112q60 0 92 35.5t32 100.5v21q0 65 -32 101t-92 36q-59 0 -91.5 -36t-32.5 -101v-21q0 -65 32.5 -100.5t91.5 -35.5
zM392 572q-15 0 -32.5 5.5t-43.5 18.5l-33 18q-24 13 -36 13q-21 0 -31 -33l-6 -19h-92l11 37q18 60 41.5 85t62.5 25q16 0 33 -5t43 -19l33 -18q25 -13 36 -13q12 0 18.5 7.5t12.5 25.5l6 19h92l-11 -38q-17 -59 -41 -84t-63 -25zM225 755l116 163h145l-139 -163h-122z" />
    <glyph glyph-name="uni1E4E" unicode="&#x1e4e;" horiz-adv-x="804" 
d="M402 -15q-108 0 -189.5 43t-127.5 120t-46 179v26q0 102 46 179t127.5 120t189.5 43t189.5 -43t127.5 -120t46 -179v-26q0 -102 -46 -179t-127.5 -120t-189.5 -43zM402 116q92 0 144.5 58.5t52.5 158.5v14q0 101 -52.5 159t-144.5 58t-144.5 -58t-52.5 -159v-14
q0 -100 52.5 -158.5t144.5 -58.5zM203 725l10 37q16 55 39 78.5t61 23.5q17 0 35 -4.5t47 -18.5l40 -19q24 -11 35 -11q13 0 20 7.5t13 25.5l6 17h91l-10 -37q-16 -54 -39 -78t-61 -24q-18 0 -35 4.5t-47 18.5l-40 20q-22 10 -35 10q-23 0 -33 -33l-6 -17h-91zM461 901v126
h131v-126h-131zM212 901v126h131v-126h-131z" />
    <glyph glyph-name="uni1E4F" unicode="&#x1e4f;" horiz-adv-x="627" 
d="M313 -10q-85 0 -147.5 31t-96.5 89t-34 136v25q0 79 34 137t96.5 89t147.5 31q86 0 148 -31t96 -89t34 -137v-25q0 -78 -34 -136t-96 -89t-148 -31zM313 112q60 0 92 35.5t32 100.5v21q0 65 -32 101t-92 36q-59 0 -91.5 -36t-32.5 -101v-21q0 -65 32.5 -100.5t91.5 -35.5
zM392 572q-15 0 -32.5 5.5t-43.5 18.5l-33 18q-24 13 -36 13q-21 0 -31 -33l-6 -19h-92l11 37q18 60 41.5 85t62.5 25q16 0 33 -5t43 -19l33 -18q25 -13 36 -13q12 0 18.5 7.5t12.5 25.5l6 19h92l-11 -38q-17 -59 -41 -84t-63 -25zM369 766v131h130v-131h-130zM127 766v131
h130v-131h-130z" />
    <glyph glyph-name="uni1E50" unicode="&#x1e50;" horiz-adv-x="804" 
d="M402 -15q-108 0 -189.5 43t-127.5 120t-46 179v26q0 102 46 179t127.5 120t189.5 43t189.5 -43t127.5 -120t46 -179v-26q0 -102 -46 -179t-127.5 -120t-189.5 -43zM402 116q92 0 144.5 58.5t52.5 158.5v14q0 101 -52.5 159t-144.5 58t-144.5 -58t-52.5 -159v-14
q0 -100 52.5 -158.5t144.5 -58.5zM201 743v97h402v-97h-402zM351 895l-147 140h153l124 -140h-130z" />
    <glyph glyph-name="uni1E51" unicode="&#x1e51;" horiz-adv-x="627" 
d="M313 -10q-85 0 -147.5 31t-96.5 89t-34 136v25q0 79 34 137t96.5 89t147.5 31q86 0 148 -31t96 -89t34 -137v-25q0 -78 -34 -136t-96 -89t-148 -31zM313 112q60 0 92 35.5t32 100.5v21q0 65 -32 101t-92 36q-59 0 -91.5 -36t-32.5 -101v-21q0 -65 32.5 -100.5t91.5 -35.5
zM118 598v98h389v-98h-389zM279 737l-139 163h145l116 -163h-122z" />
    <glyph glyph-name="uni1E52" unicode="&#x1e52;" horiz-adv-x="804" 
d="M402 -15q-108 0 -189.5 43t-127.5 120t-46 179v26q0 102 46 179t127.5 120t189.5 43t189.5 -43t127.5 -120t46 -179v-26q0 -102 -46 -179t-127.5 -120t-189.5 -43zM402 116q92 0 144.5 58.5t52.5 158.5v14q0 101 -52.5 159t-144.5 58t-144.5 -58t-52.5 -159v-14
q0 -100 52.5 -158.5t144.5 -58.5zM201 743v97h402v-97h-402zM323 895l124 140h153l-147 -140h-130z" />
    <glyph glyph-name="uni1E53" unicode="&#x1e53;" horiz-adv-x="627" 
d="M313 -10q-85 0 -147.5 31t-96.5 89t-34 136v25q0 79 34 137t96.5 89t147.5 31q86 0 148 -31t96 -89t34 -137v-25q0 -78 -34 -136t-96 -89t-148 -31zM313 112q60 0 92 35.5t32 100.5v21q0 65 -32 101t-92 36q-59 0 -91.5 -36t-32.5 -101v-21q0 -65 32.5 -100.5t91.5 -35.5
zM118 598v98h389v-98h-389zM225 737l116 163h145l-139 -163h-122z" />
    <glyph glyph-name="uni1E58" unicode="&#x1e58;" horiz-adv-x="730" 
d="M75 0v680h358q119 0 182 -53.5t63 -160.5q0 -72 -35.5 -119t-97.5 -70l167 -277h-178l-144 247h-160v-247h-155zM230 375h183q49 0 75 23t26 66q0 88 -101 88h-183v-177zM278 730v140h165v-140h-165z" />
    <glyph glyph-name="uni1E59" unicode="&#x1e59;" horiz-adv-x="428" 
d="M65 0v518h148v-91l29 21q58 42 95 59.5t74 20.5v-148q-46 -4 -85.5 -16.5t-87.5 -38.5l-23 -13v-312h-150zM154 592v147h167v-147h-167z" />
    <glyph glyph-name="uni1E5A" unicode="&#x1e5a;" horiz-adv-x="730" 
d="M75 0v680h358q119 0 182 -53.5t63 -160.5q0 -72 -35.5 -119t-97.5 -70l167 -277h-178l-144 247h-160v-247h-155zM230 375h183q49 0 75 23t26 66q0 88 -101 88h-183v-177zM298 -199v136h163v-136h-163z" />
    <glyph glyph-name="uni1E5B" unicode="&#x1e5b;" horiz-adv-x="428" 
d="M65 0v518h148v-91l29 21q58 42 95 59.5t74 20.5v-148q-46 -4 -85.5 -16.5t-87.5 -38.5l-23 -13v-312h-150zM61 -203v142h165v-142h-165z" />
    <glyph glyph-name="uni1E5E" unicode="&#x1e5e;" horiz-adv-x="730" 
d="M75 0v680h358q119 0 182 -53.5t63 -160.5q0 -72 -35.5 -119t-97.5 -70l167 -277h-178l-144 247h-160v-247h-155zM230 375h183q49 0 75 23t26 66q0 88 -101 88h-183v-177zM179 -183v101h402v-101h-402z" />
    <glyph glyph-name="uni1E5F" unicode="&#x1e5f;" horiz-adv-x="428" 
d="M65 0v518h148v-91l29 21q58 42 95 59.5t74 20.5v-148q-46 -4 -85.5 -16.5t-87.5 -38.5l-23 -13v-312h-150zM-2 -183v102h292v-102h-292z" />
    <glyph glyph-name="uni1E60" unicode="&#x1e60;" horiz-adv-x="676" 
d="M395 -15q-76 0 -149.5 18.5t-159.5 58.5l-43 20v150l82 -39q85 -42 147.5 -60.5t114.5 -18.5q44 0 68.5 20t24.5 55q0 30 -21.5 45t-78.5 26l-123 25q-108 21 -155 67t-47 132q0 64 29.5 111.5t84 73.5t128.5 26q59 0 120.5 -14t144.5 -45l50 -19v-144l-82 32
q-58 23 -98.5 36.5t-70.5 19t-58 5.5q-42 0 -66 -18.5t-24 -50.5t19.5 -48t71.5 -25l129 -26q112 -22 158.5 -67t46.5 -132q0 -101 -64.5 -157.5t-178.5 -56.5zM265 730v140h165v-140h-165z" />
    <glyph glyph-name="uni1E61" unicode="&#x1e61;" horiz-adv-x="546" 
d="M319 -9q-50 0 -105.5 13t-129.5 42l-46 18v124l92 -38q115 -48 178 -48q59 0 59 44q0 19 -11.5 28t-41.5 15l-103 18q-86 15 -124.5 52t-38.5 104q0 77 51 121t139 44q43 0 87 -9t110 -32l55 -18v-122l-88 32q-57 21 -90 29.5t-61 8.5q-59 0 -59 -43q0 -19 13 -28.5
t46 -15.5l109 -20q81 -14 116.5 -50t35.5 -103q0 -79 -50.5 -122.5t-142.5 -43.5zM195 592v147h167v-147h-167z" />
    <glyph glyph-name="uni1E62" unicode="&#x1e62;" horiz-adv-x="676" 
d="M395 -15q-76 0 -149.5 18.5t-159.5 58.5l-43 20v150l82 -39q85 -42 147.5 -60.5t114.5 -18.5q44 0 68.5 20t24.5 55q0 30 -21.5 45t-78.5 26l-123 25q-108 21 -155 67t-47 132q0 64 29.5 111.5t84 73.5t128.5 26q59 0 120.5 -14t144.5 -45l50 -19v-144l-82 32
q-58 23 -98.5 36.5t-70.5 19t-58 5.5q-42 0 -66 -18.5t-24 -50.5t19.5 -48t71.5 -25l129 -26q112 -22 158.5 -67t46.5 -132q0 -101 -64.5 -157.5t-178.5 -56.5zM256 -199v136h163v-136h-163z" />
    <glyph glyph-name="uni1E63" unicode="&#x1e63;" horiz-adv-x="546" 
d="M319 -9q-50 0 -105.5 13t-129.5 42l-46 18v124l92 -38q115 -48 178 -48q59 0 59 44q0 19 -11.5 28t-41.5 15l-103 18q-86 15 -124.5 52t-38.5 104q0 77 51 121t139 44q43 0 87 -9t110 -32l55 -18v-122l-88 32q-57 21 -90 29.5t-61 8.5q-59 0 -59 -43q0 -19 13 -28.5
t46 -15.5l109 -20q81 -14 116.5 -50t35.5 -103q0 -79 -50.5 -122.5t-142.5 -43.5zM180 -203v142h165v-142h-165z" />
    <glyph glyph-name="uni1E6C" unicode="&#x1e6c;" horiz-adv-x="663" 
d="M253 0v550h-237v130h631v-130h-237v-550h-157zM251 -199v136h163v-136h-163z" />
    <glyph glyph-name="uni1E6D" unicode="&#x1e6d;" horiz-adv-x="545" 
d="M278 -10q-78 0 -119 43.5t-41 127.5v206h-102v123h102v171h150v-171h244v-123h-244v-177q0 -61 47 -61q21 0 41.5 10.5t57.5 38.5l98 75v-149l-46 -36q-54 -41 -97.5 -59.5t-90.5 -18.5zM199 -203v142h165v-142h-165z" />
    <glyph glyph-name="uni1E6E" unicode="&#x1e6e;" horiz-adv-x="663" 
d="M253 0v550h-237v130h631v-130h-237v-550h-157zM132 -183v101h402v-101h-402z" />
    <glyph glyph-name="uni1E6F" unicode="&#x1e6f;" horiz-adv-x="545" 
d="M278 -10q-78 0 -119 43.5t-41 127.5v206h-102v123h102v171h150v-171h244v-123h-244v-177q0 -61 47 -61q21 0 41.5 10.5t57.5 38.5l98 75v-149l-46 -36q-54 -41 -97.5 -59.5t-90.5 -18.5zM138 -183v102h292v-102h-292z" />
    <glyph glyph-name="uni1E70" unicode="&#x1e70;" horiz-adv-x="663" 
d="M253 0v550h-237v130h631v-130h-237v-550h-157zM131 -198l139 145h125l140 -145h-120l-82 65l-82 -65h-120z" />
    <glyph glyph-name="uni1E71" unicode="&#x1e71;" horiz-adv-x="545" 
d="M278 -10q-78 0 -119 43.5t-41 127.5v206h-102v123h102v171h150v-171h244v-123h-244v-177q0 -61 47 -61q21 0 41.5 10.5t57.5 38.5l98 75v-149l-46 -36q-54 -41 -97.5 -59.5t-90.5 -18.5zM83 -223l136 170h125l137 -170h-119l-80 81l-80 -81h-119z" />
    <glyph glyph-name="uni1E72" unicode="&#x1e72;" horiz-adv-x="782" 
d="M391 -15q-157 0 -240 74t-83 214v407h157v-384q0 -96 39 -138t127 -42t127 42t39 138v384h157v-407q0 -140 -83 -214t-240 -74zM447 -196v129h131v-129h-131zM198 -196v129h131v-129h-131z" />
    <glyph glyph-name="uni1E73" unicode="&#x1e73;" horiz-adv-x="614" 
d="M221 -10q-76 0 -118.5 50t-42.5 141v337h150v-311q0 -87 65 -87q24 0 48.5 13t58.5 42l17 14v329h150v-518h-148v73q-54 -46 -95 -64.5t-85 -18.5zM359 -199v133h131v-133h-131zM116 -199v133h131v-133h-131z" />
    <glyph glyph-name="uni1E74" unicode="&#x1e74;" horiz-adv-x="782" 
d="M391 -15q-157 0 -240 74t-83 214v407h157v-384q0 -96 39 -138t127 -42t127 42t39 138v384h157v-407q0 -140 -83 -214t-240 -74zM477 -206q-19 0 -37 6t-44 18l-42 20q-11 5 -19.5 8t-15.5 3q-12 0 -20 -7.5t-14 -26.5l-5 -18h-93l10 38q16 58 39.5 83t62.5 25q19 0 37 -6
t45 -18l41 -20q25 -11 35 -11q13 0 20.5 7.5t13.5 26.5l6 18h93l-11 -38q-16 -60 -39.5 -84t-62.5 -24z" />
    <glyph glyph-name="uni1E75" unicode="&#x1e75;" horiz-adv-x="614" 
d="M221 -10q-76 0 -118.5 50t-42.5 141v337h150v-311q0 -87 65 -87q24 0 48.5 13t58.5 42l17 14v329h150v-518h-148v73q-54 -46 -95 -64.5t-85 -18.5zM383 -210q-16 0 -33 5.5t-44 20.5l-34 18q-23 13 -35 13t-19 -7t-13 -28l-6 -19h-93l11 40q17 61 41 87t64 26
q16 0 33.5 -5.5t43.5 -20.5l34 -18q23 -13 35 -13t19 7t13 28l6 19h93l-11 -40q-17 -61 -41 -87t-64 -26z" />
    <glyph glyph-name="uni1E78" unicode="&#x1e78;" horiz-adv-x="782" 
d="M391 -15q-157 0 -240 74t-83 214v407h157v-384q0 -96 39 -138t127 -42t127 42t39 138v384h157v-407q0 -140 -83 -214t-240 -74zM192 725l10 37q16 55 39 78.5t61 23.5q17 0 35 -4.5t47 -18.5l40 -19q24 -11 35 -11q13 0 20 7.5t13 25.5l6 17h91l-10 -37q-16 -54 -39 -78
t-61 -24q-18 0 -35 4.5t-47 18.5l-40 20q-22 10 -35 10q-23 0 -33 -33l-6 -17h-91zM312 897l124 140h153l-147 -140h-130z" />
    <glyph glyph-name="uni1E79" unicode="&#x1e79;" horiz-adv-x="614" 
d="M221 -10q-76 0 -118.5 50t-42.5 141v337h150v-311q0 -87 65 -87q24 0 48.5 13t58.5 42l17 14v329h150v-518h-148v73q-54 -46 -95 -64.5t-85 -18.5zM384 572q-15 0 -32.5 5.5t-43.5 18.5l-33 18q-24 13 -36 13q-21 0 -31 -33l-6 -19h-92l11 37q18 60 41.5 85t62.5 25
q16 0 33 -5t43 -19l33 -18q25 -13 36 -13q12 0 18.5 7.5t12.5 25.5l6 19h92l-11 -38q-17 -59 -41 -84t-63 -25zM217 755l116 163h145l-139 -163h-122z" />
    <glyph glyph-name="uni1E7C" unicode="&#x1e7c;" horiz-adv-x="734" 
d="M279 0l-274 680h167l198 -511l197 511h162l-274 -680h-176zM456 722q-19 0 -37.5 5.5t-47.5 19.5l-40 20q-24 11 -37 11q-23 0 -33 -34l-6 -19h-93l10 39q16 58 39.5 83.5t60.5 25.5q33 0 84 -25l41 -20q13 -6 21.5 -8.5t14.5 -2.5q24 0 34 34l6 19h93l-11 -39
q-16 -60 -38.5 -84.5t-60.5 -24.5z" />
    <glyph glyph-name="uni1E7D" unicode="&#x1e7d;" horiz-adv-x="587" 
d="M221 0l-216 518h161l132 -346l130 346h154l-216 -518h-145zM375 582q-18 0 -35.5 6t-44.5 21l-34 19q-23 13 -36 13q-12 0 -19 -7.5t-13 -28.5l-6 -20h-94l11 41q17 62 41.5 89.5t62.5 27.5q17 0 34 -5.5t46 -21.5l34 -19q23 -14 36 -14q12 0 19 8t13 28l6 21h94l-11 -41
q-17 -63 -41.5 -90t-62.5 -27z" />
    <glyph glyph-name="uni1E7E" unicode="&#x1e7e;" horiz-adv-x="734" 
d="M279 0l-274 680h167l198 -511l197 511h162l-274 -680h-176zM285 -199v136h163v-136h-163z" />
    <glyph glyph-name="uni1E7F" unicode="&#x1e7f;" horiz-adv-x="587" 
d="M221 0l-216 518h161l132 -346l130 346h154l-216 -518h-145zM206 -203v142h165v-142h-165z" />
    <glyph glyph-name="Wgrave" unicode="&#x1e80;" horiz-adv-x="949" 
d="M186 0l-169 680h167l103 -459l118 459h155l113 -458l106 458h153l-169 -680h-163l-123 460l-124 -460h-167zM424 725l-148 150h154l126 -150h-132z" />
    <glyph glyph-name="wgrave" unicode="&#x1e81;" horiz-adv-x="812" 
d="M159 0l-148 518h153l85 -331l90 331h144l90 -331l85 331h143l-149 -518h-141l-104 348l-102 -348h-146zM351 580l-142 180h148l118 -180h-124z" />
    <glyph glyph-name="Wacute" unicode="&#x1e82;" horiz-adv-x="949" 
d="M186 0l-169 680h167l103 -459l118 459h155l113 -458l106 458h153l-169 -680h-163l-123 460l-124 -460h-167zM408 725l126 150h154l-148 -150h-132z" />
    <glyph glyph-name="wacute" unicode="&#x1e83;" horiz-adv-x="812" 
d="M159 0l-148 518h153l85 -331l90 331h144l90 -331l85 331h143l-149 -518h-141l-104 348l-102 -348h-146zM335 580l118 180h148l-142 -180h-124z" />
    <glyph glyph-name="Wdieresis" unicode="&#x1e84;" horiz-adv-x="949" 
d="M186 0l-169 680h167l103 -459l118 459h155l113 -458l106 458h153l-169 -680h-163l-123 460l-124 -460h-167zM542 734v132h132v-132h-132zM290 734v132h132v-132h-132z" />
    <glyph glyph-name="wdieresis" unicode="&#x1e85;" horiz-adv-x="812" 
d="M159 0l-148 518h153l85 -331l90 331h144l90 -331l85 331h143l-149 -518h-141l-104 348l-102 -348h-146zM462 594v136h132v-136h-132zM216 594v136h132v-136h-132z" />
    <glyph glyph-name="uni1E8C" unicode="&#x1e8c;" horiz-adv-x="747" 
d="M-9 0l285 348l-270 332h192l180 -224l178 224h186l-271 -330l286 -350h-193l-195 243l-192 -243h-186zM434 734v132h132v-132h-132zM182 734v132h132v-132h-132z" />
    <glyph glyph-name="uni1E8D" unicode="&#x1e8d;" horiz-adv-x="595" 
d="M-6 0l213 263l-199 255h179l114 -157l115 157h170l-199 -248l213 -270h-179l-128 169l-129 -169h-170zM350 594v136h132v-136h-132zM104 594v136h132v-136h-132z" />
    <glyph glyph-name="uni1E8E" unicode="&#x1e8e;" horiz-adv-x="739" 
d="M291 0v253l-286 427h177l192 -293l192 293h168l-286 -427v-253h-157zM289 730v140h165v-140h-165z" />
    <glyph glyph-name="uni1E8F" unicode="&#x1e8f;" horiz-adv-x="587" 
d="M177 -210q-50 0 -98 24l-15 7v134l33 -16q19 -10 31.5 -13.5t22.5 -3.5q17 0 28.5 10.5t23.5 36.5l16 35l-214 514h161l132 -345l130 345h154l-242 -580q-35 -83 -70.5 -115.5t-92.5 -32.5zM205 592v147h167v-147h-167z" />
    <glyph glyph-name="uni1E90" unicode="&#x1e90;" horiz-adv-x="658" 
d="M30 0v116l382 434h-367v130h570v-116l-383 -434h398v-130h-600zM119 725l141 150h125l142 -150h-121l-83 68l-83 -68h-121z" />
    <glyph glyph-name="uni1E91" unicode="&#x1e91;" horiz-adv-x="542" 
d="M29 0v108l278 287h-261v123h452v-107l-278 -288h295v-123h-486zM73 580l138 180h125l139 -180h-120l-81 87l-81 -87h-120z" />
    <glyph glyph-name="uni1E92" unicode="&#x1e92;" horiz-adv-x="658" 
d="M30 0v116l382 434h-367v130h570v-116l-383 -434h398v-130h-600zM241 -199v136h163v-136h-163z" />
    <glyph glyph-name="uni1E93" unicode="&#x1e93;" horiz-adv-x="542" 
d="M29 0v108l278 287h-261v123h452v-107l-278 -288h295v-123h-486zM191 -203v142h165v-142h-165z" />
    <glyph glyph-name="uni1E94" unicode="&#x1e94;" horiz-adv-x="658" 
d="M30 0v116l382 434h-367v130h570v-116l-383 -434h398v-130h-600zM122 -183v101h402v-101h-402z" />
    <glyph glyph-name="uni1E95" unicode="&#x1e95;" horiz-adv-x="542" 
d="M29 0v108l278 287h-261v123h452v-107l-278 -288h295v-123h-486zM78 -183v102h392v-102h-392z" />
    <glyph glyph-name="uni1E96" unicode="&#x1e96;" horiz-adv-x="626" 
d="M66 0v740h150v-295q52 44 95.5 63.5t89.5 19.5q77 0 121 -51t44 -142v-335h-150v309q0 43 -18.5 66.5t-51.5 23.5q-25 0 -52 -14t-67 -48l-11 -9v-328h-150zM120 -183v102h392v-102h-392z" />
    <glyph glyph-name="uni1E97" unicode="&#x1e97;" horiz-adv-x="548" 
d="M281 -10q-78 0 -119 43.5t-41 127.5v206h-102v123h102v171h150v-171h244v-123h-244v-177q0 -61 47 -61q21 0 41.5 10.5t57.5 38.5l98 75v-149l-46 -36q-54 -41 -97.5 -59.5t-90.5 -18.5zM249 723v136h132v-136h-132zM3 723v136h132v-136h-132z" />
    <glyph glyph-name="uni1E9E" unicode="&#x1e9e;" horiz-adv-x="789" 
d="M538 -15q-92 0 -199 49l-36 16v139l63 -30q55 -27 87.5 -37t60.5 -10q34 0 54.5 19t20.5 52q0 34 -21 54.5t-77 35.5l-95 26v105l163 132q-97 28 -163 28q-84 0 -127.5 -41.5t-43.5 -123.5v-399h-157v410q0 136 81 210.5t229 74.5q65 0 135.5 -15t151.5 -44l57 -20v-116
l-155 -124q100 -30 142 -75.5t42 -119.5q0 -91 -57 -143.5t-156 -52.5z" />
    <glyph glyph-name="uni1EA0" unicode="&#x1ea0;" horiz-adv-x="749" 
d="M3 0l284 680h175l284 -680h-164l-61 152h-298l-61 -152h-159zM273 280h197l-99 244zM293 -199v136h163v-136h-163z" />
    <glyph glyph-name="uni1EA1" unicode="&#x1ea1;" horiz-adv-x="588" 
d="M195 -10q-77 0 -120.5 39.5t-43.5 109.5q0 74 49 112.5t163 52.5l140 17q-1 43 -18 61.5t-56 18.5q-25 0 -61 -9.5t-101 -34.5l-69 -26v129l38 15q71 28 124.5 40.5t99.5 12.5q188 0 188 -196v-332h-143v70q-53 -42 -98.5 -61t-91.5 -19zM178 157q0 -23 14.5 -36
t39.5 -13q29 0 63.5 16t87.5 53v62l-122 -21q-47 -8 -65 -21.5t-18 -39.5zM204 -203v142h165v-142h-165z" />
    <glyph glyph-name="uni1EA2" unicode="&#x1ea2;" horiz-adv-x="749" 
d="M3 0l284 680h175l284 -680h-164l-61 152h-298l-61 -152h-159zM273 280h197l-99 244zM325 719l48 36q19 14 26.5 23.5t7.5 20.5q0 24 -29 24q-13 0 -30.5 -4.5t-43.5 -15.5l-52 -22v81l32 13q38 17 67 24t55 7q48 0 77 -25t29 -64q0 -27 -13.5 -47t-42.5 -41l-15 -10h-116
z" />
    <glyph glyph-name="uni1EA3" unicode="&#x1ea3;" horiz-adv-x="588" 
d="M195 -10q-77 0 -120.5 39.5t-43.5 109.5q0 74 49 112.5t163 52.5l140 17q-1 43 -18 61.5t-56 18.5q-25 0 -61 -9.5t-101 -34.5l-69 -26v129l38 15q71 28 124.5 40.5t99.5 12.5q188 0 188 -196v-332h-143v70q-53 -42 -98.5 -61t-91.5 -19zM178 157q0 -23 14.5 -36
t39.5 -13q29 0 63.5 16t87.5 53v62l-122 -21q-47 -8 -65 -21.5t-18 -39.5zM242 580l49 39q30 23 30 42q0 25 -29 25q-12 0 -27.5 -5t-41.5 -16l-47 -22v82l27 12q37 17 64 24.5t51 7.5q49 0 77.5 -25.5t28.5 -68.5q0 -44 -52 -84l-15 -11h-115z" />
    <glyph glyph-name="uni1EA4" unicode="&#x1ea4;" horiz-adv-x="749" 
d="M3 0l284 680h175l284 -680h-164l-61 152h-298l-61 -152h-159zM273 280h197l-99 244zM173 725l139 140h125l140 -140h-120l-82 62l-82 -62h-120zM506 827l124 140h153l-147 -140h-130z" />
    <glyph glyph-name="uni1EA5" unicode="&#x1ea5;" horiz-adv-x="588" 
d="M195 -10q-77 0 -120.5 39.5t-43.5 109.5q0 74 49 112.5t163 52.5l140 17q-1 43 -18 61.5t-56 18.5q-25 0 -61 -9.5t-101 -34.5l-69 -26v129l38 15q71 28 124.5 40.5t99.5 12.5q188 0 188 -196v-332h-143v70q-53 -42 -98.5 -61t-91.5 -19zM178 157q0 -23 14.5 -36
t39.5 -13q29 0 63.5 16t87.5 53v62l-122 -21q-47 -8 -65 -21.5t-18 -39.5zM95 570l135 163h124l135 -163h-118l-79 78l-80 -78h-117zM417 683l116 163h145l-139 -163h-122z" />
    <glyph glyph-name="uni1EA6" unicode="&#x1ea6;" horiz-adv-x="749" 
d="M3 0l284 680h175l284 -680h-164l-61 152h-298l-61 -152h-159zM273 280h197l-99 244zM173 725l139 140h125l140 -140h-120l-82 62l-82 -62h-120zM534 827l-147 140h153l124 -140h-130z" />
    <glyph glyph-name="uni1EA7" unicode="&#x1ea7;" horiz-adv-x="588" 
d="M195 -10q-77 0 -120.5 39.5t-43.5 109.5q0 74 49 112.5t163 52.5l140 17q-1 43 -18 61.5t-56 18.5q-25 0 -61 -9.5t-101 -34.5l-69 -26v129l38 15q71 28 124.5 40.5t99.5 12.5q188 0 188 -196v-332h-143v70q-53 -42 -98.5 -61t-91.5 -19zM178 157q0 -23 14.5 -36
t39.5 -13q29 0 63.5 16t87.5 53v62l-122 -21q-47 -8 -65 -21.5t-18 -39.5zM95 570l135 163h124l135 -163h-118l-79 78l-80 -78h-117zM471 683l-139 163h145l116 -163h-122z" />
    <glyph glyph-name="uni1EA8" unicode="&#x1ea8;" horiz-adv-x="749" 
d="M3 0l284 680h175l284 -680h-164l-61 152h-298l-61 -152h-159zM273 280h197l-99 244zM173 725l139 140h125l140 -140h-120l-82 62l-82 -62h-120zM541 821l47 33q19 13 26.5 22.5t7.5 19.5q0 24 -28 24q-14 0 -30.5 -5t-42.5 -16l-51 -21v78l30 13q39 17 67.5 23.5
t53.5 6.5q47 0 75.5 -22.5t28.5 -61.5q0 -27 -13.5 -45.5t-42.5 -38.5l-13 -10h-115z" />
    <glyph glyph-name="uni1EA9" unicode="&#x1ea9;" horiz-adv-x="588" 
d="M195 -10q-77 0 -120.5 39.5t-43.5 109.5q0 74 49 112.5t163 52.5l140 17q-1 43 -18 61.5t-56 18.5q-25 0 -61 -9.5t-101 -34.5l-69 -26v129l38 15q71 28 124.5 40.5t99.5 12.5q188 0 188 -196v-332h-143v70q-53 -42 -98.5 -61t-91.5 -19zM178 157q0 -23 14.5 -36
t39.5 -13q29 0 63.5 16t87.5 53v62l-122 -21q-47 -8 -65 -21.5t-18 -39.5zM95 570l135 163h124l135 -163h-118l-79 78l-80 -78h-117zM445 686l45 33q19 15 26 24t7 18q0 23 -28 23q-13 0 -28.5 -5t-39.5 -16l-46 -20v79l27 12q67 31 114 31q46 0 73.5 -24.5t27.5 -63.5
q0 -24 -13 -43.5t-38 -37.5l-14 -10h-113z" />
    <glyph glyph-name="uni1EAA" unicode="&#x1eaa;" horiz-adv-x="749" 
d="M3 0l284 680h175l284 -680h-164l-61 152h-298l-61 -152h-159zM273 280h197l-99 244zM173 725l139 140h125l140 -140h-120l-82 62l-82 -62h-120zM176 898l10 37q16 55 39 78.5t61 23.5q17 0 35 -4.5t47 -18.5l40 -19q24 -11 35 -11q13 0 20 7.5t13 25.5l6 17h91l-10 -37
q-16 -54 -39 -78t-61 -24q-18 0 -35 4.5t-47 18.5l-40 20q-22 10 -35 10q-23 0 -33 -33l-6 -17h-91z" />
    <glyph glyph-name="uni1EAB" unicode="&#x1eab;" horiz-adv-x="588" 
d="M195 -10q-77 0 -120.5 39.5t-43.5 109.5q0 74 49 112.5t163 52.5l140 17q-1 43 -18 61.5t-56 18.5q-25 0 -61 -9.5t-101 -34.5l-69 -26v129l38 15q71 28 124.5 40.5t99.5 12.5q188 0 188 -196v-332h-143v70q-53 -42 -98.5 -61t-91.5 -19zM178 157q0 -23 14.5 -36
t39.5 -13q29 0 63.5 16t87.5 53v62l-122 -21q-47 -8 -65 -21.5t-18 -39.5zM95 570l135 163h124l135 -163h-118l-79 78l-80 -78h-117zM371 769q-15 0 -32.5 5.5t-43.5 18.5l-33 18q-24 13 -36 13q-21 0 -31 -33l-6 -19h-92l11 37q18 60 41.5 85t62.5 25q16 0 33 -5t43 -19
l33 -18q25 -13 36 -13q12 0 18.5 7.5t12.5 25.5l6 19h92l-11 -38q-17 -59 -41 -84t-63 -25z" />
    <glyph glyph-name="uni1EAC" unicode="&#x1eac;" horiz-adv-x="749" 
d="M3 0l284 680h175l284 -680h-164l-61 152h-298l-61 -152h-159zM273 280h197l-99 244zM293 -199v136h163v-136h-163zM171 725l141 150h125l142 -150h-121l-83 68l-83 -68h-121z" />
    <glyph glyph-name="uni1EAD" unicode="&#x1ead;" horiz-adv-x="588" 
d="M195 -10q-77 0 -120.5 39.5t-43.5 109.5q0 74 49 112.5t163 52.5l140 17q-1 43 -18 61.5t-56 18.5q-25 0 -61 -9.5t-101 -34.5l-69 -26v129l38 15q71 28 124.5 40.5t99.5 12.5q188 0 188 -196v-332h-143v70q-53 -42 -98.5 -61t-91.5 -19zM178 157q0 -23 14.5 -36
t39.5 -13q29 0 63.5 16t87.5 53v62l-122 -21q-47 -8 -65 -21.5t-18 -39.5zM204 -203v142h165v-142h-165zM91 580l138 180h125l139 -180h-120l-81 87l-81 -87h-120z" />
    <glyph glyph-name="uni1EAE" unicode="&#x1eae;" horiz-adv-x="749" 
d="M3 0l284 680h175l284 -680h-164l-61 152h-298l-61 -152h-159zM273 280h197l-99 244zM375 721q-143 0 -180 113l-7 24h103l4 -9q16 -39 80 -39t80 39l4 9h103l-7 -24q-37 -113 -180 -113zM296 891l124 140h153l-147 -140h-130z" />
    <glyph glyph-name="uni1EAF" unicode="&#x1eaf;" horiz-adv-x="588" 
d="M195 -10q-77 0 -120.5 39.5t-43.5 109.5q0 74 49 112.5t163 52.5l140 17q-1 43 -18 61.5t-56 18.5q-25 0 -61 -9.5t-101 -34.5l-69 -26v129l38 15q71 28 124.5 40.5t99.5 12.5q188 0 188 -196v-332h-143v70q-53 -42 -98.5 -61t-91.5 -19zM178 157q0 -23 14.5 -36
t39.5 -13q29 0 63.5 16t87.5 53v62l-122 -21q-47 -8 -65 -21.5t-18 -39.5zM292 569q-68 0 -110 33t-63 102l-8 26h102l5 -14q16 -53 74 -53q29 0 48 12.5t27 40.5l4 14h102l-8 -26q-21 -69 -63 -102t-110 -33zM204 763l116 163h145l-139 -163h-122z" />
    <glyph glyph-name="uni1EB0" unicode="&#x1eb0;" horiz-adv-x="749" 
d="M3 0l284 680h175l284 -680h-164l-61 152h-298l-61 -152h-159zM273 280h197l-99 244zM375 721q-143 0 -180 113l-7 24h103l4 -9q16 -39 80 -39t80 39l4 9h103l-7 -24q-37 -113 -180 -113zM324 891l-147 140h153l124 -140h-130z" />
    <glyph glyph-name="uni1EB1" unicode="&#x1eb1;" horiz-adv-x="588" 
d="M195 -10q-77 0 -120.5 39.5t-43.5 109.5q0 74 49 112.5t163 52.5l140 17q-1 43 -18 61.5t-56 18.5q-25 0 -61 -9.5t-101 -34.5l-69 -26v129l38 15q71 28 124.5 40.5t99.5 12.5q188 0 188 -196v-332h-143v70q-53 -42 -98.5 -61t-91.5 -19zM178 157q0 -23 14.5 -36
t39.5 -13q29 0 63.5 16t87.5 53v62l-122 -21q-47 -8 -65 -21.5t-18 -39.5zM292 569q-68 0 -110 33t-63 102l-8 26h102l5 -14q16 -53 74 -53q29 0 48 12.5t27 40.5l4 14h102l-8 -26q-21 -69 -63 -102t-110 -33zM258 763l-139 163h145l116 -163h-122z" />
    <glyph glyph-name="uni1EB2" unicode="&#x1eb2;" horiz-adv-x="749" 
d="M3 0l284 680h175l284 -680h-164l-61 152h-298l-61 -152h-159zM273 280h197l-99 244zM375 721q-143 0 -180 113l-7 24h103l4 -9q16 -39 80 -39t80 39l4 9h103l-7 -24q-37 -113 -180 -113zM331 885l47 33q19 13 26.5 22.5t7.5 19.5q0 24 -28 24q-14 0 -30.5 -5t-42.5 -16
l-51 -21v78l30 13q39 17 67.5 23.5t53.5 6.5q47 0 75.5 -22.5t28.5 -61.5q0 -27 -13.5 -45.5t-42.5 -38.5l-13 -10h-115z" />
    <glyph glyph-name="uni1EB3" unicode="&#x1eb3;" horiz-adv-x="588" 
d="M195 -10q-77 0 -120.5 39.5t-43.5 109.5q0 74 49 112.5t163 52.5l140 17q-1 43 -18 61.5t-56 18.5q-25 0 -61 -9.5t-101 -34.5l-69 -26v129l38 15q71 28 124.5 40.5t99.5 12.5q188 0 188 -196v-332h-143v70q-53 -42 -98.5 -61t-91.5 -19zM178 157q0 -23 14.5 -36
t39.5 -13q29 0 63.5 16t87.5 53v62l-122 -21q-47 -8 -65 -21.5t-18 -39.5zM292 569q-68 0 -110 33t-63 102l-8 26h102l5 -14q16 -53 74 -53q29 0 48 12.5t27 40.5l4 14h102l-8 -26q-21 -69 -63 -102t-110 -33zM236 763l45 33q19 15 26 24t7 18q0 23 -28 23q-13 0 -28.5 -5
t-39.5 -16l-46 -20v79l27 12q67 31 114 31q46 0 73.5 -24.5t27.5 -63.5q0 -24 -13 -43.5t-38 -37.5l-14 -10h-113z" />
    <glyph glyph-name="uni1EB4" unicode="&#x1eb4;" horiz-adv-x="749" 
d="M3 0l284 680h175l284 -680h-164l-61 152h-298l-61 -152h-159zM273 280h197l-99 244zM375 721q-143 0 -180 113l-7 24h103l4 -9q16 -39 80 -39t80 39l4 9h103l-7 -24q-37 -113 -180 -113zM176 891l10 37q16 55 39 78.5t61 23.5q17 0 35 -4.5t47 -18.5l40 -19
q24 -11 35 -11q13 0 20 7.5t13 25.5l6 17h91l-10 -37q-16 -54 -39 -78t-61 -24q-18 0 -35 4.5t-47 18.5l-40 20q-22 10 -35 10q-23 0 -33 -33l-6 -17h-91z" />
    <glyph glyph-name="uni1EB5" unicode="&#x1eb5;" horiz-adv-x="588" 
d="M195 -10q-77 0 -120.5 39.5t-43.5 109.5q0 74 49 112.5t163 52.5l140 17q-1 43 -18 61.5t-56 18.5q-25 0 -61 -9.5t-101 -34.5l-69 -26v129l38 15q71 28 124.5 40.5t99.5 12.5q188 0 188 -196v-332h-143v70q-53 -42 -98.5 -61t-91.5 -19zM178 157q0 -23 14.5 -36
t39.5 -13q29 0 63.5 16t87.5 53v62l-122 -21q-47 -8 -65 -21.5t-18 -39.5zM292 569q-68 0 -110 33t-63 102l-8 26h102l5 -14q16 -53 74 -53q29 0 48 12.5t27 40.5l4 14h102l-8 -26q-21 -69 -63 -102t-110 -33zM371 765q-15 0 -32.5 5.5t-43.5 18.5l-33 18q-24 13 -36 13
q-21 0 -31 -33l-6 -19h-92l11 37q18 60 41.5 85t62.5 25q16 0 33 -5t43 -19l33 -18q25 -13 36 -13q12 0 18.5 7.5t12.5 25.5l6 19h92l-11 -38q-17 -59 -41 -84t-63 -25z" />
    <glyph glyph-name="uni1EB6" unicode="&#x1eb6;" horiz-adv-x="749" 
d="M3 0l284 680h175l284 -680h-164l-61 152h-298l-61 -152h-159zM273 280h197l-99 244zM293 -199v136h163v-136h-163zM375 721q-144 0 -182 121l-7 25h104l4 -10q16 -41 81 -41t81 41l4 10h104l-7 -25q-38 -121 -182 -121z" />
    <glyph glyph-name="uni1EB7" unicode="&#x1eb7;" horiz-adv-x="588" 
d="M195 -10q-77 0 -120.5 39.5t-43.5 109.5q0 74 49 112.5t163 52.5l140 17q-1 43 -18 61.5t-56 18.5q-25 0 -61 -9.5t-101 -34.5l-69 -26v129l38 15q71 28 124.5 40.5t99.5 12.5q188 0 188 -196v-332h-143v70q-53 -42 -98.5 -61t-91.5 -19zM178 157q0 -23 14.5 -36
t39.5 -13q29 0 63.5 16t87.5 53v62l-122 -21q-47 -8 -65 -21.5t-18 -39.5zM204 -203v142h165v-142h-165zM292 579q-69 0 -112 36.5t-65 113.5l-7 28h104l4 -15q19 -63 76 -63q30 0 48 15t28 48l4 15h104l-7 -28q-22 -77 -65 -113.5t-112 -36.5z" />
    <glyph glyph-name="uni1EB8" unicode="&#x1eb8;" horiz-adv-x="653" 
d="M75 0v680h526v-130h-372v-146h357v-128h-357v-146h372v-130h-526zM259 -199v136h163v-136h-163z" />
    <glyph glyph-name="uni1EB9" unicode="&#x1eb9;" horiz-adv-x="592" 
d="M278 -10q-74 0 -128.5 31t-84.5 87.5t-30 134.5v24q0 79 33 138t92.5 91t139.5 32q119 0 186.5 -64t67.5 -177v-67h-368q11 -104 116 -104q36 0 73.5 9t90.5 31l70 27v-129l-45 -18q-57 -24 -107 -35t-106 -11zM297 415q-96 0 -110 -103h219q-11 103 -109 103zM213 -203
v142h165v-142h-165z" />
    <glyph glyph-name="uni1EBA" unicode="&#x1eba;" horiz-adv-x="653" 
d="M75 0v680h526v-130h-372v-146h357v-128h-357v-146h372v-130h-526zM292 719l48 36q19 14 26.5 23.5t7.5 20.5q0 24 -29 24q-13 0 -30.5 -4.5t-43.5 -15.5l-52 -22v81l32 13q38 17 67 24t55 7q48 0 77 -25t29 -64q0 -27 -13.5 -47t-42.5 -41l-15 -10h-116z" />
    <glyph glyph-name="uni1EBB" unicode="&#x1ebb;" horiz-adv-x="592" 
d="M278 -10q-74 0 -128.5 31t-84.5 87.5t-30 134.5v24q0 79 33 138t92.5 91t139.5 32q119 0 186.5 -64t67.5 -177v-67h-368q11 -104 116 -104q36 0 73.5 9t90.5 31l70 27v-129l-45 -18q-57 -24 -107 -35t-106 -11zM297 415q-96 0 -110 -103h219q-11 103 -109 103zM253 580
l49 39q30 23 30 42q0 25 -29 25q-12 0 -27.5 -5t-41.5 -16l-47 -22v82l27 12q37 17 64 24.5t51 7.5q49 0 77.5 -25.5t28.5 -68.5q0 -44 -52 -84l-15 -11h-115z" />
    <glyph glyph-name="uni1EBC" unicode="&#x1ebc;" horiz-adv-x="653" 
d="M75 0v680h526v-130h-372v-146h357v-128h-357v-146h372v-130h-526zM432 722q-19 0 -37.5 5.5t-47.5 19.5l-40 20q-24 11 -37 11q-23 0 -33 -34l-6 -19h-93l10 39q16 58 39.5 83.5t60.5 25.5q33 0 84 -25l41 -20q13 -6 21.5 -8.5t14.5 -2.5q24 0 34 34l6 19h93l-11 -39
q-16 -60 -38.5 -84.5t-60.5 -24.5z" />
    <glyph glyph-name="uni1EBD" unicode="&#x1ebd;" horiz-adv-x="592" 
d="M278 -10q-74 0 -128.5 31t-84.5 87.5t-30 134.5v24q0 79 33 138t92.5 91t139.5 32q119 0 186.5 -64t67.5 -177v-67h-368q11 -104 116 -104q36 0 73.5 9t90.5 31l70 27v-129l-45 -18q-57 -24 -107 -35t-106 -11zM297 415q-96 0 -110 -103h219q-11 103 -109 103zM386 582
q-18 0 -35.5 6t-44.5 21l-34 19q-23 13 -36 13q-12 0 -19 -7.5t-13 -28.5l-6 -20h-94l11 41q17 62 41.5 89.5t62.5 27.5q17 0 34 -5.5t46 -21.5l34 -19q23 -14 36 -14q12 0 19 8t13 28l6 21h94l-11 -41q-17 -63 -41.5 -90t-62.5 -27z" />
    <glyph glyph-name="uni1EBE" unicode="&#x1ebe;" horiz-adv-x="653" 
d="M75 0v680h526v-130h-372v-146h357v-128h-357v-146h372v-130h-526zM141 725l139 140h125l140 -140h-120l-82 62l-82 -62h-120zM474 827l124 140h153l-147 -140h-130z" />
    <glyph glyph-name="uni1EBF" unicode="&#x1ebf;" horiz-adv-x="592" 
d="M278 -10q-74 0 -128.5 31t-84.5 87.5t-30 134.5v24q0 79 33 138t92.5 91t139.5 32q119 0 186.5 -64t67.5 -177v-67h-368q11 -104 116 -104q36 0 73.5 9t90.5 31l70 27v-129l-45 -18q-57 -24 -107 -35t-106 -11zM297 415q-96 0 -110 -103h219q-11 103 -109 103zM106 570
l135 163h124l135 -163h-118l-79 78l-80 -78h-117zM428 683l116 163h145l-139 -163h-122z" />
    <glyph glyph-name="uni1EC0" unicode="&#x1ec0;" horiz-adv-x="653" 
d="M75 0v680h526v-130h-372v-146h357v-128h-357v-146h372v-130h-526zM141 725l139 140h125l140 -140h-120l-82 62l-82 -62h-120zM502 827l-147 140h153l124 -140h-130z" />
    <glyph glyph-name="uni1EC1" unicode="&#x1ec1;" horiz-adv-x="592" 
d="M278 -10q-74 0 -128.5 31t-84.5 87.5t-30 134.5v24q0 79 33 138t92.5 91t139.5 32q119 0 186.5 -64t67.5 -177v-67h-368q11 -104 116 -104q36 0 73.5 9t90.5 31l70 27v-129l-45 -18q-57 -24 -107 -35t-106 -11zM297 415q-96 0 -110 -103h219q-11 103 -109 103zM106 570
l135 163h124l135 -163h-118l-79 78l-80 -78h-117zM482 683l-139 163h145l116 -163h-122z" />
    <glyph glyph-name="uni1EC2" unicode="&#x1ec2;" horiz-adv-x="653" 
d="M75 0v680h526v-130h-372v-146h357v-128h-357v-146h372v-130h-526zM141 725l139 140h125l140 -140h-120l-82 62l-82 -62h-120zM509 821l47 33q19 13 26.5 22.5t7.5 19.5q0 24 -28 24q-14 0 -30.5 -5t-42.5 -16l-51 -21v78l30 13q39 17 67.5 23.5t53.5 6.5q47 0 75.5 -22.5
t28.5 -61.5q0 -27 -13.5 -45.5t-42.5 -38.5l-13 -10h-115z" />
    <glyph glyph-name="uni1EC3" unicode="&#x1ec3;" horiz-adv-x="592" 
d="M278 -10q-74 0 -128.5 31t-84.5 87.5t-30 134.5v24q0 79 33 138t92.5 91t139.5 32q119 0 186.5 -64t67.5 -177v-67h-368q11 -104 116 -104q36 0 73.5 9t90.5 31l70 27v-129l-45 -18q-57 -24 -107 -35t-106 -11zM297 415q-96 0 -110 -103h219q-11 103 -109 103zM106 570
l135 163h124l135 -163h-118l-79 78l-80 -78h-117zM460 683l45 33q19 15 26 24t7 18q0 23 -28 23q-13 0 -28.5 -5t-39.5 -16l-46 -20v79l27 12q67 31 114 31q46 0 73.5 -24.5t27.5 -63.5q0 -24 -13 -43.5t-38 -37.5l-14 -10h-113z" />
    <glyph glyph-name="uni1EC4" unicode="&#x1ec4;" horiz-adv-x="653" 
d="M75 0v680h526v-130h-372v-146h357v-128h-357v-146h372v-130h-526zM141 725l139 140h125l140 -140h-120l-82 62l-82 -62h-120zM144 898l10 37q16 55 39 78.5t61 23.5q17 0 35 -4.5t47 -18.5l40 -19q24 -11 35 -11q13 0 20 7.5t13 25.5l6 17h91l-10 -37q-16 -54 -39 -78
t-61 -24q-18 0 -35 4.5t-47 18.5l-40 20q-22 10 -35 10q-23 0 -33 -33l-6 -17h-91z" />
    <glyph glyph-name="uni1EC5" unicode="&#x1ec5;" horiz-adv-x="592" 
d="M278 -10q-74 0 -128.5 31t-84.5 87.5t-30 134.5v24q0 79 33 138t92.5 91t139.5 32q119 0 186.5 -64t67.5 -177v-67h-368q11 -104 116 -104q36 0 73.5 9t90.5 31l70 27v-129l-45 -18q-57 -24 -107 -35t-106 -11zM297 415q-96 0 -110 -103h219q-11 103 -109 103zM106 570
l135 163h124l135 -163h-118l-79 78l-80 -78h-117zM382 769q-15 0 -32.5 5.5t-43.5 18.5l-33 18q-24 13 -36 13q-21 0 -31 -33l-6 -19h-92l11 37q18 60 41.5 85t62.5 25q16 0 33 -5t43 -19l33 -18q25 -13 36 -13q12 0 18.5 7.5t12.5 25.5l6 19h92l-11 -38q-17 -59 -41 -84
t-63 -25z" />
    <glyph glyph-name="uni1EC6" unicode="&#x1ec6;" horiz-adv-x="653" 
d="M75 0v680h526v-130h-372v-146h357v-128h-357v-146h372v-130h-526zM259 -199v136h163v-136h-163zM138 725l141 150h125l142 -150h-121l-83 68l-83 -68h-121z" />
    <glyph glyph-name="uni1EC7" unicode="&#x1ec7;" horiz-adv-x="592" 
d="M278 -10q-74 0 -128.5 31t-84.5 87.5t-30 134.5v24q0 79 33 138t92.5 91t139.5 32q119 0 186.5 -64t67.5 -177v-67h-368q11 -104 116 -104q36 0 73.5 9t90.5 31l70 27v-129l-45 -18q-57 -24 -107 -35t-106 -11zM297 415q-96 0 -110 -103h219q-11 103 -109 103zM213 -203
v142h165v-142h-165zM102 580l138 180h125l139 -180h-120l-81 87l-81 -87h-120z" />
    <glyph glyph-name="uni1EC8" unicode="&#x1ec8;" horiz-adv-x="307" 
d="M76 0v680h157v-680h-157zM104 719l48 36q19 14 26.5 23.5t7.5 20.5q0 24 -29 24q-13 0 -30.5 -4.5t-43.5 -15.5l-52 -22v81l32 13q38 17 67 24t55 7q48 0 77 -25t29 -64q0 -27 -13.5 -47t-42.5 -41l-15 -10h-116z" />
    <glyph glyph-name="uni1EC9" unicode="&#x1ec9;" horiz-adv-x="280" 
d="M63 0v518h150v-518h-150zM90 580l49 39q30 23 30 42q0 25 -29 25q-12 0 -27.5 -5t-41.5 -16l-47 -22v82l27 12q37 17 64 24.5t51 7.5q49 0 77.5 -25.5t28.5 -68.5q0 -44 -52 -84l-15 -11h-115z" />
    <glyph glyph-name="uni1ECA" unicode="&#x1eca;" horiz-adv-x="307" 
d="M75 0v680h157v-680h-157zM72 -199v136h163v-136h-163z" />
    <glyph glyph-name="uni1ECB" unicode="&#x1ecb;" horiz-adv-x="281" 
d="M56 592v147h168v-147h-168zM65 0v518h150v-518h-150zM59 -203v142h165v-142h-165z" />
    <glyph glyph-name="uni1ECC" unicode="&#x1ecc;" horiz-adv-x="804" 
d="M402 -15q-108 0 -189.5 43t-127.5 120t-46 179v26q0 102 46 179t127.5 120t189.5 43t189.5 -43t127.5 -120t46 -179v-26q0 -102 -46 -179t-127.5 -120t-189.5 -43zM402 116q92 0 144.5 58.5t52.5 158.5v14q0 101 -52.5 159t-144.5 58t-144.5 -58t-52.5 -159v-14
q0 -100 52.5 -158.5t144.5 -58.5zM320 -199v136h163v-136h-163z" />
    <glyph glyph-name="uni1ECD" unicode="&#x1ecd;" horiz-adv-x="627" 
d="M313 -10q-85 0 -147.5 31t-96.5 89t-34 136v25q0 79 34 137t96.5 89t147.5 31q86 0 148 -31t96 -89t34 -137v-25q0 -78 -34 -136t-96 -89t-148 -31zM313 112q60 0 92 35.5t32 100.5v21q0 65 -32 101t-92 36q-59 0 -91.5 -36t-32.5 -101v-21q0 -65 32.5 -100.5t91.5 -35.5
zM231 -203v142h165v-142h-165z" />
    <glyph glyph-name="uni1ECE" unicode="&#x1ece;" horiz-adv-x="804" 
d="M402 -15q-108 0 -189.5 43t-127.5 120t-46 179v26q0 102 46 179t127.5 120t189.5 43t189.5 -43t127.5 -120t46 -179v-26q0 -102 -46 -179t-127.5 -120t-189.5 -43zM402 116q92 0 144.5 58.5t52.5 158.5v14q0 101 -52.5 159t-144.5 58t-144.5 -58t-52.5 -159v-14
q0 -100 52.5 -158.5t144.5 -58.5zM352 719l48 36q19 14 26.5 23.5t7.5 20.5q0 24 -29 24q-13 0 -30.5 -4.5t-43.5 -15.5l-52 -22v81l32 13q38 17 67 24t55 7q48 0 77 -25t29 -64q0 -27 -13.5 -47t-42.5 -41l-15 -10h-116z" />
    <glyph glyph-name="uni1ECF" unicode="&#x1ecf;" horiz-adv-x="627" 
d="M313 -10q-85 0 -147.5 31t-96.5 89t-34 136v25q0 79 34 137t96.5 89t147.5 31q86 0 148 -31t96 -89t34 -137v-25q0 -78 -34 -136t-96 -89t-148 -31zM313 112q60 0 92 35.5t32 100.5v21q0 65 -32 101t-92 36q-59 0 -91.5 -36t-32.5 -101v-21q0 -65 32.5 -100.5t91.5 -35.5
zM263 580l49 39q30 23 30 42q0 25 -29 25q-12 0 -27.5 -5t-41.5 -16l-47 -22v82l27 12q37 17 64 24.5t51 7.5q49 0 77.5 -25.5t28.5 -68.5q0 -44 -52 -84l-15 -11h-115z" />
    <glyph glyph-name="uni1ED0" unicode="&#x1ed0;" horiz-adv-x="804" 
d="M402 -15q-108 0 -189.5 43t-127.5 120t-46 179v26q0 102 46 179t127.5 120t189.5 43t189.5 -43t127.5 -120t46 -179v-26q0 -102 -46 -179t-127.5 -120t-189.5 -43zM402 116q92 0 144.5 58.5t52.5 158.5v14q0 101 -52.5 159t-144.5 58t-144.5 -58t-52.5 -159v-14
q0 -100 52.5 -158.5t144.5 -58.5zM200 725l139 140h125l140 -140h-120l-82 62l-82 -62h-120zM533 827l124 140h153l-147 -140h-130z" />
    <glyph glyph-name="uni1ED1" unicode="&#x1ed1;" horiz-adv-x="627" 
d="M313 -10q-85 0 -147.5 31t-96.5 89t-34 136v25q0 79 34 137t96.5 89t147.5 31q86 0 148 -31t96 -89t34 -137v-25q0 -78 -34 -136t-96 -89t-148 -31zM313 112q60 0 92 35.5t32 100.5v21q0 65 -32 101t-92 36q-59 0 -91.5 -36t-32.5 -101v-21q0 -65 32.5 -100.5t91.5 -35.5
zM116 570l135 163h124l135 -163h-118l-79 78l-80 -78h-117zM438 683l116 163h145l-139 -163h-122z" />
    <glyph glyph-name="uni1ED2" unicode="&#x1ed2;" horiz-adv-x="804" 
d="M402 -15q-108 0 -189.5 43t-127.5 120t-46 179v26q0 102 46 179t127.5 120t189.5 43t189.5 -43t127.5 -120t46 -179v-26q0 -102 -46 -179t-127.5 -120t-189.5 -43zM402 116q92 0 144.5 58.5t52.5 158.5v14q0 101 -52.5 159t-144.5 58t-144.5 -58t-52.5 -159v-14
q0 -100 52.5 -158.5t144.5 -58.5zM200 725l139 140h125l140 -140h-120l-82 62l-82 -62h-120zM561 827l-147 140h153l124 -140h-130z" />
    <glyph glyph-name="uni1ED3" unicode="&#x1ed3;" horiz-adv-x="627" 
d="M313 -10q-85 0 -147.5 31t-96.5 89t-34 136v25q0 79 34 137t96.5 89t147.5 31q86 0 148 -31t96 -89t34 -137v-25q0 -78 -34 -136t-96 -89t-148 -31zM313 112q60 0 92 35.5t32 100.5v21q0 65 -32 101t-92 36q-59 0 -91.5 -36t-32.5 -101v-21q0 -65 32.5 -100.5t91.5 -35.5
zM116 570l135 163h124l135 -163h-118l-79 78l-80 -78h-117zM492 683l-139 163h145l116 -163h-122z" />
    <glyph glyph-name="uni1ED4" unicode="&#x1ed4;" horiz-adv-x="804" 
d="M402 -15q-108 0 -189.5 43t-127.5 120t-46 179v26q0 102 46 179t127.5 120t189.5 43t189.5 -43t127.5 -120t46 -179v-26q0 -102 -46 -179t-127.5 -120t-189.5 -43zM402 116q92 0 144.5 58.5t52.5 158.5v14q0 101 -52.5 159t-144.5 58t-144.5 -58t-52.5 -159v-14
q0 -100 52.5 -158.5t144.5 -58.5zM200 725l139 140h125l140 -140h-120l-82 62l-82 -62h-120zM568 821l47 33q19 13 26.5 22.5t7.5 19.5q0 24 -28 24q-14 0 -30.5 -5t-42.5 -16l-51 -21v78l30 13q39 17 67.5 23.5t53.5 6.5q47 0 75.5 -22.5t28.5 -61.5q0 -27 -13.5 -45.5
t-42.5 -38.5l-13 -10h-115z" />
    <glyph glyph-name="uni1ED5" unicode="&#x1ed5;" horiz-adv-x="627" 
d="M313 -10q-85 0 -147.5 31t-96.5 89t-34 136v25q0 79 34 137t96.5 89t147.5 31q86 0 148 -31t96 -89t34 -137v-25q0 -78 -34 -136t-96 -89t-148 -31zM313 112q60 0 92 35.5t32 100.5v21q0 65 -32 101t-92 36q-59 0 -91.5 -36t-32.5 -101v-21q0 -65 32.5 -100.5t91.5 -35.5
zM116 570l135 163h124l135 -163h-118l-79 78l-80 -78h-117zM470 683l45 33q19 15 26 24t7 18q0 23 -28 23q-13 0 -28.5 -5t-39.5 -16l-46 -20v79l27 12q67 31 114 31q46 0 73.5 -24.5t27.5 -63.5q0 -24 -13 -43.5t-38 -37.5l-14 -10h-113z" />
    </font>
</defs>
</svg>
