<?xml version="1.0" standalone="no"?>
<!DOCTYPE svg PUBLIC "-//W3C//DTD SVG 1.1//EN" "http://www.w3.org/Graphics/SVG/1.1/DTD/svg11.dtd" >
<svg xmlns="http://www.w3.org/2000/svg" xmlns:xlink="http://www.w3.org/1999/xlink" version="1.1">
<metadata>
Created by FontForge 20201107 at Mon Sep  3 20:57:49 2018
 By 
Copyright (c) 2018 Kilotype GmbH. All rights reserved.
</metadata>
<defs>
<font id="Frequenz-Medium" horiz-adv-x="0" >
  <font-face 
    font-family="Frequenz Medium"
    font-weight="500"
    font-stretch="normal"
    units-per-em="1000"
    panose-1="2 11 6 4 4 2 4 3 8 4"
    ascent="740"
    descent="-260"
    x-height="512"
    cap-height="680"
    bbox="-296 -378 1222 1097"
    underline-thickness="50"
    underline-position="-125"
    unicode-range="U+000D-1F310"
  />
<missing-glyph horiz-adv-x="500" 
d="M0 0v680h500v-680h-500zM251 386l157 243h-316zM446 89v505l-164 -255zM54 87l164 255l-164 250v-505zM91 51h318l-160 244z" />
    <glyph glyph-name="f_f" unicode="ff" horiz-adv-x="847" 
d="M129 0v388h-107v98h107v94q0 80 44.5 125t121.5 45q50 0 125 -26l13 -5v-104l-25 9q-38 14 -56.5 18.5t-34.5 4.5q-67 0 -67 -83v-78h249v94q0 80 45 125t124 45q31 0 63 -7.5t79 -25.5l26 -11v-105l-38 16q-42 17 -65.5 23.5t-44.5 6.5q-68 0 -68 -83v-78h216v-98h-216
v-388h-121v388h-249v-388h-121z" />
    <glyph glyph-name="f_f_i" unicode="ffi" horiz-adv-x="1114" 
d="M129 0v388h-107v98h107v94q0 80 44.5 125t121.5 45q50 0 125 -26l13 -5v-104l-25 9q-38 14 -56.5 18.5t-34.5 4.5q-67 0 -67 -83v-78h249v94q0 80 45 125t124 45q31 0 63 -7.5t79 -25.5l26 -11v-105l-38 16q-42 17 -65.5 23.5t-44.5 6.5q-68 0 -68 -83v-78h216v-98h-216
v-388h-121v388h-249v-388h-121zM912 599v129h137v-129h-137zM920 0v512h121v-512h-121z" />
    <glyph glyph-name="f_f_l" unicode="ffl" horiz-adv-x="1157" 
d="M129 0v388h-107v98h107v94q0 80 44.5 125t121.5 45q50 0 125 -26l13 -5v-104l-25 9q-38 14 -56.5 18.5t-34.5 4.5q-67 0 -67 -83v-78h249v94q0 80 45 125t124 45q31 0 63 -7.5t79 -25.5l26 -11v-105l-38 16q-42 17 -65.5 23.5t-44.5 6.5q-68 0 -68 -83v-78h216v-98h-216
v-388h-121v388h-249v-388h-121zM1025 -10q-108 0 -108 122v628h121v-607q0 -20 5.5 -28t19.5 -8q10 0 23 5.5t37 19.5l21 13v-105l-13 -8q-58 -32 -106 -32z" />
    <glyph glyph-name="f_i" unicode="fi" horiz-adv-x="744" 
d="M129 0v388h-107v98h107v94q0 80 45 125t124 45q32 0 64 -7.5t78 -25.5l26 -11v-105l-37 16q-45 18 -67.5 24t-43.5 6q-68 0 -68 -83v-78h216v-98h-216v-388h-121zM542 599v129h137v-129h-137zM550 0v512h121v-512h-121z" />
    <glyph glyph-name="f_l" unicode="fl" horiz-adv-x="788" 
d="M129 0v388h-107v98h107v94q0 80 45 125t124 45q32 0 64 -7.5t78 -25.5l26 -11v-105l-37 16q-45 18 -67.5 24t-43.5 6q-68 0 -68 -83v-78h216v-98h-216v-388h-121zM655 -10q-108 0 -108 122v628h121v-607q0 -20 5.5 -28t19.5 -8q10 0 23 5.5t37 19.5l21 13v-105l-13 -8
q-58 -32 -106 -32z" />
    <glyph glyph-name=".notdef" horiz-adv-x="500" 
d="M0 0v680h500v-680h-500zM251 386l157 243h-316zM446 89v505l-164 -255zM54 87l164 255l-164 250v-505zM91 51h318l-160 244z" />
    <glyph glyph-name=".null" 
 />
    <glyph glyph-name="nonmarkingreturn" horiz-adv-x="333" 
 />
    <glyph glyph-name="NULL" 
 />
    <glyph glyph-name="CR" unicode="&#xd;" 
 />
    <glyph glyph-name="space" unicode=" " horiz-adv-x="265" 
 />
    <glyph glyph-name="exclam" unicode="!" horiz-adv-x="285" 
d="M95 195l-19 485h133l-19 -485h-95zM68 0v133h148v-133h-148z" />
    <glyph glyph-name="quotedbl" unicode="&#x22;" horiz-adv-x="420" 
d="M252 448v292h121l-24 -292h-97zM60 448v292h121l-24 -292h-97z" />
    <glyph glyph-name="numbersign" unicode="#" horiz-adv-x="765" 
d="M75 0l57 168h-100v97h133l51 150h-128v97h161l57 168h105l-57 -168h175l57 168h105l-57 -168h100v-97h-133l-51 -150h128v-97h-161l-57 -168h-105l57 168h-175l-57 -168h-105zM270 265h175l51 150h-175z" />
    <glyph glyph-name="dollar" unicode="$" horiz-adv-x="620" 
d="M279 -80v104q-46 9 -97 27t-110 44l-41 18v111l85 -38q48 -22 88 -37.5t75 -25.5v172l-29 7q-110 22 -155.5 63.5t-45.5 117.5q0 84 59.5 133t157.5 49h13v95h78v-105q64 -13 163 -52l43 -16v-110l-87 35q-37 15 -66 25.5t-53 17.5v-167l34 -7q73 -15 116.5 -37.5
t62.5 -58t19 -87.5q0 -87 -57.5 -135t-159.5 -48h-15v-95h-78zM169 490q0 -37 23 -55t87 -31v165h-13q-44 0 -70.5 -21.5t-26.5 -57.5zM470 191q0 38 -24 56.5t-89 31.5v-168h13q47 0 73.5 21t26.5 59z" />
    <glyph glyph-name="percent" unicode="%" horiz-adv-x="846" 
d="M209 336q-51 0 -92 21.5t-64 59t-23 86.5v10q0 49 23.5 86.5t64 59t91.5 21.5q52 0 92.5 -21.5t64 -59t23.5 -86.5v-10q0 -49 -23.5 -86.5t-64 -59t-92.5 -21.5zM101 0l521 670h122l-521 -670h-122zM210 419q38 0 59 23t21 62v7q0 40 -21 63t-59 23t-59 -23t-21 -63v-6
q0 -40 21 -63t59 -23zM636 -10q-51 0 -92 21.5t-64 59t-23 86.5v10q0 49 23.5 86.5t64 59t91.5 21.5q52 0 92.5 -21.5t64 -59t23.5 -86.5v-10q0 -49 -23.5 -86.5t-64 -59t-92.5 -21.5zM637 73q38 0 59 23t21 62v7q0 40 -21 63t-59 23t-59 -23t-21 -63v-6q0 -40 21 -63
t59 -23z" />
    <glyph glyph-name="ampersand" unicode="&#x26;" horiz-adv-x="777" 
d="M259 -9q-65 0 -113.5 23t-75.5 63.5t-27 92.5q0 60 33 104t107 79q-48 38 -69.5 78t-21.5 87q0 82 60.5 129.5t164.5 47.5q101 0 161 -46.5t60 -123.5q0 -53 -28 -90.5t-95 -75.5l-25 -14l136 -84l213 206v-140l-122 -124l122 -76v-127h-7l-195 124q-74 -73 -138.5 -103
t-139.5 -30zM213 518q0 -33 19.5 -59t69.5 -58l22 11q56 30 77 53t21 53q0 38 -28 59t-77 21t-76.5 -21.5t-27.5 -58.5zM168 182q0 -40 27.5 -65t72.5 -25q44 0 83.5 20.5t93.5 69.5l-175 111l-11 -5q-52 -24 -71.5 -47t-19.5 -59z" />
    <glyph glyph-name="quotesingle" unicode="'" horiz-adv-x="228" 
d="M60 448v292h121l-24 -292h-97z" />
    <glyph glyph-name="parenleft" unicode="(" horiz-adv-x="346" 
d="M218 -200l-42 65q-69 108 -102.5 206.5t-33.5 198.5t33.5 198.5t102.5 206.5l42 65h123l-47 -79q-45 -74 -72.5 -139t-40 -126t-12.5 -126q0 -64 12.5 -125.5t40 -126t72.5 -139.5l47 -79h-123z" />
    <glyph glyph-name="parenright" unicode=")" horiz-adv-x="346" 
d="M5 -200l47 79q45 75 72.5 139.5t40 126t12.5 125.5q0 65 -12.5 126t-40 126t-72.5 139l-47 79h123l42 -65q70 -108 103 -206.5t33 -198.5t-33 -198.5t-103 -206.5l-42 -65h-123z" />
    <glyph glyph-name="asterisk" unicode="*" horiz-adv-x="507" 
d="M169 328l-80 57l105 125l-159 39l30 92l151 -60l-12 159h98l-12 -160l151 61l30 -92l-159 -39l105 -125l-79 -57l-84 135z" />
    <glyph glyph-name="plus" unicode="+" horiz-adv-x="620" 
d="M258 101v182h-182v99h182v182h104v-182h182v-99h-182v-182h-104z" />
    <glyph glyph-name="comma" unicode="," horiz-adv-x="263" 
d="M4 -175l72 321h141l-108 -321h-105z" />
    <glyph glyph-name="hyphen" unicode="-" horiz-adv-x="431" 
d="M61 224v113h309v-113h-309z" />
    <glyph glyph-name="period" unicode="." horiz-adv-x="275" 
d="M59 0v146h157v-146h-157z" />
    <glyph glyph-name="slash" unicode="/" horiz-adv-x="477" 
d="M21 -200l311 940h124l-311 -940h-124z" />
    <glyph glyph-name="zero" unicode="0" horiz-adv-x="671" 
d="M336 -15q-87 0 -151 40.5t-99 116t-35 178.5v25q0 103 35 178.5t99 116t151 40.5t151 -40.5t99 -115.5t35 -179v-25q0 -103 -35 -178.5t-99 -116t-151 -40.5zM336 89q74 0 115 61t41 174v17q0 113 -41 174t-115 61t-115 -61t-41 -174v-17q0 -113 41 -174t115 -61z" />
    <glyph glyph-name="one" unicode="1" horiz-adv-x="451" 
d="M240 0v543l-210 -168v128l210 167h125v-670h-125z" />
    <glyph glyph-name="two" unicode="2" horiz-adv-x="602" 
d="M43 0v99l242 195q51 42 79.5 71.5t40 55.5t11.5 56q0 44 -27.5 71.5t-71.5 27.5q-24 0 -49 -7.5t-57.5 -26.5t-79.5 -51l-70 -49v120l31 22q72 52 128 74t112 22q62 0 108.5 -25t73 -68.5t26.5 -100.5q0 -44 -16 -81.5t-53 -78t-102 -92.5l-166 -132h355v-102h-515z" />
    <glyph glyph-name="three" unicode="3" horiz-adv-x="623" 
d="M354 -15q-59 0 -125 18.5t-146 58.5l-32 16v116l72 -35q77 -39 127 -54.5t91 -15.5q51 0 79.5 25t28.5 71q0 51 -34.5 74t-111.5 23h-149v101h137q74 0 108.5 25.5t34.5 74.5q0 45 -27 69t-78 24q-35 0 -80.5 -14t-112.5 -45l-75 -35v110l34 16q82 38 143.5 55t113.5 17
q94 0 150 -50.5t56 -134.5q0 -54 -25 -94.5t-74 -61.5q54 -20 83.5 -61t29.5 -99q0 -90 -58.5 -142t-159.5 -52z" />
    <glyph glyph-name="four" unicode="4" horiz-adv-x="659" 
d="M390 0v176h-365v93l360 401h121v-394h124v-100h-124v-176h-116zM158 276h232v255z" />
    <glyph glyph-name="five" unicode="5" horiz-adv-x="621" 
d="M354 -15q-62 0 -124.5 17t-143.5 55l-27 13v117l65 -30q54 -26 92 -41t68 -21t58 -6q52 0 82 29t30 79q0 102 -124 102h-259v371h478v-102h-367v-170h159q121 0 179 -51.5t58 -152.5q0 -95 -61 -152t-163 -57z" />
    <glyph glyph-name="six" unicode="6" horiz-adv-x="644" 
d="M344 -15q-91 0 -156.5 39t-101 112.5t-35.5 174.5v32q0 97 36 173.5t99.5 120t145.5 43.5q41 0 87.5 -10.5t109.5 -34.5l43 -17v-114l-66 28q-56 24 -95 34t-72 10q-73 0 -118.5 -61.5t-47.5 -163.5q64 39 111.5 56t93.5 17q66 0 115 -25.5t76.5 -71.5t27.5 -108
q0 -70 -31.5 -122.5t-88.5 -82t-133 -29.5zM354 325q-36 0 -76.5 -16t-100.5 -54q11 -80 54 -123t112 -43q59 0 94.5 34.5t35.5 89.5q0 51 -32 81.5t-87 30.5z" />
    <glyph glyph-name="seven" unicode="7" horiz-adv-x="574" 
d="M109 0l312 566h-398v104h526v-97l-309 -573h-131z" />
    <glyph glyph-name="eight" unicode="8" horiz-adv-x="669" 
d="M336 -15q-135 0 -210.5 48.5t-75.5 133.5q0 45 23.5 83.5t73.5 80.5l14 12q-97 50 -97 148q0 89 70.5 139t196.5 50q129 0 201.5 -45.5t72.5 -128.5q0 -39 -22 -77t-70 -80l-8 -7q59 -23 86.5 -61t27.5 -93q0 -94 -76 -148.5t-207 -54.5zM302 398l99 -24l13 12
q36 32 51.5 56.5t15.5 48.5q0 42 -39.5 66t-110.5 24q-144 0 -144 -91q0 -35 26 -55.5t89 -36.5zM173 182q0 -46 44.5 -72t126.5 -26q70 0 110.5 27t40.5 74q0 33 -24.5 53.5t-89.5 35.5l-126 31l-10 -9q-39 -32 -55.5 -58.5t-16.5 -55.5z" />
    <glyph glyph-name="nine" unicode="9" horiz-adv-x="644" 
d="M312 -15q-41 0 -87.5 10.5t-109.5 34.5l-44 17v114l66 -28q57 -24 96 -34t72 -10q73 0 118 61.5t47 163.5q-63 -39 -111 -56t-93 -17q-66 0 -115.5 25.5t-76.5 71.5t-27 108q0 70 31.5 122.5t88 82t133.5 29.5q91 0 156.5 -39t101 -112.5t35.5 -174.5v-32
q0 -97 -36.5 -173.5t-100 -120t-144.5 -43.5zM170 452q0 -51 32.5 -81.5t86.5 -30.5q37 0 77.5 16t100.5 54q-11 80 -54 123t-113 43q-58 0 -94 -34t-36 -90z" />
    <glyph glyph-name="colon" unicode=":" horiz-adv-x="275" 
d="M59 365v146h157v-146h-157zM59 0v146h157v-146h-157z" />
    <glyph glyph-name="semicolon" unicode=";" horiz-adv-x="264" 
d="M4 -175l72 321h141l-108 -321h-105zM59 365v146h157v-146h-157z" />
    <glyph glyph-name="less" unicode="&#x3c;" horiz-adv-x="620" 
d="M536 89l-467 194v98l467 194v-105l-337 -137l337 -138v-106z" />
    <glyph glyph-name="equal" unicode="=" horiz-adv-x="620" 
d="M76 405v100h468v-100h-468zM76 159v99h468v-99h-468z" />
    <glyph glyph-name="greater" unicode="&#x3e;" horiz-adv-x="620" 
d="M84 89v105l337 138l-337 137v106l467 -194v-98z" />
    <glyph glyph-name="question" unicode="?" horiz-adv-x="547" 
d="M188 195l-5 127l95 38q65 26 89.5 52.5t24.5 72.5t-30.5 75t-76.5 29q-35 0 -79.5 -16.5t-119.5 -57.5l-56 -30v115l33 18q74 39 126.5 55.5t105.5 16.5q63 0 113.5 -26t79 -71.5t28.5 -104.5q0 -52 -17.5 -90t-56 -67t-103.5 -54l-34 -14l-5 -68h-112zM172 0v133h148
v-133h-148z" />
    <glyph glyph-name="at" unicode="@" horiz-adv-x="1076" 
d="M434 22q-61 0 -96 46.5t-35 127.5q0 90 28 163t75.5 116t105.5 43q29 0 53.5 -12.5t48.5 -42t53 -82.5l20 128h110l-58 -326q-1 -7 -1.5 -14t-0.5 -12q0 -24 12 -35t39 -11q43 0 76 31.5t52 86t19 123.5q0 97 -46.5 166t-131.5 106t-201 37q-124 0 -214.5 -52.5
t-139.5 -149t-49 -229.5q0 -166 92 -258.5t267 -92.5q73 0 150.5 18t160.5 57l89 41v-99l-67 -29q-92 -39 -174.5 -58t-168.5 -19q-146 0 -249 52.5t-158 150t-55 233.5q0 160 64 278t180.5 182t276.5 64q105 0 192.5 -28.5t151 -81.5t99 -126t35.5 -162q0 -97 -33.5 -171.5
t-94 -116.5t-140.5 -42q-68 0 -105 30t-37 85q0 10 1 22l-4 -6q-56 -70 -101 -100.5t-91 -30.5zM418 200q0 -84 47 -84q24 0 52.5 22t73.5 75l58 68q-34 66 -61 104.5t-62 38.5q-28 0 -53 -31t-40 -82t-15 -111z" />
    <glyph glyph-name="A" unicode="A" horiz-adv-x="735" 
d="M8 0l291 680h137l291 -680h-132l-71 171h-318l-71 -171h-127zM247 271h235l-119 283z" />
    <glyph glyph-name="B" unicode="B" horiz-adv-x="712" 
d="M85 0v680h329q116 0 176.5 -46.5t60.5 -137.5q0 -102 -85 -149q95 -40 95 -154q0 -92 -63 -142.5t-176 -50.5h-337zM402 580h-194v-191h194q121 0 121 95q0 96 -121 96zM412 292h-204v-192h204q121 0 121 96t-121 96z" />
    <glyph glyph-name="C" unicode="C" horiz-adv-x="696" 
d="M349 -15q-91 0 -159.5 43t-106 121t-37.5 181v20q0 103 38 181t106.5 121t160.5 43q59 0 117 -19.5t130 -62.5l48 -29v-123l-94 57q-65 39 -107.5 56t-82.5 17q-86 0 -136 -66t-50 -179v-12q0 -113 49.5 -179t135.5 -66q43 0 92 20t111 60l89 58v-125l-42 -27
q-73 -48 -137 -69t-125 -21z" />
    <glyph glyph-name="D" unicode="D" horiz-adv-x="768" 
d="M85 0v680h292q100 0 178 -37t123 -109.5t45 -179.5v-28q0 -107 -45 -179.5t-123 -109.5t-178 -37h-292zM372 579h-162v-478h162q100 0 160 58.5t60 172.5v16q0 114 -60 172.5t-160 58.5z" />
    <glyph glyph-name="E" unicode="E" horiz-adv-x="646" 
d="M85 0v680h506v-103h-383v-186h368v-101h-368v-187h383v-103h-506z" />
    <glyph glyph-name="F" unicode="F" horiz-adv-x="628" 
d="M85 0v680h506v-103h-380v-187h365v-101h-365v-289h-126z" />
    <glyph glyph-name="G" unicode="G" horiz-adv-x="751" 
d="M363 -15q-97 0 -168.5 42.5t-110 120t-38.5 182.5v20q0 103 41 180.5t115.5 121t171.5 43.5q57 0 114.5 -17t139.5 -53l52 -22v-120l-99 44q-71 33 -116 48.5t-88 15.5q-92 0 -146.5 -66t-54.5 -179v-12q0 -116 50.5 -180.5t141.5 -64.5q52 0 98 16.5t107 53.5v127h-199
v100h322v-278l-37 -23q-85 -51 -157.5 -75.5t-138.5 -24.5z" />
    <glyph glyph-name="H" unicode="H" horiz-adv-x="770" 
d="M85 0v680h125v-288h350v288h125v-680h-125v289h-350v-289h-125z" />
    <glyph glyph-name="I" unicode="I" horiz-adv-x="295" 
d="M85 0v680h125v-680h-125z" />
    <glyph glyph-name="J" unicode="J" horiz-adv-x="574" 
d="M307 -15q-59 0 -114.5 20.5t-126.5 66.5l-35 23v130l71 -48q69 -46 110 -64.5t77 -18.5q44 0 63.5 26t19.5 85v475h125v-486q0 -102 -49 -155.5t-141 -53.5z" />
    <glyph glyph-name="K" unicode="K" horiz-adv-x="708" 
d="M85 0v680h125v-320l329 320h161l-318 -296l328 -384h-159l-261 309l-80 -73v-236h-125z" />
    <glyph glyph-name="L" unicode="L" horiz-adv-x="605" 
d="M85 0v680h125v-577h376v-103h-501z" />
    <glyph glyph-name="M" unicode="M" horiz-adv-x="895" 
d="M85 0v680h137l227 -457l222 457h139v-680h-123l2 493l-195 -413h-98l-195 396l2 -476h-118z" />
    <glyph glyph-name="N" unicode="N" horiz-adv-x="773" 
d="M570 680h118v-680h-123l-363 492v-492h-117v680h124l361 -492v492z" />
    <glyph glyph-name="O" unicode="O" horiz-adv-x="796" 
d="M398 -15q-105 0 -184.5 43t-123.5 119.5t-44 178.5v28q0 102 44 178.5t123.5 119.5t184.5 43t184.5 -43t123.5 -119.5t44 -178.5v-28q0 -102 -44 -178.5t-123.5 -119.5t-184.5 -43zM398 89q103 0 162.5 65.5t59.5 177.5v16q0 112 -59.5 177.5t-162.5 65.5t-162.5 -65.5
t-59.5 -177.5v-16q0 -112 59.5 -177.5t162.5 -65.5z" />
    <glyph glyph-name="P" unicode="P" horiz-adv-x="682" 
d="M85 0v680h338q111 0 170.5 -52t59.5 -154q0 -100 -63.5 -154t-177.5 -54h-203v-266h-124zM209 367h197q55 0 86 28t31 79q0 105 -117 105h-197v-212z" />
    <glyph glyph-name="Q" unicode="Q" horiz-adv-x="796" 
d="M398 -15q-103 0 -182.5 42.5t-124.5 119t-45 179.5v28q0 103 45 179.5t124.5 119t182.5 42.5q104 0 183 -42.5t124 -119t45 -179.5v-28q0 -88 -33.5 -157.5t-92.5 -113.5l120 -135h-138l-75 86q-61 -21 -133 -21zM398 89q29 0 56 6l-108 123h133l68 -76q35 31 54 79.5
t19 110.5v16q0 113 -60.5 178t-161.5 65t-161.5 -65t-60.5 -178v-16q0 -113 60.5 -178t161.5 -65z" />
    <glyph glyph-name="R" unicode="R" horiz-adv-x="720" 
d="M85 0v680h346q111 0 170.5 -52t59.5 -154q0 -72 -37.5 -120t-105.5 -68l177 -286h-143l-159 266h-184v-266h-124zM209 367h205q55 0 86 28t31 79q0 105 -117 105h-205v-212z" />
    <glyph glyph-name="S" unicode="S" horiz-adv-x="665" 
d="M388 -15q-74 0 -144.5 18t-154.5 58l-43 21v121l80 -40q83 -40 142.5 -57.5t114.5 -17.5q54 0 84.5 26t30.5 71q0 40 -26.5 60t-98.5 33l-110 20q-109 20 -157 66t-48 129q0 62 29 107t82 70t124 25q58 0 117 -14t140 -47l47 -18v-116l-76 32q-55 22 -94.5 35.5t-70.5 19
t-61 5.5q-51 0 -81.5 -23.5t-30.5 -66.5q0 -41 26 -61t98 -33l116 -21q108 -20 154 -65t46 -130q0 -97 -62.5 -152t-172.5 -55z" />
    <glyph glyph-name="T" unicode="T" horiz-adv-x="655" 
d="M265 0v577h-246v103h617v-103h-246v-577h-125z" />
    <glyph glyph-name="U" unicode="U" horiz-adv-x="776" 
d="M388 -15q-153 0 -232 72t-79 211v412h125v-394q0 -103 44.5 -149.5t141.5 -46.5q98 0 142 46.5t44 149.5v394h125v-412q0 -139 -79 -211t-232 -72z" />
    <glyph glyph-name="V" unicode="V" horiz-adv-x="720" 
d="M292 0l-283 680h135l219 -544l218 544h130l-283 -680h-136z" />
    <glyph glyph-name="W" unicode="W" horiz-adv-x="941" 
d="M193 0l-170 680h133l117 -511l141 511h128l136 -506l118 506h122l-170 -680h-130l-144 511l-145 -511h-136z" />
    <glyph glyph-name="X" unicode="X" horiz-adv-x="721" 
d="M-3 0l285 348l-270 332h154l198 -247l197 247h147l-269 -329l284 -351h-153l-214 267l-211 -267h-148z" />
    <glyph glyph-name="Y" unicode="Y" horiz-adv-x="723" 
d="M299 0v250l-289 430h144l212 -321l212 321h135l-289 -430v-250h-125z" />
    <glyph glyph-name="Z" unicode="Z" horiz-adv-x="641" 
d="M30 0v89l408 488h-393v103h554v-89l-408 -488h423v-103h-584z" />
    <glyph glyph-name="bracketleft" unicode="[" horiz-adv-x="391" 
d="M82 -200v940h285v-94h-165v-752h165v-94h-285z" />
    <glyph glyph-name="backslash" unicode="\" horiz-adv-x="477" 
d="M333 -200l-311 940h124l311 -940h-124z" />
    <glyph glyph-name="bracketright" unicode="]" horiz-adv-x="391" 
d="M24 -200v94h165v752h-165v94h285v-940h-285z" />
    <glyph glyph-name="asciicircum" unicode="^" horiz-adv-x="620" 
d="M37 255l222 425h102l222 -425h-112l-161 312l-161 -312h-112z" />
    <glyph glyph-name="underscore" unicode="_" horiz-adv-x="500" 
d="M0 -168v108h500v-108h-500z" />
    <glyph glyph-name="grave" unicode="`" horiz-adv-x="292" 
d="M160 580l-137 175h124l116 -175h-103z" />
    <glyph glyph-name="a" unicode="a" horiz-adv-x="572" 
d="M195 -10q-73 0 -116.5 40t-43.5 107q0 73 48 111.5t155 51.5l149 19v3q0 52 -19.5 75.5t-62.5 23.5q-26 0 -62.5 -11t-102.5 -39l-58 -24v106l36 15q66 28 115.5 41t92.5 13q88 0 133 -48t45 -140v-334h-115v79l-3 -3q-56 -46 -100 -66t-91 -20zM155 150q0 -29 18 -46
t48 -17q32 0 67.5 17t87.5 57l11 9v76l-132 -21q-55 -9 -77.5 -26t-22.5 -49z" />
    <glyph glyph-name="b" unicode="b" horiz-adv-x="642" 
d="M75 0v740h121v-303q59 46 103 65.5t88 19.5q64 0 112 -32.5t75 -90t27 -135.5v-17q0 -77 -27 -134.5t-74.5 -90t-111.5 -32.5q-46 0 -91 20t-103 65v-75h-119zM356 420q-32 0 -68.5 -19t-91.5 -62v-166q55 -44 91.5 -62.5t68.5 -18.5q55 0 87.5 43t32.5 114v13
q0 72 -32.5 115t-87.5 43z" />
    <glyph glyph-name="c" unicode="c" horiz-adv-x="536" 
d="M260 -10q-66 0 -115 31t-76 87.5t-27 132.5v30q0 74 28 130.5t78 88.5t114 32q46 0 89 -15t100 -50l37 -22v-112l-48 31q-57 38 -92.5 53.5t-67.5 15.5q-53 0 -83.5 -41t-30.5 -113v-26q0 -73 29 -113.5t82 -40.5q31 0 68 17t97 59l50 35v-116l-32 -21q-107 -73 -200 -73
z" />
    <glyph glyph-name="d" unicode="d" horiz-adv-x="641" 
d="M256 -10q-64 0 -112.5 32t-75 90t-26.5 135v17q0 77 26.5 135t74.5 90.5t111 32.5q46 0 90.5 -20t102.5 -64v302h121v-740h-119v76q-60 -46 -104.5 -66t-88.5 -20zM166 249q0 -71 33 -114t87 -43q33 0 69.5 18.5t91.5 62.5v166q-56 44 -92 62.5t-69 18.5q-54 0 -87 -43
t-33 -115v-13z" />
    <glyph glyph-name="e" unicode="e" horiz-adv-x="585" 
d="M279 -10q-72 0 -125.5 30.5t-82.5 86.5t-29 130v26q0 77 32 135.5t89.5 91t133.5 32.5q75 0 130 -29t85 -82.5t30 -126.5v-63h-380q4 -62 39 -96.5t95 -34.5q37 0 75.5 11.5t91.5 36.5l62 29v-106l-35 -15q-57 -29 -107 -42.5t-104 -13.5zM294 427q-56 0 -89.5 -33
t-41.5 -94h260q-4 61 -37.5 94t-91.5 33z" />
    <glyph glyph-name="f" unicode="f" horiz-adv-x="477" 
d="M129 0v388h-107v98h107v94q0 80 45 125t124 45q32 0 64 -7.5t78 -25.5l26 -11v-105l-37 16q-45 18 -67.5 24t-43.5 6q-68 0 -68 -83v-78h216v-98h-216v-388h-121z" />
    <glyph glyph-name="g" unicode="g" horiz-adv-x="644" 
d="M254 10q-63 0 -111 31t-74.5 87t-26.5 130v14q0 75 26.5 131.5t74.5 87.5t112 31q43 0 89 -21t109 -71v82h119v-505q0 -105 -57.5 -161t-164.5 -56q-53 0 -109.5 14.5t-122.5 40.5l-44 18v113l65 -29q65 -29 111 -43t86 -14q115 0 115 129v81q-62 -49 -107.5 -69.5
t-89.5 -20.5zM166 260q0 -68 32 -108.5t86 -40.5q31 0 69 19.5t94 64.5l4 2v136l-4 3q-56 45 -94 64.5t-69 19.5q-54 0 -86 -40t-32 -110v-10z" />
    <glyph glyph-name="h" unicode="h" horiz-adv-x="619" 
d="M75 0v740h121v-308l6 5q53 45 96 65t90 20q75 0 119 -50.5t44 -138.5v-333h-121v314q0 50 -21.5 77t-62.5 27q-27 0 -58 -15.5t-74 -52.5l-18 -15v-335h-121z" />
    <glyph glyph-name="i" unicode="i" horiz-adv-x="267" 
d="M65 599v129h137v-129h-137zM73 0v512h121v-512h-121z" />
    <glyph glyph-name="j" unicode="j" horiz-adv-x="267" 
d="M65 599v129h137v-129h-137zM81 -210q-45 0 -92 21l-20 10v99l25 -12q34 -15 50 -15t22.5 7.5t6.5 25.5v586h121v-600q0 -59 -29 -90.5t-84 -31.5z" />
    <glyph glyph-name="k" unicode="k" horiz-adv-x="588" 
d="M75 0v740h121v-455l238 227h147l-237 -220l247 -292h-153l-182 223l-60 -56v-167h-121z" />
    <glyph glyph-name="l" unicode="l" horiz-adv-x="311" 
d="M178 -10q-108 0 -108 122v628h121v-607q0 -20 5.5 -28t19.5 -8q10 0 23 5.5t37 19.5l21 13v-105l-13 -8q-58 -32 -106 -32z" />
    <glyph glyph-name="m" unicode="m" horiz-adv-x="905" 
d="M73 0v512h119v-77l4 3q55 46 94 65t79 19q99 0 130 -97l16 14q54 47 92.5 65t78.5 18q72 0 111.5 -48t39.5 -136v-338h-121v320q0 98 -65 98q-23 0 -47.5 -13.5t-71.5 -52.5l-16 -14v-338h-121v320q0 98 -65 98q-23 0 -47.5 -13.5t-71.5 -52.5l-17 -14v-338h-121z" />
    <glyph glyph-name="n" unicode="n" horiz-adv-x="617" 
d="M73 0v512h119v-82l11 9q53 44 95 63.5t88 19.5q75 0 119 -50.5t44 -138.5v-333h-121v314q0 50 -21.5 77t-61.5 27q-28 0 -58.5 -15.5t-73.5 -51.5l-19 -17v-334h-121z" />
    <glyph glyph-name="o" unicode="o" horiz-adv-x="619" 
d="M310 -10q-82 0 -142.5 31t-93 87.5t-32.5 134.5v26q0 77 32.5 134t93 88t142.5 31t142 -31t93 -88t33 -134v-26q0 -78 -33 -134.5t-93 -87.5t-142 -31zM310 89q68 0 106 41t38 115v22q0 73 -38 114.5t-106 41.5q-69 0 -106.5 -41.5t-37.5 -114.5v-22q0 -74 37.5 -115
t106.5 -41z" />
    <glyph glyph-name="p" unicode="p" horiz-adv-x="641" 
d="M73 -200v712h119v-76q60 46 104.5 66t88.5 20q64 0 112 -32.5t75 -90t27 -135.5v-17q0 -77 -26.5 -134.5t-74.5 -90t-112 -32.5q-45 0 -89.5 19.5t-102.5 64.5v-274h-121zM354 420q-32 0 -68.5 -19t-91.5 -62v-166q55 -44 91.5 -62.5t68.5 -18.5q55 0 88 43t33 114v13
q0 72 -33 115t-88 43z" />
    <glyph glyph-name="q" unicode="q" horiz-adv-x="641" 
d="M256 -10q-64 0 -112.5 32t-75 90t-26.5 135v17q0 77 26.5 135t74.5 90.5t111 32.5q46 0 91 -20t104 -66v76h119v-712h-121v275q-59 -46 -103 -65.5t-88 -19.5zM166 249q0 -71 33 -114t87 -43q33 0 69.5 18.5t91.5 62.5v166q-55 43 -91.5 62t-69.5 19q-54 0 -87 -43
t-33 -115v-13z" />
    <glyph glyph-name="r" unicode="r" horiz-adv-x="414" 
d="M73 0v512h119v-98l29 21q60 43 99 62.5t76 24.5v-118q-46 -7 -85.5 -21.5t-84.5 -41.5l-32 -19v-322h-121z" />
    <glyph glyph-name="s" unicode="s" horiz-adv-x="533" 
d="M311 -10q-47 0 -103 14.5t-127 44.5l-39 16v104l78 -33q116 -52 183 -52q36 0 56 14.5t20 41.5q0 25 -15 37t-53 20l-102 20q-83 15 -120 50.5t-37 98.5q0 72 49 114t133 42q40 0 83 -10t110 -35l45 -16v-103l-72 28q-59 24 -94 33t-65 9q-35 0 -53.5 -14.5t-18.5 -40.5
q0 -24 15.5 -36t56.5 -20l113 -21q74 -14 107.5 -49.5t33.5 -98.5q0 -74 -48.5 -116t-135.5 -42z" />
    <glyph glyph-name="t" unicode="t" horiz-adv-x="527" 
d="M271 -10q-72 0 -110 40.5t-38 116.5v241h-104v98h104v171h121v-171h251v-98h-251v-221q0 -69 52 -69q25 0 50 13t67 47l82 64v-121l-39 -30q-56 -44 -98 -62.5t-87 -18.5z" />
    <glyph glyph-name="u" unicode="u" horiz-adv-x="602" 
d="M224 -10q-75 0 -115.5 48t-40.5 136v338h121v-319q0 -100 72 -100q26 0 55 16t68 47l24 20v336h121v-512h-119v80l-9 -7q-54 -46 -94.5 -64.5t-82.5 -18.5z" />
    <glyph glyph-name="v" unicode="v" horiz-adv-x="569" 
d="M225 0l-214 512h130l148 -376l146 376h123l-214 -512h-119z" />
    <glyph glyph-name="w" unicode="w" horiz-adv-x="799" 
d="M165 0l-148 512h124l95 -362l108 362h120l107 -362l96 362h115l-147 -512h-117l-118 376l-117 -376h-118z" />
    <glyph glyph-name="x" unicode="x" horiz-adv-x="575" 
d="M-1 0l216 264l-199 248h146l129 -171l130 171h138l-200 -244l217 -268h-146l-147 188l-145 -188h-139z" />
    <glyph glyph-name="y" unicode="y" horiz-adv-x="569" 
d="M162 -210q-44 0 -87 22l-13 7v107l26 -14q20 -10 32.5 -13.5t23.5 -3.5q18 0 30.5 11.5t26.5 41.5l24 54l-214 510h130l148 -374l146 374h123l-252 -596q-29 -70 -61 -98t-83 -28z" />
    <glyph glyph-name="z" unicode="z" horiz-adv-x="530" 
d="M32 0v83l298 331h-281v98h434v-83l-298 -331h315v-98h-468z" />
    <glyph glyph-name="braceleft" unicode="{" horiz-adv-x="372" 
d="M342 -205l-60 10q-70 13 -111.5 31.5t-59.5 48.5t-18 76q0 28 8.5 63.5t16.5 68.5t8 55q0 25 -13.5 39t-52.5 27l-42 14v84l42 14q39 13 52.5 27t13.5 39q0 22 -8 55.5t-16.5 68.5t-8.5 63q0 47 18 76.5t59 48.5t112 31l60 10v-93l-52 -11q-38 -8 -57.5 -21t-19.5 -47
q0 -24 8.5 -58.5t16.5 -69.5t8 -58q0 -46 -24.5 -71t-74.5 -44l-7 -2l7 -2q50 -19 74.5 -44t24.5 -71q0 -23 -8 -58t-16.5 -69.5t-8.5 -57.5q0 -35 19.5 -48t57.5 -21l52 -11v-93z" />
    <glyph glyph-name="bar" unicode="|" horiz-adv-x="285" 
d="M82 -200v940h120v-940h-120z" />
    <glyph glyph-name="braceright" unicode="}" horiz-adv-x="372" 
d="M29 -205v93l53 11q37 8 56.5 21t19.5 48q0 23 -8 57.5t-16.5 69.5t-8.5 58q0 46 24.5 71t75.5 44l6 2l-6 2q-51 19 -75.5 44t-24.5 71q0 23 8.5 58t16.5 69.5t8 58.5q0 34 -19.5 47t-56.5 21l-53 11v93l61 -10q70 -12 111.5 -31t59.5 -48.5t18 -76.5q0 -28 -8.5 -63
t-16.5 -68.5t-8 -55.5q0 -25 13.5 -39t51.5 -27l42 -14v-84l-42 -14q-38 -13 -51.5 -27t-13.5 -39q0 -22 8 -55t16.5 -68.5t8.5 -63.5q0 -46 -18 -76t-59.5 -48.5t-111.5 -31.5z" />
    <glyph glyph-name="asciitilde" unicode="~" horiz-adv-x="620" 
d="M408 233q-34 0 -61 14.5t-49.5 33.5t-44 33.5t-44.5 14.5q-16 0 -31.5 -7.5t-42.5 -27.5l-58 -43v115l26 19q35 24 60.5 35t50.5 11q33 0 59.5 -14.5t49 -33.5t44.5 -33.5t47 -14.5q16 0 31 7t42 28l58 43v-115l-26 -19q-34 -24 -59.5 -35t-51.5 -11z" />
    <glyph glyph-name="uni00A0" unicode="&#xa0;" horiz-adv-x="265" 
 />
    <glyph glyph-name="exclamdown" unicode="&#xa1;" horiz-adv-x="275" 
d="M64 379v133h148v-133h-148zM71 -168l19 485h95l19 -485h-133z" />
    <glyph glyph-name="cent" unicode="&#xa2;" horiz-adv-x="620" 
d="M261 0l11 86q-61 5 -106.5 35.5t-71 81.5t-25.5 117v30q0 68 29.5 121t80.5 83.5t116 30.5q20 0 39 -3l11 88h78l-13 -107q43 -16 102 -46l33 -16v-106l-54 28q-58 31 -93 45l-35 -277q46 12 132 58l55 28v-106l-33 -17q-96 -50 -167 -63l-11 -91h-78zM194 322
q0 -56 23.5 -91t66.5 -44l38 299h-8q-59 0 -89.5 -35.5t-30.5 -102.5v-26z" />
    <glyph glyph-name="sterling" unicode="&#xa3;" horiz-adv-x="620" 
d="M53 0v98l40 24q40 24 56.5 46.5t16.5 52.5q0 15 -5 32h-108v71h76q-20 36 -39 77t-19 89q0 56 27 99t74.5 67t109.5 24q52 0 106 -20.5t134 -71.5l30 -19v-118l-71 45q-68 45 -110 62.5t-78 17.5q-45 0 -71.5 -25t-26.5 -69q0 -40 20.5 -80t41.5 -78h255v-71h-225
q4 -15 3 -27q-1 -71 -77 -124h357v-102h-517z" />
    <glyph glyph-name="currency" unicode="&#xa4;" horiz-adv-x="620" 
d="M91 32l-61 59l77 79q-26 30 -40 68.5t-14 82.5v23q0 44 14 82.5t40 68.5l-77 79l61 59l85 -84q59 31 134 31t134 -31l85 84l61 -59l-77 -79q26 -30 40 -68.5t14 -82.5v-23q0 -44 -14 -82.5t-40 -68.5l77 -79l-61 -59l-85 84q-59 -31 -134 -31t-134 31zM310 185
q62 0 99 38.5t37 100.5v17q0 62 -37 100.5t-99 38.5q-63 0 -99.5 -38.5t-36.5 -100.5v-17q0 -62 36.5 -100.5t99.5 -38.5z" />
    <glyph glyph-name="yen" unicode="&#xa5;" horiz-adv-x="620" 
d="M70 125v71h182v74h-182v71h138l-192 329h135l164 -295l162 295h126l-189 -329h136v-71h-179v-74h179v-71h-179v-125h-119v125h-182z" />
    <glyph glyph-name="brokenbar" unicode="&#xa6;" horiz-adv-x="285" 
d="M82 393v347h120v-347h-120zM82 -200v347h120v-347h-120z" />
    <glyph glyph-name="section" unicode="&#xa7;" horiz-adv-x="588" 
d="M324 -210q-49 0 -101.5 12t-113.5 37l-45 18v105l74 -30q52 -23 97 -35t82 -12q82 0 82 66q0 28 -20 45t-73 35l-117 40q-83 29 -118.5 67t-35.5 99q0 51 29 87.5t98 70.5q-41 26 -60 58.5t-19 76.5q0 75 51 120t136 45q44 0 94 -11.5t112 -35.5l44 -16v-105l-73 29
q-63 25 -99.5 34.5t-69.5 9.5q-37 0 -58 -17t-21 -48q0 -26 19.5 -44t64.5 -34l118 -40q81 -28 115.5 -66t34.5 -99q0 -51 -28 -87.5t-95 -70.5q48 -25 68 -57.5t20 -80.5q0 -78 -50.5 -122t-141.5 -44zM237 167l84 -29l24 11q48 22 69 43t21 48q0 31 -18.5 48t-69.5 35
l-80 28l-26 -12q-49 -22 -69.5 -42t-20.5 -48t20 -47t66 -35z" />
    <glyph glyph-name="dieresis" unicode="&#xa8;" horiz-adv-x="405" 
d="M260 601v121h116v-121h-116zM22 601v121h116v-121h-116z" />
    <glyph glyph-name="copyright" unicode="&#xa9;" horiz-adv-x="835" 
d="M418 -15q-81 0 -149.5 25.5t-119 72.5t-78 110t-27.5 138v18q0 75 27.5 138t78 110t119 72.5t149.5 25.5t149 -25.5t118.5 -72.5t78 -110t27.5 -138v-18q0 -75 -27.5 -138t-78 -110t-118.5 -72.5t-149 -25.5zM418 62q82 0 146 35t100.5 96.5t36.5 141.5v10
q0 80 -36.5 141.5t-100.5 96.5t-146 35q-83 0 -147 -35t-100.5 -96.5t-36.5 -141.5v-10q0 -80 36.5 -141.5t100.5 -96.5t147 -35zM402 146q-51 0 -90 24t-61 67t-22 98v10q0 55 22.5 97.5t61.5 67t88 24.5q36 0 74 -12t88 -40l25 -13v-92l-35 19q-39 21 -64 32.5t-43 16
t-36 4.5q-39 0 -60 -27.5t-21 -77.5v-8q0 -49 21.5 -77t60.5 -28q30 0 64.5 13t83.5 44l36 22v-92l-26 -16q-50 -30 -88.5 -43t-78.5 -13z" />
    <glyph glyph-name="ordfeminine" unicode="&#xaa;" horiz-adv-x="515" 
d="M186 304q-62 0 -98.5 32.5t-36.5 89.5q0 60 41 92.5t131 44.5l124 15v1q0 43 -15.5 62t-51.5 19q-22 0 -54 -9.5t-88 -32.5l-48 -20v92l30 12q109 45 177 45q151 0 151 -157v-279h-99v63l-2 -2q-44 -36 -83 -52t-78 -16zM155 438q0 -25 14.5 -38t38.5 -13q26 0 56 12.5
t74 46.5l9 7v63l-110 -17q-44 -7 -63 -20t-19 -41zM61 146v101h387v-101h-387z" />
    <glyph glyph-name="guillemotleft" unicode="&#xab;" horiz-adv-x="515" 
d="M244 56l-204 167v85l204 168v-105l-117 -104l117 -107v-104zM457 56l-186 167v85l186 168v-105l-103 -104l103 -107v-104z" />
    <glyph glyph-name="logicalnot" unicode="&#xac;" horiz-adv-x="620" 
d="M71 343v99h468v-268h-104v169h-364z" />
    <glyph glyph-name="uni00AD" unicode="&#xad;" horiz-adv-x="431" 
d="M61 224v113h309v-113h-309z" />
    <glyph glyph-name="registered" unicode="&#xae;" horiz-adv-x="521" 
d="M261 271q-63 0 -113 27t-79 73.5t-29 103.5v10q0 58 29 104.5t79 73.5t113 27q62 0 112 -27t79 -73.5t29 -104.5v-10q0 -57 -29 -103.5t-79 -73.5t-112 -27zM261 323q72 0 116 42.5t44 111.5v6q0 70 -44 112t-116 42q-73 0 -117 -42t-44 -112v-6q0 -69 44 -111.5
t117 -42.5zM163 373v214h120q82 0 82 -71q0 -43 -38 -59l46 -84h-66l-37 72h-49v-72h-58zM221 493h55q27 0 27 23q0 24 -27 24h-55v-47z" />
    <glyph glyph-name="macron" unicode="&#xaf;" horiz-adv-x="437" 
d="M22 610v89h386v-89h-386z" />
    <glyph glyph-name="degree" unicode="&#xb0;" horiz-adv-x="432" 
d="M216 403q-52 0 -92.5 22t-64 61.5t-23.5 89.5q0 51 23.5 90t64.5 61t92 22t92 -22t64.5 -61t23.5 -90q0 -50 -23.5 -89.5t-64 -61.5t-92.5 -22zM216 486q38 0 62.5 25t24.5 66q0 40 -24.5 64.5t-62.5 24.5q-39 0 -63 -24.5t-24 -64.5q0 -41 24 -66t63 -25z" />
    <glyph glyph-name="plusminus" unicode="&#xb1;" horiz-adv-x="620" 
d="M258 204v170h-182v99h182v170h104v-170h182v-99h-182v-170h-104zM76 39v99h468v-99h-468z" />
    <glyph glyph-name="uni00B2" unicode="&#xb2;" horiz-adv-x="388" 
d="M31 446v78l151 82q38 20 54 37.5t16 40.5q0 24 -13.5 38.5t-37.5 14.5q-16 0 -38 -9.5t-64 -35.5l-57 -36v90l25 16q50 33 82.5 45.5t64.5 12.5q58 0 95 -34t37 -89q0 -45 -24 -75.5t-85 -62.5l-64 -33h184v-80h-326z" />
    <glyph glyph-name="uni00B3" unicode="&#xb3;" horiz-adv-x="390" 
d="M228 441q-66 0 -166 38l-27 10v79l36 -14q54 -20 84 -28.5t55 -8.5q47 0 47 40q0 39 -60 39h-99v69h90q60 0 60 41q0 38 -47 38q-11 0 -24.5 -3t-36 -10t-62.5 -22l-38 -13v78l32 12q46 16 82 25t65 9q60 0 94 -27t34 -74q0 -59 -49 -84q59 -22 59 -86q0 -52 -33.5 -80
t-95.5 -28z" />
    <glyph glyph-name="acute" unicode="&#xb4;" horiz-adv-x="292" 
d="M22 580l116 175h124l-137 -175h-103z" />
    <glyph glyph-name="uni00B5" unicode="&#xb5;" horiz-adv-x="607" 
d="M73 -200v712h121v-321q0 -50 17.5 -74t54.5 -24q27 0 56.5 16t68.5 49l22 18v336h121v-512h-119v77l-11 -10q-48 -41 -85 -59t-77 -18q-35 0 -59 16l13 -206h-123z" />
    <glyph glyph-name="paragraph" unicode="&#xb6;" horiz-adv-x="720" 
d="M324 -113v375h-56q-119 0 -180 57.5t-61 151.5q0 99 58.5 154t171.5 55h378v-793h-115v694h-81v-694h-115z" />
    <glyph glyph-name="periodcentered" unicode="&#xb7;" horiz-adv-x="275" 
d="M59 208v146h157v-146h-157z" />
    <glyph glyph-name="cedilla" unicode="&#xb8;" horiz-adv-x="293" 
d="M158 -227q-44 0 -105 18l-31 9v67l41 -13q30 -9 47 -12.5t34 -3.5q38 0 38 33q0 30 -46 30h-77v49l29 70l66 -2l-28 -63h29q108 0 108 -87q0 -45 -28 -70t-77 -25z" />
    <glyph glyph-name="uni00B9" unicode="&#xb9;" horiz-adv-x="310" 
d="M162 446v266l-137 -106v104l136 105h98v-369h-97z" />
    <glyph glyph-name="ordmasculine" unicode="&#xba;" horiz-adv-x="562" 
d="M281 304q-104 0 -165 57t-61 154v21q0 97 61 154t165 57t164.5 -57t60.5 -154v-21q0 -97 -60.5 -154t-164.5 -57zM281 388q56 0 86.5 34.5t30.5 94.5v17q0 60 -30.5 94t-86.5 34t-87 -34t-31 -94v-17q0 -60 31 -94.5t87 -34.5zM65 146v101h431v-101h-431z" />
    <glyph glyph-name="guillemotright" unicode="&#xbb;" horiz-adv-x="515" 
d="M271 56v104l116 104l-116 107v105l204 -168v-84zM57 56v104l104 104l-104 107v105l187 -168v-84z" />
    <glyph glyph-name="onequarter" unicode="&#xbc;" horiz-adv-x="824" 
d="M163 301v266l-137 -106v104l136 105h98v-369h-97zM184 0l312 670h87l-312 -670h-87zM653 0v78h-209v67l207 224h91v-220h60v-71h-60v-78h-89zM545 149h108v117z" />
    <glyph glyph-name="onehalf" unicode="&#xbd;" horiz-adv-x="855" 
d="M163 301v266l-137 -106v104l136 105h98v-369h-97zM184 0l312 670h87l-312 -670h-87zM479 0v78l151 82q38 20 54 37.5t16 40.5q0 24 -13.5 38.5t-37.5 14.5q-16 0 -38 -9.5t-64 -35.5l-57 -36v90l25 16q50 33 82.5 45.5t64.5 12.5q58 0 95 -34t37 -89q0 -45 -24 -75.5
t-85 -62.5l-64 -33h184v-80h-326z" />
    <glyph glyph-name="threequarters" unicode="&#xbe;" horiz-adv-x="892" 
d="M228 296q-66 0 -166 38l-27 10v79l36 -14q54 -20 84 -28.5t55 -8.5q47 0 47 40q0 39 -60 39h-99v69h90q60 0 60 41q0 38 -47 38q-11 0 -24.5 -3t-36 -10t-62.5 -22l-38 -13v78l32 12q46 16 82 25t65 9q60 0 94 -27t34 -74q0 -59 -49 -84q59 -22 59 -86q0 -52 -33.5 -80
t-95.5 -28zM252 0l312 670h87l-312 -670h-87zM721 0v78h-209v67l207 224h91v-220h60v-71h-60v-78h-89zM613 149h108v117z" />
    <glyph glyph-name="questiondown" unicode="&#xbf;" horiz-adv-x="543" 
d="M225 379v133h148v-133h-148zM250 -178q-64 0 -114 26t-79 71.5t-29 104.5q0 52 17.5 89.5t56.5 66.5t103 55l35 14l4 68h112l5 -127l-95 -38q-64 -26 -89 -53t-25 -72q0 -46 31 -75t77 -29q34 0 78.5 16.5t120.5 57.5l56 30v-115l-33 -18q-74 -40 -126.5 -56t-105.5 -16z
" />
    <glyph glyph-name="Agrave" unicode="&#xc0;" horiz-adv-x="735" 
d="M8 0l291 680h137l291 -680h-132l-71 171h-318l-71 -171h-127zM247 271h235l-119 283zM319 725l-141 145h130l118 -145h-107z" />
    <glyph glyph-name="Aacute" unicode="&#xc1;" horiz-adv-x="735" 
d="M8 0l291 680h137l291 -680h-132l-71 171h-318l-71 -171h-127zM247 271h235l-119 283zM310 725l118 145h130l-141 -145h-107z" />
    <glyph glyph-name="Acircumflex" unicode="&#xc2;" horiz-adv-x="735" 
d="M8 0l291 680h137l291 -680h-132l-71 171h-318l-71 -171h-127zM247 271h235l-119 283zM181 725l135 145h103l135 -145h-101l-85 73l-86 -73h-101z" />
    <glyph glyph-name="Atilde" unicode="&#xc3;" horiz-adv-x="735" 
d="M8 0l291 680h137l291 -680h-132l-71 171h-318l-71 -171h-127zM247 271h235l-119 283zM447 722q-33 0 -80 26l-41 22q-21 12 -34 12t-21 -8.5t-15 -28.5l-6 -20h-80l11 36q15 54 37.5 78t59.5 24q32 0 80 -26l40 -22q13 -7 20.5 -9.5t14.5 -2.5q12 0 20.5 8.5t14.5 28.5
l6 20h80l-10 -36q-16 -55 -38.5 -78.5t-58.5 -23.5z" />
    <glyph glyph-name="Adieresis" unicode="&#xc4;" horiz-adv-x="735" 
d="M8 0l291 680h137l291 -680h-132l-71 171h-318l-71 -171h-127zM247 271h235l-119 283zM430 738v119h116v-119h-116zM190 738v119h116v-119h-116z" />
    <glyph glyph-name="Aring" unicode="&#xc5;" horiz-adv-x="735" 
d="M8 0l291 680h137l291 -680h-132l-71 171h-318l-71 -171h-127zM247 271h235l-119 283zM368 718q-59 0 -96 30.5t-37 79.5v4q0 49 37 79.5t96 30.5t96 -30.5t37 -79.5v-4q0 -49 -37 -79.5t-96 -30.5zM368 778q29 0 45.5 13t16.5 39t-16.5 39t-45.5 13t-45.5 -13t-16.5 -39
t16.5 -39t45.5 -13z" />
    <glyph glyph-name="AE" unicode="&#xc6;" horiz-adv-x="1026" 
d="M8 0l353 680h609v-103h-360v-186h345v-101h-345v-187h360v-103h-484v186h-253l-95 -186h-130zM285 286h201v291h-51z" />
    <glyph glyph-name="Ccedilla" unicode="&#xc7;" horiz-adv-x="696" 
d="M349 -15q-91 0 -159.5 43t-106 121t-37.5 181v20q0 103 38 181t106.5 121t160.5 43q59 0 117 -19.5t130 -62.5l48 -29v-123l-94 57q-65 39 -107.5 56t-82.5 17q-86 0 -136 -66t-50 -179v-12q0 -113 49.5 -179t135.5 -66q43 0 92 20t111 60l89 58v-125l-42 -27
q-73 -48 -137 -69t-125 -21zM385 -227q-43 0 -107 18l-33 9v67l43 -13q54 -16 83 -16q39 0 39 33q0 30 -47 30h-80v43l38 76l69 -2l-32 -63h24q112 0 112 -87q0 -45 -28.5 -70t-80.5 -25z" />
    <glyph glyph-name="Egrave" unicode="&#xc8;" horiz-adv-x="646" 
d="M85 0v680h506v-103h-383v-186h368v-101h-368v-187h383v-103h-506zM295 725l-141 145h130l118 -145h-107z" />
    <glyph glyph-name="Eacute" unicode="&#xc9;" horiz-adv-x="646" 
d="M85 0v680h506v-103h-383v-186h368v-101h-368v-187h383v-103h-506zM286 725l118 145h130l-141 -145h-107z" />
    <glyph glyph-name="Ecircumflex" unicode="&#xca;" horiz-adv-x="646" 
d="M85 0v680h506v-103h-383v-186h368v-101h-368v-187h383v-103h-506zM157 725l135 145h103l135 -145h-101l-85 73l-86 -73h-101z" />
    <glyph glyph-name="Edieresis" unicode="&#xcb;" horiz-adv-x="646" 
d="M85 0v680h506v-103h-383v-186h368v-101h-368v-187h383v-103h-506zM406 738v119h116v-119h-116zM166 738v119h116v-119h-116z" />
    <glyph glyph-name="Igrave" unicode="&#xcc;" horiz-adv-x="295" 
d="M85 0v680h125v-680h-125zM98 725l-141 145h130l118 -145h-107z" />
    <glyph glyph-name="Iacute" unicode="&#xcd;" horiz-adv-x="294" 
d="M85 0v680h125v-680h-125zM89 725l118 145h130l-141 -145h-107z" />
    <glyph glyph-name="Icircumflex" unicode="&#xce;" horiz-adv-x="295" 
d="M85 0v680h125v-680h-125zM-40 725l135 145h103l135 -145h-101l-85 73l-86 -73h-101z" />
    <glyph glyph-name="Idieresis" unicode="&#xcf;" horiz-adv-x="295" 
d="M85 0v680h125v-680h-125zM209 738v119h116v-119h-116zM-31 738v119h116v-119h-116z" />
    <glyph glyph-name="Eth" unicode="&#xd0;" horiz-adv-x="791" 
d="M108 0v301h-90v78h90v301h292q100 0 178 -37t123 -109.5t45 -179.5v-28q0 -107 -45 -179.5t-123 -109.5t-178 -37h-292zM380 301h-147v-200h162q100 0 160 58.5t60 172.5v16q0 114 -60 172.5t-160 58.5h-162v-200h147v-78z" />
    <glyph glyph-name="Ntilde" unicode="&#xd1;" horiz-adv-x="773" 
d="M570 680h118v-680h-123l-363 492v-492h-117v680h124l361 -492v492zM466 722q-33 0 -80 26l-41 22q-21 12 -34 12t-21 -8.5t-15 -28.5l-6 -20h-80l11 36q15 54 37.5 78t59.5 24q32 0 80 -26l40 -22q13 -7 20.5 -9.5t14.5 -2.5q12 0 20.5 8.5t14.5 28.5l6 20h80l-10 -36
q-16 -55 -38.5 -78.5t-58.5 -23.5z" />
    <glyph glyph-name="Ograve" unicode="&#xd2;" horiz-adv-x="796" 
d="M398 -15q-105 0 -184.5 43t-123.5 119.5t-44 178.5v28q0 102 44 178.5t123.5 119.5t184.5 43t184.5 -43t123.5 -119.5t44 -178.5v-28q0 -102 -44 -178.5t-123.5 -119.5t-184.5 -43zM398 89q103 0 162.5 65.5t59.5 177.5v16q0 112 -59.5 177.5t-162.5 65.5t-162.5 -65.5
t-59.5 -177.5v-16q0 -112 59.5 -177.5t162.5 -65.5zM349 725l-141 145h130l118 -145h-107z" />
    <glyph glyph-name="Oacute" unicode="&#xd3;" horiz-adv-x="796" 
d="M398 -15q-105 0 -184.5 43t-123.5 119.5t-44 178.5v28q0 102 44 178.5t123.5 119.5t184.5 43t184.5 -43t123.5 -119.5t44 -178.5v-28q0 -102 -44 -178.5t-123.5 -119.5t-184.5 -43zM398 89q103 0 162.5 65.5t59.5 177.5v16q0 112 -59.5 177.5t-162.5 65.5t-162.5 -65.5
t-59.5 -177.5v-16q0 -112 59.5 -177.5t162.5 -65.5zM340 725l118 145h130l-141 -145h-107z" />
    <glyph glyph-name="Ocircumflex" unicode="&#xd4;" horiz-adv-x="796" 
d="M398 -15q-105 0 -184.5 43t-123.5 119.5t-44 178.5v28q0 102 44 178.5t123.5 119.5t184.5 43t184.5 -43t123.5 -119.5t44 -178.5v-28q0 -102 -44 -178.5t-123.5 -119.5t-184.5 -43zM398 89q103 0 162.5 65.5t59.5 177.5v16q0 112 -59.5 177.5t-162.5 65.5t-162.5 -65.5
t-59.5 -177.5v-16q0 -112 59.5 -177.5t162.5 -65.5zM211 725l135 145h103l135 -145h-101l-85 73l-86 -73h-101z" />
    <glyph glyph-name="Otilde" unicode="&#xd5;" horiz-adv-x="796" 
d="M398 -15q-105 0 -184.5 43t-123.5 119.5t-44 178.5v28q0 102 44 178.5t123.5 119.5t184.5 43t184.5 -43t123.5 -119.5t44 -178.5v-28q0 -102 -44 -178.5t-123.5 -119.5t-184.5 -43zM398 89q103 0 162.5 65.5t59.5 177.5v16q0 112 -59.5 177.5t-162.5 65.5t-162.5 -65.5
t-59.5 -177.5v-16q0 -112 59.5 -177.5t162.5 -65.5zM477 722q-33 0 -80 26l-41 22q-21 12 -34 12t-21 -8.5t-15 -28.5l-6 -20h-80l11 36q15 54 37.5 78t59.5 24q32 0 80 -26l40 -22q13 -7 20.5 -9.5t14.5 -2.5q12 0 20.5 8.5t14.5 28.5l6 20h80l-10 -36q-16 -55 -38.5 -78.5
t-58.5 -23.5z" />
    <glyph glyph-name="Odieresis" unicode="&#xd6;" horiz-adv-x="796" 
d="M398 -15q-105 0 -184.5 43t-123.5 119.5t-44 178.5v28q0 102 44 178.5t123.5 119.5t184.5 43t184.5 -43t123.5 -119.5t44 -178.5v-28q0 -102 -44 -178.5t-123.5 -119.5t-184.5 -43zM398 89q103 0 162.5 65.5t59.5 177.5v16q0 112 -59.5 177.5t-162.5 65.5t-162.5 -65.5
t-59.5 -177.5v-16q0 -112 59.5 -177.5t162.5 -65.5zM460 738v119h116v-119h-116zM220 738v119h116v-119h-116z" />
    <glyph glyph-name="multiply" unicode="&#xd7;" horiz-adv-x="620" 
d="M167 120l-70 69l144 144l-144 144l69 68l143 -144l144 144l69 -69l-143 -144l143 -144l-68 -68l-144 144z" />
    <glyph glyph-name="Oslash" unicode="&#xd8;" horiz-adv-x="796" 
d="M56 -35l89 113q-47 45 -73 108t-26 140v28q0 102 44 178.5t123.5 119.5t184.5 43q55 0 103 -12t88 -35l48 60h103l-86 -109q46 -45 71 -107.5t25 -137.5v-28q0 -102 -44 -178.5t-123.5 -119.5t-184.5 -43q-53 0 -100.5 11.5t-86.5 33.5l-52 -65h-103zM176 332
q0 -98 45 -160l298 388q-51 31 -121 31q-103 0 -162.5 -65.5t-59.5 -177.5v-16zM398 89q103 0 162.5 65.5t59.5 177.5v16q0 95 -43 157l-297 -387q50 -29 118 -29z" />
    <glyph glyph-name="Ugrave" unicode="&#xd9;" horiz-adv-x="776" 
d="M388 -15q-153 0 -232 72t-79 211v412h125v-394q0 -103 44.5 -149.5t141.5 -46.5q98 0 142 46.5t44 149.5v394h125v-412q0 -139 -79 -211t-232 -72zM338 725l-141 145h130l118 -145h-107z" />
    <glyph glyph-name="Uacute" unicode="&#xda;" horiz-adv-x="776" 
d="M388 -15q-153 0 -232 72t-79 211v412h125v-394q0 -103 44.5 -149.5t141.5 -46.5q98 0 142 46.5t44 149.5v394h125v-412q0 -139 -79 -211t-232 -72zM329 725l118 145h130l-141 -145h-107z" />
    <glyph glyph-name="Ucircumflex" unicode="&#xdb;" horiz-adv-x="776" 
d="M388 -15q-153 0 -232 72t-79 211v412h125v-394q0 -103 44.5 -149.5t141.5 -46.5q98 0 142 46.5t44 149.5v394h125v-412q0 -139 -79 -211t-232 -72zM200 725l135 145h103l135 -145h-101l-85 73l-86 -73h-101z" />
    <glyph glyph-name="Udieresis" unicode="&#xdc;" horiz-adv-x="776" 
d="M388 -15q-153 0 -232 72t-79 211v412h125v-394q0 -103 44.5 -149.5t141.5 -46.5q98 0 142 46.5t44 149.5v394h125v-412q0 -139 -79 -211t-232 -72zM449 738v119h116v-119h-116zM209 738v119h116v-119h-116z" />
    <glyph glyph-name="Yacute" unicode="&#xdd;" horiz-adv-x="723" 
d="M299 0v250l-289 430h144l212 -321l212 321h135l-289 -430v-250h-125zM305 725l118 145h130l-141 -145h-107z" />
    <glyph glyph-name="Thorn" unicode="&#xde;" horiz-adv-x="682" 
d="M85 0v680h125v-133h213q111 0 170.5 -52t59.5 -154q0 -100 -63.5 -154t-177.5 -54h-202v-133h-125zM406 446h-196v-212h196q55 0 86 28t31 79q0 105 -117 105z" />
    <glyph glyph-name="germandbls" unicode="&#xdf;" horiz-adv-x="657" 
d="M425 -10q-32 0 -69.5 9.5t-74.5 30.5l-25 14v105l39 -21q41 -23 67.5 -30.5t49.5 -7.5q40 0 61.5 26t21.5 71q0 48 -31.5 74.5t-101.5 36.5l-62 8v79l57 55q39 37 55 65t16 58q0 40 -30.5 63t-83.5 23q-56 0 -86.5 -29t-30.5 -84v-536h-122v550q0 94 63 147t178 53
q108 0 172.5 -47t64.5 -127q0 -42 -23.5 -83t-76.5 -87l-23 -22q189 -34 189 -195q0 -92 -52 -145.5t-142 -53.5z" />
    <glyph glyph-name="agrave" unicode="&#xe0;" horiz-adv-x="572" 
d="M195 -10q-73 0 -116.5 40t-43.5 107q0 73 48 111.5t155 51.5l149 19v3q0 52 -19.5 75.5t-62.5 23.5q-26 0 -62.5 -11t-102.5 -39l-58 -24v106l36 15q66 28 115.5 41t92.5 13q88 0 133 -48t45 -140v-334h-115v79l-3 -3q-56 -46 -100 -66t-91 -20zM155 150q0 -29 18 -46
t48 -17q32 0 67.5 17t87.5 57l11 9v76l-132 -21q-55 -9 -77.5 -26t-22.5 -49zM235 580l-137 175h124l116 -175h-103z" />
    <glyph glyph-name="aacute" unicode="&#xe1;" horiz-adv-x="572" 
d="M195 -10q-73 0 -116.5 40t-43.5 107q0 73 48 111.5t155 51.5l149 19v3q0 52 -19.5 75.5t-62.5 23.5q-26 0 -62.5 -11t-102.5 -39l-58 -24v106l36 15q66 28 115.5 41t92.5 13q88 0 133 -48t45 -140v-334h-115v79l-3 -3q-56 -46 -100 -66t-91 -20zM155 150q0 -29 18 -46
t48 -17q32 0 67.5 17t87.5 57l11 9v76l-132 -21q-55 -9 -77.5 -26t-22.5 -49zM226 580l116 175h124l-137 -175h-103z" />
    <glyph glyph-name="acircumflex" unicode="&#xe2;" horiz-adv-x="572" 
d="M195 -10q-73 0 -116.5 40t-43.5 107q0 73 48 111.5t155 51.5l149 19v3q0 52 -19.5 75.5t-62.5 23.5q-26 0 -62.5 -11t-102.5 -39l-58 -24v106l36 15q66 28 115.5 41t92.5 13q88 0 133 -48t45 -140v-334h-115v79l-3 -3q-56 -46 -100 -66t-91 -20zM155 150q0 -29 18 -46
t48 -17q32 0 67.5 17t87.5 57l11 9v76l-132 -21q-55 -9 -77.5 -26t-22.5 -49zM97 580l133 175h103l133 -175h-98l-86 95l-87 -95h-98z" />
    <glyph glyph-name="atilde" unicode="&#xe3;" horiz-adv-x="572" 
d="M195 -10q-73 0 -116.5 40t-43.5 107q0 73 48 111.5t155 51.5l149 19v3q0 52 -19.5 75.5t-62.5 23.5q-26 0 -62.5 -11t-102.5 -39l-58 -24v106l36 15q66 28 115.5 41t92.5 13q88 0 133 -48t45 -140v-334h-115v79l-3 -3q-56 -46 -100 -66t-91 -20zM155 150q0 -29 18 -46
t48 -17q32 0 67.5 17t87.5 57l11 9v76l-132 -21q-55 -9 -77.5 -26t-22.5 -49zM360 587q-32 0 -78 28l-34 21q-22 15 -35 15t-20 -8.5t-14 -31.5l-6 -21h-79l11 39q15 56 38.5 81t59.5 25q17 0 34.5 -6t43.5 -22l34 -21q22 -14 35 -14t20 8.5t14 31.5l6 20h79l-11 -39
q-15 -56 -38.5 -81t-59.5 -25z" />
    <glyph glyph-name="adieresis" unicode="&#xe4;" horiz-adv-x="572" 
d="M195 -10q-73 0 -116.5 40t-43.5 107q0 73 48 111.5t155 51.5l149 19v3q0 52 -19.5 75.5t-62.5 23.5q-26 0 -62.5 -11t-102.5 -39l-58 -24v106l36 15q66 28 115.5 41t92.5 13q88 0 133 -48t45 -140v-334h-115v79l-3 -3q-56 -46 -100 -66t-91 -20zM155 150q0 -29 18 -46
t48 -17q32 0 67.5 17t87.5 57l11 9v76l-132 -21q-55 -9 -77.5 -26t-22.5 -49zM343 601v121h116v-121h-116zM105 601v121h116v-121h-116z" />
    <glyph glyph-name="aring" unicode="&#xe5;" horiz-adv-x="572" 
d="M195 -10q-73 0 -116.5 40t-43.5 107q0 73 48 111.5t155 51.5l149 19v3q0 52 -19.5 75.5t-62.5 23.5q-26 0 -62.5 -11t-102.5 -39l-58 -24v106l36 15q66 28 115.5 41t92.5 13q88 0 133 -48t45 -140v-334h-115v79l-3 -3q-56 -46 -100 -66t-91 -20zM155 150q0 -29 18 -46
t48 -17q32 0 67.5 17t87.5 57l11 9v76l-132 -21q-55 -9 -77.5 -26t-22.5 -49zM283 575q-57 0 -93.5 32.5t-36.5 84.5v4q0 52 36.5 84.5t93.5 32.5q56 0 92.5 -32.5t36.5 -84.5v-4q0 -52 -36.5 -84.5t-92.5 -32.5zM283 635q27 0 42.5 15.5t15.5 43.5t-15.5 43.5t-42.5 15.5
q-28 0 -43.5 -15.5t-15.5 -43.5t15.5 -43.5t43.5 -15.5z" />
    <glyph glyph-name="ae" unicode="&#xe6;" horiz-adv-x="905" 
d="M192 -10q-72 0 -114.5 40t-42.5 107q0 73 49 113t154 51l138 14v7q0 53 -18 76t-58 23q-26 0 -60 -10.5t-100 -39.5l-58 -24v106l36 15q66 28 114 41t89 13q96 0 135 -69q64 69 172 69q72 0 124 -29t81 -82.5t29 -126.5v-63h-372q4 -63 38 -97t92 -34q34 0 70 11t93 38
l61 28v-106l-34 -15q-63 -30 -110.5 -43t-96.5 -13q-67 0 -116 27t-77 76l-28 -21q-57 -44 -100.5 -63t-89.5 -19zM618 427q-113 0 -127 -127h252q-4 62 -36 94.5t-89 32.5zM155 150q0 -29 17 -46t46 -17q30 0 64.5 17.5t85.5 57.5l14 12q-6 30 -6 63v6l-121 -17
q-52 -7 -76 -25t-24 -51z" />
    <glyph glyph-name="ccedilla" unicode="&#xe7;" horiz-adv-x="536" 
d="M260 -10q-66 0 -115 31t-76 87.5t-27 132.5v30q0 74 28 130.5t78 88.5t114 32q46 0 89 -15t100 -50l37 -22v-112l-48 31q-57 38 -92.5 53.5t-67.5 15.5q-53 0 -83.5 -41t-30.5 -113v-26q0 -73 29 -113.5t82 -40.5q31 0 68 17t97 59l50 35v-116l-32 -21q-107 -73 -200 -73
zM306 -227q-44 0 -105 18l-31 9v67l41 -13q30 -9 47 -12.5t34 -3.5q38 0 38 33q0 30 -46 30h-77v49l29 70l66 -2l-28 -63h29q108 0 108 -87q0 -45 -28 -70t-77 -25z" />
    <glyph glyph-name="egrave" unicode="&#xe8;" horiz-adv-x="585" 
d="M279 -10q-72 0 -125.5 30.5t-82.5 86.5t-29 130v26q0 77 32 135.5t89.5 91t133.5 32.5q75 0 130 -29t85 -82.5t30 -126.5v-63h-380q4 -62 39 -96.5t95 -34.5q37 0 75.5 11.5t91.5 36.5l62 29v-106l-35 -15q-57 -29 -107 -42.5t-104 -13.5zM294 427q-56 0 -89.5 -33
t-41.5 -94h260q-4 61 -37.5 94t-91.5 33zM254 580l-137 175h124l116 -175h-103z" />
    <glyph glyph-name="eacute" unicode="&#xe9;" horiz-adv-x="585" 
d="M279 -10q-72 0 -125.5 30.5t-82.5 86.5t-29 130v26q0 77 32 135.5t89.5 91t133.5 32.5q75 0 130 -29t85 -82.5t30 -126.5v-63h-380q4 -62 39 -96.5t95 -34.5q37 0 75.5 11.5t91.5 36.5l62 29v-106l-35 -15q-57 -29 -107 -42.5t-104 -13.5zM294 427q-56 0 -89.5 -33
t-41.5 -94h260q-4 61 -37.5 94t-91.5 33zM245 580l116 175h124l-137 -175h-103z" />
    <glyph glyph-name="ecircumflex" unicode="&#xea;" horiz-adv-x="585" 
d="M279 -10q-72 0 -125.5 30.5t-82.5 86.5t-29 130v26q0 77 32 135.5t89.5 91t133.5 32.5q75 0 130 -29t85 -82.5t30 -126.5v-63h-380q4 -62 39 -96.5t95 -34.5q37 0 75.5 11.5t91.5 36.5l62 29v-106l-35 -15q-57 -29 -107 -42.5t-104 -13.5zM294 427q-56 0 -89.5 -33
t-41.5 -94h260q-4 61 -37.5 94t-91.5 33zM116 580l133 175h103l133 -175h-98l-86 95l-87 -95h-98z" />
    <glyph glyph-name="edieresis" unicode="&#xeb;" horiz-adv-x="585" 
d="M279 -10q-72 0 -125.5 30.5t-82.5 86.5t-29 130v26q0 77 32 135.5t89.5 91t133.5 32.5q75 0 130 -29t85 -82.5t30 -126.5v-63h-380q4 -62 39 -96.5t95 -34.5q37 0 75.5 11.5t91.5 36.5l62 29v-106l-35 -15q-57 -29 -107 -42.5t-104 -13.5zM294 427q-56 0 -89.5 -33
t-41.5 -94h260q-4 61 -37.5 94t-91.5 33zM362 601v121h116v-121h-116zM124 601v121h116v-121h-116z" />
    <glyph glyph-name="igrave" unicode="&#xec;" horiz-adv-x="267" 
d="M72 0v512h121v-512h-121zM90 580l-127 175h123l105 -175h-101z" />
    <glyph glyph-name="iacute" unicode="&#xed;" horiz-adv-x="268" 
d="M73 0v512h121v-512h-121zM80 580l105 175h123l-127 -175h-101z" />
    <glyph glyph-name="icircumflex" unicode="&#xee;" horiz-adv-x="267" 
d="M73 0v512h121v-512h-121zM-39 580l124 175h97l124 -175h-95l-77 94l-77 -94h-96z" />
    <glyph glyph-name="idieresis" unicode="&#xef;" horiz-adv-x="267" 
d="M72 0v512h121v-512h-121zM182 601v121h114v-121h-114zM-28 601v121h114v-121h-114z" />
    <glyph glyph-name="eth" unicode="&#xf0;" horiz-adv-x="626" 
d="M309 -10q-82 0 -142 30t-92.5 85t-32.5 131v14q0 72 28.5 125.5t80 83t119.5 29.5q35 0 68 -9.5t74 -31.5q-41 65 -122 142l-154 -58l-29 65l125 48l-103 96h144l62 -58l153 58l29 -65l-123 -47q101 -96 146 -176t45 -165v-17q0 -86 -33.5 -149t-95.5 -97t-147 -34z
M166 241q0 -71 39 -111.5t108 -40.5q71 0 109.5 48t38.5 134v22q0 24 -5 47q-50 31 -86 44t-72 13q-62 0 -97 -38.5t-35 -107.5v-10z" />
    <glyph glyph-name="ntilde" unicode="&#xf1;" horiz-adv-x="617" 
d="M73 0v512h119v-82l11 9q53 44 95 63.5t88 19.5q75 0 119 -50.5t44 -138.5v-333h-121v314q0 50 -21.5 77t-61.5 27q-28 0 -58.5 -15.5t-73.5 -51.5l-19 -17v-334h-121zM388 587q-32 0 -78 28l-34 21q-22 15 -35 15t-20 -8.5t-14 -31.5l-6 -21h-79l11 39q15 56 38.5 81
t59.5 25q17 0 34.5 -6t43.5 -22l34 -21q22 -14 35 -14t20 8.5t14 31.5l6 20h79l-11 -39q-15 -56 -38.5 -81t-59.5 -25z" />
    <glyph glyph-name="ograve" unicode="&#xf2;" horiz-adv-x="619" 
d="M310 -10q-82 0 -142.5 31t-93 87.5t-32.5 134.5v26q0 77 32.5 134t93 88t142.5 31t142 -31t93 -88t33 -134v-26q0 -78 -33 -134.5t-93 -87.5t-142 -31zM310 89q68 0 106 41t38 115v22q0 73 -38 114.5t-106 41.5q-69 0 -106.5 -41.5t-37.5 -114.5v-22q0 -74 37.5 -115
t106.5 -41zM263 580l-137 175h124l116 -175h-103z" />
    <glyph glyph-name="oacute" unicode="&#xf3;" horiz-adv-x="619" 
d="M310 -10q-82 0 -142.5 31t-93 87.5t-32.5 134.5v26q0 77 32.5 134t93 88t142.5 31t142 -31t93 -88t33 -134v-26q0 -78 -33 -134.5t-93 -87.5t-142 -31zM310 89q68 0 106 41t38 115v22q0 73 -38 114.5t-106 41.5q-69 0 -106.5 -41.5t-37.5 -114.5v-22q0 -74 37.5 -115
t106.5 -41zM254 580l116 175h124l-137 -175h-103z" />
    <glyph glyph-name="ocircumflex" unicode="&#xf4;" horiz-adv-x="619" 
d="M310 -10q-82 0 -142.5 31t-93 87.5t-32.5 134.5v26q0 77 32.5 134t93 88t142.5 31t142 -31t93 -88t33 -134v-26q0 -78 -33 -134.5t-93 -87.5t-142 -31zM310 89q68 0 106 41t38 115v22q0 73 -38 114.5t-106 41.5q-69 0 -106.5 -41.5t-37.5 -114.5v-22q0 -74 37.5 -115
t106.5 -41zM125 580l133 175h103l133 -175h-98l-86 95l-87 -95h-98z" />
    <glyph glyph-name="otilde" unicode="&#xf5;" horiz-adv-x="619" 
d="M310 -10q-82 0 -142.5 31t-93 87.5t-32.5 134.5v26q0 77 32.5 134t93 88t142.5 31t142 -31t93 -88t33 -134v-26q0 -78 -33 -134.5t-93 -87.5t-142 -31zM310 89q68 0 106 41t38 115v22q0 73 -38 114.5t-106 41.5q-69 0 -106.5 -41.5t-37.5 -114.5v-22q0 -74 37.5 -115
t106.5 -41zM388 587q-32 0 -78 28l-34 21q-22 15 -35 15t-20 -8.5t-14 -31.5l-6 -21h-79l11 39q15 56 38.5 81t59.5 25q17 0 34.5 -6t43.5 -22l34 -21q22 -14 35 -14t20 8.5t14 31.5l6 20h79l-11 -39q-15 -56 -38.5 -81t-59.5 -25z" />
    <glyph glyph-name="odieresis" unicode="&#xf6;" horiz-adv-x="619" 
d="M310 -10q-82 0 -142.5 31t-93 87.5t-32.5 134.5v26q0 77 32.5 134t93 88t142.5 31t142 -31t93 -88t33 -134v-26q0 -78 -33 -134.5t-93 -87.5t-142 -31zM310 89q68 0 106 41t38 115v22q0 73 -38 114.5t-106 41.5q-69 0 -106.5 -41.5t-37.5 -114.5v-22q0 -74 37.5 -115
t106.5 -41zM371 601v121h116v-121h-116zM133 601v121h116v-121h-116z" />
    <glyph glyph-name="divide" unicode="&#xf7;" horiz-adv-x="620" 
d="M246 454v119h130v-119h-130zM76 284v97h468v-97h-468zM246 92v119h130v-119h-130z" />
    <glyph glyph-name="oslash" unicode="&#xf8;" horiz-adv-x="619" 
d="M52 -30l65 86q-36 33 -55.5 80.5t-19.5 106.5v26q0 77 32.5 134t93 88t142.5 31q72 0 129 -26l34 46h95l-66 -87q36 -33 56 -80.5t20 -105.5v-26q0 -78 -33 -134.5t-93 -87.5t-142 -31q-73 0 -130 26l-33 -46h-95zM162 242q0 -59 24 -97l193 267q-30 12 -69 12
q-69 0 -108.5 -41.5t-39.5 -115.5v-25zM310 87q69 0 108 42t39 115v25q0 59 -24 97l-192 -266q29 -13 69 -13z" />
    <glyph glyph-name="ugrave" unicode="&#xf9;" horiz-adv-x="602" 
d="M224 -10q-75 0 -115.5 48t-40.5 136v338h121v-319q0 -100 72 -100q26 0 55 16t68 47l24 20v336h121v-512h-119v80l-9 -7q-54 -46 -94.5 -64.5t-82.5 -18.5zM253 580l-137 175h124l116 -175h-103z" />
    <glyph glyph-name="uacute" unicode="&#xfa;" horiz-adv-x="602" 
d="M224 -10q-75 0 -115.5 48t-40.5 136v338h121v-319q0 -100 72 -100q26 0 55 16t68 47l24 20v336h121v-512h-119v80l-9 -7q-54 -46 -94.5 -64.5t-82.5 -18.5zM244 580l116 175h124l-137 -175h-103z" />
    <glyph glyph-name="ucircumflex" unicode="&#xfb;" horiz-adv-x="602" 
d="M224 -10q-75 0 -115.5 48t-40.5 136v338h121v-319q0 -100 72 -100q26 0 55 16t68 47l24 20v336h121v-512h-119v80l-9 -7q-54 -46 -94.5 -64.5t-82.5 -18.5zM115 580l133 175h103l133 -175h-98l-86 95l-87 -95h-98z" />
    <glyph glyph-name="udieresis" unicode="&#xfc;" horiz-adv-x="602" 
d="M224 -10q-75 0 -115.5 48t-40.5 136v338h121v-319q0 -100 72 -100q26 0 55 16t68 47l24 20v336h121v-512h-119v80l-9 -7q-54 -46 -94.5 -64.5t-82.5 -18.5zM361 601v121h116v-121h-116zM123 601v121h116v-121h-116z" />
    <glyph glyph-name="yacute" unicode="&#xfd;" horiz-adv-x="569" 
d="M162 -210q-44 0 -87 22l-13 7v107l26 -14q20 -10 32.5 -13.5t23.5 -3.5q18 0 30.5 11.5t26.5 41.5l24 54l-214 510h130l148 -374l146 374h123l-252 -596q-29 -70 -61 -98t-83 -28zM227 580l116 175h124l-137 -175h-103z" />
    <glyph glyph-name="thorn" unicode="&#xfe;" horiz-adv-x="642" 
d="M75 -200v940h121v-303q59 46 103 65.5t88 19.5q64 0 112 -32.5t75 -90t27 -135.5v-17q0 -77 -27 -134.5t-74.5 -90t-111.5 -32.5q-45 0 -90 19.5t-102 64.5v-274h-121zM356 420q-32 0 -68.5 -19t-91.5 -62v-166q55 -44 91.5 -62.5t68.5 -18.5q55 0 87.5 43t32.5 114v13
q0 72 -32.5 115t-87.5 43z" />
    <glyph glyph-name="ydieresis" unicode="&#xff;" horiz-adv-x="569" 
d="M162 -210q-44 0 -87 22l-13 7v107l26 -14q20 -10 32.5 -13.5t23.5 -3.5q18 0 30.5 11.5t26.5 41.5l24 54l-214 510h130l148 -374l146 374h123l-252 -596q-29 -70 -61 -98t-83 -28zM344 601v121h116v-121h-116zM106 601v121h116v-121h-116z" />
    <glyph glyph-name="Amacron" unicode="&#x100;" horiz-adv-x="735" 
d="M8 0l291 680h137l291 -680h-132l-71 171h-318l-71 -171h-127zM247 271h235l-119 283zM170 754v86h396v-86h-396z" />
    <glyph glyph-name="amacron" unicode="&#x101;" horiz-adv-x="572" 
d="M195 -10q-73 0 -116.5 40t-43.5 107q0 73 48 111.5t155 51.5l149 19v3q0 52 -19.5 75.5t-62.5 23.5q-26 0 -62.5 -11t-102.5 -39l-58 -24v106l36 15q66 28 115.5 41t92.5 13q88 0 133 -48t45 -140v-334h-115v79l-3 -3q-56 -46 -100 -66t-91 -20zM155 150q0 -29 18 -46
t48 -17q32 0 67.5 17t87.5 57l11 9v76l-132 -21q-55 -9 -77.5 -26t-22.5 -49zM89 610v89h386v-89h-386z" />
    <glyph glyph-name="Abreve" unicode="&#x102;" horiz-adv-x="735" 
d="M8 0l291 680h137l291 -680h-132l-71 171h-318l-71 -171h-127zM247 271h235l-119 283zM368 721q-137 0 -174 118l-8 23h89l4 -11q19 -49 89 -49t89 49l4 11h89l-8 -23q-37 -118 -174 -118z" />
    <glyph glyph-name="abreve" unicode="&#x103;" horiz-adv-x="572" 
d="M195 -10q-73 0 -116.5 40t-43.5 107q0 73 48 111.5t155 51.5l149 19v3q0 52 -19.5 75.5t-62.5 23.5q-26 0 -62.5 -11t-102.5 -39l-58 -24v106l36 15q66 28 115.5 41t92.5 13q88 0 133 -48t45 -140v-334h-115v79l-3 -3q-56 -46 -100 -66t-91 -20zM155 150q0 -29 18 -46
t48 -17q32 0 67.5 17t87.5 57l11 9v76l-132 -21q-55 -9 -77.5 -26t-22.5 -49zM282 580q-66 0 -106.5 35t-60.5 108l-8 27h89l5 -16q10 -37 29.5 -53.5t51.5 -16.5t51.5 16.5t29.5 53.5l5 16h89l-8 -27q-20 -73 -60.5 -108t-106.5 -35z" />
    <glyph glyph-name="Aogonek" unicode="&#x104;" horiz-adv-x="735" 
d="M8 0l291 680h137l291 -680h-132l-71 171h-318l-71 -171h-127zM247 271h235l-119 283zM602 -227q-45 0 -72 24.5t-27 65.5q0 33 19.5 58.5t67.5 58.5l80 53l57 -33l-88 -60q-28 -20 -37.5 -32.5t-9.5 -28.5q0 -35 34 -35q22 0 56 17l35 17v-71l-24 -11q-49 -23 -91 -23z
" />
    <glyph glyph-name="aogonek" unicode="&#x105;" horiz-adv-x="572" 
d="M195 -10q-73 0 -116.5 40t-43.5 107q0 73 48 111.5t155 51.5l149 19v3q0 52 -19.5 75.5t-62.5 23.5q-26 0 -62.5 -11t-102.5 -39l-58 -24v106l36 15q66 28 115.5 41t92.5 13q88 0 133 -48t45 -140v-334h-115v79l-3 -3q-56 -46 -100 -66t-91 -20zM155 150q0 -29 18 -46
t48 -17q32 0 67.5 17t87.5 57l11 9v76l-132 -21q-55 -9 -77.5 -26t-22.5 -49zM381 -227q-44 0 -70.5 25t-26.5 65q0 34 20 59.5t66 57.5l77 52l57 -32l-84 -59q-28 -19 -39.5 -32t-11.5 -30q0 -16 10 -25.5t26 -9.5q12 0 24 4t30 13l35 17v-71l-23 -11q-50 -23 -90 -23z" />
    <glyph glyph-name="Cacute" unicode="&#x106;" horiz-adv-x="696" 
d="M349 -15q-91 0 -159.5 43t-106 121t-37.5 181v20q0 103 38 181t106.5 121t160.5 43q59 0 117 -19.5t130 -62.5l48 -29v-123l-94 57q-65 39 -107.5 56t-82.5 17q-86 0 -136 -66t-50 -179v-12q0 -113 49.5 -179t135.5 -66q43 0 92 20t111 60l89 58v-125l-42 -27
q-73 -48 -137 -69t-125 -21zM323 725l118 145h130l-141 -145h-107z" />
    <glyph glyph-name="cacute" unicode="&#x107;" horiz-adv-x="536" 
d="M260 -10q-66 0 -115 31t-76 87.5t-27 132.5v30q0 74 28 130.5t78 88.5t114 32q46 0 89 -15t100 -50l37 -22v-112l-48 31q-57 38 -92.5 53.5t-67.5 15.5q-53 0 -83.5 -41t-30.5 -113v-26q0 -73 29 -113.5t82 -40.5q31 0 68 17t97 59l50 35v-116l-32 -21q-107 -73 -200 -73
zM220 580l116 175h124l-137 -175h-103z" />
    <glyph glyph-name="Ccircumflex" unicode="&#x108;" horiz-adv-x="696" 
d="M349 -15q-91 0 -159.5 43t-106 121t-37.5 181v20q0 103 38 181t106.5 121t160.5 43q59 0 117 -19.5t130 -62.5l48 -29v-123l-94 57q-65 39 -107.5 56t-82.5 17q-86 0 -136 -66t-50 -179v-12q0 -113 49.5 -179t135.5 -66q43 0 92 20t111 60l89 58v-125l-42 -27
q-73 -48 -137 -69t-125 -21zM194 725l135 145h103l135 -145h-101l-85 73l-86 -73h-101z" />
    <glyph glyph-name="ccircumflex" unicode="&#x109;" horiz-adv-x="536" 
d="M260 -10q-66 0 -115 31t-76 87.5t-27 132.5v30q0 74 28 130.5t78 88.5t114 32q46 0 89 -15t100 -50l37 -22v-112l-48 31q-57 38 -92.5 53.5t-67.5 15.5q-53 0 -83.5 -41t-30.5 -113v-26q0 -73 29 -113.5t82 -40.5q31 0 68 17t97 59l50 35v-116l-32 -21q-107 -73 -200 -73
zM91 580l133 175h103l133 -175h-98l-86 95l-87 -95h-98z" />
    <glyph glyph-name="Cdotaccent" unicode="&#x10a;" horiz-adv-x="696" 
d="M349 -15q-91 0 -159.5 43t-106 121t-37.5 181v20q0 103 38 181t106.5 121t160.5 43q59 0 117 -19.5t130 -62.5l48 -29v-123l-94 57q-65 39 -107.5 56t-82.5 17q-86 0 -136 -66t-50 -179v-12q0 -113 49.5 -179t135.5 -66q43 0 92 20t111 60l89 58v-125l-42 -27
q-73 -48 -137 -69t-125 -21zM312 734v127h136v-127h-136z" />
    <glyph glyph-name="cdotaccent" unicode="&#x10b;" horiz-adv-x="536" 
d="M260 -10q-66 0 -115 31t-76 87.5t-27 132.5v30q0 74 28 130.5t78 88.5t114 32q46 0 89 -15t100 -50l37 -22v-112l-48 31q-57 38 -92.5 53.5t-67.5 15.5q-53 0 -83.5 -41t-30.5 -113v-26q0 -73 29 -113.5t82 -40.5q31 0 68 17t97 59l50 35v-116l-32 -21q-107 -73 -200 -73
zM207 599v129h138v-129h-138z" />
    <glyph glyph-name="Ccaron" unicode="&#x10c;" horiz-adv-x="696" 
d="M349 -15q-91 0 -159.5 43t-106 121t-37.5 181v20q0 103 38 181t106.5 121t160.5 43q59 0 117 -19.5t130 -62.5l48 -29v-123l-94 57q-65 39 -107.5 56t-82.5 17q-86 0 -136 -66t-50 -179v-12q0 -113 49.5 -179t135.5 -66q43 0 92 20t111 60l89 58v-125l-42 -27
q-73 -48 -137 -69t-125 -21zM330 725l-135 145h100l86 -73l85 73h101l-135 -145h-102z" />
    <glyph glyph-name="ccaron" unicode="&#x10d;" horiz-adv-x="536" 
d="M260 -10q-66 0 -115 31t-76 87.5t-27 132.5v30q0 74 28 130.5t78 88.5t114 32q46 0 89 -15t100 -50l37 -22v-112l-48 31q-57 38 -92.5 53.5t-67.5 15.5q-53 0 -83.5 -41t-30.5 -113v-26q0 -73 29 -113.5t82 -40.5q31 0 68 17t97 59l50 35v-116l-32 -21q-107 -73 -200 -73
zM225 580l-134 175h99l86 -95l86 95h98l-133 -175h-102z" />
    <glyph glyph-name="Dcaron" unicode="&#x10e;" horiz-adv-x="768" 
d="M85 0v680h292q100 0 178 -37t123 -109.5t45 -179.5v-28q0 -107 -45 -179.5t-123 -109.5t-178 -37h-292zM372 579h-162v-478h162q100 0 160 58.5t60 172.5v16q0 114 -60 172.5t-160 58.5zM327 725l-135 145h100l86 -73l85 73h101l-135 -145h-102z" />
    <glyph glyph-name="dcaron" unicode="&#x10f;" horiz-adv-x="641" 
d="M256 -10q-64 0 -112.5 32t-75 90t-26.5 135v17q0 77 26.5 135t74.5 90.5t111 32.5q46 0 90.5 -20t102.5 -64v302h121v-740h-119v76q-60 -46 -104.5 -66t-88.5 -20zM166 249q0 -71 33 -114t87 -43q33 0 69.5 18.5t91.5 62.5v166q-56 44 -92 62.5t-69 18.5q-54 0 -87 -43
t-33 -115v-13zM612 542l22 210h111l-43 -210h-90z" />
    <glyph glyph-name="Dcroat" unicode="&#x110;" horiz-adv-x="791" 
d="M108 0v301h-90v78h90v301h292q100 0 178 -37t123 -109.5t45 -179.5v-28q0 -107 -45 -179.5t-123 -109.5t-178 -37h-292zM380 301h-147v-200h162q100 0 160 58.5t60 172.5v16q0 114 -60 172.5t-160 58.5h-162v-200h147v-78z" />
    <glyph glyph-name="dcroat" unicode="&#x111;" horiz-adv-x="641" 
d="M256 -10q-64 0 -112.5 32t-75 90t-26.5 135v17q0 77 26.5 135t74.5 90.5t111 32.5q46 0 90.5 -20t102.5 -64v153h-195v75h195v74h121v-74h91v-75h-91v-591h-119v76q-60 -46 -104.5 -66t-88.5 -20zM166 249q0 -71 33 -114t87 -43q33 0 69.5 18.5t91.5 62.5v166
q-56 44 -92 62.5t-69 18.5q-54 0 -87 -43t-33 -115v-13z" />
    <glyph glyph-name="Emacron" unicode="&#x112;" horiz-adv-x="646" 
d="M85 0v680h506v-103h-383v-186h368v-101h-368v-187h383v-103h-506zM146 754v86h396v-86h-396z" />
    <glyph glyph-name="emacron" unicode="&#x113;" horiz-adv-x="585" 
d="M279 -10q-72 0 -125.5 30.5t-82.5 86.5t-29 130v26q0 77 32 135.5t89.5 91t133.5 32.5q75 0 130 -29t85 -82.5t30 -126.5v-63h-380q4 -62 39 -96.5t95 -34.5q37 0 75.5 11.5t91.5 36.5l62 29v-106l-35 -15q-57 -29 -107 -42.5t-104 -13.5zM294 427q-56 0 -89.5 -33
t-41.5 -94h260q-4 61 -37.5 94t-91.5 33zM108 610v89h386v-89h-386z" />
    <glyph glyph-name="Ebreve" unicode="&#x114;" horiz-adv-x="646" 
d="M85 0v680h506v-103h-383v-186h368v-101h-368v-187h383v-103h-506zM344 721q-137 0 -174 118l-8 23h89l4 -11q19 -49 89 -49t89 49l4 11h89l-8 -23q-37 -118 -174 -118z" />
    <glyph glyph-name="ebreve" unicode="&#x115;" horiz-adv-x="585" 
d="M279 -10q-72 0 -125.5 30.5t-82.5 86.5t-29 130v26q0 77 32 135.5t89.5 91t133.5 32.5q75 0 130 -29t85 -82.5t30 -126.5v-63h-380q4 -62 39 -96.5t95 -34.5q37 0 75.5 11.5t91.5 36.5l62 29v-106l-35 -15q-57 -29 -107 -42.5t-104 -13.5zM294 427q-56 0 -89.5 -33
t-41.5 -94h260q-4 61 -37.5 94t-91.5 33zM301 580q-66 0 -106.5 35t-60.5 108l-8 27h89l5 -16q10 -37 29.5 -53.5t51.5 -16.5t51.5 16.5t29.5 53.5l5 16h89l-8 -27q-20 -73 -60.5 -108t-106.5 -35z" />
    <glyph glyph-name="Edotaccent" unicode="&#x116;" horiz-adv-x="646" 
d="M85 0v680h506v-103h-383v-186h368v-101h-368v-187h383v-103h-506zM275 734v127h136v-127h-136z" />
    <glyph glyph-name="edotaccent" unicode="&#x117;" horiz-adv-x="585" 
d="M279 -10q-72 0 -125.5 30.5t-82.5 86.5t-29 130v26q0 77 32 135.5t89.5 91t133.5 32.5q75 0 130 -29t85 -82.5t30 -126.5v-63h-380q4 -62 39 -96.5t95 -34.5q37 0 75.5 11.5t91.5 36.5l62 29v-106l-35 -15q-57 -29 -107 -42.5t-104 -13.5zM294 427q-56 0 -89.5 -33
t-41.5 -94h260q-4 61 -37.5 94t-91.5 33zM232 599v129h138v-129h-138z" />
    <glyph glyph-name="Eogonek" unicode="&#x118;" horiz-adv-x="646" 
d="M85 0v680h506v-103h-383v-186h368v-101h-368v-187h383v-103h-506zM465 -227q-45 0 -72 24.5t-27 65.5q0 33 19.5 58.5t67.5 58.5l80 53l57 -33l-88 -60q-28 -20 -37.5 -32.5t-9.5 -28.5q0 -35 34 -35q22 0 56 17l35 17v-71l-24 -11q-49 -23 -91 -23z" />
    <glyph glyph-name="eogonek" unicode="&#x119;" horiz-adv-x="585" 
d="M279 -10q-72 0 -125.5 30.5t-82.5 86.5t-29 130v26q0 77 32 135.5t89.5 91t133.5 32.5q75 0 130 -29t85 -82.5t30 -126.5v-63h-380q4 -62 39 -96.5t95 -34.5q37 0 75.5 11.5t91.5 36.5l62 29v-106l-35 -15q-57 -29 -107 -42.5t-104 -13.5zM294 427q-56 0 -89.5 -33
t-41.5 -94h260q-4 61 -37.5 94t-91.5 33zM403 -228q-43 0 -69.5 25t-26.5 66q0 20 6.5 37.5t22.5 39t46 52.5l100 106l42 -37l-91 -106q-24 -28 -32.5 -43.5t-8.5 -31.5q0 -17 9.5 -27t25.5 -10q11 0 23.5 3.5t30.5 13.5l35 17v-71l-23 -11q-49 -23 -90 -23z" />
    <glyph glyph-name="Ecaron" unicode="&#x11a;" horiz-adv-x="646" 
d="M85 0v680h506v-103h-383v-186h368v-101h-368v-187h383v-103h-506zM293 725l-135 145h100l86 -73l85 73h101l-135 -145h-102z" />
    <glyph glyph-name="ecaron" unicode="&#x11b;" horiz-adv-x="585" 
d="M279 -10q-72 0 -125.5 30.5t-82.5 86.5t-29 130v26q0 77 32 135.5t89.5 91t133.5 32.5q75 0 130 -29t85 -82.5t30 -126.5v-63h-380q4 -62 39 -96.5t95 -34.5q37 0 75.5 11.5t91.5 36.5l62 29v-106l-35 -15q-57 -29 -107 -42.5t-104 -13.5zM294 427q-56 0 -89.5 -33
t-41.5 -94h260q-4 61 -37.5 94t-91.5 33zM250 580l-134 175h99l86 -95l86 95h98l-133 -175h-102z" />
    <glyph glyph-name="Gcircumflex" unicode="&#x11c;" horiz-adv-x="751" 
d="M363 -15q-97 0 -168.5 42.5t-110 120t-38.5 182.5v20q0 103 41 180.5t115.5 121t171.5 43.5q57 0 114.5 -17t139.5 -53l52 -22v-120l-99 44q-71 33 -116 48.5t-88 15.5q-92 0 -146.5 -66t-54.5 -179v-12q0 -116 50.5 -180.5t141.5 -64.5q52 0 98 16.5t107 53.5v127h-199
v100h322v-278l-37 -23q-85 -51 -157.5 -75.5t-138.5 -24.5zM213 725l135 145h103l135 -145h-101l-85 73l-86 -73h-101z" />
    <glyph glyph-name="gcircumflex" unicode="&#x11d;" horiz-adv-x="644" 
d="M254 10q-63 0 -111 31t-74.5 87t-26.5 130v14q0 75 26.5 131.5t74.5 87.5t112 31q43 0 89 -21t109 -71v82h119v-505q0 -105 -57.5 -161t-164.5 -56q-53 0 -109.5 14.5t-122.5 40.5l-44 18v113l65 -29q65 -29 111 -43t86 -14q115 0 115 129v81q-62 -49 -107.5 -69.5
t-89.5 -20.5zM166 260q0 -68 32 -108.5t86 -40.5q31 0 69 19.5t94 64.5l4 2v136l-4 3q-56 45 -94 64.5t-69 19.5q-54 0 -86 -40t-32 -110v-10zM130 580l133 175h103l133 -175h-98l-86 95l-87 -95h-98z" />
    <glyph glyph-name="Gbreve" unicode="&#x11e;" horiz-adv-x="751" 
d="M363 -15q-97 0 -168.5 42.5t-110 120t-38.5 182.5v20q0 103 41 180.5t115.5 121t171.5 43.5q57 0 114.5 -17t139.5 -53l52 -22v-120l-99 44q-71 33 -116 48.5t-88 15.5q-92 0 -146.5 -66t-54.5 -179v-12q0 -116 50.5 -180.5t141.5 -64.5q52 0 98 16.5t107 53.5v127h-199
v100h322v-278l-37 -23q-85 -51 -157.5 -75.5t-138.5 -24.5zM400 721q-137 0 -174 118l-8 23h89l4 -11q19 -49 89 -49t89 49l4 11h89l-8 -23q-37 -118 -174 -118z" />
    <glyph glyph-name="gbreve" unicode="&#x11f;" horiz-adv-x="644" 
d="M254 10q-63 0 -111 31t-74.5 87t-26.5 130v14q0 75 26.5 131.5t74.5 87.5t112 31q43 0 89 -21t109 -71v82h119v-505q0 -105 -57.5 -161t-164.5 -56q-53 0 -109.5 14.5t-122.5 40.5l-44 18v113l65 -29q65 -29 111 -43t86 -14q115 0 115 129v81q-62 -49 -107.5 -69.5
t-89.5 -20.5zM166 260q0 -68 32 -108.5t86 -40.5q31 0 69 19.5t94 64.5l4 2v136l-4 3q-56 45 -94 64.5t-69 19.5q-54 0 -86 -40t-32 -110v-10zM315 580q-66 0 -106.5 35t-60.5 108l-8 27h89l5 -16q10 -37 29.5 -53.5t51.5 -16.5t51.5 16.5t29.5 53.5l5 16h89l-8 -27
q-20 -73 -60.5 -108t-106.5 -35z" />
    <glyph glyph-name="Gdotaccent" unicode="&#x120;" horiz-adv-x="751" 
d="M363 -15q-97 0 -168.5 42.5t-110 120t-38.5 182.5v20q0 103 41 180.5t115.5 121t171.5 43.5q57 0 114.5 -17t139.5 -53l52 -22v-120l-99 44q-71 33 -116 48.5t-88 15.5q-92 0 -146.5 -66t-54.5 -179v-12q0 -116 50.5 -180.5t141.5 -64.5q52 0 98 16.5t107 53.5v127h-199
v100h322v-278l-37 -23q-85 -51 -157.5 -75.5t-138.5 -24.5zM331 734v127h136v-127h-136z" />
    <glyph glyph-name="gdotaccent" unicode="&#x121;" horiz-adv-x="644" 
d="M254 10q-63 0 -111 31t-74.5 87t-26.5 130v14q0 75 26.5 131.5t74.5 87.5t112 31q43 0 89 -21t109 -71v82h119v-505q0 -105 -57.5 -161t-164.5 -56q-53 0 -109.5 14.5t-122.5 40.5l-44 18v113l65 -29q65 -29 111 -43t86 -14q115 0 115 129v81q-62 -49 -107.5 -69.5
t-89.5 -20.5zM166 260q0 -68 32 -108.5t86 -40.5q31 0 69 19.5t94 64.5l4 2v136l-4 3q-56 45 -94 64.5t-69 19.5q-54 0 -86 -40t-32 -110v-10zM246 599v129h138v-129h-138z" />
    <glyph glyph-name="uni0122" unicode="&#x122;" horiz-adv-x="751" 
d="M363 -15q-97 0 -168.5 42.5t-110 120t-38.5 182.5v20q0 103 41 180.5t115.5 121t171.5 43.5q57 0 114.5 -17t139.5 -53l52 -22v-120l-99 44q-71 33 -116 48.5t-88 15.5q-92 0 -146.5 -66t-54.5 -179v-12q0 -116 50.5 -180.5t141.5 -64.5q52 0 98 16.5t107 53.5v127h-199
v100h322v-278l-37 -23q-85 -51 -157.5 -75.5t-138.5 -24.5zM286 -223l38 168h114l-58 -168h-94z" />
    <glyph glyph-name="uni0123" unicode="&#x123;" horiz-adv-x="644" 
d="M254 10q-63 0 -111 31t-74.5 87t-26.5 130v14q0 75 26.5 131.5t74.5 87.5t112 31q43 0 89 -21t109 -71v82h119v-505q0 -105 -57.5 -161t-164.5 -56q-53 0 -109.5 14.5t-122.5 40.5l-44 18v113l65 -29q65 -29 111 -43t86 -14q115 0 115 129v81q-62 -49 -107.5 -69.5
t-89.5 -20.5zM166 260q0 -68 32 -108.5t86 -40.5q31 0 69 19.5t94 64.5l4 2v136l-4 3q-56 45 -94 64.5t-69 19.5q-54 0 -86 -40t-32 -110v-10zM259 580l58 175h95l-41 -175h-112z" />
    <glyph glyph-name="Hcircumflex" unicode="&#x124;" horiz-adv-x="770" 
d="M85 0v680h125v-288h350v288h125v-680h-125v289h-350v-289h-125zM197 725l135 145h103l135 -145h-101l-85 73l-86 -73h-101z" />
    <glyph glyph-name="hcircumflex" unicode="&#x125;" horiz-adv-x="619" 
d="M75 0v740h121v-308l6 5q53 45 96 65t90 20q75 0 119 -50.5t44 -138.5v-333h-121v314q0 50 -21.5 77t-62.5 27q-27 0 -58 -15.5t-74 -52.5l-18 -15v-335h-121zM-51 785l135 145h103l135 -145h-101l-85 73l-86 -73h-101z" />
    <glyph glyph-name="Hbar" unicode="&#x126;" horiz-adv-x="825" 
d="M112 0v480h-88v76h88v124h126v-124h349v124h126v-124h88v-76h-88v-480h-126v269h-349v-269h-126zM238 372h349v108h-349v-108z" />
    <glyph glyph-name="hbar" unicode="&#x127;" horiz-adv-x="619" 
d="M75 0v591h-92v75h92v74h121v-74h202v-75h-202v-159l6 5q53 45 96 65t90 20q75 0 119 -50.5t44 -138.5v-333h-121v314q0 50 -21.5 77t-62.5 27q-27 0 -58 -15.5t-74 -52.5l-18 -15v-335h-121z" />
    <glyph glyph-name="Itilde" unicode="&#x128;" horiz-adv-x="295" 
d="M85 0v680h125v-680h-125zM226 722q-33 0 -80 26l-41 22q-21 12 -34 12t-21 -8.5t-15 -28.5l-6 -20h-80l11 36q15 54 37.5 78t59.5 24q32 0 80 -26l40 -22q13 -7 20.5 -9.5t14.5 -2.5q12 0 20.5 8.5t14.5 28.5l6 20h80l-10 -36q-16 -55 -38.5 -78.5t-58.5 -23.5z" />
    <glyph glyph-name="itilde" unicode="&#x129;" horiz-adv-x="267" 
d="M73 0v512h121v-512h-121zM206 587q-17 0 -33 6t-38 22l-29 21q-22 15 -33 15q-9 0 -14.5 -7.5t-10.5 -27.5l-6 -26h-80l11 48q12 52 32.5 74.5t56.5 22.5q16 0 31.5 -6t38.5 -22l30 -21q21 -14 33 -14q10 0 15 7.5t10 27.5l6 25h80l-11 -48q-12 -52 -32.5 -74.5
t-56.5 -22.5z" />
    <glyph glyph-name="Imacron" unicode="&#x12a;" horiz-adv-x="295" 
d="M85 0v680h125v-680h-125zM-51 754v86h396v-86h-396z" />
    <glyph glyph-name="imacron" unicode="&#x12b;" horiz-adv-x="267" 
d="M73 0v512h121v-512h-121zM-23 610v89h314v-89h-314z" />
    <glyph glyph-name="Ibreve" unicode="&#x12c;" horiz-adv-x="295" 
d="M85 0v680h125v-680h-125zM147 721q-137 0 -174 118l-8 23h89l4 -11q19 -49 89 -49t89 49l4 11h89l-8 -23q-37 -118 -174 -118z" />
    <glyph glyph-name="ibreve" unicode="&#x12d;" horiz-adv-x="267" 
d="M72 0v512h121v-512h-121zM134 578q-129 0 -162 150l-6 27h89l4 -18q18 -75 75 -75t75 75l4 18h89l-6 -27q-33 -150 -162 -150z" />
    <glyph glyph-name="Iogonek" unicode="&#x12e;" horiz-adv-x="289" 
d="M78 0v680h125v-680h-125zM118 -227q-43 0 -69.5 25.5t-26.5 66.5q0 30 15.5 54t57.5 62l60 54l48 -35l-53 -51q-25 -25 -34 -38.5t-9 -29.5q0 -17 9 -27t25 -10q23 0 56 17l34 17v-71l-22 -11q-23 -11 -44.5 -17t-46.5 -6z" />
    <glyph glyph-name="iogonek" unicode="&#x12f;" horiz-adv-x="267" 
d="M65 599v129h137v-129h-137zM73 0v512h121v-512h-121zM109 -227q-43 0 -69.5 25.5t-26.5 66.5q0 30 15.5 54t57.5 62l60 54l48 -35l-53 -51q-25 -25 -34 -38.5t-9 -29.5q0 -17 9 -27t25 -10q23 0 56 17l34 17v-71l-22 -11q-23 -11 -44.5 -17t-46.5 -6z" />
    <glyph glyph-name="Idotaccent" unicode="&#x130;" horiz-adv-x="295" 
d="M85 0v680h125v-680h-125zM78 734v127h136v-127h-136z" />
    <glyph glyph-name="dotlessi" unicode="&#x131;" horiz-adv-x="267" 
d="M73 0v512h121v-512h-121z" />
    <glyph glyph-name="IJ" unicode="&#x132;" horiz-adv-x="757" 
d="M428 -15q-70 0 -143.5 23t-161.5 71l-46 25v129l84 -48q88 -49 148 -71t111 -22q73 0 104 44t31 140v404h125v-416q0 -140 -61 -209.5t-191 -69.5zM77 285v395h124v-395h-124z" />
    <glyph glyph-name="ij" unicode="&#x133;" horiz-adv-x="609" 
d="M58 599v129h138v-129h-138zM406 599v129h138v-129h-138zM226 15q-76 0 -118 47.5t-42 134.5v315h121v-295q0 -100 73 -100q24 0 53.5 15t70.5 49l30 25v306h121v-513q0 -209 -206 -209q-90 0 -206 45l-40 15v111l62 -25q59 -25 98 -35.5t72 -10.5q53 0 76 28t23 92v95
l-14 -12q-52 -43 -92.5 -60.5t-81.5 -17.5z" />
    <glyph glyph-name="Jcircumflex" unicode="&#x134;" horiz-adv-x="574" 
d="M307 -15q-59 0 -114.5 20.5t-126.5 66.5l-35 23v130l71 -48q69 -46 110 -64.5t77 -18.5q44 0 63.5 26t19.5 85v475h125v-486q0 -102 -49 -155.5t-141 -53.5zM247 725l135 145h103l135 -145h-101l-85 73l-86 -73h-101z" />
    <glyph glyph-name="jcircumflex" unicode="&#x135;" horiz-adv-x="273" 
d="M87 -210q-45 0 -92 21l-20 10v99l25 -12q34 -15 50 -15t22.5 7.5t6.5 25.5v586h121v-600q0 -59 -29 -90.5t-84 -31.5zM-33 580l124 175h97l124 -175h-95l-77 94l-77 -94h-96z" />
    <glyph glyph-name="uni0136" unicode="&#x136;" horiz-adv-x="708" 
d="M85 0v680h125v-320l329 320h161l-318 -296l328 -384h-159l-261 309l-80 -73v-236h-125zM280 -223l38 168h114l-58 -168h-94z" />
    <glyph glyph-name="uni0137" unicode="&#x137;" horiz-adv-x="588" 
d="M75 0v740h121v-455l238 227h147l-237 -220l247 -292h-153l-182 223l-60 -56v-167h-121zM219 -223l38 168h113l-58 -168h-93z" />
    <glyph glyph-name="Lacute" unicode="&#x139;" horiz-adv-x="605" 
d="M85 0v680h125v-577h376v-103h-501zM91 725l118 145h130l-141 -145h-107z" />
    <glyph glyph-name="lacute" unicode="&#x13a;" horiz-adv-x="311" 
d="M178 -10q-108 0 -108 122v628h121v-607q0 -20 5.5 -28t19.5 -8q10 0 23 5.5t37 19.5l21 13v-105l-13 -8q-58 -32 -106 -32zM73 785l118 145h130l-141 -145h-107z" />
    <glyph glyph-name="uni013B" unicode="&#x13b;" horiz-adv-x="605" 
d="M85 0v680h125v-577h376v-103h-501zM244 -223l38 168h114l-58 -168h-94z" />
    <glyph glyph-name="uni013C" unicode="&#x13c;" horiz-adv-x="311" 
d="M178 -10q-108 0 -108 122v628h121v-607q0 -20 5.5 -28t19.5 -8q10 0 23 5.5t37 19.5l21 13v-105l-13 -8q-58 -32 -106 -32zM93 -223l38 168h113l-58 -168h-93z" />
    <glyph glyph-name="Lcaron" unicode="&#x13d;" horiz-adv-x="605" 
d="M85 0v680h125v-577h376v-103h-501zM335 470l22 210h111l-43 -210h-90z" />
    <glyph glyph-name="lcaron" unicode="&#x13e;" horiz-adv-x="313" 
d="M178 -10q-108 0 -108 122v628h121v-607q0 -20 5.5 -28t19.5 -8q10 0 23 5.5t37 19.5l21 13v-105l-13 -8q-58 -32 -106 -32zM232 543l22 210h111l-43 -210h-90z" />
    <glyph glyph-name="Ldot" unicode="&#x13f;" horiz-adv-x="605" 
d="M85 0v680h125v-577h376v-103h-501zM382 311v127h136v-127h-136z" />
    <glyph glyph-name="ldot" unicode="&#x140;" horiz-adv-x="420" 
d="M178 -10q-108 0 -108 122v628h121v-607q0 -20 5.5 -28t19.5 -8q10 0 23 5.5t37 19.5l21 13v-105l-13 -8q-58 -32 -106 -32zM275 310v133h130v-133h-130z" />
    <glyph glyph-name="Lslash" unicode="&#x141;" horiz-adv-x="658" 
d="M126 0v226l-90 -45v87l90 45v367h128v-302l241 122v-87l-241 -122v-186h385v-105h-513z" />
    <glyph glyph-name="lslash" unicode="&#x142;" horiz-adv-x="400" 
d="M235 -10q-108 0 -108 122v177l-97 -48v85l97 49v365h121v-304l106 53v-85l-106 -54v-217q0 -20 5.5 -28t18.5 -8q11 0 24 5.5t37 19.5l21 13v-105l-14 -8q-57 -32 -105 -32z" />
    <glyph glyph-name="Nacute" unicode="&#x143;" horiz-adv-x="773" 
d="M570 680h118v-680h-123l-363 492v-492h-117v680h124l361 -492v492zM329 725l118 145h130l-141 -145h-107z" />
    <glyph glyph-name="nacute" unicode="&#x144;" horiz-adv-x="617" 
d="M73 0v512h119v-82l11 9q53 44 95 63.5t88 19.5q75 0 119 -50.5t44 -138.5v-333h-121v314q0 50 -21.5 77t-61.5 27q-28 0 -58.5 -15.5t-73.5 -51.5l-19 -17v-334h-121zM254 580l116 175h124l-137 -175h-103z" />
    <glyph glyph-name="uni0145" unicode="&#x145;" horiz-adv-x="773" 
d="M570 680h118v-680h-123l-363 492v-492h-117v680h124l361 -492v492zM294 -223l38 168h114l-58 -168h-94z" />
    <glyph glyph-name="uni0146" unicode="&#x146;" horiz-adv-x="617" 
d="M73 0v512h119v-82l11 9q53 44 95 63.5t88 19.5q75 0 119 -50.5t44 -138.5v-333h-121v314q0 50 -21.5 77t-61.5 27q-28 0 -58.5 -15.5t-73.5 -51.5l-19 -17v-334h-121zM216 -223l38 168h113l-58 -168h-93z" />
    <glyph glyph-name="Ncaron" unicode="&#x147;" horiz-adv-x="773" 
d="M570 680h118v-680h-123l-363 492v-492h-117v680h124l361 -492v492zM336 725l-135 145h100l86 -73l85 73h101l-135 -145h-102z" />
    <glyph glyph-name="ncaron" unicode="&#x148;" horiz-adv-x="617" 
d="M73 0v512h119v-82l11 9q53 44 95 63.5t88 19.5q75 0 119 -50.5t44 -138.5v-333h-121v314q0 50 -21.5 77t-61.5 27q-28 0 -58.5 -15.5t-73.5 -51.5l-19 -17v-334h-121zM259 580l-134 175h99l86 -95l86 95h98l-133 -175h-102z" />
    <glyph glyph-name="Eng" unicode="&#x14a;" horiz-adv-x="787" 
d="M85 0v680h125v-103l15 10q58 41 101.5 64.5t81 33.5t77.5 10q225 0 225 -272v-441q0 -192 -178 -192q-44 0 -85 12t-87 37l-32 17v126l55 -32q46 -25 76.5 -36.5t54.5 -11.5q37 0 53.5 22.5t16.5 72.5v409q0 92 -29.5 134.5t-94.5 42.5q-26 0 -52 -8t-60 -27.5t-86 -55.5
l-52 -36v-456h-125z" />
    <glyph glyph-name="eng" unicode="&#x14b;" horiz-adv-x="617" 
d="M73 0v512h119v-82l11 9q53 44 95 63.5t88 19.5q75 0 119 -50.5t44 -138.5v-420q0 -123 -109 -123q-50 0 -106 30l-13 7v101l20 -11q25 -14 38 -19t23 -5q15 0 20.5 8t5.5 28v385q0 50 -21.5 77t-61.5 27q-28 0 -58.5 -15.5t-73.5 -51.5l-19 -17v-334h-121z" />
    <glyph glyph-name="Omacron" unicode="&#x14c;" horiz-adv-x="796" 
d="M398 -15q-105 0 -184.5 43t-123.5 119.5t-44 178.5v28q0 102 44 178.5t123.5 119.5t184.5 43t184.5 -43t123.5 -119.5t44 -178.5v-28q0 -102 -44 -178.5t-123.5 -119.5t-184.5 -43zM398 89q103 0 162.5 65.5t59.5 177.5v16q0 112 -59.5 177.5t-162.5 65.5t-162.5 -65.5
t-59.5 -177.5v-16q0 -112 59.5 -177.5t162.5 -65.5zM200 754v86h396v-86h-396z" />
    <glyph glyph-name="omacron" unicode="&#x14d;" horiz-adv-x="619" 
d="M310 -10q-82 0 -142.5 31t-93 87.5t-32.5 134.5v26q0 77 32.5 134t93 88t142.5 31t142 -31t93 -88t33 -134v-26q0 -78 -33 -134.5t-93 -87.5t-142 -31zM310 89q68 0 106 41t38 115v22q0 73 -38 114.5t-106 41.5q-69 0 -106.5 -41.5t-37.5 -114.5v-22q0 -74 37.5 -115
t106.5 -41zM117 610v89h386v-89h-386z" />
    <glyph glyph-name="Obreve" unicode="&#x14e;" horiz-adv-x="796" 
d="M398 -15q-105 0 -184.5 43t-123.5 119.5t-44 178.5v28q0 102 44 178.5t123.5 119.5t184.5 43t184.5 -43t123.5 -119.5t44 -178.5v-28q0 -102 -44 -178.5t-123.5 -119.5t-184.5 -43zM398 89q103 0 162.5 65.5t59.5 177.5v16q0 112 -59.5 177.5t-162.5 65.5t-162.5 -65.5
t-59.5 -177.5v-16q0 -112 59.5 -177.5t162.5 -65.5zM398 721q-137 0 -174 118l-8 23h89l4 -11q19 -49 89 -49t89 49l4 11h89l-8 -23q-37 -118 -174 -118z" />
    <glyph glyph-name="obreve" unicode="&#x14f;" horiz-adv-x="619" 
d="M310 -10q-82 0 -142.5 31t-93 87.5t-32.5 134.5v26q0 77 32.5 134t93 88t142.5 31t142 -31t93 -88t33 -134v-26q0 -78 -33 -134.5t-93 -87.5t-142 -31zM310 89q68 0 106 41t38 115v22q0 73 -38 114.5t-106 41.5q-69 0 -106.5 -41.5t-37.5 -114.5v-22q0 -74 37.5 -115
t106.5 -41zM310 580q-66 0 -106.5 35t-60.5 108l-8 27h89l5 -16q10 -37 29.5 -53.5t51.5 -16.5t51.5 16.5t29.5 53.5l5 16h89l-8 -27q-20 -73 -60.5 -108t-106.5 -35z" />
    <glyph glyph-name="Ohungarumlaut" unicode="&#x150;" horiz-adv-x="796" 
d="M398 -15q-105 0 -184.5 43t-123.5 119.5t-44 178.5v28q0 102 44 178.5t123.5 119.5t184.5 43t184.5 -43t123.5 -119.5t44 -178.5v-28q0 -102 -44 -178.5t-123.5 -119.5t-184.5 -43zM398 89q103 0 162.5 65.5t59.5 177.5v16q0 112 -59.5 177.5t-162.5 65.5t-162.5 -65.5
t-59.5 -177.5v-16q0 -112 59.5 -177.5t162.5 -65.5zM447 725l125 145h129l-147 -145h-107zM246 725l109 145h125l-131 -145h-103z" />
    <glyph glyph-name="ohungarumlaut" unicode="&#x151;" horiz-adv-x="619" 
d="M310 -10q-82 0 -142.5 31t-93 87.5t-32.5 134.5v26q0 77 32.5 134t93 88t142.5 31t142 -31t93 -88t33 -134v-26q0 -78 -33 -134.5t-93 -87.5t-142 -31zM310 89q68 0 106 41t38 115v22q0 73 -38 114.5t-106 41.5q-69 0 -106.5 -41.5t-37.5 -114.5v-22q0 -74 37.5 -115
t106.5 -41zM357 580l117 175h121l-138 -175h-100zM164 580l110 175h121l-132 -175h-99z" />
    <glyph glyph-name="OE" unicode="&#x152;" horiz-adv-x="1128" 
d="M337 -15q-86 0 -152 43t-102.5 120.5t-36.5 179.5v24q0 102 36.5 179.5t102.5 120.5t152 43q61 0 117 -23.5t126 -76.5v85h492v-103h-370v-186h355v-101h-355v-187h370v-103h-492v86q-70 -54 -126.5 -77.5t-116.5 -23.5zM176 331q0 -113 48 -177.5t130 -64.5
q44 0 90 20.5t108 67.5l28 21v284l-28 21q-62 47 -108 67.5t-90 20.5q-82 0 -130 -64.5t-48 -177.5v-18z" />
    <glyph glyph-name="oe" unicode="&#x153;" horiz-adv-x="983" 
d="M302 -10q-80 0 -138.5 30.5t-90 87.5t-31.5 135v26q0 78 31.5 134.5t90 87.5t138.5 31q136 0 202 -85q67 85 193 85q112 0 177 -64t65 -174v-63h-377q4 -63 39.5 -97t96.5 -34q34 0 71 11t91 37l62 29v-106l-35 -16q-55 -28 -103.5 -41.5t-97.5 -13.5q-124 0 -186 79
q-67 -79 -198 -79zM693 427q-56 0 -89.5 -33t-40.5 -94h257q-3 61 -36.5 94t-90.5 33zM304 89q66 0 102 40.5t36 115.5v22q0 74 -36 115t-102 41t-102 -41t-36 -115v-22q0 -75 36 -115.5t102 -40.5z" />
    <glyph glyph-name="Racute" unicode="&#x154;" horiz-adv-x="720" 
d="M85 0v680h346q111 0 170.5 -52t59.5 -154q0 -72 -37.5 -120t-105.5 -68l177 -286h-143l-159 266h-184v-266h-124zM209 367h205q55 0 86 28t31 79q0 105 -117 105h-205v-212zM297 725l118 145h130l-141 -145h-107z" />
    <glyph glyph-name="racute" unicode="&#x155;" horiz-adv-x="414" 
d="M73 0v512h119v-98l29 21q60 43 99 62.5t76 24.5v-118q-46 -7 -85.5 -21.5t-84.5 -41.5l-32 -19v-322h-121zM180 580l116 175h124l-137 -175h-103z" />
    <glyph glyph-name="uni0156" unicode="&#x156;" horiz-adv-x="720" 
d="M85 0v680h346q111 0 170.5 -52t59.5 -154q0 -72 -37.5 -120t-105.5 -68l177 -286h-143l-159 266h-184v-266h-124zM209 367h205q55 0 86 28t31 79q0 105 -117 105h-205v-212zM280 -223l38 168h114l-58 -168h-94z" />
    <glyph glyph-name="uni0157" unicode="&#x157;" horiz-adv-x="414" 
d="M73 0v512h119v-98l29 21q60 43 99 62.5t76 24.5v-118q-46 -7 -85.5 -21.5t-84.5 -41.5l-32 -19v-322h-121zM44 -223l38 168h113l-58 -168h-93z" />
    <glyph glyph-name="Rcaron" unicode="&#x158;" horiz-adv-x="720" 
d="M85 0v680h346q111 0 170.5 -52t59.5 -154q0 -72 -37.5 -120t-105.5 -68l177 -286h-143l-159 266h-184v-266h-124zM209 367h205q55 0 86 28t31 79q0 105 -117 105h-205v-212zM304 725l-135 145h100l86 -73l85 73h101l-135 -145h-102z" />
    <glyph glyph-name="rcaron" unicode="&#x159;" horiz-adv-x="414" 
d="M73 0v512h119v-98l29 21q60 43 99 62.5t76 24.5v-118q-46 -7 -85.5 -21.5t-84.5 -41.5l-32 -19v-322h-121zM185 580l-134 175h99l86 -95l86 95h98l-133 -175h-102z" />
    <glyph glyph-name="Sacute" unicode="&#x15a;" horiz-adv-x="665" 
d="M388 -15q-74 0 -144.5 18t-154.5 58l-43 21v121l80 -40q83 -40 142.5 -57.5t114.5 -17.5q54 0 84.5 26t30.5 71q0 40 -26.5 60t-98.5 33l-110 20q-109 20 -157 66t-48 129q0 62 29 107t82 70t124 25q58 0 117 -14t140 -47l47 -18v-116l-76 32q-55 22 -94.5 35.5t-70.5 19
t-61 5.5q-51 0 -81.5 -23.5t-30.5 -66.5q0 -41 26 -61t98 -33l116 -21q108 -20 154 -65t46 -130q0 -97 -62.5 -152t-172.5 -55zM284 725l118 145h130l-141 -145h-107z" />
    <glyph glyph-name="sacute" unicode="&#x15b;" horiz-adv-x="533" 
d="M311 -10q-47 0 -103 14.5t-127 44.5l-39 16v104l78 -33q116 -52 183 -52q36 0 56 14.5t20 41.5q0 25 -15 37t-53 20l-102 20q-83 15 -120 50.5t-37 98.5q0 72 49 114t133 42q40 0 83 -10t110 -35l45 -16v-103l-72 28q-59 24 -94 33t-65 9q-35 0 -53.5 -14.5t-18.5 -40.5
q0 -24 15.5 -36t56.5 -20l113 -21q74 -14 107.5 -49.5t33.5 -98.5q0 -74 -48.5 -116t-135.5 -42zM214 580l116 175h124l-137 -175h-103z" />
    <glyph glyph-name="Scircumflex" unicode="&#x15c;" horiz-adv-x="665" 
d="M388 -15q-74 0 -144.5 18t-154.5 58l-43 21v121l80 -40q83 -40 142.5 -57.5t114.5 -17.5q54 0 84.5 26t30.5 71q0 40 -26.5 60t-98.5 33l-110 20q-109 20 -157 66t-48 129q0 62 29 107t82 70t124 25q58 0 117 -14t140 -47l47 -18v-116l-76 32q-55 22 -94.5 35.5t-70.5 19
t-61 5.5q-51 0 -81.5 -23.5t-30.5 -66.5q0 -41 26 -61t98 -33l116 -21q108 -20 154 -65t46 -130q0 -97 -62.5 -152t-172.5 -55zM155 725l135 145h103l135 -145h-101l-85 73l-86 -73h-101z" />
    <glyph glyph-name="scircumflex" unicode="&#x15d;" horiz-adv-x="533" 
d="M311 -10q-47 0 -103 14.5t-127 44.5l-39 16v104l78 -33q116 -52 183 -52q36 0 56 14.5t20 41.5q0 25 -15 37t-53 20l-102 20q-83 15 -120 50.5t-37 98.5q0 72 49 114t133 42q40 0 83 -10t110 -35l45 -16v-103l-72 28q-59 24 -94 33t-65 9q-35 0 -53.5 -14.5t-18.5 -40.5
q0 -24 15.5 -36t56.5 -20l113 -21q74 -14 107.5 -49.5t33.5 -98.5q0 -74 -48.5 -116t-135.5 -42zM85 580l133 175h103l133 -175h-98l-86 95l-87 -95h-98z" />
    <glyph glyph-name="Scedilla" unicode="&#x15e;" horiz-adv-x="665" 
d="M388 -15q-74 0 -144.5 18t-154.5 58l-43 21v121l80 -40q83 -40 142.5 -57.5t114.5 -17.5q54 0 84.5 26t30.5 71q0 40 -26.5 60t-98.5 33l-110 20q-109 20 -157 66t-48 129q0 62 29 107t82 70t124 25q58 0 117 -14t140 -47l47 -18v-116l-76 32q-55 22 -94.5 35.5t-70.5 19
t-61 5.5q-51 0 -81.5 -23.5t-30.5 -66.5q0 -41 26 -61t98 -33l116 -21q108 -20 154 -65t46 -130q0 -97 -62.5 -152t-172.5 -55zM346 -227q-43 0 -107 18l-33 9v67l43 -13q54 -16 83 -16q39 0 39 33q0 30 -47 30h-80v43l38 76l69 -2l-32 -63h24q112 0 112 -87
q0 -45 -28.5 -70t-80.5 -25z" />
    <glyph glyph-name="scedilla" unicode="&#x15f;" horiz-adv-x="533" 
d="M311 -10q-47 0 -103 14.5t-127 44.5l-39 16v104l78 -33q116 -52 183 -52q36 0 56 14.5t20 41.5q0 25 -15 37t-53 20l-102 20q-83 15 -120 50.5t-37 98.5q0 72 49 114t133 42q40 0 83 -10t110 -35l45 -16v-103l-72 28q-59 24 -94 33t-65 9q-35 0 -53.5 -14.5t-18.5 -40.5
q0 -24 15.5 -36t56.5 -20l113 -21q74 -14 107.5 -49.5t33.5 -98.5q0 -74 -48.5 -116t-135.5 -42zM276 -227q-44 0 -105 18l-31 9v67l41 -13q30 -9 47 -12.5t34 -3.5q38 0 38 33q0 30 -46 30h-77v49l29 70l66 -2l-28 -63h29q108 0 108 -87q0 -45 -28 -70t-77 -25z" />
    <glyph glyph-name="Scaron" unicode="&#x160;" horiz-adv-x="665" 
d="M388 -15q-74 0 -144.5 18t-154.5 58l-43 21v121l80 -40q83 -40 142.5 -57.5t114.5 -17.5q54 0 84.5 26t30.5 71q0 40 -26.5 60t-98.5 33l-110 20q-109 20 -157 66t-48 129q0 62 29 107t82 70t124 25q58 0 117 -14t140 -47l47 -18v-116l-76 32q-55 22 -94.5 35.5t-70.5 19
t-61 5.5q-51 0 -81.5 -23.5t-30.5 -66.5q0 -41 26 -61t98 -33l116 -21q108 -20 154 -65t46 -130q0 -97 -62.5 -152t-172.5 -55zM291 725l-135 145h100l86 -73l85 73h101l-135 -145h-102z" />
    <glyph glyph-name="scaron" unicode="&#x161;" horiz-adv-x="533" 
d="M311 -10q-47 0 -103 14.5t-127 44.5l-39 16v104l78 -33q116 -52 183 -52q36 0 56 14.5t20 41.5q0 25 -15 37t-53 20l-102 20q-83 15 -120 50.5t-37 98.5q0 72 49 114t133 42q40 0 83 -10t110 -35l45 -16v-103l-72 28q-59 24 -94 33t-65 9q-35 0 -53.5 -14.5t-18.5 -40.5
q0 -24 15.5 -36t56.5 -20l113 -21q74 -14 107.5 -49.5t33.5 -98.5q0 -74 -48.5 -116t-135.5 -42zM219 580l-134 175h99l86 -95l86 95h98l-133 -175h-102z" />
    <glyph glyph-name="uni0162" unicode="&#x162;" horiz-adv-x="655" 
d="M265 0v577h-246v103h617v-103h-246v-577h-125zM365 -227q-43 0 -107 18l-33 9v67l43 -13q54 -16 83 -16q39 0 39 33q0 30 -47 30h-80v43l38 76l69 -2l-32 -63h24q112 0 112 -87q0 -45 -28.5 -70t-80.5 -25z" />
    <glyph glyph-name="uni0163" unicode="&#x163;" horiz-adv-x="527" 
d="M271 -10q-72 0 -110 40.5t-38 116.5v241h-104v98h104v171h121v-171h251v-98h-251v-221q0 -69 52 -69q25 0 50 13t67 47l82 64v-121l-39 -30q-56 -44 -98 -62.5t-87 -18.5zM326 -227q-44 0 -105 18l-31 9v67l41 -13q30 -9 47 -12.5t34 -3.5q38 0 38 33q0 30 -46 30h-77v49
l29 70l66 -2l-28 -63h29q108 0 108 -87q0 -45 -28 -70t-77 -25z" />
    <glyph glyph-name="Tcaron" unicode="&#x164;" horiz-adv-x="655" 
d="M265 0v577h-246v103h617v-103h-246v-577h-125zM278 725l-135 145h100l86 -73l85 73h101l-135 -145h-102z" />
    <glyph glyph-name="tcaron" unicode="&#x165;" horiz-adv-x="527" 
d="M271 -10q-72 0 -110 40.5t-38 116.5v241h-104v98h104v171h121v-171h251v-98h-251v-221q0 -69 52 -69q25 0 50 13t67 47l82 64v-121l-39 -30q-56 -44 -98 -62.5t-87 -18.5zM321 542l22 210h111l-43 -210h-90z" />
    <glyph glyph-name="Tbar" unicode="&#x166;" horiz-adv-x="655" 
d="M265 0v302h-132v77h132v198h-246v103h617v-103h-246v-198h132v-77h-132v-302h-125z" />
    <glyph glyph-name="tbar" unicode="&#x167;" horiz-adv-x="527" 
d="M19 222v73h104v97h-104v94h104v171h121v-171h251v-94h-251v-97h251v-73h-251v-59q0 -68 50 -68q24 0 51 13t70 46l80 57v-117l-38 -27q-56 -42 -98.5 -59.5t-87.5 -17.5q-72 0 -110 40.5t-38 116.5v75h-104z" />
    <glyph glyph-name="Utilde" unicode="&#x168;" horiz-adv-x="776" 
d="M388 -15q-153 0 -232 72t-79 211v412h125v-394q0 -103 44.5 -149.5t141.5 -46.5q98 0 142 46.5t44 149.5v394h125v-412q0 -139 -79 -211t-232 -72zM466 722q-33 0 -80 26l-41 22q-21 12 -34 12t-21 -8.5t-15 -28.5l-6 -20h-80l11 36q15 54 37.5 78t59.5 24q32 0 80 -26
l40 -22q13 -7 20.5 -9.5t14.5 -2.5q12 0 20.5 8.5t14.5 28.5l6 20h80l-10 -36q-16 -55 -38.5 -78.5t-58.5 -23.5z" />
    <glyph glyph-name="utilde" unicode="&#x169;" horiz-adv-x="602" 
d="M224 -10q-75 0 -115.5 48t-40.5 136v338h121v-319q0 -100 72 -100q26 0 55 16t68 47l24 20v336h121v-512h-119v80l-9 -7q-54 -46 -94.5 -64.5t-82.5 -18.5zM378 587q-32 0 -78 28l-34 21q-22 15 -35 15t-20 -8.5t-14 -31.5l-6 -21h-79l11 39q15 56 38.5 81t59.5 25
q17 0 34.5 -6t43.5 -22l34 -21q22 -14 35 -14t20 8.5t14 31.5l6 20h79l-11 -39q-15 -56 -38.5 -81t-59.5 -25z" />
    <glyph glyph-name="Umacron" unicode="&#x16a;" horiz-adv-x="776" 
d="M388 -15q-153 0 -232 72t-79 211v412h125v-394q0 -103 44.5 -149.5t141.5 -46.5q98 0 142 46.5t44 149.5v394h125v-412q0 -139 -79 -211t-232 -72zM189 754v86h396v-86h-396z" />
    <glyph glyph-name="umacron" unicode="&#x16b;" horiz-adv-x="602" 
d="M224 -10q-75 0 -115.5 48t-40.5 136v338h121v-319q0 -100 72 -100q26 0 55 16t68 47l24 20v336h121v-512h-119v80l-9 -7q-54 -46 -94.5 -64.5t-82.5 -18.5zM107 610v89h386v-89h-386z" />
    <glyph glyph-name="Ubreve" unicode="&#x16c;" horiz-adv-x="776" 
d="M388 -15q-153 0 -232 72t-79 211v412h125v-394q0 -103 44.5 -149.5t141.5 -46.5q98 0 142 46.5t44 149.5v394h125v-412q0 -139 -79 -211t-232 -72zM387 721q-137 0 -174 118l-8 23h89l4 -11q19 -49 89 -49t89 49l4 11h89l-8 -23q-37 -118 -174 -118z" />
    <glyph glyph-name="ubreve" unicode="&#x16d;" horiz-adv-x="602" 
d="M224 -10q-75 0 -115.5 48t-40.5 136v338h121v-319q0 -100 72 -100q26 0 55 16t68 47l24 20v336h121v-512h-119v80l-9 -7q-54 -46 -94.5 -64.5t-82.5 -18.5zM300 580q-66 0 -106.5 35t-60.5 108l-8 27h89l5 -16q10 -37 29.5 -53.5t51.5 -16.5t51.5 16.5t29.5 53.5l5 16h89
l-8 -27q-20 -73 -60.5 -108t-106.5 -35z" />
    <glyph glyph-name="Uring" unicode="&#x16e;" horiz-adv-x="776" 
d="M388 -15q-153 0 -232 72t-79 211v412h125v-394q0 -103 44.5 -149.5t141.5 -46.5q98 0 142 46.5t44 149.5v394h125v-412q0 -139 -79 -211t-232 -72zM387 718q-59 0 -96 30.5t-37 79.5v4q0 49 37 79.5t96 30.5t96 -30.5t37 -79.5v-4q0 -49 -37 -79.5t-96 -30.5zM387 778
q29 0 45.5 13t16.5 39t-16.5 39t-45.5 13t-45.5 -13t-16.5 -39t16.5 -39t45.5 -13z" />
    <glyph glyph-name="uring" unicode="&#x16f;" horiz-adv-x="602" 
d="M224 -10q-75 0 -115.5 48t-40.5 136v338h121v-319q0 -100 72 -100q26 0 55 16t68 47l24 20v336h121v-512h-119v80l-9 -7q-54 -46 -94.5 -64.5t-82.5 -18.5zM301 575q-57 0 -93.5 32.5t-36.5 84.5v4q0 52 36.5 84.5t93.5 32.5q56 0 92.5 -32.5t36.5 -84.5v-4
q0 -52 -36.5 -84.5t-92.5 -32.5zM301 635q27 0 42.5 15.5t15.5 43.5t-15.5 43.5t-42.5 15.5q-28 0 -43.5 -15.5t-15.5 -43.5t15.5 -43.5t43.5 -15.5z" />
    <glyph glyph-name="Uhungarumlaut" unicode="&#x170;" horiz-adv-x="775" 
d="M388 -15q-153 0 -232 72t-79 211v412h125v-394q0 -103 44.5 -149.5t141.5 -46.5q98 0 142 46.5t44 149.5v394h125v-412q0 -139 -79 -211t-232 -72zM436 725l125 145h129l-147 -145h-107zM235 725l109 145h125l-131 -145h-103z" />
    <glyph glyph-name="uhungarumlaut" unicode="&#x171;" horiz-adv-x="603" 
d="M224 -10q-75 0 -115.5 48t-40.5 136v338h121v-319q0 -100 72 -100q26 0 55 16t68 47l24 20v336h121v-512h-119v80l-9 -7q-54 -46 -94.5 -64.5t-82.5 -18.5zM347 580l117 175h121l-138 -175h-100zM154 580l110 175h121l-132 -175h-99z" />
    <glyph glyph-name="Uogonek" unicode="&#x172;" horiz-adv-x="776" 
d="M574 680h125v-412q0 -61 -16 -110t-52 -97l-82 -105q-22 -29 -29.5 -45t-7.5 -32t9 -25.5t25 -9.5q21 0 56 17l35 17v-71l-24 -11q-23 -11 -45 -17t-45 -6q-44 0 -72 25.5t-28 64.5q0 19 6 36t21.5 38t42.5 53l8 9q-51 -14 -113 -14q-153 0 -232 72t-79 211v412h125v-394
q0 -103 44.5 -149.5t141.5 -46.5q98 0 142 46.5t44 149.5v394z" />
    <glyph glyph-name="uogonek" unicode="&#x173;" horiz-adv-x="603" 
d="M224 -10q-75 0 -115.5 48t-40.5 136v338h121v-319q0 -100 72 -100q26 0 55 16t68 47l24 20v336h121v-512h-119v80l-9 -7q-54 -46 -94.5 -64.5t-82.5 -18.5zM407 -227q-44 0 -70.5 25t-26.5 65q0 34 20 59.5t66 57.5l77 52l57 -32l-84 -59q-28 -19 -39.5 -32t-11.5 -30
q0 -16 10 -25.5t26 -9.5q12 0 24 4t30 13l35 17v-71l-23 -11q-50 -23 -90 -23z" />
    <glyph glyph-name="Wcircumflex" unicode="&#x174;" horiz-adv-x="941" 
d="M193 0l-170 680h133l117 -511l141 511h128l136 -506l118 506h122l-170 -680h-130l-144 511l-145 -511h-136zM291 725l135 145h103l135 -145h-101l-85 73l-86 -73h-101z" />
    <glyph glyph-name="wcircumflex" unicode="&#x175;" horiz-adv-x="799" 
d="M165 0l-148 512h124l95 -362l108 362h120l107 -362l96 362h115l-147 -512h-117l-118 376l-117 -376h-118zM216 580l133 175h103l133 -175h-98l-86 95l-87 -95h-98z" />
    <glyph glyph-name="Ycircumflex" unicode="&#x176;" horiz-adv-x="723" 
d="M299 0v250l-289 430h144l212 -321l212 321h135l-289 -430v-250h-125zM176 725l135 145h103l135 -145h-101l-85 73l-86 -73h-101z" />
    <glyph glyph-name="ycircumflex" unicode="&#x177;" horiz-adv-x="569" 
d="M162 -210q-44 0 -87 22l-13 7v107l26 -14q20 -10 32.5 -13.5t23.5 -3.5q18 0 30.5 11.5t26.5 41.5l24 54l-214 510h130l148 -374l146 374h123l-252 -596q-29 -70 -61 -98t-83 -28zM98 580l133 175h103l133 -175h-98l-86 95l-87 -95h-98z" />
    <glyph glyph-name="Ydieresis" unicode="&#x178;" horiz-adv-x="723" 
d="M299 0v250l-289 430h144l212 -321l212 321h135l-289 -430v-250h-125zM425 738v119h116v-119h-116zM185 738v119h116v-119h-116z" />
    <glyph glyph-name="Zacute" unicode="&#x179;" horiz-adv-x="641" 
d="M30 0v89l408 488h-393v103h554v-89l-408 -488h423v-103h-584zM261 725l118 145h130l-141 -145h-107z" />
    <glyph glyph-name="zacute" unicode="&#x17a;" horiz-adv-x="530" 
d="M32 0v83l298 331h-281v98h434v-83l-298 -331h315v-98h-468zM211 580l116 175h124l-137 -175h-103z" />
    <glyph glyph-name="Zdotaccent" unicode="&#x17b;" horiz-adv-x="641" 
d="M30 0v89l408 488h-393v103h554v-89l-408 -488h423v-103h-584zM250 734v127h136v-127h-136z" />
    <glyph glyph-name="zdotaccent" unicode="&#x17c;" horiz-adv-x="530" 
d="M32 0v83l298 331h-281v98h434v-83l-298 -331h315v-98h-468zM198 599v129h138v-129h-138z" />
    <glyph glyph-name="Zcaron" unicode="&#x17d;" horiz-adv-x="641" 
d="M30 0v89l408 488h-393v103h554v-89l-408 -488h423v-103h-584zM268 725l-135 145h100l86 -73l85 73h101l-135 -145h-102z" />
    <glyph glyph-name="zcaron" unicode="&#x17e;" horiz-adv-x="530" 
d="M32 0v83l298 331h-281v98h434v-83l-298 -331h315v-98h-468zM216 580l-134 175h99l86 -95l86 95h98l-133 -175h-102z" />
    <glyph glyph-name="uni0180" unicode="&#x180;" horiz-adv-x="642" 
d="M75 0v591h-92v75h92v74h121v-74h202v-75h-202v-154q59 46 103 65.5t88 19.5q64 0 112 -32.5t75 -90t27 -135.5v-17q0 -77 -27 -134.5t-74.5 -90t-111.5 -32.5q-46 0 -91 20t-103 65v-75h-119zM356 420q-32 0 -68.5 -19t-91.5 -62v-166q55 -44 91.5 -62.5t68.5 -18.5
q55 0 87.5 43t32.5 114v13q0 72 -32.5 115t-87.5 43z" />
    <glyph glyph-name="uni0181" unicode="&#x181;" horiz-adv-x="923" 
d="M296 0v580h-68q-87 0 -87 -74q0 -17 6.5 -43t21.5 -72l14 -45h-118l-10 31q-17 49 -24 84.5t-7 60.5q0 75 50 116.5t138 41.5h414q116 0 176.5 -46.5t60.5 -137.5q0 -102 -85 -149q95 -40 95 -154q0 -92 -63 -142.5t-177 -50.5h-337zM614 580h-195v-191h195q120 0 120 95
q0 96 -120 96zM624 292h-205v-192h205q120 0 120 96t-120 96z" />
    <glyph glyph-name="uni0186" unicode="&#x186;" horiz-adv-x="696" 
d="M347 -15q-61 0 -125 21t-137 69l-42 27v125l89 -58q62 -40 111 -60t92 -20q86 0 135.5 66t49.5 179v12q0 113 -50 179t-136 66q-40 0 -82.5 -17t-107.5 -56l-94 -57v123l48 29q72 43 130 62.5t117 19.5q92 0 160.5 -43t106.5 -121t38 -181v-20q0 -103 -37.5 -181
t-106 -121t-159.5 -43z" />
    <glyph glyph-name="uni0187" unicode="&#x187;" horiz-adv-x="696" 
d="M349 -15q-91 0 -159.5 43t-106 120.5t-37.5 181.5v20q0 104 38 181.5t106.5 120.5t160.5 43q44 0 88 -11t94 -35v67q0 159 139 159q24 0 48 -5.5t54 -17.5l17 -6v-104l-31 14q-42 18 -64 18q-50 0 -50 -68v-245l-94 57q-68 41 -110 57t-80 16q-85 0 -135.5 -66
t-50.5 -179v-12q0 -113 50 -179t135 -66q41 0 89.5 19t113.5 61l89 58v-125l-42 -27q-139 -90 -262 -90z" />
    <glyph glyph-name="uni0188" unicode="&#x188;" horiz-adv-x="536" 
d="M260 -10q-66 0 -115 31t-76 87t-27 133v30q0 74 28.5 130.5t79 88.5t116.5 32q56 0 114 -27v64q0 120 110 120q22 0 42.5 -4t44.5 -11l21 -8v-91l-25 9q-19 7 -30 9.5t-20 2.5q-33 0 -33 -42v-222l-50 32q-58 39 -92.5 54t-63.5 15q-56 0 -87 -41t-31 -113v-26
q0 -73 29 -113.5t82 -40.5q32 0 69 17t96 59l50 34v-113l-29 -20q-58 -39 -106.5 -57.5t-96.5 -18.5z" />
    <glyph glyph-name="uni0189" unicode="&#x189;" horiz-adv-x="791" 
d="M108 0v301h-90v78h90v301h292q100 0 178 -37t123 -109.5t45 -179.5v-28q0 -107 -45 -179.5t-123 -109.5t-178 -37h-292zM380 301h-147v-200h162q100 0 160 58.5t60 172.5v16q0 114 -60 172.5t-160 58.5h-162v-200h147v-78z" />
    <glyph glyph-name="uni018A" unicode="&#x18a;" horiz-adv-x="980" 
d="M296 0v580h-68q-87 0 -87 -74q0 -17 6.5 -43t21.5 -72l14 -45h-118l-10 31q-17 49 -24 84.5t-7 60.5q0 75 50 116.5t138 41.5h376q101 0 179 -37t122.5 -109.5t44.5 -179.5v-28q0 -107 -44.5 -179.5t-122.5 -109.5t-179 -37h-292zM584 579h-162v-478h162q100 0 160 58.5
t60 172.5v16q0 114 -60 172.5t-160 58.5z" />
    <glyph glyph-name="uni018E" unicode="&#x18e;" horiz-adv-x="646" 
d="M56 0v103h383v187h-368v101h368v186h-383v103h506v-680h-506z" />
    <glyph glyph-name="uni018F" unicode="&#x18f;" horiz-adv-x="750" 
d="M378 -15q-101 0 -175 40t-114 114t-40 176v74h527q-8 94 -60 148t-136 54q-46 0 -101.5 -17t-140.5 -57l-74 -36v116l31 15q64 30 113 48.5t91.5 26.5t84.5 8q93 0 165.5 -42.5t113.5 -117.5t41 -173v-30q0 -106 -40 -184t-113 -120.5t-173 -42.5zM378 89q90 0 140 52
t57 153h-398q4 -99 56.5 -152t144.5 -53z" />
    <glyph glyph-name="uni0190" unicode="&#x190;" horiz-adv-x="650" 
d="M280 -15q-105 0 -167.5 53t-62.5 142q0 58 29 99.5t80 62.5q-46 21 -72.5 61.5t-26.5 94.5q0 92 62.5 144.5t167.5 52.5q55 0 113.5 -15.5t145.5 -52.5l46 -20v-114l-75 34q-78 36 -128 50.5t-93 14.5q-53 0 -82.5 -25.5t-29.5 -73.5q0 -104 141 -104h193v-97h-213
q-131 0 -131 -102q0 -48 30.5 -75t85.5 -27q48 0 101 18t130 60l78 43v-119l-46 -24q-87 -46 -152 -63.5t-124 -17.5z" />
    <glyph glyph-name="uni0191" unicode="&#x191;" horiz-adv-x="628" 
d="M591 577h-380v-187h365v-101h-365v-340q0 -159 -146 -159q-50 0 -110 23l-28 11v113l39 -17q45 -20 73 -20q46 0 46 60v720h506v-103z" />
    <glyph glyph-name="florin" unicode="&#x192;" horiz-adv-x="477" 
d="M137 -210q-45 0 -92 21l-20 10v99l25 -12q34 -15 50 -15t22.5 7.5t6.5 25.5v462h-107v98h107v94q0 80 45 125t124 45q32 0 64 -7.5t78 -25.5l26 -11v-105l-37 16q-45 18 -67.5 24t-43.5 6q-68 0 -68 -83v-78h216v-98h-216v-476q0 -59 -29 -90.5t-84 -31.5z" />
    <glyph glyph-name="uni0193" unicode="&#x193;" horiz-adv-x="751" 
d="M363 -15q-97 0 -168.5 42.5t-110 120t-38.5 182.5v20q0 103 41 180.5t115 121t172 43.5q45 0 90.5 -10.5t102.5 -33.5v65q0 159 139 159q24 0 48 -5.5t54 -17.5l17 -6v-104l-31 14q-42 18 -64 18q-50 0 -50 -68v-225l-96 45q-73 34 -118.5 49.5t-87.5 15.5
q-93 0 -147.5 -66t-54.5 -179v-12q0 -116 50.5 -180.5t141.5 -64.5q52 0 98 16t107 53v130h-199v100h322v-280l-37 -23q-85 -52 -157.5 -76t-138.5 -24z" />
    <glyph glyph-name="uni0194" unicode="&#x194;" horiz-adv-x="728" 
d="M366 -210q-82 0 -130 39t-48 106q0 31 12.5 64t44.5 86l50 81l-282 514h133l222 -411l216 411h130l-276 -512l49 -77q31 -49 44.5 -85t13.5 -71q0 -66 -48.5 -105.5t-130.5 -39.5zM364 -109q27 0 42.5 14t15.5 38q0 19 -7.5 39.5t-27.5 54.5l-23 40l-24 -42
q-19 -32 -26.5 -52.5t-7.5 -39.5q0 -24 16 -38t42 -14z" />
    <glyph glyph-name="uni0196" unicode="&#x196;" horiz-adv-x="348" 
d="M206 -10q-59 0 -91.5 32t-32.5 90v568h125v-543q0 -40 36 -40q21 0 65 25l23 13v-105l-15 -8q-59 -32 -110 -32z" />
    <glyph glyph-name="uni0197" unicode="&#x197;" horiz-adv-x="341" 
d="M108 0v302h-90v77h90v301h125v-301h90v-77h-90v-302h-125z" />
    <glyph glyph-name="uni0198" unicode="&#x198;" horiz-adv-x="740" 
d="M85 0v680h125v-331l217 253q45 51 78 72t72 21q25 0 49.5 -7t54.5 -22l25 -12v-117l-42 22q-23 12 -39 18t-30 6q-20 0 -37.5 -10.5t-42.5 -37.5l-134 -148l339 -387h-159l-265 303l-86 -96v-207h-125z" />
    <glyph glyph-name="uni0199" unicode="&#x199;" horiz-adv-x="588" 
d="M75 0v585q0 81 44 123t118 42q31 0 65 -7t76 -22l22 -8v-105l-37 14q-35 14 -57.5 19.5t-42.5 5.5q-67 0 -67 -82v-282l238 225h147l-237 -217l247 -291h-153l-181 222l-61 -57v-165h-121z" />
    <glyph glyph-name="uni019D" unicode="&#x19d;" horiz-adv-x="773" 
d="M570 680h118v-680h-123l-363 492v-544q0 -158 -136 -158q-52 0 -107 22l-26 9v110l34 -14q26 -11 42 -15.5t31 -4.5q24 0 34.5 14t10.5 46v723h124l361 -492v492z" />
    <glyph glyph-name="uni019F" unicode="&#x19f;" horiz-adv-x="796" 
d="M398 -15q-105 0 -184.5 43t-123.5 119.5t-44 178.5v28q0 102 44 178.5t123.5 119.5t184.5 43t184.5 -43t123.5 -119.5t44 -178.5v-28q0 -102 -44 -178.5t-123.5 -119.5t-184.5 -43zM398 591q-95 0 -153.5 -57t-66.5 -155h440q-8 98 -66.5 155t-153.5 57zM398 89
q95 0 153.5 57t66.5 156h-440q8 -99 66.5 -156t153.5 -57z" />
    <glyph glyph-name="Ohorn" unicode="&#x1a0;" horiz-adv-x="810" 
d="M398 -15q-105 0 -184.5 43t-123.5 119.5t-44 178.5v28q0 102 44 178.5t123.5 119.5t184.5 43q37 0 79.5 -3.5t83 -7.5t74.5 -4q32 0 46.5 9.5t14.5 29.5q0 13 -4.5 27t-15.5 37l-11 24h98l10 -22q23 -51 23 -87q0 -98 -132 -98h-15q49 -42 75 -105t26 -141v-28
q0 -102 -44 -178.5t-123.5 -119.5t-184.5 -43zM398 89q103 0 162.5 65.5t59.5 177.5v16q0 112 -59.5 177.5t-162.5 65.5t-162.5 -65.5t-59.5 -177.5v-16q0 -112 59.5 -177.5t162.5 -65.5z" />
    <glyph glyph-name="ohorn" unicode="&#x1a1;" horiz-adv-x="639" 
d="M310 522q48 0 94 -5t86 -5q54 0 54 39q0 12 -5 26t-21 44l-14 28h95l13 -25q31 -56 31 -94q0 -47 -32.5 -71.5t-91.5 -24.5h-7q31 -30 48.5 -73t17.5 -94v-24q0 -78 -33 -134.5t-93 -87.5t-142 -31t-142.5 31t-93 87.5t-32.5 134.5v26q0 77 32.5 134t93 88t142.5 31z
M310 89q68 0 106 41t38 115v22q0 73 -38 114.5t-106 41.5q-69 0 -106.5 -41.5t-37.5 -114.5v-22q0 -74 37.5 -115t106.5 -41z" />
    <glyph glyph-name="uni01A4" unicode="&#x1a4;" horiz-adv-x="893" 
d="M296 0v580h-68q-87 0 -87 -74q0 -17 6.5 -43t21.5 -72l14 -45h-118l-10 31q-17 49 -24 84.5t-7 60.5q0 75 50 116.5t138 41.5h422q112 0 171.5 -52t59.5 -154q0 -100 -64 -154t-177 -54h-203v-266h-125zM421 367h196q56 0 87 28t31 79q0 105 -118 105h-196v-212z" />
    <glyph glyph-name="uni01A5" unicode="&#x1a5;" horiz-adv-x="642" 
d="M75 -200v785q0 81 44 123t118 42q31 0 65 -7t76 -22l22 -8v-105l-37 14q-35 14 -57.5 19.5t-42.5 5.5q-67 0 -67 -82v-131q59 45 103 64.5t88 19.5q64 0 112 -31.5t75 -89t27 -134.5v-17q0 -76 -27 -134t-74.5 -90t-111.5 -32q-45 0 -90 19.5t-102 64.5v-274h-121z
M356 417q-32 0 -68.5 -19t-91.5 -62v-163q55 -44 91.5 -62.5t68.5 -18.5q55 0 87.5 43t32.5 113v13q0 71 -32.5 113.5t-87.5 42.5z" />
    <glyph glyph-name="uni01A9" unicode="&#x1a9;" horiz-adv-x="606" 
d="M31 0v89l271 255l-256 247v89h510v-103h-343l201 -191v-83l-212 -200h370v-103h-541z" />
    <glyph glyph-name="uni01AC" unicode="&#x1ac;" horiz-adv-x="744" 
d="M65 346l-10 31q-17 49 -24 84.5t-7 60.5q0 75 50 116.5t138 41.5h513v-103h-246v-577h-125v577h-126q-45 0 -66 -16.5t-21 -54.5q0 -17 6.5 -43t21.5 -72l14 -45h-118z" />
    <glyph glyph-name="uni01AD" unicode="&#x1ad;" horiz-adv-x="527" 
d="M271 -10q-72 0 -110 40.5t-38 116.5v241h-104v98h104v99q0 81 44.5 123t117.5 42q32 0 65.5 -7t75.5 -22l23 -8v-105l-37 14q-35 14 -57.5 19.5t-42.5 5.5q-68 0 -68 -82v-79h251v-98h-251v-221q0 -69 52 -69q25 0 50 13t67 47l82 64v-121l-39 -30q-56 -44 -98 -62.5
t-87 -18.5z" />
    <glyph glyph-name="uni01AE" unicode="&#x1ae;" horiz-adv-x="655" 
d="M265 577h-246v103h617v-103h-246v-582q0 -49 17 -71t55 -22q24 0 50 9.5t68 32.5l56 31v-122l-32 -17q-42 -22 -82.5 -34t-77.5 -12q-179 0 -179 187v600z" />
    <glyph glyph-name="Uhorn" unicode="&#x1af;" horiz-adv-x="796" 
d="M388 -15q-153 0 -232 72t-79 211v412h125v-394q0 -103 44.5 -150t141.5 -47q98 0 142 47t44 150v394h89q32 0 46 9.5t14 29.5q0 13 -4 27t-16 37l-11 24h99l10 -22q23 -51 23 -87q0 -95 -125 -98v-332q0 -139 -79 -211t-232 -72z" />
    <glyph glyph-name="uhorn" unicode="&#x1b0;" horiz-adv-x="622" 
d="M224 -10q-75 0 -115.5 48t-40.5 136v338h121v-319q0 -100 72 -100q26 0 55 16t68 47l24 20v336h85q31 0 45 8.5t14 29.5q0 11 -5.5 27t-20.5 44l-14 28h95l11 -20q17 -33 25 -57t8 -44q0 -89 -122 -95v-433h-119v80l-9 -7q-54 -46 -94.5 -64.5t-82.5 -18.5z" />
    <glyph glyph-name="uni01B1" unicode="&#x1b1;" horiz-adv-x="825" 
d="M413 -15q-104 0 -183.5 40.5t-124.5 113t-45 167.5v16q0 72 35 135.5t101 119.5h-150v103h313v-89l-31 -24q-68 -55 -102.5 -113.5t-34.5 -125.5v-12q0 -104 60 -165.5t162 -61.5q101 0 161 61.5t60 165.5v12q0 68 -34 127t-102 112l-31 24v89h312v-103h-149
q65 -54 100 -118.5t35 -136.5v-16q0 -95 -44.5 -167.5t-124 -113t-183.5 -40.5z" />
    <glyph glyph-name="uni01B2" unicode="&#x1b2;" horiz-adv-x="758" 
d="M361 -15q-139 0 -211.5 68t-72.5 198v429h125v-411q0 -180 161 -180q101 0 160 79.5t59 219.5v16q0 182 -107 182q-38 0 -95 -26l-24 -12v109l14 7q65 31 126 31q105 0 160.5 -74.5t55.5 -214.5v-20q0 -191 -92 -296t-259 -105z" />
    <glyph glyph-name="uni01B3" unicode="&#x1b3;" horiz-adv-x="780" 
d="M299 0v250l-289 430h144l211 -320l143 226q39 63 70 86t71 23q25 0 48.5 -7.5t58.5 -25.5l16 -8v-117l-35 20q-28 15 -41.5 20.5t-26.5 5.5q-18 0 -32 -12t-32 -41l-181 -280v-250h-125z" />
    <glyph glyph-name="uni01B4" unicode="&#x1b4;" horiz-adv-x="544" 
d="M164 -210q-47 0 -89 22l-13 7v107l27 -14q31 -17 53 -17q21 0 35.5 14.5t28.5 48.5l19 46l-214 508h130l143 -363l145 405q25 71 58 100.5t83 29.5q37 0 84 -18l12 -4v-99l-19 8q-19 8 -30.5 11t-20.5 3q-20 0 -33 -12.5t-24 -40.5l-226 -603q-28 -78 -61.5 -108.5
t-87.5 -30.5z" />
    <glyph glyph-name="uni01B7" unicode="&#x1b7;" horiz-adv-x="637" 
d="M361 -15q-62 0 -130.5 20.5t-145.5 63.5l-44 25v119l77 -43q79 -45 133 -63t100 -18q53 0 83 26.5t30 75.5q0 51 -32 75t-97 27l-145 7v83l227 194h-366v103h531v-89l-235 -204l21 -1q224 -13 224 -195q0 -96 -61.5 -151t-169.5 -55z" />
    <glyph glyph-name="uni01C0" unicode="&#x1c0;" horiz-adv-x="267" 
d="M73 -200v940h121v-940h-121z" />
    <glyph glyph-name="uni01C1" unicode="&#x1c1;" horiz-adv-x="472" 
d="M286 -200v940h113v-940h-113zM73 -200v940h113v-940h-113z" />
    <glyph glyph-name="uni01C2" unicode="&#x1c2;" horiz-adv-x="485" 
d="M42 136v74h142v120h-142v74h142v336h118v-336h142v-74h-142v-120h142v-74h-142v-336h-118v336h-142z" />
    <glyph glyph-name="uni01C3" unicode="&#x1c3;" horiz-adv-x="240" 
d="M72 195l-18 545h132l-18 -545h-96zM46 0v133h148v-133h-148z" />
    <glyph glyph-name="uni01CD" unicode="&#x1cd;" horiz-adv-x="735" 
d="M8 0l291 680h137l291 -680h-132l-71 171h-318l-71 -171h-127zM247 271h235l-119 283zM317 725l-135 145h100l86 -73l85 73h101l-135 -145h-102z" />
    <glyph glyph-name="uni01CE" unicode="&#x1ce;" horiz-adv-x="572" 
d="M195 -10q-73 0 -116.5 40t-43.5 107q0 73 48 111.5t155 51.5l149 19v3q0 52 -19.5 75.5t-62.5 23.5q-26 0 -62.5 -11t-102.5 -39l-58 -24v106l36 15q66 28 115.5 41t92.5 13q88 0 133 -48t45 -140v-334h-115v79l-3 -3q-56 -46 -100 -66t-91 -20zM155 150q0 -29 18 -46
t48 -17q32 0 67.5 17t87.5 57l11 9v76l-132 -21q-55 -9 -77.5 -26t-22.5 -49zM231 580l-134 175h99l86 -95l86 95h98l-133 -175h-102z" />
    <glyph glyph-name="uni01CF" unicode="&#x1cf;" horiz-adv-x="295" 
d="M85 0v680h125v-680h-125zM96 725l-135 145h100l86 -73l85 73h101l-135 -145h-102z" />
    <glyph glyph-name="uni01D0" unicode="&#x1d0;" horiz-adv-x="267" 
d="M73 0v512h121v-512h-121zM85 580l-124 175h96l77 -94l77 94h95l-124 -175h-97z" />
    <glyph glyph-name="uni01D1" unicode="&#x1d1;" horiz-adv-x="796" 
d="M398 -15q-105 0 -184.5 43t-123.5 119.5t-44 178.5v28q0 102 44 178.5t123.5 119.5t184.5 43t184.5 -43t123.5 -119.5t44 -178.5v-28q0 -102 -44 -178.5t-123.5 -119.5t-184.5 -43zM398 89q103 0 162.5 65.5t59.5 177.5v16q0 112 -59.5 177.5t-162.5 65.5t-162.5 -65.5
t-59.5 -177.5v-16q0 -112 59.5 -177.5t162.5 -65.5zM347 725l-135 145h100l86 -73l85 73h101l-135 -145h-102z" />
    <glyph glyph-name="uni01D2" unicode="&#x1d2;" horiz-adv-x="619" 
d="M310 -10q-82 0 -142.5 31t-93 87.5t-32.5 134.5v26q0 77 32.5 134t93 88t142.5 31t142 -31t93 -88t33 -134v-26q0 -78 -33 -134.5t-93 -87.5t-142 -31zM310 89q68 0 106 41t38 115v22q0 73 -38 114.5t-106 41.5q-69 0 -106.5 -41.5t-37.5 -114.5v-22q0 -74 37.5 -115
t106.5 -41zM259 580l-134 175h99l86 -95l86 95h98l-133 -175h-102z" />
    <glyph glyph-name="uni01D3" unicode="&#x1d3;" horiz-adv-x="776" 
d="M388 -15q-153 0 -232 72t-79 211v412h125v-394q0 -103 44.5 -149.5t141.5 -46.5q98 0 142 46.5t44 149.5v394h125v-412q0 -139 -79 -211t-232 -72zM336 725l-135 145h100l86 -73l85 73h101l-135 -145h-102z" />
    <glyph glyph-name="uni01D4" unicode="&#x1d4;" horiz-adv-x="602" 
d="M224 -10q-75 0 -115.5 48t-40.5 136v338h121v-319q0 -100 72 -100q26 0 55 16t68 47l24 20v336h121v-512h-119v80l-9 -7q-54 -46 -94.5 -64.5t-82.5 -18.5zM249 580l-134 175h99l86 -95l86 95h98l-133 -175h-102z" />
    <glyph glyph-name="uni01D5" unicode="&#x1d5;" horiz-adv-x="776" 
d="M388 -15q-153 0 -232 72t-79 211v412h125v-394q0 -103 44.5 -149.5t141.5 -46.5q98 0 142 46.5t44 149.5v394h125v-412q0 -139 -79 -211t-232 -72zM448 734v113h115v-113h-115zM211 734v113h115v-113h-115zM191 905v82h392v-82h-392z" />
    <glyph glyph-name="uni01D6" unicode="&#x1d6;" horiz-adv-x="602" 
d="M224 -10q-75 0 -115.5 48t-40.5 136v338h121v-319q0 -100 72 -100q26 0 55 16t68 47l24 20v336h121v-512h-119v80l-9 -7q-54 -46 -94.5 -64.5t-82.5 -18.5zM358 587v117h113v-117h-113zM125 587v117h113v-117h-113zM109 781v81h378v-81h-378z" />
    <glyph glyph-name="uni01D7" unicode="&#x1d7;" horiz-adv-x="776" 
d="M388 -15q-153 0 -232 72t-79 211v412h125v-394q0 -103 44.5 -149.5t141.5 -46.5q98 0 142 46.5t44 149.5v394h125v-412q0 -139 -79 -211t-232 -72zM448 734v113h115v-113h-115zM211 734v113h115v-113h-115zM317 881l117 136h128l-139 -136h-106z" />
    <glyph glyph-name="uni01D8" unicode="&#x1d8;" horiz-adv-x="602" 
d="M224 -10q-75 0 -115.5 48t-40.5 136v338h121v-319q0 -100 72 -100q26 0 55 16t68 47l24 20v336h121v-512h-119v80l-9 -7q-54 -46 -94.5 -64.5t-82.5 -18.5zM358 587v117h113v-117h-113zM125 587v117h113v-117h-113zM224 746l113 157h122l-134 -157h-101z" />
    <glyph glyph-name="uni01D9" unicode="&#x1d9;" horiz-adv-x="776" 
d="M388 -15q-153 0 -232 72t-79 211v412h125v-394q0 -103 44.5 -149.5t141.5 -46.5q98 0 142 46.5t44 149.5v394h125v-412q0 -139 -79 -211t-232 -72zM448 734v113h115v-113h-115zM211 734v113h115v-113h-115zM336 881l-133 136h99l85 -68l84 68h100l-133 -136h-102z" />
    <glyph glyph-name="uni01DA" unicode="&#x1da;" horiz-adv-x="602" 
d="M224 -10q-75 0 -115.5 48t-40.5 136v338h121v-319q0 -100 72 -100q26 0 55 16t68 47l24 20v336h121v-512h-119v80l-9 -7q-54 -46 -94.5 -64.5t-82.5 -18.5zM358 587v117h113v-117h-113zM125 587v117h113v-117h-113zM248 746l-131 157h96l85 -84l85 84h96l-130 -157h-101z
" />
    <glyph glyph-name="uni01DB" unicode="&#x1db;" horiz-adv-x="776" 
d="M388 -15q-153 0 -232 72t-79 211v412h125v-394q0 -103 44.5 -149.5t141.5 -46.5q98 0 142 46.5t44 149.5v394h125v-412q0 -139 -79 -211t-232 -72zM448 734v113h115v-113h-115zM211 734v113h115v-113h-115zM351 881l-139 136h128l117 -136h-106z" />
    <glyph glyph-name="uni01DC" unicode="&#x1dc;" horiz-adv-x="602" 
d="M224 -10q-75 0 -115.5 48t-40.5 136v338h121v-319q0 -100 72 -100q26 0 55 16t68 47l24 20v336h121v-512h-119v80l-9 -7q-54 -46 -94.5 -64.5t-82.5 -18.5zM358 587v117h113v-117h-113zM125 587v117h113v-117h-113zM272 746l-135 157h122l113 -157h-100z" />
    <glyph glyph-name="uni01DD" unicode="&#x1dd;" horiz-adv-x="585" 
d="M288 -10q-75 0 -130 29t-85 82.5t-30 126.5v63h380q-4 61 -39 95.5t-95 34.5q-37 0 -75 -11t-91 -37l-62 -29v107l34 15q57 29 107 42.5t105 13.5q72 0 125 -31t82.5 -86.5t29.5 -130.5v-25q0 -78 -32 -136t-89.5 -90.5t-134.5 -32.5zM291 84q56 0 90 33t41 94h-260
q4 -60 37.5 -93.5t91.5 -33.5z" />
    <glyph glyph-name="uni01DE" unicode="&#x1de;" horiz-adv-x="735" 
d="M8 0l291 680h137l291 -680h-132l-71 171h-318l-71 -171h-127zM247 271h235l-119 283zM429 734v113h115v-113h-115zM192 734v113h115v-113h-115zM172 905v82h392v-82h-392z" />
    <glyph glyph-name="uni01DF" unicode="&#x1df;" horiz-adv-x="572" 
d="M195 -10q-73 0 -116.5 40t-43.5 107q0 73 48 111.5t155 51.5l149 19v3q0 52 -19.5 75.5t-62.5 23.5q-26 0 -62.5 -11t-102.5 -39l-58 -24v106l36 15q66 28 115.5 41t92.5 13q88 0 133 -48t45 -140v-334h-115v79l-3 -3q-56 -46 -100 -66t-91 -20zM155 150q0 -29 18 -46
t48 -17q32 0 67.5 17t87.5 57l11 9v76l-132 -21q-55 -9 -77.5 -26t-22.5 -49zM342 587v117h113v-117h-113zM109 587v117h113v-117h-113zM93 781v81h378v-81h-378z" />
    <glyph glyph-name="uni01E4" unicode="&#x1e4;" horiz-adv-x="814" 
d="M363 -15q-97 0 -168.5 42.5t-110 120t-38.5 182.5v20q0 103 41 180.5t115.5 121t171.5 43.5q36 0 72 -6.5t80 -22t103 -41.5l51 -22v-120l-99 44q-51 24 -86.5 38t-63 20t-54.5 6q-92 0 -146.5 -66t-54.5 -179v-12q0 -116 50.5 -180.5t141.5 -64.5q50 0 96 16t111 55v67
h-166v71h166v88h121v-88h88v-71h-88v-119l-37 -23q-87 -53 -159 -76.5t-137 -23.5z" />
    <glyph glyph-name="uni01E5" unicode="&#x1e5;" horiz-adv-x="743" 
d="M18 228v72h89q8 101 65.5 161.5t147.5 60.5q43 0 89 -21t108 -71v82h119v-212h89v-72h-89v-220q0 -106 -55.5 -162t-161.5 -56q-52 0 -109.5 14t-125.5 41l-46 18v113l67 -28q67 -29 115 -43t87 -14q108 0 108 126v82q-61 -49 -107 -69.5t-90 -20.5q-59 0 -104.5 27.5
t-73 76.5t-33.5 115h-89zM349 420q-49 0 -79.5 -31.5t-37.5 -88.5h283v33l-3 3q-56 45 -94 64.5t-69 19.5zM512 194l3 2v32h-282q7 -55 37.5 -86.5t78.5 -31.5q31 0 69 19.5t94 64.5z" />
    <glyph glyph-name="Gcaron" unicode="&#x1e6;" horiz-adv-x="751" 
d="M363 -15q-97 0 -168.5 42.5t-110 120t-38.5 182.5v20q0 103 41 180.5t115.5 121t171.5 43.5q57 0 114.5 -17t139.5 -53l52 -22v-120l-99 44q-71 33 -116 48.5t-88 15.5q-92 0 -146.5 -66t-54.5 -179v-12q0 -116 50.5 -180.5t141.5 -64.5q52 0 98 16.5t107 53.5v127h-199
v100h322v-278l-37 -23q-85 -51 -157.5 -75.5t-138.5 -24.5zM349 725l-135 145h100l86 -73l85 73h101l-135 -145h-102z" />
    <glyph glyph-name="gcaron" unicode="&#x1e7;" horiz-adv-x="644" 
d="M254 10q-63 0 -111 31t-74.5 87t-26.5 130v14q0 75 26.5 131.5t74.5 87.5t112 31q43 0 89 -21t109 -71v82h119v-505q0 -105 -57.5 -161t-164.5 -56q-53 0 -109.5 14.5t-122.5 40.5l-44 18v113l65 -29q65 -29 111 -43t86 -14q115 0 115 129v81q-62 -49 -107.5 -69.5
t-89.5 -20.5zM166 260q0 -68 32 -108.5t86 -40.5q31 0 69 19.5t94 64.5l4 2v136l-4 3q-56 45 -94 64.5t-69 19.5q-54 0 -86 -40t-32 -110v-10zM264 580l-134 175h99l86 -95l86 95h98l-133 -175h-102z" />
    <glyph glyph-name="uni01E8" unicode="&#x1e8;" horiz-adv-x="708" 
d="M85 0v680h125v-320l329 320h161l-318 -296l328 -384h-159l-261 309l-80 -73v-236h-125zM324 725l-135 145h100l86 -73l85 73h101l-135 -145h-102z" />
    <glyph glyph-name="uni01E9" unicode="&#x1e9;" horiz-adv-x="587" 
d="M74 0v740h121v-455l238 227h147l-237 -220l247 -292h-153l-182 223l-60 -56v-167h-121zM84 785l-135 145h100l86 -73l85 73h101l-135 -145h-102z" />
    <glyph glyph-name="uni01EA" unicode="&#x1ea;" horiz-adv-x="796" 
d="M660 79l-96 -123q-22 -29 -30 -45t-8 -32t9.5 -25.5t25.5 -9.5q21 0 55 17l36 17v-71l-24 -11q-24 -11 -46 -17t-44 -6q-45 0 -72.5 25.5t-27.5 64.5q0 19 6 36t22 39t45 54l10 11q-56 -18 -123 -18q-105 0 -184.5 43t-123.5 119.5t-44 178.5v28q0 102 44 178.5
t123.5 119.5t184.5 43t184.5 -43t123.5 -119.5t44 -178.5v-28q0 -70 -21.5 -128.5t-68.5 -118.5zM176 332q0 -112 59.5 -177.5t162.5 -65.5t162.5 65.5t59.5 177.5v16q0 112 -59.5 177.5t-162.5 65.5t-162.5 -65.5t-59.5 -177.5v-16z" />
    <glyph glyph-name="uni01EB" unicode="&#x1eb;" horiz-adv-x="619" 
d="M497 43l-81 -87q-24 -26 -32.5 -42t-8.5 -33t9.5 -27t25.5 -10q21 0 54 17l35 17v-71l-23 -11q-49 -23 -90 -23q-43 0 -69.5 25t-26.5 66q0 30 15 56t58 70l5 5q-31 -5 -58 -5q-82 0 -142.5 31t-93 87.5t-32.5 134.5v26q0 77 32.5 134t93 88t142.5 31t142 -31t93 -88
t33 -134v-26q0 -59 -19.5 -106.5t-61.5 -93.5zM166 245q0 -74 37.5 -115t106.5 -41q68 0 106 41t38 115v22q0 73 -38 114.5t-106 41.5q-69 0 -106.5 -41.5t-37.5 -114.5v-22z" />
    <glyph glyph-name="uni01EC" unicode="&#x1ec;" horiz-adv-x="796" 
d="M398 -15q-105 0 -184.5 43t-123.5 119.5t-44 178.5v28q0 102 44 178.5t123.5 119.5t184.5 43t184.5 -43t123.5 -119.5t44 -178.5v-28q0 -102 -44 -178.5t-123.5 -119.5t-184.5 -43zM398 89q103 0 162.5 65.5t59.5 177.5v16q0 112 -59.5 177.5t-162.5 65.5t-162.5 -65.5
t-59.5 -177.5v-16q0 -112 59.5 -177.5t162.5 -65.5zM200 754v86h396v-86h-396zM538 -227q-44 0 -72 25.5t-28 64.5q0 19 6 35.5t21.5 38.5t44.5 55l117 137l38 -37l-101 -136q-22 -30 -29.5 -46t-7.5 -31q0 -16 9 -25.5t25 -9.5q21 0 56 17l35 17v-71l-24 -11
q-48 -23 -90 -23z" />
    <glyph glyph-name="uni01ED" unicode="&#x1ed;" horiz-adv-x="619" 
d="M497 43l-81 -87q-24 -26 -32.5 -42t-8.5 -33t9.5 -27t25.5 -10q21 0 54 17l35 17v-71l-23 -11q-49 -23 -90 -23q-43 0 -69.5 25t-26.5 66q0 30 15 56t58 70l5 5q-31 -5 -58 -5q-82 0 -142.5 31t-93 87.5t-32.5 134.5v26q0 77 32.5 134t93 88t142.5 31t142 -31t93 -88
t33 -134v-26q0 -59 -19.5 -106.5t-61.5 -93.5zM166 245q0 -74 37.5 -115t106.5 -41q68 0 106 41t38 115v22q0 73 -38 114.5t-106 41.5q-69 0 -106.5 -41.5t-37.5 -114.5v-22zM117 610v89h386v-89h-386z" />
    <glyph glyph-name="uni01EE" unicode="&#x1ee;" horiz-adv-x="637" 
d="M361 -15q-62 0 -130.5 20.5t-145.5 63.5l-44 25v119l77 -43q79 -45 133 -63t100 -18q53 0 83 26.5t30 75.5q0 51 -32 75t-97 27l-145 7v83l227 194h-366v103h531v-89l-235 -204l21 -1q224 -13 224 -195q0 -96 -61.5 -151t-169.5 -55zM261 725l-135 145h100l86 -73l85 73
h101l-135 -145h-102z" />
    <glyph glyph-name="uni01EF" unicode="&#x1ef;" horiz-adv-x="545" 
d="M292 -210q-116 0 -241 77l-28 18v114l52 -33q67 -42 113.5 -59.5t88.5 -17.5q55 0 86 30.5t31 85.5v9q0 113 -139 113q-23 0 -54 -3.5t-62 -9.5v89l209 211h-308v98h461v-83l-216 -213q112 0 172.5 -52.5t60.5 -148.5v-13q0 -64 -28 -111.5t-79 -74t-119 -26.5zM214 580
l-134 175h99l86 -95l86 95h98l-133 -175h-102z" />
    <glyph glyph-name="uni01F0" unicode="&#x1f0;" horiz-adv-x="273" 
d="M87 -210q-45 0 -92 21l-20 10v99l25 -12q34 -15 50 -15t22.5 7.5t6.5 25.5v586h121v-600q0 -59 -29 -90.5t-84 -31.5zM91 580l-124 175h96l77 -94l77 94h95l-124 -175h-97z" />
    <glyph glyph-name="uni01F8" unicode="&#x1f8;" horiz-adv-x="773" 
d="M570 680h118v-680h-123l-363 492v-492h-117v680h124l361 -492v492zM338 725l-141 145h130l118 -145h-107z" />
    <glyph glyph-name="uni01F9" unicode="&#x1f9;" horiz-adv-x="617" 
d="M73 0v512h119v-82l11 9q53 44 95 63.5t88 19.5q75 0 119 -50.5t44 -138.5v-333h-121v314q0 50 -21.5 77t-61.5 27q-28 0 -58.5 -15.5t-73.5 -51.5l-19 -17v-334h-121zM263 580l-137 175h124l116 -175h-103z" />
    <glyph glyph-name="Aringacute" unicode="&#x1fa;" horiz-adv-x="735" 
d="M8 0l291 680h137l291 -680h-132l-71 171h-318l-71 -171h-127zM247 271h235l-119 283zM368 718q-58 0 -95 29t-37 76v4q0 47 37 76t95 29q59 0 95.5 -29t36.5 -76v-4q0 -47 -36.5 -76t-95.5 -29zM368 776q61 0 61 50q0 24 -16 36t-45 12q-61 0 -61 -49t61 -49zM298 961
l117 136h128l-139 -136h-106z" />
    <glyph glyph-name="aringacute" unicode="&#x1fb;" horiz-adv-x="572" 
d="M195 -10q-73 0 -116.5 40t-43.5 107q0 73 48 111.5t155 51.5l149 19v3q0 52 -19.5 75.5t-62.5 23.5q-26 0 -62.5 -11t-102.5 -39l-58 -24v106l36 15q66 28 115.5 41t92.5 13q88 0 133 -48t45 -140v-334h-115v79l-3 -3q-56 -46 -100 -66t-91 -20zM155 150q0 -29 18 -46
t48 -17q32 0 67.5 17t87.5 57l11 9v76l-132 -21q-55 -9 -77.5 -26t-22.5 -49zM281 560q-58 0 -92 29.5t-34 76.5v4q0 47 34 76.5t92 29.5q59 0 93 -29.5t34 -76.5v-4q0 -47 -34 -76.5t-93 -29.5zM281 616q28 0 43 14t15 38t-15 38t-43 14q-26 0 -41 -14t-15 -38t15 -38
t41 -14zM208 808l113 157h122l-134 -157h-101z" />
    <glyph glyph-name="AEacute" unicode="&#x1fc;" horiz-adv-x="1018" 
d="M8 0l353 680h609v-103h-360v-186h345v-101h-345v-187h360v-103h-484v186h-253l-95 -186h-130zM285 286h201v291h-51zM493 725l118 145h130l-141 -145h-107z" />
    <glyph glyph-name="aeacute" unicode="&#x1fd;" horiz-adv-x="905" 
d="M192 -10q-72 0 -114.5 40t-42.5 107q0 73 49 113t154 51l138 14v7q0 53 -18 76t-58 23q-26 0 -60 -10.5t-100 -39.5l-58 -24v106l36 15q66 28 114 41t89 13q96 0 135 -69q64 69 172 69q72 0 124 -29t81 -82.5t29 -126.5v-63h-372q4 -63 38 -97t92 -34q34 0 70 11t93 38
l61 28v-106l-34 -15q-63 -30 -110.5 -43t-96.5 -13q-67 0 -116 27t-77 76l-28 -21q-57 -44 -100.5 -63t-89.5 -19zM618 427q-113 0 -127 -127h252q-4 62 -36 94.5t-89 32.5zM155 150q0 -29 17 -46t46 -17q30 0 64.5 17.5t85.5 57.5l14 12q-6 30 -6 63v6l-121 -17
q-52 -7 -76 -25t-24 -51zM379 580l116 175h124l-137 -175h-103z" />
    <glyph glyph-name="Oslashacute" unicode="&#x1fe;" horiz-adv-x="796" 
d="M56 -35l89 113q-47 45 -73 108t-26 140v28q0 102 44 178.5t123.5 119.5t184.5 43q55 0 103 -12t88 -35l48 60h103l-86 -109q46 -45 71 -107.5t25 -137.5v-28q0 -102 -44 -178.5t-123.5 -119.5t-184.5 -43q-53 0 -100.5 11.5t-86.5 33.5l-52 -65h-103zM176 332
q0 -98 45 -160l298 388q-51 31 -121 31q-103 0 -162.5 -65.5t-59.5 -177.5v-16zM398 89q103 0 162.5 65.5t59.5 177.5v16q0 95 -43 157l-297 -387q50 -29 118 -29zM340 725l118 145h130l-141 -145h-107z" />
    <glyph glyph-name="oslashacute" unicode="&#x1ff;" horiz-adv-x="619" 
d="M52 -30l65 86q-36 33 -55.5 80.5t-19.5 106.5v26q0 77 32.5 134t93 88t142.5 31q72 0 129 -26l34 46h95l-66 -87q36 -33 56 -80.5t20 -105.5v-26q0 -78 -33 -134.5t-93 -87.5t-142 -31q-73 0 -130 26l-33 -46h-95zM162 242q0 -59 24 -97l193 267q-30 12 -69 12
q-69 0 -108.5 -41.5t-39.5 -115.5v-25zM310 87q69 0 108 42t39 115v25q0 59 -24 97l-192 -266q29 -13 69 -13zM254 580l116 175h124l-137 -175h-103z" />
    <glyph glyph-name="uni0218" unicode="&#x218;" horiz-adv-x="665" 
d="M388 -15q-74 0 -144.5 18t-154.5 58l-43 21v121l80 -40q83 -40 142.5 -57.5t114.5 -17.5q54 0 84.5 26t30.5 71q0 40 -26.5 60t-98.5 33l-110 20q-109 20 -157 66t-48 129q0 62 29 107t82 70t124 25q58 0 117 -14t140 -47l47 -18v-116l-76 32q-55 22 -94.5 35.5t-70.5 19
t-61 5.5q-51 0 -81.5 -23.5t-30.5 -66.5q0 -41 26 -61t98 -33l116 -21q108 -20 154 -65t46 -130q0 -97 -62.5 -152t-172.5 -55zM230 -223l38 168h114l-58 -168h-94z" />
    <glyph glyph-name="uni0219" unicode="&#x219;" horiz-adv-x="533" 
d="M311 -10q-47 0 -103 14.5t-127 44.5l-39 16v104l78 -33q116 -52 183 -52q36 0 56 14.5t20 41.5q0 25 -15 37t-53 20l-102 20q-83 15 -120 50.5t-37 98.5q0 72 49 114t133 42q40 0 83 -10t110 -35l45 -16v-103l-72 28q-59 24 -94 33t-65 9q-35 0 -53.5 -14.5t-18.5 -40.5
q0 -24 15.5 -36t56.5 -20l113 -21q74 -14 107.5 -49.5t33.5 -98.5q0 -74 -48.5 -116t-135.5 -42zM165 -223l38 168h113l-58 -168h-93z" />
    <glyph glyph-name="uni021A" unicode="&#x21a;" horiz-adv-x="655" 
d="M265 0v577h-246v103h617v-103h-246v-577h-125zM234 -223l38 168h114l-58 -168h-94z" />
    <glyph glyph-name="uni021B" unicode="&#x21b;" horiz-adv-x="527" 
d="M271 -10q-72 0 -110 40.5t-38 116.5v241h-104v98h104v171h121v-171h251v-98h-251v-221q0 -69 52 -69q25 0 50 13t67 47l82 64v-121l-39 -30q-56 -44 -98 -62.5t-87 -18.5zM188 -223l38 168h113l-58 -168h-93z" />
    <glyph glyph-name="uni021E" unicode="&#x21e;" horiz-adv-x="770" 
d="M85 0v680h125v-288h350v288h125v-680h-125v289h-350v-289h-125zM333 725l-135 145h100l86 -73l85 73h101l-135 -145h-102z" />
    <glyph glyph-name="uni021F" unicode="&#x21f;" horiz-adv-x="619" 
d="M75 0v740h121v-308l6 5q53 45 96 65t90 20q75 0 119 -50.5t44 -138.5v-333h-121v314q0 50 -21.5 77t-62.5 27q-27 0 -58 -15.5t-74 -52.5l-18 -15v-335h-121zM85 785l-135 145h100l86 -73l85 73h101l-135 -145h-102z" />
    <glyph glyph-name="uni0226" unicode="&#x226;" horiz-adv-x="735" 
d="M8 0l291 680h137l291 -680h-132l-71 171h-318l-71 -171h-127zM247 271h235l-119 283zM299 734v127h136v-127h-136z" />
    <glyph glyph-name="uni0227" unicode="&#x227;" horiz-adv-x="572" 
d="M195 -10q-73 0 -116.5 40t-43.5 107q0 73 48 111.5t155 51.5l149 19v3q0 52 -19.5 75.5t-62.5 23.5q-26 0 -62.5 -11t-102.5 -39l-58 -24v106l36 15q66 28 115.5 41t92.5 13q88 0 133 -48t45 -140v-334h-115v79l-3 -3q-56 -46 -100 -66t-91 -20zM155 150q0 -29 18 -46
t48 -17q32 0 67.5 17t87.5 57l11 9v76l-132 -21q-55 -9 -77.5 -26t-22.5 -49zM213 599v129h138v-129h-138z" />
    <glyph glyph-name="uni0228" unicode="&#x228;" horiz-adv-x="646" 
d="M85 0v680h506v-103h-383v-186h368v-101h-368v-187h383v-103h-506zM373 -227q-43 0 -107 18l-33 9v67l43 -13q54 -16 83 -16q39 0 39 33q0 30 -47 30h-80v43l38 76l69 -2l-32 -63h24q112 0 112 -87q0 -45 -28.5 -70t-80.5 -25z" />
    <glyph glyph-name="uni0229" unicode="&#x229;" horiz-adv-x="585" 
d="M279 -10q-72 0 -125.5 30.5t-82.5 86.5t-29 130v26q0 77 32 135.5t89.5 91t133.5 32.5q75 0 130 -29t85 -82.5t30 -126.5v-63h-380q4 -62 39 -96.5t95 -34.5q37 0 75.5 11.5t91.5 36.5l62 29v-106l-35 -15q-57 -29 -107 -42.5t-104 -13.5zM294 427q-56 0 -89.5 -33
t-41.5 -94h260q-4 61 -37.5 94t-91.5 33zM318 -227q-44 0 -105 18l-31 9v67l41 -13q30 -9 47 -12.5t34 -3.5q38 0 38 33q0 30 -46 30h-77v49l29 70l66 -2l-28 -63h29q108 0 108 -87q0 -45 -28 -70t-77 -25z" />
    <glyph glyph-name="uni022A" unicode="&#x22a;" horiz-adv-x="796" 
d="M398 -15q-105 0 -184.5 43t-123.5 119.5t-44 178.5v28q0 102 44 178.5t123.5 119.5t184.5 43t184.5 -43t123.5 -119.5t44 -178.5v-28q0 -102 -44 -178.5t-123.5 -119.5t-184.5 -43zM398 89q103 0 162.5 65.5t59.5 177.5v16q0 112 -59.5 177.5t-162.5 65.5t-162.5 -65.5
t-59.5 -177.5v-16q0 -112 59.5 -177.5t162.5 -65.5zM459 734v113h115v-113h-115zM222 734v113h115v-113h-115zM202 905v82h392v-82h-392z" />
    <glyph glyph-name="uni022B" unicode="&#x22b;" horiz-adv-x="619" 
d="M310 -10q-82 0 -142.5 31t-93 87.5t-32.5 134.5v26q0 77 32.5 134t93 88t142.5 31t142 -31t93 -88t33 -134v-26q0 -78 -33 -134.5t-93 -87.5t-142 -31zM310 89q68 0 106 41t38 115v22q0 73 -38 114.5t-106 41.5q-69 0 -106.5 -41.5t-37.5 -114.5v-22q0 -74 37.5 -115
t106.5 -41zM370 587v117h113v-117h-113zM137 587v117h113v-117h-113zM121 781v81h378v-81h-378z" />
    <glyph glyph-name="uni022C" unicode="&#x22c;" horiz-adv-x="796" 
d="M398 -15q-105 0 -184.5 43t-123.5 119.5t-44 178.5v28q0 102 44 178.5t123.5 119.5t184.5 43t184.5 -43t123.5 -119.5t44 -178.5v-28q0 -102 -44 -178.5t-123.5 -119.5t-184.5 -43zM398 89q103 0 162.5 65.5t59.5 177.5v16q0 112 -59.5 177.5t-162.5 65.5t-162.5 -65.5
t-59.5 -177.5v-16q0 -112 59.5 -177.5t162.5 -65.5zM208 725l11 35q15 50 37.5 73t57.5 23q17 0 33.5 -5.5t45.5 -19.5l41 -20q23 -11 35 -11t19 7.5t14 26.5l6 19h79l-11 -35q-15 -51 -37 -73.5t-58 -22.5q-17 0 -34 5t-45 20l-41 20q-21 11 -33 11q-24 0 -35 -34l-6 -19
h-79zM202 913v82h392v-82h-392z" />
    <glyph glyph-name="uni022D" unicode="&#x22d;" horiz-adv-x="619" 
d="M310 -10q-82 0 -142.5 31t-93 87.5t-32.5 134.5v26q0 77 32.5 134t93 88t142.5 31t142 -31t93 -88t33 -134v-26q0 -78 -33 -134.5t-93 -87.5t-142 -31zM310 89q68 0 106 41t38 115v22q0 73 -38 114.5t-106 41.5q-69 0 -106.5 -41.5t-37.5 -114.5v-22q0 -74 37.5 -115
t106.5 -41zM386 577q-17 0 -34 5.5t-41 19.5l-34 19q-23 13 -34 13q-22 0 -33 -35l-6 -19h-78l11 36q15 51 38 74t59 23q16 0 33.5 -5t41.5 -19l34 -19q22 -13 34 -13t19 7.5t14 27.5l6 18h78l-11 -35q-16 -52 -38.5 -75t-58.5 -23zM121 785v81h378v-81h-378z" />
    <glyph glyph-name="uni022E" unicode="&#x22e;" horiz-adv-x="796" 
d="M398 -15q-105 0 -184.5 43t-123.5 119.5t-44 178.5v28q0 102 44 178.5t123.5 119.5t184.5 43t184.5 -43t123.5 -119.5t44 -178.5v-28q0 -102 -44 -178.5t-123.5 -119.5t-184.5 -43zM398 89q103 0 162.5 65.5t59.5 177.5v16q0 112 -59.5 177.5t-162.5 65.5t-162.5 -65.5
t-59.5 -177.5v-16q0 -112 59.5 -177.5t162.5 -65.5zM329 734v127h136v-127h-136z" />
    <glyph glyph-name="uni022F" unicode="&#x22f;" horiz-adv-x="619" 
d="M310 -10q-82 0 -142.5 31t-93 87.5t-32.5 134.5v26q0 77 32.5 134t93 88t142.5 31t142 -31t93 -88t33 -134v-26q0 -78 -33 -134.5t-93 -87.5t-142 -31zM310 89q68 0 106 41t38 115v22q0 73 -38 114.5t-106 41.5q-69 0 -106.5 -41.5t-37.5 -114.5v-22q0 -74 37.5 -115
t106.5 -41zM241 599v129h138v-129h-138z" />
    <glyph glyph-name="uni0230" unicode="&#x230;" horiz-adv-x="796" 
d="M398 -15q-105 0 -184.5 43t-123.5 119.5t-44 178.5v28q0 102 44 178.5t123.5 119.5t184.5 43t184.5 -43t123.5 -119.5t44 -178.5v-28q0 -102 -44 -178.5t-123.5 -119.5t-184.5 -43zM398 89q103 0 162.5 65.5t59.5 177.5v16q0 112 -59.5 177.5t-162.5 65.5t-162.5 -65.5
t-59.5 -177.5v-16q0 -112 59.5 -177.5t162.5 -65.5zM331 730v121h134v-121h-134zM202 909v82h392v-82h-392z" />
    <glyph glyph-name="uni0231" unicode="&#x231;" horiz-adv-x="619" 
d="M310 -10q-82 0 -142.5 31t-93 87.5t-32.5 134.5v26q0 77 32.5 134t93 88t142.5 31t142 -31t93 -88t33 -134v-26q0 -78 -33 -134.5t-93 -87.5t-142 -31zM310 89q68 0 106 41t38 115v22q0 73 -38 114.5t-106 41.5q-69 0 -106.5 -41.5t-37.5 -114.5v-22q0 -74 37.5 -115
t106.5 -41zM242 584v126h135v-126h-135zM121 788v81h378v-81h-378z" />
    <glyph glyph-name="uni0232" unicode="&#x232;" horiz-adv-x="723" 
d="M299 0v250l-289 430h144l212 -321l212 321h135l-289 -430v-250h-125zM165 754v86h396v-86h-396z" />
    <glyph glyph-name="uni0233" unicode="&#x233;" horiz-adv-x="569" 
d="M162 -210q-44 0 -87 22l-13 7v107l26 -14q20 -10 32.5 -13.5t23.5 -3.5q18 0 30.5 11.5t26.5 41.5l24 54l-214 510h130l148 -374l146 374h123l-252 -596q-29 -70 -61 -98t-83 -28zM90 610v89h386v-89h-386z" />
    <glyph glyph-name="uni0237" unicode="&#x237;" horiz-adv-x="273" 
d="M87 -210q-45 0 -92 21l-20 10v99l25 -12q34 -15 50 -15t22.5 7.5t6.5 25.5v586h121v-600q0 -59 -29 -90.5t-84 -31.5z" />
    <glyph glyph-name="uni0241" unicode="&#x241;" horiz-adv-x="576" 
d="M195 0v293l81 26q74 25 107 59t33 86q0 59 -34.5 93.5t-92.5 34.5q-40 0 -86 -15.5t-113 -51.5l-60 -31v113l36 19q71 37 125.5 53t110.5 16q73 0 128 -28.5t85.5 -80t30.5 -120.5q0 -84 -47 -138.5t-150 -88.5l-30 -10v-229h-124z" />
    <glyph glyph-name="uni0242" unicode="&#x242;" horiz-adv-x="533" 
d="M172 0v161l94 35q61 22 84.5 48.5t23.5 71.5q0 46 -29 75t-76 29q-19 0 -42.5 -6.5t-57.5 -22t-87 -43.5l-58 -31v115l36 19q72 39 121.5 55t99.5 16q64 0 113 -26t77 -71.5t28 -105.5q0 -76 -39 -121t-132 -80l-35 -13v-105h-121z" />
    <glyph glyph-name="uni0243" unicode="&#x243;" horiz-adv-x="739" 
d="M112 0v161h-88v71h88v448h330q116 0 176.5 -46.5t60.5 -137.5q0 -103 -85 -149q94 -40 94 -154q0 -92 -62.5 -142.5t-176.5 -50.5h-337zM430 580h-196v-191h196q121 0 121 95q0 96 -121 96zM382 161h-148v-65h208q120 0 120 100t-120 100h-208v-64h148v-71z" />
    <glyph glyph-name="uni0244" unicode="&#x244;" horiz-adv-x="818" 
d="M10 319v76h88v285h125v-285h372v285h125v-285h88v-76h-88v-51q0 -139 -79 -211t-232 -72t-232 72t-79 211v51h-88zM223 286q0 -103 44.5 -150t141.5 -47q98 0 142 47t44 150v33h-372v-33z" />
    <glyph glyph-name="uni0245" unicode="&#x245;" horiz-adv-x="717" 
d="M8 0l282 680h137l282 -680h-134l-219 544l-218 -544h-130z" />
    <glyph glyph-name="uni024B" unicode="&#x24b;" horiz-adv-x="641" 
d="M256 -10q-64 0 -112.5 32t-75 90t-26.5 135v17q0 77 26.5 135t74.5 90.5t111 32.5q46 0 91.5 -20t103.5 -66v76h119v-586q0 -33 28 -33q10 0 22 4t30 11l27 12v-99l-22 -10q-22 -9 -46 -15t-48 -6q-54 0 -83 31.5t-29 90.5v163q-59 -46 -103 -65.5t-88 -19.5zM166 249
q0 -71 33 -114t87 -43q33 0 69.5 18.5t91.5 62.5v165q-55 44 -91.5 63t-69.5 19q-54 0 -87 -43t-33 -115v-13z" />
    <glyph glyph-name="uni024C" unicode="&#x24c;" horiz-adv-x="751" 
d="M116 0v267h-98v99h98v314h346q112 0 171 -52t59 -154q0 -72 -37.5 -120t-105.5 -68l178 -286h-144l-159 266h-184v-266h-124zM240 367h205q56 0 86.5 28t30.5 79q0 105 -117 105h-205v-212z" />
    <glyph glyph-name="uni024D" unicode="&#x24d;" horiz-adv-x="447" 
d="M106 0v206h-88v77h88v229h119v-98l30 21q59 43 98.5 62.5t75.5 24.5v-118q-46 -7 -85 -21.5t-84 -41.5l-33 -19v-39h159v-77h-159v-206h-121z" />
    <glyph glyph-name="uni0251" unicode="&#x251;" horiz-adv-x="641" 
d="M256 -10q-64 0 -112.5 32t-75 90t-26.5 135v17q0 77 26.5 135t74.5 90.5t111 32.5q46 0 91 -20t104 -66v76h119v-512h-119v76q-60 -46 -104.5 -66t-88.5 -20zM166 249q0 -71 33 -114t87 -43q33 0 69.5 18.5t91.5 62.5v166q-56 44 -92 62.5t-69 18.5q-54 0 -87 -43
t-33 -115v-13z" />
    <glyph glyph-name="uni0253" unicode="&#x253;" horiz-adv-x="642" 
d="M75 0v585q0 81 44 123t118 42q31 0 65 -7t76 -22l22 -8v-105l-37 14q-35 14 -57.5 19.5t-42.5 5.5q-67 0 -67 -82v-131q59 46 103 65t88 19q64 0 112 -32t75 -90t27 -135v-14q0 -77 -27 -134.5t-74.5 -90t-111.5 -32.5q-45 0 -90 20t-104 65v-75h-119zM356 417
q-32 0 -68.5 -19t-91.5 -63v-162q58 -46 93.5 -63.5t66.5 -17.5q55 0 87.5 43t32.5 114v10q0 71 -32.5 114.5t-87.5 43.5z" />
    <glyph glyph-name="uni0254" unicode="&#x254;" horiz-adv-x="536" 
d="M276 -10q-93 0 -200 73l-32 21v116l50 -35q61 -42 97.5 -59t68.5 -17q52 0 81.5 40.5t29.5 113.5v26q0 72 -30.5 113t-84.5 41q-31 0 -67 -15.5t-93 -53.5l-48 -31v112l37 22q57 35 100.5 50t89.5 15q64 0 113.5 -32t78 -88.5t28.5 -130.5v-30q0 -76 -27 -132.5
t-76 -87.5t-116 -31z" />
    <glyph glyph-name="uni0256" unicode="&#x256;" horiz-adv-x="641" 
d="M256 -10q-64 0 -112.5 32t-75 90t-26.5 135v17q0 77 26.5 135t74.5 90.5t111 32.5q46 0 90.5 -20t102.5 -64v302h121v-814q0 -18 6.5 -25.5t21.5 -7.5q16 0 51 15l25 12v-99l-20 -10q-47 -21 -92 -21q-55 0 -84 31.5t-29 90.5v163q-59 -46 -103 -65.5t-88 -19.5zM166 249
q0 -71 33 -114t87 -43q33 0 69.5 18.5t91.5 62.5v166q-56 44 -92 62.5t-69 18.5q-54 0 -87 -43t-33 -115v-13z" />
    <glyph glyph-name="uni0257" unicode="&#x257;" horiz-adv-x="641" 
d="M256 -10q-64 0 -112.5 32t-75 90t-26.5 135v17q0 77 26.5 135t74.5 90.5t111 32.5q46 0 90.5 -20t102.5 -64v165q0 71 33.5 109t95.5 38q24 0 48.5 -5.5t48.5 -13.5l16 -5v-97l-18 6q-23 9 -36 12t-27 3q-40 0 -40 -51v-599h-119v76q-60 -46 -104.5 -66t-88.5 -20z
M166 249q0 -71 33 -114t87 -43q33 0 69.5 18.5t91.5 62.5v166q-56 44 -92 62.5t-69 18.5q-54 0 -87 -43t-33 -115v-13z" />
    <glyph glyph-name="uni0259" unicode="&#x259;" horiz-adv-x="585" 
d="M288 -10q-75 0 -130 29t-85 82.5t-30 126.5v63h380q-4 61 -39 95.5t-95 34.5q-37 0 -75 -11t-91 -37l-62 -29v107l34 15q57 29 107 42.5t105 13.5q72 0 125 -31t82.5 -86.5t29.5 -130.5v-25q0 -78 -32 -136t-89.5 -90.5t-134.5 -32.5zM291 84q56 0 90 33t41 94h-260
q4 -60 37.5 -93.5t91.5 -33.5z" />
    <glyph glyph-name="uni025B" unicode="&#x25b;" horiz-adv-x="529" 
d="M224 -10q-83 0 -132 40.5t-49 108.5q0 43 21.5 73.5t60.5 44.5q-34 16 -53 46t-19 70q0 68 49 108.5t131 40.5q40 0 89 -11t115 -34l39 -14v-106l-63 23q-63 23 -100 32.5t-67 9.5q-36 0 -56 -15t-20 -44t23.5 -45.5t66.5 -16.5h152v-85h-162q-89 0 -89 -62q0 -31 22 -48
t60 -17q71 0 187 57l61 29v-107l-32 -14q-72 -35 -128 -49.5t-107 -14.5z" />
    <glyph glyph-name="uni0260" unicode="&#x260;" horiz-adv-x="644" 
d="M254 10q-63 0 -111 31t-74.5 87t-26.5 130v14q0 75 26.5 131.5t74.5 87.5t112 31q43 0 88.5 -20.5t107.5 -69.5v171q0 71 33.5 109t95.5 38q24 0 48.5 -5.5t48.5 -13.5l16 -5v-97l-18 6q-23 9 -36 12t-27 3q-40 0 -40 -51v-592q0 -105 -57.5 -161t-164.5 -56
q-53 0 -109.5 14.5t-122.5 40.5l-44 18v113l65 -29q65 -29 111 -43t86 -14q115 0 115 129v81q-62 -49 -107.5 -69.5t-89.5 -20.5zM166 260q0 -68 32 -108.5t86 -40.5q31 0 69 19.5t94 64.5l4 2v136l-4 3q-56 45 -94 64.5t-69 19.5q-54 0 -86 -40t-32 -110v-10z" />
    <glyph glyph-name="uni0263" unicode="&#x263;" horiz-adv-x="601" 
d="M300 -210q-78 0 -124.5 38.5t-46.5 101.5q0 36 12.5 68.5t46.5 80.5l43 62l-220 371h132l158 -279l162 279h127l-220 -369l42 -61q33 -49 46 -81t13 -67q0 -66 -46.5 -105t-124.5 -39zM301 -118q26 0 41.5 14.5t15.5 39.5q0 20 -8 40.5t-28 51.5l-22 33l-22 -34
q-21 -31 -29 -51.5t-8 -39.5q0 -26 15.5 -40t44.5 -14z" />
    <glyph glyph-name="uni0265" unicode="&#x265;" horiz-adv-x="601" 
d="M224 -10q-75 0 -115.5 48t-40.5 136v338h121v-319q0 -100 72 -100q26 0 56 16t68 49l23 18v336h121v-712h-121v278l-9 -7q-52 -43 -92.5 -62t-82.5 -19z" />
    <glyph glyph-name="uni0266" unicode="&#x266;" horiz-adv-x="617" 
d="M73 0v585q0 81 44.5 123t117.5 42q32 0 66 -7t75 -22l23 -8v-105l-38 14q-35 14 -57 19.5t-42 5.5q-68 0 -68 -82v-136l6 5q54 45 97 64.5t89 19.5q75 0 119 -50.5t44 -137.5v-330h-121v310q0 51 -21.5 78t-61.5 27q-28 0 -58.5 -16t-74.5 -52l-18 -16v-331h-121z" />
    <glyph glyph-name="uni0267" unicode="&#x267;" horiz-adv-x="619" 
d="M75 0v585q0 81 44 123t118 42q31 0 65 -7t76 -22l22 -8v-105l-37 14q-35 14 -57.5 19.5t-42.5 5.5q-67 0 -67 -82v-136l6 5q53 45 96 64.5t90 19.5q75 0 119 -50.5t44 -137.5v-417q0 -123 -109 -123q-51 0 -106 30l-14 7v101l21 -11q24 -14 37.5 -19t23.5 -5q14 0 20 8
t6 28v381q0 51 -21.5 78t-62.5 27q-27 0 -58 -16t-74 -52l-18 -16v-331h-121z" />
    <glyph glyph-name="uni0268" unicode="&#x268;" horiz-adv-x="334" 
d="M98 599v129h138v-129h-138zM106 0v218h-88v77h88v217h121v-217h89v-77h-89v-218h-121z" />
    <glyph glyph-name="uni0269" unicode="&#x269;" horiz-adv-x="311" 
d="M178 -10q-108 0 -108 122v400h121v-379q0 -20 5.5 -28t19.5 -8q10 0 23 5.5t37 19.5l21 13v-105l-13 -8q-58 -32 -106 -32z" />
    <glyph glyph-name="uni0272" unicode="&#x272;" horiz-adv-x="617" 
d="M428 0v314q0 50 -21.5 77t-61.5 27q-28 0 -58.5 -15.5t-73.5 -51.5l-19 -17v-422q0 -59 -29 -90.5t-84 -31.5q-45 0 -92 21l-20 10v99l25 -12q34 -15 50 -15t22.5 7.5t6.5 25.5v586h119v-82l11 9q53 44 95 63.5t88 19.5q75 0 119 -50.5t44 -138.5v-333h-121z" />
    <glyph glyph-name="uni0275" unicode="&#x275;" horiz-adv-x="619" 
d="M310 -10q-82 0 -142.5 31t-93 87.5t-32.5 134.5v26q0 77 32.5 134t93 88t142.5 31t142 -31t93 -88t33 -134v-26q0 -78 -33 -134.5t-93 -87.5t-142 -31zM310 423q-62 0 -99.5 -34.5t-43.5 -96.5h285q-6 62 -43 96.5t-99 34.5zM310 89q62 0 99 34t43 97h-285q6 -63 43 -97
t100 -34z" />
    <glyph glyph-name="uni027D" unicode="&#x27d;" horiz-adv-x="414" 
d="M354 -47l42 29v-117l-15 -11q-48 -33 -87 -48.5t-79 -15.5q-68 0 -105 41t-37 116v565h119v-98l29 21q60 43 99 62.5t76 24.5v-118q-46 -7 -85.5 -21.5t-84.5 -41.5l-32 -19v-355q0 -69 49 -69q19 0 42.5 11.5t68.5 43.5z" />
    <glyph glyph-name="uni027E" unicode="&#x27e;" horiz-adv-x="416" 
d="M68 0v354q0 78 43 123t118 45q33 0 65.5 -8.5t76.5 -27.5l23 -10v-106l-39 17q-42 19 -63 25.5t-38 6.5q-65 0 -65 -82v-337h-121z" />
    <glyph glyph-name="uni0283" unicode="&#x283;" horiz-adv-x="270" 
d="M104 -210q-45 0 -93 16l-25 8v102l22 -8q25 -9 39 -12t25 -3q31 0 31 32q0 7 -1 17t-1 19l-52 587q-1 9 -2 25t-1 27q0 71 39 110.5t109 39.5q46 0 117 -23l20 -6v-103l-33 11q-32 10 -49.5 14t-30.5 4q-51 0 -51 -57q0 -6 0.5 -18.5t1.5 -22.5l52 -590q1 -10 1.5 -23.5
t0.5 -21.5q0 -60 -30.5 -92t-88.5 -32z" />
    <glyph glyph-name="uni0288" unicode="&#x288;" horiz-adv-x="527" 
d="M271 -210q-72 0 -110 40.5t-38 116.5v441h-104v98h104v171h121v-171h251v-98h-251v-421q0 -69 52 -69q25 0 50 13t67 47l82 64v-121l-39 -30q-56 -44 -98 -62.5t-87 -18.5z" />
    <glyph glyph-name="uni0289" unicode="&#x289;" horiz-adv-x="681" 
d="M26 246v77h88v189h121v-189h219v189h121v-189h88v-77h-88v-246h-119v80l-10 -9q-53 -43 -93.5 -62t-82.5 -19q-75 0 -115.5 48t-40.5 136v72h-88zM235 193q0 -100 72 -100q27 0 56.5 16t68.5 49l22 18v70h-219v-53z" />
    <glyph glyph-name="uni028A" unicode="&#x28a;" horiz-adv-x="659" 
d="M330 -10q-81 0 -141.5 28.5t-94.5 80.5t-34 121v8q0 53 21.5 96.5t73.5 89.5h-115v98h246v-90l-20 -19q-43 -40 -62.5 -78t-19.5 -82v-14q0 -66 39.5 -103t106.5 -37q66 0 106 37t40 103v14q0 44 -19.5 82t-63.5 78l-20 19v90h247v-98h-114q51 -46 72.5 -89.5t21.5 -96.5
v-8q0 -69 -34 -121t-95 -80.5t-141 -28.5z" />
    <glyph glyph-name="uni028B" unicode="&#x28b;" horiz-adv-x="602" 
d="M285 -10q-106 0 -161.5 56t-55.5 161v305h121v-293q0 -66 24 -96.5t77 -30.5q67 0 107 56t40 148v10q0 116 -69 116q-21 0 -66 -17l-27 -10v98l20 8q31 11 55 16t46 5q77 0 121 -56.5t44 -157.5v-14q0 -94 -34 -162t-96 -105t-146 -37z" />
    <glyph glyph-name="uni028C" unicode="&#x28c;" horiz-adv-x="570" 
d="M11 0l215 512h118l214 -512h-129l-149 376l-146 -376h-123z" />
    <glyph glyph-name="uni0292" unicode="&#x292;" horiz-adv-x="545" 
d="M292 -210q-116 0 -241 77l-28 18v114l52 -33q67 -42 113.5 -59.5t88.5 -17.5q55 0 86 30.5t31 85.5v9q0 113 -139 113q-23 0 -54 -3.5t-62 -9.5v89l209 211h-308v98h461v-83l-216 -213q112 0 172.5 -52.5t60.5 -148.5v-13q0 -64 -28 -111.5t-79 -74t-119 -26.5z" />
    <glyph glyph-name="uni0294" unicode="&#x294;" horiz-adv-x="524" 
d="M166 0v316l74 32q72 31 104.5 67.5t32.5 95.5q0 61 -36.5 98.5t-92.5 37.5q-35 0 -73.5 -14t-97.5 -46l-59 -33v114l35 19q66 36 113.5 49.5t97.5 13.5q69 0 122.5 -30.5t84 -84t30.5 -122.5q0 -88 -43 -143t-141 -98l-30 -14v-258h-121z" />
    <glyph glyph-name="uni0295" unicode="&#x295;" horiz-adv-x="461" 
d="M234 0v258l-30 14q-98 43 -141 98t-43 143q0 69 30.5 122.5t84 84t122.5 30.5q50 0 97.5 -13.5t113.5 -49.5l35 -19v-114l-59 33q-59 32 -98 46t-73 14q-57 0 -93 -37.5t-36 -98.5q0 -59 32 -95.5t104 -67.5l75 -32v-316h-121z" />
    <glyph glyph-name="uni0298" unicode="&#x298;" horiz-adv-x="812" 
d="M406 -15q-107 0 -188 43t-126.5 120t-45.5 178v28q0 101 45.5 178t126.5 120t188 43t188 -43t126.5 -120t45.5 -178v-28q0 -101 -45.5 -178t-126.5 -120t-188 -43zM406 84q72 0 124.5 31t81 86.5t28.5 130.5v16q0 75 -28.5 130.5t-81 86.5t-124.5 31t-124.5 -31
t-81 -86.5t-28.5 -130.5v-16q0 -75 28.5 -130.5t81 -86.5t124.5 -31zM341 274v132h130v-132h-130z" />
    <glyph glyph-name="uni029D" unicode="&#x29d;" horiz-adv-x="267" 
d="M202 728v-129h-137v129h137zM289 -38v-70l-96 34l-1 -8q-4 -62 -41.5 -95t-105.5 -33q-67 0 -104 30t-37 83q0 54 37 85t104 31q13 0 28 -2v495h121v-519zM82 -47q-17 1 -30 1q-63 0 -63 -48q0 -42 47 -42q46 0 46 57v32z" />
    <glyph glyph-name="uni02BB" unicode="&#x2bb;" horiz-adv-x="256" 
d="M33 460l94 280h97l-66 -280h-125z" />
    <glyph glyph-name="uni02BC" unicode="&#x2bc;" horiz-adv-x="251" 
d="M39 460l66 280h125l-94 -280h-97z" />
    <glyph glyph-name="uni02BE" unicode="&#x2be;" horiz-adv-x="248" 
d="M39 514v68h9q37 0 57.5 21t20.5 61q0 81 -78 81h-10v68h10q75 0 118.5 -39t43.5 -107v-7q0 -67 -43.5 -106.5t-118.5 -39.5h-9z" />
    <glyph glyph-name="uni02BF" unicode="&#x2bf;" horiz-adv-x="248" 
d="M200 514q-75 0 -118.5 39t-43.5 107v7q0 67 43.5 106.5t118.5 39.5h9v-68h-9q-37 0 -57.5 -21t-20.5 -61q0 -81 78 -81h10v-68h-10z" />
    <glyph glyph-name="uni02C0" unicode="&#x2c0;" horiz-adv-x="325" 
d="M101 492v109l45 19q38 15 52.5 30t14.5 39q0 25 -13.5 39.5t-36.5 14.5q-18 0 -37.5 -6.5t-60.5 -28.5l-35 -19v74l22 12q69 38 120 38q55 0 89.5 -33.5t34.5 -87.5q0 -45 -23 -71.5t-86 -52.5l-9 -3v-73h-77z" />
    <glyph glyph-name="circumflex" unicode="&#x2c6;" horiz-adv-x="421" 
d="M23 580l133 175h103l133 -175h-98l-86 95l-87 -95h-98z" />
    <glyph glyph-name="caron" unicode="&#x2c7;" horiz-adv-x="421" 
d="M157 580l-134 175h99l86 -95l86 95h98l-133 -175h-102z" />
    <glyph glyph-name="uni02C9" unicode="&#x2c9;" horiz-adv-x="432" 
d="M-190 610v89h386v-89h-386z" />
    <glyph glyph-name="uni02CA" unicode="&#x2ca;" horiz-adv-x="293" 
d="M-49 580l116 175h124l-137 -175h-103z" />
    <glyph glyph-name="uni02CB" unicode="&#x2cb;" horiz-adv-x="293" 
d="M-40 580l-137 175h124l116 -175h-103z" />
    <glyph glyph-name="uni02D7" unicode="&#x2d7;" horiz-adv-x="377" 
d="M34 224v113h309v-113h-309z" />
    <glyph glyph-name="breve" unicode="&#x2d8;" horiz-adv-x="401" 
d="M197 580q-66 0 -106.5 35t-60.5 108l-8 27h89l5 -16q10 -37 29.5 -53.5t51.5 -16.5t51.5 16.5t29.5 53.5l5 16h89l-8 -27q-20 -73 -60.5 -108t-106.5 -35z" />
    <glyph glyph-name="dotaccent" unicode="&#x2d9;" horiz-adv-x="190" 
d="M23 599v129h138v-129h-138z" />
    <glyph glyph-name="ring" unicode="&#x2da;" horiz-adv-x="311" 
d="M152 575q-57 0 -93.5 32.5t-36.5 84.5v4q0 52 36.5 84.5t93.5 32.5q56 0 92.5 -32.5t36.5 -84.5v-4q0 -52 -36.5 -84.5t-92.5 -32.5zM152 635q27 0 42.5 15.5t15.5 43.5t-15.5 43.5t-42.5 15.5q-28 0 -43.5 -15.5t-15.5 -43.5t15.5 -43.5t43.5 -15.5z" />
    <glyph glyph-name="ogonek" unicode="&#x2db;" horiz-adv-x="272" 
d="M119 -227q-44 0 -70.5 25t-26.5 65q0 34 20 59.5t66 57.5l77 52l57 -32l-84 -59q-28 -19 -39.5 -32t-11.5 -30q0 -16 10 -25.5t26 -9.5q12 0 24 4t30 13l35 17v-71l-23 -11q-50 -23 -90 -23z" />
    <glyph glyph-name="tilde" unicode="&#x2dc;" horiz-adv-x="428" 
d="M289 587q-32 0 -78 28l-34 21q-22 15 -35 15t-20 -8.5t-14 -31.5l-6 -21h-79l11 39q15 56 38.5 81t59.5 25q17 0 34.5 -6t43.5 -22l34 -21q22 -14 35 -14t20 8.5t14 31.5l6 20h79l-11 -39q-15 -56 -38.5 -81t-59.5 -25z" />
    <glyph glyph-name="hungarumlaut" unicode="&#x2dd;" horiz-adv-x="483" 
d="M216 580l117 175h121l-138 -175h-100zM23 580l110 175h121l-132 -175h-99z" />
    <glyph glyph-name="uni02EE" unicode="&#x2ee;" horiz-adv-x="420" 
d="M252 448v292h121l-24 -292h-97zM60 448v292h121l-24 -292h-97z" />
    <glyph glyph-name="gravecomb" unicode="&#x300;" 
d="M-47 580l-137 175h124l116 -175h-103z" />
    <glyph glyph-name="acutecomb" unicode="&#x301;" 
d="M-56 580l116 175h124l-137 -175h-103z" />
    <glyph glyph-name="uni0302" unicode="&#x302;" 
d="M-185 580l133 175h103l133 -175h-98l-86 95l-87 -95h-98z" />
    <glyph glyph-name="tildecomb" unicode="&#x303;" 
d="M78 587q-32 0 -78 28l-34 21q-22 15 -35 15t-20 -8.5t-14 -31.5l-6 -21h-79l11 39q15 56 38.5 81t59.5 25q17 0 34.5 -6t43.5 -22l34 -21q22 -14 35 -14t20 8.5t14 31.5l6 20h79l-11 -39q-15 -56 -38.5 -81t-59.5 -25z" />
    <glyph glyph-name="uni0304" unicode="&#x304;" 
d="M-193 610v89h386v-89h-386z" />
    <glyph glyph-name="uni0306" unicode="&#x306;" 
d="M0 580q-66 0 -106.5 35t-60.5 108l-8 27h89l5 -16q10 -37 29.5 -53.5t51.5 -16.5t51.5 16.5t29.5 53.5l5 16h89l-8 -27q-20 -73 -60.5 -108t-106.5 -35z" />
    <glyph glyph-name="uni0307" unicode="&#x307;" 
d="M-69 599v129h138v-129h-138z" />
    <glyph glyph-name="uni0308" unicode="&#x308;" 
d="M61 601v121h116v-121h-116zM-177 601v121h116v-121h-116z" />
    <glyph glyph-name="hookabovecomb" unicode="&#x309;" 
d="M-41 580l42 35q31 25 31 46q0 26 -30 26q-12 0 -25.5 -4t-39.5 -16l-46 -20v72l25 12q32 15 57 21.5t48 6.5q46 0 73.5 -23.5t27.5 -63.5q0 -45 -49 -82l-12 -10h-102z" />
    <glyph glyph-name="uni030A" unicode="&#x30a;" 
d="M1 575q-57 0 -93.5 32.5t-36.5 84.5v4q0 52 36.5 84.5t93.5 32.5q56 0 92.5 -32.5t36.5 -84.5v-4q0 -52 -36.5 -84.5t-92.5 -32.5zM1 635q27 0 42.5 15.5t15.5 43.5t-15.5 43.5t-42.5 15.5q-28 0 -43.5 -15.5t-15.5 -43.5t15.5 -43.5t43.5 -15.5z" />
    <glyph glyph-name="uni030B" unicode="&#x30b;" 
d="M47 580l117 175h121l-138 -175h-100zM-146 580l110 175h121l-132 -175h-99z" />
    <glyph glyph-name="uni030C" unicode="&#x30c;" 
d="M-51 580l-134 175h99l86 -95l86 95h98l-133 -175h-102z" />
    <glyph glyph-name="uni030D" unicode="&#x30d;" 
d="M-42 580v185h84v-185h-84z" />
    <glyph glyph-name="uni0312" unicode="&#x312;" 
d="M-56 580l58 175h95l-41 -175h-112z" />
    <glyph glyph-name="uni031B" unicode="&#x31b;" 
d="M0 434v78h101q54 0 54 39q0 12 -5 26t-21 44l-14 28h95l13 -25q31 -57 31 -95q0 -95 -134 -95h-120z" />
    <glyph glyph-name="dotbelowcomb" unicode="&#x323;" 
d="M-68 -195v126h136v-126h-136z" />
    <glyph glyph-name="uni0324" unicode="&#x324;" 
d="M60 -190v116h115v-116h-115zM-175 -190v116h115v-116h-115z" />
    <glyph glyph-name="uni0325" unicode="&#x325;" 
d="M0 -273q-56 0 -92 31t-36 79v5q0 48 36 79.5t92 31.5t92 -31.5t36 -79.5v-5q0 -48 -36 -79t-92 -31zM0 -216q28 0 42.5 15.5t14.5 40.5t-14.5 40t-42.5 15t-42.5 -15t-14.5 -41q0 -24 14.5 -39.5t42.5 -15.5z" />
    <glyph glyph-name="uni0326" unicode="&#x326;" 
d="M-95 -223l38 168h113l-58 -168h-93z" />
    <glyph glyph-name="uni0327" unicode="&#x327;" 
d="M35 -227q-44 0 -105 18l-31 9v67l41 -13q30 -9 47 -12.5t34 -3.5q38 0 38 33q0 30 -46 30h-77v49l29 70l66 -2l-28 -63h29q108 0 108 -87q0 -45 -28 -70t-77 -25z" />
    <glyph glyph-name="uni0328" unicode="&#x328;" 
d="M-46 -227q-44 0 -70.5 25t-26.5 65q0 34 20 59.5t66 57.5l77 52l57 -32l-84 -59q-28 -19 -39.5 -32t-11.5 -30q0 -16 10 -25.5t26 -9.5q12 0 24 4t30 13l35 17v-71l-23 -11q-50 -23 -90 -23z" />
    <glyph glyph-name="uni0329" unicode="&#x329;" 
d="M-42 -233v178h84v-178h-84z" />
    <glyph glyph-name="uni032D" unicode="&#x32d;" 
d="M-183 -220l132 165h101l132 -165h-97l-85 89l-86 -89h-97z" />
    <glyph glyph-name="uni032E" unicode="&#x32e;" 
d="M0 -214q-65 0 -105.5 32.5t-59.5 100.5l-8 26h88l5 -16q17 -61 80 -61t80 61l5 16h88l-8 -26q-19 -68 -59.5 -100.5t-105.5 -32.5z" />
    <glyph glyph-name="uni032F" unicode="&#x32f;" 
d="M-173 -209l8 26q19 69 59.5 101t105.5 32t105.5 -32t59.5 -101l8 -26h-88l-5 16q-17 62 -80 62t-80 -62l-5 -16h-88z" />
    <glyph glyph-name="uni0330" unicode="&#x330;" 
d="M76 -204q-30 0 -76 27l-34 21q-23 14 -34 14q-13 0 -20 -8.5t-14 -30.5l-6 -20h-78l11 38q15 55 38 79t60 24q30 0 76 -27l34 -21q23 -14 34 -14q13 0 20 8.5t14 30.5l6 20h78l-11 -38q-15 -55 -38 -79t-60 -24z" />
    <glyph glyph-name="uni0331" unicode="&#x331;" 
d="M-191 -175v86h382v-86h-382z" />
    <glyph glyph-name="uni0332" unicode="&#x332;" 
d="M-291 -175v86h582v-86h-582z" />
    <glyph glyph-name="uni0394" unicode="&#x394;" horiz-adv-x="715" 
d="M8 0l281 670h137l281 -670h-699zM177 103h356l-180 440z" />
    <glyph glyph-name="uni03A9" unicode="&#x3a9;" horiz-adv-x="826" 
d="M47 0v103h148q-65 54 -99.5 118.5t-34.5 136.5v16q0 95 44.5 167.5t124 113t183.5 40.5t183.5 -40.5t124 -113t44.5 -167.5v-16q0 -72 -35 -135.5t-101 -119.5h150v-103h-312v89l30 24q69 55 103.5 113.5t34.5 125.5v12q0 104 -60 165.5t-162 61.5q-101 0 -161.5 -61.5
t-60.5 -165.5v-12q0 -68 34.5 -126.5t102.5 -112.5l31 -24v-89h-312z" />
    <glyph glyph-name="uni03BC" unicode="&#x3bc;" horiz-adv-x="607" 
d="M73 -200v712h121v-321q0 -50 17.5 -74t54.5 -24q27 0 56.5 16t68.5 49l22 18v336h121v-512h-119v77l-11 -10q-48 -41 -85 -59t-77 -18q-35 0 -59 16l13 -206h-123z" />
    <glyph glyph-name="pi" unicode="&#x3c0;" horiz-adv-x="668" 
d="M113 0v414h-94v98h617v-98h-107v-281q0 -20 6 -28t19 -8q11 0 24 5.5t36 19.5l22 13v-105l-14 -8q-55 -32 -105 -32q-109 0 -109 122v302h-174v-414h-121z" />
    <glyph glyph-name="uni058F" unicode="&#x58f;" horiz-adv-x="620" 
d="M200 189v71h202v68h-202v71h202v42q0 70 -31 102.5t-98 32.5q-66 0 -97.5 -32.5t-31.5 -102.5v-21h-121v35q0 105 66.5 165t183.5 60q118 0 184 -59.5t66 -165.5v-56h69v-71h-69v-68h69v-71h-69v-189h-121v189h-202z" />
    <glyph glyph-name="uni0E3F" unicode="&#xe3f;" horiz-adv-x="620" 
d="M49 15v650h214v95h78v-95q226 -4 226 -177q0 -97 -84 -141q93 -37 93 -146q0 -90 -61 -138t-174 -48v-95h-78v95h-214zM263 569h-100v-183h100v183zM447 477q0 45 -25 67t-81 24v-182q56 2 81 23.5t25 67.5zM263 295h-100v-184h100v184zM457 203q0 49 -28 70.5t-88 21.5
v-184q61 1 88.5 23t27.5 69z" />
    <glyph glyph-name="uni1DC4" unicode="&#x1dc4;" 
d="M-178 580v83h218l88 92h98l-141 -175h-263z" />
    <glyph glyph-name="uni1DC5" unicode="&#x1dc5;" 
d="M-73 580l-142 175h98l88 -92h219v-83h-263z" />
    <glyph glyph-name="uni1DC6" unicode="&#x1dc6;" 
d="M116 580l-88 92h-218v83h263l141 -175h-98z" />
    <glyph glyph-name="uni1DC7" unicode="&#x1dc7;" 
d="M-225 580l141 175h263v-83h-219l-87 -92h-98z" />
    <glyph glyph-name="uni1E00" unicode="&#x1e00;" horiz-adv-x="735" 
d="M8 0l291 680h137l291 -680h-132l-71 171h-318l-71 -171h-127zM247 271h235l-119 283zM368 -267q-58 0 -95.5 29.5t-37.5 78.5v4q0 49 37.5 78.5t95.5 29.5t95.5 -29.5t37.5 -78.5v-4q0 -49 -37.5 -78.5t-95.5 -29.5zM368 -208q62 0 62 51q0 25 -16.5 38t-45.5 13
q-62 0 -62 -51t62 -51z" />
    <glyph glyph-name="uni1E01" unicode="&#x1e01;" horiz-adv-x="572" 
d="M195 -10q-73 0 -116.5 40t-43.5 107q0 73 48 111.5t155 51.5l149 19v3q0 52 -19.5 75.5t-62.5 23.5q-26 0 -62.5 -11t-102.5 -39l-58 -24v106l36 15q66 28 115.5 41t92.5 13q88 0 133 -48t45 -140v-334h-115v79l-3 -3q-56 -46 -100 -66t-91 -20zM155 150q0 -29 18 -46
t48 -17q32 0 67.5 17t87.5 57l11 9v76l-132 -21q-55 -9 -77.5 -26t-22.5 -49zM279 -273q-56 0 -92 31t-36 79v5q0 48 36 79.5t92 31.5t92 -31.5t36 -79.5v-5q0 -48 -36 -79t-92 -31zM279 -216q28 0 42.5 15.5t14.5 40.5t-14.5 40t-42.5 15t-42.5 -15t-14.5 -41
q0 -24 14.5 -39.5t42.5 -15.5z" />
    <glyph glyph-name="uni1E04" unicode="&#x1e04;" horiz-adv-x="712" 
d="M85 0v680h329q116 0 176.5 -46.5t60.5 -137.5q0 -102 -85 -149q95 -40 95 -154q0 -92 -63 -142.5t-176 -50.5h-337zM402 580h-194v-191h194q121 0 121 95q0 96 -121 96zM412 292h-204v-192h204q121 0 121 96t-121 96zM285 -193v122h134v-122h-134z" />
    <glyph glyph-name="uni1E05" unicode="&#x1e05;" horiz-adv-x="642" 
d="M75 0v740h121v-303q59 46 103 65.5t88 19.5q64 0 112 -32.5t75 -90t27 -135.5v-17q0 -77 -27 -134.5t-74.5 -90t-111.5 -32.5q-46 0 -91 20t-103 65v-75h-119zM356 420q-32 0 -68.5 -19t-91.5 -62v-166q55 -44 91.5 -62.5t68.5 -18.5q55 0 87.5 43t32.5 114v13
q0 72 -32.5 115t-87.5 43zM254 -195v126h136v-126h-136z" />
    <glyph glyph-name="uni1E06" unicode="&#x1e06;" horiz-adv-x="712" 
d="M85 0v680h329q116 0 176.5 -46.5t60.5 -137.5q0 -102 -85 -149q95 -40 95 -154q0 -92 -63 -142.5t-176 -50.5h-337zM402 580h-194v-191h194q121 0 121 95q0 96 -121 96zM412 292h-204v-192h204q121 0 121 96t-121 96zM156 -173v83h392v-83h-392z" />
    <glyph glyph-name="uni1E07" unicode="&#x1e07;" horiz-adv-x="642" 
d="M75 0v740h121v-303q59 46 103 65.5t88 19.5q64 0 112 -32.5t75 -90t27 -135.5v-17q0 -77 -27 -134.5t-74.5 -90t-111.5 -32.5q-46 0 -91 20t-103 65v-75h-119zM356 420q-32 0 -68.5 -19t-91.5 -62v-166q55 -44 91.5 -62.5t68.5 -18.5q55 0 87.5 43t32.5 114v13
q0 72 -32.5 115t-87.5 43zM131 -175v86h382v-86h-382z" />
    <glyph glyph-name="uni1E0C" unicode="&#x1e0c;" horiz-adv-x="768" 
d="M85 0v680h292q100 0 178 -37t123 -109.5t45 -179.5v-28q0 -107 -45 -179.5t-123 -109.5t-178 -37h-292zM372 579h-162v-478h162q100 0 160 58.5t60 172.5v16q0 114 -60 172.5t-160 58.5zM302 -193v122h134v-122h-134z" />
    <glyph glyph-name="uni1E0D" unicode="&#x1e0d;" horiz-adv-x="641" 
d="M256 -10q-64 0 -112.5 32t-75 90t-26.5 135v17q0 77 26.5 135t74.5 90.5t111 32.5q46 0 90.5 -20t102.5 -64v302h121v-740h-119v76q-60 -46 -104.5 -66t-88.5 -20zM166 249q0 -71 33 -114t87 -43q33 0 69.5 18.5t91.5 62.5v166q-56 44 -92 62.5t-69 18.5q-54 0 -87 -43
t-33 -115v-13zM239 -195v126h136v-126h-136z" />
    <glyph glyph-name="uni1E0E" unicode="&#x1e0e;" horiz-adv-x="768" 
d="M85 0v680h292q100 0 178 -37t123 -109.5t45 -179.5v-28q0 -107 -45 -179.5t-123 -109.5t-178 -37h-292zM372 579h-162v-478h162q100 0 160 58.5t60 172.5v16q0 114 -60 172.5t-160 58.5zM173 -173v83h392v-83h-392z" />
    <glyph glyph-name="uni1E0F" unicode="&#x1e0f;" horiz-adv-x="641" 
d="M256 -10q-64 0 -112.5 32t-75 90t-26.5 135v17q0 77 26.5 135t74.5 90.5t111 32.5q46 0 90.5 -20t102.5 -64v302h121v-740h-119v76q-60 -46 -104.5 -66t-88.5 -20zM166 249q0 -71 33 -114t87 -43q33 0 69.5 18.5t91.5 62.5v166q-56 44 -92 62.5t-69 18.5q-54 0 -87 -43
t-33 -115v-13zM116 -175v86h382v-86h-382z" />
    <glyph glyph-name="uni1E10" unicode="&#x1e10;" horiz-adv-x="768" 
d="M85 0v680h292q100 0 178 -37t123 -109.5t45 -179.5v-28q0 -107 -45 -179.5t-123 -109.5t-178 -37h-292zM372 579h-162v-478h162q100 0 160 58.5t60 172.5v16q0 114 -60 172.5t-160 58.5zM274 -223l38 168h114l-58 -168h-94z" />
    <glyph glyph-name="uni1E11" unicode="&#x1e11;" horiz-adv-x="641" 
d="M256 -10q-64 0 -112.5 32t-75 90t-26.5 135v17q0 77 26.5 135t74.5 90.5t111 32.5q46 0 90.5 -20t102.5 -64v302h121v-740h-119v76q-60 -46 -104.5 -66t-88.5 -20zM166 249q0 -71 33 -114t87 -43q33 0 69.5 18.5t91.5 62.5v166q-56 44 -92 62.5t-69 18.5q-54 0 -87 -43
t-33 -115v-13zM212 -223l38 168h113l-58 -168h-93z" />
    <glyph glyph-name="uni1E12" unicode="&#x1e12;" horiz-adv-x="768" 
d="M85 0v680h292q100 0 178 -37t123 -109.5t45 -179.5v-28q0 -107 -45 -179.5t-123 -109.5t-178 -37h-292zM372 579h-162v-478h162q100 0 160 58.5t60 172.5v16q0 114 -60 172.5t-160 58.5zM184 -196l134 141h101l134 -141h-100l-84 71l-85 -71h-100z" />
    <glyph glyph-name="uni1E13" unicode="&#x1e13;" horiz-adv-x="641" 
d="M256 -10q-64 0 -112.5 32t-75 90t-26.5 135v17q0 77 26.5 135t74.5 90.5t111 32.5q46 0 90.5 -20t102.5 -64v302h121v-740h-119v76q-60 -46 -104.5 -66t-88.5 -20zM166 249q0 -71 33 -114t87 -43q33 0 69.5 18.5t91.5 62.5v166q-56 44 -92 62.5t-69 18.5q-54 0 -87 -43
t-33 -115v-13zM125 -220l132 165h101l132 -165h-97l-85 89l-86 -89h-97z" />
    <glyph glyph-name="uni1E1A" unicode="&#x1e1a;" horiz-adv-x="646" 
d="M85 0v680h506v-103h-383v-186h368v-101h-368v-187h383v-103h-506zM423 -201q-18 0 -35.5 6.5t-42.5 19.5l-40 21q-11 5 -19 8.5t-15 3.5q-13 0 -21 -8t-14 -28l-7 -20h-79l11 36q15 52 37.5 76t59.5 24q19 0 36 -6.5t42 -19.5l41 -21q23 -12 34 -12q12 0 20 8t15 28l6 20
h79l-10 -36q-16 -54 -38.5 -77t-59.5 -23z" />
    <glyph glyph-name="uni1E1B" unicode="&#x1e1b;" horiz-adv-x="585" 
d="M279 -10q-72 0 -125.5 30.5t-82.5 86.5t-29 130v26q0 77 32 135.5t89.5 91t133.5 32.5q75 0 130 -29t85 -82.5t30 -126.5v-63h-380q4 -62 39 -96.5t95 -34.5q37 0 75.5 11.5t91.5 36.5l62 29v-106l-35 -15q-57 -29 -107 -42.5t-104 -13.5zM294 427q-56 0 -89.5 -33
t-41.5 -94h260q-4 61 -37.5 94t-91.5 33zM367 -204q-30 0 -76 27l-34 21q-23 14 -34 14q-13 0 -20 -8.5t-14 -30.5l-6 -20h-78l11 38q15 55 38 79t60 24q30 0 76 -27l34 -21q23 -14 34 -14q13 0 20 8.5t14 30.5l6 20h78l-11 -38q-15 -55 -38 -79t-60 -24z" />
    <glyph glyph-name="uni1E20" unicode="&#x1e20;" horiz-adv-x="751" 
d="M363 -15q-97 0 -168.5 42.5t-110 120t-38.5 182.5v20q0 103 41 180.5t115.5 121t171.5 43.5q57 0 114.5 -17t139.5 -53l52 -22v-120l-99 44q-71 33 -116 48.5t-88 15.5q-92 0 -146.5 -66t-54.5 -179v-12q0 -116 50.5 -180.5t141.5 -64.5q52 0 98 16.5t107 53.5v127h-199
v100h322v-278l-37 -23q-85 -51 -157.5 -75.5t-138.5 -24.5zM202 754v86h396v-86h-396z" />
    <glyph glyph-name="uni1E21" unicode="&#x1e21;" horiz-adv-x="644" 
d="M254 10q-63 0 -111 31t-74.5 87t-26.5 130v14q0 75 26.5 131.5t74.5 87.5t112 31q43 0 89 -21t109 -71v82h119v-505q0 -105 -57.5 -161t-164.5 -56q-53 0 -109.5 14.5t-122.5 40.5l-44 18v113l65 -29q65 -29 111 -43t86 -14q115 0 115 129v81q-62 -49 -107.5 -69.5
t-89.5 -20.5zM166 260q0 -68 32 -108.5t86 -40.5q31 0 69 19.5t94 64.5l4 2v136l-4 3q-56 45 -94 64.5t-69 19.5q-54 0 -86 -40t-32 -110v-10zM122 610v89h386v-89h-386z" />
    <glyph glyph-name="uni1E22" unicode="&#x1e22;" horiz-adv-x="770" 
d="M85 0v680h125v-288h350v288h125v-680h-125v289h-350v-289h-125zM315 734v127h136v-127h-136z" />
    <glyph glyph-name="uni1E23" unicode="&#x1e23;" horiz-adv-x="619" 
d="M75 0v740h121v-308l6 5q53 45 96 65t90 20q75 0 119 -50.5t44 -138.5v-333h-121v314q0 50 -21.5 77t-62.5 27q-27 0 -58 -15.5t-74 -52.5l-18 -15v-335h-121zM67 794v127h136v-127h-136z" />
    <glyph glyph-name="uni1E24" unicode="&#x1e24;" horiz-adv-x="770" 
d="M85 0v680h125v-288h350v288h125v-680h-125v289h-350v-289h-125zM317 -193v122h134v-122h-134z" />
    <glyph glyph-name="uni1E25" unicode="&#x1e25;" horiz-adv-x="619" 
d="M75 0v740h121v-308l6 5q53 45 96 65t90 20q75 0 119 -50.5t44 -138.5v-333h-121v314q0 50 -21.5 77t-62.5 27q-27 0 -58 -15.5t-74 -52.5l-18 -15v-335h-121zM245 -195v126h136v-126h-136z" />
    <glyph glyph-name="uni1E26" unicode="&#x1e26;" horiz-adv-x="770" 
d="M85 0v680h125v-288h350v288h125v-680h-125v289h-350v-289h-125zM446 738v119h116v-119h-116zM206 738v119h116v-119h-116z" />
    <glyph glyph-name="uni1E27" unicode="&#x1e27;" horiz-adv-x="619" 
d="M75 0v740h121v-308l6 5q53 45 96 65t90 20q75 0 119 -50.5t44 -138.5v-333h-121v314q0 50 -21.5 77t-62.5 27q-27 0 -58 -15.5t-74 -52.5l-18 -15v-335h-121zM198 798v119h116v-119h-116zM-42 798v119h116v-119h-116z" />
    <glyph glyph-name="uni1E28" unicode="&#x1e28;" horiz-adv-x="770" 
d="M85 0v680h125v-288h350v288h125v-680h-125v289h-350v-289h-125zM186 -227q-43 0 -107 18l-33 9v67l43 -13q54 -16 83 -16q39 0 39 33q0 30 -47 30h-80v43l38 76l69 -2l-32 -63h24q112 0 112 -87q0 -45 -28.5 -70t-80.5 -25z" />
    <glyph glyph-name="uni1E29" unicode="&#x1e29;" horiz-adv-x="619" 
d="M75 0v740h121v-308l6 5q53 45 96 65t90 20q75 0 119 -50.5t44 -138.5v-333h-121v314q0 50 -21.5 77t-62.5 27q-27 0 -58 -15.5t-74 -52.5l-18 -15v-335h-121zM176 -227q-44 0 -105 18l-31 9v67l41 -13q30 -9 47 -12.5t34 -3.5q38 0 38 33q0 30 -46 30h-77v49l29 70l66 -2
l-28 -63h29q108 0 108 -87q0 -45 -28 -70t-77 -25z" />
    <glyph glyph-name="uni1E2A" unicode="&#x1e2a;" horiz-adv-x="770" 
d="M85 0v680h125v-288h350v288h125v-680h-125v289h-350v-289h-125zM384 -200q-135 0 -172 114l-8 23h88l4 -12q19 -46 88 -46t88 46l4 12h88l-8 -23q-37 -114 -172 -114z" />
    <glyph glyph-name="uni1E2B" unicode="&#x1e2b;" horiz-adv-x="619" 
d="M75 0v740h121v-308l6 5q53 45 96 65t90 20q75 0 119 -50.5t44 -138.5v-333h-121v314q0 50 -21.5 77t-62.5 27q-27 0 -58 -15.5t-74 -52.5l-18 -15v-335h-121zM313 -214q-65 0 -105.5 32.5t-59.5 100.5l-8 26h88l5 -16q17 -61 80 -61t80 61l5 16h88l-8 -26
q-19 -68 -59.5 -100.5t-105.5 -32.5z" />
    <glyph glyph-name="uni1E2C" unicode="&#x1e2c;" horiz-adv-x="295" 
d="M85 0v680h125v-680h-125zM215 -204q-17 0 -33 6.5t-39 23.5l-23 17q-21 15 -32 15t-18 -8.5t-14 -30.5l-6 -20h-78l12 38q17 56 39 79.5t57 23.5q31 0 72 -30l24 -18q19 -14 31 -14q11 0 18 8.5t14 30.5l6 20h78l-12 -38q-17 -56 -39 -79.5t-57 -23.5z" />
    <glyph glyph-name="uni1E2D" unicode="&#x1e2d;" horiz-adv-x="267" 
d="M65 599v129h137v-129h-137zM73 0v512h121v-512h-121zM201 -204q-17 0 -33 6.5t-39 23.5l-23 17q-21 15 -32 15t-18 -8.5t-14 -30.5l-6 -20h-78l12 38q17 56 39 79.5t57 23.5q31 0 72 -30l24 -18q19 -14 31 -14q11 0 18 8.5t14 30.5l6 20h78l-12 -38q-17 -56 -39 -79.5
t-57 -23.5z" />
    <glyph glyph-name="uni1E2E" unicode="&#x1e2e;" horiz-adv-x="295" 
d="M85 0v680h125v-680h-125zM208 734v113h115v-113h-115zM-29 734v113h115v-113h-115zM77 881l117 136h128l-139 -136h-106z" />
    <glyph glyph-name="uni1E2F" unicode="&#x1e2f;" horiz-adv-x="267" 
d="M72 0v512h121v-512h-121zM182 601v121h114v-121h-114zM-28 601v121h114v-121h-114zM60 764l113 157h122l-134 -157h-101z" />
    <glyph glyph-name="uni1E32" unicode="&#x1e32;" horiz-adv-x="708" 
d="M85 0v680h125v-320l329 320h161l-318 -296l328 -384h-159l-261 309l-80 -73v-236h-125zM308 -193v122h134v-122h-134z" />
    <glyph glyph-name="uni1E33" unicode="&#x1e33;" horiz-adv-x="588" 
d="M75 0v740h121v-455l238 227h147l-237 -220l247 -292h-153l-182 223l-60 -56v-167h-121zM246 -195v126h136v-126h-136z" />
    <glyph glyph-name="uni1E34" unicode="&#x1e34;" horiz-adv-x="708" 
d="M85 0v680h125v-320l329 320h161l-318 -296l328 -384h-159l-261 309l-80 -73v-236h-125zM179 -173v83h392v-83h-392z" />
    <glyph glyph-name="uni1E35" unicode="&#x1e35;" horiz-adv-x="588" 
d="M75 0v740h121v-455l238 227h147l-237 -220l247 -292h-153l-182 223l-60 -56v-167h-121zM123 -175v86h382v-86h-382z" />
    <glyph glyph-name="uni1E36" unicode="&#x1e36;" horiz-adv-x="605" 
d="M85 0v680h125v-577h376v-103h-501zM272 -193v122h134v-122h-134z" />
    <glyph glyph-name="uni1E37" unicode="&#x1e37;" horiz-adv-x="311" 
d="M178 -10q-108 0 -108 122v628h121v-607q0 -20 5.5 -28t19.5 -8q10 0 23 5.5t37 19.5l21 13v-105l-13 -8q-58 -32 -106 -32zM120 -195v126h136v-126h-136z" />
    <glyph glyph-name="uni1E3A" unicode="&#x1e3a;" horiz-adv-x="605" 
d="M85 0v680h125v-577h376v-103h-501zM143 -173v83h392v-83h-392z" />
    <glyph glyph-name="uni1E3B" unicode="&#x1e3b;" horiz-adv-x="311" 
d="M178 -10q-108 0 -108 122v628h121v-607q0 -20 5.5 -28t19.5 -8q10 0 23 5.5t37 19.5l21 13v-105l-13 -8q-58 -32 -106 -32zM51 -175v86h274v-86h-274z" />
    <glyph glyph-name="uni1E3C" unicode="&#x1e3c;" horiz-adv-x="605" 
d="M85 0v680h125v-577h376v-103h-501zM154 -196l134 141h101l134 -141h-100l-84 71l-85 -71h-100z" />
    <glyph glyph-name="uni1E3D" unicode="&#x1e3d;" horiz-adv-x="311" 
d="M178 -10q-108 0 -108 122v628h121v-607q0 -20 5.5 -28t19.5 -8q10 0 23 5.5t37 19.5l21 13v-105l-13 -8q-58 -32 -106 -32zM18 -220l122 165h97l122 -165h-95l-75 86l-76 -86h-95z" />
    <glyph glyph-name="uni1E3E" unicode="&#x1e3e;" horiz-adv-x="895" 
d="M85 0v680h137l227 -457l222 457h139v-680h-123l2 493l-195 -413h-98l-195 396l2 -476h-118zM390 725l118 145h130l-141 -145h-107z" />
    <glyph glyph-name="uni1E3F" unicode="&#x1e3f;" horiz-adv-x="905" 
d="M73 0v512h119v-77l4 3q55 46 94 65t79 19q99 0 130 -97l16 14q54 47 92.5 65t78.5 18q72 0 111.5 -48t39.5 -136v-338h-121v320q0 98 -65 98q-23 0 -47.5 -13.5t-71.5 -52.5l-16 -14v-338h-121v320q0 98 -65 98q-23 0 -47.5 -13.5t-71.5 -52.5l-17 -14v-338h-121z
M399 580l116 175h124l-137 -175h-103z" />
    <glyph glyph-name="uni1E40" unicode="&#x1e40;" horiz-adv-x="895" 
d="M85 0v680h137l227 -457l222 457h139v-680h-123l2 493l-195 -413h-98l-195 396l2 -476h-118zM379 734v127h136v-127h-136z" />
    <glyph glyph-name="uni1E41" unicode="&#x1e41;" horiz-adv-x="905" 
d="M73 0v512h119v-77l4 3q55 46 94 65t79 19q99 0 130 -97l16 14q54 47 92.5 65t78.5 18q72 0 111.5 -48t39.5 -136v-338h-121v320q0 98 -65 98q-23 0 -47.5 -13.5t-71.5 -52.5l-16 -14v-338h-121v320q0 98 -65 98q-23 0 -47.5 -13.5t-71.5 -52.5l-17 -14v-338h-121z
M386 599v129h138v-129h-138z" />
    <glyph glyph-name="uni1E42" unicode="&#x1e42;" horiz-adv-x="895" 
d="M85 0v680h137l227 -457l222 457h139v-680h-123l2 493l-195 -413h-98l-195 396l2 -476h-118zM381 -193v122h134v-122h-134z" />
    <glyph glyph-name="uni1E43" unicode="&#x1e43;" horiz-adv-x="905" 
d="M73 0v512h119v-77l4 3q55 46 94 65t79 19q99 0 130 -97l16 14q54 47 92.5 65t78.5 18q72 0 111.5 -48t39.5 -136v-338h-121v320q0 98 -65 98q-23 0 -47.5 -13.5t-71.5 -52.5l-16 -14v-338h-121v320q0 98 -65 98q-23 0 -47.5 -13.5t-71.5 -52.5l-17 -14v-338h-121z
M387 -195v126h136v-126h-136z" />
    <glyph glyph-name="uni1E44" unicode="&#x1e44;" horiz-adv-x="773" 
d="M570 680h118v-680h-123l-363 492v-492h-117v680h124l361 -492v492zM318 734v127h136v-127h-136z" />
    <glyph glyph-name="uni1E45" unicode="&#x1e45;" horiz-adv-x="617" 
d="M73 0v512h119v-82l11 9q53 44 95 63.5t88 19.5q75 0 119 -50.5t44 -138.5v-333h-121v314q0 50 -21.5 77t-61.5 27q-28 0 -58.5 -15.5t-73.5 -51.5l-19 -17v-334h-121zM241 599v129h138v-129h-138z" />
    <glyph glyph-name="uni1E46" unicode="&#x1e46;" horiz-adv-x="773" 
d="M570 680h118v-680h-123l-363 492v-492h-117v680h124l361 -492v492zM322 -193v122h134v-122h-134z" />
    <glyph glyph-name="uni1E47" unicode="&#x1e47;" horiz-adv-x="617" 
d="M73 0v512h119v-82l11 9q53 44 95 63.5t88 19.5q75 0 119 -50.5t44 -138.5v-333h-121v314q0 50 -21.5 77t-61.5 27q-28 0 -58.5 -15.5t-73.5 -51.5l-19 -17v-334h-121zM243 -195v126h136v-126h-136z" />
    <glyph glyph-name="uni1E48" unicode="&#x1e48;" horiz-adv-x="773" 
d="M570 680h118v-680h-123l-363 492v-492h-117v680h124l361 -492v492zM193 -173v83h392v-83h-392z" />
    <glyph glyph-name="uni1E49" unicode="&#x1e49;" horiz-adv-x="617" 
d="M73 0v512h119v-82l11 9q53 44 95 63.5t88 19.5q75 0 119 -50.5t44 -138.5v-333h-121v314q0 50 -21.5 77t-61.5 27q-28 0 -58.5 -15.5t-73.5 -51.5l-19 -17v-334h-121zM120 -175v86h382v-86h-382z" />
    <glyph glyph-name="uni1E4A" unicode="&#x1e4a;" horiz-adv-x="773" 
d="M570 680h118v-680h-123l-363 492v-492h-117v680h124l361 -492v492zM204 -196l134 141h101l134 -141h-100l-84 71l-85 -71h-100z" />
    <glyph glyph-name="uni1E4B" unicode="&#x1e4b;" horiz-adv-x="617" 
d="M73 0v512h119v-82l11 9q53 44 95 63.5t88 19.5q75 0 119 -50.5t44 -138.5v-333h-121v314q0 50 -21.5 77t-61.5 27q-28 0 -58.5 -15.5t-73.5 -51.5l-19 -17v-334h-121zM129 -220l132 165h101l132 -165h-97l-85 89l-86 -89h-97z" />
    <glyph glyph-name="uni1E4C" unicode="&#x1e4c;" horiz-adv-x="796" 
d="M398 -15q-105 0 -184.5 43t-123.5 119.5t-44 178.5v28q0 102 44 178.5t123.5 119.5t184.5 43t184.5 -43t123.5 -119.5t44 -178.5v-28q0 -102 -44 -178.5t-123.5 -119.5t-184.5 -43zM398 89q103 0 162.5 65.5t59.5 177.5v16q0 112 -59.5 177.5t-162.5 65.5t-162.5 -65.5
t-59.5 -177.5v-16q0 -112 59.5 -177.5t162.5 -65.5zM208 725l11 35q15 50 37.5 73t57.5 23q17 0 33.5 -5.5t45.5 -19.5l41 -20q23 -11 35 -11t19 7.5t14 26.5l6 19h79l-11 -35q-15 -51 -37 -73.5t-58 -22.5q-17 0 -34 5t-45 20l-41 20q-21 11 -33 11q-24 0 -35 -34l-6 -19
h-79zM328 889l117 136h128l-139 -136h-106z" />
    <glyph glyph-name="uni1E4D" unicode="&#x1e4d;" horiz-adv-x="619" 
d="M310 -10q-82 0 -142.5 31t-93 87.5t-32.5 134.5v26q0 77 32.5 134t93 88t142.5 31t142 -31t93 -88t33 -134v-26q0 -78 -33 -134.5t-93 -87.5t-142 -31zM310 89q68 0 106 41t38 115v22q0 73 -38 114.5t-106 41.5q-69 0 -106.5 -41.5t-37.5 -114.5v-22q0 -74 37.5 -115
t106.5 -41zM386 577q-17 0 -34 5.5t-41 19.5l-34 19q-23 13 -34 13q-22 0 -33 -35l-6 -19h-78l11 36q15 51 38 74t59 23q16 0 33.5 -5t41.5 -19l34 -19q22 -13 34 -13t19 7.5t14 27.5l6 18h78l-11 -35q-16 -52 -38.5 -75t-58.5 -23zM236 750l113 157h122l-134 -157h-101z
" />
    <glyph glyph-name="uni1E4E" unicode="&#x1e4e;" horiz-adv-x="796" 
d="M398 -15q-105 0 -184.5 43t-123.5 119.5t-44 178.5v28q0 102 44 178.5t123.5 119.5t184.5 43t184.5 -43t123.5 -119.5t44 -178.5v-28q0 -102 -44 -178.5t-123.5 -119.5t-184.5 -43zM398 89q103 0 162.5 65.5t59.5 177.5v16q0 112 -59.5 177.5t-162.5 65.5t-162.5 -65.5
t-59.5 -177.5v-16q0 -112 59.5 -177.5t162.5 -65.5zM208 725l11 35q15 50 37.5 73t57.5 23q17 0 33.5 -5.5t45.5 -19.5l41 -20q23 -11 35 -11t19 7.5t14 26.5l6 19h79l-11 -35q-15 -51 -37 -73.5t-58 -22.5q-17 0 -34 5t-45 20l-41 20q-21 11 -33 11q-24 0 -35 -34l-6 -19
h-79zM459 898v113h115v-113h-115zM222 898v113h115v-113h-115z" />
    <glyph glyph-name="uni1E4F" unicode="&#x1e4f;" horiz-adv-x="619" 
d="M310 -10q-82 0 -142.5 31t-93 87.5t-32.5 134.5v26q0 77 32.5 134t93 88t142.5 31t142 -31t93 -88t33 -134v-26q0 -78 -33 -134.5t-93 -87.5t-142 -31zM310 89q68 0 106 41t38 115v22q0 73 -38 114.5t-106 41.5q-69 0 -106.5 -41.5t-37.5 -114.5v-22q0 -74 37.5 -115
t106.5 -41zM386 577q-17 0 -34 5.5t-41 19.5l-34 19q-23 13 -34 13q-22 0 -33 -35l-6 -19h-78l11 36q15 51 38 74t59 23q16 0 33.5 -5t41.5 -19l34 -19q22 -13 34 -13t19 7.5t14 27.5l6 18h78l-11 -35q-16 -52 -38.5 -75t-58.5 -23zM370 767v117h113v-117h-113zM137 767v117
h113v-117h-113z" />
    <glyph glyph-name="uni1E50" unicode="&#x1e50;" horiz-adv-x="796" 
d="M398 -15q-105 0 -184.5 43t-123.5 119.5t-44 178.5v28q0 102 44 178.5t123.5 119.5t184.5 43t184.5 -43t123.5 -119.5t44 -178.5v-28q0 -102 -44 -178.5t-123.5 -119.5t-184.5 -43zM398 89q103 0 162.5 65.5t59.5 177.5v16q0 112 -59.5 177.5t-162.5 65.5t-162.5 -65.5
t-59.5 -177.5v-16q0 -112 59.5 -177.5t162.5 -65.5zM202 749v82h392v-82h-392zM362 888l-139 136h128l117 -136h-106z" />
    <glyph glyph-name="uni1E51" unicode="&#x1e51;" horiz-adv-x="619" 
d="M310 -10q-82 0 -142.5 31t-93 87.5t-32.5 134.5v26q0 77 32.5 134t93 88t142.5 31t142 -31t93 -88t33 -134v-26q0 -78 -33 -134.5t-93 -87.5t-142 -31zM310 89q68 0 106 41t38 115v22q0 73 -38 114.5t-106 41.5q-69 0 -106.5 -41.5t-37.5 -114.5v-22q0 -74 37.5 -115
t106.5 -41zM121 605v81h378v-81h-378zM284 733l-135 157h122l113 -157h-100z" />
    <glyph glyph-name="uni1E52" unicode="&#x1e52;" horiz-adv-x="796" 
d="M398 -15q-105 0 -184.5 43t-123.5 119.5t-44 178.5v28q0 102 44 178.5t123.5 119.5t184.5 43t184.5 -43t123.5 -119.5t44 -178.5v-28q0 -102 -44 -178.5t-123.5 -119.5t-184.5 -43zM398 89q103 0 162.5 65.5t59.5 177.5v16q0 112 -59.5 177.5t-162.5 65.5t-162.5 -65.5
t-59.5 -177.5v-16q0 -112 59.5 -177.5t162.5 -65.5zM202 749v82h392v-82h-392zM328 888l117 136h128l-139 -136h-106z" />
    <glyph glyph-name="uni1E53" unicode="&#x1e53;" horiz-adv-x="619" 
d="M310 -10q-82 0 -142.5 31t-93 87.5t-32.5 134.5v26q0 77 32.5 134t93 88t142.5 31t142 -31t93 -88t33 -134v-26q0 -78 -33 -134.5t-93 -87.5t-142 -31zM310 89q68 0 106 41t38 115v22q0 73 -38 114.5t-106 41.5q-69 0 -106.5 -41.5t-37.5 -114.5v-22q0 -74 37.5 -115
t106.5 -41zM121 605v81h378v-81h-378zM236 733l113 157h122l-134 -157h-101z" />
    <glyph glyph-name="uni1E58" unicode="&#x1e58;" horiz-adv-x="720" 
d="M85 0v680h346q111 0 170.5 -52t59.5 -154q0 -72 -37.5 -120t-105.5 -68l177 -286h-143l-159 266h-184v-266h-124zM209 367h205q55 0 86 28t31 79q0 105 -117 105h-205v-212zM286 734v127h136v-127h-136z" />
    <glyph glyph-name="uni1E59" unicode="&#x1e59;" horiz-adv-x="414" 
d="M73 0v512h119v-98l29 21q60 43 99 62.5t76 24.5v-118q-46 -7 -85.5 -21.5t-84.5 -41.5l-32 -19v-322h-121zM167 599v129h138v-129h-138z" />
    <glyph glyph-name="uni1E5A" unicode="&#x1e5a;" horiz-adv-x="720" 
d="M85 0v680h346q111 0 170.5 -52t59.5 -154q0 -72 -37.5 -120t-105.5 -68l177 -286h-143l-159 266h-184v-266h-124zM209 367h205q55 0 86 28t31 79q0 105 -117 105h-205v-212zM308 -193v122h134v-122h-134z" />
    <glyph glyph-name="uni1E5B" unicode="&#x1e5b;" horiz-adv-x="414" 
d="M73 0v512h119v-98l29 21q60 43 99 62.5t76 24.5v-118q-46 -7 -85.5 -21.5t-84.5 -41.5l-32 -19v-322h-121zM71 -195v126h136v-126h-136z" />
    <glyph glyph-name="uni1E5E" unicode="&#x1e5e;" horiz-adv-x="720" 
d="M85 0v680h346q111 0 170.5 -52t59.5 -154q0 -72 -37.5 -120t-105.5 -68l177 -286h-143l-159 266h-184v-266h-124zM209 367h205q55 0 86 28t31 79q0 105 -117 105h-205v-212zM179 -173v83h392v-83h-392z" />
    <glyph glyph-name="uni1E5F" unicode="&#x1e5f;" horiz-adv-x="414" 
d="M73 0v512h119v-98l29 21q60 43 99 62.5t76 24.5v-118q-46 -7 -85.5 -21.5t-84.5 -41.5l-32 -19v-322h-121zM2 -175v86h274v-86h-274z" />
    <glyph glyph-name="uni1E60" unicode="&#x1e60;" horiz-adv-x="665" 
d="M388 -15q-74 0 -144.5 18t-154.5 58l-43 21v121l80 -40q83 -40 142.5 -57.5t114.5 -17.5q54 0 84.5 26t30.5 71q0 40 -26.5 60t-98.5 33l-110 20q-109 20 -157 66t-48 129q0 62 29 107t82 70t124 25q58 0 117 -14t140 -47l47 -18v-116l-76 32q-55 22 -94.5 35.5t-70.5 19
t-61 5.5q-51 0 -81.5 -23.5t-30.5 -66.5q0 -41 26 -61t98 -33l116 -21q108 -20 154 -65t46 -130q0 -97 -62.5 -152t-172.5 -55zM273 734v127h136v-127h-136z" />
    <glyph glyph-name="uni1E61" unicode="&#x1e61;" horiz-adv-x="533" 
d="M311 -10q-47 0 -103 14.5t-127 44.5l-39 16v104l78 -33q116 -52 183 -52q36 0 56 14.5t20 41.5q0 25 -15 37t-53 20l-102 20q-83 15 -120 50.5t-37 98.5q0 72 49 114t133 42q40 0 83 -10t110 -35l45 -16v-103l-72 28q-59 24 -94 33t-65 9q-35 0 -53.5 -14.5t-18.5 -40.5
q0 -24 15.5 -36t56.5 -20l113 -21q74 -14 107.5 -49.5t33.5 -98.5q0 -74 -48.5 -116t-135.5 -42zM201 599v129h138v-129h-138z" />
    <glyph glyph-name="uni1E62" unicode="&#x1e62;" horiz-adv-x="665" 
d="M388 -15q-74 0 -144.5 18t-154.5 58l-43 21v121l80 -40q83 -40 142.5 -57.5t114.5 -17.5q54 0 84.5 26t30.5 71q0 40 -26.5 60t-98.5 33l-110 20q-109 20 -157 66t-48 129q0 62 29 107t82 70t124 25q58 0 117 -14t140 -47l47 -18v-116l-76 32q-55 22 -94.5 35.5t-70.5 19
t-61 5.5q-51 0 -81.5 -23.5t-30.5 -66.5q0 -41 26 -61t98 -33l116 -21q108 -20 154 -65t46 -130q0 -97 -62.5 -152t-172.5 -55zM258 -193v122h134v-122h-134z" />
    <glyph glyph-name="uni1E63" unicode="&#x1e63;" horiz-adv-x="533" 
d="M311 -10q-47 0 -103 14.5t-127 44.5l-39 16v104l78 -33q116 -52 183 -52q36 0 56 14.5t20 41.5q0 25 -15 37t-53 20l-102 20q-83 15 -120 50.5t-37 98.5q0 72 49 114t133 42q40 0 83 -10t110 -35l45 -16v-103l-72 28q-59 24 -94 33t-65 9q-35 0 -53.5 -14.5t-18.5 -40.5
q0 -24 15.5 -36t56.5 -20l113 -21q74 -14 107.5 -49.5t33.5 -98.5q0 -74 -48.5 -116t-135.5 -42zM192 -195v126h136v-126h-136z" />
    <glyph glyph-name="uni1E6C" unicode="&#x1e6c;" horiz-adv-x="655" 
d="M265 0v577h-246v103h617v-103h-246v-577h-125zM262 -193v122h134v-122h-134z" />
    <glyph glyph-name="uni1E6D" unicode="&#x1e6d;" horiz-adv-x="527" 
d="M271 -10q-72 0 -110 40.5t-38 116.5v241h-104v98h104v171h121v-171h251v-98h-251v-221q0 -69 52 -69q25 0 50 13t67 47l82 64v-121l-39 -30q-56 -44 -98 -62.5t-87 -18.5zM215 -195v126h136v-126h-136z" />
    <glyph glyph-name="uni1E6E" unicode="&#x1e6e;" horiz-adv-x="655" 
d="M265 0v577h-246v103h617v-103h-246v-577h-125zM133 -173v83h392v-83h-392z" />
    <glyph glyph-name="uni1E6F" unicode="&#x1e6f;" horiz-adv-x="527" 
d="M271 -10q-72 0 -110 40.5t-38 116.5v241h-104v98h104v171h121v-171h251v-98h-251v-221q0 -69 52 -69q25 0 50 13t67 47l82 64v-121l-39 -30q-56 -44 -98 -62.5t-87 -18.5zM148 -175v86h274v-86h-274z" />
    <glyph glyph-name="uni1E70" unicode="&#x1e70;" horiz-adv-x="655" 
d="M265 0v577h-246v103h617v-103h-246v-577h-125zM144 -196l134 141h101l134 -141h-100l-84 71l-85 -71h-100z" />
    <glyph glyph-name="uni1E71" unicode="&#x1e71;" horiz-adv-x="527" 
d="M271 -10q-72 0 -110 40.5t-38 116.5v241h-104v98h104v171h121v-171h251v-98h-251v-221q0 -69 52 -69q25 0 50 13t67 47l82 64v-121l-39 -30q-56 -44 -98 -62.5t-87 -18.5zM101 -220l132 165h101l132 -165h-97l-85 89l-86 -89h-97z" />
    <glyph glyph-name="uni1E72" unicode="&#x1e72;" horiz-adv-x="776" 
d="M388 -15q-153 0 -232 72t-79 211v412h125v-394q0 -103 44.5 -149.5t141.5 -46.5q98 0 142 46.5t44 149.5v394h125v-412q0 -139 -79 -211t-232 -72zM448 -189v114h115v-114h-115zM211 -189v114h115v-114h-115z" />
    <glyph glyph-name="uni1E73" unicode="&#x1e73;" horiz-adv-x="602" 
d="M224 -10q-75 0 -115.5 48t-40.5 136v338h121v-319q0 -100 72 -100q26 0 55 16t68 47l24 20v336h121v-512h-119v80l-9 -7q-54 -46 -94.5 -64.5t-82.5 -18.5zM360 -190v116h115v-116h-115zM125 -190v116h115v-116h-115z" />
    <glyph glyph-name="uni1E74" unicode="&#x1e74;" horiz-adv-x="776" 
d="M388 -15q-153 0 -232 72t-79 211v412h125v-394q0 -103 44.5 -149.5t141.5 -46.5q98 0 142 46.5t44 149.5v394h125v-412q0 -139 -79 -211t-232 -72zM469 -201q-18 0 -35.5 6.5t-42.5 19.5l-40 21q-11 5 -19 8.5t-15 3.5q-13 0 -21 -8t-14 -28l-7 -20h-79l11 36
q15 52 37.5 76t59.5 24q19 0 36 -6.5t42 -19.5l41 -21q23 -12 34 -12q12 0 20 8t15 28l6 20h79l-10 -36q-16 -54 -38.5 -77t-59.5 -23z" />
    <glyph glyph-name="uni1E75" unicode="&#x1e75;" horiz-adv-x="602" 
d="M224 -10q-75 0 -115.5 48t-40.5 136v338h121v-319q0 -100 72 -100q26 0 55 16t68 47l24 20v336h121v-512h-119v80l-9 -7q-54 -46 -94.5 -64.5t-82.5 -18.5zM376 -204q-30 0 -76 27l-34 21q-23 14 -34 14q-13 0 -20 -8.5t-14 -30.5l-6 -20h-78l11 38q15 55 38 79t60 24
q30 0 76 -27l34 -21q23 -14 34 -14q13 0 20 8.5t14 30.5l6 20h78l-11 -38q-15 -55 -38 -79t-60 -24z" />
    <glyph glyph-name="uni1E78" unicode="&#x1e78;" horiz-adv-x="776" 
d="M388 -15q-153 0 -232 72t-79 211v412h125v-394q0 -103 44.5 -149.5t141.5 -46.5q98 0 142 46.5t44 149.5v394h125v-412q0 -139 -79 -211t-232 -72zM198 725l11 35q15 50 37.5 73t57.5 23q17 0 33.5 -5.5t45.5 -19.5l41 -20q23 -11 35 -11t19 7.5t14 26.5l6 19h79l-11 -35
q-15 -51 -37 -73.5t-58 -22.5q-17 0 -34 5t-45 20l-41 20q-21 11 -33 11q-24 0 -35 -34l-6 -19h-79zM318 889l117 136h128l-139 -136h-106z" />
    <glyph glyph-name="uni1E79" unicode="&#x1e79;" horiz-adv-x="602" 
d="M224 -10q-75 0 -115.5 48t-40.5 136v338h121v-319q0 -100 72 -100q26 0 55 16t68 47l24 20v336h121v-512h-119v80l-9 -7q-54 -46 -94.5 -64.5t-82.5 -18.5zM374 577q-17 0 -34 5.5t-41 19.5l-34 19q-23 13 -34 13q-22 0 -33 -35l-6 -19h-78l11 36q15 51 38 74t59 23
q16 0 33.5 -5t41.5 -19l34 -19q22 -13 34 -13t19 7.5t14 27.5l6 18h78l-11 -35q-16 -52 -38.5 -75t-58.5 -23zM224 750l113 157h122l-134 -157h-101z" />
    <glyph glyph-name="uni1E7C" unicode="&#x1e7c;" horiz-adv-x="720" 
d="M292 0l-283 680h135l219 -544l218 544h130l-283 -680h-136zM439 722q-33 0 -80 26l-41 22q-21 12 -34 12t-21 -8.5t-15 -28.5l-6 -20h-80l11 36q15 54 37.5 78t59.5 24q32 0 80 -26l40 -22q13 -7 20.5 -9.5t14.5 -2.5q12 0 20.5 8.5t14.5 28.5l6 20h80l-10 -36
q-16 -55 -38.5 -78.5t-58.5 -23.5z" />
    <glyph glyph-name="uni1E7D" unicode="&#x1e7d;" horiz-adv-x="569" 
d="M225 0l-214 512h130l148 -376l146 376h123l-214 -512h-119zM363 587q-32 0 -78 28l-34 21q-22 15 -35 15t-20 -8.5t-14 -31.5l-6 -21h-79l11 39q15 56 38.5 81t59.5 25q17 0 34.5 -6t43.5 -22l34 -21q22 -14 35 -14t20 8.5t14 31.5l6 20h79l-11 -39q-15 -56 -38.5 -81
t-59.5 -25z" />
    <glyph glyph-name="uni1E7E" unicode="&#x1e7e;" horiz-adv-x="720" 
d="M292 0l-283 680h135l219 -544l218 544h130l-283 -680h-136zM293 -193v122h134v-122h-134z" />
    <glyph glyph-name="uni1E7F" unicode="&#x1e7f;" horiz-adv-x="569" 
d="M225 0l-214 512h130l148 -376l146 376h123l-214 -512h-119zM215 -195v126h136v-126h-136z" />
    <glyph glyph-name="Wgrave" unicode="&#x1e80;" horiz-adv-x="941" 
d="M193 0l-170 680h133l117 -511l141 511h128l136 -506l118 506h122l-170 -680h-130l-144 511l-145 -511h-136zM429 725l-141 145h130l118 -145h-107z" />
    <glyph glyph-name="wgrave" unicode="&#x1e81;" horiz-adv-x="799" 
d="M165 0l-148 512h124l95 -362l108 362h120l107 -362l96 362h115l-147 -512h-117l-118 376l-117 -376h-118zM354 580l-137 175h124l116 -175h-103z" />
    <glyph glyph-name="Wacute" unicode="&#x1e82;" horiz-adv-x="941" 
d="M193 0l-170 680h133l117 -511l141 511h128l136 -506l118 506h122l-170 -680h-130l-144 511l-145 -511h-136zM420 725l118 145h130l-141 -145h-107z" />
    <glyph glyph-name="wacute" unicode="&#x1e83;" horiz-adv-x="799" 
d="M165 0l-148 512h124l95 -362l108 362h120l107 -362l96 362h115l-147 -512h-117l-118 376l-117 -376h-118zM345 580l116 175h124l-137 -175h-103z" />
    <glyph glyph-name="Wdieresis" unicode="&#x1e84;" horiz-adv-x="941" 
d="M193 0l-170 680h133l117 -511l141 511h128l136 -506l118 506h122l-170 -680h-130l-144 511l-145 -511h-136zM540 738v119h116v-119h-116zM300 738v119h116v-119h-116z" />
    <glyph glyph-name="wdieresis" unicode="&#x1e85;" horiz-adv-x="799" 
d="M165 0l-148 512h124l95 -362l108 362h120l107 -362l96 362h115l-147 -512h-117l-118 376l-117 -376h-118zM462 601v121h116v-121h-116zM224 601v121h116v-121h-116z" />
    <glyph glyph-name="uni1E8C" unicode="&#x1e8c;" horiz-adv-x="721" 
d="M-3 0l285 348l-270 332h154l198 -247l197 247h147l-269 -329l284 -351h-153l-214 267l-211 -267h-148zM422 738v119h116v-119h-116zM182 738v119h116v-119h-116z" />
    <glyph glyph-name="uni1E8D" unicode="&#x1e8d;" horiz-adv-x="575" 
d="M-1 0l216 264l-199 248h146l129 -171l130 171h138l-200 -244l217 -268h-146l-147 188l-145 -188h-139zM346 601v121h116v-121h-116zM108 601v121h116v-121h-116z" />
    <glyph glyph-name="uni1E8E" unicode="&#x1e8e;" horiz-adv-x="723" 
d="M299 0v250l-289 430h144l212 -321l212 321h135l-289 -430v-250h-125zM294 734v127h136v-127h-136z" />
    <glyph glyph-name="uni1E8F" unicode="&#x1e8f;" horiz-adv-x="569" 
d="M162 -210q-44 0 -87 22l-13 7v107l26 -14q20 -10 32.5 -13.5t23.5 -3.5q18 0 30.5 11.5t26.5 41.5l24 54l-214 510h130l148 -374l146 374h123l-252 -596q-29 -70 -61 -98t-83 -28zM214 599v129h138v-129h-138z" />
    <glyph glyph-name="uni1E90" unicode="&#x1e90;" horiz-adv-x="641" 
d="M30 0v89l408 488h-393v103h554v-89l-408 -488h423v-103h-584zM132 725l135 145h103l135 -145h-101l-85 73l-86 -73h-101z" />
    <glyph glyph-name="uni1E91" unicode="&#x1e91;" horiz-adv-x="530" 
d="M32 0v83l298 331h-281v98h434v-83l-298 -331h315v-98h-468zM82 580l133 175h103l133 -175h-98l-86 95l-87 -95h-98z" />
    <glyph glyph-name="uni1E92" unicode="&#x1e92;" horiz-adv-x="641" 
d="M30 0v89l408 488h-393v103h554v-89l-408 -488h423v-103h-584zM252 -193v122h134v-122h-134z" />
    <glyph glyph-name="uni1E93" unicode="&#x1e93;" horiz-adv-x="530" 
d="M32 0v83l298 331h-281v98h434v-83l-298 -331h315v-98h-468zM199 -195v126h136v-126h-136z" />
    <glyph glyph-name="uni1E94" unicode="&#x1e94;" horiz-adv-x="641" 
d="M30 0v89l408 488h-393v103h554v-89l-408 -488h423v-103h-584zM123 -173v83h392v-83h-392z" />
    <glyph glyph-name="uni1E95" unicode="&#x1e95;" horiz-adv-x="530" 
d="M32 0v83l298 331h-281v98h434v-83l-298 -331h315v-98h-468zM76 -175v86h382v-86h-382z" />
    <glyph glyph-name="uni1E96" unicode="&#x1e96;" horiz-adv-x="619" 
d="M75 0v740h121v-308l6 5q53 45 96 65t90 20q75 0 119 -50.5t44 -138.5v-333h-121v314q0 50 -21.5 77t-62.5 27q-27 0 -58 -15.5t-74 -52.5l-18 -15v-335h-121zM122 -175v86h382v-86h-382z" />
    <glyph glyph-name="uni1E97" unicode="&#x1e97;" horiz-adv-x="528" 
d="M272 -10q-72 0 -110 40.5t-38 116.5v241h-104v98h104v171h121v-171h251v-98h-251v-221q0 -69 52 -69q25 0 50 13t67 47l82 64v-121l-39 -30q-56 -44 -98 -62.5t-87 -18.5zM245 730v121h116v-121h-116zM7 730v121h116v-121h-116z" />
    <glyph glyph-name="uni1E9E" unicode="&#x1e9e;" horiz-adv-x="786" 
d="M536 -15q-94 0 -206 56l-31 15v116l64 -34q54 -28 90.5 -39.5t69.5 -11.5q42 0 67.5 24.5t25.5 64.5q0 43 -25.5 68.5t-89.5 41.5l-93 25v83l179 156q-61 21 -108.5 31t-89.5 10q-91 0 -139 -49t-48 -141v-401h-125v409q0 136 79 211t223 75q62 0 131.5 -15t154.5 -46
l50 -18v-97l-166 -143h1q105 -28 150 -74.5t45 -124.5q0 -88 -56.5 -140t-152.5 -52z" />
    <glyph glyph-name="uni1EA0" unicode="&#x1ea0;" horiz-adv-x="735" 
d="M8 0l291 680h137l291 -680h-132l-71 171h-318l-71 -171h-127zM247 271h235l-119 283zM301 -193v122h134v-122h-134z" />
    <glyph glyph-name="uni1EA1" unicode="&#x1ea1;" horiz-adv-x="572" 
d="M195 -10q-73 0 -116.5 40t-43.5 107q0 73 48 111.5t155 51.5l149 19v3q0 52 -19.5 75.5t-62.5 23.5q-26 0 -62.5 -11t-102.5 -39l-58 -24v106l36 15q66 28 115.5 41t92.5 13q88 0 133 -48t45 -140v-334h-115v79l-3 -3q-56 -46 -100 -66t-91 -20zM155 150q0 -29 18 -46
t48 -17q32 0 67.5 17t87.5 57l11 9v76l-132 -21q-55 -9 -77.5 -26t-22.5 -49zM211 -195v126h136v-126h-136z" />
    <glyph glyph-name="uni1EA2" unicode="&#x1ea2;" horiz-adv-x="735" 
d="M8 0l291 680h137l291 -680h-132l-71 171h-318l-71 -171h-127zM247 271h235l-119 283zM328 719l42 32q21 15 29 25.5t8 20.5q0 26 -30 26q-14 0 -30.5 -4.5t-42.5 -15.5l-49 -21v73l27 12q36 15 63 21.5t51 6.5q47 0 74 -23.5t27 -60.5q0 -47 -54 -84l-11 -8h-104z" />
    <glyph glyph-name="uni1EA3" unicode="&#x1ea3;" horiz-adv-x="572" 
d="M195 -10q-73 0 -116.5 40t-43.5 107q0 73 48 111.5t155 51.5l149 19v3q0 52 -19.5 75.5t-62.5 23.5q-26 0 -62.5 -11t-102.5 -39l-58 -24v106l36 15q66 28 115.5 41t92.5 13q88 0 133 -48t45 -140v-334h-115v79l-3 -3q-56 -46 -100 -66t-91 -20zM155 150q0 -29 18 -46
t48 -17q32 0 67.5 17t87.5 57l11 9v76l-132 -21q-55 -9 -77.5 -26t-22.5 -49zM241 580l42 35q31 25 31 46q0 26 -30 26q-12 0 -25.5 -4t-39.5 -16l-46 -20v72l25 12q32 15 57 21.5t48 6.5q46 0 73.5 -23.5t27.5 -63.5q0 -45 -49 -82l-12 -10h-102z" />
    <glyph glyph-name="uni1EA4" unicode="&#x1ea4;" horiz-adv-x="735" 
d="M8 0l291 680h137l291 -680h-132l-71 171h-318l-71 -171h-127zM247 271h235l-119 283zM183 725l134 136h101l134 -136h-100l-84 67l-85 -67h-100zM494 824l117 136h128l-139 -136h-106z" />
    <glyph glyph-name="uni1EA5" unicode="&#x1ea5;" horiz-adv-x="572" 
d="M195 -10q-73 0 -116.5 40t-43.5 107q0 73 48 111.5t155 51.5l149 19v3q0 52 -19.5 75.5t-62.5 23.5q-26 0 -62.5 -11t-102.5 -39l-58 -24v106l36 15q66 28 115.5 41t92.5 13q88 0 133 -48t45 -140v-334h-115v79l-3 -3q-56 -46 -100 -66t-91 -20zM155 150q0 -29 18 -46
t48 -17q32 0 67.5 17t87.5 57l11 9v76l-132 -21q-55 -9 -77.5 -26t-22.5 -49zM101 570l130 157h101l131 -157h-96l-85 84l-85 -84h-96zM401 683l113 157h122l-134 -157h-101z" />
    <glyph glyph-name="uni1EA6" unicode="&#x1ea6;" horiz-adv-x="735" 
d="M8 0l291 680h137l291 -680h-132l-71 171h-318l-71 -171h-127zM247 271h235l-119 283zM183 725l134 136h101l134 -136h-100l-84 67l-85 -67h-100zM528 824l-139 136h128l117 -136h-106z" />
    <glyph glyph-name="uni1EA7" unicode="&#x1ea7;" horiz-adv-x="572" 
d="M195 -10q-73 0 -116.5 40t-43.5 107q0 73 48 111.5t155 51.5l149 19v3q0 52 -19.5 75.5t-62.5 23.5q-26 0 -62.5 -11t-102.5 -39l-58 -24v106l36 15q66 28 115.5 41t92.5 13q88 0 133 -48t45 -140v-334h-115v79l-3 -3q-56 -46 -100 -66t-91 -20zM155 150q0 -29 18 -46
t48 -17q32 0 67.5 17t87.5 57l11 9v76l-132 -21q-55 -9 -77.5 -26t-22.5 -49zM101 570l130 157h101l131 -157h-96l-85 84l-85 -84h-96zM449 683l-135 157h122l113 -157h-100z" />
    <glyph glyph-name="uni1EA8" unicode="&#x1ea8;" horiz-adv-x="735" 
d="M8 0l291 680h137l291 -680h-132l-71 171h-318l-71 -171h-127zM247 271h235l-119 283zM183 725l134 136h101l134 -136h-100l-84 67l-85 -67h-100zM527 818l42 29q21 14 29 24.5t8 20.5q0 24 -31 24q-13 0 -29.5 -4.5t-41.5 -14.5l-50 -21v71l28 12q36 15 63 21.5t52 6.5
q44 0 71 -22t27 -59q0 -24 -13 -43t-41 -38l-11 -7h-103z" />
    <glyph glyph-name="uni1EA9" unicode="&#x1ea9;" horiz-adv-x="572" 
d="M195 -10q-73 0 -116.5 40t-43.5 107q0 73 48 111.5t155 51.5l149 19v3q0 52 -19.5 75.5t-62.5 23.5q-26 0 -62.5 -11t-102.5 -39l-58 -24v106l36 15q66 28 115.5 41t92.5 13q88 0 133 -48t45 -140v-334h-115v79l-3 -3q-56 -46 -100 -66t-91 -20zM155 150q0 -29 18 -46
t48 -17q32 0 67.5 17t87.5 57l11 9v76l-132 -21q-55 -9 -77.5 -26t-22.5 -49zM101 570l130 157h101l131 -157h-96l-85 84l-85 -84h-96zM425 690l39 31q19 14 25.5 23.5t6.5 19.5q0 25 -29 25q-21 0 -63 -19l-44 -21v71l23 11q61 27 104 27q44 0 70 -22t26 -60q0 -41 -47 -77
l-12 -9h-99z" />
    <glyph glyph-name="uni1EAA" unicode="&#x1eaa;" horiz-adv-x="735" 
d="M8 0l291 680h137l291 -680h-132l-71 171h-318l-71 -171h-127zM247 271h235l-119 283zM183 725l134 136h101l134 -136h-100l-84 67l-85 -67h-100zM178 894l11 35q15 50 37.5 73t57.5 23q17 0 33.5 -5.5t45.5 -19.5l41 -20q23 -11 35 -11t19 7.5t14 26.5l6 19h79l-11 -35
q-15 -51 -37 -73.5t-58 -22.5q-17 0 -34 5t-45 20l-41 20q-21 11 -33 11q-24 0 -35 -34l-6 -19h-79z" />
    <glyph glyph-name="uni1EAB" unicode="&#x1eab;" horiz-adv-x="572" 
d="M195 -10q-73 0 -116.5 40t-43.5 107q0 73 48 111.5t155 51.5l149 19v3q0 52 -19.5 75.5t-62.5 23.5q-26 0 -62.5 -11t-102.5 -39l-58 -24v106l36 15q66 28 115.5 41t92.5 13q88 0 133 -48t45 -140v-334h-115v79l-3 -3q-56 -46 -100 -66t-91 -20zM155 150q0 -29 18 -46
t48 -17q32 0 67.5 17t87.5 57l11 9v76l-132 -21q-55 -9 -77.5 -26t-22.5 -49zM101 570l130 157h101l131 -157h-96l-85 84l-85 -84h-96zM358 770q-17 0 -34 5.5t-41 19.5l-34 19q-23 13 -34 13q-22 0 -33 -35l-6 -19h-78l11 36q15 51 38 74t59 23q16 0 33.5 -5t41.5 -19
l34 -19q22 -13 34 -13t19 7.5t14 27.5l6 18h78l-11 -35q-16 -52 -38.5 -75t-58.5 -23z" />
    <glyph glyph-name="uni1EAC" unicode="&#x1eac;" horiz-adv-x="735" 
d="M8 0l291 680h137l291 -680h-132l-71 171h-318l-71 -171h-127zM247 271h235l-119 283zM301 -193v122h134v-122h-134zM181 725l135 145h103l135 -145h-101l-85 73l-86 -73h-101z" />
    <glyph glyph-name="uni1EAD" unicode="&#x1ead;" horiz-adv-x="572" 
d="M195 -10q-73 0 -116.5 40t-43.5 107q0 73 48 111.5t155 51.5l149 19v3q0 52 -19.5 75.5t-62.5 23.5q-26 0 -62.5 -11t-102.5 -39l-58 -24v106l36 15q66 28 115.5 41t92.5 13q88 0 133 -48t45 -140v-334h-115v79l-3 -3q-56 -46 -100 -66t-91 -20zM155 150q0 -29 18 -46
t48 -17q32 0 67.5 17t87.5 57l11 9v76l-132 -21q-55 -9 -77.5 -26t-22.5 -49zM211 -195v126h136v-126h-136zM97 580l133 175h103l133 -175h-98l-86 95l-87 -95h-98z" />
    <glyph glyph-name="uni1EAE" unicode="&#x1eae;" horiz-adv-x="735" 
d="M8 0l291 680h137l291 -680h-132l-71 171h-318l-71 -171h-127zM247 271h235l-119 283zM368 721q-134 0 -172 111l-8 21h88l4 -10q9 -21 31 -33t57 -12t57 12t31 33l4 10h88l-8 -21q-38 -111 -172 -111zM298 886l117 136h128l-139 -136h-106z" />
    <glyph glyph-name="uni1EAF" unicode="&#x1eaf;" horiz-adv-x="572" 
d="M195 -10q-73 0 -116.5 40t-43.5 107q0 73 48 111.5t155 51.5l149 19v3q0 52 -19.5 75.5t-62.5 23.5q-26 0 -62.5 -11t-102.5 -39l-58 -24v106l36 15q66 28 115.5 41t92.5 13q88 0 133 -48t45 -140v-334h-115v79l-3 -3q-56 -46 -100 -66t-91 -20zM155 150q0 -29 18 -46
t48 -17q32 0 67.5 17t87.5 57l11 9v76l-132 -21q-55 -9 -77.5 -26t-22.5 -49zM282 570q-127 0 -164 125l-7 25h87l4 -15q18 -57 80 -57q32 0 52.5 13.5t27.5 43.5l4 15h87l-7 -25q-37 -125 -164 -125zM208 757l113 157h122l-134 -157h-101z" />
    <glyph glyph-name="uni1EB0" unicode="&#x1eb0;" horiz-adv-x="735" 
d="M8 0l291 680h137l291 -680h-132l-71 171h-318l-71 -171h-127zM247 271h235l-119 283zM368 721q-134 0 -172 111l-8 21h88l4 -10q9 -21 31 -33t57 -12t57 12t31 33l4 10h88l-8 -21q-38 -111 -172 -111zM332 886l-139 136h128l117 -136h-106z" />
    <glyph glyph-name="uni1EB1" unicode="&#x1eb1;" horiz-adv-x="572" 
d="M195 -10q-73 0 -116.5 40t-43.5 107q0 73 48 111.5t155 51.5l149 19v3q0 52 -19.5 75.5t-62.5 23.5q-26 0 -62.5 -11t-102.5 -39l-58 -24v106l36 15q66 28 115.5 41t92.5 13q88 0 133 -48t45 -140v-334h-115v79l-3 -3q-56 -46 -100 -66t-91 -20zM155 150q0 -29 18 -46
t48 -17q32 0 67.5 17t87.5 57l11 9v76l-132 -21q-55 -9 -77.5 -26t-22.5 -49zM282 570q-127 0 -164 125l-7 25h87l4 -15q18 -57 80 -57q32 0 52.5 13.5t27.5 43.5l4 15h87l-7 -25q-37 -125 -164 -125zM256 757l-135 157h122l113 -157h-100z" />
    <glyph glyph-name="uni1EB2" unicode="&#x1eb2;" horiz-adv-x="735" 
d="M8 0l291 680h137l291 -680h-132l-71 171h-318l-71 -171h-127zM247 271h235l-119 283zM368 721q-134 0 -172 111l-8 21h88l4 -10q9 -21 31 -33t57 -12t57 12t31 33l4 10h88l-8 -21q-38 -111 -172 -111zM331 880l42 29q21 14 29 24.5t8 20.5q0 24 -31 24q-13 0 -29.5 -4.5
t-41.5 -14.5l-50 -21v71l28 12q36 15 63 21.5t52 6.5q44 0 71 -22t27 -59q0 -24 -13 -43t-41 -38l-11 -7h-103z" />
    <glyph glyph-name="uni1EB3" unicode="&#x1eb3;" horiz-adv-x="572" 
d="M195 -10q-73 0 -116.5 40t-43.5 107q0 73 48 111.5t155 51.5l149 19v3q0 52 -19.5 75.5t-62.5 23.5q-26 0 -62.5 -11t-102.5 -39l-58 -24v106l36 15q66 28 115.5 41t92.5 13q88 0 133 -48t45 -140v-334h-115v79l-3 -3q-56 -46 -100 -66t-91 -20zM155 150q0 -29 18 -46
t48 -17q32 0 67.5 17t87.5 57l11 9v76l-132 -21q-55 -9 -77.5 -26t-22.5 -49zM282 570q-127 0 -164 125l-7 25h87l4 -15q18 -57 80 -57q32 0 52.5 13.5t27.5 43.5l4 15h87l-7 -25q-37 -125 -164 -125zM238 757l39 31q19 14 25.5 23.5t6.5 19.5q0 25 -29 25q-21 0 -63 -19
l-44 -21v71l23 11q61 27 104 27q44 0 70 -22t26 -60q0 -41 -47 -77l-12 -9h-99z" />
    <glyph glyph-name="uni1EB4" unicode="&#x1eb4;" horiz-adv-x="735" 
d="M8 0l291 680h137l291 -680h-132l-71 171h-318l-71 -171h-127zM247 271h235l-119 283zM368 721q-134 0 -172 111l-8 21h88l4 -10q9 -21 31 -33t57 -12t57 12t31 33l4 10h88l-8 -21q-38 -111 -172 -111zM178 886l11 35q15 50 37.5 73t57.5 23q17 0 33.5 -5.5t45.5 -19.5
l41 -20q23 -11 35 -11t19 7.5t14 26.5l6 19h79l-11 -35q-15 -51 -37 -73.5t-58 -22.5q-17 0 -34 5t-45 20l-41 20q-21 11 -33 11q-24 0 -35 -34l-6 -19h-79z" />
    <glyph glyph-name="uni1EB5" unicode="&#x1eb5;" horiz-adv-x="572" 
d="M195 -10q-73 0 -116.5 40t-43.5 107q0 73 48 111.5t155 51.5l149 19v3q0 52 -19.5 75.5t-62.5 23.5q-26 0 -62.5 -11t-102.5 -39l-58 -24v106l36 15q66 28 115.5 41t92.5 13q88 0 133 -48t45 -140v-334h-115v79l-3 -3q-56 -46 -100 -66t-91 -20zM155 150q0 -29 18 -46
t48 -17q32 0 67.5 17t87.5 57l11 9v76l-132 -21q-55 -9 -77.5 -26t-22.5 -49zM282 570q-127 0 -164 125l-7 25h87l4 -15q18 -57 80 -57q32 0 52.5 13.5t27.5 43.5l4 15h87l-7 -25q-37 -125 -164 -125zM358 764q-17 0 -34 5.5t-41 19.5l-34 19q-23 13 -34 13q-22 0 -33 -35
l-6 -19h-78l11 36q15 51 38 74t59 23q16 0 33.5 -5t41.5 -19l34 -19q22 -13 34 -13t19 7.5t14 27.5l6 18h78l-11 -35q-16 -52 -38.5 -75t-58.5 -23z" />
    <glyph glyph-name="uni1EB6" unicode="&#x1eb6;" horiz-adv-x="735" 
d="M8 0l291 680h137l291 -680h-132l-71 171h-318l-71 -171h-127zM247 271h235l-119 283zM301 -193v122h134v-122h-134zM368 721q-137 0 -174 118l-8 23h89l4 -11q19 -49 89 -49t89 49l4 11h89l-8 -23q-37 -118 -174 -118z" />
    <glyph glyph-name="uni1EB7" unicode="&#x1eb7;" horiz-adv-x="572" 
d="M195 -10q-73 0 -116.5 40t-43.5 107q0 73 48 111.5t155 51.5l149 19v3q0 52 -19.5 75.5t-62.5 23.5q-26 0 -62.5 -11t-102.5 -39l-58 -24v106l36 15q66 28 115.5 41t92.5 13q88 0 133 -48t45 -140v-334h-115v79l-3 -3q-56 -46 -100 -66t-91 -20zM155 150q0 -29 18 -46
t48 -17q32 0 67.5 17t87.5 57l11 9v76l-132 -21q-55 -9 -77.5 -26t-22.5 -49zM211 -195v126h136v-126h-136zM282 580q-66 0 -106.5 35t-60.5 108l-8 27h89l5 -16q10 -37 29.5 -53.5t51.5 -16.5t51.5 16.5t29.5 53.5l5 16h89l-8 -27q-20 -73 -60.5 -108t-106.5 -35z" />
    <glyph glyph-name="uni1EB8" unicode="&#x1eb8;" horiz-adv-x="646" 
d="M85 0v680h506v-103h-383v-186h368v-101h-368v-187h383v-103h-506zM274 -193v122h134v-122h-134z" />
    <glyph glyph-name="uni1EB9" unicode="&#x1eb9;" horiz-adv-x="585" 
d="M279 -10q-72 0 -125.5 30.5t-82.5 86.5t-29 130v26q0 77 32 135.5t89.5 91t133.5 32.5q75 0 130 -29t85 -82.5t30 -126.5v-63h-380q4 -62 39 -96.5t95 -34.5q37 0 75.5 11.5t91.5 36.5l62 29v-106l-35 -15q-57 -29 -107 -42.5t-104 -13.5zM294 427q-56 0 -89.5 -33
t-41.5 -94h260q-4 61 -37.5 94t-91.5 33zM223 -195v126h136v-126h-136z" />
    <glyph glyph-name="uni1EBA" unicode="&#x1eba;" horiz-adv-x="646" 
d="M85 0v680h506v-103h-383v-186h368v-101h-368v-187h383v-103h-506zM304 719l42 32q21 15 29 25.5t8 20.5q0 26 -30 26q-14 0 -30.5 -4.5t-42.5 -15.5l-49 -21v73l27 12q36 15 63 21.5t51 6.5q47 0 74 -23.5t27 -60.5q0 -47 -54 -84l-11 -8h-104z" />
    <glyph glyph-name="uni1EBB" unicode="&#x1ebb;" horiz-adv-x="585" 
d="M279 -10q-72 0 -125.5 30.5t-82.5 86.5t-29 130v26q0 77 32 135.5t89.5 91t133.5 32.5q75 0 130 -29t85 -82.5t30 -126.5v-63h-380q4 -62 39 -96.5t95 -34.5q37 0 75.5 11.5t91.5 36.5l62 29v-106l-35 -15q-57 -29 -107 -42.5t-104 -13.5zM294 427q-56 0 -89.5 -33
t-41.5 -94h260q-4 61 -37.5 94t-91.5 33zM260 580l42 35q31 25 31 46q0 26 -30 26q-12 0 -25.5 -4t-39.5 -16l-46 -20v72l25 12q32 15 57 21.5t48 6.5q46 0 73.5 -23.5t27.5 -63.5q0 -45 -49 -82l-12 -10h-102z" />
    <glyph glyph-name="uni1EBC" unicode="&#x1ebc;" horiz-adv-x="646" 
d="M85 0v680h506v-103h-383v-186h368v-101h-368v-187h383v-103h-506zM423 722q-33 0 -80 26l-41 22q-21 12 -34 12t-21 -8.5t-15 -28.5l-6 -20h-80l11 36q15 54 37.5 78t59.5 24q32 0 80 -26l40 -22q13 -7 20.5 -9.5t14.5 -2.5q12 0 20.5 8.5t14.5 28.5l6 20h80l-10 -36
q-16 -55 -38.5 -78.5t-58.5 -23.5z" />
    <glyph glyph-name="uni1EBD" unicode="&#x1ebd;" horiz-adv-x="585" 
d="M279 -10q-72 0 -125.5 30.5t-82.5 86.5t-29 130v26q0 77 32 135.5t89.5 91t133.5 32.5q75 0 130 -29t85 -82.5t30 -126.5v-63h-380q4 -62 39 -96.5t95 -34.5q37 0 75.5 11.5t91.5 36.5l62 29v-106l-35 -15q-57 -29 -107 -42.5t-104 -13.5zM294 427q-56 0 -89.5 -33
t-41.5 -94h260q-4 61 -37.5 94t-91.5 33zM379 587q-32 0 -78 28l-34 21q-22 15 -35 15t-20 -8.5t-14 -31.5l-6 -21h-79l11 39q15 56 38.5 81t59.5 25q17 0 34.5 -6t43.5 -22l34 -21q22 -14 35 -14t20 8.5t14 31.5l6 20h79l-11 -39q-15 -56 -38.5 -81t-59.5 -25z" />
    <glyph glyph-name="uni1EBE" unicode="&#x1ebe;" horiz-adv-x="646" 
d="M85 0v680h506v-103h-383v-186h368v-101h-368v-187h383v-103h-506zM159 725l134 136h101l134 -136h-100l-84 67l-85 -67h-100zM470 824l117 136h128l-139 -136h-106z" />
    <glyph glyph-name="uni1EBF" unicode="&#x1ebf;" horiz-adv-x="585" 
d="M279 -10q-72 0 -125.5 30.5t-82.5 86.5t-29 130v26q0 77 32 135.5t89.5 91t133.5 32.5q75 0 130 -29t85 -82.5t30 -126.5v-63h-380q4 -62 39 -96.5t95 -34.5q37 0 75.5 11.5t91.5 36.5l62 29v-106l-35 -15q-57 -29 -107 -42.5t-104 -13.5zM294 427q-56 0 -89.5 -33
t-41.5 -94h260q-4 61 -37.5 94t-91.5 33zM120 570l130 157h101l131 -157h-96l-85 84l-85 -84h-96zM420 683l113 157h122l-134 -157h-101z" />
    <glyph glyph-name="uni1EC0" unicode="&#x1ec0;" horiz-adv-x="646" 
d="M85 0v680h506v-103h-383v-186h368v-101h-368v-187h383v-103h-506zM159 725l134 136h101l134 -136h-100l-84 67l-85 -67h-100zM504 824l-139 136h128l117 -136h-106z" />
    <glyph glyph-name="uni1EC1" unicode="&#x1ec1;" horiz-adv-x="585" 
d="M279 -10q-72 0 -125.5 30.5t-82.5 86.5t-29 130v26q0 77 32 135.5t89.5 91t133.5 32.5q75 0 130 -29t85 -82.5t30 -126.5v-63h-380q4 -62 39 -96.5t95 -34.5q37 0 75.5 11.5t91.5 36.5l62 29v-106l-35 -15q-57 -29 -107 -42.5t-104 -13.5zM294 427q-56 0 -89.5 -33
t-41.5 -94h260q-4 61 -37.5 94t-91.5 33zM120 570l130 157h101l131 -157h-96l-85 84l-85 -84h-96zM468 683l-135 157h122l113 -157h-100z" />
    <glyph glyph-name="uni1EC2" unicode="&#x1ec2;" horiz-adv-x="646" 
d="M85 0v680h506v-103h-383v-186h368v-101h-368v-187h383v-103h-506zM159 725l134 136h101l134 -136h-100l-84 67l-85 -67h-100zM503 818l42 29q21 14 29 24.5t8 20.5q0 24 -31 24q-13 0 -29.5 -4.5t-41.5 -14.5l-50 -21v71l28 12q36 15 63 21.5t52 6.5q44 0 71 -22t27 -59
q0 -24 -13 -43t-41 -38l-11 -7h-103z" />
    <glyph glyph-name="uni1EC3" unicode="&#x1ec3;" horiz-adv-x="585" 
d="M279 -10q-72 0 -125.5 30.5t-82.5 86.5t-29 130v26q0 77 32 135.5t89.5 91t133.5 32.5q75 0 130 -29t85 -82.5t30 -126.5v-63h-380q4 -62 39 -96.5t95 -34.5q37 0 75.5 11.5t91.5 36.5l62 29v-106l-35 -15q-57 -29 -107 -42.5t-104 -13.5zM294 427q-56 0 -89.5 -33
t-41.5 -94h260q-4 61 -37.5 94t-91.5 33zM120 570l130 157h101l131 -157h-96l-85 84l-85 -84h-96zM450 683l39 31q19 14 25.5 23.5t6.5 19.5q0 25 -29 25q-21 0 -63 -19l-44 -21v71l23 11q61 27 104 27q44 0 70 -22t26 -60q0 -41 -47 -77l-12 -9h-99z" />
    <glyph glyph-name="uni1EC4" unicode="&#x1ec4;" horiz-adv-x="646" 
d="M85 0v680h506v-103h-383v-186h368v-101h-368v-187h383v-103h-506zM159 725l134 136h101l134 -136h-100l-84 67l-85 -67h-100zM154 894l11 35q15 50 37.5 73t57.5 23q17 0 33.5 -5.5t45.5 -19.5l41 -20q23 -11 35 -11t19 7.5t14 26.5l6 19h79l-11 -35q-15 -51 -37 -73.5
t-58 -22.5q-17 0 -34 5t-45 20l-41 20q-21 11 -33 11q-24 0 -35 -34l-6 -19h-79z" />
    <glyph glyph-name="uni1EC5" unicode="&#x1ec5;" horiz-adv-x="585" 
d="M279 -10q-72 0 -125.5 30.5t-82.5 86.5t-29 130v26q0 77 32 135.5t89.5 91t133.5 32.5q75 0 130 -29t85 -82.5t30 -126.5v-63h-380q4 -62 39 -96.5t95 -34.5q37 0 75.5 11.5t91.5 36.5l62 29v-106l-35 -15q-57 -29 -107 -42.5t-104 -13.5zM294 427q-56 0 -89.5 -33
t-41.5 -94h260q-4 61 -37.5 94t-91.5 33zM120 570l130 157h101l131 -157h-96l-85 84l-85 -84h-96zM377 770q-17 0 -34 5.5t-41 19.5l-34 19q-23 13 -34 13q-22 0 -33 -35l-6 -19h-78l11 36q15 51 38 74t59 23q16 0 33.5 -5t41.5 -19l34 -19q22 -13 34 -13t19 7.5t14 27.5
l6 18h78l-11 -35q-16 -52 -38.5 -75t-58.5 -23z" />
    <glyph glyph-name="uni1EC6" unicode="&#x1ec6;" horiz-adv-x="646" 
d="M85 0v680h506v-103h-383v-186h368v-101h-368v-187h383v-103h-506zM274 -193v122h134v-122h-134zM157 725l135 145h103l135 -145h-101l-85 73l-86 -73h-101z" />
    <glyph glyph-name="uni1EC7" unicode="&#x1ec7;" horiz-adv-x="585" 
d="M279 -10q-72 0 -125.5 30.5t-82.5 86.5t-29 130v26q0 77 32 135.5t89.5 91t133.5 32.5q75 0 130 -29t85 -82.5t30 -126.5v-63h-380q4 -62 39 -96.5t95 -34.5q37 0 75.5 11.5t91.5 36.5l62 29v-106l-35 -15q-57 -29 -107 -42.5t-104 -13.5zM294 427q-56 0 -89.5 -33
t-41.5 -94h260q-4 61 -37.5 94t-91.5 33zM223 -195v126h136v-126h-136zM116 580l133 175h103l133 -175h-98l-86 95l-87 -95h-98z" />
    <glyph glyph-name="uni1EC8" unicode="&#x1ec8;" horiz-adv-x="295" 
d="M85 0v680h125v-680h-125zM107 719l42 32q21 15 29 25.5t8 20.5q0 26 -30 26q-14 0 -30.5 -4.5t-42.5 -15.5l-49 -21v73l27 12q36 15 63 21.5t51 6.5q47 0 74 -23.5t27 -60.5q0 -47 -54 -84l-11 -8h-104z" />
    <glyph glyph-name="uni1EC9" unicode="&#x1ec9;" horiz-adv-x="267" 
d="M72 0v512h121v-512h-121zM93 580l42 35q31 25 31 46q0 26 -30 26q-12 0 -25.5 -4t-39.5 -16l-46 -20v72l25 12q32 15 57 21.5t48 6.5q46 0 73.5 -23.5t27.5 -63.5q0 -45 -49 -82l-12 -10h-102z" />
    <glyph glyph-name="uni1ECA" unicode="&#x1eca;" horiz-adv-x="295" 
d="M85 0v680h125v-680h-125zM80 -193v122h134v-122h-134z" />
    <glyph glyph-name="uni1ECB" unicode="&#x1ecb;" horiz-adv-x="268" 
d="M65 599v129h137v-129h-137zM73 0v512h121v-512h-121zM67 -195v126h136v-126h-136z" />
    <glyph glyph-name="uni1ECC" unicode="&#x1ecc;" horiz-adv-x="796" 
d="M398 -15q-105 0 -184.5 43t-123.5 119.5t-44 178.5v28q0 102 44 178.5t123.5 119.5t184.5 43t184.5 -43t123.5 -119.5t44 -178.5v-28q0 -102 -44 -178.5t-123.5 -119.5t-184.5 -43zM398 89q103 0 162.5 65.5t59.5 177.5v16q0 112 -59.5 177.5t-162.5 65.5t-162.5 -65.5
t-59.5 -177.5v-16q0 -112 59.5 -177.5t162.5 -65.5zM331 -193v122h134v-122h-134z" />
    <glyph glyph-name="uni1ECD" unicode="&#x1ecd;" horiz-adv-x="619" 
d="M310 -10q-82 0 -142.5 31t-93 87.5t-32.5 134.5v26q0 77 32.5 134t93 88t142.5 31t142 -31t93 -88t33 -134v-26q0 -78 -33 -134.5t-93 -87.5t-142 -31zM310 89q68 0 106 41t38 115v22q0 73 -38 114.5t-106 41.5q-69 0 -106.5 -41.5t-37.5 -114.5v-22q0 -74 37.5 -115
t106.5 -41zM243 -195v126h136v-126h-136z" />
    <glyph glyph-name="uni1ECE" unicode="&#x1ece;" horiz-adv-x="796" 
d="M398 -15q-105 0 -184.5 43t-123.5 119.5t-44 178.5v28q0 102 44 178.5t123.5 119.5t184.5 43t184.5 -43t123.5 -119.5t44 -178.5v-28q0 -102 -44 -178.5t-123.5 -119.5t-184.5 -43zM398 89q103 0 162.5 65.5t59.5 177.5v16q0 112 -59.5 177.5t-162.5 65.5t-162.5 -65.5
t-59.5 -177.5v-16q0 -112 59.5 -177.5t162.5 -65.5zM358 719l42 32q21 15 29 25.5t8 20.5q0 26 -30 26q-14 0 -30.5 -4.5t-42.5 -15.5l-49 -21v73l27 12q36 15 63 21.5t51 6.5q47 0 74 -23.5t27 -60.5q0 -47 -54 -84l-11 -8h-104z" />
    <glyph glyph-name="uni1ECF" unicode="&#x1ecf;" horiz-adv-x="619" 
d="M310 -10q-82 0 -142.5 31t-93 87.5t-32.5 134.5v26q0 77 32.5 134t93 88t142.5 31t142 -31t93 -88t33 -134v-26q0 -78 -33 -134.5t-93 -87.5t-142 -31zM310 89q68 0 106 41t38 115v22q0 73 -38 114.5t-106 41.5q-69 0 -106.5 -41.5t-37.5 -114.5v-22q0 -74 37.5 -115
t106.5 -41zM269 580l42 35q31 25 31 46q0 26 -30 26q-12 0 -25.5 -4t-39.5 -16l-46 -20v72l25 12q32 15 57 21.5t48 6.5q46 0 73.5 -23.5t27.5 -63.5q0 -45 -49 -82l-12 -10h-102z" />
    <glyph glyph-name="uni1ED0" unicode="&#x1ed0;" horiz-adv-x="796" 
d="M398 -15q-105 0 -184.5 43t-123.5 119.5t-44 178.5v28q0 102 44 178.5t123.5 119.5t184.5 43t184.5 -43t123.5 -119.5t44 -178.5v-28q0 -102 -44 -178.5t-123.5 -119.5t-184.5 -43zM398 89q103 0 162.5 65.5t59.5 177.5v16q0 112 -59.5 177.5t-162.5 65.5t-162.5 -65.5
t-59.5 -177.5v-16q0 -112 59.5 -177.5t162.5 -65.5zM213 725l134 136h101l134 -136h-100l-84 67l-85 -67h-100zM524 824l117 136h128l-139 -136h-106z" />
    </font>
</defs>
</svg>
