<?xml version="1.0" standalone="no"?>
<!DOCTYPE svg PUBLIC "-//W3C//DTD SVG 1.1//EN" "http://www.w3.org/Graphics/SVG/1.1/DTD/svg11.dtd" >
<svg xmlns="http://www.w3.org/2000/svg" xmlns:xlink="http://www.w3.org/1999/xlink" version="1.1">
<metadata>
Created by FontForge 20201107 at Thu Aug 21 18:08:39 2025
 By 
Copyright (c) 2015 by Letters from Sweden &#38; Stockholm Design Lab. All rights reserved.
</metadata>
<defs>
<font id="LabGrotesque-Medium" horiz-adv-x="0" >
  <font-face 
    font-family="Lab Grotesque Medium"
    font-weight="500"
    font-stretch="normal"
    units-per-em="2048"
    panose-1="0 0 0 0 0 0 0 0 0 0"
    ascent="1536"
    descent="-512"
    x-height="1028"
    cap-height="1454"
    bbox="-334 -526 3568 2105"
    underline-thickness="155"
    underline-position="-388"
    unicode-range="U+0020-FB02"
  />
<missing-glyph horiz-adv-x="1185" 
d="M981 1659v-1864h-776v1864h776z" />
    <glyph glyph-name="fi" unicode="fi" horiz-adv-x="1191" 
d="M219 1151q0 162 79.5 245t233.5 83q84 0 175 -25l-29 -174q-56 10 -98 10q-77 0 -106.5 -34.5t-29.5 -120.5v-107h240v-170h-240v-858h-225v858h-182v170h182v123zM840 0v1028h225v-1028h-225zM840 1206v232h225v-232h-225z" />
    <glyph glyph-name="fl" unicode="fl" horiz-adv-x="1196" 
d="M1065 1454v-1454h-225v1454h225zM37 858v170h182v123q0 162 79.5 245t233.5 83q84 0 175 -25l-29 -174q-56 10 -98 10q-77 0 -106.5 -34.5t-29.5 -120.5v-107h240v-170h-240v-858h-225v858h-182z" />
    <glyph glyph-name="f_f.liga" unicode="ff" horiz-adv-x="1406" 
d="M903 1163q0 160 83 243t239 83q110 0 215 -37l-43 -168q-77 19 -129 19q-73 0 -106.5 -36.5t-33.5 -121.5v-117h242v-170h-242v-858h-225v858h-166v170h166v135zM37 858v170h182v135q0 160 83 243t241 83q110 0 213 -37l-41 -168q-80 19 -131 19q-73 0 -106.5 -36.5
t-33.5 -121.5v-117h199v-170h-199v-858h-225v858h-182z" />
    <glyph glyph-name="f_f_i.liga" unicode="ffi" horiz-adv-x="1873" 
d="M219 1151q0 162 83 245t241 83q110 0 213 -37l-41 -170q-74 20 -131 20q-73 0 -106.5 -36t-33.5 -121v-107h199v-170h-199v-858h-225v858h-182v170h182v123zM737 858v170h166v123q0 162 79 245t232 83q86 0 177 -25l-29 -174q-56 10 -100 10q-76 0 -105 -34.5t-29 -120.5
v-107h238v-170h-238v-858h-225v858h-166zM1524 0v1028h225v-1028h-225zM1524 1206v232h225v-232h-225z" />
    <glyph glyph-name="f_f_j.liga" unicode="ffj" horiz-adv-x="1873" 
d="M219 1151q0 162 83 245t241 83q110 0 213 -37l-41 -170q-74 20 -131 20q-73 0 -106.5 -36t-33.5 -121v-107h199v-170h-199v-858h-225v858h-182v170h182v123zM737 858v170h166v123q0 162 79 245t232 83q86 0 177 -25l-29 -174q-56 10 -100 10q-76 0 -105 -34.5t-29 -120.5
v-107h238v-170h-238v-858h-225v858h-166zM1235 -360l41 170q81 -19 127 -19q65 0 93 36t28 114v1087h225v-1083q0 -336 -307 -336q-109 0 -207 31zM1524 1206v232h225v-232h-225z" />
    <glyph glyph-name="f_j.liga" unicode="fj" horiz-adv-x="1191" 
d="M219 1151q0 162 79.5 245t233.5 83q84 0 175 -25l-29 -174q-56 10 -98 10q-77 0 -106.5 -34.5t-29.5 -120.5v-107h240v-170h-240v-858h-225v858h-182v170h182v123zM551 -362l43 169q68 -16 127 -16q64 0 91.5 35.5t27.5 114.5v1087h225v-1085q0 -336 -307 -336
q-98 0 -207 31zM840 1206v232h225v-232h-225z" />
    <glyph glyph-name=".notdef" horiz-adv-x="1185" 
d="M981 1659v-1864h-776v1864h776z" />
    <glyph glyph-name=".null" 
 />
    <glyph glyph-name="nonmarkingreturn" horiz-adv-x="682" 
 />
    <glyph glyph-name="space" unicode=" " horiz-adv-x="456" 
 />
    <glyph glyph-name="exclam" unicode="!" horiz-adv-x="587" 
d="M426 1454v-438l-53 -578h-137l-54 578v438h244zM176 0v262h254v-262h-254z" />
    <glyph glyph-name="quotedbl" unicode="&#x22;" horiz-adv-x="839" 
d="M326 1454l-21 -526h-174l-22 526h217zM512 1454h217l-20 -526h-174z" />
    <glyph glyph-name="numbersign" unicode="#" horiz-adv-x="1208" 
d="M324 0h-172l75 362h-188l33 152h188l78 369h-188l34 151h187l75 359h172l-75 -359h293l75 359h172l-75 -359h186l-35 -151h-184l-78 -369h184l-32 -152h-185l-76 -362h-172l76 362h-293zM432 514h293l78 369h-293z" />
    <glyph glyph-name="dollar" unicode="$" horiz-adv-x="1290" 
d="M569 1597h164v-174q122 -13 222 -62t206 -144l-143 -152q-83 75 -149.5 111t-135.5 47v-418q237 -66 335.5 -156.5t98.5 -253.5q0 -173 -118 -289t-316 -135v-176h-164v176q-137 12 -251.5 69t-243.5 175l145 152q105 -97 185 -140.5t165 -54.5v459q-243 71 -335.5 156.5
t-92.5 240.5q0 157 120 266.5t308 128.5v174zM362 1032q0 -70 48.5 -109.5t158.5 -72.5v375q-98 -15 -152.5 -67.5t-54.5 -125.5zM733 172q95 14 152 70.5t57 142.5q0 80 -51 123t-158 78v-414z" />
    <glyph glyph-name="percent" unicode="%" horiz-adv-x="1783" 
d="M1313 1425l133 -84l-967 -1374l-131 86zM109 1081q0 146 94 240t235 94t236.5 -94t95.5 -240q0 -149 -95 -242.5t-237 -93.5q-141 0 -235 93.5t-94 242.5zM270 1081q0 -86 45.5 -140t122.5 -54q78 0 124 54t46 140q0 84 -46 138.5t-124 54.5q-76 0 -122 -54.5t-46 -138.5
zM1014 315q0 146 94 240t235 94t236.5 -94t95.5 -240q0 -148 -95 -241.5t-237 -93.5t-235.5 93t-93.5 242zM1176 315q0 -86 45 -140t122 -54q78 0 124 54t46 140q0 84 -46 138.5t-124 54.5q-76 0 -121.5 -54.5t-45.5 -138.5z" />
    <glyph glyph-name="ampersand" unicode="&#x26;" horiz-adv-x="1456" 
d="M690 1485q165 0 271 -90.5t106 -225.5q0 -119 -63.5 -203t-227.5 -182l250 -290l201 249l157 -120l-227 -281l293 -342h-274l-156 180q-100 -105 -208 -158t-255 -53q-207 0 -338 110.5t-131 282.5q0 147 87.5 252t287.5 220q-72 86 -111 161t-39 158q0 147 108.5 239.5
t268.5 92.5zM315 379q0 -98 69.5 -159.5t186.5 -61.5q92 0 166.5 43t153.5 131l-309 362q-148 -90 -207.5 -157t-59.5 -158zM524 1157q1 -53 33.5 -105t97.5 -128q119 67 161 120t42 125q0 64 -47.5 106t-118.5 42t-119.5 -44.5t-48.5 -115.5z" />
    <glyph glyph-name="quotesingle" unicode="'" horiz-adv-x="434" 
d="M326 1454l-21 -526h-174l-22 526h217z" />
    <glyph glyph-name="parenleft" unicode="(" horiz-adv-x="698" 
d="M692 1491q-116 -150 -186 -274.5t-111 -272.5t-41 -315q0 -243 82 -440t256 -422l-143 -113q-95 103 -165.5 204t-129 221t-89 258.5t-30.5 291.5t30.5 291.5t89 258.5t129 221t165.5 204z" />
    <glyph glyph-name="parenright" unicode=")" horiz-adv-x="698" 
d="M6 -227q116 150 186 274.5t111 272.5t41 315q0 243 -82 440t-256 420l144 115q94 -103 165 -204t129 -221.5t88.5 -259t30.5 -290.5q0 -153 -30.5 -291.5t-88.5 -258.5t-128.5 -221t-165.5 -204z" />
    <glyph glyph-name="asterisk" unicode="*" horiz-adv-x="892" 
d="M518 1454v-264l244 84l43 -129l-250 -82l164 -209l-111 -86l-164 217l-157 -213l-113 86l166 205l-252 82l45 129l238 -84v264h147z" />
    <glyph glyph-name="plus" unicode="+" horiz-adv-x="1228" 
d="M713 1167v-436h434v-192h-434v-437h-197v437h-434v192h434v436h197z" />
    <glyph glyph-name="comma" unicode="," horiz-adv-x="471" 
d="M377 262v-262l-146 -283h-131l129 283h-120v262h268z" />
    <glyph glyph-name="hyphen" unicode="-" horiz-adv-x="835" 
d="M725 694v-202h-616v202h616z" />
    <glyph glyph-name="period" unicode="." horiz-adv-x="471" 
d="M362 262v-262h-253v262h253z" />
    <glyph glyph-name="slash" unicode="/" horiz-adv-x="931" 
d="M895 1454l-635 -1454h-223l635 1454h223z" />
    <glyph glyph-name="zero" unicode="0" horiz-adv-x="1208" 
d="M604 1425q150 0 260 -68t176 -194q97 -192 97 -467t-97 -467q-66 -126 -176 -194t-260 -68t-260 68t-176 194q-96 190 -96 467t96 467q66 126 176 194t260 68zM307 696q0 -229 66 -370q74 -160 231 -160q158 0 232 160q65 139 65 370q0 232 -65 371q-74 160 -232 160
q-157 0 -231 -160q-66 -141 -66 -371z" />
    <glyph glyph-name="one" unicode="1" horiz-adv-x="942" 
d="M664 1393v-1393h-234v1104l-264 -184l-115 159l432 314h181z" />
    <glyph glyph-name="two" unicode="2" horiz-adv-x="1198" 
d="M629 1425q111 0 202 -32t150 -87.5t91 -128t32 -155.5q0 -54 -11.5 -102t-27 -84t-47.5 -73t-57.5 -60.5t-72.5 -55.5t-77 -49.5t-86.5 -50.5t-87.5 -51q-12 -7 -50 -29.5t-50.5 -30.5t-43.5 -28t-43.5 -30.5t-35.5 -29.5t-33.5 -33.5t-25 -34.5t-22 -41t-11.5 -44h780
v-195h-1020v90q0 64 12 120t31 100t51.5 86t63 72t76.5 64t82 57.5t88 55.5q7 4 10 6q30 18 72 42t69.5 40t62 38t57 39.5t46 41.5t37 48t22 54t8.5 64q0 97 -66.5 153t-168.5 56q-106 0 -191.5 -57t-189.5 -187l-170 123q110 157 240.5 238t304.5 81z" />
    <glyph glyph-name="three" unicode="3" horiz-adv-x="1181" 
d="M1038 1393v-191l-411 -362q201 0 330.5 -111.5t129.5 -304.5q0 -85 -33 -165t-94 -146t-160.5 -106t-221.5 -40q-142 0 -265 40.5t-262 135.5l113 166q128 -78 217.5 -110.5t189.5 -32.5q130 0 206.5 71t76.5 185q0 115 -81 180.5t-220 65.5q-94 0 -164 -27l-104 141
l473 416h-637v195h917z" />
    <glyph glyph-name="four" unicode="4" horiz-adv-x="1191" 
d="M862 1393l-567 -889h442v297h228v-297h198v-189h-198v-315h-228v315h-684v213l553 865h256z" />
    <glyph glyph-name="five" unicode="5" horiz-adv-x="1193" 
d="M1030 1393v-195h-635l-30 -379q113 84 278 84q203 0 330 -126.5t127 -313.5q0 -212 -143.5 -354t-366.5 -142q-153 0 -268.5 42.5t-268.5 144.5l115 165q134 -86 219 -119.5t186 -33.5q126 0 209.5 79t83.5 199q0 124 -74 195.5t-204 71.5q-148 0 -246 -95l-205 21
l62 756h831z" />
    <glyph glyph-name="six" unicode="6" horiz-adv-x="1206" 
d="M907 1393v-4l-229 -209q-217 -196 -305 -367q111 102 297 102q103 0 191 -37.5t147.5 -101t93 -148.5t33.5 -179q0 -93 -35 -179t-98.5 -154t-163.5 -108.5t-220 -40.5q-244 0 -386 154t-142 405q0 216 109.5 404.5t308.5 376.5l92 86h307zM326 444q0 -121 82 -199.5
t213 -78.5q128 0 205 78t77 200t-76 200.5t-204 78.5q-132 0 -214.5 -79t-82.5 -200z" />
    <glyph glyph-name="seven" unicode="7" horiz-adv-x="1105" 
d="M1067 1221q-195 -237 -346.5 -564t-200.5 -657h-256q42 302 190.5 620.5t344.5 577.5h-752v195h1020v-172z" />
    <glyph glyph-name="eight" unicode="8" horiz-adv-x="1202" 
d="M602 -33q-249 0 -392.5 118t-143.5 302q0 128 66.5 223t189.5 146q-90 45 -139.5 123t-49.5 180q0 164 129 266t340 102t339 -102t128 -266q0 -102 -49 -180t-137 -123q121 -52 187.5 -146.5t66.5 -222.5q0 -184 -143 -302t-392 -118zM301 403q0 -105 80.5 -175
t220.5 -70t219.5 69.5t79.5 175.5q0 112 -79 184t-220 72t-221 -72t-80 -184zM356 1047q0 -92 67.5 -149.5t178.5 -57.5q110 0 178 58t68 149q0 89 -66.5 144.5t-179.5 55.5t-179.5 -55.5t-66.5 -144.5z" />
    <glyph glyph-name="nine" unicode="9" horiz-adv-x="1206" 
d="M299 0v4l229 209q211 190 301 365q-112 -101 -292 -101q-137 0 -244.5 64.5t-164 170t-56.5 232.5q0 93 34.5 179t98 153.5t163.5 108t220 40.5q243 0 384.5 -154t141.5 -405q0 -112 -30.5 -218.5t-89.5 -203.5t-130.5 -182t-167.5 -176l-92 -86h-305zM303 948
q0 -122 76 -200t203 -78q132 0 214.5 78.5t82.5 199.5t-82 200t-211 79q-128 0 -205.5 -78.5t-77.5 -200.5z" />
    <glyph glyph-name="colon" unicode=":" horiz-adv-x="552" 
d="M403 262v-262h-253v262h253zM150 766v262h253v-262h-253z" />
    <glyph glyph-name="semicolon" unicode=";" horiz-adv-x="552" 
d="M426 262v-262l-145 -283h-131l129 283h-121v262h268zM162 766v262h254v-262h-254z" />
    <glyph glyph-name="less" unicode="&#x3c;" horiz-adv-x="1228" 
d="M1106 1094v-201l-729 -258l729 -258v-201l-983 369v180z" />
    <glyph glyph-name="equal" unicode="=" horiz-adv-x="1228" 
d="M1147 526v-192h-1065v192h1065zM82 743v193h1065v-193h-1065z" />
    <glyph glyph-name="greater" unicode="&#x3e;" horiz-adv-x="1228" 
d="M123 1094l983 -369v-180l-983 -369v201l729 258l-729 258v201z" />
    <glyph glyph-name="question" unicode="?" horiz-adv-x="1024" 
d="M541 1487q202 0 329 -102t127 -281q0 -79 -36 -149.5t-74 -108.5t-122 -111q-21 -19 -32 -28q-48 -43 -66 -60.5t-44.5 -48t-37.5 -58t-16 -63.5l-6 -49h-194v57q0 60 5.5 96.5t26 79t59 84t105.5 99.5q11 10 40 33.5t40.5 34.5t34 32t32.5 35.5t22.5 35.5t17 42t4.5 45
q0 81 -60.5 128.5t-160.5 47.5q-86 0 -163 -37t-190 -125l-135 156q122 109 241 162t253 53zM344 0v262h254v-262h-254z" />
    <glyph glyph-name="at" unicode="@" horiz-adv-x="1970" 
d="M1004 1427q192 0 354.5 -59.5t278 -166.5t180.5 -262t65 -341q0 -255 -118 -407t-310 -152q-130 0 -197 52.5t-88 129.5q-55 -86 -140.5 -134t-188.5 -48q-157 0 -238.5 89.5t-81.5 244.5q0 107 34.5 215t95.5 197t154 144.5t200 55.5q97 0 161 -42t86 -114l23 140h182
l-115 -543q-11 -51 -12.5 -91t8.5 -76.5t42.5 -56.5t86.5 -20q105 0 171.5 114t66.5 298q0 132 -34.5 242.5t-97 188.5t-148.5 132.5t-189.5 80.5t-220.5 26q-225 0 -393.5 -99t-256.5 -273t-88 -398q0 -162 49.5 -295t144.5 -229.5t242 -149.5t335 -53h458v-156h-501
q-212 0 -385 64.5t-289 181.5t-179 280.5t-63 360.5q0 269 110.5 479t320 330t485.5 120zM717 385q0 -184 149 -184q65 0 119.5 33t89 83.5t58 112.5t33.5 116.5t10 98.5q0 89 -36 133.5t-118 44.5q-88 0 -160 -69t-108.5 -168.5t-36.5 -200.5z" />
    <glyph glyph-name="A" unicode="A" horiz-adv-x="1419" 
d="M27 0l524 1454h317l525 -1454h-252l-115 328h-641l-113 -328h-245zM455 528h501l-61 179q-153 444 -188 563q-45 -153 -191 -565z" />
    <glyph glyph-name="B" unicode="B" horiz-adv-x="1384" 
d="M827 1454q125 0 221.5 -41t154 -126.5t57.5 -205.5q0 -119 -61 -199.5t-167 -117.5q132 -38 205.5 -127.5t73.5 -226.5q0 -189 -122.5 -299.5t-326.5 -110.5h-704v1454h669zM399 190h379q142 0 216.5 62.5t74.5 173.5q0 109 -76 173.5t-213 64.5h-381v-474zM399 854h373
q119 0 185.5 56t66.5 155q0 98 -65 148.5t-187 50.5h-373v-410z" />
    <glyph glyph-name="C" unicode="C" horiz-adv-x="1380" 
d="M795 1487q154 0 276.5 -49t253.5 -162l-141 -168q-113 96 -202 132t-189 36q-215 0 -341 -150t-126 -397q0 -248 125.5 -399.5t332.5 -151.5q116 0 206.5 45.5t213.5 153.5l146 -164q-139 -131 -269 -188.5t-293 -57.5q-216 0 -379 100t-247 272t-84 390
q0 162 48.5 300.5t138 240.5t226 159.5t304.5 57.5z" />
    <glyph glyph-name="D" unicode="D" horiz-adv-x="1458" 
d="M727 1454q154 0 278 -54t206 -150.5t125.5 -230t43.5 -292.5t-43.5 -292.5t-125.5 -230t-206 -150.5t-278 -54h-569v1454h569zM399 205h291q205 0 324 135t119 387t-119 387t-324 135h-291v-1044z" />
    <glyph glyph-name="E" unicode="E" horiz-adv-x="1269" 
d="M1155 1454v-205h-756v-397h705v-203h-705v-444h777v-205h-1018v1454h997z" />
    <glyph glyph-name="F" unicode="F" horiz-adv-x="1232" 
d="M1155 1454v-205h-756v-432h703v-205h-703v-612h-241v1454h997z" />
    <glyph glyph-name="G" unicode="G" horiz-adv-x="1533" 
d="M799 1485q184 0 325 -64t281 -209l-152 -157q-126 120 -227.5 169.5t-230.5 49.5q-212 0 -340.5 -146.5t-128.5 -400.5q0 -257 123.5 -402t338.5 -145q181 0 288.5 97.5t107.5 265.5v39h-439v204h660v-786h-186l-15 160q-131 -191 -434 -191q-162 0 -293.5 56.5
t-218 157.5t-133.5 240.5t-47 305.5q0 163 49.5 301.5t140.5 239.5t227.5 158t303.5 57z" />
    <glyph glyph-name="H" unicode="H" horiz-adv-x="1509" 
d="M1352 1454v-1454h-244v657h-709v-657h-241v1454h241v-592h709v592h244z" />
    <glyph glyph-name="I" unicode="I" horiz-adv-x="585" 
d="M414 1454v-1454h-242v1454h242z" />
    <glyph glyph-name="J" unicode="J" horiz-adv-x="958" 
d="M811 383q0 -210 -110 -311t-308 -101q-189 0 -377 92l76 193q87 -35 153.5 -52.5t137.5 -17.5q186 0 186 222v1046h242v-1071z" />
    <glyph glyph-name="K" unicode="K" horiz-adv-x="1390" 
d="M1350 1454l-545 -565l575 -889h-276l-461 717l-244 -252v-465h-241v1454h241v-694l650 694h301z" />
    <glyph glyph-name="L" unicode="L" horiz-adv-x="1146" 
d="M399 1454v-1247h691v-207h-932v1454h241z" />
    <glyph glyph-name="M" unicode="M" horiz-adv-x="1826" 
d="M1669 1454v-1454h-235v733q0 187 8 543q-29 -95 -89 -276.5t-87 -266.5l-244 -733h-213l-248 733q-155 463 -176 531q4 -348 4 -533v-731h-231v1454h383l207 -614q108 -310 170 -537q59 213 167 537l205 614h379z" />
    <glyph glyph-name="N" unicode="N" horiz-adv-x="1513" 
d="M1356 1454v-1454h-262l-396 623q-218 338 -315 512q10 -215 10 -564v-571h-235v1454h266l412 -647q225 -359 294 -483q-10 205 -10 540v590h236z" />
    <glyph glyph-name="O" unicode="O" horiz-adv-x="1566" 
d="M784 1487q214 0 375.5 -99.5t245.5 -271.5t84 -389t-84 -389t-245.5 -271.5t-375.5 -99.5q-161 0 -294.5 58t-223 159.5t-139 241t-49.5 301.5t49.5 301.5t139 241t223 159.5t294.5 58zM326 727q0 -246 125.5 -396.5t332.5 -150.5t332 150.5t125 396.5q0 245 -125.5 396
t-331.5 151t-332 -151t-126 -396z" />
    <glyph glyph-name="P" unicode="P" horiz-adv-x="1368" 
d="M823 1454q218 0 347.5 -121t129.5 -327t-129.5 -326.5t-347.5 -120.5h-424v-559h-241v1454h665zM399 760h385q128 0 201.5 64t73.5 182q0 120 -73.5 183.5t-201.5 63.5h-385v-493z" />
    <glyph glyph-name="Q" unicode="Q" horiz-adv-x="1566" 
d="M1202 -143l-127 166q-134 -56 -291 -56q-161 0 -294.5 58t-223 159.5t-139 241t-49.5 301.5t49.5 301.5t139 241t223 159.5t294.5 58q214 0 375.5 -99.5t245.5 -271.5t84 -389q0 -183 -61 -336t-175 -254l121 -160zM326 727q0 -246 125.5 -396.5t332.5 -150.5
q81 0 154 25l-180 239l170 121l182 -241q131 150 131 403q0 245 -125.5 396t-331.5 151t-332 -151t-126 -396z" />
    <glyph glyph-name="R" unicode="R" horiz-adv-x="1396" 
d="M811 1454q208 0 341.5 -122.5t133.5 -325.5q0 -163 -90 -277t-240 -151l383 -578h-272l-365 559h-303v-559h-241v1454h653zM399 760h369q130 0 204.5 64t74.5 182q0 119 -75 183t-204 64h-369v-493z" />
    <glyph glyph-name="S" unicode="S" horiz-adv-x="1306" 
d="M643 1487q171 0 300.5 -51t266.5 -170l-141 -168q-123 103 -215.5 140.5t-214.5 37.5q-133 0 -214 -57t-81 -146q0 -28 8 -51t20 -40.5t39 -33.5t51 -27t70 -24.5t83 -22.5t102 -24q112 -26 190.5 -52.5t142.5 -61.5t102 -78.5t57.5 -100t19.5 -129.5q0 -205 -152.5 -333
t-404.5 -128q-186 0 -328 59t-303 201l145 170q148 -127 254 -173t236 -46q139 0 226 62t87 172q0 43 -19 75.5t-39.5 52t-78.5 40t-91 29.5t-121 29q-25 6 -38 9q-282 66 -390 156.5t-108 261.5q0 183 153 302.5t386 119.5z" />
    <glyph glyph-name="T" unicode="T" horiz-adv-x="1255" 
d="M1198 1454v-207h-448v-1247h-244v1247h-447v207h1139z" />
    <glyph glyph-name="U" unicode="U" horiz-adv-x="1429" 
d="M1282 479q0 -256 -146.5 -384t-420.5 -128t-421 128t-147 384v975h242v-965q0 -149 82.5 -229t243.5 -80t243 80t82 229v965h242v-975z" />
    <glyph glyph-name="V" unicode="V" horiz-adv-x="1335" 
d="M516 0l-487 1454h252l231 -706q97 -295 158 -517q85 294 157 512l230 711h250l-488 -1454h-303z" />
    <glyph glyph-name="W" unicode="W" horiz-adv-x="1957" 
d="M1901 1454l-351 -1454h-284l-160 610q-76 288 -125 520q-56 -250 -125 -522l-160 -608h-286l-353 1454h246l154 -659q45 -192 108 -519q76 337 125 519l176 659h240l172 -659q70 -274 123 -523q69 366 106 523l156 659h238z" />
    <glyph glyph-name="X" unicode="X" horiz-adv-x="1386" 
d="M1042 1454h271l-475 -686l526 -768h-272l-400 594l-401 -594h-268l524 770l-473 684h274l348 -514z" />
    <glyph glyph-name="Y" unicode="Y" horiz-adv-x="1314" 
d="M1292 1454l-514 -840v-614h-243v616l-512 838h268l371 -625l370 625h260z" />
    <glyph glyph-name="Z" unicode="Z" horiz-adv-x="1296" 
d="M1208 1454v-197l-829 -1052h827v-205h-1118v197l830 1052h-797v205h1087z" />
    <glyph glyph-name="bracketleft" unicode="[" horiz-adv-x="698" 
d="M631 1571v-166h-228v-1548h228v-164h-441v1878h441z" />
    <glyph glyph-name="backslash" unicode="\" horiz-adv-x="931" 
d="M37 1454h223l635 -1454h-223z" />
    <glyph glyph-name="bracketright" unicode="]" horiz-adv-x="698" 
d="M68 1571h440v-1878h-440v164h227v1548h-227v166z" />
    <glyph glyph-name="asciicircum" unicode="^" horiz-adv-x="1208" 
d="M696 1454l408 -881h-186l-312 680l-313 -680h-189l410 881h182z" />
    <glyph glyph-name="underscore" unicode="_" horiz-adv-x="1228" 
d="M1239 -233v-156h-1249v156h1249z" />
    <glyph glyph-name="grave" unicode="`" horiz-adv-x="610" 
d="M109 1460h249l144 -293h-199z" />
    <glyph glyph-name="a" unicode="a" horiz-adv-x="1120" 
d="M453 -33q-76 0 -141 16.5t-117 50t-81.5 91t-29.5 133.5q0 69 25.5 124.5t65.5 92t103 65.5t124.5 46t142.5 32l235 44v36q0 84 -57.5 130t-155.5 46q-97 0 -167 -38.5t-162 -130.5l-142 131q96 115 208.5 170t256.5 55q210 0 322 -98t112 -261v-702h-202v117
q-105 -150 -340 -150zM305 270q0 -58 47.5 -90.5t132.5 -32.5q124 0 209.5 66t85.5 190v95l-178 -37q-76 -16 -122.5 -29.5t-90.5 -35.5t-64 -53t-20 -73z" />
    <glyph glyph-name="b" unicode="b" horiz-adv-x="1202" 
d="M674 -27q-229 0 -338 170v-143h-209v1454h225v-549q111 152 324 152q199 0 326.5 -149t127.5 -394q0 -244 -128.5 -392.5t-327.5 -148.5zM342 514q0 -161 81 -253.5t206 -92.5q122 0 197 94.5t75 251.5q0 159 -73.5 254.5t-198.5 95.5q-127 0 -207 -94.5t-80 -255.5z" />
    <glyph glyph-name="c" unicode="c" horiz-adv-x="1056" 
d="M866 727q-83 83 -146 113t-134 30q-91 0 -157.5 -50.5t-98 -129.5t-31.5 -176q0 -149 75.5 -250.5t211.5 -101.5q78 0 142.5 36t148.5 128l149 -125q-103 -129 -205 -180.5t-237 -51.5q-232 0 -373 148t-141 397t143 398t373 149q128 0 227 -44.5t197 -150.5z" />
    <glyph glyph-name="d" unicode="d" horiz-adv-x="1202" 
d="M526 -29q-199 0 -326.5 149t-127.5 394q0 244 129 393.5t327 149.5q213 0 322 -150v547h225v-1454h-209v150q-111 -179 -340 -179zM301 514q0 -159 73 -254.5t197 -95.5q128 0 207.5 94t79.5 256t-80 255t-205 93q-122 0 -197 -95t-75 -253z" />
    <glyph glyph-name="e" unicode="e" horiz-adv-x="1124" 
d="M596 -31q-243 0 -384.5 146.5t-141.5 392.5q0 245 137 399t368 154q226 0 350 -135t124 -371q0 -42 -5 -92h-753q13 -135 90 -219t219 -84q91 0 157.5 33t162.5 120l131 -137q-110 -113 -218 -160t-237 -47zM297 627h530q-6 119 -73.5 187.5t-184.5 68.5
q-112 0 -181 -67.5t-91 -188.5z" />
    <glyph glyph-name="f" unicode="f" horiz-adv-x="724" 
d="M543 1489q110 0 213 -37l-41 -168q-80 19 -131 19q-73 0 -106.5 -36.5t-33.5 -121.5v-117h242v-170h-242v-858h-225v858h-182v170h182v135q0 160 83 243t241 83z" />
    <glyph glyph-name="g" unicode="g" horiz-adv-x="1185" 
d="M571 -397q-253 0 -479 149l111 164q112 -68 193 -97.5t173 -29.5q121 0 195 65t74 203v107q-107 -146 -314 -146q-197 0 -323.5 146t-126.5 377q0 228 126.5 374t323.5 146q219 0 326 -162v129h209v-989q0 -207 -134 -321.5t-354 -114.5zM301 541q0 -149 72.5 -240.5
t197.5 -91.5q121 0 197 92t76 240q0 146 -75.5 236.5t-197.5 90.5q-125 0 -197.5 -89.5t-72.5 -237.5z" />
    <glyph glyph-name="h" unicode="h" horiz-adv-x="1146" 
d="M653 1061q177 0 273 -99t96 -257v-705h-225v635q0 114 -55 173.5t-158 59.5q-100 0 -166 -67.5t-66 -171.5v-629h-225v1454h225v-528q107 135 301 135z" />
    <glyph glyph-name="i" unicode="i" horiz-adv-x="477" 
d="M352 1028v-1028h-225v1028h225zM127 1206v232h225v-232h-225z" />
    <glyph glyph-name="j" unicode="j" horiz-adv-x="485" 
d="M-113 -193q82 -16 127 -16q65 0 92 36t27 114v1087h225v-1085q0 -170 -76.5 -252t-230.5 -82q-110 0 -205 31zM133 1206v232h225v-232h-225z" />
    <glyph glyph-name="k" unicode="k" horiz-adv-x="1087" 
d="M1055 1028l-383 -393l409 -635h-252l-313 492l-164 -166v-326h-225v1454h225v-881l432 455h271z" />
    <glyph glyph-name="l" unicode="l" horiz-adv-x="487" 
d="M356 1454v-1454h-225v1454h225z" />
    <glyph glyph-name="m" unicode="m" horiz-adv-x="1701" 
d="M1233 1061q165 0 254.5 -93t89.5 -249v-719h-225v651q0 102 -45.5 159.5t-137.5 57.5q-96 0 -151 -64t-55 -165v-639h-226v651q0 217 -182 217q-93 0 -148 -63.5t-55 -165.5v-639h-225v1028h209v-119q94 152 295 152q102 0 176 -42t115 -116q105 158 311 158z" />
    <glyph glyph-name="n" unicode="n" horiz-adv-x="1146" 
d="M653 1061q177 0 273 -99t96 -257v-705h-225v635q0 114 -55 173.5t-158 59.5q-100 0 -166 -67.5t-66 -171.5v-629h-225v1028h209v-125q50 76 131 117t186 41z" />
    <glyph glyph-name="o" unicode="o" horiz-adv-x="1185" 
d="M594 1061q230 0 376 -152t146 -395q0 -242 -146 -393.5t-376 -151.5q-232 0 -378 151t-146 394q0 244 146 395.5t378 151.5zM299 514q0 -160 80 -257t215 -97q132 0 212.5 97t80.5 257q0 161 -80.5 258.5t-212.5 97.5q-135 0 -215 -97t-80 -259z" />
    <glyph glyph-name="p" unicode="p" horiz-adv-x="1202" 
d="M674 -27q-211 0 -322 146v-488h-225v1397h209v-145q112 174 340 174q199 0 326.5 -149t127.5 -392q0 -245 -128 -394t-328 -149zM342 516q0 -161 81 -254.5t206 -93.5q122 0 197 94.5t75 253.5q0 158 -73.5 253t-198.5 95q-127 0 -207 -94t-80 -254z" />
    <glyph glyph-name="q" unicode="q" horiz-adv-x="1202" 
d="M526 -29q-198 0 -326 149.5t-128 393.5t128.5 393.5t327.5 149.5q228 0 338 -174v145h209v-1397h-225v492q-113 -152 -324 -152zM301 514q0 -159 73 -254.5t197 -95.5q128 0 207.5 94t79.5 256t-80 255t-205 93q-122 0 -197 -95t-75 -253z" />
    <glyph glyph-name="r" unicode="r" horiz-adv-x="776" 
d="M594 1042q63 0 162 -30l-41 -195q-79 21 -131 21q-106 0 -169 -83t-63 -229v-526h-225v1028h209v-154q82 168 258 168z" />
    <glyph glyph-name="s" unicode="s" horiz-adv-x="1013" 
d="M502 1061q129 0 228.5 -35.5t205.5 -120.5l-123 -149q-94 71 -162.5 97t-152.5 26q-89 0 -143 -35t-54 -90q0 -52 46.5 -74t188.5 -54q14 -3 21 -5q215 -47 305 -117t90 -205q0 -148 -115.5 -239t-312.5 -91q-142 0 -253.5 43t-233.5 150l131 147q111 -92 188 -124.5
t172 -32.5q89 0 146 36t57 97q0 35 -18 59t-56.5 40.5t-78.5 27t-104 24.5q-7 1 -11 2q-215 48 -296 112.5t-81 194.5q0 137 112.5 226.5t303.5 89.5z" />
    <glyph glyph-name="t" unicode="t" horiz-adv-x="763" 
d="M449 281q0 -59 26 -84t84 -25q50 0 137 23l29 -179q-113 -39 -221 -39q-149 0 -215 69.5t-66 207.5v604h-186v170h186v332h226v-332h260v-170h-260v-577z" />
    <glyph glyph-name="u" unicode="u" horiz-adv-x="1130" 
d="M1004 1028v-1028h-207v119q-43 -70 -120.5 -110t-184.5 -40q-186 0 -276.5 90.5t-90.5 239.5v729h225v-668q0 -94 48.5 -145t142.5 -51q107 0 172 62t65 180v622h226z" />
    <glyph glyph-name="v" unicode="v" horiz-adv-x="1028" 
d="M1006 1028l-355 -1028h-276l-352 1028h237l113 -354q73 -225 143 -488q70 263 143 488l113 354h234z" />
    <glyph glyph-name="w" unicode="w" horiz-adv-x="1568" 
d="M1534 1028l-287 -1028h-270l-84 301q-64 231 -111 447q-84 -355 -108 -447l-82 -301h-268l-289 1028h237l90 -358q62 -244 107 -467q39 169 115 467l96 358h211l98 -358q53 -199 115 -471q50 248 106 471l93 358h231z" />
    <glyph glyph-name="x" unicode="x" horiz-adv-x="1032" 
d="M16 0l373 539l-340 489h246l223 -330l219 330h244l-336 -481l371 -547h-250l-250 381l-256 -381h-244z" />
    <glyph glyph-name="y" unicode="y" horiz-adv-x="1032" 
d="M602 -127q-51 -146 -126 -208t-210 -62q-97 0 -180 22l37 170q74 -12 117 -12q60 0 100 31t68 114l6 19l-387 1081h237l101 -301q85 -250 157 -483q77 253 154 485l100 299h230z" />
    <glyph glyph-name="z" unicode="z" horiz-adv-x="1001" 
d="M915 1028v-168l-563 -676h563v-184h-841v170l563 676h-528v182h806z" />
    <glyph glyph-name="braceleft" unicode="{" horiz-adv-x="757" 
d="M690 1571v-166h-59q-30 0 -52 -3.5t-37 -10.5t-25 -18t-15 -25.5t-7.5 -33t-2.5 -41.5v-50v-33v-293q0 -111 -40.5 -173t-152.5 -81v-4q112 -19 152.5 -81t40.5 -173v-313q0 -113 4 -137q11 -54 59 -69q29 -9 76 -9h59v-164h-108q-164 0 -233.5 69t-69.5 254v334
q0 115 -36.5 156t-140.5 41v190q104 0 140.5 40.5t36.5 154.5v315q0 185 69.5 254.5t233.5 69.5h108z" />
    <glyph glyph-name="bar" unicode="|" horiz-adv-x="792" 
d="M494 1638v-1925h-195v1925h195z" />
    <glyph glyph-name="braceright" unicode="}" horiz-adv-x="757" 
d="M176 1571q82 0 136.5 -15t92.5 -52t55 -99.5t17 -157.5v-315q0 -114 37 -154.5t141 -40.5v-190q-104 0 -141 -41.5t-37 -155.5v-334q0 -185 -68.5 -254t-232.5 -69h-108v164h59q30 0 52 3.5t37 10.5t25 18t15 25.5t7.5 33t2.5 41.5v50v33v313q0 111 40.5 173t152.5 81v4
q-112 19 -152.5 81t-40.5 173v293q0 113 -4 137q-11 54 -59 69q-29 9 -76 9h-59v166h108z" />
    <glyph glyph-name="asciitilde" unicode="~" horiz-adv-x="1228" 
d="M399 846q64 0 127.5 -17.5t106.5 -38t96.5 -38t99.5 -17.5q104 0 113 99h182q0 -130 -74 -205.5t-194 -75.5q-61 0 -126.5 17.5t-111.5 39t-101.5 39t-100.5 17.5q-54 0 -88.5 -28t-42.5 -73h-181q1 130 84 205.5t211 75.5z" />
    <glyph glyph-name="uni00A0" unicode="&#xa0;" horiz-adv-x="456" 
 />
    <glyph glyph-name="exclamdown" unicode="&#xa1;" horiz-adv-x="493" 
d="M129 -424v438l53 578h137l54 -578v-438h-244zM125 768v262h254v-262h-254z" />
    <glyph glyph-name="cent" unicode="&#xa2;" horiz-adv-x="1208" 
d="M571 -205v178q-202 23 -322 168t-120 373q0 227 120.5 372.5t321.5 170.5v176h164v-178q188 -24 334 -191l-143 -137q-108 108 -191 131v-684q93 29 201 152l149 -125q-85 -107 -168 -159.5t-182 -66.5v-180h-164zM358 514q0 -127 55.5 -222t157.5 -122v690
q-102 -27 -157.5 -123t-55.5 -223z" />
    <glyph glyph-name="sterling" unicode="&#xa3;" horiz-adv-x="1208" 
d="M1149 68q-155 -95 -301 -95q-101 0 -255.5 39t-227.5 39q-51 0 -96 -9.5t-67 -18.5t-61 -27l-65 178q108 42 153 74q103 74 103 205q0 42 -8 108h-197v174h149q-45 153 -45 291q0 122 63.5 213t164.5 135.5t223 44.5q126 0 233 -39.5t211 -122.5l-125 -161
q-94 67 -165 96t-148 29q-98 0 -159.5 -56.5t-61.5 -156.5q0 -116 49 -273h418v-174h-379q4 -50 4 -78q-3 -160 -137 -250q65 -7 194.5 -36t212.5 -29q61 0 115 17.5t129 58.5z" />
    <glyph glyph-name="currency" unicode="&#xa4;" horiz-adv-x="1208" 
d="M997 1190l101 -98l-131 -131q84 -114 84 -265q0 -150 -84 -264l131 -131l-101 -98l-133 133q-112 -70 -256 -70q-147 0 -260 74l-139 -137l-98 98l137 135q-82 111 -82 260q0 148 80 258l-137 138l100 98l137 -139q113 75 262 75q147 0 254 -69zM332 696q0 -126 77 -202
t199 -76t199.5 76t77.5 202t-77.5 202.5t-199.5 76.5q-121 0 -198.5 -76.5t-77.5 -202.5z" />
    <glyph glyph-name="yen" unicode="&#xa5;" horiz-adv-x="1208" 
d="M485 0v365h-360v159h360v92l-39 68h-321v160h233l-309 549h258l301 -562l303 562h248l-311 -549h237v-160h-327l-39 -70v-90h366v-159h-366v-365h-234z" />
    <glyph glyph-name="brokenbar" unicode="&#xa6;" horiz-adv-x="792" 
d="M494 532v-819h-195v819h195zM299 819v819h195v-819h-195z" />
    <glyph glyph-name="section" unicode="&#xa7;" horiz-adv-x="1208" 
d="M604 1483q144 0 255 -38.5t228 -131.5l-120 -152q-109 80 -187.5 108.5t-177.5 28.5q-109 0 -175.5 -42t-66.5 -107q0 -64 62 -91.5t242 -66.5q243 -52 349.5 -127.5t106.5 -220.5q0 -174 -172 -254q61 -38 88 -92t27 -133q0 -149 -126 -245.5t-333 -96.5
q-144 0 -255 38.5t-228 131.5l121 149q110 -80 188 -108.5t176 -28.5q109 0 175.5 42.5t66.5 109.5q0 61 -58.5 88.5t-224.5 64.5q-13 2 -20 4q-242 52 -349.5 129t-107.5 222q0 171 172 251q-61 38 -88 92.5t-27 133.5q0 149 126 245.5t333 96.5zM307 676q0 -79 106 -123
q54 -22 226 -59q60 -13 74 -17q86 18 137 57t51 95q0 26 -9 47t-33.5 38t-42.5 28t-63.5 24t-67.5 18.5t-81 18.5q-23 5 -35 8q-6 1 -33 6.5t-40 9.5q-86 -16 -137.5 -54.5t-51.5 -96.5z" />
    <glyph glyph-name="dieresis" unicode="&#xa8;" horiz-adv-x="821" 
d="M713 1438v-232h-219v232h219zM109 1206v232h219v-232h-219z" />
    <glyph glyph-name="copyright" unicode="&#xa9;" horiz-adv-x="1753" 
d="M877 -27q-157 0 -297 58t-240 157.5t-158.5 239.5t-58.5 299t58.5 299t158.5 239.5t240 157.5t297 58q210 0 382.5 -98t271.5 -271t99 -385t-99 -385t-271.5 -271t-382.5 -98zM260 727q0 -177 79 -322.5t220.5 -229t317.5 -83.5q132 0 247 49t195.5 134t127 202t46.5 250
t-46.5 250t-127 202t-195.5 134t-247 49q-176 0 -317.5 -83.5t-220.5 -229t-79 -322.5zM459 727q0 195 118 324t308 129q248 0 360 -219l-135 -64q-45 77 -97.5 109t-127.5 32q-122 0 -194.5 -86t-72.5 -225q0 -138 73.5 -224.5t193.5 -86.5q82 0 132 35t101 127l133 -68
q-63 -124 -147.5 -180t-218.5 -56q-190 0 -308 129t-118 324z" />
    <glyph glyph-name="ordfeminine" unicode="&#xaa;" horiz-adv-x="878" 
d="M440 1466q164 0 252 -75.5t88 -202.5v-543h-157v96q-83 -123 -275 -123q-122 0 -201 57.5t-79 170.5q0 53 19.5 95t51 70t82 50.5t100.5 36t119 26.5l170 31v19q0 72 -46.5 109.5t-129.5 37.5q-69 0 -127.5 -30.5t-118.5 -94.5l-112 104q145 166 364 166zM242 856
q0 -45 35.5 -69.5t103.5 -24.5q98 0 163.5 51t65.5 150v63l-137 -29q-50 -11 -79 -18.5t-62 -19.5t-50 -25t-28.5 -33t-11.5 -45z" />
    <glyph glyph-name="guillemotleft" unicode="&#xab;" horiz-adv-x="1216" 
d="M625 973l-295 -455l295 -455h-215l-291 455l291 455h215zM582 518l288 455h215l-292 -455l292 -455h-215z" />
    <glyph glyph-name="logicalnot" unicode="&#xac;" horiz-adv-x="1228" 
d="M1147 731v-588h-195v396h-870v192h1065z" />
    <glyph glyph-name="registered" unicode="&#xae;" horiz-adv-x="1122" 
d="M561 573q-192 0 -322 130t-130 323t130 323t322 130t322.5 -130t130.5 -323t-130.5 -323t-322.5 -130zM205 1026q0 -158 100 -262.5t256 -104.5t256.5 104.5t100.5 262.5t-100.5 262.5t-256.5 104.5t-256 -104.5t-100 -262.5zM385 780v508h213q71 0 117.5 -46t46.5 -114
q0 -50 -26.5 -90t-71.5 -59l120 -199h-110l-113 189h-76v-189h-100zM485 1053h95q41 0 62.5 20t21.5 53q0 32 -21.5 52t-62.5 20h-95v-145z" />
    <glyph glyph-name="macron" unicode="&#xaf;" horiz-adv-x="835" 
d="M725 1380v-168h-616v168h616z" />
    <glyph glyph-name="degree" unicode="&#xb0;" horiz-adv-x="862" 
d="M430 877q-129 0 -218 87t-89 216t89 215t218 86q131 0 220 -85.5t89 -215.5t-89 -216.5t-220 -86.5zM268 1180q0 -72 46 -119t116 -47q72 0 118 47t46 119t-46 117.5t-118 45.5q-71 0 -116.5 -45.5t-45.5 -117.5z" />
    <glyph glyph-name="plusminus" unicode="&#xb1;" horiz-adv-x="1228" 
d="M713 1384v-436h434v-192h-434v-437h-197v437h-434v192h434v436h197zM82 0v193h1065v-193h-1065z" />
    <glyph glyph-name="uni00B2" unicode="&#xb2;" horiz-adv-x="815" 
d="M76 788q0 55 15 101.5t37.5 79t60.5 64.5t71.5 52.5t83.5 47.5q17 9 49.5 24.5t48 24t40 22.5t37 25t26 26t19 32t5.5 36q0 51 -39.5 79t-107.5 28q-58 0 -114.5 -25t-127.5 -82l-92 111q158 145 336 145q146 0 231.5 -73t85.5 -177q0 -29 -4 -54t-15.5 -47t-21 -38.5
t-31 -34.5t-35 -29.5t-43 -28.5t-45.5 -26t-52.5 -27.5t-53.5 -27.5q-39 -20 -53.5 -28t-44 -26t-43 -30t-27.5 -30.5t-20 -37.5h485v-143h-661v67z" />
    <glyph glyph-name="uni00B3" unicode="&#xb3;" horiz-adv-x="804" 
d="M397 698q-177 0 -346 109l82 121q84 -45 143 -62.5t119 -17.5q74 0 117 35t43 94t-49.5 92t-130.5 33q-71 0 -103 -12l-73 100l282 223h-387v143h598v-141l-248 -192q125 -3 205 -69t80 -177q0 -113 -88.5 -196t-243.5 -83z" />
    <glyph glyph-name="acute" unicode="&#xb4;" horiz-adv-x="610" 
d="M500 1460l-193 -293h-198l143 293h248z" />
    <glyph glyph-name="uni00B5" unicode="&#xb5;" horiz-adv-x="1132" 
d="M1006 0h-205v135q-39 -77 -106 -121.5t-160 -44.5q-119 0 -183 58v-402h-225v1403h225v-668q0 -94 50 -144t151 -50t164 61.5t63 178.5v622h226v-1028z" />
    <glyph glyph-name="paragraph" unicode="&#xb6;" horiz-adv-x="1368" 
d="M866 1454v-1659h-176v746h-158q-208 0 -336 125t-128 331t128 331.5t336 125.5h334zM1034 -205v1659h176v-1659h-176z" />
    <glyph glyph-name="periodcentered" unicode="&#xb7;" horiz-adv-x="471" 
d="M362 793v-263h-253v263h253z" />
    <glyph glyph-name="cedilla" unicode="&#xb8;" horiz-adv-x="671" 
d="M305 41l105 -41l-64 -135q98 1 157.5 -45t59.5 -119q0 -86 -62 -139.5t-163 -53.5q-111 0 -229 78l61 97q95 -56 166 -56q43 0 71.5 19t28.5 53q0 31 -32.5 49.5t-77.5 18.5q-30 0 -58 -7l-63 60z" />
    <glyph glyph-name="uni00B9" unicode="&#xb9;" horiz-adv-x="651" 
d="M289 721v631l-142 -101l-84 115l265 190h131v-835h-170z" />
    <glyph glyph-name="ordmasculine" unicode="&#xba;" horiz-adv-x="950" 
d="M475 1470q175 0 286 -117.5t111 -305.5q0 -187 -111 -305.5t-286 -118.5t-286 118.5t-111 305.5q0 188 111 305.5t286 117.5zM258 1047q0 -125 59 -200t158 -75t158 75t59 200q0 124 -59 199t-158 75t-158 -75t-59 -199z" />
    <glyph glyph-name="guillemotright" unicode="&#xbb;" horiz-adv-x="1216" 
d="M129 973h215l291 -455l-291 -455h-215l287 455zM592 63l287 455l-287 455h215l289 -455l-289 -455h-215z" />
    <glyph glyph-name="onequarter" unicode="&#xbc;" horiz-adv-x="1832" 
d="M289 557v631l-142 -101l-84 115l265 191h131v-836h-170zM317 53l965 1372l133 -84l-966 -1374zM1083 182v160l332 494h182l-342 -519h240v168h168v-168h115v-135h-115v-182h-168v182h-412z" />
    <glyph glyph-name="onehalf" unicode="&#xbd;" horiz-adv-x="1896" 
d="M289 557v631l-142 -101l-84 115l265 191h131v-836h-170zM317 53l965 1372l133 -84l-966 -1374zM1159 0v68q0 55 15 101t37 79t60.5 64.5t72 52t83.5 47.5q17 9 49 24.5t48.5 24t41 22.5t37 25t26 26t19 32t5.5 36q0 50 -40 78.5t-108 28.5q-58 0 -114 -25t-127 -82
l-93 111q158 145 336 145q146 0 232 -73.5t86 -176.5q0 -29 -4 -54t-15.5 -47t-21 -38.5t-31 -34.5t-35 -29.5t-43 -28.5t-45.5 -26t-52.5 -27.5t-53.5 -27.5q-63 -33 -89 -47.5t-58.5 -44t-41.5 -60.5h486v-143h-662z" />
    <glyph glyph-name="threequarters" unicode="&#xbe;" horiz-adv-x="1986" 
d="M397 535q-179 0 -346 108l82 121q84 -45 143 -62.5t119 -17.5q74 0 117 35t43 94t-49.5 92t-130.5 33q-71 0 -103 -12l-73 100l282 223h-387v144h598v-142l-248 -192q125 -3 205 -69t80 -177q0 -113 -88.5 -195.5t-243.5 -82.5zM471 53l965 1372l133 -84l-967 -1374z
M1237 182v160l332 494h182l-342 -519h240v168h168v-168h114v-135h-114v-182h-168v182h-412z" />
    <glyph glyph-name="questiondown" unicode="&#xbf;" horiz-adv-x="976" 
d="M463 -457q-202 0 -329.5 102t-127.5 281q0 49 13 94t30.5 77t53.5 71.5t61.5 63t75.5 66.5q20 17 30 26q41 37 54 49t39.5 39.5t36 44t20 42t14.5 54.5l6 49h195v-57q0 -60 -5.5 -96.5t-26.5 -79t-59 -84t-106 -99.5q-10 -9 -39.5 -33.5t-41 -34.5t-34 -31.5t-32 -36
t-22 -35.5t-17 -42t-4.5 -45q0 -81 60.5 -128.5t160.5 -47.5q86 0 162 37t190 125l135 -156q-123 -110 -241 -162.5t-252 -52.5zM406 768v262h253v-262h-253z" />
    <glyph glyph-name="Agrave" unicode="&#xc0;" horiz-adv-x="1419" 
d="M27 0l524 1454h317l525 -1454h-252l-115 328h-641l-113 -328h-245zM418 1872h250l143 -293h-199zM455 528h501l-61 179q-153 444 -188 563q-45 -153 -191 -565z" />
    <glyph glyph-name="Aacute" unicode="&#xc1;" horiz-adv-x="1419" 
d="M27 0l524 1454h317l525 -1454h-252l-115 328h-641l-113 -328h-245zM455 528h501l-61 179q-153 444 -188 563q-45 -153 -191 -565zM604 1579l144 293h247l-192 -293h-199z" />
    <glyph glyph-name="Acircumflex" unicode="&#xc2;" horiz-adv-x="1419" 
d="M27 0l524 1454h317l525 -1454h-252l-115 328h-641l-113 -328h-245zM360 1579l205 293h283l205 -293h-193l-153 193l-156 -193h-191zM455 528h501l-61 179q-153 444 -188 563q-45 -153 -191 -565z" />
    <glyph glyph-name="Atilde" unicode="&#xc3;" horiz-adv-x="1419" 
d="M27 0l524 1454h317l525 -1454h-252l-115 328h-641l-113 -328h-245zM369 1589q0 117 56 182.5t142 65.5q54 0 106.5 -26t96.5 -52t78 -26q65 0 65 102h134q0 -117 -51.5 -181.5t-135.5 -64.5q-37 0 -79.5 16t-74 35.5t-68.5 35.5t-65 16q-33 0 -51 -30t-18 -73h-135z
M455 528h501l-61 179q-153 444 -188 563q-45 -153 -191 -565z" />
    <glyph glyph-name="Adieresis" unicode="&#xc4;" horiz-adv-x="1419" 
d="M27 0l524 1454h317l525 -1454h-252l-115 328h-641l-113 -328h-245zM406 1618v231h219v-231h-219zM455 528h501l-61 179q-153 444 -188 563q-45 -153 -191 -565zM791 1618v231h219v-231h-219z" />
    <glyph glyph-name="Aring" unicode="&#xc5;" horiz-adv-x="1431" 
d="M715 1890q114 0 192 -75.5t78 -184.5q0 -120 -94 -198l514 -1432h-252l-115 330h-651l-115 -330h-245l514 1430q-95 82 -95 200q0 109 78 184.5t191 75.5zM455 528h516l-64 181q-23 67 -66.5 191t-74 215.5t-53.5 170.5q-33 -109 -197 -581zM573 1630q0 -64 40.5 -103.5
t101.5 -39.5q62 0 101.5 39.5t39.5 103.5q0 63 -39.5 102.5t-101.5 39.5q-61 0 -101.5 -40t-40.5 -102z" />
    <glyph glyph-name="AE" unicode="&#xc6;" horiz-adv-x="2017" 
d="M1903 1454v-205h-754v-397h704v-203h-704v-444h774v-205h-1018v328h-483l-168 -328h-248l750 1454h1147zM524 528h381v750z" />
    <glyph glyph-name="Ccedilla" unicode="&#xc7;" horiz-adv-x="1380" 
d="M795 1487q154 0 276.5 -49t253.5 -162l-141 -168q-113 96 -202 132t-189 36q-215 0 -341 -150t-126 -397q0 -248 125.5 -399.5t332.5 -151.5q116 0 206.5 45.5t213.5 153.5l146 -164q-133 -126 -256.5 -184t-274.5 -62l-49 -102q98 1 157.5 -45t59.5 -119
q0 -86 -62 -139.5t-163 -53.5q-112 0 -230 78l62 97q95 -56 166 -56q43 0 71.5 19t28.5 53q0 31 -32.5 49.5t-77.5 18.5q-30 0 -58 -7l-63 60l69 151q-191 21 -332.5 124.5t-214.5 267t-73 366.5q0 162 48.5 300.5t138 240.5t226 159.5t304.5 57.5z" />
    <glyph glyph-name="Egrave" unicode="&#xc8;" horiz-adv-x="1269" 
d="M1155 1454v-205h-756v-397h705v-203h-705v-444h777v-205h-1018v1454h997zM375 1872h250l143 -293h-199z" />
    <glyph glyph-name="Eacute" unicode="&#xc9;" horiz-adv-x="1269" 
d="M1155 1454v-205h-756v-397h705v-203h-705v-444h777v-205h-1018v1454h997zM561 1579l144 293h247l-192 -293h-199z" />
    <glyph glyph-name="Ecircumflex" unicode="&#xca;" horiz-adv-x="1269" 
d="M1155 1454v-205h-756v-397h705v-203h-705v-444h777v-205h-1018v1454h997zM317 1579l205 293h283l205 -293h-193l-153 193l-156 -193h-191z" />
    <glyph glyph-name="Edieresis" unicode="&#xcb;" horiz-adv-x="1269" 
d="M1155 1454v-205h-756v-397h705v-203h-705v-444h777v-205h-1018v1454h997zM362 1618v231h220v-231h-220zM748 1618v231h219v-231h-219z" />
    <glyph glyph-name="Igrave" unicode="&#xcc;" horiz-adv-x="585" 
d="M414 1454v-1454h-242v1454h242zM4 1872h250l143 -293h-198z" />
    <glyph glyph-name="Iacute" unicode="&#xcd;" horiz-adv-x="585" 
d="M414 1454v-1454h-242v1454h242zM190 1579l144 293h248l-193 -293h-199z" />
    <glyph glyph-name="Icircumflex" unicode="&#xce;" horiz-adv-x="585" 
d="M414 1454v-1454h-242v1454h242zM-53 1579l205 293h282l205 -293h-193l-153 193l-156 -193h-190z" />
    <glyph glyph-name="Idieresis" unicode="&#xcf;" horiz-adv-x="585" 
d="M414 1454v-1454h-242v1454h242zM-10 1618v231h219v-231h-219zM375 1618v231h219v-231h-219z" />
    <glyph glyph-name="Eth" unicode="&#xd0;" horiz-adv-x="1517" 
d="M821 852v-203h-362v-444h289q206 0 324 135t118 387t-118 387t-324 135h-289v-397h362zM53 649v203h162v602h571q205 0 354 -93.5t224.5 -257t75.5 -376.5t-75.5 -376.5t-224.5 -257t-354 -93.5h-571v649h-162z" />
    <glyph glyph-name="Ntilde" unicode="&#xd1;" horiz-adv-x="1513" 
d="M1356 1454v-1454h-262l-396 623q-218 338 -315 512q10 -215 10 -564v-571h-235v1454h266l412 -647q225 -359 294 -483q-10 205 -10 540v590h236zM436 1589q0 117 56.5 182.5t142.5 65.5q43 0 85.5 -16.5t71 -35.5t62 -35.5t61.5 -16.5q66 0 66 102h133q0 -117 -51 -181.5
t-135 -64.5q-37 0 -79.5 16t-74 35.5t-68.5 35.5t-65 16q-33 0 -51.5 -30t-18.5 -73h-135z" />
    <glyph glyph-name="Ograve" unicode="&#xd2;" horiz-adv-x="1566" 
d="M784 1487q214 0 375.5 -99.5t245.5 -271.5t84 -389t-84 -389t-245.5 -271.5t-375.5 -99.5q-161 0 -294.5 58t-223 159.5t-139 241t-49.5 301.5t49.5 301.5t139 241t223 159.5t294.5 58zM326 727q0 -246 125.5 -396.5t332.5 -150.5t332 150.5t125 396.5q0 245 -125.5 396
t-331.5 151t-332 -151t-126 -396zM496 1872h249l144 -293h-199z" />
    <glyph glyph-name="Oacute" unicode="&#xd3;" horiz-adv-x="1566" 
d="M784 1487q214 0 375.5 -99.5t245.5 -271.5t84 -389t-84 -389t-245.5 -271.5t-375.5 -99.5q-161 0 -294.5 58t-223 159.5t-139 241t-49.5 301.5t49.5 301.5t139 241t223 159.5t294.5 58zM326 727q0 -246 125.5 -396.5t332.5 -150.5t332 150.5t125 396.5q0 245 -125.5 396
t-331.5 151t-332 -151t-126 -396zM680 1579l143 293h248l-192 -293h-199z" />
    <glyph glyph-name="Ocircumflex" unicode="&#xd4;" horiz-adv-x="1566" 
d="M784 1487q214 0 375.5 -99.5t245.5 -271.5t84 -389t-84 -389t-245.5 -271.5t-375.5 -99.5q-161 0 -294.5 58t-223 159.5t-139 241t-49.5 301.5t49.5 301.5t139 241t223 159.5t294.5 58zM326 727q0 -246 125.5 -396.5t332.5 -150.5t332 150.5t125 396.5q0 245 -125.5 396
t-331.5 151t-332 -151t-126 -396zM438 1579l205 293h283l204 -293h-192l-154 193l-155 -193h-191z" />
    <glyph glyph-name="Otilde" unicode="&#xd5;" horiz-adv-x="1566" 
d="M784 1487q214 0 375.5 -99.5t245.5 -271.5t84 -389t-84 -389t-245.5 -271.5t-375.5 -99.5q-161 0 -294.5 58t-223 159.5t-139 241t-49.5 301.5t49.5 301.5t139 241t223 159.5t294.5 58zM326 727q0 -246 125.5 -396.5t332.5 -150.5t332 150.5t125 396.5q0 245 -125.5 396
t-331.5 151t-332 -151t-126 -396zM444 1589q0 117 56.5 182.5t142.5 65.5q54 0 106.5 -26t96.5 -52t78 -26q65 0 65 102h133q0 -117 -51 -181.5t-135 -64.5q-37 0 -79.5 16t-74 35.5t-68.5 35.5t-65 16q-33 0 -51 -30t-18 -73h-136z" />
    <glyph glyph-name="Odieresis" unicode="&#xd6;" horiz-adv-x="1566" 
d="M784 1487q214 0 375.5 -99.5t245.5 -271.5t84 -389t-84 -389t-245.5 -271.5t-375.5 -99.5q-161 0 -294.5 58t-223 159.5t-139 241t-49.5 301.5t49.5 301.5t139 241t223 159.5t294.5 58zM326 727q0 -246 125.5 -396.5t332.5 -150.5t332 150.5t125 396.5q0 245 -125.5 396
t-331.5 151t-332 -151t-126 -396zM481 1618v231h219v-231h-219zM866 1618v231h219v-231h-219z" />
    <glyph glyph-name="multiply" unicode="&#xd7;" horiz-adv-x="1228" 
d="M1100 287l-137 -137l-349 348l-348 -348l-137 137l348 348l-348 348l137 137l348 -348l349 348l137 -137l-348 -348z" />
    <glyph glyph-name="Oslash" unicode="&#xd8;" horiz-adv-x="1566" 
d="M784 -33q-241 0 -419 129l-91 -108l-129 108l99 117q-166 203 -166 514q0 162 49.5 301.5t139 241t223 159.5t294.5 58q242 0 418 -127l90 106l129 -108l-96 -117q164 -206 164 -514q0 -217 -84 -389t-245.5 -271.5t-375.5 -99.5zM326 727q0 -192 75 -324l654 781
q-114 90 -271 90q-206 0 -332 -151t-126 -396zM512 272q115 -92 272 -92q207 0 332 150.5t125 396.5q0 188 -76 324z" />
    <glyph glyph-name="Ugrave" unicode="&#xd9;" horiz-adv-x="1429" 
d="M1282 479q0 -256 -146.5 -384t-420.5 -128t-421 128t-147 384v975h242v-965q0 -149 82.5 -229t243.5 -80t243 80t82 229v965h242v-975zM426 1872h250l143 -293h-198z" />
    <glyph glyph-name="Uacute" unicode="&#xda;" horiz-adv-x="1429" 
d="M1282 479q0 -256 -146.5 -384t-420.5 -128t-421 128t-147 384v975h242v-965q0 -149 82.5 -229t243.5 -80t243 80t82 229v965h242v-975zM612 1579l144 293h248l-193 -293h-199z" />
    <glyph glyph-name="Ucircumflex" unicode="&#xdb;" horiz-adv-x="1429" 
d="M1282 479q0 -256 -146.5 -384t-420.5 -128t-421 128t-147 384v975h242v-965q0 -149 82.5 -229t243.5 -80t243 80t82 229v965h242v-975zM369 1579l204 293h283l205 -293h-193l-153 193l-156 -193h-190z" />
    <glyph glyph-name="Udieresis" unicode="&#xdc;" horiz-adv-x="1429" 
d="M1282 479q0 -256 -146.5 -384t-420.5 -128t-421 128t-147 384v975h242v-965q0 -149 82.5 -229t243.5 -80t243 80t82 229v965h242v-975zM412 1618v231h219v-231h-219zM797 1618v231h219v-231h-219z" />
    <glyph glyph-name="Yacute" unicode="&#xdd;" horiz-adv-x="1314" 
d="M1292 1454l-514 -840v-614h-243v616l-512 838h268l371 -625l370 625h260zM555 1579l143 293h248l-192 -293h-199z" />
    <glyph glyph-name="Thorn" unicode="&#xde;" horiz-adv-x="1368" 
d="M399 0h-241v1454h241v-254h424q218 0 347.5 -121t129.5 -327t-129.5 -326.5t-347.5 -120.5h-424v-305zM399 506h385q128 0 201.5 64t73.5 182q0 120 -73.5 183.5t-201.5 63.5h-385v-493z" />
    <glyph glyph-name="germandbls" unicode="&#xdf;" horiz-adv-x="1218" 
d="M586 1485q194 0 316 -110.5t122 -266.5q0 -202 -170 -285q139 -43 215 -142.5t76 -246.5q0 -125 -52 -226t-156.5 -162.5t-244.5 -61.5q-120 0 -233 30l35 183q122 -23 178 -23q108 0 175.5 72t67.5 194q0 126 -87.5 195.5t-245.5 69.5h-50v180h50q106 0 163.5 56.5
t57.5 152.5q0 89 -61.5 144.5t-157.5 55.5q-107 0 -169.5 -69t-62.5 -197v-1028h-225v1042q0 109 36.5 195t100 139.5t145.5 81t177 27.5z" />
    <glyph glyph-name="agrave" unicode="&#xe0;" horiz-adv-x="1120" 
d="M453 -33q-76 0 -141 16.5t-117 50t-81.5 91t-29.5 133.5q0 69 25.5 124.5t65.5 92t103 65.5t124.5 46t142.5 32l235 44v36q0 84 -57.5 130t-155.5 46q-97 0 -167 -38.5t-162 -130.5l-142 131q96 115 208.5 170t256.5 55q210 0 322 -98t112 -261v-702h-202v117
q-105 -150 -340 -150zM281 1460h249l144 -293h-199zM305 270q0 -58 47.5 -90.5t132.5 -32.5q124 0 209.5 66t85.5 190v95l-178 -37q-76 -16 -122.5 -29.5t-90.5 -35.5t-64 -53t-20 -73z" />
    <glyph glyph-name="aacute" unicode="&#xe1;" horiz-adv-x="1120" 
d="M453 -33q-76 0 -141 16.5t-117 50t-81.5 91t-29.5 133.5q0 69 25.5 124.5t65.5 92t103 65.5t124.5 46t142.5 32l235 44v36q0 84 -57.5 130t-155.5 46q-97 0 -167 -38.5t-162 -130.5l-142 131q96 115 208.5 170t256.5 55q210 0 322 -98t112 -261v-702h-202v117
q-105 -150 -340 -150zM305 270q0 -58 47.5 -90.5t132.5 -32.5q124 0 209.5 66t85.5 190v95l-178 -37q-76 -16 -122.5 -29.5t-90.5 -35.5t-64 -53t-20 -73zM467 1167l143 293h248l-192 -293h-199z" />
    <glyph glyph-name="acircumflex" unicode="&#xe2;" horiz-adv-x="1120" 
d="M453 -33q-76 0 -141 16.5t-117 50t-81.5 91t-29.5 133.5q0 69 25.5 124.5t65.5 92t103 65.5t124.5 46t142.5 32l235 44v36q0 84 -57.5 130t-155.5 46q-97 0 -167 -38.5t-162 -130.5l-142 131q96 115 208.5 170t256.5 55q210 0 322 -98t112 -261v-702h-202v117
q-105 -150 -340 -150zM223 1167l205 293h283l204 -293h-192l-154 193l-155 -193h-191zM305 270q0 -58 47.5 -90.5t132.5 -32.5q124 0 209.5 66t85.5 190v95l-178 -37q-76 -16 -122.5 -29.5t-90.5 -35.5t-64 -53t-20 -73z" />
    <glyph glyph-name="atilde" unicode="&#xe3;" horiz-adv-x="1120" 
d="M453 -33q-76 0 -141 16.5t-117 50t-81.5 91t-29.5 133.5q0 69 25.5 124.5t65.5 92t103 65.5t124.5 46t142.5 32l235 44v36q0 84 -57.5 130t-155.5 46q-97 0 -167 -38.5t-162 -130.5l-142 131q96 115 208.5 170t256.5 55q210 0 322 -98t112 -261v-702h-202v117
q-105 -150 -340 -150zM231 1178q0 117 56.5 182t142.5 65q54 0 106.5 -26t96.5 -52t78 -26q65 0 65 102h133q0 -117 -51 -181t-135 -64q-47 0 -101 25.5t-103 51t-83 25.5q-33 0 -51 -29.5t-18 -72.5h-136zM305 270q0 -58 47.5 -90.5t132.5 -32.5q124 0 209.5 66t85.5 190
v95l-178 -37q-76 -16 -122.5 -29.5t-90.5 -35.5t-64 -53t-20 -73z" />
    <glyph glyph-name="adieresis" unicode="&#xe4;" horiz-adv-x="1120" 
d="M453 -33q-76 0 -141 16.5t-117 50t-81.5 91t-29.5 133.5q0 69 25.5 124.5t65.5 92t103 65.5t124.5 46t142.5 32l235 44v36q0 84 -57.5 130t-155.5 46q-97 0 -167 -38.5t-162 -130.5l-142 131q96 115 208.5 170t256.5 55q210 0 322 -98t112 -261v-702h-202v117
q-105 -150 -340 -150zM266 1206v232h219v-232h-219zM305 270q0 -58 47.5 -90.5t132.5 -32.5q124 0 209.5 66t85.5 190v95l-178 -37q-76 -16 -122.5 -29.5t-90.5 -35.5t-64 -53t-20 -73zM651 1206v232h219v-232h-219z" />
    <glyph glyph-name="aring" unicode="&#xe5;" horiz-adv-x="1120" 
d="M453 -33q-76 0 -141 16.5t-117 50t-81.5 91t-29.5 133.5q0 69 25.5 124.5t65.5 92t103 65.5t124.5 46t142.5 32l235 44v36q0 84 -57.5 130t-155.5 46q-97 0 -167 -38.5t-162 -130.5l-142 131q96 115 208.5 170t256.5 55q210 0 322 -98t112 -261v-702h-202v117
q-105 -150 -340 -150zM305 270q0 -58 47.5 -90.5t132.5 -32.5q124 0 209.5 66t85.5 190v95l-178 -37q-76 -16 -122.5 -29.5t-90.5 -35.5t-64 -53t-20 -73zM334 1386q0 94 69.5 161t167.5 67q97 0 166.5 -67t69.5 -161t-69.5 -160.5t-166.5 -66.5q-98 0 -167.5 66.5
t-69.5 160.5zM449 1386q0 -55 34.5 -89.5t87.5 -34.5t87 34.5t34 89.5t-34 90t-87 35t-87.5 -35t-34.5 -90z" />
    <glyph glyph-name="ae" unicode="&#xe6;" horiz-adv-x="1837" 
d="M1286 1061q226 0 350.5 -135t124.5 -371q0 -44 -4 -90h-751q11 -135 86.5 -220t216.5 -85q93 0 158.5 33t162.5 120l129 -137q-110 -114 -216.5 -160.5t-237.5 -46.5t-235.5 45.5t-170.5 130.5q-175 -178 -434 -178q-113 0 -196.5 28.5t-134 94.5t-50.5 164q0 144 98 225
t312 121l286 53v31q0 97 -53 143.5t-162 46.5q-84 0 -156.5 -36.5t-162.5 -128.5l-146 133q107 113 216.5 166t256.5 53q248 0 355 -146q136 146 358 146zM307 272q0 -62 49.5 -93.5t137.5 -31.5q95 0 177.5 39.5t141.5 112.5q-29 91 -31 195l-245 -56q-120 -27 -175 -65.5
t-55 -100.5zM1010 623h532q-6 121 -73 192.5t-185 71.5q-113 0 -183 -70t-91 -194z" />
    <glyph glyph-name="ccedilla" unicode="&#xe7;" horiz-adv-x="1056" 
d="M866 727q-83 83 -146 113t-134 30q-91 0 -157.5 -50.5t-98 -129.5t-31.5 -176q0 -149 75.5 -250.5t211.5 -101.5q78 0 142.5 36t148.5 128l149 -125q-94 -120 -188 -172t-213 -58l-50 -106q98 1 158 -45t60 -119q0 -86 -62.5 -139.5t-163.5 -53.5q-111 0 -229 78l61 97
q95 -56 166 -56q43 0 72 19t29 53q0 31 -33 49.5t-78 18.5q-29 0 -57 -7l-64 60l70 153q-199 27 -316.5 171t-117.5 370q0 249 143 398t373 149q128 0 227 -44.5t197 -150.5z" />
    <glyph glyph-name="egrave" unicode="&#xe8;" horiz-adv-x="1124" 
d="M596 -31q-243 0 -384.5 146.5t-141.5 392.5q0 245 137 399t368 154q226 0 350 -135t124 -371q0 -42 -5 -92h-753q13 -135 90 -219t219 -84q91 0 157.5 33t162.5 120l131 -137q-110 -113 -218 -160t-237 -47zM297 627h530q-6 119 -73.5 187.5t-184.5 68.5
q-112 0 -181 -67.5t-91 -188.5zM305 1460h250l143 -293h-198z" />
    <glyph glyph-name="eacute" unicode="&#xe9;" horiz-adv-x="1124" 
d="M596 -31q-243 0 -384.5 146.5t-141.5 392.5q0 245 137 399t368 154q226 0 350 -135t124 -371q0 -42 -5 -92h-753q13 -135 90 -219t219 -84q91 0 157.5 33t162.5 120l131 -137q-110 -113 -218 -160t-237 -47zM297 627h530q-6 119 -73.5 187.5t-184.5 68.5
q-112 0 -181 -67.5t-91 -188.5zM492 1167l143 293h248l-193 -293h-198z" />
    <glyph glyph-name="ecircumflex" unicode="&#xea;" horiz-adv-x="1124" 
d="M596 -31q-243 0 -384.5 146.5t-141.5 392.5q0 245 137 399t368 154q226 0 350 -135t124 -371q0 -42 -5 -92h-753q13 -135 90 -219t219 -84q91 0 157.5 33t162.5 120l131 -137q-110 -113 -218 -160t-237 -47zM248 1167l205 293h282l205 -293h-192l-154 193l-156 -193h-190
zM297 627h530q-6 119 -73.5 187.5t-184.5 68.5q-112 0 -181 -67.5t-91 -188.5z" />
    <glyph glyph-name="edieresis" unicode="&#xeb;" horiz-adv-x="1124" 
d="M596 -31q-243 0 -384.5 146.5t-141.5 392.5q0 245 137 399t368 154q226 0 350 -135t124 -371q0 -42 -5 -92h-753q13 -135 90 -219t219 -84q91 0 157.5 33t162.5 120l131 -137q-110 -113 -218 -160t-237 -47zM293 1206v232h219v-232h-219zM297 627h530q-6 119 -73.5 187.5
t-184.5 68.5q-112 0 -181 -67.5t-91 -188.5zM678 1206v232h219v-232h-219z" />
    <glyph glyph-name="igrave" unicode="&#xec;" horiz-adv-x="477" 
d="M352 1028v-1028h-225v1028h225zM-51 1460h250l143 -293h-199z" />
    <glyph glyph-name="iacute" unicode="&#xed;" horiz-adv-x="477" 
d="M352 1028v-1028h-225v1028h225zM135 1167l144 293h247l-192 -293h-199z" />
    <glyph glyph-name="icircumflex" unicode="&#xee;" horiz-adv-x="477" 
d="M352 1028v-1028h-225v1028h225zM-106 1167l204 293h283l205 -293h-193l-153 193l-156 -193h-190z" />
    <glyph glyph-name="idieresis" unicode="&#xef;" horiz-adv-x="477" 
d="M352 1028v-1028h-225v1028h225zM-63 1206v232h219v-232h-219zM322 1206v232h219v-232h-219z" />
    <glyph glyph-name="eth" unicode="&#xf0;" horiz-adv-x="1181" 
d="M453 1452q136 -48 235 -106l168 106l72 -100l-129 -82q143 -115 213.5 -279.5t70.5 -390.5q0 -298 -138 -466.5t-378 -168.5q-116 0 -211.5 42.5t-157 114.5t-95 164t-33.5 193q0 133 53 244t157.5 180.5t241.5 69.5q106 0 193 -43t143 -121q-24 107 -83 190t-165 152
l-190 -121l-72 100l139 89q-55 28 -116 51l-99 37l84 178zM295 473q0 -132 74.5 -220.5t197.5 -88.5q122 0 199.5 89t77.5 220q0 130 -81.5 219.5t-203.5 89.5q-120 0 -192 -88t-72 -221z" />
    <glyph glyph-name="ntilde" unicode="&#xf1;" horiz-adv-x="1146" 
d="M653 1061q177 0 273 -99t96 -257v-705h-225v635q0 114 -55 173.5t-158 59.5q-100 0 -166 -67.5t-66 -171.5v-629h-225v1028h209v-125q50 76 131 117t186 41zM231 1178q0 117 56.5 182t142.5 65q54 0 106.5 -26t96.5 -52t78 -26q65 0 65 102h133q0 -117 -51 -181t-135 -64
q-47 0 -101 25.5t-103 51t-83 25.5q-33 0 -51 -29.5t-18 -72.5h-136z" />
    <glyph glyph-name="ograve" unicode="&#xf2;" horiz-adv-x="1185" 
d="M594 1061q230 0 376 -152t146 -395q0 -242 -146 -393.5t-376 -151.5q-232 0 -378 151t-146 394q0 244 146 395.5t378 151.5zM299 514q0 -160 80 -257t215 -97q132 0 212.5 97t80.5 257q0 161 -80.5 258.5t-212.5 97.5q-135 0 -215 -97t-80 -259zM299 1460h250l143 -293
h-198z" />
    <glyph glyph-name="oacute" unicode="&#xf3;" horiz-adv-x="1185" 
d="M594 1061q230 0 376 -152t146 -395q0 -242 -146 -393.5t-376 -151.5q-232 0 -378 151t-146 394q0 244 146 395.5t378 151.5zM299 514q0 -160 80 -257t215 -97q132 0 212.5 97t80.5 257q0 161 -80.5 258.5t-212.5 97.5q-135 0 -215 -97t-80 -259zM485 1167l144 293h248
l-193 -293h-199z" />
    <glyph glyph-name="ocircumflex" unicode="&#xf4;" horiz-adv-x="1185" 
d="M594 1061q230 0 376 -152t146 -395q0 -242 -146 -393.5t-376 -151.5q-232 0 -378 151t-146 394q0 244 146 395.5t378 151.5zM242 1167l204 293h283l205 -293h-193l-153 193l-156 -193h-190zM299 514q0 -160 80 -257t215 -97q132 0 212.5 97t80.5 257q0 161 -80.5 258.5
t-212.5 97.5q-135 0 -215 -97t-80 -259z" />
    <glyph glyph-name="otilde" unicode="&#xf5;" horiz-adv-x="1185" 
d="M594 1061q230 0 376 -152t146 -395q0 -242 -146 -393.5t-376 -151.5q-232 0 -378 151t-146 394q0 244 146 395.5t378 151.5zM250 1178q0 117 56.5 182t142.5 65q43 0 85.5 -16.5t71 -35.5t62 -35.5t61.5 -16.5q66 0 66 102h133q0 -117 -51.5 -181t-135.5 -64
q-47 0 -101 25.5t-102.5 51t-82.5 25.5q-33 0 -51.5 -29.5t-18.5 -72.5h-135zM299 514q0 -160 80 -257t215 -97q132 0 212.5 97t80.5 257q0 161 -80.5 258.5t-212.5 97.5q-135 0 -215 -97t-80 -259z" />
    <glyph glyph-name="odieresis" unicode="&#xf6;" horiz-adv-x="1185" 
d="M594 1061q230 0 376 -152t146 -395q0 -242 -146 -393.5t-376 -151.5q-232 0 -378 151t-146 394q0 244 146 395.5t378 151.5zM287 1206v232h219v-232h-219zM299 514q0 -160 80 -257t215 -97q132 0 212.5 97t80.5 257q0 161 -80.5 258.5t-212.5 97.5q-135 0 -215 -97
t-80 -259zM672 1206v232h219v-232h-219z" />
    <glyph glyph-name="divide" unicode="&#xf7;" horiz-adv-x="1228" 
d="M1147 731v-192h-1065v192h1065zM487 127v262h254v-262h-254zM487 881v262h254v-262h-254z" />
    <glyph glyph-name="oslash" unicode="&#xf8;" horiz-adv-x="1185" 
d="M1018 997l-55 -79q153 -153 153 -404q0 -242 -146 -393.5t-376 -151.5q-140 0 -254 60l-55 -80l-121 86l57 80q-151 151 -151 399q0 244 146 395.5t378 151.5q137 0 248 -57l55 77zM299 514q0 -127 51 -215l377 539q-54 32 -133 32q-135 0 -215 -97t-80 -259zM455 193
q68 -33 139 -33q132 0 212.5 97t80.5 257q0 133 -53 219z" />
    <glyph glyph-name="ugrave" unicode="&#xf9;" horiz-adv-x="1130" 
d="M1004 1028v-1028h-207v119q-43 -70 -120.5 -110t-184.5 -40q-186 0 -276.5 90.5t-90.5 239.5v729h225v-668q0 -94 48.5 -145t142.5 -51q107 0 172 62t65 180v622h226zM262 1460h250l143 -293h-198z" />
    <glyph glyph-name="uacute" unicode="&#xfa;" horiz-adv-x="1130" 
d="M1004 1028v-1028h-207v119q-43 -70 -120.5 -110t-184.5 -40q-186 0 -276.5 90.5t-90.5 239.5v729h225v-668q0 -94 48.5 -145t142.5 -51q107 0 172 62t65 180v622h226zM446 1167l144 293h248l-193 -293h-199z" />
    <glyph glyph-name="ucircumflex" unicode="&#xfb;" horiz-adv-x="1130" 
d="M1004 1028v-1028h-207v119q-43 -70 -120.5 -110t-184.5 -40q-186 0 -276.5 90.5t-90.5 239.5v729h225v-668q0 -94 48.5 -145t142.5 -51q107 0 172 62t65 180v622h226zM205 1167l205 293h282l205 -293h-192l-154 193l-156 -193h-190z" />
    <glyph glyph-name="udieresis" unicode="&#xfc;" horiz-adv-x="1130" 
d="M1004 1028v-1028h-207v119q-43 -70 -120.5 -110t-184.5 -40q-186 0 -276.5 90.5t-90.5 239.5v729h225v-668q0 -94 48.5 -145t142.5 -51q107 0 172 62t65 180v622h226zM248 1206v232h219v-232h-219zM633 1206v232h219v-232h-219z" />
    <glyph glyph-name="yacute" unicode="&#xfd;" horiz-adv-x="1032" 
d="M602 -127q-51 -146 -126 -208t-210 -62q-97 0 -180 22l37 170q74 -12 117 -12q60 0 100 31t68 114l6 19l-387 1081h237l101 -301q85 -250 157 -483q77 253 154 485l100 299h230zM412 1167l143 293h248l-193 -293h-198z" />
    <glyph glyph-name="thorn" unicode="&#xfe;" horiz-adv-x="1202" 
d="M352 1456v-551q111 152 324 152q199 0 326.5 -149t127.5 -392q0 -245 -128 -394t-328 -149q-211 0 -322 146v-488h-225v1825h225zM342 516q0 -161 81 -254.5t206 -93.5q122 0 197 94.5t75 253.5q0 158 -73.5 253t-198.5 95q-127 0 -207 -94t-80 -254z" />
    <glyph glyph-name="ydieresis" unicode="&#xff;" horiz-adv-x="1032" 
d="M602 -127q-51 -146 -126 -208t-210 -62q-97 0 -180 22l37 170q74 -12 117 -12q60 0 100 31t68 114l6 19l-387 1081h237l101 -301q85 -250 157 -483q77 253 154 485l100 299h230zM213 1206v232h219v-232h-219zM598 1206v232h219v-232h-219z" />
    <glyph glyph-name="Amacron" unicode="&#x100;" horiz-adv-x="1419" 
d="M27 0l524 1454h317l525 -1454h-252l-115 328h-641l-113 -328h-245zM399 1624v168h617v-168h-617zM455 528h501l-61 179q-153 444 -188 563q-45 -153 -191 -565z" />
    <glyph glyph-name="amacron" unicode="&#x101;" horiz-adv-x="1120" 
d="M453 -33q-76 0 -141 16.5t-117 50t-81.5 91t-29.5 133.5q0 69 25.5 124.5t65.5 92t103 65.5t124.5 46t142.5 32l235 44v36q0 84 -57.5 130t-155.5 46q-97 0 -167 -38.5t-162 -130.5l-142 131q96 115 208.5 170t256.5 55q210 0 322 -98t112 -261v-702h-202v117
q-105 -150 -340 -150zM262 1212v168h617v-168h-617zM305 270q0 -58 47.5 -90.5t132.5 -32.5q124 0 209.5 66t85.5 190v95l-178 -37q-76 -16 -122.5 -29.5t-90.5 -35.5t-64 -53t-20 -73z" />
    <glyph glyph-name="Abreve" unicode="&#x102;" horiz-adv-x="1419" 
d="M27 0l524 1454h317l525 -1454h-252l-115 328h-641l-113 -328h-245zM391 1849h160q0 -65 41 -105t117 -40q75 0 115 39.5t42 105.5h158q0 -135 -88.5 -210.5t-226.5 -75.5q-140 0 -229 75.5t-89 210.5zM455 528h501l-61 179q-153 444 -188 563q-45 -153 -191 -565z" />
    <glyph glyph-name="abreve" unicode="&#x103;" horiz-adv-x="1120" 
d="M453 -33q-76 0 -141 16.5t-117 50t-81.5 91t-29.5 133.5q0 69 25.5 124.5t65.5 92t103 65.5t124.5 46t142.5 32l235 44v36q0 84 -57.5 130t-155.5 46q-97 0 -167 -38.5t-162 -130.5l-142 131q96 115 208.5 170t256.5 55q210 0 322 -98t112 -261v-702h-202v117
q-105 -150 -340 -150zM252 1438h160q0 -65 40.5 -105.5t116.5 -40.5q75 0 115.5 40t42.5 106h158q0 -135 -89 -211t-227 -76q-140 0 -228.5 76t-88.5 211zM305 270q0 -58 47.5 -90.5t132.5 -32.5q124 0 209.5 66t85.5 190v95l-178 -37q-76 -16 -122.5 -29.5t-90.5 -35.5
t-64 -53t-20 -73z" />
    <glyph glyph-name="Aogonek" unicode="&#x104;" horiz-adv-x="1419" 
d="M27 0l524 1454h317l525 -1454q-170 -110 -170 -217q0 -38 26.5 -59t73.5 -21q29 0 57 8v-135q-35 -14 -90 -14q-110 0 -168.5 48.5t-58.5 133.5q0 136 145 256h-67l-115 328h-641l-113 -328h-245zM455 528h501l-61 179q-153 444 -188 563q-45 -153 -191 -565z" />
    <glyph glyph-name="aogonek" unicode="&#x105;" horiz-adv-x="1120" 
d="M453 -33q-76 0 -141 16.5t-117 50t-81.5 91t-29.5 133.5q0 69 25.5 124.5t65.5 92t103 65.5t124.5 46t142.5 32l235 44v36q0 84 -57.5 130t-155.5 46q-97 0 -167 -38.5t-162 -130.5l-142 131q96 115 208.5 170t256.5 55q210 0 322 -98t112 -261v-702h2
q-170 -110 -170 -217q0 -38 26.5 -59t74.5 -21q29 0 57 8v-135q-35 -14 -90 -14q-110 0 -168.5 48.5t-58.5 133.5q0 136 145 256h-20v117q-105 -150 -340 -150zM305 270q0 -58 47.5 -90.5t132.5 -32.5q124 0 209.5 66t85.5 190v95l-178 -37q-76 -16 -122.5 -29.5
t-90.5 -35.5t-64 -53t-20 -73z" />
    <glyph glyph-name="Cacute" unicode="&#x106;" horiz-adv-x="1380" 
d="M795 1487q154 0 276.5 -49t253.5 -162l-141 -168q-113 96 -202 132t-189 36q-215 0 -341 -150t-126 -397q0 -248 125.5 -399.5t332.5 -151.5q116 0 206.5 45.5t213.5 153.5l146 -164q-139 -131 -269 -188.5t-293 -57.5q-216 0 -379 100t-247 272t-84 390
q0 162 48.5 300.5t138 240.5t226 159.5t304.5 57.5zM694 1579l144 293h247l-192 -293h-199z" />
    <glyph glyph-name="cacute" unicode="&#x107;" horiz-adv-x="1056" 
d="M866 727q-83 83 -146 113t-134 30q-91 0 -157.5 -50.5t-98 -129.5t-31.5 -176q0 -149 75.5 -250.5t211.5 -101.5q78 0 142.5 36t148.5 128l149 -125q-103 -129 -205 -180.5t-237 -51.5q-232 0 -373 148t-141 397t143 398t373 149q128 0 227 -44.5t197 -150.5zM473 1167
l143 293h248l-192 -293h-199z" />
    <glyph glyph-name="Cdotaccent" unicode="&#x10a;" horiz-adv-x="1380" 
d="M795 1487q154 0 276.5 -49t253.5 -162l-141 -168q-113 96 -202 132t-189 36q-215 0 -341 -150t-126 -397q0 -248 125.5 -399.5t332.5 -151.5q116 0 206.5 45.5t213.5 153.5l146 -164q-139 -131 -269 -188.5t-293 -57.5q-216 0 -379 100t-247 272t-84 390
q0 162 48.5 300.5t138 240.5t226 159.5t304.5 57.5zM684 1618v231h225v-231h-225z" />
    <glyph glyph-name="cdotaccent" unicode="&#x10b;" horiz-adv-x="1056" 
d="M866 727q-83 83 -146 113t-134 30q-91 0 -157.5 -50.5t-98 -129.5t-31.5 -176q0 -149 75.5 -250.5t211.5 -101.5q78 0 142.5 36t148.5 128l149 -125q-103 -129 -205 -180.5t-237 -51.5q-232 0 -373 148t-141 397t143 398t373 149q128 0 227 -44.5t197 -150.5zM465 1206
v232h225v-232h-225z" />
    <glyph glyph-name="Ccaron" unicode="&#x10c;" horiz-adv-x="1380" 
d="M795 1487q154 0 276.5 -49t253.5 -162l-141 -168q-113 96 -202 132t-189 36q-215 0 -341 -150t-126 -397q0 -248 125.5 -399.5t332.5 -151.5q116 0 206.5 45.5t213.5 153.5l146 -164q-139 -131 -269 -188.5t-293 -57.5q-216 0 -379 100t-247 272t-84 390
q0 162 48.5 300.5t138 240.5t226 159.5t304.5 57.5zM451 1872h192l156 -193l153 193h191l-205 -293h-283z" />
    <glyph glyph-name="ccaron" unicode="&#x10d;" horiz-adv-x="1056" 
d="M866 727q-83 83 -146 113t-134 30q-91 0 -157.5 -50.5t-98 -129.5t-31.5 -176q0 -149 75.5 -250.5t211.5 -101.5q78 0 142.5 36t148.5 128l149 -125q-103 -129 -205 -180.5t-237 -51.5q-232 0 -373 148t-141 397t143 398t373 149q128 0 227 -44.5t197 -150.5zM229 1460
h193l156 -192l153 192h191l-205 -293h-283z" />
    <glyph glyph-name="Dcaron" unicode="&#x10e;" horiz-adv-x="1458" 
d="M727 1454q154 0 278 -54t206 -150.5t125.5 -230t43.5 -292.5t-43.5 -292.5t-125.5 -230t-206 -150.5t-278 -54h-569v1454h569zM375 1872h192l156 -193l154 193h190l-205 -293h-282zM399 205h291q205 0 324 135t119 387t-119 387t-324 135h-291v-1044z" />
    <glyph glyph-name="dcaron" unicode="&#x10f;" horiz-adv-x="1523" 
d="M524 -29q-199 0 -326.5 149t-127.5 394q0 244 129 393.5t327 149.5q213 0 322 -150v547h225v-1454h-209v150q-111 -179 -340 -179zM299 514q0 -159 73 -254.5t197 -95.5q128 0 207.5 94t79.5 256t-80 255t-205 93q-122 0 -197 -95t-75 -253zM1229 1030l57 424h223
l-141 -424h-139z" />
    <glyph glyph-name="Dcroat" unicode="&#x110;" horiz-adv-x="1517" 
d="M821 852v-203h-362v-444h289q206 0 324 135t118 387t-118 387t-324 135h-289v-397h362zM53 649v203h162v602h571q205 0 354 -93.5t224.5 -257t75.5 -376.5t-75.5 -376.5t-224.5 -257t-354 -93.5h-571v649h-162z" />
    <glyph glyph-name="dcroat" unicode="&#x111;" horiz-adv-x="1245" 
d="M526 -29q-199 0 -326.5 148t-127.5 387q0 240 129 388t327 148q213 0 322 -147v252h-256v156h256v151h225v-151h146v-156h-146v-1147h-209v147q-111 -176 -340 -176zM301 506q0 -154 73.5 -248t196.5 -94q128 0 207.5 93t79.5 249q0 158 -80 250t-205 92q-122 0 -197 -94
t-75 -248z" />
    <glyph glyph-name="Emacron" unicode="&#x112;" horiz-adv-x="1269" 
d="M1155 1454v-205h-756v-397h705v-203h-705v-444h777v-205h-1018v1454h997zM356 1624v168h617v-168h-617z" />
    <glyph glyph-name="emacron" unicode="&#x113;" horiz-adv-x="1124" 
d="M596 -31q-243 0 -384.5 146.5t-141.5 392.5q0 245 137 399t368 154q226 0 350 -135t124 -371q0 -42 -5 -92h-753q13 -135 90 -219t219 -84q91 0 157.5 33t162.5 120l131 -137q-110 -113 -218 -160t-237 -47zM287 1212v168h616v-168h-616zM297 627h530q-6 119 -73.5 187.5
t-184.5 68.5q-112 0 -181 -67.5t-91 -188.5z" />
    <glyph glyph-name="Edotaccent" unicode="&#x116;" horiz-adv-x="1269" 
d="M1155 1454v-205h-756v-397h705v-203h-705v-444h777v-205h-1018v1454h997zM551 1618v231h225v-231h-225z" />
    <glyph glyph-name="edotaccent" unicode="&#x117;" horiz-adv-x="1124" 
d="M596 -31q-243 0 -384.5 146.5t-141.5 392.5q0 245 137 399t368 154q226 0 350 -135t124 -371q0 -42 -5 -92h-753q13 -135 90 -219t219 -84q91 0 157.5 33t162.5 120l131 -137q-110 -113 -218 -160t-237 -47zM297 627h530q-6 119 -73.5 187.5t-184.5 68.5
q-112 0 -181 -67.5t-91 -188.5zM481 1206v232h226v-232h-226z" />
    <glyph glyph-name="Eogonek" unicode="&#x118;" horiz-adv-x="1269" 
d="M1155 1454v-205h-756v-397h705v-203h-705v-444h777v-205q-170 -110 -170 -217q0 -38 26.5 -59t73.5 -21q29 0 57 8v-135q-35 -14 -90 -14q-110 0 -168.5 48.5t-58.5 133.5q0 136 145 256h-833v1454h997z" />
    <glyph glyph-name="eogonek" unicode="&#x119;" horiz-adv-x="1122" 
d="M840 -438q-111 0 -172.5 50.5t-61.5 137.5q0 124 96 230q-64 -11 -108 -11q-242 0 -384 146.5t-142 392.5q0 245 137 399t368 154q226 0 350 -135t124 -371q0 -42 -5 -92h-753q15 -135 91.5 -219t217.5 -84q92 0 158 33t164 120l129 -137q-39 -39 -97 -90
q-108 -96 -147 -164.5t-39 -130.5q0 -41 27.5 -64.5t76.5 -23.5q30 0 58 8v-137q-30 -12 -88 -12zM295 627h530q-6 119 -73 187.5t-185 68.5q-111 0 -180.5 -67t-91.5 -189z" />
    <glyph glyph-name="Ecaron" unicode="&#x11a;" horiz-adv-x="1269" 
d="M1155 1454v-205h-756v-397h705v-203h-705v-444h777v-205h-1018v1454h997zM317 1872h193l156 -193l153 193h191l-205 -293h-283z" />
    <glyph glyph-name="ecaron" unicode="&#x11b;" horiz-adv-x="1124" 
d="M596 -31q-243 0 -384.5 146.5t-141.5 392.5q0 245 137 399t368 154q226 0 350 -135t124 -371q0 -42 -5 -92h-753q13 -135 90 -219t219 -84q91 0 157.5 33t162.5 120l131 -137q-110 -113 -218 -160t-237 -47zM248 1460h192l156 -192l154 192h190l-205 -293h-282zM297 627
h530q-6 119 -73.5 187.5t-184.5 68.5q-112 0 -181 -67.5t-91 -188.5z" />
    <glyph glyph-name="Gbreve" unicode="&#x11e;" horiz-adv-x="1533" 
d="M799 1485q184 0 325 -64t281 -209l-152 -157q-126 120 -227.5 169.5t-230.5 49.5q-212 0 -340.5 -146.5t-128.5 -400.5q0 -257 123.5 -402t338.5 -145q181 0 288.5 97.5t107.5 265.5v39h-439v204h660v-786h-186l-15 160q-131 -191 -434 -191q-162 0 -293.5 56.5
t-218 157.5t-133.5 240.5t-47 305.5q0 163 49.5 301.5t140.5 239.5t227.5 158t303.5 57zM473 1849h160q0 -65 41 -105t117 -40q75 0 115 39.5t42 105.5h158q0 -135 -88.5 -210.5t-226.5 -75.5q-140 0 -229 75.5t-89 210.5z" />
    <glyph glyph-name="gbreve" unicode="&#x11f;" horiz-adv-x="1185" 
d="M571 -397q-253 0 -479 149l111 164q112 -68 193 -97.5t173 -29.5q121 0 195 65t74 203v107q-107 -146 -314 -146q-197 0 -323.5 146t-126.5 377q0 228 126.5 374t323.5 146q219 0 326 -162v129h209v-989q0 -207 -134 -321.5t-354 -114.5zM279 1438h159q0 -65 41 -105.5
t117 -40.5q75 0 115.5 40t42.5 106h157q0 -135 -88.5 -211t-226.5 -76q-140 0 -228.5 76t-88.5 211zM301 541q0 -149 72.5 -240.5t197.5 -91.5q121 0 197 92t76 240q0 146 -75.5 236.5t-197.5 90.5q-125 0 -197.5 -89.5t-72.5 -237.5z" />
    <glyph glyph-name="Gdotaccent" unicode="&#x120;" horiz-adv-x="1533" 
d="M799 1485q184 0 325 -64t281 -209l-152 -157q-126 120 -227.5 169.5t-230.5 49.5q-212 0 -340.5 -146.5t-128.5 -400.5q0 -257 123.5 -402t338.5 -145q181 0 288.5 97.5t107.5 265.5v39h-439v204h660v-786h-186l-15 160q-131 -191 -434 -191q-162 0 -293.5 56.5
t-218 157.5t-133.5 240.5t-47 305.5q0 163 49.5 301.5t140.5 239.5t227.5 158t303.5 57zM678 1618v231h225v-231h-225z" />
    <glyph glyph-name="gdotaccent" unicode="&#x121;" horiz-adv-x="1185" 
d="M571 -397q-253 0 -479 149l111 164q112 -68 193 -97.5t173 -29.5q121 0 195 65t74 203v107q-107 -146 -314 -146q-197 0 -323.5 146t-126.5 377q0 228 126.5 374t323.5 146q219 0 326 -162v129h209v-989q0 -207 -134 -321.5t-354 -114.5zM301 541q0 -149 72.5 -240.5
t197.5 -91.5q121 0 197 92t76 240q0 146 -75.5 236.5t-197.5 90.5q-125 0 -197.5 -89.5t-72.5 -237.5zM481 1206v232h226v-232h-226z" />
    <glyph glyph-name="uni0122" unicode="&#x122;" horiz-adv-x="1533" 
d="M799 1485q184 0 325 -64t281 -209l-152 -157q-126 120 -227.5 169.5t-230.5 49.5q-212 0 -340.5 -146.5t-128.5 -400.5q0 -257 123.5 -402t338.5 -145q181 0 288.5 97.5t107.5 265.5v39h-439v204h660v-786h-186l-15 160q-131 -191 -434 -191q-162 0 -293.5 56.5
t-218 157.5t-133.5 240.5t-47 305.5q0 163 49.5 301.5t140.5 239.5t227.5 158t303.5 57zM651 -524l123 190h-115v199h246v-199l-133 -190h-121z" />
    <glyph glyph-name="uni0123" unicode="&#x123;" horiz-adv-x="1185" 
d="M571 -397q-253 0 -479 149l111 164q112 -68 193 -97.5t173 -29.5q121 0 195 65t74 203v107q-107 -146 -314 -146q-197 0 -323.5 146t-126.5 377q0 228 126.5 374t323.5 146q219 0 326 -162v129h209v-989q0 -207 -134 -321.5t-354 -114.5zM301 541q0 -149 72.5 -240.5
t197.5 -91.5q121 0 197 92t76 240q0 146 -75.5 236.5t-197.5 90.5q-125 0 -197.5 -89.5t-72.5 -237.5zM473 1202v203l133 207h121l-121 -207h113v-203h-246z" />
    <glyph glyph-name="Hbar" unicode="&#x126;" horiz-adv-x="1615" 
d="M1554 1243v-168h-147v-1075h-244v657h-708v-657h-242v1075h-152v168h152v211h242v-211h708v211h244v-211h147zM455 862h708v213h-708v-213z" />
    <glyph glyph-name="hbar" unicode="&#x127;" horiz-adv-x="1189" 
d="M698 1047q178 0 272.5 -99t94.5 -258v-690h-225v621q0 114 -54 172.5t-157 58.5q-99 0 -166.5 -67.5t-67.5 -170.5v-614h-225v1147h-145v156h145v151h225v-151h256v-156h-256v-250q103 150 303 150z" />
    <glyph glyph-name="Itilde" unicode="&#x128;" horiz-adv-x="585" 
d="M414 1454v-1454h-242v1454h242zM-45 1589q0 117 56.5 182.5t142.5 65.5q43 0 85.5 -16.5t71 -35.5t62 -35.5t61.5 -16.5q66 0 66 102h133q0 -117 -51.5 -181.5t-135.5 -64.5q-37 0 -79.5 16t-73.5 35.5t-68 35.5t-65 16q-33 0 -51.5 -30t-18.5 -73h-135z" />
    <glyph glyph-name="itilde" unicode="&#x129;" horiz-adv-x="477" 
d="M352 1028v-1028h-225v1028h225zM-100 1178q0 117 56 182t142 65q54 0 106.5 -26t96.5 -52t78 -26q65 0 65 102h134q0 -117 -51.5 -181t-135.5 -64q-47 0 -101 25.5t-103 51t-83 25.5q-33 0 -51 -29.5t-18 -72.5h-135z" />
    <glyph glyph-name="Imacron" unicode="&#x12a;" horiz-adv-x="585" 
d="M414 1454v-1454h-242v1454h242zM-14 1624v168h616v-168h-616z" />
    <glyph glyph-name="imacron" unicode="&#x12b;" horiz-adv-x="477" 
d="M352 1028v-1028h-225v1028h225zM-70 1212v168h617v-168h-617z" />
    <glyph glyph-name="Iogonek" unicode="&#x12e;" horiz-adv-x="585" 
d="M414 1454v-1454h2q-170 -110 -170 -217q0 -38 26.5 -59t73.5 -21q29 0 57 8v-135q-35 -14 -90 -14q-110 0 -168.5 48.5t-58.5 133.5q0 136 145 256h-59v1454h242z" />
    <glyph glyph-name="iogonek" unicode="&#x12f;" horiz-adv-x="477" 
d="M352 1028v-1028q-170 -110 -170 -217q0 -38 26.5 -59t74.5 -21q29 0 57 8v-135q-35 -14 -90 -14q-110 0 -168.5 48.5t-58.5 133.5q0 136 145 256h-41v1028h225zM127 1206v232h225v-232h-225z" />
    <glyph glyph-name="Idotaccent" unicode="&#x130;" horiz-adv-x="585" 
d="M414 1454v-1454h-242v1454h242zM180 1618v231h226v-231h-226z" />
    <glyph glyph-name="dotlessi" unicode="&#x131;" horiz-adv-x="477" 
d="M352 1028v-1028h-225v1028h225z" />
    <glyph glyph-name="IJ" unicode="&#x132;" horiz-adv-x="1546" 
d="M414 1454v-1454h-242v1454h242zM602 63l76 193q87 -35 153.5 -52.5t137.5 -17.5q186 0 186 222v1046h242v-1071q0 -210 -110 -311t-308 -101q-189 0 -377 92z" />
    <glyph glyph-name="ij" unicode="&#x133;" horiz-adv-x="962" 
d="M352 1028v-1028h-225v1028h225zM127 1206v232h225v-232h-225zM324 -360l41 167q82 -16 127 -16q65 0 91.5 36t26.5 114v1087h226v-1085q0 -169 -76.5 -251.5t-231.5 -82.5q-109 0 -204 31zM612 1206v232h226v-232h-226z" />
    <glyph glyph-name="uni0136" unicode="&#x136;" horiz-adv-x="1390" 
d="M1350 1454l-545 -565l575 -889h-276l-461 717l-244 -252v-465h-241v1454h241v-694l650 694h301zM596 -524l123 190h-115v199h246v-199l-133 -190h-121z" />
    <glyph glyph-name="uni0137" unicode="&#x137;" horiz-adv-x="1087" 
d="M1055 1028l-383 -393l409 -635h-252l-313 492l-164 -166v-326h-225v1454h225v-881l432 455h271zM449 -524l122 190h-114v199h245v-199l-133 -190h-120z" />
    <glyph glyph-name="Lacute" unicode="&#x139;" horiz-adv-x="1146" 
d="M399 1454v-1247h691v-207h-932v1454h241zM176 1579l143 293h248l-192 -293h-199z" />
    <glyph glyph-name="lacute" unicode="&#x13a;" horiz-adv-x="487" 
d="M356 1454v-1454h-225v1454h225zM137 1559l144 292h247l-192 -292h-199z" />
    <glyph glyph-name="uni013B" unicode="&#x13b;" horiz-adv-x="1146" 
d="M399 1454v-1247h691v-207h-932v1454h241zM500 -524l123 190h-115v199h246v-199l-133 -190h-121z" />
    <glyph glyph-name="uni013C" unicode="&#x13c;" horiz-adv-x="487" 
d="M356 1454v-1454h-225v1454h225zM113 -524l123 190h-115v199h246v-199l-134 -190h-120z" />
    <glyph glyph-name="Lcaron" unicode="&#x13d;" horiz-adv-x="1146" 
d="M399 1454v-1247h691v-207h-932v1454h241zM582 1030l57 424h223l-141 -424h-139z" />
    <glyph glyph-name="lcaron" unicode="&#x13e;" horiz-adv-x="817" 
d="M356 1454v-1454h-225v1454h225zM522 1030l58 424h223l-141 -424h-140z" />
    <glyph glyph-name="Ldot" unicode="&#x13f;" horiz-adv-x="1124" 
d="M399 1454v-1247h691v-207h-932v1454h241zM668 625v262h254v-262h-254z" />
    <glyph glyph-name="ldot" unicode="&#x140;" horiz-adv-x="894" 
d="M356 1454v-1454h-225v1454h225zM555 530v263h254v-263h-254z" />
    <glyph glyph-name="Lslash" unicode="&#x141;" horiz-adv-x="1239" 
d="M47 463v207l201 110v674h241v-551l275 152v-205l-275 -152v-491h691v-207h-932v573z" />
    <glyph glyph-name="lslash" unicode="&#x142;" horiz-adv-x="718" 
d="M651 1036v-190l-176 -101v-745h-225v614l-182 -104v190l182 105v649h225v-518z" />
    <glyph glyph-name="Nacute" unicode="&#x143;" horiz-adv-x="1513" 
d="M1356 1454v-1454h-262l-396 623q-218 338 -315 512q10 -215 10 -564v-571h-235v1454h266l412 -647q225 -359 294 -483q-10 205 -10 540v590h236zM672 1579l143 293h248l-193 -293h-198z" />
    <glyph glyph-name="nacute" unicode="&#x144;" horiz-adv-x="1146" 
d="M653 1061q177 0 273 -99t96 -257v-705h-225v635q0 114 -55 173.5t-158 59.5q-100 0 -166 -67.5t-66 -171.5v-629h-225v1028h209v-125q50 76 131 117t186 41zM469 1167l143 293h248l-192 -293h-199z" />
    <glyph glyph-name="uni0145" unicode="&#x145;" horiz-adv-x="1513" 
d="M1356 1454v-1454h-262l-396 623q-218 338 -315 512q10 -215 10 -564v-571h-235v1454h266l412 -647q225 -359 294 -483q-10 205 -10 540v590h236zM633 -524l123 190h-115v199h246v-199l-133 -190h-121z" />
    <glyph glyph-name="uni0146" unicode="&#x146;" horiz-adv-x="1146" 
d="M653 1061q177 0 273 -99t96 -257v-705h-225v635q0 114 -55 173.5t-158 59.5q-100 0 -166 -67.5t-66 -171.5v-629h-225v1028h209v-125q50 76 131 117t186 41zM434 -524l123 190h-115v199h246v-199l-133 -190h-121z" />
    <glyph glyph-name="Ncaron" unicode="&#x147;" horiz-adv-x="1513" 
d="M1356 1454v-1454h-262l-396 623q-218 338 -315 512q10 -215 10 -564v-571h-235v1454h266l412 -647q225 -359 294 -483q-10 205 -10 540v590h236zM428 1872h193l155 -193l154 193h190l-205 -293h-282z" />
    <glyph glyph-name="ncaron" unicode="&#x148;" horiz-adv-x="1146" 
d="M653 1061q177 0 273 -99t96 -257v-705h-225v635q0 114 -55 173.5t-158 59.5q-100 0 -166 -67.5t-66 -171.5v-629h-225v1028h209v-125q50 76 131 117t186 41zM225 1460h193l155 -192l154 192h191l-205 -293h-283z" />
    <glyph glyph-name="Eng" unicode="&#x14a;" horiz-adv-x="1513" 
d="M1356 1454v-1524q0 -333 -318 -333q-120 0 -223 34l43 187q95 -25 146 -25q64 0 95 36.5t31 113.5l-432 678q-219 338 -315 514q10 -217 10 -564v-571h-235v1454h264l412 -645q22 -36 76 -121.5t82 -130.5t68 -112t70 -123q-10 205 -10 542v590h236z" />
    <glyph glyph-name="eng" unicode="&#x14b;" horiz-adv-x="1146" 
d="M715 -391q-109 0 -207 31l41 167q82 -16 127 -16q65 0 93 36t28 114v694q0 114 -55 173.5t-158 59.5q-100 0 -166 -67.5t-66 -171.5v-629h-225v1028h209v-125q50 76 131 117t186 41q178 0 273.5 -98.5t95.5 -257.5v-762q0 -334 -307 -334z" />
    <glyph glyph-name="Omacron" unicode="&#x14c;" horiz-adv-x="1566" 
d="M784 1487q214 0 375.5 -99.5t245.5 -271.5t84 -389t-84 -389t-245.5 -271.5t-375.5 -99.5q-161 0 -294.5 58t-223 159.5t-139 241t-49.5 301.5t49.5 301.5t139 241t223 159.5t294.5 58zM326 727q0 -246 125.5 -396.5t332.5 -150.5t332 150.5t125 396.5q0 245 -125.5 396
t-331.5 151t-332 -151t-126 -396zM475 1624v168h617v-168h-617z" />
    <glyph glyph-name="omacron" unicode="&#x14d;" horiz-adv-x="1185" 
d="M594 1061q230 0 376 -152t146 -395q0 -242 -146 -393.5t-376 -151.5q-232 0 -378 151t-146 394q0 244 146 395.5t378 151.5zM281 1212v168h616v-168h-616zM299 514q0 -160 80 -257t215 -97q132 0 212.5 97t80.5 257q0 161 -80.5 258.5t-212.5 97.5q-135 0 -215 -97
t-80 -259z" />
    <glyph glyph-name="Ohungarumlaut" unicode="&#x150;" horiz-adv-x="1566" 
d="M784 1487q214 0 375.5 -99.5t245.5 -271.5t84 -389t-84 -389t-245.5 -271.5t-375.5 -99.5q-161 0 -294.5 58t-223 159.5t-139 241t-49.5 301.5t49.5 301.5t139 241t223 159.5t294.5 58zM326 727q0 -246 125.5 -396.5t332.5 -150.5t332 150.5t125 396.5q0 245 -125.5 396
t-331.5 151t-332 -151t-126 -396zM535 1579l145 301h215l-197 -301h-163zM868 1579l146 301h215l-197 -301h-164z" />
    <glyph glyph-name="ohungarumlaut" unicode="&#x151;" horiz-adv-x="1185" 
d="M594 1061q230 0 376 -152t146 -395q0 -242 -146 -393.5t-376 -151.5q-232 0 -378 151t-146 394q0 244 146 395.5t378 151.5zM299 514q0 -160 80 -257t215 -97q132 0 212.5 97t80.5 257q0 161 -80.5 258.5t-212.5 97.5q-135 0 -215 -97t-80 -259zM338 1167l145 301h215
l-196 -301h-164zM672 1167l145 301h215l-196 -301h-164z" />
    <glyph glyph-name="OE" unicode="&#x152;" horiz-adv-x="2353" 
d="M776 1487q292 0 465 -207v174h997v-205h-755v-397h704v-203h-704v-444h776v-205h-1018v174q-173 -207 -465 -207q-214 0 -374 100t-242 271t-82 389t82 389t242 271t374 100zM326 727q0 -246 125.5 -396.5t332.5 -150.5t332 150.5t125 396.5q0 245 -125.5 396t-331.5 151
t-332 -151t-126 -396z" />
    <glyph glyph-name="oe" unicode="&#x153;" horiz-adv-x="1949" 
d="M594 1061q129 0 234.5 -51t175.5 -144q64 93 165 144t230 51q226 0 350.5 -135t124.5 -371q0 -44 -4 -90h-752q11 -136 86.5 -220.5t218.5 -84.5q92 0 159 33t161 120l131 -137q-110 -114 -216.5 -160.5t-238.5 -46.5q-138 0 -244.5 50t-173.5 143q-70 -92 -174 -142.5
t-233 -50.5q-232 0 -378 151t-146 394q0 244 146 395.5t378 151.5zM299 514q0 -160 80 -257t215 -97q132 0 212.5 97t80.5 257q0 161 -80.5 258.5t-212.5 97.5q-135 0 -215 -97t-80 -259zM1124 623h531q-5 121 -72 192.5t-186 71.5q-113 0 -182.5 -70t-90.5 -194z" />
    <glyph glyph-name="Racute" unicode="&#x154;" horiz-adv-x="1396" 
d="M811 1454q208 0 341.5 -122.5t133.5 -325.5q0 -163 -90 -277t-240 -151l383 -578h-272l-365 559h-303v-559h-241v1454h653zM399 760h369q130 0 204.5 64t74.5 182q0 119 -75 183t-204 64h-369v-493zM590 1579l143 293h248l-193 -293h-198z" />
    <glyph glyph-name="racute" unicode="&#x155;" horiz-adv-x="776" 
d="M594 1042q63 0 162 -30l-41 -195q-79 21 -131 21q-106 0 -169 -83t-63 -229v-526h-225v1028h209v-154q82 168 258 168zM338 1167l143 293h248l-192 -293h-199z" />
    <glyph glyph-name="uni0156" unicode="&#x156;" horiz-adv-x="1396" 
d="M811 1454q208 0 341.5 -122.5t133.5 -325.5q0 -163 -90 -277t-240 -151l383 -578h-272l-365 559h-303v-559h-241v1454h653zM399 760h369q130 0 204.5 64t74.5 182q0 119 -75 183t-204 64h-369v-493zM569 -524l123 190h-114v199h245v-199l-133 -190h-121z" />
    <glyph glyph-name="uni0157" unicode="&#x157;" horiz-adv-x="776" 
d="M594 1042q63 0 162 -30l-41 -195q-79 21 -131 21q-106 0 -169 -83t-63 -229v-526h-225v1028h209v-154q82 168 258 168zM106 -524l123 190h-114v199h245v-199l-133 -190h-121z" />
    <glyph glyph-name="Rcaron" unicode="&#x158;" horiz-adv-x="1396" 
d="M811 1454q208 0 341.5 -122.5t133.5 -325.5q0 -163 -90 -277t-240 -151l383 -578h-272l-365 559h-303v-559h-241v1454h653zM346 1872h193l155 -193l154 193h190l-204 -293h-283zM399 760h369q130 0 204.5 64t74.5 182q0 119 -75 183t-204 64h-369v-493z" />
    <glyph glyph-name="rcaron" unicode="&#x159;" horiz-adv-x="776" 
d="M594 1042q63 0 162 -30l-41 -195q-79 21 -131 21q-106 0 -169 -83t-63 -229v-526h-225v1028h209v-154q82 168 258 168zM94 1460h193l155 -192l154 192h190l-204 -293h-283z" />
    <glyph glyph-name="Sacute" unicode="&#x15a;" horiz-adv-x="1306" 
d="M643 1487q171 0 300.5 -51t266.5 -170l-141 -168q-123 103 -215.5 140.5t-214.5 37.5q-133 0 -214 -57t-81 -146q0 -28 8 -51t20 -40.5t39 -33.5t51 -27t70 -24.5t83 -22.5t102 -24q112 -26 190.5 -52.5t142.5 -61.5t102 -78.5t57.5 -100t19.5 -129.5q0 -205 -152.5 -333
t-404.5 -128q-186 0 -328 59t-303 201l145 170q148 -127 254 -173t236 -46q139 0 226 62t87 172q0 43 -19 75.5t-39.5 52t-78.5 40t-91 29.5t-121 29q-25 6 -38 9q-282 66 -390 156.5t-108 261.5q0 183 153 302.5t386 119.5zM549 1579l143 293h248l-192 -293h-199z" />
    <glyph glyph-name="sacute" unicode="&#x15b;" horiz-adv-x="1013" 
d="M502 1061q129 0 228.5 -35.5t205.5 -120.5l-123 -149q-94 71 -162.5 97t-152.5 26q-89 0 -143 -35t-54 -90q0 -52 46.5 -74t188.5 -54q14 -3 21 -5q215 -47 305 -117t90 -205q0 -148 -115.5 -239t-312.5 -91q-142 0 -253.5 43t-233.5 150l131 147q111 -92 188 -124.5
t172 -32.5q89 0 146 36t57 97q0 35 -18 59t-56.5 40.5t-78.5 27t-104 24.5q-7 1 -11 2q-215 48 -296 112.5t-81 194.5q0 137 112.5 226.5t303.5 89.5zM414 1167l143 293h248l-193 -293h-198z" />
    <glyph glyph-name="Scedilla" unicode="&#x15e;" horiz-adv-x="1306" 
d="M643 1487q171 0 300.5 -51t266.5 -170l-141 -168q-123 103 -215.5 140.5t-214.5 37.5q-133 0 -214 -57t-81 -146q0 -28 8 -51t20 -40.5t39 -33.5t51 -27t70 -24.5t83 -22.5t102 -24q112 -26 190.5 -52.5t142.5 -61.5t102 -78.5t57.5 -100t19.5 -129.5q0 -200 -145 -327
t-386 -134l-49 -102q98 1 157.5 -45t59.5 -119q0 -86 -62 -139.5t-163 -53.5q-111 0 -229 78l61 97q95 -56 166 -56q43 0 71.5 19t28.5 53q0 31 -32.5 49.5t-77.5 18.5q-30 0 -58 -7l-63 60l70 151q-149 12 -273 71.5t-264 184.5l145 170q148 -127 254 -173t236 -46
q139 0 226 62t87 172q0 43 -19 75.5t-39.5 52t-78.5 40t-91 29.5t-121 29q-25 6 -38 9q-282 66 -390 156.5t-108 261.5q0 183 153 302.5t386 119.5z" />
    <glyph glyph-name="scedilla" unicode="&#x15f;" horiz-adv-x="1013" 
d="M502 1061q129 0 228.5 -35.5t205.5 -120.5l-123 -149q-94 71 -162.5 97t-152.5 26q-89 0 -143 -35t-54 -90q0 -52 46.5 -74t188.5 -54q14 -3 21 -5q215 -47 305 -117t90 -205q0 -143 -108 -233.5t-295 -96.5l-49 -104q98 1 157.5 -45t59.5 -119q0 -86 -62 -139.5
t-163 -53.5q-112 0 -230 78l62 97q95 -56 165 -56q43 0 72 19t29 53q0 31 -33 49.5t-78 18.5q-29 0 -57 -7l-64 60l70 153q-106 12 -198.5 56.5t-192.5 132.5l131 147q111 -92 188 -124.5t172 -32.5q89 0 146 36t57 97q0 35 -18 59t-56.5 40.5t-78.5 27t-104 24.5
q-7 1 -11 2q-215 48 -296 112.5t-81 194.5q0 137 112.5 226.5t303.5 89.5z" />
    <glyph glyph-name="Scaron" unicode="&#x160;" horiz-adv-x="1306" 
d="M643 1487q171 0 300.5 -51t266.5 -170l-141 -168q-123 103 -215.5 140.5t-214.5 37.5q-133 0 -214 -57t-81 -146q0 -28 8 -51t20 -40.5t39 -33.5t51 -27t70 -24.5t83 -22.5t102 -24q112 -26 190.5 -52.5t142.5 -61.5t102 -78.5t57.5 -100t19.5 -129.5q0 -205 -152.5 -333
t-404.5 -128q-186 0 -328 59t-303 201l145 170q148 -127 254 -173t236 -46q139 0 226 62t87 172q0 43 -19 75.5t-39.5 52t-78.5 40t-91 29.5t-121 29q-25 6 -38 9q-282 66 -390 156.5t-108 261.5q0 183 153 302.5t386 119.5zM305 1872h193l155 -193l154 193h190l-204 -293
h-283z" />
    <glyph glyph-name="scaron" unicode="&#x161;" horiz-adv-x="1013" 
d="M502 1061q129 0 228.5 -35.5t205.5 -120.5l-123 -149q-94 71 -162.5 97t-152.5 26q-89 0 -143 -35t-54 -90q0 -52 46.5 -74t188.5 -54q14 -3 21 -5q215 -47 305 -117t90 -205q0 -148 -115.5 -239t-312.5 -91q-142 0 -253.5 43t-233.5 150l131 147q111 -92 188 -124.5
t172 -32.5q89 0 146 36t57 97q0 35 -18 59t-56.5 40.5t-78.5 27t-104 24.5q-7 1 -11 2q-215 48 -296 112.5t-81 194.5q0 137 112.5 226.5t303.5 89.5zM170 1460h192l156 -192l154 192h190l-205 -293h-282z" />
    <glyph glyph-name="uni0162" unicode="&#x162;" horiz-adv-x="1255" 
d="M1198 1454v-207h-448v-1247h-56l-63 -135q98 1 157.5 -45t59.5 -119q0 -86 -62 -139.5t-163 -53.5q-112 0 -230 78l62 97q95 -56 166 -56q43 0 71.5 19t28.5 53q0 31 -33 49.5t-78 18.5q-29 0 -57 -7l-64 60l82 180h-65v1247h-447v207h1139z" />
    <glyph glyph-name="uni0163" unicode="&#x163;" horiz-adv-x="763" 
d="M449 281q0 -59 26 -84t84 -25q50 0 137 23l29 -179q-106 -36 -197 -39l-53 -112q98 1 157.5 -45t59.5 -119q0 -86 -62 -139.5t-163 -53.5q-111 0 -229 78l61 97q95 -56 166 -56q43 0 71.5 19t28.5 53q0 31 -32.5 49.5t-77.5 18.5q-30 0 -58 -7l-63 60l76 166
q-99 21 -143 87.5t-44 180.5v604h-186v170h186v332h226v-332h260v-170h-260v-577z" />
    <glyph glyph-name="Tcaron" unicode="&#x164;" horiz-adv-x="1255" 
d="M1198 1454v-207h-448v-1247h-244v1247h-447v207h1139zM281 1872h192l156 -193l153 193h191l-205 -293h-283z" />
    <glyph glyph-name="tcaron" unicode="&#x165;" horiz-adv-x="763" 
d="M449 281q0 -59 26 -84t84 -25q50 0 137 23l29 -179q-113 -39 -221 -39q-149 0 -215 69.5t-66 207.5v604h-186v170h186v332h226v-332h260v-170h-260v-577zM598 1192l57 424h224l-142 -424h-139z" />
    <glyph glyph-name="Tbar" unicode="&#x166;" horiz-adv-x="1249" 
d="M502 0v678h-256v168h256v401h-443v207h1131v-207h-445v-401h261v-168h-261v-678h-243z" />
    <glyph glyph-name="tbar" unicode="&#x167;" horiz-adv-x="763" 
d="M504 -23q-149 0 -215 69.5t-66 207.5v203h-186v174h186v227h-186v170h186v332h226v-332h260v-170h-260v-227h260v-174h-260v-176q0 -59 26 -84t84 -25q50 0 137 23l29 -179q-113 -39 -221 -39z" />
    <glyph glyph-name="Utilde" unicode="&#x168;" horiz-adv-x="1429" 
d="M1282 479q0 -256 -146.5 -384t-420.5 -128t-421 128t-147 384v975h242v-965q0 -149 82.5 -229t243.5 -80t243 80t82 229v965h242v-975zM375 1589q0 117 56 182.5t142 65.5q54 0 106.5 -26t96.5 -52t78 -26q66 0 66 102h133q0 -117 -51.5 -181.5t-135.5 -64.5
q-37 0 -79.5 16t-73.5 35.5t-68 35.5t-65 16q-33 0 -51.5 -30t-18.5 -73h-135z" />
    <glyph glyph-name="utilde" unicode="&#x169;" horiz-adv-x="1130" 
d="M1004 1028v-1028h-207v119q-43 -70 -120.5 -110t-184.5 -40q-186 0 -276.5 90.5t-90.5 239.5v729h225v-668q0 -94 48.5 -145t142.5 -51q107 0 172 62t65 180v622h226zM211 1178q0 117 56.5 182t142.5 65q43 0 85.5 -16.5t71 -35.5t62 -35.5t61.5 -16.5q66 0 66 102h133
q0 -117 -51.5 -181t-135.5 -64q-47 0 -101 25.5t-102.5 51t-82.5 25.5q-33 0 -51.5 -29.5t-18.5 -72.5h-135z" />
    <glyph glyph-name="Umacron" unicode="&#x16a;" horiz-adv-x="1429" 
d="M1282 479q0 -256 -146.5 -384t-420.5 -128t-421 128t-147 384v975h242v-965q0 -149 82.5 -229t243.5 -80t243 80t82 229v965h242v-975zM406 1624v168h616v-168h-616z" />
    <glyph glyph-name="umacron" unicode="&#x16b;" horiz-adv-x="1130" 
d="M1004 1028v-1028h-207v119q-43 -70 -120.5 -110t-184.5 -40q-186 0 -276.5 90.5t-90.5 239.5v729h225v-668q0 -94 48.5 -145t142.5 -51q107 0 172 62t65 180v622h226zM242 1212v168h616v-168h-616z" />
    <glyph glyph-name="Uring" unicode="&#x16e;" horiz-adv-x="1429" 
d="M1282 479q0 -256 -146.5 -384t-420.5 -128t-421 128t-147 384v975h242v-965q0 -149 82.5 -229t243.5 -80t243 80t82 229v965h242v-975zM475 1702q0 94 70 160.5t168 66.5q97 0 166 -66.5t69 -160.5t-69 -160.5t-166 -66.5q-98 0 -168 66.5t-70 160.5zM590 1702
q0 -55 35 -90t88 -35t87 35t34 90t-34 90t-87 35t-88 -35t-35 -90z" />
    <glyph glyph-name="uring" unicode="&#x16f;" horiz-adv-x="1130" 
d="M1004 1028v-1028h-207v119q-43 -70 -120.5 -110t-184.5 -40q-186 0 -276.5 90.5t-90.5 239.5v729h225v-668q0 -94 48.5 -145t142.5 -51q107 0 172 62t65 180v622h226zM313 1386q0 94 70 161t168 67q97 0 166 -67t69 -161t-69 -160.5t-166 -66.5q-98 0 -168 66.5
t-70 160.5zM428 1386q0 -55 35 -89.5t88 -34.5t87 34.5t34 89.5t-34 90t-87 35t-88 -35t-35 -90z" />
    <glyph glyph-name="Uhungarumlaut" unicode="&#x170;" horiz-adv-x="1429" 
d="M1282 479q0 -256 -146.5 -384t-420.5 -128t-421 128t-147 384v975h242v-965q0 -149 82.5 -229t243.5 -80t243 80t82 229v965h242v-975zM465 1579l145 301h215l-196 -301h-164zM799 1579l145 301h215l-196 -301h-164z" />
    <glyph glyph-name="uhungarumlaut" unicode="&#x171;" horiz-adv-x="1130" 
d="M1004 1028v-1028h-207v119q-43 -70 -120.5 -110t-184.5 -40q-186 0 -276.5 90.5t-90.5 239.5v729h225v-668q0 -94 48.5 -145t142.5 -51q107 0 172 62t65 180v622h226zM301 1167l145 301h216l-197 -301h-164zM635 1167l145 301h215l-196 -301h-164z" />
    <glyph glyph-name="Uogonek" unicode="&#x172;" horiz-adv-x="1429" 
d="M1040 1454h242v-973q0 -165 -52.5 -264t-176.5 -188q-187 -133 -187 -244q0 -39 27 -60.5t74 -21.5q31 0 59 8v-135q-35 -14 -90 -14q-111 0 -170 50t-59 136q0 115 102 223q-58 -4 -94 -4q-274 0 -421 128t-147 384v975h242v-965q0 -149 82.5 -229t243.5 -80t243 80
t82 229v965z" />
    <glyph glyph-name="uogonek" unicode="&#x173;" horiz-adv-x="1130" 
d="M1004 1028v-1028q-170 -110 -170 -217q0 -38 26.5 -59t73.5 -21q29 0 57 8v-135q-35 -14 -90 -14q-110 0 -168.5 48.5t-58.5 133.5q0 136 145 256h-22v119q-43 -70 -120.5 -110t-184.5 -40q-186 0 -276.5 90.5t-90.5 239.5v729h225v-668q0 -94 48.5 -145t142.5 -51
q107 0 172 62t65 180v622h226z" />
    <glyph glyph-name="Wcircumflex" unicode="&#x174;" horiz-adv-x="1957" 
d="M1901 1454l-351 -1454h-284l-160 610q-76 288 -125 520q-56 -250 -125 -522l-160 -608h-286l-353 1454h246l154 -659q45 -192 108 -519q76 337 125 519l176 659h240l172 -659q70 -274 123 -523q69 366 106 523l156 659h238zM633 1579l205 293h282l205 -293h-192l-154 193
l-156 -193h-190z" />
    <glyph glyph-name="wcircumflex" unicode="&#x175;" horiz-adv-x="1568" 
d="M1534 1028l-287 -1028h-270l-84 301q-64 231 -111 447q-84 -355 -108 -447l-82 -301h-268l-289 1028h237l90 -358q62 -244 107 -467q39 169 115 467l96 358h211l98 -358q53 -199 115 -471q50 248 106 471l93 358h231zM440 1167l205 293h283l205 -293h-193l-154 193
l-155 -193h-191z" />
    <glyph glyph-name="Ycircumflex" unicode="&#x176;" horiz-adv-x="1314" 
d="M1292 1454l-514 -840v-614h-243v616l-512 838h268l371 -625l370 625h260zM311 1579l205 293h283l205 -293h-193l-154 193l-155 -193h-191z" />
    <glyph glyph-name="ycircumflex" unicode="&#x177;" horiz-adv-x="1032" 
d="M602 -127q-51 -146 -126 -208t-210 -62q-97 0 -180 22l37 170q74 -12 117 -12q60 0 100 31t68 114l6 19l-387 1081h237l101 -301q85 -250 157 -483q77 253 154 485l100 299h230zM170 1167l205 293h282l205 -293h-192l-154 193l-156 -193h-190z" />
    <glyph glyph-name="Ydieresis" unicode="&#x178;" horiz-adv-x="1314" 
d="M1292 1454l-514 -840v-614h-243v616l-512 838h268l371 -625l370 625h260zM356 1618v231h219v-231h-219zM741 1618v231h220v-231h-220z" />
    <glyph glyph-name="Zacute" unicode="&#x179;" horiz-adv-x="1296" 
d="M1208 1454v-197l-829 -1052h827v-205h-1118v197l830 1052h-797v205h1087zM569 1579l144 293h248l-193 -293h-199z" />
    <glyph glyph-name="zacute" unicode="&#x17a;" horiz-adv-x="1001" 
d="M915 1028v-168l-563 -676h563v-184h-841v170l563 676h-528v182h806zM397 1167l144 293h247l-192 -293h-199z" />
    <glyph glyph-name="Zdotaccent" unicode="&#x17b;" horiz-adv-x="1296" 
d="M1208 1454v-197l-829 -1052h827v-205h-1118v197l830 1052h-797v205h1087zM559 1618v231h225v-231h-225z" />
    <glyph glyph-name="zdotaccent" unicode="&#x17c;" horiz-adv-x="1001" 
d="M915 1028v-168l-563 -676h563v-184h-841v170l563 676h-528v182h806zM387 1206v232h225v-232h-225z" />
    <glyph glyph-name="Zcaron" unicode="&#x17d;" horiz-adv-x="1296" 
d="M1208 1454v-197l-829 -1052h827v-205h-1118v197l830 1052h-797v205h1087zM326 1872h192l156 -193l153 193h191l-205 -293h-283z" />
    <glyph glyph-name="zcaron" unicode="&#x17e;" horiz-adv-x="1001" 
d="M915 1028v-168l-563 -676h563v-184h-841v170l563 676h-528v182h806zM154 1460h192l156 -192l153 192h191l-205 -293h-283z" />
    <glyph glyph-name="florin" unicode="&#x192;" horiz-adv-x="1208" 
d="M684 967h254v-170h-254v-860q0 -336 -307 -336q-103 0 -205 30l41 170q68 -16 127 -16q65 0 92 35t27 114v863h-219v170h219v131q0 160 83.5 243.5t239.5 83.5q106 0 215 -36l-43 -170q-81 20 -131 20q-72 0 -105.5 -36.5t-33.5 -121.5v-114z" />
    <glyph glyph-name="Ohorn" unicode="&#x1a0;" horiz-adv-x="1566" 
d="M784 1487q119 0 238 -33h82q49 0 66.5 27t17.5 110h182q0 -117 -27 -177t-92 -83q117 -102 177.5 -257.5t60.5 -346.5q0 -217 -84 -389t-245.5 -271.5t-375.5 -99.5q-161 0 -294.5 58t-223 159.5t-139 241t-49.5 301.5t49.5 301.5t139 241t223 159.5t294.5 58zM326 727
q0 -246 125.5 -396.5t332.5 -150.5t332 150.5t125 396.5q0 245 -125.5 396t-331.5 151t-332 -151t-126 -396z" />
    <glyph glyph-name="ohorn" unicode="&#x1a1;" horiz-adv-x="1185" 
d="M594 1061q95 0 192 -33h54q48 0 66 28t18 111h176q0 -123 -27.5 -183t-97.5 -81q141 -150 141 -389q0 -242 -146 -393.5t-376 -151.5q-232 0 -378 151t-146 394q0 244 146 395.5t378 151.5zM299 514q0 -160 80 -257t215 -97q132 0 212.5 97t80.5 257q0 161 -80.5 258.5
t-212.5 97.5q-135 0 -215 -97t-80 -259z" />
    <glyph glyph-name="Uhorn" unicode="&#x1af;" horiz-adv-x="1429" 
d="M1282 479q0 -256 -146.5 -384t-420.5 -128t-421 128t-147 384v975h242v-965q0 -149 82.5 -229t243.5 -80t243 80t82 229v965h162q48 0 66 28t18 111h176q0 -143 -39 -203t-141 -73v-838z" />
    <glyph glyph-name="uhorn" unicode="&#x1b0;" horiz-adv-x="1130" 
d="M125 299v729h225v-668q0 -94 48.5 -145t142.5 -51q107 0 172 62t65 180v622h164q48 0 66 28t18 111h176q0 -150 -41.5 -209t-156.5 -69v-889h-207v119q-43 -70 -120.5 -110t-184.5 -40q-186 0 -276.5 90.5t-90.5 239.5z" />
    <glyph glyph-name="uni0218" unicode="&#x218;" horiz-adv-x="1306" 
d="M643 1487q171 0 300.5 -51t266.5 -170l-141 -168q-123 103 -215.5 140.5t-214.5 37.5q-133 0 -214 -57t-81 -146q0 -28 8 -51t20 -40.5t39 -33.5t51 -27t70 -24.5t83 -22.5t102 -24q112 -26 190.5 -52.5t142.5 -61.5t102 -78.5t57.5 -100t19.5 -129.5q0 -205 -152.5 -333
t-404.5 -128q-186 0 -328 59t-303 201l145 170q148 -127 254 -173t236 -46q139 0 226 62t87 172q0 43 -19 75.5t-39.5 52t-78.5 40t-91 29.5t-121 29q-25 6 -38 9q-282 66 -390 156.5t-108 261.5q0 183 153 302.5t386 119.5zM518 -524l123 190h-115v199h246v-199l-133 -190
h-121z" />
    <glyph glyph-name="uni0219" unicode="&#x219;" horiz-adv-x="1013" 
d="M502 1061q129 0 228.5 -35.5t205.5 -120.5l-123 -149q-94 71 -162.5 97t-152.5 26q-89 0 -143 -35t-54 -90q0 -52 46.5 -74t188.5 -54q14 -3 21 -5q215 -47 305 -117t90 -205q0 -148 -115.5 -239t-312.5 -91q-142 0 -253.5 43t-233.5 150l131 147q111 -92 188 -124.5
t172 -32.5q89 0 146 36t57 97q0 35 -18 59t-56.5 40.5t-78.5 27t-104 24.5q-7 1 -11 2q-215 48 -296 112.5t-81 194.5q0 137 112.5 226.5t303.5 89.5zM369 -524l123 190h-115v199h246v-199l-134 -190h-120z" />
    <glyph glyph-name="uni021A" unicode="&#x21a;" horiz-adv-x="1255" 
d="M1198 1454v-207h-448v-1247h-244v1247h-447v207h1139zM500 -524l123 190h-115v199h246v-199l-133 -190h-121z" />
    <glyph glyph-name="uni021B" unicode="&#x21b;" horiz-adv-x="763" 
d="M449 281q0 -59 26 -84t84 -25q50 0 137 23l29 -179q-113 -39 -221 -39q-149 0 -215 69.5t-66 207.5v604h-186v170h186v332h226v-332h260v-170h-260v-577zM344 -524l123 190h-115v199h246v-199l-133 -190h-121z" />
    <glyph glyph-name="uni0237" unicode="&#x237;" horiz-adv-x="485" 
d="M-113 -193q82 -16 127 -16q65 0 92 36t27 114v1087h225v-1085q0 -170 -76.5 -252t-230.5 -82q-110 0 -205 31z" />
    <glyph glyph-name="circumflex" unicode="&#x2c6;" horiz-adv-x="911" 
d="M608 1167l-153 193l-156 -193h-190l204 293h283l205 -293h-193z" />
    <glyph glyph-name="caron" unicode="&#x2c7;" horiz-adv-x="911" 
d="M801 1460l-205 -293h-283l-204 293h192l156 -192l153 192h191z" />
    <glyph glyph-name="breve" unicode="&#x2d8;" horiz-adv-x="851" 
d="M426 1151q-140 0 -228.5 76t-88.5 211h159q0 -65 41 -105.5t117 -40.5q75 0 115.5 40t42.5 106h157q0 -135 -88.5 -211t-226.5 -76z" />
    <glyph glyph-name="dotaccent" unicode="&#x2d9;" horiz-adv-x="442" 
d="M334 1438v-232h-225v232h225z" />
    <glyph glyph-name="ring" unicode="&#x2da;" horiz-adv-x="690" 
d="M346 1614q97 0 166.5 -67t69.5 -161t-69.5 -160.5t-166.5 -66.5q-98 0 -167.5 66.5t-69.5 160.5t69.5 161t167.5 67zM223 1386q0 -55 35 -89.5t88 -34.5t87 34.5t34 89.5t-34 90t-87 35t-88 -35t-35 -90z" />
    <glyph glyph-name="ogonek" unicode="&#x2db;" horiz-adv-x="546" 
d="M438 0q-170 -110 -170 -217q0 -38 26.5 -59t74.5 -21q29 0 57 8v-135q-35 -14 -90 -14q-110 0 -168.5 48.5t-58.5 133.5q0 163 213 305z" />
    <glyph glyph-name="tilde" unicode="&#x2dc;" horiz-adv-x="892" 
d="M307 1425q54 0 106.5 -26t96.5 -52t78 -26q65 0 65 102h133q0 -117 -51 -181t-135 -64q-47 0 -101 25.5t-103 51t-83 25.5q-33 0 -51 -29.5t-18 -72.5h-135q0 117 56 182t142 65z" />
    <glyph glyph-name="hungarumlaut" unicode="&#x2dd;" horiz-adv-x="911" 
d="M803 1468l-197 -301h-164l146 301h215zM109 1167l145 301h215l-197 -301h-163z" />
    <glyph glyph-name="gravecomb" unicode="&#x300;" 
d="M160 1460h250l143 -293h-199z" />
    <glyph glyph-name="acutecomb" unicode="&#x301;" 
d="M580 1460l-193 -293h-199l144 293h248z" />
    <glyph glyph-name="uni0302" unicode="&#x302;" 
d="M662 1167l-154 193l-156 -193h-190l205 293h282l205 -293h-192z" />
    <glyph glyph-name="tildecomb" unicode="&#x303;" 
d="M403 1425q54 0 106.5 -26t96.5 -52t78 -26q66 0 66 102h133q0 -117 -51.5 -181t-135.5 -64q-47 0 -101 25.5t-102.5 51t-82.5 25.5q-33 0 -51.5 -29.5t-18.5 -72.5h-135q0 117 56 182t142 65z" />
    <glyph glyph-name="uni0304" unicode="&#x304;" 
d="M799 1380v-168h-617v168h617z" />
    <glyph glyph-name="uni0306" unicode="&#x306;" 
d="M520 1151q-140 0 -228.5 76t-88.5 211h159q0 -65 41 -105.5t117 -40.5q75 0 115.5 40t42.5 106h158q0 -135 -89 -211t-227 -76z" />
    <glyph glyph-name="uni0307" unicode="&#x307;" 
d="M430 1438v-232h-225v232h225z" />
    <glyph glyph-name="uni0308" unicode="&#x308;" 
d="M807 1438v-232h-219v232h219zM203 1206v232h219v-232h-219z" />
    <glyph glyph-name="hookabovecomb" unicode="&#x309;" 
d="M109 1464q64 23 147 23q94 0 145.5 -42.5t51.5 -115.5q0 -69 -50.5 -121t-128.5 -78l-61 76q96 47 96 99q0 28 -20 39.5t-62 11.5q-51 0 -100 -17z" />
    <glyph glyph-name="uni030A" unicode="&#x30a;" 
d="M455 1614q97 0 166 -67t69 -161t-69 -160.5t-166 -66.5q-98 0 -168 66.5t-70 160.5t70 161t168 67zM332 1386q0 -55 35 -89.5t88 -34.5t86.5 34.5t33.5 89.5t-33.5 90t-86.5 35t-88 -35t-35 -90z" />
    <glyph glyph-name="uni030B" unicode="&#x30b;" 
d="M889 1468l-197 -301h-164l146 301h215zM195 1167l145 301h215l-197 -301h-163z" />
    <glyph glyph-name="uni030C" unicode="&#x30c;" 
d="M881 1460l-205 -293h-283l-205 293h193l156 -192l153 192h191z" />
    <glyph glyph-name="uni031B" unicode="&#x31b;" 
d="M109 887v141h57q48 0 66 28t18 111h176q0 -115 -24.5 -174t-80 -82.5t-163.5 -23.5h-49z" />
    <glyph glyph-name="dotbelowcomb" unicode="&#x323;" 
d="M334 -137v-232h-225v232h225z" />
    <glyph glyph-name="uni0326" unicode="&#x326;" 
d="M459 -135v-199l-133 -190h-121l123 190h-115v199h246z" />
    <glyph glyph-name="uni0327" unicode="&#x327;" 
d="M414 41l104 -41l-63 -135q98 1 157.5 -45t59.5 -119q0 -86 -62.5 -139.5t-163.5 -53.5q-111 0 -229 78l62 97q95 -56 165 -56q43 0 72 19t29 53q0 31 -33 49.5t-78 18.5q-29 0 -57 -7l-64 60z" />
    <glyph glyph-name="uni0328" unicode="&#x328;" 
d="M575 0q-169 -109 -169 -217q0 -38 26.5 -59t73.5 -21q29 0 57 8v-135q-35 -14 -90 -14q-110 0 -168.5 48.5t-58.5 133.5q0 163 213 305z" />
    <glyph glyph-name="uni037E" unicode="&#x37e;" horiz-adv-x="552" 
d="M426 262v-262l-145 -283h-131l129 283h-121v262h268zM162 766v262h254v-262h-254z" />
    <glyph glyph-name="tonos" unicode="&#x384;" horiz-adv-x="741" 
d="M408 1180h-191l78 299h246z" />
    <glyph glyph-name="dieresistonos" unicode="&#x385;" horiz-adv-x="993" 
d="M399 1202l43 277h228l-105 -277h-166zM139 1202v203h205v-203h-205zM688 1202v203h205v-203h-205z" />
    <glyph glyph-name="Alphatonos" unicode="&#x386;" horiz-adv-x="1419" 
d="M27 0l524 1454h317l525 -1454h-252l-115 328h-641l-113 -328h-245zM20 1155l78 299h246l-133 -299h-191zM455 528h501l-61 179q-153 444 -188 563q-45 -153 -191 -565z" />
    <glyph glyph-name="anoteleia" unicode="&#x387;" horiz-adv-x="471" 
d="M362 793v-263h-253v263h253z" />
    <glyph glyph-name="Epsilontonos" unicode="&#x388;" horiz-adv-x="1267" 
d="M1155 1454v-205h-756v-397h705v-203h-705v-444h777v-205h-1018v1454h997zM-246 1155l78 299h246l-133 -299h-191z" />
    <glyph glyph-name="Etatonos" unicode="&#x389;" horiz-adv-x="1505" 
d="M1352 1454v-1454h-244v657h-709v-657h-241v1454h241v-592h709v592h244zM-246 1155l78 299h246l-133 -299h-191z" />
    <glyph glyph-name="Iotatonos" unicode="&#x38a;" horiz-adv-x="583" 
d="M414 1454v-1454h-242v1454h242zM-246 1155l78 299h246l-133 -299h-191z" />
    <glyph glyph-name="Omicrontonos" unicode="&#x38c;" horiz-adv-x="1562" 
d="M784 1487q214 0 375.5 -99.5t245.5 -271.5t84 -389t-84 -389t-245.5 -271.5t-375.5 -99.5q-161 0 -294.5 58t-223 159.5t-139 241t-49.5 301.5t49.5 301.5t139 241t223 159.5t294.5 58zM-174 1155l78 299h246l-134 -299h-190zM326 727q0 -246 125.5 -396.5t332.5 -150.5
t332 150.5t125 396.5q0 245 -125.5 396t-331.5 151t-332 -151t-126 -396z" />
    <glyph glyph-name="Upsilontonos" unicode="&#x38e;" horiz-adv-x="1310" 
d="M1292 1454l-514 -840v-614h-243v616l-512 838h268l371 -625l370 625h260zM-330 1155l78 299h246l-133 -299h-191z" />
    <glyph glyph-name="Omegatonos" unicode="&#x38f;" horiz-adv-x="1562" 
d="M80 0v205h248q-120 88 -184 227.5t-64 306.5q0 214 83.5 383t244.5 267t374 98q214 0 375.5 -98t245.5 -267t84 -383q0 -167 -64 -306.5t-184 -227.5h246v-205h-565v205q319 138 319 532q0 242 -125 389.5t-332 147.5q-205 0 -330.5 -147.5t-125.5 -389.5
q0 -394 319 -532v-205h-565zM-174 1155l78 299h246l-134 -299h-190z" />
    <glyph glyph-name="iotadieresistonos" unicode="&#x390;" horiz-adv-x="479" 
d="M352 0h-225v1028h225v-1028zM-117 1202v203h205v-203h-205zM143 1202l43 277h228l-105 -277h-166zM432 1202v203h205v-203h-205z" />
    <glyph glyph-name="Alpha" unicode="&#x391;" horiz-adv-x="1419" 
d="M27 0l524 1454h317l525 -1454h-252l-115 328h-641l-113 -328h-245zM455 528h501l-61 179q-153 444 -188 563q-45 -153 -191 -565z" />
    <glyph glyph-name="Beta" unicode="&#x392;" horiz-adv-x="1384" 
d="M827 1454q125 0 221.5 -41t154 -126.5t57.5 -205.5q0 -119 -61 -199.5t-167 -117.5q132 -38 205.5 -127.5t73.5 -226.5q0 -189 -122.5 -299.5t-326.5 -110.5h-704v1454h669zM399 190h379q142 0 216.5 62.5t74.5 173.5q0 109 -76 173.5t-213 64.5h-381v-474zM399 854h373
q119 0 185.5 56t66.5 155q0 98 -65 148.5t-187 50.5h-373v-410z" />
    <glyph glyph-name="Gamma" unicode="&#x393;" horiz-adv-x="1169" 
d="M1112 1249h-713v-1249h-241v1454h954v-205z" />
    <glyph glyph-name="uni0394" unicode="&#x394;" horiz-adv-x="1419" 
d="M551 1454h317l527 -1454h-1368zM340 201h733l-176 506q-145 417 -192 573q-44 -158 -189 -575z" />
    <glyph glyph-name="Epsilon" unicode="&#x395;" horiz-adv-x="1269" 
d="M1155 1454v-205h-756v-397h705v-203h-705v-444h777v-205h-1018v1454h997z" />
    <glyph glyph-name="Zeta" unicode="&#x396;" horiz-adv-x="1296" 
d="M1208 1454v-197l-829 -1052h827v-205h-1118v197l830 1052h-797v205h1087z" />
    <glyph glyph-name="Eta" unicode="&#x397;" horiz-adv-x="1509" 
d="M1352 1454v-1454h-244v657h-709v-657h-241v1454h241v-592h709v592h244z" />
    <glyph glyph-name="Theta" unicode="&#x398;" horiz-adv-x="1576" 
d="M791 1487q215 0 377.5 -98t248.5 -269.5t86 -392.5t-86 -392.5t-248.5 -269.5t-377.5 -98q-216 0 -379.5 98t-249.5 269.5t-86 392.5t86 392.5t249.5 269.5t379.5 98zM328 727q0 -247 126.5 -397t336.5 -150t335 150t125 397q0 246 -125 396.5t-335 150.5t-336.5 -150.5
t-126.5 -396.5zM489 649v199h598v-199h-598z" />
    <glyph glyph-name="Iota" unicode="&#x399;" horiz-adv-x="585" 
d="M414 1454v-1454h-242v1454h242z" />
    <glyph glyph-name="Kappa" unicode="&#x39a;" horiz-adv-x="1390" 
d="M1350 1454l-545 -565l575 -889h-276l-461 717l-244 -252v-465h-241v1454h241v-694l650 694h301z" />
    <glyph glyph-name="Lambda" unicode="&#x39b;" horiz-adv-x="1333" 
d="M1305 0h-250l-232 707q-93 291 -159 522q-30 -108 -158 -518l-230 -711h-247l487 1454h303z" />
    <glyph glyph-name="Mu" unicode="&#x39c;" horiz-adv-x="1826" 
d="M1669 1454v-1454h-235v733q0 187 8 543q-29 -95 -89 -276.5t-87 -266.5l-244 -733h-213l-248 733q-155 463 -176 531q4 -348 4 -533v-731h-231v1454h383l207 -614q108 -310 170 -537q59 213 167 537l205 614h379z" />
    <glyph glyph-name="Nu" unicode="&#x39d;" horiz-adv-x="1513" 
d="M1356 1454v-1454h-262l-396 623q-218 338 -315 512q10 -215 10 -564v-571h-235v1454h266l412 -647q225 -359 294 -483q-10 205 -10 540v590h236z" />
    <glyph glyph-name="Xi" unicode="&#x39e;" horiz-adv-x="1337" 
d="M94 0v217h1149v-217h-1149zM111 1237v217h1114v-217h-1114zM184 643v215h969v-215h-969z" />
    <glyph glyph-name="Omicron" unicode="&#x39f;" horiz-adv-x="1566" 
d="M784 1487q214 0 375.5 -99.5t245.5 -271.5t84 -389t-84 -389t-245.5 -271.5t-375.5 -99.5q-161 0 -294.5 58t-223 159.5t-139 241t-49.5 301.5t49.5 301.5t139 241t223 159.5t294.5 58zM326 727q0 -246 125.5 -396.5t332.5 -150.5t332 150.5t125 396.5q0 245 -125.5 396
t-331.5 151t-332 -151t-126 -396z" />
    <glyph glyph-name="Pi" unicode="&#x3a0;" horiz-adv-x="1480" 
d="M1323 0h-244v1249h-680v-1249h-241v1454h1165v-1454z" />
    <glyph glyph-name="Rho" unicode="&#x3a1;" horiz-adv-x="1368" 
d="M823 1454q218 0 347.5 -121t129.5 -327t-129.5 -326.5t-347.5 -120.5h-424v-559h-241v1454h665zM399 760h385q128 0 201.5 64t73.5 182q0 120 -73.5 183.5t-201.5 63.5h-385v-493z" />
    <glyph glyph-name="Sigma" unicode="&#x3a3;" horiz-adv-x="1247" 
d="M102 1247v207h1051v-205h-762l422 -501l-440 -543h792v-205h-1077v197l438 546z" />
    <glyph glyph-name="Tau" unicode="&#x3a4;" horiz-adv-x="1255" 
d="M1198 1454v-207h-448v-1247h-244v1247h-447v207h1139z" />
    <glyph glyph-name="Upsilon" unicode="&#x3a5;" horiz-adv-x="1314" 
d="M1292 1454l-514 -840v-614h-243v616l-512 838h268l371 -625l370 625h260z" />
    <glyph glyph-name="Phi" unicode="&#x3a6;" horiz-adv-x="1705" 
d="M731 -12v129q-159 9 -284.5 59.5t-206.5 132.5t-123.5 191t-42.5 237t42.5 237t123.5 191.5t206.5 133t284.5 59.5v108h244v-108q160 -9 286 -59.5t207 -133t123.5 -191.5t42.5 -237t-42.5 -237t-124 -191t-207 -132.5t-285.5 -59.5v-129h-244zM317 737q0 -183 108 -294
t310 -130v848q-202 -19 -310 -130t-108 -294zM971 313q202 19 310 130.5t108 293.5t-108 293.5t-310 130.5v-848z" />
    <glyph glyph-name="Chi" unicode="&#x3a7;" horiz-adv-x="1386" 
d="M1042 1454h271l-475 -686l526 -768h-272l-400 594l-401 -594h-268l524 770l-473 684h274l348 -514z" />
    <glyph glyph-name="Psi" unicode="&#x3a8;" horiz-adv-x="1687" 
d="M721 0v307q-578 19 -578 537v610h242v-604q0 -310 336 -336v940h244v-940q335 26 335 336v604h244v-610q0 -250 -138 -388.5t-441 -150.5v-305h-244z" />
    <glyph glyph-name="uni03A9" unicode="&#x3a9;" horiz-adv-x="1562" 
d="M80 0v205h248q-120 88 -184 227.5t-64 306.5q0 214 83.5 383t244.5 267t374 98q214 0 375.5 -98t245.5 -267t84 -383q0 -167 -64 -306.5t-184 -227.5h246v-205h-565v205q319 138 319 532q0 242 -125 389.5t-332 147.5q-205 0 -330.5 -147.5t-125.5 -389.5
q0 -394 319 -532v-205h-565z" />
    <glyph glyph-name="Iotadieresis" unicode="&#x3aa;" horiz-adv-x="585" 
d="M414 1454v-1454h-242v1454h242zM-10 1618v231h219v-231h-219zM375 1618v231h219v-231h-219z" />
    <glyph glyph-name="Upsilondieresis" unicode="&#x3ab;" horiz-adv-x="1314" 
d="M1292 1454l-514 -840v-614h-243v616l-512 838h268l371 -625l370 625h260zM356 1618v231h219v-231h-219zM741 1618v231h220v-231h-220z" />
    <glyph glyph-name="alphatonos" unicode="&#x3ac;" horiz-adv-x="1204" 
d="M526 -29q-199 0 -327.5 149.5t-128.5 393.5t129 393.5t327 149.5q230 0 340 -172v143h211v-1028h-211v145q-112 -174 -340 -174zM301 514q0 -158 73.5 -255t198.5 -97q126 0 205.5 95.5t79.5 256.5q0 162 -80 256t-205 94q-122 0 -197 -96t-75 -254zM489 1180l78 299h246
l-133 -299h-191z" />
    <glyph glyph-name="epsilontonos" unicode="&#x3ad;" horiz-adv-x="1058" 
d="M551 -31q-237 0 -359 80.5t-122 233.5q0 87 51.5 155t157.5 105q-170 71 -170 231q0 134 124.5 210.5t329.5 76.5q139 0 244 -35t213 -121l-121 -147q-90 67 -166 95t-166 28q-114 0 -171.5 -35t-57.5 -92q0 -63 52 -99.5t151 -36.5h159v-161h-157q-244 0 -244 -152
q0 -147 252 -147q201 0 352 133l125 -144q-106 -94 -219.5 -136t-257.5 -42zM481 1180l78 299h246l-133 -299h-191z" />
    <glyph glyph-name="etatonos" unicode="&#x3ae;" horiz-adv-x="1144" 
d="M653 1061q177 0 273 -99t96 -257v-1074h-225v1008q0 112 -55 170.5t-158 58.5q-99 0 -165.5 -67.5t-66.5 -171.5v-629h-225v1028h209v-123q50 75 131.5 115.5t185.5 40.5zM481 1180l78 299h246l-133 -299h-191z" />
    <glyph glyph-name="iotatonos" unicode="&#x3af;" horiz-adv-x="479" 
d="M352 0h-225v1028h225v-1028zM150 1180l77 299h246l-133 -299h-190z" />
    <glyph glyph-name="upsilondieresistonos" unicode="&#x3b0;" horiz-adv-x="1124" 
d="M561 -31q-221 0 -329.5 114t-108.5 314v631h225v-616q0 -121 48.5 -186.5t162.5 -65.5q118 0 167.5 65.5t49.5 186.5v616h225v-631q0 -201 -108 -314.5t-332 -113.5zM207 1202v203h205v-203h-205zM467 1202l43 277h227l-104 -277h-166zM756 1202v203h205v-203h-205z" />
    <glyph glyph-name="alpha" unicode="&#x3b1;" horiz-adv-x="1204" 
d="M526 -29q-199 0 -327.5 149.5t-128.5 393.5t129 393.5t327 149.5q230 0 340 -172v143h211v-1028h-211v145q-112 -174 -340 -174zM301 514q0 -158 73.5 -255t198.5 -97q126 0 205.5 95.5t79.5 256.5q0 162 -80 256t-205 94q-122 0 -197 -96t-75 -254z" />
    <glyph glyph-name="beta" unicode="&#x3b2;" horiz-adv-x="1204" 
d="M127 1010q0 219 128 347t341 128q218 0 339.5 -106.5t121.5 -274.5q0 -118 -59 -200t-150 -118q131 -36 208 -135.5t77 -247.5q0 -191 -124.5 -310.5t-340.5 -119.5q-215 0 -316 166v-508h-225v1379zM352 504q0 -156 81.5 -249t209.5 -93q122 0 190 71.5t68 188.5
q0 121 -78.5 187.5t-204.5 66.5h-104v184h111q93 0 151 63.5t58 159.5q0 101 -63.5 156t-172.5 55q-114 0 -180 -79t-66 -211v-500z" />
    <glyph glyph-name="gamma" unicode="&#x3b3;" horiz-adv-x="1032" 
d="M406 -369v367l-381 1030h237l121 -348q75 -223 137 -430q71 241 133 428l121 350h234l-375 -1028v-369h-227z" />
    <glyph glyph-name="delta" unicode="&#x3b4;" horiz-adv-x="1177" 
d="M590 -31q-231 0 -377.5 144t-146.5 368q0 128 51 237.5t152 181.5t233 79l30 -2l-348 305v172h807v-182h-487l360 -318q248 -216 248 -473q0 -103 -37 -196t-103 -163.5t-165 -111.5t-217 -41zM295 483q0 -57 18 -112.5t52 -103.5t92.5 -77.5t132.5 -29.5q137 0 214 95.5
t77 227.5q0 59 -17 115.5t-50.5 105t-91 78t-130.5 29.5q-71 0 -129 -27.5t-94 -74t-55 -105t-19 -121.5z" />
    <glyph glyph-name="epsilon" unicode="&#x3b5;" horiz-adv-x="1058" 
d="M551 -31q-237 0 -359 80.5t-122 233.5q0 87 51.5 155t157.5 105q-170 71 -170 231q0 134 124.5 210.5t329.5 76.5q139 0 244 -35t213 -121l-121 -147q-90 67 -166 95t-166 28q-114 0 -171.5 -35t-57.5 -92q0 -63 52 -99.5t151 -36.5h159v-161h-157q-244 0 -244 -152
q0 -147 252 -147q201 0 352 133l125 -144q-106 -94 -219.5 -136t-257.5 -42z" />
    <glyph glyph-name="zeta" unicode="&#x3b6;" horiz-adv-x="1019" 
d="M674 -240q110 99 110 158q0 82 -100 82h-131q-100 0 -186 25.5t-152.5 75.5t-104.5 129t-38 180q0 456 544 862h-485v182h805v-168q-141 -99 -249 -194.5t-198 -205t-138 -228.5t-48 -242q0 -118 71.5 -172t192.5 -54h135q131 0 206 -60.5t75 -170.5q0 -49 -16.5 -95.5
t-50.5 -90t-58.5 -69t-66.5 -64.5z" />
    <glyph glyph-name="eta" unicode="&#x3b7;" horiz-adv-x="1144" 
d="M653 1061q177 0 273 -99t96 -257v-1074h-225v1008q0 112 -55 170.5t-158 58.5q-99 0 -165.5 -67.5t-66.5 -171.5v-629h-225v1028h209v-123q50 75 131.5 115.5t185.5 40.5z" />
    <glyph glyph-name="theta" unicode="&#x3b8;" horiz-adv-x="1196" 
d="M1102 729q0 -218 -35.5 -373t-140.5 -262q-129 -125 -328 -125q-201 0 -326 125q-56 56 -93 128t-54.5 158.5t-24 166t-6.5 182.5t6.5 182.5t24 166t54.5 158.5t93 128q125 125 326 125q199 0 328 -125q105 -107 140.5 -262t35.5 -373zM322 653q4 -288 96 -409
q71 -84 180 -84q112 0 180 84q86 116 94 409h-550zM322 821h550q-8 275 -94 393q-68 84 -180 84q-109 0 -180 -84q-88 -114 -96 -393z" />
    <glyph glyph-name="iota" unicode="&#x3b9;" horiz-adv-x="479" 
d="M352 0h-225v1028h225v-1028z" />
    <glyph glyph-name="kappa" unicode="&#x3ba;" horiz-adv-x="1087" 
d="M127 0v1028h225v-467l430 467h258l-368 -395l407 -633h-250l-311 481l-166 -172v-309h-225z" />
    <glyph glyph-name="lambda" unicode="&#x3bb;" horiz-adv-x="1028" 
d="M657 332q-28 81 -78.5 242t-54.5 174q-82 -253 -141 -416l-123 -332h-237l397 1030l-45 137q-46 136 -152 136q-54 0 -123 -21l-43 174q86 33 189 33q126 0 200.5 -63.5t122.5 -204.5l437 -1221h-234z" />
    <glyph glyph-name="uni03BC" unicode="&#x3bc;" horiz-adv-x="1132" 
d="M1006 0h-205v135q-39 -77 -106 -121.5t-160 -44.5q-119 0 -183 58v-402h-225v1403h225v-668q0 -94 50 -144t151 -50t164 61.5t63 178.5v622h226v-1028z" />
    <glyph glyph-name="nu" unicode="&#x3bd;" horiz-adv-x="1028" 
d="M1006 1028l-355 -1028h-276l-352 1028h237l113 -354q73 -225 143 -488q70 263 143 488l113 354h234z" />
    <glyph glyph-name="xi" unicode="&#x3be;" horiz-adv-x="1019" 
d="M674 -240q110 99 110 158q0 82 -100 82h-131q-216 0 -348.5 105.5t-132.5 293.5q0 153 76 247.5t198 127.5q-83 29 -135.5 98.5t-52.5 163.5q0 48 13 91.5t51.5 87t99.5 65.5h-222v174h836v-182h-270q-128 0 -202.5 -54.5t-74.5 -166.5q0 -90 60 -144.5t155 -54.5h279
v-184h-275q-142 0 -223.5 -63.5t-81.5 -190.5q0 -119 72 -171.5t192 -52.5h135q131 0 206 -60.5t75 -170.5q0 -49 -16.5 -95.5t-50.5 -90t-58.5 -69t-66.5 -64.5z" />
    <glyph glyph-name="omicron" unicode="&#x3bf;" horiz-adv-x="1185" 
d="M594 1061q230 0 376 -152t146 -395q0 -242 -146 -393.5t-376 -151.5q-232 0 -378 151t-146 394q0 244 146 395.5t378 151.5zM299 514q0 -160 80 -257t215 -97q132 0 212.5 97t80.5 257q0 161 -80.5 258.5t-212.5 97.5q-135 0 -215 -97t-80 -259z" />
    <glyph glyph-name="pi" unicode="&#x3c0;" horiz-adv-x="1275" 
d="M1192 852h-178v-567q0 -64 21.5 -89.5t72.5 -25.5q41 0 111 20l24 -178q-101 -35 -190 -35q-149 0 -207 68.5t-58 214.5v592h-344v-852h-225v852h-186v176h1159v-176z" />
    <glyph glyph-name="rho" unicode="&#x3c1;" horiz-adv-x="1183" 
d="M111 514q0 246 133.5 396.5t359.5 150.5q229 0 370.5 -152t141.5 -395q0 -244 -127.5 -392.5t-326.5 -148.5q-216 0 -326 148v-490h-225v883zM328 516q0 -160 80.5 -255t203.5 -95t199 96t76 254t-77.5 256t-205.5 98q-127 0 -201.5 -96.5t-74.5 -257.5z" />
    <glyph glyph-name="uni03C2" unicode="&#x3c2;" horiz-adv-x="1046" 
d="M600 -240q6 6 25.5 25t26 26t20 22.5t18.5 25.5t10 24t5 27q0 32 -34 53t-128 47q-473 135 -473 522q0 240 141 384.5t371 144.5q128 0 227 -44.5t197 -150.5l-142 -139q-85 83 -148 113t-134 30q-90 0 -155.5 -49.5t-95.5 -125t-30 -165.5q0 -122 70 -203.5t198 -119.5
q46 -13 72 -21.5t67 -23.5t64.5 -28t52 -33t44 -42t26 -51t10.5 -63q0 -45 -16.5 -88.5t-49.5 -85.5t-58 -67.5t-66 -63.5z" />
    <glyph glyph-name="sigma" unicode="&#x3c3;" horiz-adv-x="1206" 
d="M1174 1028v-182h-240q174 -118 174 -344q0 -235 -144 -384t-374 -149q-232 0 -378 149.5t-146 385.5t145 380t379 144h584zM297 504q0 -150 80 -247t213 -97q132 0 211.5 97t79.5 247q0 155 -79 248.5t-212 93.5q-134 0 -213.5 -93.5t-79.5 -248.5z" />
    <glyph glyph-name="tau" unicode="&#x3c4;" horiz-adv-x="901" 
d="M561 289q0 -64 27 -89.5t86 -25.5q48 0 133 23l31 -181q-108 -39 -220 -39q-152 0 -217 67.5t-65 205.5v596h-305v182h837v-182h-307v-557z" />
    <glyph glyph-name="upsilon" unicode="&#x3c5;" horiz-adv-x="1124" 
d="M561 -31q-221 0 -329.5 114t-108.5 314v631h225v-616q0 -121 48.5 -186.5t162.5 -65.5q118 0 167.5 65.5t49.5 186.5v616h225v-631q0 -201 -108 -314.5t-332 -113.5z" />
    <glyph glyph-name="phi" unicode="&#x3c6;" horiz-adv-x="1501" 
d="M637 -31q-270 9 -420.5 146.5t-150.5 386.5q0 76 10 138t36.5 124.5t71 113.5t115 98t166.5 85l74 -184q-96 -41 -151 -100.5t-73 -123t-18 -151.5q0 -335 340 -344v522q0 188 98 284.5t260 96.5q197 0 319 -139t122 -387q0 -266 -154.5 -412t-417.5 -154v-338h-227v338z
M864 158q166 8 254 102t88 275q0 161 -57 248t-154 87q-70 0 -100.5 -52.5t-30.5 -153.5v-506z" />
    <glyph glyph-name="chi" unicode="&#x3c7;" horiz-adv-x="1048" 
d="M18 -369l379 693l-370 704h243l250 -489l260 489h238l-367 -680l377 -717h-244l-260 502l-264 -502h-242z" />
    <glyph glyph-name="psi" unicode="&#x3c8;" horiz-adv-x="1536" 
d="M655 -369v340q-269 9 -402.5 143.5t-133.5 403.5v510h227v-510q0 -176 72.5 -261.5t236.5 -94.5v1198h226v-1198q164 9 236.5 94.5t72.5 261.5v510h227v-510q0 -269 -133.5 -403.5t-402.5 -143.5v-340h-226z" />
    <glyph glyph-name="omega" unicode="&#x3c9;" horiz-adv-x="1499" 
d="M1204 485q0 141 -58 240t-194 152l70 184q221 -83 316.5 -224.5t95.5 -347.5q0 -146 -42.5 -262t-130.5 -187t-208 -71q-116 0 -195.5 58.5t-107.5 160.5q-28 -103 -106.5 -161t-194.5 -58q-121 0 -209.5 71t-131 187t-42.5 262q0 206 95.5 347.5t315.5 224.5l72 -184
q-136 -53 -194 -152t-58 -240q0 -145 47.5 -235t128.5 -90q164 0 164 248v294h227v-294q0 -248 162 -248q81 0 129.5 90.5t48.5 234.5z" />
    <glyph glyph-name="iotadieresis" unicode="&#x3ca;" horiz-adv-x="479" 
d="M352 0h-225v1028h225v-1028zM-63 1206v232h219v-232h-219zM322 1206v232h219v-232h-219z" />
    <glyph glyph-name="upsilondieresis" unicode="&#x3cb;" horiz-adv-x="1124" 
d="M561 -31q-221 0 -329.5 114t-108.5 314v631h225v-616q0 -121 48.5 -186.5t162.5 -65.5q118 0 167.5 65.5t49.5 186.5v616h225v-631q0 -201 -108 -314.5t-332 -113.5zM260 1206v232h219v-232h-219zM645 1206v232h219v-232h-219z" />
    <glyph glyph-name="omicrontonos" unicode="&#x3cc;" horiz-adv-x="1177" 
d="M594 1061q230 0 376 -152t146 -395q0 -242 -146 -393.5t-376 -151.5q-232 0 -378 151t-146 394q0 244 146 395.5t378 151.5zM299 514q0 -160 80 -257t215 -97q132 0 212.5 97t80.5 257q0 161 -80.5 258.5t-212.5 97.5q-135 0 -215 -97t-80 -259zM489 1180l78 299h246
l-133 -299h-191z" />
    <glyph glyph-name="upsilontonos" unicode="&#x3cd;" horiz-adv-x="1124" 
d="M561 -31q-221 0 -329.5 114t-108.5 314v631h225v-616q0 -121 48.5 -186.5t162.5 -65.5q118 0 167.5 65.5t49.5 186.5v616h225v-631q0 -201 -108 -314.5t-332 -113.5zM469 1180l78 299h246l-134 -299h-190z" />
    <glyph glyph-name="omegatonos" unicode="&#x3ce;" horiz-adv-x="1499" 
d="M1204 485q0 141 -58 240t-194 152l70 184q221 -83 316.5 -224.5t95.5 -347.5q0 -146 -42.5 -262t-130.5 -187t-208 -71q-116 0 -195.5 58.5t-107.5 160.5q-28 -103 -106.5 -161t-194.5 -58q-121 0 -209.5 71t-131 187t-42.5 262q0 206 95.5 347.5t315.5 224.5l72 -184
q-136 -53 -194 -152t-58 -240q0 -145 47.5 -235t128.5 -90q164 0 164 248v294h227v-294q0 -248 162 -248q81 0 129.5 90.5t48.5 234.5zM664 1180l77 299h246l-133 -299h-190z" />
    <glyph glyph-name="uni0401" unicode="&#x401;" horiz-adv-x="1269" 
d="M1155 1454v-205h-756v-397h705v-203h-705v-444h777v-205h-1018v1454h997zM362 1618v231h220v-231h-220zM748 1618v231h219v-231h-219z" />
    <glyph glyph-name="uni0402" unicode="&#x402;" horiz-adv-x="1646" 
d="M911 193q107 -17 152 -17q122 0 185 68t63 198q0 135 -83 201t-224 66q-166 0 -320 -56v-653h-242v1249h-383v205h1098v-205h-473v-391q157 64 346 64q255 0 389.5 -124t134.5 -349q0 -213 -124.5 -344.5t-348.5 -131.5q-79 0 -204 23z" />
    <glyph glyph-name="uni0403" unicode="&#x403;" horiz-adv-x="1169" 
d="M1112 1249h-713v-1249h-241v1454h954v-205zM549 1579l143 293h248l-192 -293h-199z" />
    <glyph glyph-name="uni0404" unicode="&#x404;" horiz-adv-x="1378" 
d="M793 1487q153 0 276 -49t254 -162l-143 -168q-112 96 -202.5 132t-189.5 36q-190 0 -311 -114.5t-151 -311.5h641v-201h-645q20 -216 142.5 -343.5t315.5 -127.5q116 0 208 46t214 153l144 -164q-137 -131 -267 -188.5t-293 -57.5q-215 0 -377.5 100t-246.5 272t-84 390
q0 162 48.5 300.5t138 240.5t225.5 159.5t303 57.5z" />
    <glyph glyph-name="uni0405" unicode="&#x405;" horiz-adv-x="1306" 
d="M643 1487q171 0 300.5 -51t266.5 -170l-141 -168q-123 103 -215.5 140.5t-214.5 37.5q-133 0 -214 -57t-81 -146q0 -28 8 -51t20 -40.5t39 -33.5t51 -27t70 -24.5t83 -22.5t102 -24q112 -26 190.5 -52.5t142.5 -61.5t102 -78.5t57.5 -100t19.5 -129.5q0 -205 -152.5 -333
t-404.5 -128q-186 0 -328 59t-303 201l145 170q148 -127 254 -173t236 -46q139 0 226 62t87 172q0 43 -19 75.5t-39.5 52t-78.5 40t-91 29.5t-121 29q-25 6 -38 9q-282 66 -390 156.5t-108 261.5q0 183 153 302.5t386 119.5z" />
    <glyph glyph-name="uni0406" unicode="&#x406;" horiz-adv-x="585" 
d="M414 1454v-1454h-242v1454h242z" />
    <glyph glyph-name="uni0407" unicode="&#x407;" horiz-adv-x="585" 
d="M414 1454v-1454h-242v1454h242zM-10 1618v231h219v-231h-219zM375 1618v231h219v-231h-219z" />
    <glyph glyph-name="uni0408" unicode="&#x408;" horiz-adv-x="958" 
d="M811 383q0 -210 -110 -311t-308 -101q-189 0 -377 92l76 193q87 -35 153.5 -52.5t137.5 -17.5q186 0 186 222v1046h242v-1071z" />
    <glyph glyph-name="uni0409" unicode="&#x409;" horiz-adv-x="2297" 
d="M1751 901q219 0 353 -121t134 -329q0 -210 -133.5 -330.5t-353.5 -120.5h-629v1249h-549l-4 -622q0 -92 -4 -163t-14.5 -140.5t-28 -119.5t-45 -93.5t-65.5 -70t-90.5 -41.5t-118.5 -15q-84 0 -156 20l27 205q45 -10 100 -10q30 0 53 6.5t40.5 23.5t29.5 35t20 53
t13 64.5t7.5 82t3.5 93.5t1 111l4 786h1018v-553h387zM1364 201h348q132 0 208.5 64t76.5 186t-76.5 185.5t-208.5 63.5h-348v-499z" />
    <glyph glyph-name="uni040A" unicode="&#x40a;" horiz-adv-x="2283" 
d="M158 0v1454h241v-571h709v571h244v-571h391q218 0 350.5 -118.5t132.5 -324.5q0 -204 -132.5 -322t-350.5 -118h-635v682h-709v-682h-241zM1352 201h352q131 0 206 61t75 178q0 119 -75 180.5t-206 61.5h-352v-481z" />
    <glyph glyph-name="uni040B" unicode="&#x40b;" horiz-adv-x="1671" 
d="M684 0h-242v1249h-383v205h1098v-205h-473v-391q154 64 346 64q271 0 392.5 -117.5t121.5 -341.5v-463h-244v461q0 133 -72.5 190.5t-223.5 57.5q-180 0 -320 -60v-649z" />
    <glyph glyph-name="uni040C" unicode="&#x40c;" horiz-adv-x="1404" 
d="M1106 0l-465 657h-242v-657h-241v1454h241v-592h244l442 592h275l-520 -686l544 -768h-278zM596 1579l143 293h248l-192 -293h-199z" />
    <glyph glyph-name="uni040E" unicode="&#x40e;" horiz-adv-x="1300" 
d="M375 -29q-76 0 -191 27l45 205q85 -19 133 -19q58 0 102.5 27.5t76.5 103.5l8 17l-529 1122h254l390 -860l376 860h240l-541 -1196q-47 -104 -91.5 -163.5t-111 -91.5t-161.5 -32zM303 1849q0 -145 94 -215.5t254 -70.5q159 0 252.5 70.5t93.5 215.5h-182
q0 -71 -42.5 -109t-121.5 -38q-81 0 -122.5 38t-41.5 109h-184z" />
    <glyph glyph-name="uni040F" unicode="&#x40f;" horiz-adv-x="1470" 
d="M158 1454h241v-1249h672v1249h242v-1454h-459v-319h-238v319h-458v1454z" />
    <glyph glyph-name="uni0410" unicode="&#x410;" horiz-adv-x="1419" 
d="M27 0l524 1454h317l525 -1454h-252l-115 328h-641l-113 -328h-245zM455 528h501l-61 179q-153 444 -188 563q-45 -153 -191 -565z" />
    <glyph glyph-name="uni0411" unicode="&#x411;" horiz-adv-x="1331" 
d="M158 0v1454h1013v-205h-772v-368h394q216 0 347.5 -119t131.5 -322t-131.5 -321.5t-347.5 -118.5h-635zM399 201h355q129 0 202.5 61t73.5 178q0 118 -73.5 179t-202.5 61h-355v-479z" />
    <glyph glyph-name="uni0412" unicode="&#x412;" horiz-adv-x="1384" 
d="M827 1454q125 0 221.5 -41t154 -126.5t57.5 -205.5q0 -119 -61 -199.5t-167 -117.5q132 -38 205.5 -127.5t73.5 -226.5q0 -189 -122.5 -299.5t-326.5 -110.5h-704v1454h669zM399 190h379q142 0 216.5 62.5t74.5 173.5q0 109 -76 173.5t-213 64.5h-381v-474zM399 854h373
q119 0 185.5 56t66.5 155q0 98 -65 148.5t-187 50.5h-373v-410z" />
    <glyph glyph-name="uni0413" unicode="&#x413;" horiz-adv-x="1169" 
d="M1112 1249h-713v-1249h-241v1454h954v-205z" />
    <glyph glyph-name="uni0414" unicode="&#x414;" horiz-adv-x="1589" 
d="M559 895q-7 -491 -137 -690h682v1044h-541zM43 -303v508h127q32 46 56 94.5t50.5 129.5t41.5 201.5t16 272.5l4 551h1008v-1249h178v-508h-238v303h-1005v-303h-238z" />
    <glyph glyph-name="uni0415" unicode="&#x415;" horiz-adv-x="1269" 
d="M1155 1454v-205h-756v-397h705v-203h-705v-444h777v-205h-1018v1454h997z" />
    <glyph glyph-name="uni0416" unicode="&#x416;" horiz-adv-x="2101" 
d="M1800 0l-432 657h-201v-657h-233v657h-201l-430 -657h-283l512 770l-485 684h277l411 -592h199v592h233v-592h199l414 592h274l-485 -684l514 -770h-283z" />
    <glyph glyph-name="uni0417" unicode="&#x417;" horiz-adv-x="1345" 
d="M668 -33q-172 0 -320 55t-289 187l142 166q114 -101 221.5 -149t247.5 -48q157 0 251.5 64.5t94.5 189.5q0 100 -76.5 158.5t-234.5 58.5h-281v197h272q277 0 277 211q0 98 -82 158.5t-219 60.5q-122 0 -218 -38.5t-208 -133.5l-144 166q132 116 266.5 166.5t299.5 50.5
q252 0 397 -111t145 -301q0 -225 -219 -315q129 -43 197.5 -129t68.5 -209q0 -209 -160 -332t-429 -123z" />
    <glyph glyph-name="uni0418" unicode="&#x418;" horiz-adv-x="1513" 
d="M158 1454h235v-590q0 -370 -12 -579q150 271 307 518l404 651h264v-1454h-236v571q0 329 15 605q-93 -168 -328 -549l-389 -627h-260v1454z" />
    <glyph glyph-name="uni0419" unicode="&#x419;" horiz-adv-x="1513" 
d="M158 1454h235v-590q0 -370 -12 -579q150 271 307 518l404 651h264v-1454h-236v571q0 329 15 605q-93 -168 -328 -549l-389 -627h-260v1454zM410 1849q0 -145 94 -215.5t254 -70.5q159 0 252.5 70.5t93.5 215.5h-182q0 -71 -42.5 -109t-121.5 -38q-81 0 -122.5 38
t-41.5 109h-184z" />
    <glyph glyph-name="uni041A" unicode="&#x41a;" horiz-adv-x="1404" 
d="M1106 0l-465 657h-242v-657h-241v1454h241v-592h244l442 592h275l-520 -686l544 -768h-278z" />
    <glyph glyph-name="uni041B" unicode="&#x41b;" horiz-adv-x="1521" 
d="M203 -16q-84 0 -156 20l27 205q45 -10 100 -10q30 0 53 6.5t40.5 23.5t29.5 35t20 53t13 64.5t7.5 82t3.5 93.5t1 111l4 786h1018v-1454h-242v1249h-549l-4 -622q0 -92 -4 -163t-14.5 -140.5t-28 -119.5t-45 -93.5t-65.5 -70t-90.5 -41.5t-118.5 -15z" />
    <glyph glyph-name="uni041C" unicode="&#x41c;" horiz-adv-x="1826" 
d="M1669 1454v-1454h-235v733q0 187 8 543q-29 -95 -89 -276.5t-87 -266.5l-244 -733h-213l-248 733q-155 463 -176 531q4 -348 4 -533v-731h-231v1454h383l207 -614q108 -310 170 -537q59 213 167 537l205 614h379z" />
    <glyph glyph-name="uni041D" unicode="&#x41d;" horiz-adv-x="1509" 
d="M1352 1454v-1454h-244v657h-709v-657h-241v1454h241v-592h709v592h244z" />
    <glyph glyph-name="uni041E" unicode="&#x41e;" horiz-adv-x="1566" 
d="M784 1487q214 0 375.5 -99.5t245.5 -271.5t84 -389t-84 -389t-245.5 -271.5t-375.5 -99.5q-161 0 -294.5 58t-223 159.5t-139 241t-49.5 301.5t49.5 301.5t139 241t223 159.5t294.5 58zM326 727q0 -246 125.5 -396.5t332.5 -150.5t332 150.5t125 396.5q0 245 -125.5 396
t-331.5 151t-332 -151t-126 -396z" />
    <glyph glyph-name="uni041F" unicode="&#x41f;" horiz-adv-x="1480" 
d="M1323 0h-244v1249h-680v-1249h-241v1454h1165v-1454z" />
    <glyph glyph-name="uni0420" unicode="&#x420;" horiz-adv-x="1368" 
d="M823 1454q218 0 347.5 -121t129.5 -327t-129.5 -326.5t-347.5 -120.5h-424v-559h-241v1454h665zM399 760h385q128 0 201.5 64t73.5 182q0 120 -73.5 183.5t-201.5 63.5h-385v-493z" />
    <glyph glyph-name="uni0421" unicode="&#x421;" horiz-adv-x="1380" 
d="M795 1487q154 0 276.5 -49t253.5 -162l-141 -168q-113 96 -202 132t-189 36q-215 0 -341 -150t-126 -397q0 -248 125.5 -399.5t332.5 -151.5q116 0 206.5 45.5t213.5 153.5l146 -164q-139 -131 -269 -188.5t-293 -57.5q-216 0 -379 100t-247 272t-84 390
q0 162 48.5 300.5t138 240.5t226 159.5t304.5 57.5z" />
    <glyph glyph-name="uni0422" unicode="&#x422;" horiz-adv-x="1255" 
d="M1198 1454v-207h-448v-1247h-244v1247h-447v207h1139z" />
    <glyph glyph-name="uni0423" unicode="&#x423;" horiz-adv-x="1300" 
d="M375 -29q-76 0 -191 27l45 205q85 -19 133 -19q58 0 102.5 27.5t76.5 103.5l8 17l-529 1122h254l390 -860l376 860h240l-541 -1196q-47 -104 -91.5 -163.5t-111 -91.5t-161.5 -32z" />
    <glyph glyph-name="uni0424" unicode="&#x424;" horiz-adv-x="1873" 
d="M1079 1370q332 0 524.5 -173t192.5 -460t-192.5 -460t-524.5 -173h-24v-176h-236v176h-24q-332 0 -524.5 173t-192.5 460t192.5 460t524.5 173h24v156h236v-156h24zM324 737q0 -202 123 -318t348 -116h28v868h-28q-225 0 -348 -116t-123 -318zM1051 303h28
q224 0 347.5 116t123.5 318t-123.5 318t-347.5 116h-28v-868z" />
    <glyph glyph-name="uni0425" unicode="&#x425;" horiz-adv-x="1386" 
d="M1042 1454h271l-475 -686l526 -768h-272l-400 594l-401 -594h-268l524 770l-473 684h274l348 -514z" />
    <glyph glyph-name="uni0426" unicode="&#x426;" horiz-adv-x="1556" 
d="M158 1454h241v-1249h672v1249h242v-1249h176v-508h-236v303h-1095v1454z" />
    <glyph glyph-name="uni0427" unicode="&#x427;" horiz-adv-x="1382" 
d="M981 1454h244v-1454h-244v588q-156 -60 -344 -60q-271 0 -392.5 117.5t-121.5 339.5v469h244v-467q0 -132 73 -189t224 -57q182 0 317 60v653z" />
    <glyph glyph-name="uni0428" unicode="&#x428;" horiz-adv-x="2156" 
d="M1999 1454v-1454h-1841v1454h241v-1249h557v1249h244v-1249h555v1249h244z" />
    <glyph glyph-name="uni0429" unicode="&#x429;" horiz-adv-x="2242" 
d="M1939 -303v303h-1781v1454h241v-1249h557v1249h244v-1249h555v1249h244v-1249h176v-508h-236z" />
    <glyph glyph-name="uni042A" unicode="&#x42a;" horiz-adv-x="1607" 
d="M432 0v1249h-373v205h615v-553h387q219 0 353 -121t134 -329q0 -210 -133.5 -330.5t-353.5 -120.5h-629zM674 201h348q132 0 208.5 64t76.5 186t-76.5 185.5t-208.5 63.5h-348v-499z" />
    <glyph glyph-name="uni042B" unicode="&#x42b;" horiz-adv-x="1849" 
d="M158 0v1454h241v-553h387q220 0 354 -121t134 -329q0 -209 -134 -330t-354 -121h-628zM399 201h349q132 0 208 64t76 186t-76 185.5t-208 63.5h-349v-499zM1450 0v1454h242v-1454h-242z" />
    <glyph glyph-name="uni042C" unicode="&#x42c;" horiz-adv-x="1333" 
d="M158 0v1454h241v-553h387q220 0 354 -121t134 -329q0 -209 -134 -330t-354 -121h-628zM399 201h349q132 0 208 64t76 186t-76 185.5t-208 63.5h-349v-499z" />
    <glyph glyph-name="uni042D" unicode="&#x42d;" horiz-adv-x="1378" 
d="M586 1487q222 0 385.5 -100t246 -270t82.5 -388t-84 -390t-246.5 -272t-377.5 -100q-163 0 -292.5 57.5t-266.5 188.5l143 164q122 -107 214 -153t208 -46q193 0 316 127.5t143 343.5h-645v201h641q-30 197 -151 311.5t-312 114.5q-99 0 -189 -36t-202 -132l-144 168
q131 113 254.5 162t276.5 49z" />
    <glyph glyph-name="uni042E" unicode="&#x42e;" horiz-adv-x="2123" 
d="M1341 1487q214 0 375.5 -99.5t245.5 -271.5t84 -389t-84 -389t-245.5 -271.5t-375.5 -99.5q-202 0 -357.5 88.5t-243 242t-103.5 351.5h-236v-649h-243v1454h243v-602h242q36 285 222 460t476 175zM883 727q0 -246 125.5 -396.5t332.5 -150.5t332 150.5t125 396.5
q0 245 -125.5 396t-331.5 151t-332 -151t-126 -396z" />
    <glyph glyph-name="uni042F" unicode="&#x42f;" horiz-adv-x="1386" 
d="M1229 1454v-1454h-236v539h-239l-412 -539h-274l426 547q-172 28 -276.5 150t-104.5 300q0 202 133 329.5t344 127.5h639zM352 997q0 -120 75 -188t204 -68h362v512h-360q-129 0 -205 -68t-76 -188z" />
    <glyph glyph-name="uni0430" unicode="&#x430;" horiz-adv-x="1120" 
d="M453 -33q-76 0 -141 16.5t-117 50t-81.5 91t-29.5 133.5q0 69 25.5 124.5t65.5 92t103 65.5t124.5 46t142.5 32l235 44v36q0 84 -57.5 130t-155.5 46q-97 0 -167 -38.5t-162 -130.5l-142 131q96 115 208.5 170t256.5 55q210 0 322 -98t112 -261v-702h-202v117
q-105 -150 -340 -150zM305 270q0 -58 47.5 -90.5t132.5 -32.5q124 0 209.5 66t85.5 190v95l-178 -37q-76 -16 -122.5 -29.5t-90.5 -35.5t-64 -53t-20 -73z" />
    <glyph glyph-name="uni0431" unicode="&#x431;" horiz-adv-x="1177" 
d="M600 -29q-247 0 -385.5 168.5t-138.5 489.5q0 155 18 273t61 217t113 165.5t175 108t247 53.5l342 31l19 -213l-340 -29q-115 -9 -191 -34t-130.5 -77t-82.5 -134t-37 -206q50 98 151.5 156.5t229.5 58.5q215 0 337 -134.5t122 -366.5q0 -236 -143.5 -381.5
t-366.5 -145.5zM305 494q0 -153 78.5 -242.5t212.5 -89.5q131 0 208 89.5t77 242.5q0 144 -75 230.5t-206 86.5q-129 0 -212 -88t-83 -229z" />
    <glyph glyph-name="uni0432" unicode="&#x432;" horiz-adv-x="1134" 
d="M674 1028q158 0 256 -71t98 -201q0 -83 -47.5 -141.5t-126.5 -86.5q95 -25 148 -86.5t53 -154.5q0 -131 -91.5 -209t-254.5 -78h-578v1028h543zM352 174h289q99 0 142.5 34.5t43.5 100.5q0 65 -48 100t-142 35h-285v-270zM352 600h283q170 0 170 133q0 125 -168 125h-285
v-258z" />
    <glyph glyph-name="uni0433" unicode="&#x433;" horiz-adv-x="888" 
d="M848 846h-492v-846h-225v1028h717v-182z" />
    <glyph glyph-name="uni0434" unicode="&#x434;" horiz-adv-x="1259" 
d="M43 -256v438h100q120 127 125 455l4 391h789v-846h147v-438h-217v256h-731v-256h-217zM377 182h459v664h-359l-4 -217q-5 -338 -96 -447z" />
    <glyph glyph-name="uni0435" unicode="&#x435;" horiz-adv-x="1124" 
d="M596 -31q-243 0 -384.5 146.5t-141.5 392.5q0 245 137 399t368 154q226 0 350 -135t124 -371q0 -42 -5 -92h-753q13 -135 90 -219t219 -84q91 0 157.5 33t162.5 120l131 -137q-110 -113 -218 -160t-237 -47zM297 627h530q-6 119 -73.5 187.5t-184.5 68.5
q-112 0 -181 -67.5t-91 -188.5z" />
    <glyph glyph-name="uni0436" unicode="&#x436;" horiz-adv-x="1630" 
d="M1608 0h-252l-291 442h-143v-442h-215v442h-144l-291 -442h-249l362 545l-330 483h244l264 -401h144v401h215v-401h145l262 401h244l-328 -483z" />
    <glyph glyph-name="uni0437" unicode="&#x437;" horiz-adv-x="1044" 
d="M510 -37q-265 0 -479 184l125 146q175 -141 356 -141q111 0 171 42t60 113q0 69 -53 100t-168 31h-180v170h193q184 0 184 133q0 61 -52.5 101.5t-154.5 40.5q-162 0 -336 -131l-108 147q112 83 219.5 123.5t234.5 40.5q75 0 147.5 -17.5t134.5 -52t100 -93.5t38 -134
q0 -168 -174 -234q199 -63 199 -235q0 -147 -121.5 -240.5t-335.5 -93.5z" />
    <glyph glyph-name="uni0438" unicode="&#x438;" horiz-adv-x="1200" 
d="M858 377q0 277 8 430q-96 -169 -209 -352l-280 -455h-246v1028h209v-397q0 -227 -6 -408q112 197 207 352l282 453h246v-1028h-211v377z" />
    <glyph glyph-name="uni0439" unicode="&#x439;" horiz-adv-x="1200" 
d="M858 377q0 277 8 430q-96 -169 -209 -352l-280 -455h-246v1028h209v-397q0 -227 -6 -408q112 197 207 352l282 453h246v-1028h-211v377zM252 1438q0 -145 94 -216t254 -71q159 0 252.5 71t93.5 216h-182q0 -71 -42.5 -109.5t-121.5 -38.5q-81 0 -122.5 38.5t-41.5 109.5
h-184z" />
    <glyph glyph-name="uni043A" unicode="&#x43a;" horiz-adv-x="1110" 
d="M356 0h-225v1028h225v-401h174l285 401h242l-348 -483l383 -545h-254l-310 442h-172v-442z" />
    <glyph glyph-name="uni043B" unicode="&#x43b;" horiz-adv-x="1204" 
d="M172 -12q-72 0 -137 14l20 182q62 -8 78 -8q36 0 59 10.5t39 33.5t24.5 69t12 107t4.5 157l4 475h799v-1028h-225v846h-369l-4 -297q-1 -127 -9 -212.5t-28 -156.5t-54 -110.5t-86.5 -60.5t-127.5 -21z" />
    <glyph glyph-name="uni043C" unicode="&#x43c;" horiz-adv-x="1495" 
d="M131 0v1028h334l160 -436q75 -199 125 -369q75 239 124 369l164 436h326v-1028h-211v428q0 204 8 442q-83 -240 -125 -350l-190 -520h-201l-190 520q-90 252 -123 348q8 -242 8 -440v-428h-209z" />
    <glyph glyph-name="uni043D" unicode="&#x43d;" horiz-adv-x="1155" 
d="M1024 0h-225v442h-443v-442h-225v1028h225v-401h443v401h225v-1028z" />
    <glyph glyph-name="uni043E" unicode="&#x43e;" horiz-adv-x="1185" 
d="M594 1061q230 0 376 -152t146 -395q0 -242 -146 -393.5t-376 -151.5q-232 0 -378 151t-146 394q0 244 146 395.5t378 151.5zM299 514q0 -160 80 -257t215 -97q132 0 212.5 97t80.5 257q0 161 -80.5 258.5t-212.5 97.5q-135 0 -215 -97t-80 -259z" />
    <glyph glyph-name="uni043F" unicode="&#x43f;" horiz-adv-x="1142" 
d="M131 0v1028h881v-1028h-226v846h-430v-846h-225z" />
    <glyph glyph-name="uni0440" unicode="&#x440;" horiz-adv-x="1202" 
d="M674 -27q-211 0 -322 146v-488h-225v1397h209v-145q112 174 340 174q199 0 326.5 -149t127.5 -392q0 -245 -128 -394t-328 -149zM342 516q0 -161 81 -254.5t206 -93.5q122 0 197 94.5t75 253.5q0 158 -73.5 253t-198.5 95q-127 0 -207 -94t-80 -254z" />
    <glyph glyph-name="uni0441" unicode="&#x441;" horiz-adv-x="1056" 
d="M866 727q-83 83 -146 113t-134 30q-91 0 -157.5 -50.5t-98 -129.5t-31.5 -176q0 -149 75.5 -250.5t211.5 -101.5q78 0 142.5 36t148.5 128l149 -125q-103 -129 -205 -180.5t-237 -51.5q-232 0 -373 148t-141 397t143 398t373 149q128 0 227 -44.5t197 -150.5z" />
    <glyph glyph-name="uni0442" unicode="&#x442;" horiz-adv-x="989" 
d="M948 846h-342v-846h-225v846h-340v182h907v-182z" />
    <glyph glyph-name="uni0443" unicode="&#x443;" horiz-adv-x="1032" 
d="M602 -127q-51 -146 -126 -208t-210 -62q-97 0 -180 22l37 170q74 -12 117 -12q60 0 100 31t68 114l6 19l-387 1081h237l101 -301q85 -250 157 -483q77 253 154 485l100 299h230z" />
    <glyph glyph-name="uni0444" unicode="&#x444;" horiz-adv-x="1517" 
d="M1221 514q0 173 -96 265.5t-263 97.5v-725q167 5 263 97t96 265zM70 514q0 170 76.5 293t205.5 184.5t299 67.5v395h217v-395q126 -5 231.5 -41.5t184 -103.5t122.5 -169.5t44 -230.5t-44 -230.5t-122.5 -169.5t-184 -103.5t-231.5 -41.5v-338h-217v338q-170 6 -299 67.5
t-205.5 184.5t-76.5 293zM299 514q0 -173 95.5 -265t262.5 -97v725q-167 -5 -262.5 -97.5t-95.5 -265.5z" />
    <glyph glyph-name="uni0445" unicode="&#x445;" horiz-adv-x="1032" 
d="M16 0l373 539l-340 489h246l223 -330l219 330h244l-336 -481l371 -547h-250l-250 381l-256 -381h-244z" />
    <glyph glyph-name="uni0446" unicode="&#x446;" horiz-adv-x="1218" 
d="M950 -256v256h-819v1028h225v-846h439v846h225v-846h149v-438h-219z" />
    <glyph glyph-name="uni0447" unicode="&#x447;" horiz-adv-x="1093" 
d="M737 1028h226v-1028h-226v387q-118 -49 -264 -49q-205 0 -296 82.5t-91 251.5v356h225v-334q0 -87 44.5 -127.5t156.5 -40.5q140 0 225 39v463z" />
    <glyph glyph-name="uni0448" unicode="&#x448;" horiz-adv-x="1658" 
d="M1528 1028v-1028h-1397v1028h225v-844h361v844h225v-844h361v844h225z" />
    <glyph glyph-name="uni0449" unicode="&#x449;" horiz-adv-x="1726" 
d="M1458 -256v256h-1327v1028h225v-844h363v844h223v-844h361v844h225v-846h149v-438h-219z" />
    <glyph glyph-name="uni044A" unicode="&#x44a;" horiz-adv-x="1275" 
d="M326 0v846h-285v182h510v-323h270q179 0 287.5 -94.5t108.5 -258.5t-108.5 -258t-287.5 -94h-495zM551 184h240q196 0 196 168t-196 168h-240v-336z" />
    <glyph glyph-name="uni044B" unicode="&#x44b;" horiz-adv-x="1497" 
d="M131 0v1028h225v-323h271q179 0 287 -94.5t108 -258.5t-108 -258t-287 -94h-496zM356 184h240q197 0 197 168t-197 168h-240v-336zM1143 0v1028h225v-1028h-225z" />
    <glyph glyph-name="uni044C" unicode="&#x44c;" horiz-adv-x="1081" 
d="M131 0v1028h225v-323h271q179 0 287 -94.5t108 -258.5t-108 -258t-287 -94h-496zM356 184h240q197 0 197 168t-197 168h-240v-336z" />
    <glyph glyph-name="uni044D" unicode="&#x44d;" horiz-adv-x="1056" 
d="M324 438v168h436q-20 119 -90.5 191.5t-188.5 72.5q-79 0 -143.5 -29.5t-147.5 -113.5l-143 139q98 106 197 150.5t227 44.5q230 0 373 -149t143 -398t-141 -397t-373 -148q-135 0 -237 51.5t-205 180.5l149 125q84 -93 149 -128.5t150 -35.5q123 0 195 76.5t88 199.5
h-438z" />
    <glyph glyph-name="uni044E" unicode="&#x44e;" horiz-adv-x="1648" 
d="M1059 1061q230 0 376 -152t146 -395q0 -242 -146 -393.5t-376 -151.5q-216 0 -359 132.5t-163 349.5h-185v-451h-225v1028h225v-416h189q29 203 170.5 326t347.5 123zM764 514q0 -160 80 -257t215 -97q132 0 212.5 97t80.5 257q0 161 -80.5 258.5t-212.5 97.5
q-135 0 -215 -97t-80 -259z" />
    <glyph glyph-name="uni044F" unicode="&#x44f;" horiz-adv-x="1110" 
d="M764 0v348h-176l-283 -348h-258l305 362q-124 31 -194 117.5t-70 210.5q0 154 106 246t283 92h502v-1028h-215zM313 690q0 -74 49 -118t142 -44h260v320h-260q-93 0 -142 -42t-49 -116z" />
    <glyph glyph-name="uni0451" unicode="&#x451;" horiz-adv-x="1124" 
d="M596 -31q-243 0 -384.5 146.5t-141.5 392.5q0 245 137 399t368 154q226 0 350 -135t124 -371q0 -42 -5 -92h-753q13 -135 90 -219t219 -84q91 0 157.5 33t162.5 120l131 -137q-110 -113 -218 -160t-237 -47zM293 1206v232h219v-232h-219zM297 627h530q-6 119 -73.5 187.5
t-184.5 68.5q-112 0 -181 -67.5t-91 -188.5zM678 1206v232h219v-232h-219z" />
    <glyph glyph-name="uni0452" unicode="&#x452;" horiz-adv-x="1210" 
d="M780 -391q-110 0 -205 31l41 170q78 -19 125 -19q66 0 93.5 36t27.5 114v659q0 114 -55 174t-158 60q-97 0 -163 -68t-66 -172v-594h-225v1182h-148v143h148v129h225v-129h379v-143h-379v-291q107 135 301 135q177 0 271.5 -98.5t94.5 -257.5v-727q0 -170 -76.5 -252
t-230.5 -82z" />
    <glyph glyph-name="uni0453" unicode="&#x453;" horiz-adv-x="888" 
d="M848 846h-492v-846h-225v1028h717v-182zM362 1167l144 293h248l-193 -293h-199z" />
    <glyph glyph-name="uni0454" unicode="&#x454;" horiz-adv-x="1056" 
d="M733 438h-438q16 -123 88 -199.5t195 -76.5q85 0 150 35.5t149 128.5l149 -125q-103 -129 -205 -180.5t-237 -51.5q-232 0 -373 148t-141 397t143 398t373 149q128 0 227 -44.5t197 -150.5l-144 -139q-83 84 -147.5 113.5t-143.5 29.5q-118 0 -188 -72.5t-90 -191.5h436
v-168z" />
    <glyph glyph-name="uni0455" unicode="&#x455;" horiz-adv-x="1013" 
d="M502 1061q129 0 228.5 -35.5t205.5 -120.5l-123 -149q-94 71 -162.5 97t-152.5 26q-89 0 -143 -35t-54 -90q0 -52 46.5 -74t188.5 -54q14 -3 21 -5q215 -47 305 -117t90 -205q0 -148 -115.5 -239t-312.5 -91q-142 0 -253.5 43t-233.5 150l131 147q111 -92 188 -124.5
t172 -32.5q89 0 146 36t57 97q0 35 -18 59t-56.5 40.5t-78.5 27t-104 24.5q-7 1 -11 2q-215 48 -296 112.5t-81 194.5q0 137 112.5 226.5t303.5 89.5z" />
    <glyph glyph-name="uni0456" unicode="&#x456;" horiz-adv-x="477" 
d="M352 1028v-1028h-225v1028h225zM127 1206v232h225v-232h-225z" />
    <glyph glyph-name="uni0457" unicode="&#x457;" horiz-adv-x="477" 
d="M352 1028v-1028h-225v1028h225zM-63 1206v232h219v-232h-219zM322 1206v232h219v-232h-219z" />
    <glyph glyph-name="uni0458" unicode="&#x458;" horiz-adv-x="485" 
d="M-113 -193q82 -16 127 -16q65 0 92 36t27 114v1087h225v-1085q0 -170 -76.5 -252t-230.5 -82q-110 0 -205 31zM133 1206v232h225v-232h-225z" />
    <glyph glyph-name="uni0459" unicode="&#x459;" horiz-adv-x="1824" 
d="M1386 655q173 0 276 -85.5t103 -241.5q0 -157 -102.5 -242.5t-276.5 -85.5h-536v846h-369l-4 -297q-1 -127 -9 -212.5t-28 -156.5t-54 -110.5t-86.5 -60.5t-127.5 -21q-72 0 -137 14l20 182q62 -8 78 -8q36 0 59 10.5t39 33.5t24.5 69t12 107t4.5 157l4 475h799v-373h311
zM1075 184h287q172 0 172 144q0 143 -172 143h-287v-287z" />
    <glyph glyph-name="uni045A" unicode="&#x45a;" horiz-adv-x="1775" 
d="M131 0v1028h225v-373h443v373h225v-373h313q173 0 276 -85.5t103 -241.5q0 -157 -102.5 -242.5t-276.5 -85.5h-538v471h-443v-471h-225zM1024 184h289q87 0 130.5 37.5t43.5 106.5q0 143 -174 143h-289v-287z" />
    <glyph glyph-name="uni045B" unicode="&#x45b;" horiz-adv-x="1210" 
d="M195 0v1182h-148v143h148v129h225v-129h379v-143h-379v-289q108 133 301 133q177 0 271.5 -98.5t94.5 -257.5v-670h-225v600q0 114 -55 174t-158 60q-97 0 -163 -68t-66 -172v-594h-225z" />
    <glyph glyph-name="uni045C" unicode="&#x45c;" horiz-adv-x="1110" 
d="M356 0h-225v1028h225v-401h174l285 401h242l-348 -483l383 -545h-254l-310 442h-172v-442zM471 1167l143 293h248l-192 -293h-199z" />
    <glyph glyph-name="uni045E" unicode="&#x45e;" horiz-adv-x="1032" 
d="M602 -127q-51 -146 -126 -208t-210 -62q-97 0 -180 22l37 170q74 -12 117 -12q60 0 100 31t68 114l6 19l-387 1081h237l101 -301q85 -250 157 -483q77 253 154 485l100 299h230zM168 1438q0 -145 94 -216t254 -71q159 0 252.5 71t93.5 216h-182q0 -71 -42.5 -109.5
t-121.5 -38.5q-81 0 -122.5 38.5t-41.5 109.5h-184z" />
    <glyph glyph-name="uni045F" unicode="&#x45f;" horiz-adv-x="1157" 
d="M469 -264v264h-338v1028h225v-846h445v846h225v-1028h-340v-264h-217z" />
    <glyph glyph-name="uni0490" unicode="&#x490;" horiz-adv-x="1169" 
d="M158 0v1454h716v299h238v-504h-713v-1249h-241z" />
    <glyph glyph-name="uni0491" unicode="&#x491;" horiz-adv-x="925" 
d="M131 0v1028h547v268h215v-450h-537v-846h-225z" />
    <glyph glyph-name="Wgrave" unicode="&#x1e80;" horiz-adv-x="1957" 
d="M1901 1454l-351 -1454h-284l-160 610q-76 288 -125 520q-56 -250 -125 -522l-160 -608h-286l-353 1454h246l154 -659q45 -192 108 -519q76 337 125 519l176 659h240l172 -659q70 -274 123 -523q69 366 106 523l156 659h238zM690 1872h250l143 -293h-198z" />
    <glyph glyph-name="wgrave" unicode="&#x1e81;" horiz-adv-x="1568" 
d="M1534 1028l-287 -1028h-270l-84 301q-64 231 -111 447q-84 -355 -108 -447l-82 -301h-268l-289 1028h237l90 -358q62 -244 107 -467q39 169 115 467l96 358h211l98 -358q53 -199 115 -471q50 248 106 471l93 358h231zM498 1460h250l143 -293h-199z" />
    <glyph glyph-name="Wacute" unicode="&#x1e82;" horiz-adv-x="1957" 
d="M1901 1454l-351 -1454h-284l-160 610q-76 288 -125 520q-56 -250 -125 -522l-160 -608h-286l-353 1454h246l154 -659q45 -192 108 -519q76 337 125 519l176 659h240l172 -659q70 -274 123 -523q69 366 106 523l156 659h238zM877 1579l143 293h248l-193 -293h-198z" />
    <glyph glyph-name="wacute" unicode="&#x1e83;" horiz-adv-x="1568" 
d="M1534 1028l-287 -1028h-270l-84 301q-64 231 -111 447q-84 -355 -108 -447l-82 -301h-268l-289 1028h237l90 -358q62 -244 107 -467q39 169 115 467l96 358h211l98 -358q53 -199 115 -471q50 248 106 471l93 358h231zM684 1167l143 293h248l-192 -293h-199z" />
    <glyph glyph-name="Wdieresis" unicode="&#x1e84;" horiz-adv-x="1957" 
d="M1901 1454l-351 -1454h-284l-160 610q-76 288 -125 520q-56 -250 -125 -522l-160 -608h-286l-353 1454h246l154 -659q45 -192 108 -519q76 337 125 519l176 659h240l172 -659q70 -274 123 -523q69 366 106 523l156 659h238zM678 1618v231h219v-231h-219zM1063 1618v231
h219v-231h-219z" />
    <glyph glyph-name="wdieresis" unicode="&#x1e85;" horiz-adv-x="1568" 
d="M1534 1028l-287 -1028h-270l-84 301q-64 231 -111 447q-84 -355 -108 -447l-82 -301h-268l-289 1028h237l90 -358q62 -244 107 -467q39 169 115 467l96 358h211l98 -358q53 -199 115 -471q50 248 106 471l93 358h231zM483 1206v232h219v-232h-219zM868 1206v232h219v-232
h-219z" />
    <glyph glyph-name="uni1E9E" unicode="&#x1e9e;" horiz-adv-x="1513" 
d="M903 -29q-144 0 -325 47l43 201q140 -45 276 -45q138 0 229 66t91 184q0 46 -20 82t-51.5 61t-89.5 47.5t-114 37.5t-145 34l-66 16v172l340 330q-139 80 -315 80q-171 0 -269 -78.5t-98 -226.5v-979h-235v993q0 122 48 217.5t131.5 155t192 90.5t234.5 31q178 0 314 -49
t226 -121v-158l-311 -301q177 -49 278 -109.5t142 -136t41 -184.5q0 -94 -38.5 -177t-108 -145t-173 -98.5t-227.5 -36.5z" />
    <glyph glyph-name="uni1EA0" unicode="&#x1ea0;" horiz-adv-x="1419" 
d="M27 0l524 1454h317l525 -1454h-252l-115 328h-641l-113 -328h-245zM455 528h501l-61 179q-153 444 -188 563q-45 -153 -191 -565zM596 -369v232h225v-232h-225z" />
    <glyph glyph-name="uni1EA1" unicode="&#x1ea1;" horiz-adv-x="1120" 
d="M453 -33q-76 0 -141 16.5t-117 50t-81.5 91t-29.5 133.5q0 69 25.5 124.5t65.5 92t103 65.5t124.5 46t142.5 32l235 44v36q0 84 -57.5 130t-155.5 46q-97 0 -167 -38.5t-162 -130.5l-142 131q96 115 208.5 170t256.5 55q210 0 322 -98t112 -261v-702h-202v117
q-105 -150 -340 -150zM305 270q0 -58 47.5 -90.5t132.5 -32.5q124 0 209.5 66t85.5 190v95l-178 -37q-76 -16 -122.5 -29.5t-90.5 -35.5t-64 -53t-20 -73zM481 -369v232h226v-232h-226z" />
    <glyph glyph-name="uni1EA2" unicode="&#x1ea2;" horiz-adv-x="1419" 
d="M27 0l524 1454h317l525 -1454h-252l-115 328h-641l-113 -328h-245zM455 528h501l-61 179q-153 444 -188 563q-45 -153 -191 -565zM526 1876q61 22 148 22q94 0 145 -42t51 -115q0 -69 -50 -121t-128 -78l-61 76q96 47 96 98q0 28 -20 39.5t-62 11.5q-54 0 -100 -16z" />
    <glyph glyph-name="uni1EA3" unicode="&#x1ea3;" horiz-adv-x="1120" 
d="M453 -33q-76 0 -141 16.5t-117 50t-81.5 91t-29.5 133.5q0 69 25.5 124.5t65.5 92t103 65.5t124.5 46t142.5 32l235 44v36q0 84 -57.5 130t-155.5 46q-97 0 -167 -38.5t-162 -130.5l-142 131q96 115 208.5 170t256.5 55q210 0 322 -98t112 -261v-702h-202v117
q-105 -150 -340 -150zM305 270q0 -58 47.5 -90.5t132.5 -32.5q124 0 209.5 66t85.5 190v95l-178 -37q-76 -16 -122.5 -29.5t-90.5 -35.5t-64 -53t-20 -73zM389 1464q64 23 148 23q94 0 145 -42.5t51 -115.5q0 -69 -50 -121t-128 -78l-61 76q96 47 96 99q0 28 -20 39.5
t-62 11.5q-51 0 -100 -17z" />
    <glyph glyph-name="uni1EA4" unicode="&#x1ea4;" horiz-adv-x="1419" 
d="M27 0l524 1454h317l525 -1454h-252l-115 328h-641l-113 -328h-245zM365 1579l200 258h283l201 -258h-201l-141 160l-144 -160h-198zM455 528h501l-61 179q-153 444 -188 563q-45 -153 -191 -565zM1008 1722l127 252h231l-170 -252h-188z" />
    <glyph glyph-name="uni1EA5" unicode="&#x1ea5;" horiz-adv-x="1120" 
d="M453 -33q-76 0 -141 16.5t-117 50t-81.5 91t-29.5 133.5q0 69 25.5 124.5t65.5 92t103 65.5t124.5 46t142.5 32l235 44v36q0 84 -57.5 130t-155.5 46q-97 0 -167 -38.5t-162 -130.5l-142 131q96 115 208.5 170t256.5 55q210 0 322 -98t112 -261v-702h-202v117
q-105 -150 -340 -150zM227 1167l201 258h283l200 -258h-200l-142 160l-143 -160h-199zM305 270q0 -58 47.5 -90.5t132.5 -32.5q124 0 209.5 66t85.5 190v95l-178 -37q-76 -16 -122.5 -29.5t-90.5 -35.5t-64 -53t-20 -73zM870 1311l127 252h232l-170 -252h-189z" />
    <glyph glyph-name="uni1EA6" unicode="&#x1ea6;" horiz-adv-x="1419" 
d="M27 0l524 1454h317l525 -1454h-252l-115 328h-641l-113 -328h-245zM362 1579l201 258h283l201 -258h-201l-141 162l-144 -162h-199zM455 528h501l-61 179q-153 444 -188 563q-45 -153 -191 -565zM897 1974h233l127 -252h-188z" />
    <glyph glyph-name="uni1EA7" unicode="&#x1ea7;" horiz-adv-x="1120" 
d="M453 -33q-76 0 -141 16.5t-117 50t-81.5 91t-29.5 133.5q0 69 25.5 124.5t65.5 92t103 65.5t124.5 46t142.5 32l235 44v36q0 84 -57.5 130t-155.5 46q-97 0 -167 -38.5t-162 -130.5l-142 131q96 115 208.5 170t256.5 55q210 0 322 -98t112 -261v-702h-202v117
q-105 -150 -340 -150zM225 1167l201 258h283l200 -258h-200l-142 162l-143 -162h-199zM305 270q0 -58 47.5 -90.5t132.5 -32.5q124 0 209.5 66t85.5 190v95l-178 -37q-76 -16 -122.5 -29.5t-90.5 -35.5t-64 -53t-20 -73zM760 1563h233l127 -252h-188z" />
    <glyph glyph-name="uni1EA8" unicode="&#x1ea8;" horiz-adv-x="1419" 
d="M27 0l524 1454h317l525 -1454h-252l-115 328h-641l-113 -328h-245zM365 1579l200 258h281l203 -258h-199l-143 162l-146 -162h-196zM455 528h501l-61 179q-153 444 -188 563q-45 -153 -191 -565zM881 2025q64 23 147 23q94 0 145.5 -42.5t51.5 -115.5q0 -69 -50 -120.5
t-128 -77.5l-62 75q96 47 96 99q0 28 -20 39.5t-62 11.5q-54 0 -100 -16z" />
    <glyph glyph-name="uni1EA9" unicode="&#x1ea9;" horiz-adv-x="1120" 
d="M453 -33q-76 0 -141 16.5t-117 50t-81.5 91t-29.5 133.5q0 69 25.5 124.5t65.5 92t103 65.5t124.5 46t142.5 32l235 44v36q0 84 -57.5 130t-155.5 46q-97 0 -167 -38.5t-162 -130.5l-142 131q96 115 208.5 170t256.5 55q210 0 322 -98t112 -261v-702h-202v117
q-105 -150 -340 -150zM227 1167l201 258h281l202 -258h-198l-144 162l-145 -162h-197zM305 270q0 -58 47.5 -90.5t132.5 -32.5q124 0 209.5 66t85.5 190v95l-178 -37q-76 -16 -122.5 -29.5t-90.5 -35.5t-64 -53t-20 -73zM743 1614q61 22 148 22q94 0 145 -42t51 -115
q0 -69 -50 -121t-128 -78l-61 76q96 47 96 98q0 28 -20 39.5t-62 11.5q-54 0 -100 -16z" />
    <glyph glyph-name="uni1EAA" unicode="&#x1eaa;" horiz-adv-x="1419" 
d="M27 0l524 1454h317l525 -1454h-252l-115 328h-641l-113 -328h-245zM367 1579l200 246h281l203 -246h-199l-143 147l-146 -147h-196zM393 1876q1 103 55 158t136 55q44 0 90.5 -20.5t87.5 -41t72 -20.5q59 0 59 82h129q0 -105 -46.5 -160t-129.5 -55q-43 0 -89.5 20.5
t-88.5 41t-76 20.5q-35 0 -51.5 -22.5t-16.5 -57.5h-131zM455 528h501l-61 179q-153 444 -188 563q-45 -153 -191 -565z" />
    <glyph glyph-name="uni1EAB" unicode="&#x1eab;" horiz-adv-x="1120" 
d="M453 -33q-76 0 -141 16.5t-117 50t-81.5 91t-29.5 133.5q0 69 25.5 124.5t65.5 92t103 65.5t124.5 46t142.5 32l235 44v36q0 84 -57.5 130t-155.5 46q-97 0 -167 -38.5t-162 -130.5l-142 131q96 115 208.5 170t256.5 55q210 0 322 -98t112 -261v-702h-202v117
q-105 -150 -340 -150zM229 1167l201 246h281l202 -246h-198l-144 148l-145 -148h-197zM256 1464q1 103 54.5 158t135.5 55q44 0 90.5 -20.5t87.5 -41t72 -20.5q60 0 60 82h129q0 -105 -46.5 -160t-129.5 -55q-53 0 -134 41t-120 41q-35 0 -51.5 -22.5t-16.5 -57.5h-131z
M305 270q0 -58 47.5 -90.5t132.5 -32.5q124 0 209.5 66t85.5 190v95l-178 -37q-76 -16 -122.5 -29.5t-90.5 -35.5t-64 -53t-20 -73z" />
    <glyph glyph-name="uni1EAC" unicode="&#x1eac;" horiz-adv-x="1419" 
d="M27 0l524 1454h317l525 -1454h-252l-115 328h-641l-113 -328h-245zM360 1579l205 293h283l205 -293h-193l-153 193l-156 -193h-191zM455 528h501l-61 179q-153 444 -188 563q-45 -153 -191 -565zM596 -369v232h225v-232h-225z" />
    <glyph glyph-name="uni1EAD" unicode="&#x1ead;" horiz-adv-x="1120" 
d="M453 -33q-76 0 -141 16.5t-117 50t-81.5 91t-29.5 133.5q0 69 25.5 124.5t65.5 92t103 65.5t124.5 46t142.5 32l235 44v36q0 84 -57.5 130t-155.5 46q-97 0 -167 -38.5t-162 -130.5l-142 131q96 115 208.5 170t256.5 55q210 0 322 -98t112 -261v-702h-202v117
q-105 -150 -340 -150zM223 1167l205 293h283l204 -293h-192l-154 193l-155 -193h-191zM305 270q0 -58 47.5 -90.5t132.5 -32.5q124 0 209.5 66t85.5 190v95l-178 -37q-76 -16 -122.5 -29.5t-90.5 -35.5t-64 -53t-20 -73zM481 -369v232h226v-232h-226z" />
    <glyph glyph-name="uni1EAE" unicode="&#x1eae;" horiz-adv-x="1419" 
d="M27 0l524 1454h317l525 -1454h-252l-115 328h-641l-113 -328h-245zM383 1802h160q6 -49 49.5 -81.5t116.5 -32.5q72 0 115 32.5t48 81.5h162q-9 -108 -99.5 -175.5t-225.5 -67.5t-227 68t-99 175zM455 528h501l-61 179q-153 444 -188 563q-45 -153 -191 -565zM608 1800
l127 205h228l-183 -205h-172z" />
    <glyph glyph-name="uni1EAF" unicode="&#x1eaf;" horiz-adv-x="1120" 
d="M453 -33q-76 0 -141 16.5t-117 50t-81.5 91t-29.5 133.5q0 69 25.5 124.5t65.5 92t103 65.5t124.5 46t142.5 32l235 44v36q0 84 -57.5 130t-155.5 46q-97 0 -167 -38.5t-162 -130.5l-142 131q96 115 208.5 170t256.5 55q210 0 322 -98t112 -261v-702h-202v117
q-105 -150 -340 -150zM244 1391h159q6 -49 49.5 -82t116.5 -33q72 0 115.5 32.5t48.5 82.5h162q-9 -109 -100 -176.5t-226 -67.5t-226.5 68.5t-98.5 175.5zM305 270q0 -58 47.5 -90.5t132.5 -32.5q124 0 209.5 66t85.5 190v95l-178 -37q-76 -16 -122.5 -29.5t-90.5 -35.5
t-64 -53t-20 -73zM469 1389l127 204h227l-182 -204h-172z" />
    <glyph glyph-name="uni1EB0" unicode="&#x1eb0;" horiz-adv-x="1419" 
d="M27 0l524 1454h317l525 -1454h-252l-115 328h-641l-113 -328h-245zM373 1802h162q5 -49 48 -81.5t115 -32.5q73 0 116.5 32.5t49.5 81.5h160q-7 -107 -99 -175t-227 -68t-225.5 67.5t-99.5 175.5zM444 2005h228l127 -205h-172zM455 528h501l-61 179q-153 444 -188 563
q-45 -153 -191 -565z" />
    <glyph glyph-name="uni1EB1" unicode="&#x1eb1;" horiz-adv-x="1120" 
d="M453 -33q-76 0 -141 16.5t-117 50t-81.5 91t-29.5 133.5q0 69 25.5 124.5t65.5 92t103 65.5t124.5 46t142.5 32l235 44v36q0 84 -57.5 130t-155.5 46q-97 0 -167 -38.5t-162 -130.5l-142 131q96 115 208.5 170t256.5 55q210 0 322 -98t112 -261v-702h-202v117
q-105 -150 -340 -150zM236 1391h161q5 -50 48.5 -82.5t115.5 -32.5q73 0 116.5 33t49.5 82h160q-7 -107 -99 -175.5t-227 -68.5t-225.5 67.5t-99.5 176.5zM305 270q0 -58 47.5 -90.5t132.5 -32.5q124 0 209.5 66t85.5 190v95l-178 -37q-76 -16 -122.5 -29.5t-90.5 -35.5
t-64 -53t-20 -73zM307 1593h228l127 -204h-173z" />
    <glyph glyph-name="uni1EB2" unicode="&#x1eb2;" horiz-adv-x="1419" 
d="M27 0l524 1454h317l525 -1454h-252l-115 328h-641l-113 -328h-245zM383 1802h160q6 -49 49.5 -81.5t116.5 -32.5q72 0 115 32.5t48 81.5h162q-9 -108 -99.5 -175.5t-225.5 -67.5t-227 68t-99 175zM455 528h501l-61 179q-153 444 -188 563q-45 -153 -191 -565zM520 2083
q61 22 148 22q94 0 145 -42t51 -115q0 -69 -50 -121t-128 -78l-61 76q96 47 96 98q0 28 -20 39.5t-62 11.5q-54 0 -100 -16z" />
    <glyph glyph-name="uni1EB3" unicode="&#x1eb3;" horiz-adv-x="1120" 
d="M453 -33q-76 0 -141 16.5t-117 50t-81.5 91t-29.5 133.5q0 69 25.5 124.5t65.5 92t103 65.5t124.5 46t142.5 32l235 44v36q0 84 -57.5 130t-155.5 46q-97 0 -167 -38.5t-162 -130.5l-142 131q96 115 208.5 170t256.5 55q210 0 322 -98t112 -261v-702h-202v117
q-105 -150 -340 -150zM244 1391h159q6 -49 49.5 -82t116.5 -33q72 0 115.5 32.5t48.5 82.5h162q-9 -109 -100 -176.5t-226 -67.5t-226.5 68.5t-98.5 175.5zM305 270q0 -58 47.5 -90.5t132.5 -32.5q124 0 209.5 66t85.5 190v95l-178 -37q-76 -16 -122.5 -29.5t-90.5 -35.5
t-64 -53t-20 -73zM381 1671q64 23 147 23q94 0 145.5 -42.5t51.5 -115.5q0 -69 -50 -121t-128 -78l-62 76q97 48 97 98q0 52 -82 52q-52 0 -101 -17z" />
    <glyph glyph-name="uni1EB4" unicode="&#x1eb4;" horiz-adv-x="1419" 
d="M27 0l524 1454h317l525 -1454h-252l-115 328h-641l-113 -328h-245zM379 1802h160q6 -49 49.5 -81.5t116.5 -32.5q72 0 115 32.5t48 81.5h162q-9 -108 -99.5 -175.5t-225.5 -67.5t-227 68t-99 175zM391 1868q1 103 56 161t137 58q44 0 90 -22t86 -44t71 -22q35 0 46.5 23
t13.5 65h129q0 -106 -46.5 -163.5t-127.5 -57.5q-53 0 -133.5 44t-120.5 44q-34 0 -51 -25t-19 -61h-131zM455 528h501l-61 179q-153 444 -188 563q-45 -153 -191 -565z" />
    <glyph glyph-name="uni1EB5" unicode="&#x1eb5;" horiz-adv-x="1120" 
d="M453 -33q-76 0 -141 16.5t-117 50t-81.5 91t-29.5 133.5q0 69 25.5 124.5t65.5 92t103 65.5t124.5 46t142.5 32l235 44v36q0 84 -57.5 130t-155.5 46q-97 0 -167 -38.5t-162 -130.5l-142 131q96 115 208.5 170t256.5 55q210 0 322 -98t112 -261v-702h-202v117
q-105 -150 -340 -150zM242 1391h159q6 -49 49.5 -82t116.5 -33q72 0 115.5 32.5t48.5 82.5h162q-9 -109 -100 -176.5t-226 -67.5t-226.5 68.5t-98.5 175.5zM254 1456q1 103 55.5 161t136.5 58q44 0 90 -22t86.5 -44t71.5 -22q35 0 46.5 23t13.5 65h129q0 -106 -46.5 -163.5
t-127.5 -57.5q-53 0 -133.5 44t-120.5 44q-34 0 -51 -25t-19 -61h-131zM305 270q0 -58 47.5 -90.5t132.5 -32.5q124 0 209.5 66t85.5 190v95l-178 -37q-76 -16 -122.5 -29.5t-90.5 -35.5t-64 -53t-20 -73z" />
    <glyph glyph-name="uni1EB6" unicode="&#x1eb6;" horiz-adv-x="1419" 
d="M27 0l524 1454h317l525 -1454h-252l-115 328h-641l-113 -328h-245zM391 1849h160q0 -65 41 -105t117 -40q75 0 115 39.5t42 105.5h158q0 -135 -88.5 -210.5t-226.5 -75.5q-140 0 -229 75.5t-89 210.5zM455 528h501l-61 179q-153 444 -188 563q-45 -153 -191 -565z
M596 -369v232h225v-232h-225z" />
    <glyph glyph-name="uni1EB7" unicode="&#x1eb7;" horiz-adv-x="1120" 
d="M453 -33q-76 0 -141 16.5t-117 50t-81.5 91t-29.5 133.5q0 69 25.5 124.5t65.5 92t103 65.5t124.5 46t142.5 32l235 44v36q0 84 -57.5 130t-155.5 46q-97 0 -167 -38.5t-162 -130.5l-142 131q96 115 208.5 170t256.5 55q210 0 322 -98t112 -261v-702h-202v117
q-105 -150 -340 -150zM252 1438h160q0 -65 40.5 -105.5t116.5 -40.5q75 0 115.5 40t42.5 106h158q0 -135 -89 -211t-227 -76q-140 0 -228.5 76t-88.5 211zM305 270q0 -58 47.5 -90.5t132.5 -32.5q124 0 209.5 66t85.5 190v95l-178 -37q-76 -16 -122.5 -29.5t-90.5 -35.5
t-64 -53t-20 -73zM481 -369v232h226v-232h-226z" />
    <glyph glyph-name="uni1EB8" unicode="&#x1eb8;" horiz-adv-x="1269" 
d="M1155 1454v-205h-756v-397h705v-203h-705v-444h777v-205h-1018v1454h997zM586 -369v232h225v-232h-225z" />
    <glyph glyph-name="uni1EB9" unicode="&#x1eb9;" horiz-adv-x="1124" 
d="M596 -31q-243 0 -384.5 146.5t-141.5 392.5q0 245 137 399t368 154q226 0 350 -135t124 -371q0 -42 -5 -92h-753q13 -135 90 -219t219 -84q91 0 157.5 33t162.5 120l131 -137q-110 -113 -218 -160t-237 -47zM297 627h530q-6 119 -73.5 187.5t-184.5 68.5
q-112 0 -181 -67.5t-91 -188.5zM477 -369v232h225v-232h-225z" />
    <glyph glyph-name="uni1EBA" unicode="&#x1eba;" horiz-adv-x="1269" 
d="M1155 1454v-205h-756v-397h705v-203h-705v-444h777v-205h-1018v1454h997zM483 1876q61 22 148 22q94 0 145 -42t51 -115q0 -69 -50 -121t-128 -78l-61 76q96 47 96 98q0 28 -20 39.5t-62 11.5q-54 0 -100 -16z" />
    <glyph glyph-name="uni1EBB" unicode="&#x1ebb;" horiz-adv-x="1124" 
d="M596 -31q-243 0 -384.5 146.5t-141.5 392.5q0 245 137 399t368 154q226 0 350 -135t124 -371q0 -42 -5 -92h-753q13 -135 90 -219t219 -84q91 0 157.5 33t162.5 120l131 -137q-110 -113 -218 -160t-237 -47zM297 627h530q-6 119 -73.5 187.5t-184.5 68.5
q-112 0 -181 -67.5t-91 -188.5zM414 1464q64 23 147 23q94 0 145.5 -42.5t51.5 -115.5q0 -69 -50 -121t-128 -78l-62 76q96 47 96 99q0 28 -20 39.5t-62 11.5q-51 0 -100 -17z" />
    <glyph glyph-name="uni1EBC" unicode="&#x1ebc;" horiz-adv-x="1269" 
d="M1155 1454v-205h-756v-397h705v-203h-705v-444h777v-205h-1018v1454h997zM326 1589q0 117 56 182.5t142 65.5q54 0 106.5 -26t96.5 -52t78 -26q65 0 65 102h134q0 -117 -51.5 -181.5t-135.5 -64.5q-37 0 -79.5 16t-74 35.5t-68.5 35.5t-65 16q-33 0 -51 -30t-18 -73h-135
z" />
    <glyph glyph-name="uni1EBD" unicode="&#x1ebd;" horiz-adv-x="1124" 
d="M596 -31q-243 0 -384.5 146.5t-141.5 392.5q0 245 137 399t368 154q226 0 350 -135t124 -371q0 -42 -5 -92h-753q13 -135 90 -219t219 -84q91 0 157.5 33t162.5 120l131 -137q-110 -113 -218 -160t-237 -47zM256 1178q0 117 56.5 182t142.5 65q43 0 85.5 -16.5t71 -35.5
t62 -35.5t61.5 -16.5q66 0 66 102h133q0 -117 -51 -181t-135 -64q-47 0 -101 25.5t-103 51t-83 25.5q-33 0 -51.5 -29.5t-18.5 -72.5h-135zM297 627h530q-6 119 -73.5 187.5t-184.5 68.5q-112 0 -181 -67.5t-91 -188.5z" />
    <glyph glyph-name="uni1EBE" unicode="&#x1ebe;" horiz-adv-x="1269" 
d="M1155 1454v-205h-756v-397h705v-203h-705v-444h777v-205h-1018v1454h997zM322 1579l200 258h283l201 -258h-201l-141 160l-144 -160h-198zM965 1722l127 252h231l-170 -252h-188z" />
    <glyph glyph-name="uni1EBF" unicode="&#x1ebf;" horiz-adv-x="1124" 
d="M596 -31q-243 0 -384.5 146.5t-141.5 392.5q0 245 137 399t368 154q226 0 350 -135t124 -371q0 -42 -5 -92h-753q13 -135 90 -219t219 -84q91 0 157.5 33t162.5 120l131 -137q-110 -113 -218 -160t-237 -47zM252 1167l201 258h282l201 -258h-201l-141 160l-143 -160h-199
zM297 627h530q-6 119 -73.5 187.5t-184.5 68.5q-112 0 -181 -67.5t-91 -188.5zM895 1311l127 252h231l-170 -252h-188z" />
    <glyph glyph-name="uni1EC0" unicode="&#x1ec0;" horiz-adv-x="1269" 
d="M1155 1454v-205h-756v-397h705v-203h-705v-444h777v-205h-1018v1454h997zM319 1579l201 258h283l201 -258h-201l-141 162l-144 -162h-199zM854 1974h233l127 -252h-188z" />
    <glyph glyph-name="uni1EC1" unicode="&#x1ec1;" horiz-adv-x="1124" 
d="M596 -31q-243 0 -384.5 146.5t-141.5 392.5q0 245 137 399t368 154q226 0 350 -135t124 -371q0 -42 -5 -92h-753q13 -135 90 -219t219 -84q91 0 157.5 33t162.5 120l131 -137q-110 -113 -218 -160t-237 -47zM250 1167l201 258h282l201 -258h-201l-141 162l-143 -162h-199
zM297 627h530q-6 119 -73.5 187.5t-184.5 68.5q-112 0 -181 -67.5t-91 -188.5zM784 1563h234l127 -252h-189z" />
    <glyph glyph-name="uni1EC2" unicode="&#x1ec2;" horiz-adv-x="1269" 
d="M1155 1454v-205h-756v-397h705v-203h-705v-444h777v-205h-1018v1454h997zM322 1579l200 258h281l203 -258h-199l-143 162l-146 -162h-196zM838 2025q64 23 147 23q94 0 145.5 -42.5t51.5 -115.5q0 -69 -50 -120.5t-128 -77.5l-62 75q96 47 96 99q0 28 -20 39.5t-62 11.5
q-54 0 -100 -16z" />
    <glyph glyph-name="uni1EC3" unicode="&#x1ec3;" horiz-adv-x="1124" 
d="M596 -31q-243 0 -384.5 146.5t-141.5 392.5q0 245 137 399t368 154q226 0 350 -135t124 -371q0 -42 -5 -92h-753q13 -135 90 -219t219 -84q91 0 157.5 33t162.5 120l131 -137q-110 -113 -218 -160t-237 -47zM252 1167l201 258h280l203 -258h-199l-143 162l-145 -162h-197
zM297 627h530q-6 119 -73.5 187.5t-184.5 68.5q-112 0 -181 -67.5t-91 -188.5zM768 1614q61 22 147 22q94 0 145.5 -42t51.5 -115q0 -69 -50 -121t-128 -78l-62 76q97 48 97 98q0 28 -20 39.5t-62 11.5q-55 0 -101 -16z" />
    <glyph glyph-name="uni1EC4" unicode="&#x1ec4;" horiz-adv-x="1269" 
d="M1155 1454v-205h-756v-397h705v-203h-705v-444h777v-205h-1018v1454h997zM324 1579l200 246h281l203 -246h-199l-143 147l-146 -147h-196zM350 1876q1 103 55 158t136 55q55 0 135 -41t115 -41q59 0 59 82h129q0 -105 -46.5 -160t-129.5 -55q-53 0 -134 41t-120 41
q-35 0 -51.5 -22.5t-16.5 -57.5h-131z" />
    <glyph glyph-name="uni1EC5" unicode="&#x1ec5;" horiz-adv-x="1124" 
d="M596 -31q-243 0 -384.5 146.5t-141.5 392.5q0 245 137 399t368 154q226 0 350 -135t124 -371q0 -42 -5 -92h-753q13 -135 90 -219t219 -84q91 0 157.5 33t162.5 120l131 -137q-110 -113 -218 -160t-237 -47zM254 1167l201 246h280l203 -246h-199l-143 148l-145 -148h-197
zM281 1464q1 103 54.5 158t135.5 55q55 0 135 -41t115 -41q59 0 59 82h129q0 -105 -46.5 -160t-129.5 -55q-53 0 -134 41t-120 41q-35 0 -51 -22.5t-16 -57.5h-131zM297 627h530q-6 119 -73.5 187.5t-184.5 68.5q-112 0 -181 -67.5t-91 -188.5z" />
    <glyph glyph-name="uni1EC6" unicode="&#x1ec6;" horiz-adv-x="1269" 
d="M1155 1454v-205h-756v-397h705v-203h-705v-444h777v-205h-1018v1454h997zM317 1579l205 293h283l205 -293h-193l-153 193l-156 -193h-191zM586 -369v232h225v-232h-225z" />
    <glyph glyph-name="uni1EC7" unicode="&#x1ec7;" horiz-adv-x="1124" 
d="M596 -31q-243 0 -384.5 146.5t-141.5 392.5q0 245 137 399t368 154q226 0 350 -135t124 -371q0 -42 -5 -92h-753q13 -135 90 -219t219 -84q91 0 157.5 33t162.5 120l131 -137q-110 -113 -218 -160t-237 -47zM248 1167l205 293h282l205 -293h-192l-154 193l-156 -193h-190
zM297 627h530q-6 119 -73.5 187.5t-184.5 68.5q-112 0 -181 -67.5t-91 -188.5zM477 -369v232h225v-232h-225z" />
    <glyph glyph-name="uni1EC8" unicode="&#x1ec8;" horiz-adv-x="585" 
d="M414 1454v-1454h-242v1454h242zM113 1876q61 22 147 22q94 0 145.5 -42t51.5 -115q0 -69 -50 -121t-128 -78l-62 76q96 47 96 98q0 28 -20 39.5t-62 11.5q-54 0 -100 -16z" />
    <glyph glyph-name="uni1EC9" unicode="&#x1ec9;" horiz-adv-x="477" 
d="M352 1028v-1028h-225v1028h225zM57 1464q64 23 148 23q94 0 145 -42.5t51 -115.5q0 -69 -50 -121t-128 -78l-61 76q96 47 96 99q0 28 -20 39.5t-62 11.5q-51 0 -100 -17z" />
    <glyph glyph-name="uni1ECA" unicode="&#x1eca;" horiz-adv-x="585" 
d="M414 1454v-1454h-242v1454h242zM180 -369v232h226v-232h-226z" />
    <glyph glyph-name="uni1ECB" unicode="&#x1ecb;" horiz-adv-x="477" 
d="M352 1028v-1028h-225v1028h225zM127 -369v232h225v-232h-225zM127 1206v232h225v-232h-225z" />
    <glyph glyph-name="uni1ECC" unicode="&#x1ecc;" horiz-adv-x="1566" 
d="M784 1487q214 0 375.5 -99.5t245.5 -271.5t84 -389t-84 -389t-245.5 -271.5t-375.5 -99.5q-161 0 -294.5 58t-223 159.5t-139 241t-49.5 301.5t49.5 301.5t139 241t223 159.5t294.5 58zM326 727q0 -246 125.5 -396.5t332.5 -150.5t332 150.5t125 396.5q0 245 -125.5 396
t-331.5 151t-332 -151t-126 -396zM672 -369v232h225v-232h-225z" />
    <glyph glyph-name="uni1ECD" unicode="&#x1ecd;" horiz-adv-x="1185" 
d="M594 1061q230 0 376 -152t146 -395q0 -242 -146 -393.5t-376 -151.5q-232 0 -378 151t-146 394q0 244 146 395.5t378 151.5zM299 514q0 -160 80 -257t215 -97q132 0 212.5 97t80.5 257q0 161 -80.5 258.5t-212.5 97.5q-135 0 -215 -97t-80 -259zM479 -369v232h226v-232
h-226z" />
    <glyph glyph-name="uni1ECE" unicode="&#x1ece;" horiz-adv-x="1566" 
d="M784 1487q214 0 375.5 -99.5t245.5 -271.5t84 -389t-84 -389t-245.5 -271.5t-375.5 -99.5q-161 0 -294.5 58t-223 159.5t-139 241t-49.5 301.5t49.5 301.5t139 241t223 159.5t294.5 58zM326 727q0 -246 125.5 -396.5t332.5 -150.5t332 150.5t125 396.5q0 245 -125.5 396
t-331.5 151t-332 -151t-126 -396zM602 1876q61 22 148 22q94 0 145 -42t51 -115q0 -69 -50 -121t-128 -78l-61 76q96 47 96 98q0 28 -20 39.5t-62 11.5q-54 0 -100 -16z" />
    <glyph glyph-name="uni1ECF" unicode="&#x1ecf;" horiz-adv-x="1185" 
d="M594 1061q230 0 376 -152t146 -395q0 -242 -146 -393.5t-376 -151.5q-232 0 -378 151t-146 394q0 244 146 395.5t378 151.5zM299 514q0 -160 80 -257t215 -97q132 0 212.5 97t80.5 257q0 161 -80.5 258.5t-212.5 97.5q-135 0 -215 -97t-80 -259zM408 1464q64 23 147 23
q94 0 145.5 -42.5t51.5 -115.5q0 -69 -50.5 -121t-128.5 -78l-61 76q96 47 96 99q0 28 -20 39.5t-62 11.5q-51 0 -100 -17z" />
    <glyph glyph-name="uni1ED0" unicode="&#x1ed0;" horiz-adv-x="1566" 
d="M784 1487q214 0 375.5 -99.5t245.5 -271.5t84 -389t-84 -389t-245.5 -271.5t-375.5 -99.5q-161 0 -294.5 58t-223 159.5t-139 241t-49.5 301.5t49.5 301.5t139 241t223 159.5t294.5 58zM326 727q0 -246 125.5 -396.5t332.5 -150.5t332 150.5t125 396.5q0 245 -125.5 396
t-331.5 151t-332 -151t-126 -396zM442 1579l201 258h283l200 -258h-200l-142 160l-143 -160h-199zM1085 1722l127 252h232l-170 -252h-189z" />
    <glyph glyph-name="uni1ED1" unicode="&#x1ed1;" horiz-adv-x="1185" 
d="M594 1061q230 0 376 -152t146 -395q0 -242 -146 -393.5t-376 -151.5q-232 0 -378 151t-146 394q0 244 146 395.5t378 151.5zM246 1167l200 258h283l201 -258h-201l-141 160l-144 -160h-198zM299 514q0 -160 80 -257t215 -97q132 0 212.5 97t80.5 257q0 161 -80.5 258.5
t-212.5 97.5q-135 0 -215 -97t-80 -259zM889 1311l127 252h231l-170 -252h-188z" />
    <glyph glyph-name="uni1ED2" unicode="&#x1ed2;" horiz-adv-x="1566" 
d="M784 1487q214 0 375.5 -99.5t245.5 -271.5t84 -389t-84 -389t-245.5 -271.5t-375.5 -99.5q-161 0 -294.5 58t-223 159.5t-139 241t-49.5 301.5t49.5 301.5t139 241t223 159.5t294.5 58zM326 727q0 -246 125.5 -396.5t332.5 -150.5t332 150.5t125 396.5q0 245 -125.5 396
t-331.5 151t-332 -151t-126 -396zM438 1579l201 258h283l200 -258h-200l-142 162l-143 -162h-199zM973 1974h233l127 -252h-188z" />
    <glyph glyph-name="uni1ED3" unicode="&#x1ed3;" horiz-adv-x="1185" 
d="M594 1061q230 0 376 -152t146 -395q0 -242 -146 -393.5t-376 -151.5q-232 0 -378 151t-146 394q0 244 146 395.5t378 151.5zM244 1167l200 258h283l201 -258h-201l-141 162l-144 -162h-198zM299 514q0 -160 80 -257t215 -97q132 0 212.5 97t80.5 257q0 161 -80.5 258.5
t-212.5 97.5q-135 0 -215 -97t-80 -259zM778 1563h234l127 -252h-189z" />
    <glyph glyph-name="uni1ED4" unicode="&#x1ed4;" horiz-adv-x="1566" 
d="M784 1487q214 0 375.5 -99.5t245.5 -271.5t84 -389t-84 -389t-245.5 -271.5t-375.5 -99.5q-161 0 -294.5 58t-223 159.5t-139 241t-49.5 301.5t49.5 301.5t139 241t223 159.5t294.5 58zM326 727q0 -246 125.5 -396.5t332.5 -150.5t332 150.5t125 396.5q0 245 -125.5 396
t-331.5 151t-332 -151t-126 -396zM442 1579l201 258h281l202 -258h-198l-144 162l-145 -162h-197zM958 2025q64 23 148 23q94 0 145.5 -42.5t51.5 -115.5q0 -68 -50 -120t-129 -78l-61 75q96 47 96 99q0 28 -20 39.5t-62 11.5q-54 0 -100 -16z" />
    <glyph glyph-name="uni1ED5" unicode="&#x1ed5;" horiz-adv-x="1185" 
d="M594 1061q230 0 376 -152t146 -395q0 -242 -146 -393.5t-376 -151.5q-232 0 -378 151t-146 394q0 244 146 395.5t378 151.5zM246 1167l200 258h281l203 -258h-199l-143 162l-146 -162h-196zM299 514q0 -160 80 -257t215 -97q132 0 212.5 97t80.5 257q0 161 -80.5 258.5
t-212.5 97.5q-135 0 -215 -97t-80 -259zM762 1614q61 22 147 22q94 0 145.5 -42t51.5 -115q0 -69 -50 -121t-128 -78l-62 76q97 48 97 98q0 28 -20 39.5t-62 11.5q-55 0 -101 -16z" />
    <glyph glyph-name="uni1ED6" unicode="&#x1ed6;" horiz-adv-x="1566" 
d="M784 1487q214 0 375.5 -99.5t245.5 -271.5t84 -389t-84 -389t-245.5 -271.5t-375.5 -99.5q-161 0 -294.5 58t-223 159.5t-139 241t-49.5 301.5t49.5 301.5t139 241t223 159.5t294.5 58zM326 727q0 -246 125.5 -396.5t332.5 -150.5t332 150.5t125 396.5q0 245 -125.5 396
t-331.5 151t-332 -151t-126 -396zM442 1579l201 246h281l202 -246h-198l-144 147l-145 -147h-197zM469 1876q1 103 54.5 158t135.5 55q55 0 135 -41t115 -41q60 0 60 82h129q0 -105 -46.5 -160t-129.5 -55q-43 0 -89.5 20.5t-88.5 41t-76 20.5q-35 0 -51.5 -22.5
t-16.5 -57.5h-131z" />
    <glyph glyph-name="uni1ED7" unicode="&#x1ed7;" horiz-adv-x="1185" 
d="M594 1061q230 0 376 -152t146 -395q0 -242 -146 -393.5t-376 -151.5q-232 0 -378 151t-146 394q0 244 146 395.5t378 151.5zM248 1167l201 246h280l203 -246h-199l-143 148l-146 -148h-196zM274 1464q1 103 55 158t136 55q55 0 135 -41t115 -41q59 0 59 82h129
q0 -105 -46.5 -160t-129.5 -55q-53 0 -134 41t-120 41q-35 0 -51 -22.5t-16 -57.5h-132zM299 514q0 -160 80 -257t215 -97q132 0 212.5 97t80.5 257q0 161 -80.5 258.5t-212.5 97.5q-135 0 -215 -97t-80 -259z" />
    <glyph glyph-name="uni1ED8" unicode="&#x1ed8;" horiz-adv-x="1566" 
d="M784 1487q214 0 375.5 -99.5t245.5 -271.5t84 -389t-84 -389t-245.5 -271.5t-375.5 -99.5q-161 0 -294.5 58t-223 159.5t-139 241t-49.5 301.5t49.5 301.5t139 241t223 159.5t294.5 58zM326 727q0 -246 125.5 -396.5t332.5 -150.5t332 150.5t125 396.5q0 245 -125.5 396
t-331.5 151t-332 -151t-126 -396zM438 1579l205 293h283l204 -293h-192l-154 193l-155 -193h-191zM672 -369v232h225v-232h-225z" />
    <glyph glyph-name="uni1ED9" unicode="&#x1ed9;" horiz-adv-x="1185" 
d="M594 1061q230 0 376 -152t146 -395q0 -242 -146 -393.5t-376 -151.5q-232 0 -378 151t-146 394q0 244 146 395.5t378 151.5zM242 1167l204 293h283l205 -293h-193l-153 193l-156 -193h-190zM299 514q0 -160 80 -257t215 -97q132 0 212.5 97t80.5 257q0 161 -80.5 258.5
t-212.5 97.5q-135 0 -215 -97t-80 -259zM479 -369v232h226v-232h-226z" />
    <glyph glyph-name="uni1EDA" unicode="&#x1eda;" horiz-adv-x="1566" 
d="M784 1487q119 0 238 -33h82q49 0 66.5 27t17.5 110h182q0 -117 -27 -177t-92 -83q117 -102 177.5 -257.5t60.5 -346.5q0 -217 -84 -389t-245.5 -271.5t-375.5 -99.5q-161 0 -294.5 58t-223 159.5t-139 241t-49.5 301.5t49.5 301.5t139 241t223 159.5t294.5 58zM326 727
q0 -246 125.5 -396.5t332.5 -150.5t332 150.5t125 396.5q0 245 -125.5 396t-331.5 151t-332 -151t-126 -396zM680 1579l143 293h248l-192 -293h-199z" />
    <glyph glyph-name="uni1EDB" unicode="&#x1edb;" horiz-adv-x="1185" 
d="M594 1061q95 0 192 -33h54q48 0 66 28t18 111h176q0 -123 -27.5 -183t-97.5 -81q141 -150 141 -389q0 -242 -146 -393.5t-376 -151.5q-232 0 -378 151t-146 394q0 244 146 395.5t378 151.5zM299 514q0 -160 80 -257t215 -97q132 0 212.5 97t80.5 257q0 161 -80.5 258.5
t-212.5 97.5q-135 0 -215 -97t-80 -259zM489 1167l144 293h248l-193 -293h-199z" />
    <glyph glyph-name="uni1EDC" unicode="&#x1edc;" horiz-adv-x="1566" 
d="M784 1487q119 0 238 -33h82q49 0 66.5 27t17.5 110h182q0 -117 -27 -177t-92 -83q117 -102 177.5 -257.5t60.5 -346.5q0 -217 -84 -389t-245.5 -271.5t-375.5 -99.5q-161 0 -294.5 58t-223 159.5t-139 241t-49.5 301.5t49.5 301.5t139 241t223 159.5t294.5 58zM326 727
q0 -246 125.5 -396.5t332.5 -150.5t332 150.5t125 396.5q0 245 -125.5 396t-331.5 151t-332 -151t-126 -396zM496 1872h249l144 -293h-199z" />
    <glyph glyph-name="uni1EDD" unicode="&#x1edd;" horiz-adv-x="1185" 
d="M594 1061q95 0 192 -33h54q48 0 66 28t18 111h176q0 -123 -27.5 -183t-97.5 -81q141 -150 141 -389q0 -242 -146 -393.5t-376 -151.5q-232 0 -378 151t-146 394q0 244 146 395.5t378 151.5zM299 514q0 -160 80 -257t215 -97q132 0 212.5 97t80.5 257q0 161 -80.5 258.5
t-212.5 97.5q-135 0 -215 -97t-80 -259zM303 1460h250l143 -293h-198z" />
    <glyph glyph-name="uni1EDE" unicode="&#x1ede;" horiz-adv-x="1566" 
d="M784 1487q119 0 238 -33h82q49 0 66.5 27t17.5 110h182q0 -117 -27 -177t-92 -83q117 -102 177.5 -257.5t60.5 -346.5q0 -217 -84 -389t-245.5 -271.5t-375.5 -99.5q-161 0 -294.5 58t-223 159.5t-139 241t-49.5 301.5t49.5 301.5t139 241t223 159.5t294.5 58zM326 727
q0 -246 125.5 -396.5t332.5 -150.5t332 150.5t125 396.5q0 245 -125.5 396t-331.5 151t-332 -151t-126 -396zM602 1876q61 22 148 22q94 0 145 -42t51 -115q0 -69 -50 -121t-128 -78l-61 76q96 47 96 98q0 28 -20 39.5t-62 11.5q-54 0 -100 -16z" />
    <glyph glyph-name="uni1EDF" unicode="&#x1edf;" horiz-adv-x="1185" 
d="M594 1061q95 0 192 -33h54q48 0 66 28t18 111h176q0 -123 -27.5 -183t-97.5 -81q141 -150 141 -389q0 -242 -146 -393.5t-376 -151.5q-232 0 -378 151t-146 394q0 244 146 395.5t378 151.5zM299 514q0 -160 80 -257t215 -97q132 0 212.5 97t80.5 257q0 161 -80.5 258.5
t-212.5 97.5q-135 0 -215 -97t-80 -259zM412 1464q64 23 147 23q94 0 145.5 -42.5t51.5 -115.5q0 -69 -50 -121t-128 -78l-62 76q96 47 96 99q0 28 -20 39.5t-62 11.5q-51 0 -100 -17z" />
    <glyph glyph-name="uni1EE0" unicode="&#x1ee0;" horiz-adv-x="1566" 
d="M784 1487q119 0 238 -33h82q49 0 66.5 27t17.5 110h182q0 -117 -27 -177t-92 -83q117 -102 177.5 -257.5t60.5 -346.5q0 -217 -84 -389t-245.5 -271.5t-375.5 -99.5q-161 0 -294.5 58t-223 159.5t-139 241t-49.5 301.5t49.5 301.5t139 241t223 159.5t294.5 58zM326 727
q0 -246 125.5 -396.5t332.5 -150.5t332 150.5t125 396.5q0 245 -125.5 396t-331.5 151t-332 -151t-126 -396zM444 1589q0 117 56.5 182.5t142.5 65.5q54 0 106.5 -26t96.5 -52t78 -26q65 0 65 102h133q0 -117 -51 -181.5t-135 -64.5q-37 0 -79.5 16t-74 35.5t-68.5 35.5
t-65 16q-33 0 -51 -30t-18 -73h-136z" />
    <glyph glyph-name="uni1EE1" unicode="&#x1ee1;" horiz-adv-x="1185" 
d="M594 1061q95 0 192 -33h54q48 0 66 28t18 111h176q0 -123 -27.5 -183t-97.5 -81q141 -150 141 -389q0 -242 -146 -393.5t-376 -151.5q-232 0 -378 151t-146 394q0 244 146 395.5t378 151.5zM254 1178q0 117 56.5 182t142.5 65q43 0 85.5 -16.5t71 -35.5t62 -35.5
t61.5 -16.5q66 0 66 102h133q0 -117 -51.5 -181t-135.5 -64q-47 0 -101 25.5t-102.5 51t-82.5 25.5q-33 0 -51.5 -29.5t-18.5 -72.5h-135zM299 514q0 -160 80 -257t215 -97q132 0 212.5 97t80.5 257q0 161 -80.5 258.5t-212.5 97.5q-135 0 -215 -97t-80 -259z" />
    <glyph glyph-name="uni1EE2" unicode="&#x1ee2;" horiz-adv-x="1566" 
d="M784 1487q119 0 238 -33h82q49 0 66.5 27t17.5 110h182q0 -117 -27 -177t-92 -83q117 -102 177.5 -257.5t60.5 -346.5q0 -217 -84 -389t-245.5 -271.5t-375.5 -99.5q-161 0 -294.5 58t-223 159.5t-139 241t-49.5 301.5t49.5 301.5t139 241t223 159.5t294.5 58zM326 727
q0 -246 125.5 -396.5t332.5 -150.5t332 150.5t125 396.5q0 245 -125.5 396t-331.5 151t-332 -151t-126 -396zM672 -369v232h225v-232h-225z" />
    <glyph glyph-name="uni1EE3" unicode="&#x1ee3;" horiz-adv-x="1185" 
d="M594 1061q95 0 192 -33h54q48 0 66 28t18 111h176q0 -123 -27.5 -183t-97.5 -81q141 -150 141 -389q0 -242 -146 -393.5t-376 -151.5q-232 0 -378 151t-146 394q0 244 146 395.5t378 151.5zM299 514q0 -160 80 -257t215 -97q132 0 212.5 97t80.5 257q0 161 -80.5 258.5
t-212.5 97.5q-135 0 -215 -97t-80 -259zM479 -369v232h226v-232h-226z" />
    <glyph glyph-name="uni1EE4" unicode="&#x1ee4;" horiz-adv-x="1429" 
d="M1282 479q0 -256 -146.5 -384t-420.5 -128t-421 128t-147 384v975h242v-965q0 -149 82.5 -229t243.5 -80t243 80t82 229v965h242v-975zM602 -369v232h225v-232h-225z" />
    <glyph glyph-name="uni1EE5" unicode="&#x1ee5;" horiz-adv-x="1130" 
d="M1004 1028v-1028h-207v119q-43 -70 -120.5 -110t-184.5 -40q-186 0 -276.5 90.5t-90.5 239.5v729h225v-668q0 -94 48.5 -145t142.5 -51q107 0 172 62t65 180v622h226zM453 -369v232h225v-232h-225z" />
    <glyph glyph-name="uni1EE6" unicode="&#x1ee6;" horiz-adv-x="1429" 
d="M1282 479q0 -256 -146.5 -384t-420.5 -128t-421 128t-147 384v975h242v-965q0 -149 82.5 -229t243.5 -80t243 80t82 229v965h242v-975zM535 1876q61 22 147 22q94 0 145.5 -42t51.5 -115q0 -69 -50.5 -121t-128.5 -78l-61 76q96 47 96 98q0 28 -20 39.5t-62 11.5
q-54 0 -100 -16z" />
    <glyph glyph-name="uni1EE7" unicode="&#x1ee7;" horiz-adv-x="1130" 
d="M1004 1028v-1028h-207v119q-43 -70 -120.5 -110t-184.5 -40q-186 0 -276.5 90.5t-90.5 239.5v729h225v-668q0 -94 48.5 -145t142.5 -51q107 0 172 62t65 180v622h226zM369 1464q64 23 147 23q94 0 145.5 -42.5t51.5 -115.5q0 -69 -50 -121t-128 -78l-62 76q96 47 96 99
q0 28 -20 39.5t-62 11.5q-51 0 -100 -17z" />
    <glyph glyph-name="uni1EE8" unicode="&#x1ee8;" horiz-adv-x="1429" 
d="M1282 479q0 -256 -146.5 -384t-420.5 -128t-421 128t-147 384v975h242v-965q0 -149 82.5 -229t243.5 -80t243 80t82 229v965h162q48 0 66 28t18 111h176q0 -143 -39 -203t-141 -73v-838zM612 1579l144 293h248l-193 -293h-199z" />
    <glyph glyph-name="uni1EE9" unicode="&#x1ee9;" horiz-adv-x="1130" 
d="M852 1460l-193 -293h-198l143 293h248zM125 299v729h225v-668q0 -94 48.5 -145t142.5 -51q107 0 172 62t65 180v622h164q48 0 66 28t18 111h176q0 -150 -41.5 -209t-156.5 -69v-889h-207v119q-43 -70 -120.5 -110t-184.5 -40q-186 0 -276.5 90.5t-90.5 239.5z" />
    <glyph glyph-name="uni1EEA" unicode="&#x1eea;" horiz-adv-x="1429" 
d="M1282 479q0 -256 -146.5 -384t-420.5 -128t-421 128t-147 384v975h242v-965q0 -149 82.5 -229t243.5 -80t243 80t82 229v965h162q48 0 66 28t18 111h176q0 -143 -39 -203t-141 -73v-838zM426 1872h250l143 -293h-198z" />
    <glyph glyph-name="uni1EEB" unicode="&#x1eeb;" horiz-adv-x="1130" 
d="M276 1460h250l144 -293h-199zM125 299v729h225v-668q0 -94 48.5 -145t142.5 -51q107 0 172 62t65 180v622h164q48 0 66 28t18 111h176q0 -150 -41.5 -209t-156.5 -69v-889h-207v119q-43 -70 -120.5 -110t-184.5 -40q-186 0 -276.5 90.5t-90.5 239.5z" />
    <glyph glyph-name="uni1EEC" unicode="&#x1eec;" horiz-adv-x="1429" 
d="M1282 479q0 -256 -146.5 -384t-420.5 -128t-421 128t-147 384v975h242v-965q0 -149 82.5 -229t243.5 -80t243 80t82 229v965h162q48 0 66 28t18 111h176q0 -143 -39 -203t-141 -73v-838zM535 1876q61 22 147 22q94 0 145.5 -42t51.5 -115q0 -69 -50.5 -121t-128.5 -78
l-61 76q96 47 96 98q0 28 -20 39.5t-62 11.5q-54 0 -100 -16z" />
    <glyph glyph-name="uni1EED" unicode="&#x1eed;" horiz-adv-x="1130" 
d="M383 1464q64 23 147 23q94 0 145.5 -42.5t51.5 -115.5q0 -69 -50 -121t-128 -78l-62 76q97 48 97 99q0 28 -20 39.5t-62 11.5q-52 0 -101 -17zM125 299v729h225v-668q0 -94 48.5 -145t142.5 -51q107 0 172 62t65 180v622h164q48 0 66 28t18 111h176q0 -150 -41.5 -209
t-156.5 -69v-889h-207v119q-43 -70 -120.5 -110t-184.5 -40q-186 0 -276.5 90.5t-90.5 239.5z" />
    <glyph glyph-name="uni1EEE" unicode="&#x1eee;" horiz-adv-x="1429" 
d="M1282 479q0 -256 -146.5 -384t-420.5 -128t-421 128t-147 384v975h242v-965q0 -149 82.5 -229t243.5 -80t243 80t82 229v965h162q48 0 66 28t18 111h176q0 -143 -39 -203t-141 -73v-838zM375 1589q0 117 56 182.5t142 65.5q54 0 106.5 -26t96.5 -52t78 -26q66 0 66 102
h133q0 -117 -51.5 -181.5t-135.5 -64.5q-37 0 -79.5 16t-73.5 35.5t-68 35.5t-65 16q-33 0 -51.5 -30t-18.5 -73h-135z" />
    <glyph glyph-name="uni1EEF" unicode="&#x1eef;" horiz-adv-x="1130" 
d="M424 1425q54 0 106.5 -26t96.5 -52t78 -26q65 0 65 102h133q0 -117 -51 -181t-135 -64q-47 0 -101 25.5t-103 51t-83 25.5q-33 0 -51.5 -29.5t-18.5 -72.5h-135q0 117 56.5 182t142.5 65zM125 299v729h225v-668q0 -94 48.5 -145t142.5 -51q107 0 172 62t65 180v622h164
q48 0 66 28t18 111h176q0 -150 -41.5 -209t-156.5 -69v-889h-207v119q-43 -70 -120.5 -110t-184.5 -40q-186 0 -276.5 90.5t-90.5 239.5z" />
    <glyph glyph-name="uni1EF0" unicode="&#x1ef0;" horiz-adv-x="1429" 
d="M1282 479q0 -256 -146.5 -384t-420.5 -128t-421 128t-147 384v975h242v-965q0 -149 82.5 -229t243.5 -80t243 80t82 229v965h162q48 0 66 28t18 111h176q0 -143 -39 -203t-141 -73v-838zM602 -369v232h225v-232h-225z" />
    <glyph glyph-name="uni1EF1" unicode="&#x1ef1;" horiz-adv-x="1130" 
d="M678 -137v-232h-225v232h225zM125 299v729h225v-668q0 -94 48.5 -145t142.5 -51q107 0 172 62t65 180v622h164q48 0 66 28t18 111h176q0 -150 -41.5 -209t-156.5 -69v-889h-207v119q-43 -70 -120.5 -110t-184.5 -40q-186 0 -276.5 90.5t-90.5 239.5z" />
    <glyph glyph-name="Ygrave" unicode="&#x1ef2;" horiz-adv-x="1314" 
d="M1292 1454l-514 -840v-614h-243v616l-512 838h268l371 -625l370 625h260zM369 1872h249l144 -293h-199z" />
    <glyph glyph-name="ygrave" unicode="&#x1ef3;" horiz-adv-x="1032" 
d="M602 -127q-51 -146 -126 -208t-210 -62q-97 0 -180 22l37 170q74 -12 117 -12q60 0 100 31t68 114l6 19l-387 1081h237l101 -301q85 -250 157 -483q77 253 154 485l100 299h230zM225 1460h250l143 -293h-198z" />
    <glyph glyph-name="uni1EF4" unicode="&#x1ef4;" horiz-adv-x="1314" 
d="M1292 1454l-514 -840v-614h-243v616l-512 838h268l371 -625l370 625h260zM545 -369v232h225v-232h-225z" />
    <glyph glyph-name="uni1EF5" unicode="&#x1ef5;" horiz-adv-x="1032" 
d="M602 -127q-51 -146 -126 -208t-210 -62q-97 0 -180 22l37 170q74 -12 117 -12q60 0 100 31t68 114l6 19l-387 1081h237l101 -301q85 -250 157 -483q77 253 154 485l100 299h230zM692 -369v232h226v-232h-226z" />
    <glyph glyph-name="uni1EF6" unicode="&#x1ef6;" horiz-adv-x="1314" 
d="M1292 1454l-514 -840v-614h-243v616l-512 838h268l371 -625l370 625h260zM477 1876q61 22 148 22q94 0 145 -42t51 -115q0 -69 -50 -121t-128 -78l-61 76q96 47 96 98q0 28 -20 39.5t-62 11.5q-54 0 -100 -16z" />
    <glyph glyph-name="uni1EF7" unicode="&#x1ef7;" horiz-adv-x="1032" 
d="M602 -127q-51 -146 -126 -208t-210 -62q-97 0 -180 22l37 170q74 -12 117 -12q60 0 100 31t68 114l6 19l-387 1081h237l101 -301q85 -250 157 -483q77 253 154 485l100 299h230zM334 1464q64 23 147 23q94 0 145.5 -42.5t51.5 -115.5q0 -69 -50 -121t-128 -78l-62 76
q97 48 97 99q0 28 -20 39.5t-62 11.5q-52 0 -101 -17z" />
    <glyph glyph-name="uni1EF8" unicode="&#x1ef8;" horiz-adv-x="1314" 
d="M1292 1454l-514 -840v-614h-243v616l-512 838h268l371 -625l370 625h260zM319 1589q0 117 56.5 182.5t142.5 65.5q54 0 106.5 -26t96.5 -52t78 -26q65 0 65 102h133q0 -117 -51 -181.5t-135 -64.5q-37 0 -79.5 16t-74 35.5t-68.5 35.5t-65 16q-33 0 -51 -30t-18 -73h-136
z" />
    <glyph glyph-name="uni1EF9" unicode="&#x1ef9;" horiz-adv-x="1032" 
d="M602 -127q-51 -146 -126 -208t-210 -62q-97 0 -180 22l37 170q74 -12 117 -12q60 0 100 31t68 114l6 19l-387 1081h237l101 -301q85 -250 157 -483q77 253 154 485l100 299h230zM176 1178q0 117 56.5 182t142.5 65q43 0 85.5 -16.5t71 -35.5t62 -35.5t61.5 -16.5
q66 0 66 102h133q0 -117 -51 -181t-135 -64q-47 0 -101 25.5t-103 51t-83 25.5q-33 0 -51.5 -29.5t-18.5 -72.5h-135z" />
    <glyph glyph-name="uni2009" unicode="&#x2009;" horiz-adv-x="225" 
 />
    <glyph glyph-name="endash" unicode="&#x2013;" horiz-adv-x="1497" 
d="M1366 688v-192h-1235v192h1235z" />
    <glyph glyph-name="emdash" unicode="&#x2014;" horiz-adv-x="2000" 
d="M1847 688v-192h-1695v192h1695z" />
    <glyph glyph-name="quoteleft" unicode="&#x2018;" horiz-adv-x="440" 
d="M88 936v250l141 268h127l-127 -268h119v-250h-260z" />
    <glyph glyph-name="quoteright" unicode="&#x2019;" horiz-adv-x="440" 
d="M352 1454v-250l-141 -268h-127l127 268h-119v250h260z" />
    <glyph glyph-name="quotesinglbase" unicode="&#x201a;" horiz-adv-x="434" 
d="M346 256v-256l-139 -258h-123l119 258h-115v256h258z" />
    <glyph glyph-name="quotedblleft" unicode="&#x201c;" horiz-adv-x="851" 
d="M88 936v250l141 268h127l-127 -268h119v-250h-260zM500 936v250l141 268h127l-127 -268h119v-250h-260z" />
    <glyph glyph-name="quotedblright" unicode="&#x201d;" horiz-adv-x="851" 
d="M352 1454v-250l-141 -268h-127l127 268h-119v250h260zM496 936l127 268h-119v250h260v-250l-141 -268h-127z" />
    <glyph glyph-name="quotedblbase" unicode="&#x201e;" horiz-adv-x="845" 
d="M346 256v-256l-139 -258h-123l119 258h-115v256h258zM496 -258l118 258h-114v256h258v-256l-140 -258h-122z" />
    <glyph glyph-name="dagger" unicode="&#x2020;" horiz-adv-x="1208" 
d="M721 1454v-528h405v-203h-405v-1126h-232v1126h-405v203h405v528h232z" />
    <glyph glyph-name="daggerdbl" unicode="&#x2021;" horiz-adv-x="1208" 
d="M721 1454v-426h405v-203h-405v-419h405v-203h-405v-606h-232v606h-405v203h405v419h-405v203h405v426h232z" />
    <glyph glyph-name="bullet" unicode="&#x2022;" horiz-adv-x="1044" 
d="M522 987q157 0 269 -111.5t112 -269.5q0 -156 -112.5 -268.5t-268.5 -112.5t-268.5 112.5t-112.5 268.5q0 158 112 269.5t269 111.5z" />
    <glyph glyph-name="ellipsis" unicode="&#x2026;" horiz-adv-x="1388" 
d="M362 262v-262h-253v262h253zM567 0v262h252v-262h-252zM1026 0v262h254v-262h-254z" />
    <glyph glyph-name="perthousand" unicode="&#x2030;" horiz-adv-x="2584" 
d="M1313 1425l133 -84l-967 -1374l-131 86zM109 1081q0 146 94 240t235 94t236.5 -94t95.5 -240q0 -149 -95 -242.5t-237 -93.5q-141 0 -235 93.5t-94 242.5zM270 1081q0 -86 45.5 -140t122.5 -54q78 0 124 54t46 140q0 84 -46 138.5t-124 54.5q-76 0 -122 -54.5t-46 -138.5
zM1014 315q0 146 94 240t235 94t236.5 -94t95.5 -240q0 -148 -95 -241.5t-237 -93.5t-235.5 93t-93.5 242zM1176 315q0 -86 45 -140t122 -54q78 0 124 54t46 140q0 84 -46 138.5t-124 54.5q-76 0 -121.5 -54.5t-45.5 -138.5zM1786 315q0 146 94.5 240t235.5 94t236 -94
t95 -240q0 -149 -94.5 -242t-236.5 -93t-236 93t-94 242zM1948 315q0 -86 45.5 -140t122.5 -54q78 0 124 54t46 140q0 84 -46 138.5t-124 54.5q-76 0 -122 -54.5t-46 -138.5z" />
    <glyph glyph-name="guilsinglleft" unicode="&#x2039;" horiz-adv-x="753" 
d="M625 973l-295 -455l295 -455h-215l-291 455l291 455h215z" />
    <glyph glyph-name="guilsinglright" unicode="&#x203a;" horiz-adv-x="753" 
d="M129 973h215l291 -455l-291 -455h-215l287 455z" />
    <glyph glyph-name="fraction" unicode="&#x2044;" horiz-adv-x="430" 
d="M631 1425l133 -84l-967 -1374l-131 86z" />
    <glyph glyph-name="uni2070" unicode="&#x2070;" horiz-adv-x="817" 
d="M408 698q-168 0 -257.5 123t-89.5 318t89.5 317.5t257.5 122.5t256 -122.5t88 -317.5q0 -127 -36.5 -224.5t-115.5 -157t-192 -59.5zM236 1139q0 -138 44.5 -214.5t127.5 -76.5q82 0 126 76.5t44 214.5t-44 214.5t-126 76.5q-83 0 -127.5 -76.5t-44.5 -214.5z" />
    <glyph glyph-name="uni2074" unicode="&#x2074;" horiz-adv-x="811" 
d="M473 721v182h-412v160l332 493h182l-342 -518h240v168h168v-168h115v-135h-115v-182h-168z" />
    <glyph glyph-name="uni2075" unicode="&#x2075;" horiz-adv-x="811" 
d="M410 700q-92 0 -173.5 25.5t-181.5 85.5l82 123q83 -45 142.5 -65.5t121.5 -20.5q75 0 122.5 38.5t47.5 106.5q0 63 -41.5 99t-121.5 36q-93 0 -164 -59l-135 14l43 473h553v-143h-414l-19 -199q74 54 189 54q129 0 208 -78t79 -186q0 -138 -92.5 -221t-245.5 -83z" />
    <glyph glyph-name="uni2076" unicode="&#x2076;" horiz-adv-x="815" 
d="M412 698q-163 0 -254.5 96t-91.5 253q0 285 301 509h231v-2q-271 -192 -336 -342q75 72 195 72q130 0 212.5 -84t82.5 -203q0 -56 -23 -109t-64.5 -95.5t-107.5 -68.5t-145 -26zM240 995q0 -65 46.5 -106t125.5 -41q80 0 127 40.5t47 106.5q0 63 -46 104.5t-122 41.5
q-77 0 -127.5 -42t-50.5 -104z" />
    <glyph glyph-name="uni2077" unicode="&#x2077;" horiz-adv-x="757" 
d="M201 721q13 176 107 365t218 327h-473v143h666v-129q-305 -339 -334 -706h-184z" />
    <glyph glyph-name="uni2078" unicode="&#x2078;" horiz-adv-x="817" 
d="M408 705q-161 0 -251.5 70.5t-90.5 178.5q0 75 39.5 130.5t113.5 84.5q-119 63 -119 185q0 100 84.5 165.5t223.5 65.5t224 -65.5t85 -165.5q0 -123 -121 -185q74 -30 115 -85.5t41 -129.5q0 -108 -91 -178.5t-253 -70.5zM236 971q0 -56 45 -91.5t127 -35.5
q83 0 127.5 35.5t44.5 91.5q0 57 -45 95t-127 38q-81 0 -126.5 -38t-45.5 -95zM260 1339q0 -46 42 -79t106 -33q66 0 106.5 32.5t40.5 79.5q0 48 -40 78.5t-107 30.5q-66 0 -107 -30.5t-41 -78.5z" />
    <glyph glyph-name="uni2079" unicode="&#x2079;" horiz-adv-x="811" 
d="M215 723q126 89 208.5 171t119.5 167q-71 -68 -187 -68q-133 0 -215 84t-82 203q0 56 23 109t64.5 95.5t107.5 68.5t145 26q163 0 254.5 -95.5t91.5 -252.5q0 -283 -301 -510h-229v2zM225 1282q0 -63 46 -104t122 -41q77 0 127.5 41.5t50.5 103.5q0 65 -47.5 106.5
t-124.5 41.5q-79 0 -126.5 -41.5t-47.5 -106.5z" />
    <glyph glyph-name="uni2080" unicode="&#x2080;" horiz-adv-x="817" 
d="M408 -223q-168 0 -257.5 122.5t-89.5 317.5t89.5 317.5t257.5 122.5t256 -122.5t88 -317.5t-88 -317.5t-256 -122.5zM236 217q0 -138 44.5 -214.5t127.5 -76.5q82 0 126 76.5t44 214.5t-44 214.5t-126 76.5q-83 0 -127.5 -76.5t-44.5 -214.5z" />
    <glyph glyph-name="uni2081" unicode="&#x2081;" horiz-adv-x="651" 
d="M289 -201v631l-142 -100l-84 114l265 191h131v-836h-170z" />
    <glyph glyph-name="uni2082" unicode="&#x2082;" horiz-adv-x="815" 
d="M76 -133q0 55 15 101t37 79t60.5 64.5t72 52t83.5 47.5q17 9 49.5 24.5t48 24t40 22.5t37 25t26 26t19 32t5.5 36q0 51 -39.5 79t-107.5 28q-58 0 -114.5 -25t-127.5 -82l-92 111q158 145 336 145q146 0 231.5 -73t85.5 -176q0 -29 -4 -54t-15.5 -47t-21 -38.5t-31 -35
t-35 -30t-43.5 -28.5t-45.5 -25.5t-52.5 -27.5t-53 -28q-42 -22 -54 -28.5t-43.5 -25t-43.5 -30t-26.5 -30t-20.5 -37.5h485v-144h-661v68z" />
    <glyph glyph-name="uni2083" unicode="&#x2083;" horiz-adv-x="804" 
d="M397 -223q-179 0 -346 108l82 121q84 -45 143 -62.5t119 -17.5q74 0 117 35t43 94t-49.5 92t-130.5 33q-71 0 -103 -12l-73 100l282 224h-387v143h598v-141l-248 -193q125 -3 205 -69t80 -177q0 -113 -88.5 -195.5t-243.5 -82.5z" />
    <glyph glyph-name="uni2084" unicode="&#x2084;" horiz-adv-x="811" 
d="M473 -201v183h-412v159l332 494h182l-342 -518h240v168h168v-168h115v-135h-115v-183h-168z" />
    <glyph glyph-name="uni2085" unicode="&#x2085;" horiz-adv-x="811" 
d="M410 -221q-93 0 -174.5 25t-180.5 85l82 123q83 -45 142.5 -65.5t121.5 -20.5q75 0 122.5 39t47.5 107q0 63 -41.5 99t-121.5 36q-92 0 -164 -60l-135 15l43 473h553v-143h-414l-19 -199q72 53 189 53q129 0 208 -78t79 -186q0 -138 -92.5 -220.5t-245.5 -82.5z" />
    <glyph glyph-name="uni2086" unicode="&#x2086;" horiz-adv-x="815" 
d="M412 -223q-163 0 -254.5 95.5t-91.5 252.5q0 286 301 510h231v-2q-271 -192 -336 -342q74 71 195 71q130 0 212.5 -83.5t82.5 -202.5q0 -56 -23 -109t-64.5 -95.5t-107.5 -68.5t-145 -26zM240 74q0 -65 47 -106.5t125 -41.5q80 0 127 41t47 107q0 63 -46 104t-122 41
q-77 0 -127.5 -41.5t-50.5 -103.5z" />
    <glyph glyph-name="uni2087" unicode="&#x2087;" horiz-adv-x="757" 
d="M201 -201q13 177 107 366.5t218 326.5h-473v143h666v-129q-146 -162 -232.5 -342t-101.5 -365h-184z" />
    <glyph glyph-name="uni2088" unicode="&#x2088;" horiz-adv-x="817" 
d="M408 -217q-160 0 -251 71t-91 179q0 75 39.5 130.5t113.5 84.5q-119 63 -119 184q0 100 84.5 166t223.5 66t224 -66t85 -166q0 -122 -121 -184q74 -30 115 -85.5t41 -129.5q0 -109 -91 -179.5t-253 -70.5zM236 49q0 -56 45 -91.5t127 -35.5q83 0 127.5 35.5t44.5 91.5
q0 57 -45 95t-127 38q-81 0 -126.5 -38t-45.5 -95zM260 418q0 -47 42.5 -80t105.5 -33q66 0 106.5 33t40.5 80q0 48 -40 78t-107 30q-66 0 -107 -30.5t-41 -77.5z" />
    <glyph glyph-name="uni2089" unicode="&#x2089;" horiz-adv-x="811" 
d="M215 -199q126 89 208.5 171t119.5 167q-70 -67 -187 -67q-133 0 -215 83.5t-82 202.5q0 56 23 109t64.5 95.5t107.5 68.5t145 26q163 0 254.5 -95.5t91.5 -252.5q0 -283 -301 -510h-229v2zM225 360q0 -63 46 -104t122 -41q77 0 127.5 41.5t50.5 103.5q0 65 -47.5 106.5
t-124.5 41.5q-79 0 -126.5 -41.5t-47.5 -106.5z" />
    <glyph glyph-name="Euro" unicode="&#x20ac;" horiz-adv-x="1290" 
d="M823 1425q126 0 219 -32.5t191 -108.5l-125 -158q-84 59 -143 80t-142 21q-106 0 -184 -72.5t-117 -202.5h490v-159h-518q-5 -78 -5 -97q0 -31 3 -61h520v-160h-498q34 -147 114 -228t195 -81q83 0 142.5 21t142.5 79l125 -157q-98 -76 -191 -109t-219 -33
q-217 0 -359.5 138t-189.5 370h-147v160h129q-2 20 -2 61q0 35 4 97h-131v159h156q54 218 193 345.5t347 127.5z" />
    <glyph glyph-name="uni20B9" unicode="&#x20b9;" horiz-adv-x="1208" 
d="M510 731q101 0 165 42.5t83 123.5h-596v154h592q-46 147 -244 147h-348v195h962v-154h-223q66 -79 84 -188h139v-154h-139q-23 -160 -145 -252t-308 -92h-75l563 -553h-309l-549 553v178h348z" />
    <glyph glyph-name="uni20BA" unicode="&#x20ba;" horiz-adv-x="1208" 
d="M1122 465q-32 -172 -99.5 -272t-185.5 -146.5t-307 -46.5h-258v502l-186 -82v168l186 82v182l-186 -82v168l186 82v373h232v-271l307 138v-168l-307 -138v-182l307 137v-168l-307 -137v-405h18q73 0 123.5 7t96.5 26t77 53t55 88t39 131l23 117l209 -33z" />
    <glyph glyph-name="uni20BD" unicode="&#x20bd;" horiz-adv-x="1249" 
d="M680 731q116 0 185 63t69 171q0 109 -68.5 171t-185.5 62h-191v-467h191zM76 244v153h182v158h-182v176h182v662h442q206 0 332.5 -115t126.5 -307q0 -191 -126.5 -303.5t-332.5 -112.5h-211v-158h412v-153h-412v-244h-231v244h-182z" />
    <glyph glyph-name="uni2116" unicode="&#x2116;" horiz-adv-x="2170" 
d="M158 0v1454h268l397 -647q165 -261 279 -477q-10 203 -10 534v590h237v-1454h-264l-383 621q-151 234 -299 516q12 -261 12 -568v-569h-237zM1495 1135q0 149 93.5 242t238.5 93t238.5 -93t93.5 -242q0 -147 -93.5 -240.5t-238.5 -93.5t-238.5 93.5t-93.5 240.5z
M1518 575v140h616v-140h-616zM1663 1135q0 -92 47.5 -142.5t116.5 -50.5t116.5 50.5t47.5 142.5t-47.5 143t-116.5 51t-116.5 -51t-47.5 -143z" />
    <glyph glyph-name="uni2117" unicode="&#x2117;" horiz-adv-x="1753" 
d="M877 -27q-157 0 -297 58t-240 157.5t-158.5 239.5t-58.5 299t58.5 299t158.5 239.5t240 157.5t297 58q210 0 382.5 -98t271.5 -271t99 -385t-99 -385t-271.5 -271t-382.5 -98zM260 727q0 -177 79 -322.5t220.5 -229t317.5 -83.5q132 0 247 49t195.5 134t127 202t46.5 250
t-46.5 250t-127 202t-195.5 134t-247 49q-176 0 -317.5 -83.5t-220.5 -229t-79 -322.5zM604 305v846h342q121 0 198 -74.5t77 -189.5q0 -132 -73 -193t-202 -61h-201v-328h-141zM745 752h170q82 0 123 35.5t41 99.5q0 63 -41 100t-123 37h-170v-272z" />
    <glyph glyph-name="trademark" unicode="&#x2122;" horiz-adv-x="1953" 
d="M1819 1454v-792h-142v600l-241 -600h-133l-248 591v-591h-146v792h207l254 -610l242 610h207zM68 1323v131h694v-131h-268v-661h-156v661h-270z" />
    <glyph glyph-name="uni2126" unicode="&#x2126;" horiz-adv-x="1562" 
d="M80 0v205h248q-120 88 -184 227.5t-64 306.5q0 214 83.5 383t244.5 267t374 98q214 0 375.5 -98t245.5 -267t84 -383q0 -167 -64 -306.5t-184 -227.5h246v-205h-565v205q319 138 319 532q0 242 -125 389.5t-332 147.5q-205 0 -330.5 -147.5t-125.5 -389.5
q0 -394 319 -532v-205h-565z" />
    <glyph glyph-name="uni2154" unicode="&#x2154;" horiz-adv-x="2091" 
d="M76 625q0 55 15 101t37 79t60.5 64.5t72 52t83.5 47.5q17 9 49.5 24.5t48 24t40 22.5t37 25t26 26t19 32t5.5 36q0 51 -39.5 79t-107.5 28q-58 0 -114.5 -25t-127.5 -82l-92 111q158 145 336 145q146 0 231.5 -73t85.5 -177q0 -29 -4 -54t-15.5 -47t-21 -38.5t-31 -34.5
t-35 -29.5t-43 -28.5t-45.5 -26t-52.5 -27.5t-53.5 -27.5q-39 -20 -53.5 -28t-44 -26t-43 -30t-27.5 -30.5t-20 -37.5h485v-143h-661v68zM522 53l965 1372l133 -84l-967 -1374zM1337 86l82 121q84 -45 143 -62.5t119 -17.5q74 0 117 35t43 94t-49.5 92t-130.5 33
q-70 0 -102 -12l-74 100l282 223h-387v144h598v-142l-247 -192q125 -3 204.5 -69t79.5 -177q0 -113 -88.5 -196t-243.5 -83q-177 0 -346 109z" />
    <glyph glyph-name="oneeighth" unicode="&#x215b;" horiz-adv-x="1900" 
d="M289 557v631l-142 -101l-84 115l265 191h131v-836h-170zM317 53l965 1372l133 -84l-966 -1374zM1149 227q0 75 40 130.5t114 84.5q-119 63 -119 185q0 100 84 165.5t223 65.5t224 -65.5t85 -165.5q0 -123 -121 -185q74 -30 115 -85.5t41 -129.5q0 -109 -91 -179.5
t-253 -70.5q-160 0 -251 71t-91 179zM1319 244q0 -56 45 -91.5t127 -35.5q83 0 127.5 35.5t44.5 91.5q0 57 -45 95t-127 38q-81 0 -126.5 -38t-45.5 -95zM1343 612q0 -46 42 -79t106 -33q66 0 106.5 32.5t40.5 79.5q0 48 -40 78.5t-107 30.5q-66 0 -107 -30.5t-41 -78.5z
" />
    <glyph glyph-name="threeeighths" unicode="&#x215c;" horiz-adv-x="2054" 
d="M397 535q-179 0 -346 108l82 121q84 -45 143 -62.5t119 -17.5q74 0 117 35t43 94t-49.5 92t-130.5 33q-71 0 -103 -12l-73 100l282 223h-387v144h598v-142l-248 -192q125 -3 205 -69t80 -177q0 -113 -88.5 -195.5t-243.5 -82.5zM471 53l965 1372l133 -84l-967 -1374z
M1303 227q0 75 39.5 130.5t113.5 84.5q-119 63 -119 185q0 100 84.5 165.5t223.5 65.5t224 -65.5t85 -165.5q0 -123 -121 -185q74 -30 115 -85.5t41 -129.5q0 -109 -91 -179.5t-253 -70.5q-160 0 -251 71t-91 179zM1473 244q0 -56 45 -91.5t127 -35.5q83 0 127.5 35.5
t44.5 91.5q0 57 -45 95t-127 38q-81 0 -126.5 -38t-45.5 -95zM1497 612q0 -46 42 -79t106 -33q66 0 106.5 32.5t40.5 79.5q0 48 -40 78.5t-107 30.5q-66 0 -107 -30.5t-41 -78.5z" />
    <glyph glyph-name="fiveeighths" unicode="&#x215d;" horiz-adv-x="2058" 
d="M410 537q-93 0 -174.5 25t-180.5 85l82 123q83 -45 142.5 -65.5t121.5 -20.5q75 0 122.5 38.5t47.5 106.5q0 63 -41.5 99.5t-121.5 36.5q-92 0 -164 -60l-135 15l43 473h553v-144h-414l-19 -198q72 53 189 53q129 0 208 -78t79 -186q0 -138 -92.5 -220.5t-245.5 -82.5z
M477 53l965 1372l133 -84l-967 -1374zM1307 227q0 75 39.5 130.5t113.5 84.5q-119 63 -119 185q0 100 84.5 165.5t223.5 65.5t224 -65.5t85 -165.5q0 -123 -121 -185q74 -30 115 -85.5t41 -129.5q0 -109 -91 -179.5t-253 -70.5q-160 0 -251 71t-91 179zM1477 244
q0 -56 45 -91.5t127 -35.5q83 0 127.5 35.5t44.5 91.5q0 57 -45 95t-127 38q-81 0 -126.5 -38t-45.5 -95zM1501 612q0 -46 42 -79t106 -33q66 0 106.5 32.5t40.5 79.5q0 48 -40 78.5t-107 30.5q-66 0 -107 -30.5t-41 -78.5z" />
    <glyph glyph-name="seveneighths" unicode="&#x215e;" horiz-adv-x="1880" 
d="M201 557q13 176 107 365t218 327h-473v144h666v-129q-146 -162 -232.5 -342t-101.5 -365h-184zM299 53l965 1372l133 -84l-967 -1374zM1128 227q0 75 40 130.5t114 84.5q-119 63 -119 185q0 100 84 165.5t223 65.5t224.5 -65.5t85.5 -165.5q0 -123 -121 -185
q74 -30 115 -85.5t41 -129.5q0 -108 -91.5 -179t-253.5 -71q-160 0 -251 71t-91 179zM1298 244q0 -56 45 -91.5t127 -35.5q83 0 127.5 35.5t44.5 91.5q0 57 -45 95t-127 38q-81 0 -126.5 -38t-45.5 -95zM1323 612q0 -47 42 -79.5t105 -32.5q66 0 107 32.5t41 79.5
q0 48 -40.5 78.5t-107.5 30.5q-65 0 -106 -30.5t-41 -78.5z" />
    <glyph glyph-name="arrowleft" unicode="&#x2190;" horiz-adv-x="1898" 
d="M762 -8l-701 702l701 699l135 -136l-475 -469h1360v-190h-1360l475 -469z" />
    <glyph glyph-name="arrowup" unicode="&#x2191;" horiz-adv-x="1509" 
d="M215 762l-133 133l674 672l671 -672l-131 -133l-438 444v-1206h-205v1208z" />
    <glyph glyph-name="arrowright" unicode="&#x2192;" horiz-adv-x="1898" 
d="M1137 -8l-136 137l476 469h-1360v190h1360l-476 469l136 136l700 -699z" />
    <glyph glyph-name="arrowdown" unicode="&#x2193;" horiz-adv-x="1509" 
d="M756 -113l-674 672l133 133l438 -446v1208h205v-1206l438 444l131 -133z" />
    <glyph glyph-name="uni2196" unicode="&#x2196;" horiz-adv-x="1521" 
d="M1325 137l-993 993v-690h-189v1014h1014v-186h-692l995 -996z" />
    <glyph glyph-name="uni2197" unicode="&#x2197;" horiz-adv-x="1521" 
d="M199 137l-138 135l996 996h-692v186h1013v-1014h-188v690z" />
    <glyph glyph-name="uni2198" unicode="&#x2198;" horiz-adv-x="1521" 
d="M365 0v186h692l-996 996l138 135l991 -993v690h188v-1014h-1013z" />
    <glyph glyph-name="uni2199" unicode="&#x2199;" horiz-adv-x="1521" 
d="M143 0v1014h189v-690l993 993l135 -135l-995 -996h692v-186h-1014z" />
    <glyph glyph-name="partialdiff" unicode="&#x2202;" horiz-adv-x="1153" 
d="M315 1483q163 -21 292.5 -76t218 -134.5t146.5 -185.5t84.5 -226.5t26.5 -260.5q0 -298 -138 -466.5t-378 -168.5q-116 0 -211.5 42.5t-157 114.5t-95 164t-33.5 193q0 133 53 244t157.5 180.5t241.5 69.5q102 0 186 -39.5t140 -110.5q-23 88 -67 161t-113 134.5
t-171 103t-231 58.5zM295 473q0 -132 74.5 -220.5t197.5 -88.5q122 0 199.5 89t77.5 220q0 130 -81.5 219.5t-203.5 89.5q-120 0 -192 -88t-72 -221z" />
    <glyph glyph-name="uni2206" unicode="&#x2206;" horiz-adv-x="1419" 
d="M551 1454h317l527 -1454h-1368zM340 201h733l-176 506q-145 417 -192 573q-44 -158 -189 -575z" />
    <glyph glyph-name="product" unicode="&#x220f;" horiz-adv-x="1474" 
d="M1317 1454v-1679h-242v1474h-676v-1474h-241v1679h1159z" />
    <glyph glyph-name="summation" unicode="&#x2211;" horiz-adv-x="1230" 
d="M1116 1454v-201h-727l500 -639l-506 -649h786v-201h-1067v191l500 659l-496 650v190h1010z" />
    <glyph glyph-name="minus" unicode="&#x2212;" horiz-adv-x="1228" 
d="M1147 731v-192h-1065v192h1065z" />
    <glyph glyph-name="radical" unicode="&#x221a;" horiz-adv-x="1280" 
d="M418 0l-371 1028h252l281 -797l407 1223h250l-512 -1454h-307z" />
    <glyph glyph-name="infinity" unicode="&#x221e;" horiz-adv-x="1673" 
d="M1214 950q151 0 252 -102t101 -254t-99.5 -253t-246.5 -101q-205 0 -390 217q-100 -118 -189 -167.5t-189 -49.5q-144 0 -244 101.5t-100 252.5q0 152 102 254t254 102q197 0 381 -219q179 219 368 219zM297 592q0 -77 47.5 -126.5t114.5 -49.5q69 0 131.5 39t134.5 127
q-38 46 -55 65t-46.5 48.5t-50 41.5t-49 21.5t-59.5 9.5q-71 0 -119.5 -49.5t-48.5 -126.5zM952 600q38 -46 63 -73t59.5 -56t70 -42t74.5 -13q68 0 113.5 48t45.5 128q0 77 -47.5 126.5t-118.5 49.5q-70 0 -131.5 -41.5t-128.5 -126.5z" />
    <glyph glyph-name="integral" unicode="&#x222b;" horiz-adv-x="1228" 
d="M684 -63q0 -336 -307 -336q-103 0 -205 30l41 170q68 -16 127 -16q65 0 92 35t27 114v1225q0 160 83.5 244t239.5 84q103 0 215 -37l-43 -170q-81 20 -131 20q-72 0 -105.5 -36t-33.5 -121v-1206z" />
    <glyph glyph-name="approxequal" unicode="&#x2248;" horiz-adv-x="1243" 
d="M414 979q53 0 112.5 -17.5t103.5 -39t98.5 -39t98.5 -17.5q54 0 95.5 20t109.5 83l107 -133q-91 -93 -153 -124.5t-150 -31.5q-48 0 -106 17.5t-103 39t-102 39t-105 17.5q-58 0 -101.5 -22.5t-107.5 -80.5l-107 133q85 86 154.5 121t155.5 35zM104 414
q84 86 153.5 120.5t156.5 34.5q67 0 142.5 -28t146 -56t124.5 -28t96 19.5t109 82.5l107 -133q-91 -93 -153 -124.5t-150 -31.5q-48 0 -105.5 17.5t-102 39t-102 39t-106.5 17.5q-59 0 -102 -22.5t-107 -79.5z" />
    <glyph glyph-name="notequal" unicode="&#x2260;" horiz-adv-x="1228" 
d="M895 1155l-80 -219h332v-193h-402l-79 -217h481v-192h-553l-80 -221h-195l80 221h-317v192h389l80 217h-469v193h539l79 219h195z" />
    <glyph glyph-name="lessequal" unicode="&#x2264;" horiz-adv-x="1228" 
d="M1106 1180v-201l-729 -258l729 -258v-201l-983 369v180zM82 0v193h1065v-193h-1065z" />
    <glyph glyph-name="greaterequal" unicode="&#x2265;" horiz-adv-x="1228" 
d="M123 1180l983 -369v-180l-983 -369v201l729 258l-729 258v201zM82 0v193h1065v-193h-1065z" />
    <glyph glyph-name="lozenge" unicode="&#x25ca;" horiz-adv-x="1255" 
d="M748 1454l440 -729l-440 -725h-240l-440 725l440 729h240zM309 725l318 -522l317 522l-317 526z" />
    <glyph glyph-name="uni2923" unicode="&#x2923;" horiz-adv-x="1316" 
d="M422 -106q187 196 253 279q159 197 173 357q2 18 2 37q0 51 -12.5 103t-29.5 95.5t-52.5 98t-62.5 91.5t-81 97t-85.5 93.5t-96.5 101.5v-454h-184v774h774v-181h-447q184 -188 244 -258q189 -219 236 -410q18 -75 18 -151q0 -88 -30 -179.5t-65.5 -158t-114.5 -164.5
t-123.5 -146t-146.5 -154q-12 -13 -18 -19z" />
    <glyph glyph-name="uni2924" unicode="&#x2924;" horiz-adv-x="1316" 
d="M743 -254q-194 202 -269 295q-194 240 -223 447q-5 39 -5 79q0 90 29 181t63 157t110 159.5t119.5 140t142.5 147.5q22 23 33 34h-446v181h774v-774h-184v454q-65 -68 -96.5 -101.5t-85.5 -93.5t-81 -97t-62.5 -91.5t-52.5 -98t-29.5 -95.5t-12.5 -103q0 -81 28.5 -159
t98 -170.5t121 -150.5t162.5 -174q12 -13 18 -19z" />
    <glyph glyph-name="uni2925" unicode="&#x2925;" horiz-adv-x="1316" 
d="M895 1526q-188 -197 -255 -282q-159 -199 -172 -360q-1 -16 -1 -32q0 -51 12.5 -103t29.5 -95.5t52.5 -98t62.5 -91.5t81 -97t85.5 -93.5t96.5 -101.5v455h184v-774h-774v180h446q-184 189 -246 261q-189 220 -234 412q-17 72 -17 146q0 88 30.5 180t65 158t115 165.5
t123.5 146t147 154.5q11 11 16 17z" />
    <glyph glyph-name="uni2926" unicode="&#x2926;" horiz-adv-x="1316" 
d="M573 1673q193 -201 267 -292q195 -239 225 -445q6 -42 6 -84q0 -90 -29 -181t-63 -156.5t-109.5 -158.5t-119.5 -140t-142 -147q-23 -24 -35 -36h447v-180h-774v774h184v-455q65 68 96.5 101.5t85.5 93.5t81 97t62.5 91.5t52.5 98t29.5 95.5t12.5 103q0 81 -28.5 159.5
t-99.5 172.5t-121.5 150.5t-162.5 174.5q-11 11 -16 17z" />
    <glyph glyph-name="uniE000" unicode="&#xe000;" horiz-adv-x="3670" 
d="M2386 27q116 0 170.5 48.5t54.5 153.5v996q0 106 -54 154t-171 48h-35v27h787v-27h-56q-115 0 -168 -48t-53 -154v-996q0 -113 33.5 -157.5t120.5 -44.5h135q69 0 118.5 33.5t113.5 134t161 305.5h25v-500h-1215v27h33zM102 0v471h27q77 -207 216 -325.5t296 -118.5
q125 0 195.5 79t70.5 187q0 111 -78 192q-43 42 -103.5 71.5t-123 48t-125.5 38.5t-127.5 54t-113.5 83q-119 119 -119 295q0 160 99 269.5t259 109.5h498v-403h-21q-1 1 -12.5 21.5t-16 28.5t-17.5 28.5t-22.5 34t-24 33t-30 37t-32.5 34.5q-156 159 -324 159
q-29 0 -58 -5.5t-61.5 -21.5t-57 -39.5t-40.5 -64t-16 -92.5q0 -47 18 -97t51 -83q43 -43 108 -73.5t133.5 -50t138.5 -40.5t142.5 -59.5t126.5 -93.5q49 -47 76 -119.5t27 -157.5q0 -200 -114 -315t-302 -115h-543zM1030 1427v27h768q147 0 272.5 -59t210.5 -160.5
t133 -239.5t48 -293q0 -102 -22.5 -199t-74.5 -189.5t-129 -161t-194.5 -110.5t-261.5 -42h-748v27h41q115 0 169 48t54 154v996q0 105 -54 153.5t-169 48.5h-43zM1546 199q0 -83 56 -127.5t163 -44.5q94 0 168.5 35.5t123 95.5t80 144.5t45 176t13.5 195.5
q0 162 -24.5 291.5t-65.5 214.5t-98 141.5t-118.5 81t-129.5 24.5h-133q-47 0 -63.5 -20.5t-16.5 -73.5v-1134zM3275 1427h41v-110h30v110h41v27h-112v-27zM3408 1317h31v100l36 -100h23l39 100v-100h31v137h-45l-35 -92l-33 92h-47v-137z" />
    </font>
</defs>
</svg>
