<?xml version="1.0" standalone="no"?>
<!DOCTYPE svg PUBLIC "-//W3C//DTD SVG 1.1//EN" "http://www.w3.org/Graphics/SVG/1.1/DTD/svg11.dtd" >
<svg xmlns="http://www.w3.org/2000/svg" xmlns:xlink="http://www.w3.org/1999/xlink" version="1.1">
<metadata>
Created by FontForge 20201107 at Thu Aug 21 18:08:38 2025
 By 
Copyright (c) 2015 by Letters from Sweden &#38; Stockholm Design Lab. All rights reserved.
</metadata>
<defs>
<font id="LabGrotesque-Bold" horiz-adv-x="0" >
  <font-face 
    font-family="Lab Grotesque Bold"
    font-weight="700"
    font-stretch="normal"
    units-per-em="2048"
    panose-1="0 0 0 0 0 0 0 0 0 0"
    ascent="1536"
    descent="-512"
    x-height="1047"
    cap-height="1454"
    bbox="-373 -532 3568 2134"
    underline-thickness="184"
    underline-position="-388"
    unicode-range="U+0020-FB02"
  />
<missing-glyph horiz-adv-x="1185" 
d="M981 1659v-1864h-776v1864h776z" />
    <glyph glyph-name="fi" unicode="fi" horiz-adv-x="1239" 
d="M215 1139q0 170 83 255t243 85q80 0 186 -25l-33 -207q-51 10 -92 10q-70 0 -95.5 -30t-25.5 -105v-75h230v-203h-230v-844h-266v844h-180v203h180v92zM856 0v1047h266v-1047h-266zM856 1204v250h266v-250h-266z" />
    <glyph glyph-name="fl" unicode="fl" horiz-adv-x="1243" 
d="M1122 1454v-1454h-266v1454h266zM35 844v203h180v92q0 170 83 255t243 85q80 0 186 -25l-33 -207q-51 10 -92 10q-70 0 -95.5 -30t-25.5 -105v-75h230v-203h-230v-844h-266v844h-180z" />
    <glyph glyph-name="f_f.liga" unicode="ff" horiz-adv-x="1458" 
d="M924 1151q0 170 87.5 255t252.5 85q113 0 223 -37l-47 -199q-78 17 -123 17q-65 0 -96 -31t-31 -104v-90h233v-203h-233v-844h-266v844h-162v203h162v104zM35 844v203h180v104q0 170 87.5 255t252.5 85q113 0 223 -37l-47 -199q-78 17 -123 17q-65 0 -96 -31t-31 -104
v-90h193v-203h-193v-844h-266v844h-180z" />
    <glyph glyph-name="f_f_i.liga" unicode="ffi" horiz-adv-x="1947" 
d="M215 1139q0 170 87.5 255t252.5 85q113 0 223 -37l-47 -199q-78 17 -123 17q-65 0 -96 -31.5t-31 -104.5v-77h193v-203h-193v-844h-266v844h-180v203h180v92zM762 844v203h162v92q0 170 82.5 255t242.5 85q81 0 187 -25l-33 -207q-51 10 -92 10q-70 0 -95.5 -30
t-25.5 -105v-75h229v-203h-229v-844h-266v844h-162zM1565 0v1047h266v-1047h-266zM1565 1204v250h266v-250h-266z" />
    <glyph glyph-name="f_f_j.liga" unicode="ffj" horiz-adv-x="1947" 
d="M215 1139q0 170 87.5 255t252.5 85q113 0 223 -37l-47 -199q-78 17 -123 17q-65 0 -96 -31.5t-31 -104.5v-77h193v-203h-193v-844h-266v844h-180v203h180v92zM762 844v203h162v92q0 170 82.5 255t242.5 85q81 0 187 -25l-33 -207q-51 10 -92 10q-70 0 -95.5 -30
t-25.5 -105v-75h229v-203h-229v-844h-266v844h-162zM1290 -360l47 198q69 -14 117 -14q59 0 85 30.5t26 100.5v1092h266v-1086q0 -182 -82 -267t-244 -85q-113 0 -215 31zM1565 1204v250h266v-250h-266z" />
    <glyph glyph-name="f_j.liga" unicode="fj" horiz-adv-x="1239" 
d="M215 1139q0 170 83 255t243 85q80 0 186 -25l-33 -207q-51 10 -92 10q-70 0 -95.5 -30t-25.5 -105v-75h230v-203h-230v-844h-266v844h-180v203h180v92zM582 -362l47 198q69 -14 116 -14q59 0 85 30.5t26 100.5v1094h266v-1088q0 -182 -81.5 -267t-243.5 -85
q-113 0 -215 31zM856 1204v250h266v-250h-266z" />
    <glyph glyph-name=".notdef" horiz-adv-x="1185" 
d="M981 1659v-1864h-776v1864h776z" />
    <glyph glyph-name=".null" 
 />
    <glyph glyph-name="nonmarkingreturn" horiz-adv-x="682" 
 />
    <glyph glyph-name="space" unicode=" " horiz-adv-x="450" 
 />
    <glyph glyph-name="exclam" unicode="!" horiz-adv-x="610" 
d="M461 1454v-440l-64 -553h-164l-63 553v440h291zM170 0v297h291v-297h-291z" />
    <glyph glyph-name="quotedbl" unicode="&#x22;" horiz-adv-x="899" 
d="M360 1454l-24 -567h-209l-25 567h258zM539 1454h258l-25 -567h-209z" />
    <glyph glyph-name="numbersign" unicode="#" horiz-adv-x="1208" 
d="M336 0h-197l74 350h-176l37 174h176l74 348h-177l39 175h174l74 346h197l-74 -346h268l74 346h197l-74 -346h174l-39 -175h-172l-74 -348h172l-36 -174h-173l-73 -350h-197l74 350h-268zM446 524h269l73 348h-268z" />
    <glyph glyph-name="dollar" unicode="$" horiz-adv-x="1290" 
d="M557 1597h188v-174q121 -13 220 -63.5t206 -147.5l-167 -178q-141 128 -259 152v-371q236 -67 334.5 -159t98.5 -255q0 -173 -116 -291t-317 -141v-174h-188v174q-136 13 -251.5 72.5t-244.5 179.5l172 178q96 -92 170 -135t154 -55v399q-243 73 -335.5 162.5
t-92.5 245.5q0 158 118.5 272.5t309.5 136.5v172zM391 1022q0 -57 39 -91t127 -63v320q-81 -17 -123.5 -60.5t-42.5 -105.5zM745 209q77 15 122.5 62t45.5 116q0 64 -41.5 100.5t-126.5 63.5v-342z" />
    <glyph glyph-name="percent" unicode="%" horiz-adv-x="1806" 
d="M1313 1427l153 -96l-960 -1366l-152 98zM102 1075q0 150 96.5 246t243.5 96t244.5 -96t97.5 -246q0 -152 -97 -248t-245 -96t-244 96t-96 248zM285 1075q0 -81 42.5 -131.5t114.5 -50.5q74 0 117 50.5t43 131.5q0 78 -43.5 129t-116.5 51q-72 0 -114.5 -51t-42.5 -129z
M1022 322q0 150 96.5 246t243.5 96t244.5 -96t97.5 -246q0 -152 -97 -248.5t-245 -96.5t-244 96.5t-96 248.5zM1204 322q0 -81 43 -132t115 -51q74 0 117 51t43 132q0 78 -43.5 129t-116.5 51q-72 0 -115 -51t-43 -129z" />
    <glyph glyph-name="ampersand" unicode="&#x26;" horiz-adv-x="1476" 
d="M702 1489q176 0 287 -93.5t111 -234.5q0 -121 -63.5 -206t-223.5 -181l213 -250l197 240l182 -141l-225 -277l297 -346h-322l-137 160q-99 -96 -205.5 -144.5t-249.5 -48.5q-212 0 -346.5 111.5t-134.5 286.5q0 144 85.5 248t278.5 214q-66 83 -102.5 158.5t-36.5 157.5
q0 154 113.5 250t281.5 96zM350 385q0 -86 62 -140.5t170 -54.5q79 0 145.5 36.5t138.5 111.5l-282 330q-128 -79 -181 -140.5t-53 -142.5zM555 1149q0 -48 30.5 -97.5t88.5 -115.5q108 59 145 107.5t37 115.5q0 58 -43 96.5t-106 38.5q-64 0 -108 -41t-44 -104z" />
    <glyph glyph-name="quotesingle" unicode="'" horiz-adv-x="462" 
d="M360 1454l-24 -567h-209l-25 567h258z" />
    <glyph glyph-name="parenleft" unicode="(" horiz-adv-x="704" 
d="M705 1475q-114 -155 -181 -275.5t-107 -265t-40 -305.5q0 -160 40 -304.5t107 -266t181 -275.5l-168 -129q-94 103 -164 203.5t-129 221t-90 259.5t-31 291t31 291t90 259.5t129 221t164 203.5z" />
    <glyph glyph-name="parenright" unicode=")" horiz-adv-x="704" 
d="M0 -209q114 155 181 275.5t107 265t40 305.5q0 160 -40 304.5t-107 266t-181 275.5l168 129q94 -103 164 -203.5t129 -221t90 -259.5t31 -291t-31 -291t-90 -259.5t-129 -221t-164 -203.5z" />
    <glyph glyph-name="asterisk" unicode="*" horiz-adv-x="894" 
d="M530 1454v-256l232 82l51 -150l-242 -79l160 -199l-129 -100l-158 209l-149 -205l-129 100l158 195l-242 79l51 150l227 -82v256h170z" />
    <glyph glyph-name="plus" unicode="+" horiz-adv-x="1228" 
d="M731 1167v-417h416v-230h-416v-418h-233v418h-416v230h416v417h233z" />
    <glyph glyph-name="comma" unicode="," horiz-adv-x="495" 
d="M410 297v-297l-164 -303h-150l144 303h-138v297h308z" />
    <glyph glyph-name="hyphen" unicode="-" horiz-adv-x="839" 
d="M737 715v-240h-635v240h635z" />
    <glyph glyph-name="period" unicode="." horiz-adv-x="495" 
d="M393 297v-297h-291v297h291z" />
    <glyph glyph-name="slash" unicode="/" horiz-adv-x="960" 
d="M930 1454l-635 -1454h-264l635 1454h264z" />
    <glyph glyph-name="zero" unicode="0" horiz-adv-x="1208" 
d="M604 1427q307 0 447 -268q96 -190 96 -463t-96 -463q-140 -268 -447 -268q-306 0 -446 268q-97 192 -97 463t97 463q140 268 446 268zM342 696q0 -222 59 -352q64 -143 203 -143t203 143q59 130 59 352q0 223 -59 353q-64 143 -203 143t-203 -143q-59 -130 -59 -353z" />
    <glyph glyph-name="one" unicode="1" horiz-adv-x="942" 
d="M686 1393v-1393h-276v1055l-240 -166l-135 188l436 316h215z" />
    <glyph glyph-name="two" unicode="2" horiz-adv-x="1218" 
d="M639 1427q118 0 212.5 -34t153.5 -91.5t90 -131t31 -156.5q0 -48 -7 -90.5t-24 -79t-34.5 -65.5t-48.5 -59t-55.5 -50.5t-66.5 -48t-70 -44t-78.5 -45.5t-79.5 -47q-21 -13 -66 -39.5t-66 -39.5t-54 -37t-50.5 -42t-34 -44t-24.5 -54h753v-229h-1042v109q0 88 24 163
t59 126.5t93 102t106 82.5t118 75q9 5 14 8q34 21 93 54.5t88.5 51.5t70 47.5t60 54.5t34 60.5t14.5 75.5q0 83 -58 132.5t-149 49.5q-96 0 -178.5 -56.5t-181.5 -181.5l-203 144q111 163 244.5 246t312.5 83z" />
    <glyph glyph-name="three" unicode="3" horiz-adv-x="1185" 
d="M1049 1393v-226l-381 -323q192 -8 313 -119.5t121 -296.5q0 -87 -34 -168.5t-97.5 -148t-165.5 -106.5t-227 -40q-143 0 -267 40.5t-270 139.5l133 195q123 -75 211.5 -107t183.5 -32q120 0 188 61t68 164q0 102 -74.5 160.5t-195.5 58.5q-93 0 -166 -27l-121 166
l447 379h-602v230h936z" />
    <glyph glyph-name="four" unicode="4" horiz-adv-x="1196" 
d="M883 1393l-553 -867h383v281h270v-281h193v-221h-193v-305h-270v305h-664v256l531 832h303z" />
    <glyph glyph-name="five" unicode="5" horiz-adv-x="1187" 
d="M1032 1393v-230h-618l-29 -334q106 76 264 76q101 0 187 -35.5t143.5 -95t90 -139t32.5 -166.5q0 -221 -147 -362.5t-373 -141.5q-154 0 -272.5 43.5t-274.5 147.5l135 194q136 -83 217 -116t176 -33q110 0 187 67.5t77 175.5q0 111 -67 173.5t-182 62.5q-129 0 -216 -80
l-243 23l61 770h852z" />
    <glyph glyph-name="six" unicode="6" horiz-adv-x="1204" 
d="M934 1393v-4l-238 -215q-197 -180 -286 -336q105 82 268 82q135 0 242 -64t165 -170t58 -233q0 -93 -35 -179.5t-100 -155.5t-167 -110t-225 -41q-247 0 -392.5 156t-145.5 416q0 144 54.5 284t141 255t213.5 235l84 80h363zM354 449q0 -107 74.5 -176.5t189.5 -69.5
q113 0 182.5 69t69.5 177t-69.5 176.5t-182.5 68.5q-116 0 -190 -69t-74 -176z" />
    <glyph glyph-name="seven" unicode="7" horiz-adv-x="1114" 
d="M1081 1186q-190 -228 -335 -545.5t-193 -640.5h-305q40 293 182 599t334 564h-717v230h1034v-207z" />
    <glyph glyph-name="eight" unicode="8" horiz-adv-x="1200" 
d="M600 -35q-254 0 -400.5 120t-146.5 306q0 125 63.5 218t180.5 145q-178 101 -178 303q0 166 131.5 269.5t349.5 103.5t349.5 -103.5t131.5 -269.5q0 -202 -178 -303q117 -52 180.5 -145t63.5 -218q0 -186 -146.5 -306t-400.5 -120zM332 414q0 -96 71 -160t197 -64t197 64
t71 160q0 100 -70.5 165.5t-197.5 65.5t-197.5 -65.5t-70.5 -165.5zM381 1040q0 -81 60 -133.5t159 -52.5t159 52.5t60 133.5q0 78 -60 128.5t-159 50.5t-159 -50.5t-60 -128.5z" />
    <glyph glyph-name="nine" unicode="9" horiz-adv-x="1204" 
d="M270 0v4l238 215q199 182 287 336q-105 -82 -269 -82q-135 0 -242 64t-165 170t-58 233q0 93 35 179.5t100 155t167 109.5t225 41q247 0 392.5 -155.5t145.5 -415.5q0 -211 -107 -399.5t-302 -374.5l-84 -80h-363zM334 944q0 -108 69.5 -177t182.5 -69q115 0 189.5 69.5
t74.5 176.5t-74.5 176.5t-189.5 69.5q-113 0 -182.5 -69t-69.5 -177z" />
    <glyph glyph-name="colon" unicode=":" horiz-adv-x="577" 
d="M434 297v-297h-291v297h291zM143 750v297h291v-297h-291z" />
    <glyph glyph-name="semicolon" unicode=";" horiz-adv-x="577" 
d="M457 297v-297l-164 -303h-150l144 303h-137v297h307zM156 750v297h290v-297h-290z" />
    <glyph glyph-name="less" unicode="&#x3c;" horiz-adv-x="1228" 
d="M1106 1104v-234l-682 -235l682 -236v-233l-983 369v200z" />
    <glyph glyph-name="equal" unicode="=" horiz-adv-x="1228" 
d="M1147 545v-230h-1065v230h1065zM82 725v229h1065v-229h-1065z" />
    <glyph glyph-name="greater" unicode="&#x3e;" horiz-adv-x="1228" 
d="M123 1104l983 -369v-200l-983 -369v233l682 236l-682 235v234z" />
    <glyph glyph-name="question" unicode="?" horiz-adv-x="1040" 
d="M549 1489q214 0 342.5 -106.5t128.5 -288.5q0 -42 -6.5 -77.5t-25.5 -70t-35.5 -59t-53 -60.5t-61 -58.5t-76.5 -66.5q-46 -39 -64.5 -55.5t-45 -45.5t-38 -54.5t-16.5 -57.5l-6 -38h-236v43q0 41 1.5 65t8 55.5t19 54.5t35 54t56.5 63.5t83 73.5q11 9 42.5 35.5t43 37
t33.5 33.5t30.5 38.5t16.5 38.5t8 47q0 69 -53 110t-141 41q-79 0 -152.5 -36.5t-187.5 -121.5l-158 187q126 113 249 166t259 53zM334 0v297h291v-297h-291z" />
    <glyph glyph-name="at" unicode="@" horiz-adv-x="1996" 
d="M1016 1454q262 0 466 -103.5t318.5 -295.5t114.5 -441q0 -261 -121.5 -416t-320.5 -155q-131 0 -202 49t-95 123q-53 -80 -138 -126t-184 -46q-166 0 -249 93.5t-83 252.5q0 86 21.5 173.5t64 167t99.5 141.5t135 98.5t164 36.5q92 0 156 -38.5t89 -105.5l19 127h215
l-117 -547q-12 -64 -12.5 -116t31.5 -84.5t98 -32.5q100 0 160.5 112t60.5 289q0 161 -51 286.5t-142.5 204t-214 119t-270.5 40.5q-169 0 -306 -55.5t-228 -155t-140 -238.5t-49 -305q0 -332 193 -521.5t563 -189.5h469v-184h-518q-217 0 -392 65t-293 183t-181.5 284
t-63.5 367q0 274 113 487.5t326.5 335t494.5 121.5zM752 401q0 -170 135 -170q61 0 111.5 32t81 80t51.5 107t29.5 110t8.5 93q0 82 -32.5 123t-104.5 41q-82 0 -148 -66t-99 -160t-33 -190z" />
    <glyph glyph-name="A" unicode="A" horiz-adv-x="1458" 
d="M20 0l521 1454h377l520 -1454h-297l-99 291h-632l-101 -291h-289zM492 528h469l-58 168q-147 429 -178 537q-39 -134 -178 -541z" />
    <glyph glyph-name="B" unicode="B" horiz-adv-x="1398" 
d="M842 1454q193 0 315.5 -98t122.5 -277q0 -119 -60.5 -199.5t-164.5 -115.5q276 -85 276 -354q0 -191 -122 -300.5t-328 -109.5h-731v1454h692zM436 221h342q131 0 198.5 55.5t67.5 155.5q0 99 -68.5 156t-197.5 57h-342v-424zM436 868h336q111 0 170 50t59 139
q0 176 -227 176h-338v-365z" />
    <glyph glyph-name="C" unicode="C" horiz-adv-x="1390" 
d="M801 1489q164 0 287.5 -51t254.5 -166l-167 -199q-109 94 -193.5 129t-183.5 35q-199 0 -316.5 -138.5t-117.5 -369.5q0 -233 118 -372.5t312 -139.5q110 0 195 41.5t208 144.5l168 -194q-136 -129 -268.5 -186.5t-298.5 -57.5q-167 0 -304.5 58t-229.5 160.5t-142.5 243
t-50.5 304.5q0 161 49 299t140.5 240.5t230 160.5t309.5 58z" />
    <glyph glyph-name="D" unicode="D" horiz-adv-x="1474" 
d="M741 1454q206 0 357 -93.5t228 -257t77 -376.5t-77 -376.5t-228 -257t-357 -93.5h-591v1454h591zM436 242h262q187 0 298.5 122.5t111.5 362.5t-111.5 362.5t-298.5 122.5h-262v-970z" />
    <glyph glyph-name="E" unicode="E" horiz-adv-x="1288" 
d="M1171 1454v-242h-735v-340h688v-241h-688v-389h758v-242h-1044v1454h1021z" />
    <glyph glyph-name="F" unicode="F" horiz-adv-x="1247" 
d="M1171 1454v-242h-735v-378h688v-242h-688v-592h-286v1454h1021z" />
    <glyph glyph-name="G" unicode="G" horiz-adv-x="1546" 
d="M805 1487q188 0 330 -62.5t288 -210.5l-180 -186q-126 116 -223 161.5t-217 45.5q-198 0 -318 -132.5t-120 -373.5q0 -245 116 -378.5t316 -133.5q171 0 268.5 87.5t97.5 238.5v22h-415v242h675v-807h-219l-14 137q-127 -170 -416 -170q-218 0 -378.5 99t-242 270.5
t-81.5 392.5q0 218 86 388.5t254 270t393 99.5z" />
    <glyph glyph-name="H" unicode="H" horiz-adv-x="1521" 
d="M1372 1454v-1454h-287v643h-649v-643h-286v1454h286v-569h649v569h287z" />
    <glyph glyph-name="I" unicode="I" horiz-adv-x="614" 
d="M451 1454v-1454h-287v1454h287z" />
    <glyph glyph-name="J" unicode="J" horiz-adv-x="968" 
d="M829 389q0 -110 -32.5 -192t-91.5 -131t-137 -73t-175 -24q-96 0 -198.5 24.5t-184.5 63.5l84 230q88 -32 151 -47t132 -15q166 0 166 197v1032h286v-1065z" />
    <glyph glyph-name="K" unicode="K" horiz-adv-x="1425" 
d="M1393 1454l-537 -561l567 -893h-325l-434 690l-228 -237v-453h-286v1454h286v-651l600 651h357z" />
    <glyph glyph-name="L" unicode="L" horiz-adv-x="1173" 
d="M436 1454v-1208h676v-246h-962v1454h286z" />
    <glyph glyph-name="M" unicode="M" horiz-adv-x="1865" 
d="M1716 1454v-1454h-278v737q0 2 6 494q-40 -149 -150 -494l-233 -737h-250l-238 737q-21 66 -53.5 167t-57 177.5t-44.5 143.5q6 -243 6 -488v-737h-274v1454h450l191 -592q96 -305 147 -495q51 206 145 495l189 592h444z" />
    <glyph glyph-name="N" unicode="N" horiz-adv-x="1525" 
d="M1376 1454v-1454h-305l-369 590q-222 359 -286 477q12 -255 12 -565v-502h-278v1454h311l391 -627q201 -327 256 -426q-10 192 -10 525v528h278z" />
    <glyph glyph-name="O" unicode="O" horiz-adv-x="1579" 
d="M791 1489q218 0 382 -100.5t249 -272.5t85 -389t-85 -389t-249 -272.5t-382 -100.5q-164 0 -300 58.5t-227.5 160.5t-141.5 241.5t-50 301.5t50 301.5t141.5 241.5t227.5 160.5t300 58.5zM367 727q0 -231 116 -369.5t308 -138.5t306.5 138t114.5 370q0 231 -114.5 369.5
t-306.5 138.5t-308 -139t-116 -369z" />
    <glyph glyph-name="P" unicode="P" horiz-adv-x="1396" 
d="M850 1454q219 0 349 -125.5t130 -333.5t-130 -332t-349 -124h-414v-539h-286v1454h700zM436 776h363q114 0 179.5 57t65.5 162q0 106 -65.5 164t-179.5 58h-363v-441z" />
    <glyph glyph-name="Q" unicode="Q" horiz-adv-x="1579" 
d="M1192 -150l-125 164q-122 -49 -276 -49q-164 0 -300 58.5t-227.5 160.5t-141.5 241.5t-50 301.5t50 301.5t141.5 241.5t227.5 160.5t300 58.5q218 0 382 -100.5t249 -272.5t85 -389q0 -178 -59.5 -328.5t-169.5 -253.5l117 -153zM367 727q0 -231 116 -369.5t308 -138.5
q61 0 110 14l-168 222l201 141l174 -227q104 139 104 358q0 231 -114.5 369.5t-306.5 138.5t-308 -139t-116 -369z" />
    <glyph glyph-name="R" unicode="R" horiz-adv-x="1421" 
d="M838 1454q210 0 344.5 -128t134.5 -331q0 -159 -85.5 -274t-230.5 -160l371 -561h-319l-348 539h-269v-539h-286v1454h688zM436 776h350q114 0 181 57.5t67 161.5q0 106 -67 164t-181 58h-350v-441z" />
    <glyph glyph-name="S" unicode="S" horiz-adv-x="1320" 
d="M653 1487q179 0 309.5 -51.5t272.5 -173.5l-168 -201q-125 105 -212.5 141.5t-207.5 36.5t-193 -50.5t-73 -127.5q0 -25 7.5 -44.5t18.5 -35t36.5 -29.5t47.5 -23.5t66.5 -22t79 -21t98.5 -23.5q93 -22 161 -43t129 -48t101.5 -58t70 -71.5t43 -90.5t13.5 -113
q0 -210 -156 -341.5t-419 -131.5q-192 0 -336.5 60.5t-308.5 207.5l172 203q146 -128 247.5 -174.5t231.5 -46.5q128 0 206.5 53t78.5 148q0 83 -83 125q-52 27 -215 64q-48 10 -71 16q-195 47 -303 104t-153.5 133.5t-45.5 194.5q0 186 154 310t401 124z" />
    <glyph glyph-name="T" unicode="T" horiz-adv-x="1273" 
d="M1219 1454v-246h-439v-1208h-286v1208h-439v246h1164z" />
    <glyph glyph-name="U" unicode="U" horiz-adv-x="1445" 
d="M1307 492q0 -270 -153.5 -398.5t-430.5 -128.5t-430.5 128.5t-153.5 398.5v962h287v-952q0 -135 74 -209t223 -74q148 0 222.5 74t74.5 209v952h287v-962z" />
    <glyph glyph-name="V" unicode="V" horiz-adv-x="1366" 
d="M504 0l-481 1454h301l223 -696q63 -195 139 -471q47 169 139 467l222 700h296l-481 -1454h-358z" />
    <glyph glyph-name="W" unicode="W" horiz-adv-x="1988" 
d="M1937 1454l-352 -1454h-330l-143 561q-74 298 -117 502q-61 -275 -118 -502l-144 -561h-327l-355 1454h291l145 -627q61 -262 97 -475q73 331 112 475l166 627h279l162 -627q50 -188 110 -483q59 329 96 483l146 627h282z" />
    <glyph glyph-name="X" unicode="X" horiz-adv-x="1443" 
d="M1049 1454h319l-475 -684l530 -770h-321l-381 563l-383 -563h-318l529 772l-473 682h323l326 -481z" />
    <glyph glyph-name="Y" unicode="Y" horiz-adv-x="1345" 
d="M1329 1454l-514 -844v-610h-287v612l-512 842h316l346 -590l346 590h305z" />
    <glyph glyph-name="Z" unicode="Z" horiz-adv-x="1312" 
d="M1223 1454v-235l-789 -977h787v-242h-1131v236l789 976h-760v242h1104z" />
    <glyph glyph-name="bracketleft" unicode="[" horiz-adv-x="720" 
d="M659 1585v-194h-227v-1520h227v-193h-475v1907h475z" />
    <glyph glyph-name="backslash" unicode="\" horiz-adv-x="960" 
d="M31 1454h264l635 -1454h-264z" />
    <glyph glyph-name="bracketright" unicode="]" horiz-adv-x="720" 
d="M61 1585h476v-1907h-476v193h228v1520h-228v194z" />
    <glyph glyph-name="asciicircum" unicode="^" horiz-adv-x="1208" 
d="M705 1454l407 -881h-211l-295 644l-297 -644h-213l410 881h199z" />
    <glyph glyph-name="underscore" unicode="_" horiz-adv-x="1228" 
d="M1239 -205v-184h-1249v184h1249z" />
    <glyph glyph-name="grave" unicode="`" horiz-adv-x="636" 
d="M102 1473h291l142 -297h-236z" />
    <glyph glyph-name="a" unicode="a" horiz-adv-x="1146" 
d="M453 -35q-77 0 -143 17t-119 52t-83 94t-30 136q0 70 25 127t65 95t101 68t122 47.5t139 31.5l246 45v24q0 76 -52.5 118t-143.5 42q-98 0 -163.5 -38.5t-162.5 -131.5l-168 154q100 119 218 177t271 58q220 0 337.5 -101.5t117.5 -272.5v-707h-239v109
q-103 -144 -338 -144zM338 283q0 -49 42.5 -77t117.5 -28q53 0 100.5 13.5t88.5 41.5t65 78t24 115v61l-176 -36q-134 -28 -198 -64t-64 -104z" />
    <glyph glyph-name="b" unicode="b" horiz-adv-x="1226" 
d="M696 -29q-220 0 -331 162v-133h-248v1454h266v-518q112 141 315 141t333 -151.5t130 -401.5q0 -251 -131 -402t-334 -151zM373 524q0 -149 74 -235t188 -86q115 0 185.5 86.5t70.5 234.5q0 149 -68 236.5t-186 87.5q-117 0 -190.5 -87.5t-73.5 -236.5z" />
    <glyph glyph-name="c" unicode="c" horiz-adv-x="1083" 
d="M877 719q-84 80 -145 108.5t-128 28.5q-127 0 -198.5 -94.5t-71.5 -237.5q0 -142 71 -235.5t197 -93.5q76 0 139 36t146 125l176 -147q-109 -135 -216 -188.5t-249 -53.5q-239 0 -387 150.5t-148 406.5t150.5 406.5t390.5 150.5q131 0 234.5 -44t203.5 -154z" />
    <glyph glyph-name="d" unicode="d" horiz-adv-x="1226" 
d="M528 -31q-202 0 -332 151.5t-130 401.5q0 251 130.5 402t333.5 151q205 0 314 -137v516h266v-1454h-248v137q-113 -168 -334 -168zM336 522q0 -148 68 -235.5t186 -87.5q117 0 190.5 87t73.5 236q0 150 -74 236t-188 86q-115 0 -185.5 -87t-70.5 -235z" />
    <glyph glyph-name="e" unicode="e" horiz-adv-x="1148" 
d="M612 -33q-253 0 -401 150t-148 401q0 162 62 289t183 200.5t282 73.5q236 0 362.5 -138.5t126.5 -383.5q0 -58 -4 -104h-751q18 -121 91 -191.5t203 -70.5q88 0 150.5 30.5t161.5 112.5l149 -164q-111 -113 -222 -159t-245 -46zM330 645h489q-8 106 -69 166.5t-168 60.5
q-102 0 -165.5 -60.5t-86.5 -166.5z" />
    <glyph glyph-name="f" unicode="f" horiz-adv-x="749" 
d="M555 1491q113 0 223 -37l-47 -199q-78 17 -123 17q-65 0 -96 -31t-31 -104v-90h234v-203h-234v-844h-266v844h-180v203h180v104q0 170 87.5 255t252.5 85z" />
    <glyph glyph-name="g" unicode="g" horiz-adv-x="1208" 
d="M580 -401q-264 0 -498 153l129 193q113 -68 194.5 -96.5t169.5 -28.5q116 0 186 61.5t70 192.5v84q-107 -133 -305 -133q-200 0 -330 147t-130 381q0 233 130 380.5t330 147.5q219 0 320 -151v117h246v-996q0 -145 -68.5 -249t-182.5 -153.5t-261 -49.5zM334 553
q0 -135 69 -219t183 -84q111 0 182.5 84.5t71.5 218.5t-71.5 217.5t-182.5 83.5q-114 0 -183 -83t-69 -218z" />
    <glyph glyph-name="h" unicode="h" horiz-adv-x="1171" 
d="M680 1081q179 0 277 -100t98 -264v-717h-267v637q0 103 -49.5 159t-144.5 56q-93 0 -152 -61.5t-59 -159.5v-631h-266v1454h266v-502q106 129 297 129z" />
    <glyph glyph-name="i" unicode="i" horiz-adv-x="499" 
d="M383 1047v-1047h-266v1047h266zM117 1204v250h266v-250h-266z" />
    <glyph glyph-name="j" unicode="j" horiz-adv-x="507" 
d="M-102 -162q69 -14 116 -14q59 0 85 30.5t26 100.5v1092h266v-1086q0 -182 -81.5 -267t-243.5 -85q-114 0 -216 31zM125 1204v250h266v-250h-266z" />
    <glyph glyph-name="k" unicode="k" horiz-adv-x="1124" 
d="M1104 1047l-385 -398l405 -649h-297l-295 477l-149 -151v-326h-266v1454h266v-833l401 426h320z" />
    <glyph glyph-name="l" unicode="l" horiz-adv-x="507" 
d="M387 1454v-1454h-266v1454h266z" />
    <glyph glyph-name="m" unicode="m" horiz-adv-x="1732" 
d="M1268 1081q166 0 257 -94t91 -256v-731h-266v651q0 201 -166 201q-88 0 -136.5 -58t-48.5 -151v-643h-266v651q0 201 -166 201q-88 0 -136 -58.5t-48 -150.5v-643h-266v1047h248v-117q92 151 299 151q202 0 290 -153q106 153 314 153z" />
    <glyph glyph-name="n" unicode="n" horiz-adv-x="1171" 
d="M680 1081q179 0 277 -100t98 -264v-717h-267v637q0 103 -49.5 159t-144.5 56q-93 0 -152 -61.5t-59 -159.5v-631h-266v1047h248v-119q107 153 315 153z" />
    <glyph glyph-name="o" unicode="o" horiz-adv-x="1214" 
d="M608 1081q239 0 391 -154.5t152 -402.5t-152 -402.5t-391 -154.5q-240 0 -392.5 154.5t-152.5 402.5t152.5 402.5t392.5 154.5zM334 524q0 -152 74.5 -241.5t199.5 -89.5q124 0 198.5 89.5t74.5 241.5q0 150 -75 241t-198 91q-124 0 -199 -90.5t-75 -241.5z" />
    <glyph glyph-name="p" unicode="p" horiz-adv-x="1226" 
d="M696 -29q-203 0 -313 138v-478h-266v1416h248v-138q113 168 333 168q203 0 333 -151.5t130 -401.5q0 -251 -131 -402t-334 -151zM373 524q0 -149 74 -235t188 -86q115 0 185.5 86.5t70.5 234.5q0 149 -68 236.5t-186 87.5q-117 0 -190.5 -87.5t-73.5 -236.5z" />
    <glyph glyph-name="q" unicode="q" horiz-adv-x="1226" 
d="M528 -31q-202 0 -332 151.5t-130 401.5q0 251 130.5 402t333.5 151q221 0 332 -162v134h248v-1416h-266v480q-113 -142 -316 -142zM336 522q0 -148 68 -235.5t186 -87.5q117 0 190.5 87t73.5 236q0 150 -74 236t-188 86q-115 0 -185.5 -87t-70.5 -235z" />
    <glyph glyph-name="r" unicode="r" horiz-adv-x="811" 
d="M627 1061q64 0 166 -31l-48 -233q-79 20 -133 20q-106 0 -167.5 -80t-61.5 -221v-516h-266v1047h248v-154q82 168 262 168z" />
    <glyph glyph-name="s" unicode="s" horiz-adv-x="1042" 
d="M518 1081q135 0 239 -36.5t212 -126.5l-144 -175q-92 71 -161 97t-152 26q-79 0 -127.5 -29t-48.5 -75q0 -45 43 -64.5t179 -49.5q15 -3 22 -5q223 -49 314 -120.5t91 -213.5q0 -154 -119 -248t-329 -94q-150 0 -266 44t-240 155l153 172q113 -92 189 -124t170 -32
q81 0 131.5 29t50.5 82q0 29 -15.5 49t-48 34t-69 23.5t-91.5 21.5q-22 4 -34 7q-222 50 -303.5 118.5t-81.5 207.5q0 140 116.5 233.5t319.5 93.5z" />
    <glyph glyph-name="t" unicode="t" horiz-adv-x="792" 
d="M487 303q0 -54 25 -75t80 -21q54 0 131 18l31 -211q-116 -39 -236 -39q-157 0 -227 73t-70 222v574h-186v203h186v323h266v-323h250v-203h-250v-541z" />
    <glyph glyph-name="u" unicode="u" horiz-adv-x="1155" 
d="M1038 1047v-1047h-243v111q-87 -144 -308 -144q-187 0 -278.5 90.5t-91.5 241.5v748h266v-674q0 -82 43.5 -128t130.5 -46q100 0 157.5 55.5t57.5 161.5v631h266z" />
    <glyph glyph-name="v" unicode="v" horiz-adv-x="1067" 
d="M1051 1047l-357 -1047h-323l-355 1047h281l104 -342q97 -320 136 -476q54 215 133 476l104 342h277z" />
    <glyph glyph-name="w" unicode="w" horiz-adv-x="1622" 
d="M1593 1047l-290 -1047h-316l-78 285q-46 172 -102 426q-50 -248 -96 -426l-74 -285h-318l-290 1047h280l84 -345q41 -161 101 -460q61 285 106 460l90 345h246l90 -345q54 -203 109 -464q64 320 100 464l84 345h274z" />
    <glyph glyph-name="x" unicode="x" horiz-adv-x="1073" 
d="M10 0l377 549l-342 498h289l205 -308l200 308h287l-338 -488l375 -559h-293l-235 358l-238 -358h-287z" />
    <glyph glyph-name="y" unicode="y" horiz-adv-x="1067" 
d="M643 -117q-52 -152 -135.5 -217t-226.5 -65q-114 0 -201 26l45 199q66 -12 123 -12q123 0 166 131l-394 1102h279l92 -275q109 -330 150 -471q98 326 145 473l90 273h271z" />
    <glyph glyph-name="z" unicode="z" horiz-adv-x="1019" 
d="M938 1047v-201l-539 -629h539v-217h-868v201l542 630h-510v216h836z" />
    <glyph glyph-name="braceleft" unicode="{" horiz-adv-x="763" 
d="M702 1585v-194h-49q-30 0 -52 -3.5t-37 -10.5t-25 -18t-15 -25.5t-7.5 -33t-2.5 -41.5v-50v-33v-277q0 -110 -40 -171.5t-152 -80.5v-4q112 -19 152 -80.5t40 -171.5v-305q0 -113 4 -137q11 -54 59 -69q29 -9 76 -9h49v-193h-108q-171 0 -249.5 74.5t-78.5 259.5v336
q0 117 -31 155t-133 38v209q102 0 133 38t31 154v309q0 185 78.5 259.5t249.5 74.5h108z" />
    <glyph glyph-name="bar" unicode="|" horiz-adv-x="798" 
d="M512 1638v-1925h-225v1925h225z" />
    <glyph glyph-name="braceright" unicode="}" horiz-adv-x="763" 
d="M170 1585q171 0 249.5 -74.5t78.5 -259.5v-309q0 -116 31 -154t133 -38v-209q-102 0 -133 -38t-31 -155v-336q0 -185 -78.5 -259.5t-249.5 -74.5h-109v193h50q30 0 52 3.5t37 10.5t25 18t15 25.5t7.5 33t2.5 41.5v50v33v305q0 110 40 171.5t152 80.5v4q-112 19 -152 80.5
t-40 171.5v277q0 113 -4 137q-11 54 -59 69q-29 9 -76 9h-50v194h109z" />
    <glyph glyph-name="asciitilde" unicode="~" horiz-adv-x="1228" 
d="M401 862q68 0 130 -16t101 -36t88.5 -36t94.5 -16q100 0 109 90h213q0 -145 -82 -224t-205 -79q-64 0 -128.5 16.5t-108 36.5t-95.5 36.5t-94 16.5q-49 0 -81 -25t-40 -67h-211q1 98 45 168t112.5 102.5t151.5 32.5z" />
    <glyph glyph-name="uni00A0" unicode="&#xa0;" horiz-adv-x="450" 
 />
    <glyph glyph-name="exclamdown" unicode="&#xa1;" horiz-adv-x="520" 
d="M121 -406v441l63 553h164l64 -553v-441h-291zM121 752v297h291v-297h-291z" />
    <glyph glyph-name="cent" unicode="&#xa2;" horiz-adv-x="1208" 
d="M567 -205v176q-207 25 -330.5 172.5t-123.5 380.5q0 231 124 377.5t330 173.5v168h189v-168q93 -14 174.5 -59.5t161.5 -132.5l-166 -164q-94 91 -170 119v-625q81 36 180 143l176 -147q-86 -109 -171 -164t-185 -70v-180h-189zM383 524q0 -116 47.5 -201.5t136.5 -115.5
v635q-88 -28 -136 -115t-48 -203z" />
    <glyph glyph-name="sterling" unicode="&#xa3;" horiz-adv-x="1208" 
d="M1153 68q-158 -95 -303 -95q-104 0 -260.5 40t-229.5 40q-102 0 -210 -53l-78 207q102 38 139 60q106 67 106 196q0 45 -6 82h-192v205h141q-41 128 -41 274q0 121 64.5 212.5t168.5 137t230 45.5q130 0 239 -39t214 -123l-146 -190q-91 63 -158.5 90t-138.5 27
q-86 0 -140 -50t-54 -141q0 -105 43 -243h397v-205h-354q2 -14 2 -43q0 -146 -129 -238q29 -4 157.5 -32.5t208.5 -28.5q64 0 117.5 16.5t126.5 56.5z" />
    <glyph glyph-name="currency" unicode="&#xa4;" horiz-adv-x="1208" 
d="M999 1200l109 -106l-129 -129q84 -114 84 -269q0 -154 -84 -268l129 -129l-109 -106l-131 131q-112 -70 -260 -70q-149 0 -266 74l-135 -135l-107 106l133 133q-79 112 -79 264q0 154 79 262l-135 136l109 106l135 -135q117 74 266 74q148 0 260 -70zM340 696
q0 -127 74 -200.5t194 -73.5t194.5 73.5t74.5 200.5t-74.5 201t-194.5 74t-194 -74t-74 -201z" />
    <glyph glyph-name="yen" unicode="&#xa5;" horiz-adv-x="1208" 
d="M465 0v342h-352v184h352v86l-27 47h-325v185h225l-303 549h303l270 -523l275 523h291l-304 -549h228v-185h-330l-27 -49v-84h357v-184h-357v-342h-276z" />
    <glyph glyph-name="brokenbar" unicode="&#xa6;" horiz-adv-x="798" 
d="M512 532v-819h-225v819h225zM287 819v819h225v-819h-225z" />
    <glyph glyph-name="section" unicode="&#xa7;" horiz-adv-x="1208" 
d="M606 1485q149 0 264.5 -40.5t237.5 -137.5l-143 -177q-106 80 -185.5 109t-177.5 29q-101 0 -161 -36t-60 -95q0 -56 55 -80t223 -61q8 -2 13 -3q249 -53 357 -131.5t108 -228.5q0 -167 -154 -250q98 -74 98 -227t-129.5 -254t-349.5 -101q-150 0 -265.5 40.5
t-236.5 138.5l144 174q107 -80 186 -109t176 -29q101 0 161 36t60 95q0 56 -54.5 80t-223.5 61l-12 3q-248 53 -356.5 132.5t-108.5 229.5q0 169 155 248q-100 74 -100 227t130 255t349 102zM332 668q0 -68 93 -105q46 -18 209 -54q8 -1 15 -3q17 -4 45.5 -11t32.5 -8
q69 18 109.5 51.5t40.5 77.5q0 28 -14 49.5t-38.5 36.5t-61 27.5t-77 22t-89.5 20.5q-25 5 -38 8q-3 1 -32 8t-44 9q-68 -16 -109.5 -49.5t-41.5 -79.5z" />
    <glyph glyph-name="dieresis" unicode="&#xa8;" horiz-adv-x="864" 
d="M762 1454v-250h-256v250h256zM102 1204v250h256v-250h-256z" />
    <glyph glyph-name="copyright" unicode="&#xa9;" horiz-adv-x="1753" 
d="M877 -27q-157 0 -297 58t-240 157.5t-158.5 239.5t-58.5 299t58.5 299t158.5 239.5t240 157.5t297 58q210 0 382.5 -98t271.5 -271t99 -385t-99 -385t-271.5 -271t-382.5 -98zM268 727q0 -131 46 -246.5t125.5 -199t193.5 -131.5t244 -48q174 0 313.5 82t217 225
t77.5 318t-77.5 318t-217 225t-313.5 82q-130 0 -244 -48t-193.5 -131.5t-125.5 -199t-46 -246.5zM459 727q0 195 118 324t308 129q248 0 360 -219l-145 -68q-45 72 -95 102.5t-120 30.5q-118 0 -187 -81.5t-69 -217.5q0 -134 70 -216.5t186 -82.5q77 0 125 33.5t98 120.5
l143 -72q-63 -124 -147.5 -180t-218.5 -56q-190 0 -308 129t-118 324z" />
    <glyph glyph-name="ordfeminine" unicode="&#xaa;" horiz-adv-x="901" 
d="M451 1468q175 0 266.5 -79.5t91.5 -212.5v-553h-180v92q-88 -119 -281 -119q-123 0 -205 58.5t-82 176.5q0 54 19.5 97.5t51.5 73t82.5 52.5t103 37t122.5 27l174 31v10q0 68 -45.5 103.5t-126.5 35.5q-68 0 -125.5 -29.5t-117.5 -92.5l-129 120q150 172 381 172z
M262 844q0 -39 33 -61.5t96 -22.5q93 0 158 48t65 146v50l-139 -31q-49 -11 -75.5 -18t-57.5 -18t-45.5 -23t-24.5 -29.5t-10 -40.5z" />
    <glyph glyph-name="guillemotleft" unicode="&#xab;" horiz-adv-x="1253" 
d="M655 979l-299 -461l299 -461h-249l-293 461l293 461h249zM588 518l293 461h249l-299 -461l299 -461h-249z" />
    <glyph glyph-name="logicalnot" unicode="&#xac;" horiz-adv-x="1228" 
d="M1147 750v-615h-229v385h-836v230h1065z" />
    <glyph glyph-name="registered" unicode="&#xae;" horiz-adv-x="1110" 
d="M555 573q-192 0 -322.5 130t-130.5 323t130.5 323t322.5 130t322.5 -130t130.5 -323t-130.5 -323t-322.5 -130zM205 1026q0 -155 98 -257.5t252 -102.5q153 0 251.5 102.5t98.5 257.5t-98.5 257.5t-251.5 102.5q-154 0 -252 -102.5t-98 -257.5zM379 780v510h215
q71 0 117.5 -47t46.5 -115q0 -50 -27 -91t-72 -60l119 -197h-116l-111 187h-66v-187h-106zM485 1057h90q37 0 56.5 18.5t19.5 50.5q0 29 -19.5 48.5t-56.5 19.5h-90v-137z" />
    <glyph glyph-name="macron" unicode="&#xaf;" horiz-adv-x="860" 
d="M758 1403v-193h-656v193h656z" />
    <glyph glyph-name="degree" unicode="&#xb0;" horiz-adv-x="884" 
d="M442 858q-134 0 -226.5 89.5t-92.5 223.5t92.5 224t226.5 90q136 0 228 -90t92 -224t-92 -223.5t-228 -89.5zM285 1171q0 -69 44 -114t113 -45t113.5 45t44.5 114t-44.5 114.5t-113.5 45.5t-113 -45.5t-44 -114.5z" />
    <glyph glyph-name="plusminus" unicode="&#xb1;" horiz-adv-x="1228" 
d="M731 1409v-418h416v-229h-416v-418h-233v418h-416v229h416v418h233zM82 0v229h1065v-229h-1065z" />
    <glyph glyph-name="uni00B2" unicode="&#xb2;" horiz-adv-x="815" 
d="M66 799q0 67 21 121t64 95t83.5 67.5t103.5 58.5q19 10 56.5 28t54 27t42.5 25t37 28.5t20 31t9 38.5q0 42 -36.5 67t-98.5 25q-59 0 -114.5 -23t-129.5 -79l-100 127q158 143 346 143q151 0 238.5 -75t87.5 -179q0 -26 -4.5 -49.5t-10 -42t-18.5 -37t-23 -31.5t-31 -29
t-34 -25.5t-41 -25t-43 -23t-48.5 -24.5t-50.5 -26q-9 -5 -33 -17.5t-33.5 -18l-28.5 -16.5t-28.5 -18t-22 -17.5t-20 -20.5t-12.5 -21h477v-162h-679v78z" />
    <glyph glyph-name="uni00B3" unicode="&#xb3;" horiz-adv-x="806" 
d="M399 698q-188 0 -356 111l92 135q85 -44 144 -61t118 -17q69 0 107.5 29.5t38.5 81.5q0 55 -48 84t-126 29q-64 0 -99 -13l-82 113l271 205h-371v161h610v-159l-231 -172q121 -8 196.5 -75.5t75.5 -172.5q0 -115 -91 -197t-249 -82z" />
    <glyph glyph-name="acute" unicode="&#xb4;" horiz-adv-x="636" 
d="M535 1473l-197 -297h-236l142 297h291z" />
    <glyph glyph-name="uni00B5" unicode="&#xb5;" horiz-adv-x="1155" 
d="M1038 0h-241v131q-80 -164 -250 -164q-99 0 -164 49v-391h-266v1422h266v-674q0 -172 184 -172q94 0 149.5 54.5t55.5 160.5v631h266v-1047z" />
    <glyph glyph-name="paragraph" unicode="&#xb6;" horiz-adv-x="1402" 
d="M887 1454v-1659h-203v731h-158q-209 0 -337 128.5t-128 336.5q0 207 128 335t337 128h361zM1051 -205v1659h202v-1659h-202z" />
    <glyph glyph-name="periodcentered" unicode="&#xb7;" horiz-adv-x="495" 
d="M393 827v-297h-291v297h291z" />
    <glyph glyph-name="cedilla" unicode="&#xb8;" horiz-adv-x="673" 
d="M303 43l117 -43l-62 -135q98 -1 155.5 -49t57.5 -119q0 -88 -64 -142.5t-171 -54.5q-116 0 -234 80l70 107q92 -56 164 -56q40 0 66 17.5t26 46.5t-30.5 46t-71.5 17q-34 0 -58 -6l-69 64z" />
    <glyph glyph-name="uni00B9" unicode="&#xb9;" horiz-adv-x="653" 
d="M276 721v608l-131 -92l-94 129l268 190h150v-835h-193z" />
    <glyph glyph-name="ordmasculine" unicode="&#xba;" horiz-adv-x="970" 
d="M485 1470q182 0 298 -121t116 -315q0 -193 -116 -314.5t-298 -121.5t-297.5 121.5t-115.5 314.5q0 194 115.5 315t297.5 121zM281 1034q0 -120 55 -191t149 -71t149.5 71t55.5 191q0 119 -55.5 190.5t-149.5 71.5q-93 0 -148.5 -71.5t-55.5 -190.5z" />
    <glyph glyph-name="guillemotright" unicode="&#xbb;" horiz-adv-x="1253" 
d="M123 979h250l293 -461l-293 -461h-250l289 461zM598 57l289 461l-289 461h250l293 -461l-293 -461h-250z" />
    <glyph glyph-name="onequarter" unicode="&#xbc;" horiz-adv-x="1859" 
d="M276 557v608l-131 -92l-94 129l268 191h150v-836h-193zM326 63l958 1364l154 -96l-961 -1366zM1106 178v180l319 478h205l-332 -506h209v159h191v-159h110v-152h-110v-178h-191v178h-401z" />
    <glyph glyph-name="onehalf" unicode="&#xbd;" horiz-adv-x="1925" 
d="M276 557v608l-131 -92l-94 129l268 191h150v-836h-193zM326 63l958 1364l154 -96l-961 -1366zM1176 0v78q0 67 21 121t64 95t83.5 67.5t103.5 58.5q19 10 56.5 28t54 27t42.5 25t37 28.5t20 31t9 38.5q0 42 -36.5 67t-98.5 25q-59 0 -114.5 -23t-129.5 -79l-100 127
q158 143 346 143q151 0 238.5 -75t87.5 -179q0 -26 -4.5 -49.5t-10 -42t-18.5 -37t-23 -31.5t-31 -29t-34 -25.5t-41 -25t-43 -23t-48.5 -24.5t-50.5 -26q-9 -5 -33 -17.5t-33.5 -18l-28.5 -16.5t-28.5 -18t-22 -17.5t-20 -20.5t-12.5 -21h477v-162h-679z" />
    <glyph glyph-name="threequarters" unicode="&#xbe;" horiz-adv-x="2013" 
d="M399 535q-190 0 -356 110l92 135q85 -44 144 -61t118 -17q69 0 107.5 29.5t38.5 81.5q0 55 -48 84t-126 29q-64 0 -99 -13l-82 113l271 205h-371v162h610v-160l-231 -172q121 -8 196.5 -75.5t75.5 -172.5q0 -115 -91 -196.5t-249 -81.5zM479 63l959 1364l153 -96
l-960 -1366zM1260 178v180l319 478h205l-332 -506h209v159h190v-159h111v-152h-111v-178h-190v178h-401z" />
    <glyph glyph-name="questiondown" unicode="&#xbf;" horiz-adv-x="999" 
d="M471 -440q-214 0 -342.5 106.5t-128.5 288.5q0 42 6.5 77.5t25.5 70t35 58.5t53 60.5t61.5 58t76.5 66.5q46 39 64.5 55.5t45 45.5t38 54.5t16.5 57.5l6 39h236v-43q0 -50 -2.5 -78t-12.5 -64t-32 -66.5t-60 -70t-96 -88.5q-12 -10 -42.5 -35.5t-43 -36.5t-33.5 -33.5
t-30 -38.5t-17 -38.5t-8 -46.5q0 -69 53 -110.5t141 -41.5q79 0 152.5 36.5t187.5 121.5l158 -186q-126 -113 -249 -166t-259 -53zM395 752v297h291v-297h-291z" />
    <glyph glyph-name="Agrave" unicode="&#xc0;" horiz-adv-x="1458" 
d="M20 0l521 1454h377l520 -1454h-297l-99 291h-632l-101 -291h-289zM418 1880h291l141 -297h-236zM492 528h469l-58 168q-147 429 -178 537q-39 -134 -178 -541z" />
    <glyph glyph-name="Aacute" unicode="&#xc1;" horiz-adv-x="1458" 
d="M20 0l521 1454h377l520 -1454h-297l-99 291h-632l-101 -291h-289zM492 528h469l-58 168q-147 429 -178 537q-39 -134 -178 -541zM604 1583l141 297h291l-196 -297h-236z" />
    <glyph glyph-name="Acircumflex" unicode="&#xc2;" horiz-adv-x="1458" 
d="M20 0l521 1454h377l520 -1454h-297l-99 291h-632l-101 -291h-289zM350 1583l209 297h334l209 -297h-225l-150 184l-152 -184h-225zM492 528h469l-58 168q-147 429 -178 537q-39 -134 -178 -541z" />
    <glyph glyph-name="Atilde" unicode="&#xc3;" horiz-adv-x="1458" 
d="M20 0l521 1454h377l520 -1454h-297l-99 291h-632l-101 -291h-289zM373 1587q0 127 62 195.5t151 68.5q56 0 108 -25t94.5 -50t75.5 -25t50.5 28.5t17.5 71.5h149q0 -128 -56 -196t-144 -68q-50 0 -104.5 25.5t-102.5 50.5t-80 25t-51 -30t-19 -71h-151zM492 528h469
l-58 168q-147 429 -178 537q-39 -134 -178 -541z" />
    <glyph glyph-name="Adieresis" unicode="&#xc4;" horiz-adv-x="1458" 
d="M20 0l521 1454h377l520 -1454h-297l-99 291h-632l-101 -291h-289zM397 1612v250h256v-250h-256zM492 528h469l-58 168q-147 429 -178 537q-39 -134 -178 -541zM801 1612v250h256v-250h-256z" />
    <glyph glyph-name="Aring" unicode="&#xc5;" horiz-adv-x="1472" 
d="M735 1901q120 0 203.5 -80t83.5 -195q0 -110 -82 -192l512 -1434h-297l-100 295h-645l-101 -295h-289l512 1434q-81 78 -81 192q0 115 82.5 195t201.5 80zM489 528h486l-57 170q-8 23 -82.5 237.5t-104.5 317.5q-22 -79 -51 -168t-72.5 -215t-60.5 -176zM594 1626
q0 -64 40 -103.5t101 -39.5q62 0 103 39.5t41 103.5q0 62 -41 101.5t-103 39.5q-61 0 -101 -39.5t-40 -101.5z" />
    <glyph glyph-name="AE" unicode="&#xc6;" horiz-adv-x="2058" 
d="M1942 1454v-242h-736v-340h688v-241h-688v-389h758v-242h-1044v291h-482l-147 -291h-291l745 1454h1197zM557 528h363v719z" />
    <glyph glyph-name="Ccedilla" unicode="&#xc7;" horiz-adv-x="1390" 
d="M801 1489q164 0 287.5 -51t254.5 -166l-167 -199q-109 94 -193.5 129t-183.5 35q-199 0 -316.5 -138.5t-117.5 -369.5q0 -233 118 -372.5t312 -139.5q110 0 195 41.5t208 144.5l168 -194q-130 -123 -255.5 -180.5t-279.5 -63.5l-45 -100q98 -1 155.5 -49t57.5 -119
q0 -88 -64 -142.5t-171 -54.5q-116 0 -234 80l70 107q92 -56 164 -56q40 0 66 17.5t26 46.5t-30.5 46t-71.5 17q-34 0 -58 -6l-69 64l71 155q-193 22 -335.5 126t-216.5 267.5t-74 366.5q0 161 49 299t140.5 240.5t230 160.5t309.5 58z" />
    <glyph glyph-name="Egrave" unicode="&#xc8;" horiz-adv-x="1288" 
d="M1171 1454v-242h-735v-340h688v-241h-688v-389h758v-242h-1044v1454h1021zM362 1880h291l142 -297h-236z" />
    <glyph glyph-name="Eacute" unicode="&#xc9;" horiz-adv-x="1288" 
d="M1171 1454v-242h-735v-340h688v-241h-688v-389h758v-242h-1044v1454h1021zM549 1583l141 297h291l-197 -297h-235z" />
    <glyph glyph-name="Ecircumflex" unicode="&#xca;" horiz-adv-x="1288" 
d="M1171 1454v-242h-735v-340h688v-241h-688v-389h758v-242h-1044v1454h1021zM295 1583l209 297h334l209 -297h-226l-149 184l-152 -184h-225z" />
    <glyph glyph-name="Edieresis" unicode="&#xcb;" horiz-adv-x="1288" 
d="M1171 1454v-242h-735v-340h688v-241h-688v-389h758v-242h-1044v1454h1021zM342 1612v250h256v-250h-256zM745 1612v250h256v-250h-256z" />
    <glyph glyph-name="Igrave" unicode="&#xcc;" horiz-adv-x="614" 
d="M451 1454v-1454h-287v1454h287zM-2 1880h291l141 -297h-235z" />
    <glyph glyph-name="Iacute" unicode="&#xcd;" horiz-adv-x="614" 
d="M451 1454v-1454h-287v1454h287zM184 1583l142 297h290l-196 -297h-236z" />
    <glyph glyph-name="Icircumflex" unicode="&#xce;" horiz-adv-x="614" 
d="M451 1454v-1454h-287v1454h287zM-70 1583l209 297h334l209 -297h-225l-150 184l-151 -184h-226z" />
    <glyph glyph-name="Idieresis" unicode="&#xcf;" horiz-adv-x="614" 
d="M451 1454v-1454h-287v1454h287zM-23 1612v250h256v-250h-256zM381 1612v250h256v-250h-256z" />
    <glyph glyph-name="Eth" unicode="&#xd0;" horiz-adv-x="1533" 
d="M842 870v-239h-346v-389h262q186 0 297.5 122.5t111.5 362.5t-111.5 362.5t-297.5 122.5h-262v-342h346zM53 631v239h156v584h592q155 0 280 -54t208.5 -150.5t128 -230t44.5 -292.5t-44.5 -292.5t-128 -230t-208.5 -150.5t-280 -54h-592v631h-156z" />
    <glyph glyph-name="Ntilde" unicode="&#xd1;" horiz-adv-x="1525" 
d="M1376 1454v-1454h-305l-369 590q-222 359 -286 477q12 -255 12 -565v-502h-278v1454h311l391 -627q201 -327 256 -426q-10 192 -10 525v528h278zM428 1587q0 127 62 195.5t151 68.5q44 0 87 -15.5t71 -34.5t61 -34.5t60 -15.5q33 0 50 28.5t17 71.5h150
q0 -128 -56.5 -196t-144.5 -68q-50 0 -104.5 25.5t-102.5 50.5t-80 25t-50.5 -30t-18.5 -71h-152z" />
    <glyph glyph-name="Ograve" unicode="&#xd2;" horiz-adv-x="1579" 
d="M791 1489q218 0 382 -100.5t249 -272.5t85 -389t-85 -389t-249 -272.5t-382 -100.5q-164 0 -300 58.5t-227.5 160.5t-141.5 241.5t-50 301.5t50 301.5t141.5 241.5t227.5 160.5t300 58.5zM367 727q0 -231 116 -369.5t308 -138.5t306.5 138t114.5 370q0 231 -114.5 369.5
t-306.5 138.5t-308 -139t-116 -369zM481 1880h291l141 -297h-235z" />
    <glyph glyph-name="Oacute" unicode="&#xd3;" horiz-adv-x="1579" 
d="M791 1489q218 0 382 -100.5t249 -272.5t85 -389t-85 -389t-249 -272.5t-382 -100.5q-164 0 -300 58.5t-227.5 160.5t-141.5 241.5t-50 301.5t50 301.5t141.5 241.5t227.5 160.5t300 58.5zM367 727q0 -231 116 -369.5t308 -138.5t306.5 138t114.5 370q0 231 -114.5 369.5
t-306.5 138.5t-308 -139t-116 -369zM668 1583l141 297h291l-197 -297h-235z" />
    <glyph glyph-name="Ocircumflex" unicode="&#xd4;" horiz-adv-x="1579" 
d="M791 1489q218 0 382 -100.5t249 -272.5t85 -389t-85 -389t-249 -272.5t-382 -100.5q-164 0 -300 58.5t-227.5 160.5t-141.5 241.5t-50 301.5t50 301.5t141.5 241.5t227.5 160.5t300 58.5zM367 727q0 -231 116 -369.5t308 -138.5t306.5 138t114.5 370q0 231 -114.5 369.5
t-306.5 138.5t-308 -139t-116 -369zM414 1583l209 297h333l209 -297h-225l-149 184l-152 -184h-225z" />
    <glyph glyph-name="Otilde" unicode="&#xd5;" horiz-adv-x="1579" 
d="M791 1489q218 0 382 -100.5t249 -272.5t85 -389t-85 -389t-249 -272.5t-382 -100.5q-164 0 -300 58.5t-227.5 160.5t-141.5 241.5t-50 301.5t50 301.5t141.5 241.5t227.5 160.5t300 58.5zM367 727q0 -231 116 -369.5t308 -138.5t306.5 138t114.5 370q0 231 -114.5 369.5
t-306.5 138.5t-308 -139t-116 -369zM436 1587q0 127 62 195.5t151 68.5q44 0 87 -15.5t71 -34.5t61 -34.5t60 -15.5q33 0 50 28.5t17 71.5h150q0 -128 -56.5 -196t-144.5 -68q-50 0 -104.5 25.5t-102.5 50.5t-80 25t-50.5 -30t-18.5 -71h-152z" />
    <glyph glyph-name="Odieresis" unicode="&#xd6;" horiz-adv-x="1579" 
d="M791 1489q218 0 382 -100.5t249 -272.5t85 -389t-85 -389t-249 -272.5t-382 -100.5q-164 0 -300 58.5t-227.5 160.5t-141.5 241.5t-50 301.5t50 301.5t141.5 241.5t227.5 160.5t300 58.5zM367 727q0 -231 116 -369.5t308 -138.5t306.5 138t114.5 370q0 231 -114.5 369.5
t-306.5 138.5t-308 -139t-116 -369zM461 1612v250h256v-250h-256zM864 1612v250h256v-250h-256z" />
    <glyph glyph-name="multiply" unicode="&#xd7;" horiz-adv-x="1228" 
d="M1112 299l-162 -162l-336 336l-335 -336l-162 162l336 336l-336 336l162 162l335 -336l336 336l162 -162l-336 -336z" />
    <glyph glyph-name="Oslash" unicode="&#xd8;" horiz-adv-x="1579" 
d="M791 -35q-242 0 -414 121l-86 -102l-148 122l93 111q-164 206 -164 510q0 162 50 301.5t141.5 241.5t227.5 160.5t300 58.5q237 0 411 -119l86 103l148 -125l-93 -111q164 -206 164 -510q0 -217 -85 -389t-249 -272.5t-382 -100.5zM367 727q0 -165 59 -283l602 717
q-104 74 -237 74q-192 0 -308 -139t-116 -369zM551 293q104 -74 240 -74q192 0 306.5 138t114.5 370q0 165 -59 283z" />
    <glyph glyph-name="Ugrave" unicode="&#xd9;" horiz-adv-x="1445" 
d="M1307 492q0 -270 -153.5 -398.5t-430.5 -128.5t-430.5 128.5t-153.5 398.5v962h287v-952q0 -135 74 -209t223 -74q148 0 222.5 74t74.5 209v952h287v-962zM414 1880h291l141 -297h-236z" />
    <glyph glyph-name="Uacute" unicode="&#xda;" horiz-adv-x="1445" 
d="M1307 492q0 -270 -153.5 -398.5t-430.5 -128.5t-430.5 128.5t-153.5 398.5v962h287v-952q0 -135 74 -209t223 -74q148 0 222.5 74t74.5 209v952h287v-962zM600 1583l141 297h291l-196 -297h-236z" />
    <glyph glyph-name="Ucircumflex" unicode="&#xdb;" horiz-adv-x="1445" 
d="M1307 492q0 -270 -153.5 -398.5t-430.5 -128.5t-430.5 128.5t-153.5 398.5v962h287v-952q0 -135 74 -209t223 -74q148 0 222.5 74t74.5 209v952h287v-962zM346 1583l209 297h334l209 -297h-226l-149 184l-152 -184h-225z" />
    <glyph glyph-name="Udieresis" unicode="&#xdc;" horiz-adv-x="1445" 
d="M1307 492q0 -270 -153.5 -398.5t-430.5 -128.5t-430.5 128.5t-153.5 398.5v962h287v-952q0 -135 74 -209t223 -74q148 0 222.5 74t74.5 209v952h287v-962zM393 1612v250h256v-250h-256zM797 1612v250h256v-250h-256z" />
    <glyph glyph-name="Yacute" unicode="&#xdd;" horiz-adv-x="1345" 
d="M1329 1454l-514 -844v-610h-287v612l-512 842h316l346 -590l346 590h305zM551 1583l141 297h291l-197 -297h-235z" />
    <glyph glyph-name="Thorn" unicode="&#xde;" horiz-adv-x="1396" 
d="M436 0h-286v1454h286v-246h414q219 0 349 -125t130 -333t-130 -332.5t-349 -124.5h-414v-293zM436 530h363q114 0 179.5 57.5t65.5 162.5q0 106 -65.5 163.5t-179.5 57.5h-363v-441z" />
    <glyph glyph-name="germandbls" unicode="&#xdf;" horiz-adv-x="1241" 
d="M598 1485q207 0 334 -115t127 -274q0 -196 -166 -279q137 -46 209 -143t72 -240q0 -192 -122 -322t-337 -130q-120 0 -232 28l39 217q91 -16 164 -16q99 0 158 62.5t59 170.5q0 111 -81.5 171.5t-225.5 60.5h-47v215h47q97 0 150 50t53 134q0 82 -56.5 133.5t-144.5 51.5
q-97 0 -156 -65t-59 -183v-1012h-266v1024q0 94 26 171.5t71 130.5t106.5 89.5t131 53t146.5 16.5z" />
    <glyph glyph-name="agrave" unicode="&#xe0;" horiz-adv-x="1146" 
d="M453 -35q-77 0 -143 17t-119 52t-83 94t-30 136q0 70 25 127t65 95t101 68t122 47.5t139 31.5l246 45v24q0 76 -52.5 118t-143.5 42q-98 0 -163.5 -38.5t-162.5 -131.5l-168 154q100 119 218 177t271 58q220 0 337.5 -101.5t117.5 -272.5v-707h-239v109
q-103 -144 -338 -144zM274 1473h291l142 -297h-236zM338 283q0 -49 42.5 -77t117.5 -28q53 0 100.5 13.5t88.5 41.5t65 78t24 115v61l-176 -36q-134 -28 -198 -64t-64 -104z" />
    <glyph glyph-name="aacute" unicode="&#xe1;" horiz-adv-x="1146" 
d="M453 -35q-77 0 -143 17t-119 52t-83 94t-30 136q0 70 25 127t65 95t101 68t122 47.5t139 31.5l246 45v24q0 76 -52.5 118t-143.5 42q-98 0 -163.5 -38.5t-162.5 -131.5l-168 154q100 119 218 177t271 58q220 0 337.5 -101.5t117.5 -272.5v-707h-239v109
q-103 -144 -338 -144zM338 283q0 -49 42.5 -77t117.5 -28q53 0 100.5 13.5t88.5 41.5t65 78t24 115v61l-176 -36q-134 -28 -198 -64t-64 -104zM461 1176l141 297h291l-197 -297h-235z" />
    <glyph glyph-name="acircumflex" unicode="&#xe2;" horiz-adv-x="1146" 
d="M453 -35q-77 0 -143 17t-119 52t-83 94t-30 136q0 70 25 127t65 95t101 68t122 47.5t139 31.5l246 45v24q0 76 -52.5 118t-143.5 42q-98 0 -163.5 -38.5t-162.5 -131.5l-168 154q100 119 218 177t271 58q220 0 337.5 -101.5t117.5 -272.5v-707h-239v109
q-103 -144 -338 -144zM207 1176l209 297h334l208 -297h-225l-149 184l-152 -184h-225zM338 283q0 -49 42.5 -77t117.5 -28q53 0 100.5 13.5t88.5 41.5t65 78t24 115v61l-176 -36q-134 -28 -198 -64t-64 -104z" />
    <glyph glyph-name="atilde" unicode="&#xe3;" horiz-adv-x="1146" 
d="M453 -35q-77 0 -143 17t-119 52t-83 94t-30 136q0 70 25 127t65 95t101 68t122 47.5t139 31.5l246 45v24q0 76 -52.5 118t-143.5 42q-98 0 -163.5 -38.5t-162.5 -131.5l-168 154q100 119 218 177t271 58q220 0 337.5 -101.5t117.5 -272.5v-707h-239v109
q-103 -144 -338 -144zM229 1180q0 127 62 195.5t151 68.5q44 0 87 -16t71 -34.5t61 -34.5t60 -16q33 0 50 29t17 72h150q0 -128 -56.5 -196t-144.5 -68q-50 0 -104.5 25t-102 50t-79.5 25t-51 -29.5t-19 -70.5h-152zM338 283q0 -49 42.5 -77t117.5 -28q53 0 100.5 13.5
t88.5 41.5t65 78t24 115v61l-176 -36q-134 -28 -198 -64t-64 -104z" />
    <glyph glyph-name="adieresis" unicode="&#xe4;" horiz-adv-x="1146" 
d="M453 -35q-77 0 -143 17t-119 52t-83 94t-30 136q0 70 25 127t65 95t101 68t122 47.5t139 31.5l246 45v24q0 76 -52.5 118t-143.5 42q-98 0 -163.5 -38.5t-162.5 -131.5l-168 154q100 119 218 177t271 58q220 0 337.5 -101.5t117.5 -272.5v-707h-239v109
q-103 -144 -338 -144zM254 1204v250h256v-250h-256zM338 283q0 -49 42.5 -77t117.5 -28q53 0 100.5 13.5t88.5 41.5t65 78t24 115v61l-176 -36q-134 -28 -198 -64t-64 -104zM657 1204v250h256v-250h-256z" />
    <glyph glyph-name="aring" unicode="&#xe5;" horiz-adv-x="1146" 
d="M453 -35q-77 0 -143 17t-119 52t-83 94t-30 136q0 70 25 127t65 95t101 68t122 47.5t139 31.5l246 45v24q0 76 -52.5 118t-143.5 42q-98 0 -163.5 -38.5t-162.5 -131.5l-168 154q100 119 218 177t271 58q220 0 337.5 -101.5t117.5 -272.5v-707h-239v109
q-103 -144 -338 -144zM334 1411q0 98 73.5 168t176.5 70t176.5 -70t73.5 -168q0 -99 -73.5 -169.5t-176.5 -70.5t-176.5 70.5t-73.5 169.5zM338 283q0 -49 42.5 -77t117.5 -28q53 0 100.5 13.5t88.5 41.5t65 78t24 115v61l-176 -36q-134 -28 -198 -64t-64 -104zM461 1411
q0 -55 35 -90t88 -35t88 35t35 90q0 54 -35 88.5t-88 34.5t-88 -34.5t-35 -88.5z" />
    <glyph glyph-name="ae" unicode="&#xe6;" horiz-adv-x="1863" 
d="M1300 1081q237 0 365.5 -139t128.5 -383q0 -54 -4 -100h-750q14 -122 86 -194t203 -72q89 0 151.5 30.5t157.5 112.5l152 -164q-111 -113 -221.5 -159t-245.5 -46q-272 0 -418 172q-174 -174 -434 -174q-181 0 -287 72.5t-106 224.5q0 148 101.5 232t320.5 124l276 52v16
q0 90 -49.5 133t-153.5 43q-82 0 -152.5 -37.5t-160.5 -134.5l-174 156q107 121 220.5 178t275.5 57q244 0 362 -131q141 131 356 131zM340 285q0 -107 170 -107q183 0 297 137q-24 77 -29 166l-237 -53q-104 -24 -152.5 -57.5t-48.5 -85.5zM1047 643h489q-6 108 -68 171
t-170 63q-103 0 -165.5 -63t-85.5 -171z" />
    <glyph glyph-name="ccedilla" unicode="&#xe7;" horiz-adv-x="1083" 
d="M877 719q-84 80 -145 108.5t-128 28.5q-127 0 -198.5 -94.5t-71.5 -237.5q0 -142 71 -235.5t197 -93.5q76 0 139 36t146 125l176 -147q-99 -123 -195.5 -177.5t-218.5 -62.5l-47 -104q98 -1 155.5 -49t57.5 -119q0 -88 -64 -142.5t-171 -54.5q-116 0 -234 80l70 107
q92 -56 164 -56q40 0 66 17.5t26 46.5t-31 46t-72 17q-33 0 -57 -6l-70 64l72 157q-206 25 -328.5 171.5t-122.5 379.5q0 256 150.5 406.5t390.5 150.5q131 0 234.5 -44t203.5 -154z" />
    <glyph glyph-name="egrave" unicode="&#xe8;" horiz-adv-x="1148" 
d="M612 -33q-253 0 -401 150t-148 401q0 162 62 289t183 200.5t282 73.5q236 0 362.5 -138.5t126.5 -383.5q0 -58 -4 -104h-751q18 -121 91 -191.5t203 -70.5q88 0 150.5 30.5t161.5 112.5l149 -164q-111 -113 -222 -159t-245 -46zM301 1473h291l141 -297h-235zM330 645h489
q-8 106 -69 166.5t-168 60.5q-102 0 -165.5 -60.5t-86.5 -166.5z" />
    <glyph glyph-name="eacute" unicode="&#xe9;" horiz-adv-x="1148" 
d="M612 -33q-253 0 -401 150t-148 401q0 162 62 289t183 200.5t282 73.5q236 0 362.5 -138.5t126.5 -383.5q0 -58 -4 -104h-751q18 -121 91 -191.5t203 -70.5q88 0 150.5 30.5t161.5 112.5l149 -164q-111 -113 -222 -159t-245 -46zM330 645h489q-8 106 -69 166.5t-168 60.5
q-102 0 -165.5 -60.5t-86.5 -166.5zM487 1176l142 297h291l-197 -297h-236z" />
    <glyph glyph-name="ecircumflex" unicode="&#xea;" horiz-adv-x="1148" 
d="M612 -33q-253 0 -401 150t-148 401q0 162 62 289t183 200.5t282 73.5q236 0 362.5 -138.5t126.5 -383.5q0 -58 -4 -104h-751q18 -121 91 -191.5t203 -70.5q88 0 150.5 30.5t161.5 112.5l149 -164q-111 -113 -222 -159t-245 -46zM233 1176l209 297h334l209 -297h-225
l-150 184l-151 -184h-226zM330 645h489q-8 106 -69 166.5t-168 60.5q-102 0 -165.5 -60.5t-86.5 -166.5z" />
    <glyph glyph-name="edieresis" unicode="&#xeb;" horiz-adv-x="1148" 
d="M612 -33q-253 0 -401 150t-148 401q0 162 62 289t183 200.5t282 73.5q236 0 362.5 -138.5t126.5 -383.5q0 -58 -4 -104h-751q18 -121 91 -191.5t203 -70.5q88 0 150.5 30.5t161.5 112.5l149 -164q-111 -113 -222 -159t-245 -46zM281 1204v250h256v-250h-256zM330 645h489
q-8 106 -69 166.5t-168 60.5q-102 0 -165.5 -60.5t-86.5 -166.5zM684 1204v250h256v-250h-256z" />
    <glyph glyph-name="igrave" unicode="&#xec;" horiz-adv-x="499" 
d="M383 1047v-1047h-266v1047h266zM-59 1473h290l142 -297h-236z" />
    <glyph glyph-name="iacute" unicode="&#xed;" horiz-adv-x="499" 
d="M383 1047v-1047h-266v1047h266zM127 1176l141 297h291l-197 -297h-235z" />
    <glyph glyph-name="icircumflex" unicode="&#xee;" horiz-adv-x="499" 
d="M383 1047v-1047h-266v1047h266zM-127 1176l209 297h334l209 -297h-226l-149 184l-152 -184h-225z" />
    <glyph glyph-name="idieresis" unicode="&#xef;" horiz-adv-x="499" 
d="M383 1047v-1047h-266v1047h266zM-80 1204v250h256v-250h-256zM324 1204v250h256v-250h-256z" />
    <glyph glyph-name="eth" unicode="&#xf0;" horiz-adv-x="1196" 
d="M461 1454q140 -47 231 -102l162 102l82 -111l-121 -75q287 -232 287 -668q0 -302 -143 -468.5t-388 -166.5q-121 0 -219 42.5t-160 115t-95.5 164.5t-33.5 194q0 99 31.5 187.5t88.5 156.5t144 108t191 40q94 0 173.5 -34.5t133.5 -98.5q-26 87 -81 156.5t-152 129.5
l-174 -108l-80 112l113 72q-63 26 -93 37l-98 37l96 213zM330 475q0 -120 65.5 -198t175.5 -78q109 0 178.5 79t69.5 197q0 116 -72 194.5t-180 78.5t-172.5 -77.5t-64.5 -195.5z" />
    <glyph glyph-name="ntilde" unicode="&#xf1;" horiz-adv-x="1171" 
d="M680 1081q179 0 277 -100t98 -264v-717h-267v637q0 103 -49.5 159t-144.5 56q-93 0 -152 -61.5t-59 -159.5v-631h-266v1047h248v-119q107 153 315 153zM227 1180q0 127 62 195.5t151 68.5q44 0 87 -16t71 -34.5t61 -34.5t60 -16q33 0 50 29t17 72h150q0 -128 -56.5 -196
t-144.5 -68q-50 0 -104.5 25t-102 50t-79.5 25t-51 -29.5t-19 -70.5h-152z" />
    <glyph glyph-name="ograve" unicode="&#xf2;" horiz-adv-x="1214" 
d="M608 1081q239 0 391 -154.5t152 -402.5t-152 -402.5t-391 -154.5q-240 0 -392.5 154.5t-152.5 402.5t152.5 402.5t392.5 154.5zM295 1473h291l141 -297h-235zM334 524q0 -152 74.5 -241.5t199.5 -89.5q124 0 198.5 89.5t74.5 241.5q0 150 -75 241t-198 91
q-124 0 -199 -90.5t-75 -241.5z" />
    <glyph glyph-name="oacute" unicode="&#xf3;" horiz-adv-x="1214" 
d="M608 1081q239 0 391 -154.5t152 -402.5t-152 -402.5t-391 -154.5q-240 0 -392.5 154.5t-152.5 402.5t152.5 402.5t392.5 154.5zM334 524q0 -152 74.5 -241.5t199.5 -89.5q124 0 198.5 89.5t74.5 241.5q0 150 -75 241t-198 91q-124 0 -199 -90.5t-75 -241.5zM481 1176
l142 297h290l-196 -297h-236z" />
    <glyph glyph-name="ocircumflex" unicode="&#xf4;" horiz-adv-x="1214" 
d="M608 1081q239 0 391 -154.5t152 -402.5t-152 -402.5t-391 -154.5q-240 0 -392.5 154.5t-152.5 402.5t152.5 402.5t392.5 154.5zM227 1176l209 297h334l209 -297h-225l-150 184l-151 -184h-226zM334 524q0 -152 74.5 -241.5t199.5 -89.5q124 0 198.5 89.5t74.5 241.5
q0 150 -75 241t-198 91q-124 0 -199 -90.5t-75 -241.5z" />
    <glyph glyph-name="otilde" unicode="&#xf5;" horiz-adv-x="1214" 
d="M608 1081q239 0 391 -154.5t152 -402.5t-152 -402.5t-391 -154.5q-240 0 -392.5 154.5t-152.5 402.5t152.5 402.5t392.5 154.5zM250 1180q0 127 62 195.5t151 68.5q44 0 87 -16t70.5 -34.5t60.5 -34.5t60 -16q33 0 50.5 29t17.5 72h149q0 -128 -56 -196t-144 -68
q-50 0 -104.5 25t-102.5 50t-80 25t-51 -29.5t-19 -70.5h-151zM334 524q0 -152 74.5 -241.5t199.5 -89.5q124 0 198.5 89.5t74.5 241.5q0 150 -75 241t-198 91q-124 0 -199 -90.5t-75 -241.5z" />
    <glyph glyph-name="odieresis" unicode="&#xf6;" horiz-adv-x="1214" 
d="M608 1081q239 0 391 -154.5t152 -402.5t-152 -402.5t-391 -154.5q-240 0 -392.5 154.5t-152.5 402.5t152.5 402.5t392.5 154.5zM274 1204v250h256v-250h-256zM334 524q0 -152 74.5 -241.5t199.5 -89.5q124 0 198.5 89.5t74.5 241.5q0 150 -75 241t-198 91
q-124 0 -199 -90.5t-75 -241.5zM678 1204v250h256v-250h-256z" />
    <glyph glyph-name="divide" unicode="&#xf7;" horiz-adv-x="1228" 
d="M1147 750v-230h-1065v230h1065zM469 100v297h291v-297h-291zM469 872v297h291v-297h-291z" />
    <glyph glyph-name="oslash" unicode="&#xf8;" horiz-adv-x="1214" 
d="M1047 1004l-52 -74q156 -153 156 -406q0 -248 -152 -402.5t-391 -154.5q-138 0 -250 53l-53 -75l-139 98l53 76q-156 156 -156 405q0 248 152.5 402.5t392.5 154.5q136 0 248 -53l51 74zM334 524q0 -106 39 -186l346 496q-52 22 -111 22q-124 0 -199 -90.5t-75 -241.5z
M496 215q52 -22 112 -22q124 0 198.5 89.5t74.5 241.5q0 107 -39 187z" />
    <glyph glyph-name="ugrave" unicode="&#xf9;" horiz-adv-x="1155" 
d="M1038 1047v-1047h-243v111q-87 -144 -308 -144q-187 0 -278.5 90.5t-91.5 241.5v748h266v-674q0 -82 43.5 -128t130.5 -46q100 0 157.5 55.5t57.5 161.5v631h266zM256 1473h291l141 -297h-235z" />
    <glyph glyph-name="uacute" unicode="&#xfa;" horiz-adv-x="1155" 
d="M1038 1047v-1047h-243v111q-87 -144 -308 -144q-187 0 -278.5 90.5t-91.5 241.5v748h266v-674q0 -82 43.5 -128t130.5 -46q100 0 157.5 55.5t57.5 161.5v631h266zM442 1176l142 297h290l-196 -297h-236z" />
    <glyph glyph-name="ucircumflex" unicode="&#xfb;" horiz-adv-x="1155" 
d="M1038 1047v-1047h-243v111q-87 -144 -308 -144q-187 0 -278.5 90.5t-91.5 241.5v748h266v-674q0 -82 43.5 -128t130.5 -46q100 0 157.5 55.5t57.5 161.5v631h266zM188 1176l209 297h334l209 -297h-225l-150 184l-151 -184h-226z" />
    <glyph glyph-name="udieresis" unicode="&#xfc;" horiz-adv-x="1155" 
d="M1038 1047v-1047h-243v111q-87 -144 -308 -144q-187 0 -278.5 90.5t-91.5 241.5v748h266v-674q0 -82 43.5 -128t130.5 -46q100 0 157.5 55.5t57.5 161.5v631h266zM236 1204v250h256v-250h-256zM639 1204v250h256v-250h-256z" />
    <glyph glyph-name="yacute" unicode="&#xfd;" horiz-adv-x="1067" 
d="M643 -117q-52 -152 -135.5 -217t-226.5 -65q-114 0 -201 26l45 199q66 -12 123 -12q123 0 166 131l-394 1102h279l92 -275q109 -330 150 -471q98 326 145 473l90 273h271zM412 1176l141 297h291l-197 -297h-235z" />
    <glyph glyph-name="thorn" unicode="&#xfe;" horiz-adv-x="1226" 
d="M383 1456v-520q112 141 315 141t333 -151.5t130 -401.5q0 -251 -131 -402t-334 -151t-313 138v-478h-266v1825h266zM373 524q0 -149 74 -235t188 -86q115 0 185.5 86.5t70.5 234.5q0 149 -68 236.5t-186 87.5q-117 0 -190.5 -87.5t-73.5 -236.5z" />
    <glyph glyph-name="ydieresis" unicode="&#xff;" horiz-adv-x="1067" 
d="M643 -117q-52 -152 -135.5 -217t-226.5 -65q-114 0 -201 26l45 199q66 -12 123 -12q123 0 166 131l-394 1102h279l92 -275q109 -330 150 -471q98 326 145 473l90 273h271zM205 1204v250h256v-250h-256zM608 1204v250h256v-250h-256z" />
    <glyph glyph-name="Amacron" unicode="&#x100;" horiz-adv-x="1458" 
d="M20 0l521 1454h377l520 -1454h-297l-99 291h-632l-101 -291h-289zM399 1618v192h656v-192h-656zM492 528h469l-58 168q-147 429 -178 537q-39 -134 -178 -541z" />
    <glyph glyph-name="amacron" unicode="&#x101;" horiz-adv-x="1146" 
d="M453 -35q-77 0 -143 17t-119 52t-83 94t-30 136q0 70 25 127t65 95t101 68t122 47.5t139 31.5l246 45v24q0 76 -52.5 118t-143.5 42q-98 0 -163.5 -38.5t-162.5 -131.5l-168 154q100 119 218 177t271 58q220 0 337.5 -101.5t117.5 -272.5v-707h-239v109
q-103 -144 -338 -144zM256 1210v193h655v-193h-655zM338 283q0 -49 42.5 -77t117.5 -28q53 0 100.5 13.5t88.5 41.5t65 78t24 115v61l-176 -36q-134 -28 -198 -64t-64 -104z" />
    <glyph glyph-name="Abreve" unicode="&#x102;" horiz-adv-x="1458" 
d="M20 0l521 1454h377l520 -1454h-297l-99 291h-632l-101 -291h-289zM391 1866h184q0 -66 40 -104t112 -38t112 38t40 104h184q0 -147 -95 -225t-241 -78t-241 78t-95 225zM492 528h469l-58 168q-147 429 -178 537q-39 -134 -178 -541z" />
    <glyph glyph-name="abreve" unicode="&#x103;" horiz-adv-x="1146" 
d="M453 -35q-77 0 -143 17t-119 52t-83 94t-30 136q0 70 25 127t65 95t101 68t122 47.5t139 31.5l246 45v24q0 76 -52.5 118t-143.5 42q-98 0 -163.5 -38.5t-162.5 -131.5l-168 154q100 119 218 177t271 58q220 0 337.5 -101.5t117.5 -272.5v-707h-239v109
q-103 -144 -338 -144zM248 1458h184q0 -65 39.5 -103t112.5 -38q72 0 111.5 37.5t39.5 103.5h185q0 -147 -95 -225t-241 -78t-241 78t-95 225zM338 283q0 -49 42.5 -77t117.5 -28q53 0 100.5 13.5t88.5 41.5t65 78t24 115v61l-176 -36q-134 -28 -198 -64t-64 -104z" />
    <glyph glyph-name="Aogonek" unicode="&#x104;" horiz-adv-x="1458" 
d="M20 0l521 1454h377l520 -1454q-176 -109 -176 -211q0 -35 26.5 -54.5t73.5 -19.5q28 0 59 9v-154q-36 -16 -100 -16q-122 0 -183 52t-61 136q0 141 148 258h-84l-99 291h-632l-101 -291h-289zM492 528h469l-58 168q-147 429 -178 537q-39 -134 -178 -541z" />
    <glyph glyph-name="aogonek" unicode="&#x105;" horiz-adv-x="1146" 
d="M453 -35q-77 0 -143 17t-119 52t-83 94t-30 136q0 70 25 127t65 95t101 68t122 47.5t139 31.5l246 45v24q0 76 -52.5 118t-143.5 42q-98 0 -163.5 -38.5t-162.5 -131.5l-168 154q100 119 218 177t271 58q220 0 337.5 -101.5t117.5 -272.5v-707q-176 -109 -176 -211
q0 -35 26.5 -54.5t73.5 -19.5q29 0 60 9v-154q-36 -16 -101 -16q-122 0 -182.5 52t-60.5 136q0 67 31.5 129t115.5 129h-26v109q-103 -144 -338 -144zM338 283q0 -49 42.5 -77t117.5 -28q53 0 100.5 13.5t88.5 41.5t65 78t24 115v61l-176 -36q-134 -28 -198 -64t-64 -104z
" />
    <glyph glyph-name="Cacute" unicode="&#x106;" horiz-adv-x="1390" 
d="M801 1489q164 0 287.5 -51t254.5 -166l-167 -199q-109 94 -193.5 129t-183.5 35q-199 0 -316.5 -138.5t-117.5 -369.5q0 -233 118 -372.5t312 -139.5q110 0 195 41.5t208 144.5l168 -194q-136 -129 -268.5 -186.5t-298.5 -57.5q-167 0 -304.5 58t-229.5 160.5t-142.5 243
t-50.5 304.5q0 161 49 299t140.5 240.5t230 160.5t309.5 58zM680 1583l141 297h291l-197 -297h-235z" />
    <glyph glyph-name="cacute" unicode="&#x107;" horiz-adv-x="1083" 
d="M877 719q-84 80 -145 108.5t-128 28.5q-127 0 -198.5 -94.5t-71.5 -237.5q0 -142 71 -235.5t197 -93.5q76 0 139 36t146 125l176 -147q-109 -135 -216 -188.5t-249 -53.5q-239 0 -387 150.5t-148 406.5t150.5 406.5t390.5 150.5q131 0 234.5 -44t203.5 -154zM469 1176
l141 297h291l-196 -297h-236z" />
    <glyph glyph-name="Cdotaccent" unicode="&#x10a;" horiz-adv-x="1390" 
d="M801 1489q164 0 287.5 -51t254.5 -166l-167 -199q-109 94 -193.5 129t-183.5 35q-199 0 -316.5 -138.5t-117.5 -369.5q0 -233 118 -372.5t312 -139.5q110 0 195 41.5t208 144.5l168 -194q-136 -129 -268.5 -186.5t-298.5 -57.5q-167 0 -304.5 58t-229.5 160.5t-142.5 243
t-50.5 304.5q0 161 49 299t140.5 240.5t230 160.5t309.5 58zM670 1612v250h266v-250h-266z" />
    <glyph glyph-name="cdotaccent" unicode="&#x10b;" horiz-adv-x="1083" 
d="M877 719q-84 80 -145 108.5t-128 28.5q-127 0 -198.5 -94.5t-71.5 -237.5q0 -142 71 -235.5t197 -93.5q76 0 139 36t146 125l176 -147q-109 -135 -216 -188.5t-249 -53.5q-239 0 -387 150.5t-148 406.5t150.5 406.5t390.5 150.5q131 0 234.5 -44t203.5 -154zM459 1204
v250h266v-250h-266z" />
    <glyph glyph-name="Ccaron" unicode="&#x10c;" horiz-adv-x="1390" 
d="M801 1489q164 0 287.5 -51t254.5 -166l-167 -199q-109 94 -193.5 129t-183.5 35q-199 0 -316.5 -138.5t-117.5 -369.5q0 -233 118 -372.5t312 -139.5q110 0 195 41.5t208 144.5l168 -194q-136 -129 -268.5 -186.5t-298.5 -57.5q-167 0 -304.5 58t-229.5 160.5t-142.5 243
t-50.5 304.5q0 161 49 299t140.5 240.5t230 160.5t309.5 58zM426 1880h225l152 -184l149 184h226l-209 -297h-334z" />
    <glyph glyph-name="ccaron" unicode="&#x10d;" horiz-adv-x="1083" 
d="M877 719q-84 80 -145 108.5t-128 28.5q-127 0 -198.5 -94.5t-71.5 -237.5q0 -142 71 -235.5t197 -93.5q76 0 139 36t146 125l176 -147q-109 -135 -216 -188.5t-249 -53.5q-239 0 -387 150.5t-148 406.5t150.5 406.5t390.5 150.5q131 0 234.5 -44t203.5 -154zM215 1473
h225l152 -185l149 185h226l-209 -297h-334z" />
    <glyph glyph-name="Dcaron" unicode="&#x10e;" horiz-adv-x="1474" 
d="M741 1454q206 0 357 -93.5t228 -257t77 -376.5t-77 -376.5t-228 -257t-357 -93.5h-591v1454h591zM356 1880h226l151 -184l150 184h225l-209 -297h-334zM436 242h262q187 0 298.5 122.5t111.5 362.5t-111.5 362.5t-298.5 122.5h-262v-970z" />
    <glyph glyph-name="dcaron" unicode="&#x10f;" horiz-adv-x="1572" 
d="M526 -31q-203 0 -333 151.5t-130 401.5q0 251 131 402t334 151q205 0 314 -137v516h266v-1454h-248v137q-113 -168 -334 -168zM334 522q0 -148 68 -235.5t186 -87.5q117 0 190.5 87t73.5 236q0 150 -74 236t-188 86q-115 0 -185.5 -87t-70.5 -235zM1247 1014l56 440h260
l-152 -440h-164z" />
    <glyph glyph-name="Dcroat" unicode="&#x110;" horiz-adv-x="1533" 
d="M842 870v-239h-346v-389h262q186 0 297.5 122.5t111.5 362.5t-111.5 362.5t-297.5 122.5h-262v-342h346zM53 631v239h156v584h592q155 0 280 -54t208.5 -150.5t128 -230t44.5 -292.5t-44.5 -292.5t-128 -230t-208.5 -150.5t-280 -54h-592v631h-156z" />
    <glyph glyph-name="dcroat" unicode="&#x111;" horiz-adv-x="1273" 
d="M528 -31q-202 0 -332 150t-130 393q0 244 131 393.5t333 149.5q204 0 314 -135v217h-256v178h256v139h266v-139h143v-178h-143v-1137h-246v139q-112 -170 -336 -170zM336 512q0 -141 68.5 -227t185.5 -86t190.5 86t73.5 227q0 143 -74.5 227t-187.5 84q-114 0 -185 -85.5
t-71 -225.5z" />
    <glyph glyph-name="Emacron" unicode="&#x112;" horiz-adv-x="1288" 
d="M1171 1454v-242h-735v-340h688v-241h-688v-389h758v-242h-1044v1454h1021zM344 1618v192h655v-192h-655z" />
    <glyph glyph-name="emacron" unicode="&#x113;" horiz-adv-x="1148" 
d="M612 -33q-253 0 -401 150t-148 401q0 162 62 289t183 200.5t282 73.5q236 0 362.5 -138.5t126.5 -383.5q0 -58 -4 -104h-751q18 -121 91 -191.5t203 -70.5q88 0 150.5 30.5t161.5 112.5l149 -164q-111 -113 -222 -159t-245 -46zM283 1210v193h655v-193h-655zM330 645h489
q-8 106 -69 166.5t-168 60.5q-102 0 -165.5 -60.5t-86.5 -166.5z" />
    <glyph glyph-name="Edotaccent" unicode="&#x116;" horiz-adv-x="1288" 
d="M1171 1454v-242h-735v-340h688v-241h-688v-389h758v-242h-1044v1454h1021zM539 1612v250h266v-250h-266z" />
    <glyph glyph-name="edotaccent" unicode="&#x117;" horiz-adv-x="1148" 
d="M612 -33q-253 0 -401 150t-148 401q0 162 62 289t183 200.5t282 73.5q236 0 362.5 -138.5t126.5 -383.5q0 -58 -4 -104h-751q18 -121 91 -191.5t203 -70.5q88 0 150.5 30.5t161.5 112.5l149 -164q-111 -113 -222 -159t-245 -46zM330 645h489q-8 106 -69 166.5t-168 60.5
q-102 0 -165.5 -60.5t-86.5 -166.5zM477 1204v250h266v-250h-266z" />
    <glyph glyph-name="Eogonek" unicode="&#x118;" horiz-adv-x="1288" 
d="M1171 1454v-242h-735v-340h688v-241h-688v-389h758v-242q-176 -109 -176 -211q0 -35 26.5 -54.5t73.5 -19.5q28 0 60 9v-154q-36 -16 -101 -16q-122 0 -182.5 52t-60.5 136q0 67 31.5 129t115.5 129h-831v1454h1021z" />
    <glyph glyph-name="eogonek" unicode="&#x119;" horiz-adv-x="1146" 
d="M850 -446q-123 0 -185.5 53.5t-62.5 138.5q0 124 100 227q-46 -6 -92 -6q-253 0 -401 150t-148 401q0 162 62 289t183 200.5t282 73.5q236 0 362.5 -138.5t126.5 -383.5q0 -58 -4 -104h-751q18 -121 91 -191.5t203 -70.5q88 0 150.5 30.5t161.5 112.5l149 -164
q-32 -32 -98 -90q-114 -100 -153.5 -165t-39.5 -122q0 -36 27 -58t74 -22q27 0 59 9v-158q-40 -12 -96 -12zM328 645h489q-8 106 -69 166.5t-168 60.5q-102 0 -165.5 -60.5t-86.5 -166.5z" />
    <glyph glyph-name="Ecaron" unicode="&#x11a;" horiz-adv-x="1288" 
d="M1171 1454v-242h-735v-340h688v-241h-688v-389h758v-242h-1044v1454h1021zM295 1880h225l152 -184l149 184h226l-209 -297h-334z" />
    <glyph glyph-name="ecaron" unicode="&#x11b;" horiz-adv-x="1148" 
d="M612 -33q-253 0 -401 150t-148 401q0 162 62 289t183 200.5t282 73.5q236 0 362.5 -138.5t126.5 -383.5q0 -58 -4 -104h-751q18 -121 91 -191.5t203 -70.5q88 0 150.5 30.5t161.5 112.5l149 -164q-111 -113 -222 -159t-245 -46zM233 1473h226l151 -185l150 185h225
l-209 -297h-334zM330 645h489q-8 106 -69 166.5t-168 60.5q-102 0 -165.5 -60.5t-86.5 -166.5z" />
    <glyph glyph-name="Gbreve" unicode="&#x11e;" horiz-adv-x="1546" 
d="M805 1487q188 0 330 -62.5t288 -210.5l-180 -186q-126 116 -223 161.5t-217 45.5q-198 0 -318 -132.5t-120 -373.5q0 -245 116 -378.5t316 -133.5q171 0 268.5 87.5t97.5 238.5v22h-415v242h675v-807h-219l-14 137q-127 -170 -416 -170q-218 0 -378.5 99t-242 270.5
t-81.5 392.5q0 218 86 388.5t254 270t393 99.5zM457 1866h184q0 -66 40 -104t112 -38t111.5 38t39.5 104h184q0 -147 -94.5 -225t-240.5 -78t-241 78t-95 225z" />
    <glyph glyph-name="gbreve" unicode="&#x11f;" horiz-adv-x="1208" 
d="M580 -401q-264 0 -498 153l129 193q113 -68 194.5 -96.5t169.5 -28.5q116 0 186 61.5t70 192.5v84q-107 -133 -305 -133q-200 0 -330 147t-130 381q0 233 130 380.5t330 147.5q219 0 320 -151v117h246v-996q0 -145 -68.5 -249t-182.5 -153.5t-261 -49.5zM270 1458h185
q0 -66 39.5 -103.5t111.5 -37.5q73 0 112.5 38t39.5 103h184q0 -147 -95 -225t-241 -78t-241 78t-95 225zM334 553q0 -135 69 -219t183 -84q111 0 182.5 84.5t71.5 218.5t-71.5 217.5t-182.5 83.5q-114 0 -183 -83t-69 -218z" />
    <glyph glyph-name="Gdotaccent" unicode="&#x120;" horiz-adv-x="1546" 
d="M805 1487q188 0 330 -62.5t288 -210.5l-180 -186q-126 116 -223 161.5t-217 45.5q-198 0 -318 -132.5t-120 -373.5q0 -245 116 -378.5t316 -133.5q171 0 268.5 87.5t97.5 238.5v22h-415v242h675v-807h-219l-14 137q-127 -170 -416 -170q-218 0 -378.5 99t-242 270.5
t-81.5 392.5q0 218 86 388.5t254 270t393 99.5zM659 1612v250h267v-250h-267z" />
    <glyph glyph-name="gdotaccent" unicode="&#x121;" horiz-adv-x="1208" 
d="M580 -401q-264 0 -498 153l129 193q113 -68 194.5 -96.5t169.5 -28.5q116 0 186 61.5t70 192.5v84q-107 -133 -305 -133q-200 0 -330 147t-130 381q0 233 130 380.5t330 147.5q219 0 320 -151v117h246v-996q0 -145 -68.5 -249t-182.5 -153.5t-261 -49.5zM334 553
q0 -135 69 -219t183 -84q111 0 182.5 84.5t71.5 218.5t-71.5 217.5t-182.5 83.5q-114 0 -183 -83t-69 -218zM473 1204v250h266v-250h-266z" />
    <glyph glyph-name="uni0122" unicode="&#x122;" horiz-adv-x="1546" 
d="M805 1487q188 0 330 -62.5t288 -210.5l-180 -186q-126 116 -223 161.5t-217 45.5q-198 0 -318 -132.5t-120 -373.5q0 -245 116 -378.5t316 -133.5q171 0 268.5 87.5t97.5 238.5v22h-415v242h675v-807h-219l-14 137q-127 -170 -416 -170q-218 0 -378.5 99t-242 270.5
t-81.5 392.5q0 218 86 388.5t254 270t393 99.5zM643 -528l135 188h-127v217h279v-217l-148 -188h-139z" />
    <glyph glyph-name="uni0123" unicode="&#x123;" horiz-adv-x="1208" 
d="M580 -401q-264 0 -498 153l129 193q113 -68 194.5 -96.5t169.5 -28.5q116 0 186 61.5t70 192.5v84q-107 -133 -305 -133q-200 0 -330 147t-130 381q0 233 130 380.5t330 147.5q219 0 320 -151v117h246v-996q0 -145 -68.5 -249t-182.5 -153.5t-261 -49.5zM334 553
q0 -135 69 -219t183 -84q111 0 182.5 84.5t71.5 218.5t-71.5 217.5t-182.5 83.5q-114 0 -183 -83t-69 -218zM477 1204v221l148 207h139l-135 -207h127v-221h-279z" />
    <glyph glyph-name="Hbar" unicode="&#x126;" horiz-adv-x="1632" 
d="M1571 1255v-192h-141v-1063h-287v643h-649v-643h-287v1063h-146v192h146v199h287v-199h649v199h287v-199h141zM494 885h649v178h-649v-178z" />
    <glyph glyph-name="hbar" unicode="&#x127;" horiz-adv-x="1218" 
d="M727 1061q180 0 277.5 -100t97.5 -265v-696h-266v616q0 103 -50 159t-145 56q-93 0 -152 -61.5t-59 -159.5v-610h-266v1137h-144v178h144v139h266v-139h256v-178h-256v-219q105 143 297 143z" />
    <glyph glyph-name="Itilde" unicode="&#x128;" horiz-adv-x="614" 
d="M451 1454v-1454h-287v1454h287zM-47 1587q0 127 62 195.5t151 68.5q56 0 108 -25t94.5 -50t75.5 -25t50.5 28.5t17.5 71.5h150q0 -128 -56.5 -196t-144.5 -68q-50 0 -104.5 25.5t-102.5 50.5t-80 25t-51 -30t-19 -71h-151z" />
    <glyph glyph-name="itilde" unicode="&#x129;" horiz-adv-x="499" 
d="M383 1047v-1047h-266v1047h266zM-104 1180q0 127 62 195.5t151 68.5q44 0 87 -16t70.5 -34.5t60.5 -34.5t60 -16q33 0 50.5 29t17.5 72h149q0 -128 -56.5 -196t-144.5 -68q-50 0 -104.5 25t-102 50t-79.5 25t-51 -29.5t-19 -70.5h-151z" />
    <glyph glyph-name="Imacron" unicode="&#x12a;" horiz-adv-x="614" 
d="M451 1454v-1454h-287v1454h287zM-20 1618v192h655v-192h-655z" />
    <glyph glyph-name="imacron" unicode="&#x12b;" horiz-adv-x="499" 
d="M383 1047v-1047h-266v1047h266zM-78 1210v193h656v-193h-656z" />
    <glyph glyph-name="Iogonek" unicode="&#x12e;" horiz-adv-x="614" 
d="M451 1454v-1454q-177 -110 -177 -211q0 -35 27 -54.5t74 -19.5q27 0 59 9v-154q-36 -16 -100 -16q-122 0 -183 52t-61 136q0 141 148 258h-74v1454h287z" />
    <glyph glyph-name="iogonek" unicode="&#x12f;" horiz-adv-x="499" 
d="M383 1047v-1047q-176 -109 -176 -211q0 -35 26.5 -54.5t73.5 -19.5q29 0 60 9v-154q-36 -16 -101 -16q-122 0 -182.5 52t-60.5 136q0 67 31.5 129t115.5 129h-53v1047h266zM117 1204v250h266v-250h-266z" />
    <glyph glyph-name="Idotaccent" unicode="&#x130;" horiz-adv-x="614" 
d="M451 1454v-1454h-287v1454h287zM174 1612v250h266v-250h-266z" />
    <glyph glyph-name="dotlessi" unicode="&#x131;" horiz-adv-x="499" 
d="M383 1047v-1047h-266v1047h266z" />
    <glyph glyph-name="IJ" unicode="&#x132;" horiz-adv-x="1583" 
d="M451 1454v-1454h-287v1454h287zM625 57l84 230q89 -32 151 -47t131 -15q166 0 166 197v1032h287v-1065q0 -110 -32.5 -192t-91.5 -131t-137 -73t-175 -24q-96 0 -198.5 24.5t-184.5 63.5z" />
    <glyph glyph-name="ij" unicode="&#x133;" horiz-adv-x="1007" 
d="M383 1047v-1047h-266v1047h266zM117 1204v250h266v-250h-266zM350 -360l47 198q69 -14 117 -14q59 0 85 30.5t26 100.5v1092h266v-1086q0 -182 -82 -267t-244 -85q-113 0 -215 31zM625 1204v250h266v-250h-266z" />
    <glyph glyph-name="uni0136" unicode="&#x136;" horiz-adv-x="1425" 
d="M1393 1454l-537 -561l567 -893h-325l-434 690l-228 -237v-453h-286v1454h286v-651l600 651h357zM594 -528l135 188h-127v217h279v-217l-148 -188h-139z" />
    <glyph glyph-name="uni0137" unicode="&#x137;" horiz-adv-x="1124" 
d="M1104 1047l-385 -398l405 -649h-297l-295 477l-149 -151v-326h-266v1454h266v-833l401 426h320zM453 -528l135 188h-127v217h278v-217l-147 -188h-139z" />
    <glyph glyph-name="Lacute" unicode="&#x139;" horiz-adv-x="1173" 
d="M436 1454v-1208h676v-246h-962v1454h286zM170 1583l141 297h291l-196 -297h-236z" />
    <glyph glyph-name="lacute" unicode="&#x13a;" horiz-adv-x="507" 
d="M387 1454v-1454h-266v1454h266zM127 1563l141 297h291l-197 -297h-235z" />
    <glyph glyph-name="uni013B" unicode="&#x13b;" horiz-adv-x="1173" 
d="M436 1454v-1208h676v-246h-962v1454h286zM487 -528l136 188h-127v217h278v-217l-147 -188h-140z" />
    <glyph glyph-name="uni013C" unicode="&#x13c;" horiz-adv-x="507" 
d="M387 1454v-1454h-266v1454h266zM106 -528l136 188h-127v217h278v-217l-147 -188h-140z" />
    <glyph glyph-name="Lcaron" unicode="&#x13d;" horiz-adv-x="1173" 
d="M436 1454v-1208h676v-246h-962v1454h286zM606 1014l56 440h260l-152 -440h-164z" />
    <glyph glyph-name="lcaron" unicode="&#x13e;" horiz-adv-x="866" 
d="M387 1454v-1454h-266v1454h266zM541 1014l55 440h260l-151 -440h-164z" />
    <glyph glyph-name="Ldot" unicode="&#x13f;" horiz-adv-x="1138" 
d="M436 1454v-1208h676v-246h-962v1454h286zM657 610v297h291v-297h-291z" />
    <glyph glyph-name="ldot" unicode="&#x140;" horiz-adv-x="964" 
d="M387 1454v-1454h-266v1454h266zM582 530v297h290v-297h-290z" />
    <glyph glyph-name="Lslash" unicode="&#x141;" horiz-adv-x="1267" 
d="M41 434v240l203 110v670h286v-522l263 143v-239l-263 -144v-446h676v-246h-962v545z" />
    <glyph glyph-name="lslash" unicode="&#x142;" horiz-adv-x="733" 
d="M672 1053v-219l-170 -97v-737h-266v584l-175 -99v220l175 98v651h266v-498z" />
    <glyph glyph-name="Nacute" unicode="&#x143;" horiz-adv-x="1525" 
d="M1376 1454v-1454h-305l-369 590q-222 359 -286 477q12 -255 12 -565v-502h-278v1454h311l391 -627q201 -327 256 -426q-10 192 -10 525v528h278zM659 1583l142 297h291l-197 -297h-236z" />
    <glyph glyph-name="nacute" unicode="&#x144;" horiz-adv-x="1171" 
d="M680 1081q179 0 277 -100t98 -264v-717h-267v637q0 103 -49.5 159t-144.5 56q-93 0 -152 -61.5t-59 -159.5v-631h-266v1047h248v-119q107 153 315 153zM459 1176l141 297h291l-197 -297h-235z" />
    <glyph glyph-name="uni0145" unicode="&#x145;" horiz-adv-x="1525" 
d="M1376 1454v-1454h-305l-369 590q-222 359 -286 477q12 -255 12 -565v-502h-278v1454h311l391 -627q201 -327 256 -426q-10 192 -10 525v528h278zM627 -528l135 188h-127v217h278v-217l-147 -188h-139z" />
    <glyph glyph-name="uni0146" unicode="&#x146;" horiz-adv-x="1171" 
d="M680 1081q179 0 277 -100t98 -264v-717h-267v637q0 103 -49.5 159t-144.5 56q-93 0 -152 -61.5t-59 -159.5v-631h-266v1047h248v-119q107 153 315 153zM430 -528l135 188h-127v217h279v-217l-148 -188h-139z" />
    <glyph glyph-name="Ncaron" unicode="&#x147;" horiz-adv-x="1525" 
d="M1376 1454v-1454h-305l-369 590q-222 359 -286 477q12 -255 12 -565v-502h-278v1454h311l391 -627q201 -327 256 -426q-10 192 -10 525v528h278zM406 1880h225l151 -184l150 184h225l-209 -297h-334z" />
    <glyph glyph-name="ncaron" unicode="&#x148;" horiz-adv-x="1171" 
d="M680 1081q179 0 277 -100t98 -264v-717h-267v637q0 103 -49.5 159t-144.5 56q-93 0 -152 -61.5t-59 -159.5v-631h-266v1047h248v-119q107 153 315 153zM205 1473h225l152 -185l149 185h225l-208 -297h-334z" />
    <glyph glyph-name="Eng" unicode="&#x14a;" horiz-adv-x="1525" 
d="M1376 1454v-1507q0 -353 -336 -353q-121 0 -227 35l47 219q84 -20 135 -20q104 0 115 113l-408 647q-185 294 -286 479q12 -255 12 -565v-502h-278v1454h309l391 -625q185 -297 258 -432q-10 195 -10 529v528h278z" />
    <glyph glyph-name="eng" unicode="&#x14b;" horiz-adv-x="1171" 
d="M729 -391q-113 0 -215 31l47 198q69 -14 117 -14q59 0 84.5 30.5t25.5 100.5v682q0 103 -49.5 159t-144.5 56q-93 0 -152 -61.5t-59 -159.5v-631h-266v1047h248v-119q107 153 315 153q180 0 277.5 -99.5t97.5 -264.5v-756q0 -182 -82 -267t-244 -85z" />
    <glyph glyph-name="Omacron" unicode="&#x14c;" horiz-adv-x="1579" 
d="M791 1489q218 0 382 -100.5t249 -272.5t85 -389t-85 -389t-249 -272.5t-382 -100.5q-164 0 -300 58.5t-227.5 160.5t-141.5 241.5t-50 301.5t50 301.5t141.5 241.5t227.5 160.5t300 58.5zM367 727q0 -231 116 -369.5t308 -138.5t306.5 138t114.5 370q0 231 -114.5 369.5
t-306.5 138.5t-308 -139t-116 -369zM463 1618v192h655v-192h-655z" />
    <glyph glyph-name="omacron" unicode="&#x14d;" horiz-adv-x="1214" 
d="M608 1081q239 0 391 -154.5t152 -402.5t-152 -402.5t-391 -154.5q-240 0 -392.5 154.5t-152.5 402.5t152.5 402.5t392.5 154.5zM276 1210v193h656v-193h-656zM334 524q0 -152 74.5 -241.5t199.5 -89.5q124 0 198.5 89.5t74.5 241.5q0 150 -75 241t-198 91
q-124 0 -199 -90.5t-75 -241.5z" />
    <glyph glyph-name="Ohungarumlaut" unicode="&#x150;" horiz-adv-x="1579" 
d="M791 1489q218 0 382 -100.5t249 -272.5t85 -389t-85 -389t-249 -272.5t-382 -100.5q-164 0 -300 58.5t-227.5 160.5t-141.5 241.5t-50 301.5t50 301.5t141.5 241.5t227.5 160.5t300 58.5zM367 727q0 -231 116 -369.5t308 -138.5t306.5 138t114.5 370q0 231 -114.5 369.5
t-306.5 138.5t-308 -139t-116 -369zM518 1583l141 307h248l-200 -307h-189zM866 1583l142 307h247l-200 -307h-189z" />
    <glyph glyph-name="ohungarumlaut" unicode="&#x151;" horiz-adv-x="1214" 
d="M608 1081q239 0 391 -154.5t152 -402.5t-152 -402.5t-391 -154.5q-240 0 -392.5 154.5t-152.5 402.5t152.5 402.5t392.5 154.5zM332 1176l141 307h248l-201 -307h-188zM334 524q0 -152 74.5 -241.5t199.5 -89.5q124 0 198.5 89.5t74.5 241.5q0 150 -75 241t-198 91
q-124 0 -199 -90.5t-75 -241.5zM680 1176l141 307h248l-201 -307h-188z" />
    <glyph glyph-name="OE" unicode="&#x152;" horiz-adv-x="2351" 
d="M780 1489q263 0 432 -172v137h1022v-242h-735v-340h688v-241h-688v-389h758v-242h-1045v137q-169 -172 -432 -172q-164 0 -298.5 58.5t-223.5 160.5t-137.5 241.5t-48.5 301.5t48.5 301.5t137.5 241.5t223.5 160.5t298.5 58.5zM367 727q0 -231 116 -369.5t308 -138.5
t306.5 138t114.5 370q0 231 -114.5 369.5t-306.5 138.5t-308 -139t-116 -369z" />
    <glyph glyph-name="oe" unicode="&#x153;" horiz-adv-x="1978" 
d="M608 1081q128 0 233.5 -46.5t176.5 -131.5q141 178 397 178q237 0 365.5 -139t128.5 -383q0 -54 -4 -100h-750q14 -122 86 -194t203 -72q89 0 151.5 30.5t157.5 112.5l152 -164q-111 -113 -221.5 -159t-245.5 -46q-275 0 -420 178q-151 -178 -410 -178
q-240 0 -392.5 154.5t-152.5 402.5t152.5 402.5t392.5 154.5zM334 524q0 -152 74.5 -241.5t199.5 -89.5q124 0 198.5 89.5t74.5 241.5q0 150 -75 241t-198 91q-124 0 -199 -90.5t-75 -241.5zM1161 643h490q-6 108 -68 171t-170 63q-103 0 -166 -62.5t-86 -171.5z" />
    <glyph glyph-name="Racute" unicode="&#x154;" horiz-adv-x="1421" 
d="M838 1454q210 0 344.5 -128t134.5 -331q0 -159 -85.5 -274t-230.5 -160l371 -561h-319l-348 539h-269v-539h-286v1454h688zM436 776h350q114 0 181 57.5t67 161.5q0 106 -67 164t-181 58h-350v-441zM584 1583l141 297h291l-197 -297h-235z" />
    <glyph glyph-name="racute" unicode="&#x155;" horiz-adv-x="811" 
d="M627 1061q64 0 166 -31l-48 -233q-79 20 -133 20q-106 0 -167.5 -80t-61.5 -221v-516h-266v1047h248v-154q82 168 262 168zM328 1176l141 297h291l-197 -297h-235z" />
    <glyph glyph-name="uni0156" unicode="&#x156;" horiz-adv-x="1421" 
d="M838 1454q210 0 344.5 -128t134.5 -331q0 -159 -85.5 -274t-230.5 -160l371 -561h-319l-348 539h-269v-539h-286v1454h688zM436 776h350q114 0 181 57.5t67 161.5q0 106 -67 164t-181 58h-350v-441zM563 -528l135 188h-127v217h279v-217l-148 -188h-139z" />
    <glyph glyph-name="uni0157" unicode="&#x157;" horiz-adv-x="811" 
d="M627 1061q64 0 166 -31l-48 -233q-79 20 -133 20q-106 0 -167.5 -80t-61.5 -221v-516h-266v1047h248v-154q82 168 262 168zM102 -528l136 188h-127v217h278v-217l-147 -188h-140z" />
    <glyph glyph-name="Rcaron" unicode="&#x158;" horiz-adv-x="1421" 
d="M838 1454q210 0 344.5 -128t134.5 -331q0 -159 -85.5 -274t-230.5 -160l371 -561h-319l-348 539h-269v-539h-286v1454h688zM330 1880h225l152 -184l149 184h225l-209 -297h-333zM436 776h350q114 0 181 57.5t67 161.5q0 106 -67 164t-181 58h-350v-441z" />
    <glyph glyph-name="rcaron" unicode="&#x159;" horiz-adv-x="811" 
d="M627 1061q64 0 166 -31l-48 -233q-79 20 -133 20q-106 0 -167.5 -80t-61.5 -221v-516h-266v1047h248v-154q82 168 262 168zM74 1473h225l152 -185l149 185h225l-209 -297h-333z" />
    <glyph glyph-name="Sacute" unicode="&#x15a;" horiz-adv-x="1320" 
d="M653 1487q179 0 309.5 -51.5t272.5 -173.5l-168 -201q-125 105 -212.5 141.5t-207.5 36.5t-193 -50.5t-73 -127.5q0 -25 7.5 -44.5t18.5 -35t36.5 -29.5t47.5 -23.5t66.5 -22t79 -21t98.5 -23.5q93 -22 161 -43t129 -48t101.5 -58t70 -71.5t43 -90.5t13.5 -113
q0 -210 -156 -341.5t-419 -131.5q-192 0 -336.5 60.5t-308.5 207.5l172 203q146 -128 247.5 -174.5t231.5 -46.5q128 0 206.5 53t78.5 148q0 83 -83 125q-52 27 -215 64q-48 10 -71 16q-195 47 -303 104t-153.5 133.5t-45.5 194.5q0 186 154 310t401 124zM537 1583l141 297
h291l-197 -297h-235z" />
    <glyph glyph-name="sacute" unicode="&#x15b;" horiz-adv-x="1042" 
d="M518 1081q135 0 239 -36.5t212 -126.5l-144 -175q-92 71 -161 97t-152 26q-79 0 -127.5 -29t-48.5 -75q0 -45 43 -64.5t179 -49.5q15 -3 22 -5q223 -49 314 -120.5t91 -213.5q0 -154 -119 -248t-329 -94q-150 0 -266 44t-240 155l153 172q113 -92 189 -124t170 -32
q81 0 131.5 29t50.5 82q0 29 -15.5 49t-48 34t-69 23.5t-91.5 21.5q-22 4 -34 7q-222 50 -303.5 118.5t-81.5 207.5q0 140 116.5 233.5t319.5 93.5zM410 1176l141 297h291l-197 -297h-235z" />
    <glyph glyph-name="Scedilla" unicode="&#x15e;" horiz-adv-x="1320" 
d="M653 1487q179 0 309.5 -51.5t272.5 -173.5l-168 -201q-125 105 -212.5 141.5t-207.5 36.5t-193 -50.5t-73 -127.5q0 -25 7.5 -44.5t18.5 -35t36.5 -29.5t47.5 -23.5t66.5 -22t79 -21t98.5 -23.5q93 -22 161 -43t129 -48t101.5 -58t70 -71.5t43 -90.5t13.5 -113
q0 -202 -144.5 -332.5t-391.5 -140.5l-45 -100q98 -1 155.5 -49t57.5 -119q0 -88 -64.5 -142.5t-171.5 -54.5q-115 0 -233 80l69 107q92 -56 164 -56q40 0 66 17.5t26 46.5t-30.5 46t-71.5 17q-33 0 -57 -6l-70 64l70 153q-153 12 -279.5 73.5t-269.5 190.5l172 203
q146 -128 247.5 -174.5t231.5 -46.5q128 0 206.5 53t78.5 148q0 83 -83 125q-52 27 -215 64q-48 10 -71 16q-195 47 -303 104t-153.5 133.5t-45.5 194.5q0 186 154 310t401 124z" />
    <glyph glyph-name="scedilla" unicode="&#x15f;" horiz-adv-x="1042" 
d="M518 1081q135 0 239 -36.5t212 -126.5l-144 -175q-92 71 -161 97t-152 26q-79 0 -127.5 -29t-48.5 -75q0 -45 43 -64.5t179 -49.5q15 -3 22 -5q223 -49 314 -120.5t91 -213.5q0 -145 -107.5 -238.5t-299.5 -103.5l-48 -102q98 -1 155.5 -49t57.5 -119q0 -88 -64 -142.5
t-171 -54.5q-116 0 -234 80l70 107q92 -56 164 -56q40 0 66 17.5t26 46.5t-30.5 46t-71.5 17q-34 0 -58 -6l-69 64l71 155q-111 11 -208.5 56.5t-202.5 138.5l153 172q113 -92 189 -124t170 -32q81 0 131.5 29t50.5 82q0 29 -15.5 49t-48 34t-69 23.5t-91.5 21.5
q-22 4 -34 7q-222 50 -303.5 118.5t-81.5 207.5q0 140 116.5 233.5t319.5 93.5z" />
    <glyph glyph-name="Scaron" unicode="&#x160;" horiz-adv-x="1320" 
d="M653 1487q179 0 309.5 -51.5t272.5 -173.5l-168 -201q-125 105 -212.5 141.5t-207.5 36.5t-193 -50.5t-73 -127.5q0 -25 7.5 -44.5t18.5 -35t36.5 -29.5t47.5 -23.5t66.5 -22t79 -21t98.5 -23.5q93 -22 161 -43t129 -48t101.5 -58t70 -71.5t43 -90.5t13.5 -113
q0 -210 -156 -341.5t-419 -131.5q-192 0 -336.5 60.5t-308.5 207.5l172 203q146 -128 247.5 -174.5t231.5 -46.5q128 0 206.5 53t78.5 148q0 83 -83 125q-52 27 -215 64q-48 10 -71 16q-195 47 -303 104t-153.5 133.5t-45.5 194.5q0 186 154 310t401 124zM283 1880h225
l151 -184l150 184h225l-209 -297h-333z" />
    <glyph glyph-name="scaron" unicode="&#x161;" horiz-adv-x="1042" 
d="M518 1081q135 0 239 -36.5t212 -126.5l-144 -175q-92 71 -161 97t-152 26q-79 0 -127.5 -29t-48.5 -75q0 -45 43 -64.5t179 -49.5q15 -3 22 -5q223 -49 314 -120.5t91 -213.5q0 -154 -119 -248t-329 -94q-150 0 -266 44t-240 155l153 172q113 -92 189 -124t170 -32
q81 0 131.5 29t50.5 82q0 29 -15.5 49t-48 34t-69 23.5t-91.5 21.5q-22 4 -34 7q-222 50 -303.5 118.5t-81.5 207.5q0 140 116.5 233.5t319.5 93.5zM156 1473h225l151 -185l150 185h225l-209 -297h-333z" />
    <glyph glyph-name="uni0162" unicode="&#x162;" horiz-adv-x="1273" 
d="M1219 1454v-246h-439v-1208h-65l-62 -135q98 -1 155.5 -49t57.5 -119q0 -88 -64 -142.5t-171 -54.5q-116 0 -234 80l70 107q92 -56 164 -56q40 0 66 17.5t26 46.5t-30.5 46t-71.5 17q-34 0 -58 -6l-69 64l84 184h-84v1208h-439v246h1164z" />
    <glyph glyph-name="uni0163" unicode="&#x163;" horiz-adv-x="792" 
d="M487 303q0 -54 25 -75t80 -21q54 0 131 18l31 -211q-97 -32 -199 -39l-51 -110q98 -1 155.5 -49t57.5 -119q0 -88 -64.5 -142.5t-171.5 -54.5q-115 0 -233 80l69 107q92 -56 164 -56q40 0 66 17.5t26 46.5t-30.5 46t-71.5 17q-33 0 -57 -6l-70 64l78 168
q-105 21 -153 91.5t-48 194.5v574h-186v203h186v323h266v-323h250v-203h-250v-541z" />
    <glyph glyph-name="Tcaron" unicode="&#x164;" horiz-adv-x="1273" 
d="M1219 1454v-246h-439v-1208h-286v1208h-439v246h1164zM260 1880h225l152 -184l149 184h226l-209 -297h-334z" />
    <glyph glyph-name="tcaron" unicode="&#x165;" horiz-adv-x="792" 
d="M487 303q0 -54 25 -75t80 -21q54 0 131 18l31 -211q-116 -39 -236 -39q-157 0 -227 73t-70 222v574h-186v203h186v323h266v-323h250v-203h-250v-541zM625 1202l55 440h260l-152 -440h-163z" />
    <glyph glyph-name="Tbar" unicode="&#x166;" horiz-adv-x="1263" 
d="M487 0v647h-254v193h254v368h-432v246h1153v-246h-434v-368h258v-193h-258v-647h-287z" />
    <glyph glyph-name="tbar" unicode="&#x167;" horiz-adv-x="792" 
d="M518 -25q-157 0 -227 73t-70 222v179h-186v204h186v191h-186v203h186v323h266v-323h250v-203h-250v-191h250v-204h-250v-146q0 -54 25 -75t80 -21q54 0 131 18l31 -211q-116 -39 -236 -39z" />
    <glyph glyph-name="Utilde" unicode="&#x168;" horiz-adv-x="1445" 
d="M1307 492q0 -270 -153.5 -398.5t-430.5 -128.5t-430.5 128.5t-153.5 398.5v962h287v-952q0 -135 74 -209t223 -74q148 0 222.5 74t74.5 209v952h287v-962zM369 1587q0 127 62 195.5t151 68.5q56 0 108 -25t94.5 -50t75.5 -25t50.5 28.5t17.5 71.5h149q0 -128 -56 -196
t-144 -68q-50 0 -104.5 25.5t-102.5 50.5t-80 25t-51 -30t-19 -71h-151z" />
    <glyph glyph-name="utilde" unicode="&#x169;" horiz-adv-x="1155" 
d="M1038 1047v-1047h-243v111q-87 -144 -308 -144q-187 0 -278.5 90.5t-91.5 241.5v748h266v-674q0 -82 43.5 -128t130.5 -46q100 0 157.5 55.5t57.5 161.5v631h266zM211 1180q0 127 62 195.5t151 68.5q44 0 87 -16t70.5 -34.5t60.5 -34.5t60 -16q33 0 50.5 29t17.5 72h150
q0 -128 -56.5 -196t-144.5 -68q-50 0 -104.5 25t-102.5 50t-80 25t-51 -29.5t-19 -70.5h-151z" />
    <glyph glyph-name="Umacron" unicode="&#x16a;" horiz-adv-x="1445" 
d="M1307 492q0 -270 -153.5 -398.5t-430.5 -128.5t-430.5 128.5t-153.5 398.5v962h287v-952q0 -135 74 -209t223 -74q148 0 222.5 74t74.5 209v952h287v-962zM395 1618v192h656v-192h-656z" />
    <glyph glyph-name="umacron" unicode="&#x16b;" horiz-adv-x="1155" 
d="M1038 1047v-1047h-243v111q-87 -144 -308 -144q-187 0 -278.5 90.5t-91.5 241.5v748h266v-674q0 -82 43.5 -128t130.5 -46q100 0 157.5 55.5t57.5 161.5v631h266zM238 1210v193h655v-193h-655z" />
    <glyph glyph-name="Uring" unicode="&#x16e;" horiz-adv-x="1445" 
d="M1307 492q0 -270 -153.5 -398.5t-430.5 -128.5t-430.5 128.5t-153.5 398.5v962h287v-952q0 -135 74 -209t223 -74q148 0 222.5 74t74.5 209v952h287v-962zM471 1696q0 98 73.5 167.5t176.5 69.5t176.5 -69.5t73.5 -167.5q0 -99 -73.5 -169.5t-176.5 -70.5t-176.5 70.5
t-73.5 169.5zM598 1696q0 -55 35 -90t88 -35t88 35t35 90q0 54 -35 88.5t-88 34.5t-88 -34.5t-35 -88.5z" />
    <glyph glyph-name="uring" unicode="&#x16f;" horiz-adv-x="1155" 
d="M1038 1047v-1047h-243v111q-87 -144 -308 -144q-187 0 -278.5 90.5t-91.5 241.5v748h266v-674q0 -82 43.5 -128t130.5 -46q100 0 157.5 55.5t57.5 161.5v631h266zM315 1411q0 98 73.5 168t176.5 70t176.5 -70t73.5 -168q0 -99 -73.5 -169.5t-176.5 -70.5t-176.5 70.5
t-73.5 169.5zM442 1411q0 -55 35 -90t88 -35t88 35t35 90q0 54 -35 88.5t-88 34.5t-88 -34.5t-35 -88.5z" />
    <glyph glyph-name="Uhungarumlaut" unicode="&#x170;" horiz-adv-x="1445" 
d="M1307 492q0 -270 -153.5 -398.5t-430.5 -128.5t-430.5 128.5t-153.5 398.5v962h287v-952q0 -135 74 -209t223 -74q148 0 222.5 74t74.5 209v952h287v-962zM451 1583l141 307h248l-201 -307h-188zM799 1583l141 307h248l-201 -307h-188z" />
    <glyph glyph-name="uhungarumlaut" unicode="&#x171;" horiz-adv-x="1155" 
d="M1038 1047v-1047h-243v111q-87 -144 -308 -144q-187 0 -278.5 90.5t-91.5 241.5v748h266v-674q0 -82 43.5 -128t130.5 -46q100 0 157.5 55.5t57.5 161.5v631h266zM293 1176l141 307h248l-201 -307h-188zM641 1176l141 307h248l-201 -307h-188z" />
    <glyph glyph-name="Uogonek" unicode="&#x172;" horiz-adv-x="1445" 
d="M1020 1454h287v-958q0 -118 -27 -203t-75.5 -144t-133.5 -120q-186 -135 -186 -240q0 -35 25.5 -54.5t72.5 -19.5q29 0 61 9v-154q-36 -16 -100 -16q-122 0 -184 53t-62 137q0 115 99 223q-25 -2 -74 -2q-277 0 -430.5 128.5t-153.5 398.5v962h287v-952q0 -135 74 -209
t223 -74q148 0 222.5 74t74.5 209v952z" />
    <glyph glyph-name="uogonek" unicode="&#x173;" horiz-adv-x="1155" 
d="M1038 1047v-1047q-176 -109 -176 -211q0 -35 27 -54.5t74 -19.5q27 0 59 9v-154q-36 -16 -100 -16q-122 0 -183 52t-61 136q0 67 31.5 129t115.5 129h-30v111q-87 -144 -308 -144q-187 0 -278.5 90.5t-91.5 241.5v748h266v-674q0 -82 43.5 -128t130.5 -46
q100 0 157.5 55.5t57.5 161.5v631h266z" />
    <glyph glyph-name="Wcircumflex" unicode="&#x174;" horiz-adv-x="1988" 
d="M1937 1454l-352 -1454h-330l-143 561q-74 298 -117 502q-61 -275 -118 -502l-144 -561h-327l-355 1454h291l145 -627q61 -262 97 -475q73 331 112 475l166 627h279l162 -627q50 -188 110 -483q59 329 96 483l146 627h282zM618 1583l209 297h334l209 -297h-225l-150 184
l-151 -184h-226z" />
    <glyph glyph-name="wcircumflex" unicode="&#x175;" horiz-adv-x="1622" 
d="M1593 1047l-290 -1047h-316l-78 285q-46 172 -102 426q-50 -248 -96 -426l-74 -285h-318l-290 1047h280l84 -345q41 -161 101 -460q61 285 106 460l90 345h246l90 -345q54 -203 109 -464q64 320 100 464l84 345h274zM438 1176l209 297h334l209 -297h-225l-150 184
l-151 -184h-226z" />
    <glyph glyph-name="Ycircumflex" unicode="&#x176;" horiz-adv-x="1345" 
d="M1329 1454l-514 -844v-610h-287v612l-512 842h316l346 -590l346 590h305zM297 1583l209 297h334l209 -297h-226l-149 184l-152 -184h-225z" />
    <glyph glyph-name="ycircumflex" unicode="&#x177;" horiz-adv-x="1067" 
d="M643 -117q-52 -152 -135.5 -217t-226.5 -65q-114 0 -201 26l45 199q66 -12 123 -12q123 0 166 131l-394 1102h279l92 -275q109 -330 150 -471q98 326 145 473l90 273h271zM158 1176l209 297h333l209 -297h-225l-149 184l-152 -184h-225z" />
    <glyph glyph-name="Ydieresis" unicode="&#x178;" horiz-adv-x="1345" 
d="M1329 1454l-514 -844v-610h-287v612l-512 842h316l346 -590l346 590h305zM344 1612v250h256v-250h-256zM748 1612v250h256v-250h-256z" />
    <glyph glyph-name="Zacute" unicode="&#x179;" horiz-adv-x="1312" 
d="M1223 1454v-235l-789 -977h787v-242h-1131v236l789 976h-760v242h1104zM557 1583l141 297h291l-196 -297h-236z" />
    <glyph glyph-name="zacute" unicode="&#x17a;" horiz-adv-x="1019" 
d="M938 1047v-201l-539 -629h539v-217h-868v201l542 630h-510v216h836zM383 1176l141 297h291l-197 -297h-235z" />
    <glyph glyph-name="Zdotaccent" unicode="&#x17b;" horiz-adv-x="1312" 
d="M1223 1454v-235l-789 -977h787v-242h-1131v236l789 976h-760v242h1104zM547 1612v250h266v-250h-266z" />
    <glyph glyph-name="zdotaccent" unicode="&#x17c;" horiz-adv-x="1019" 
d="M938 1047v-201l-539 -629h539v-217h-868v201l542 630h-510v216h836zM373 1204v250h266v-250h-266z" />
    <glyph glyph-name="Zcaron" unicode="&#x17d;" horiz-adv-x="1312" 
d="M1223 1454v-235l-789 -977h787v-242h-1131v236l789 976h-760v242h1104zM303 1880h225l152 -184l149 184h226l-209 -297h-334z" />
    <glyph glyph-name="zcaron" unicode="&#x17e;" horiz-adv-x="1019" 
d="M938 1047v-201l-539 -629h539v-217h-868v201l542 630h-510v216h836zM129 1473h225l152 -185l149 185h226l-209 -297h-334z" />
    <glyph glyph-name="florin" unicode="&#x192;" horiz-adv-x="1208" 
d="M709 985h243v-203h-243v-829q0 -182 -82 -267t-244 -85q-116 0 -215 30l47 199q69 -14 117 -14q59 0 84.5 30.5t25.5 100.5v835h-211v203h211v100q0 170 87.5 255t252.5 85q117 0 224 -36l-48 -199q-73 16 -122 16q-65 0 -96 -31t-31 -104v-86z" />
    <glyph glyph-name="Ohorn" unicode="&#x1a0;" horiz-adv-x="1579" 
d="M791 1489q138 0 251 -35h74q48 0 66 27.5t18 109.5h211q0 -124 -28 -187.5t-93 -88.5q107 -103 162 -254t55 -334q0 -217 -85 -389t-249 -272.5t-382 -100.5q-164 0 -300 58.5t-227.5 160.5t-141.5 241.5t-50 301.5t50 301.5t141.5 241.5t227.5 160.5t300 58.5zM367 727
q0 -231 116 -369.5t308 -138.5t306.5 138t114.5 370q0 231 -114.5 369.5t-306.5 138.5t-308 -139t-116 -369z" />
    <glyph glyph-name="ohorn" unicode="&#x1a1;" horiz-adv-x="1214" 
d="M608 1081q112 0 205 -34h49q48 0 66 27.5t18 109.5h203q0 -130 -28.5 -194t-98.5 -89q129 -148 129 -377q0 -248 -152 -402.5t-391 -154.5q-240 0 -392.5 154.5t-152.5 402.5t152.5 402.5t392.5 154.5zM334 524q0 -152 74.5 -241.5t199.5 -89.5q124 0 198.5 89.5
t74.5 241.5q0 150 -75 241t-198 91q-124 0 -199 -90.5t-75 -241.5z" />
    <glyph glyph-name="Uhorn" unicode="&#x1af;" horiz-adv-x="1445" 
d="M1307 492q0 -270 -153.5 -398.5t-430.5 -128.5t-430.5 128.5t-153.5 398.5v962h287v-952q0 -135 74 -209t223 -74q148 0 222.5 74t74.5 209v952h188q48 0 66 27.5t18 109.5h203q0 -154 -41.5 -217.5t-146.5 -77.5v-804z" />
    <glyph glyph-name="uhorn" unicode="&#x1b0;" horiz-adv-x="1155" 
d="M117 299v748h266v-674q0 -82 43.5 -128t130.5 -46q100 0 157.5 55.5t57.5 161.5v631h195q48 0 66 27.5t18 109.5h202q0 -163 -46 -225.5t-169 -73.5v-885h-243v111q-87 -144 -308 -144q-187 0 -278.5 90.5t-91.5 241.5z" />
    <glyph glyph-name="uni0218" unicode="&#x218;" horiz-adv-x="1320" 
d="M653 1487q179 0 309.5 -51.5t272.5 -173.5l-168 -201q-125 105 -212.5 141.5t-207.5 36.5t-193 -50.5t-73 -127.5q0 -25 7.5 -44.5t18.5 -35t36.5 -29.5t47.5 -23.5t66.5 -22t79 -21t98.5 -23.5q93 -22 161 -43t129 -48t101.5 -58t70 -71.5t43 -90.5t13.5 -113
q0 -210 -156 -341.5t-419 -131.5q-192 0 -336.5 60.5t-308.5 207.5l172 203q146 -128 247.5 -174.5t231.5 -46.5q128 0 206.5 53t78.5 148q0 83 -83 125q-52 27 -215 64q-48 10 -71 16q-195 47 -303 104t-153.5 133.5t-45.5 194.5q0 186 154 310t401 124zM512 -528l135 188
h-127v217h279v-217l-148 -188h-139z" />
    <glyph glyph-name="uni0219" unicode="&#x219;" horiz-adv-x="1042" 
d="M518 1081q135 0 239 -36.5t212 -126.5l-144 -175q-92 71 -161 97t-152 26q-79 0 -127.5 -29t-48.5 -75q0 -45 43 -64.5t179 -49.5q15 -3 22 -5q223 -49 314 -120.5t91 -213.5q0 -154 -119 -248t-329 -94q-150 0 -266 44t-240 155l153 172q113 -92 189 -124t170 -32
q81 0 131.5 29t50.5 82q0 29 -15.5 49t-48 34t-69 23.5t-91.5 21.5q-22 4 -34 7q-222 50 -303.5 118.5t-81.5 207.5q0 140 116.5 233.5t319.5 93.5zM371 -528l135 188h-127v217h278v-217l-147 -188h-139z" />
    <glyph glyph-name="uni021A" unicode="&#x21a;" horiz-adv-x="1273" 
d="M1219 1454v-246h-439v-1208h-286v1208h-439v246h1164zM494 -528l135 188h-127v217h278v-217l-147 -188h-139z" />
    <glyph glyph-name="uni021B" unicode="&#x21b;" horiz-adv-x="792" 
d="M487 303q0 -54 25 -75t80 -21q54 0 131 18l31 -211q-116 -39 -236 -39q-157 0 -227 73t-70 222v574h-186v203h186v323h266v-323h250v-203h-250v-541zM344 -528l135 188h-127v217h279v-217l-148 -188h-139z" />
    <glyph glyph-name="uni0237" unicode="&#x237;" horiz-adv-x="507" 
d="M-102 -162q69 -14 116 -14q59 0 85 30.5t26 100.5v1092h266v-1086q0 -182 -81.5 -267t-243.5 -85q-114 0 -216 31z" />
    <glyph glyph-name="circumflex" unicode="&#x2c6;" horiz-adv-x="956" 
d="M629 1176l-150 184l-151 -184h-226l209 297h334l209 -297h-225z" />
    <glyph glyph-name="caron" unicode="&#x2c7;" horiz-adv-x="956" 
d="M854 1473l-209 -297h-334l-209 297h226l151 -185l150 185h225z" />
    <glyph glyph-name="breve" unicode="&#x2d8;" horiz-adv-x="876" 
d="M438 1155q-146 0 -241 78t-95 225h185q0 -66 39.5 -103.5t111.5 -37.5q73 0 112.5 38t39.5 103h184q0 -147 -95 -225t-241 -78z" />
    <glyph glyph-name="dotaccent" unicode="&#x2d9;" horiz-adv-x="471" 
d="M369 1454v-250h-267v250h267z" />
    <glyph glyph-name="ring" unicode="&#x2da;" horiz-adv-x="704" 
d="M352 1649q103 0 176.5 -70t73.5 -168q0 -99 -73.5 -169.5t-176.5 -70.5t-176.5 70.5t-73.5 169.5q0 98 73.5 168t176.5 70zM229 1411q0 -55 35 -90t88 -35t88 35t35 90q0 54 -35 88.5t-88 34.5t-88 -34.5t-35 -88.5z" />
    <glyph glyph-name="ogonek" unicode="&#x2db;" horiz-adv-x="565" 
d="M463 0q-176 -109 -176 -211q0 -35 26.5 -54.5t73.5 -19.5q27 0 59 9v-154q-36 -16 -100 -16q-122 0 -183 52t-61 136q0 78 46 152t169 155z" />
    <glyph glyph-name="tilde" unicode="&#x2dc;" horiz-adv-x="913" 
d="M315 1444q44 0 87 -16t71 -34.5t61 -34.5t60 -16q33 0 50.5 29t17.5 72h149q0 -128 -56.5 -196t-144.5 -68q-50 0 -104.5 25t-102 50t-79.5 25t-51 -29.5t-19 -70.5h-152q0 127 62 195.5t151 68.5z" />
    <glyph glyph-name="hungarumlaut" unicode="&#x2dd;" horiz-adv-x="942" 
d="M840 1483l-201 -307h-188l141 307h248zM102 1176l142 307h248l-201 -307h-189z" />
    <glyph glyph-name="gravecomb" unicode="&#x300;" 
d="M164 1473h291l141 -297h-236z" />
    <glyph glyph-name="acutecomb" unicode="&#x301;" 
d="M612 1473l-196 -297h-236l142 297h290z" />
    <glyph glyph-name="uni0302" unicode="&#x302;" 
d="M680 1176l-150 184l-151 -184h-225l208 297h334l209 -297h-225z" />
    <glyph glyph-name="tildecomb" unicode="&#x303;" 
d="M412 1444q44 0 87 -16t70.5 -34.5t60.5 -34.5t60 -16q33 0 50.5 29t17.5 72h149q0 -128 -56 -196t-144 -68q-50 0 -104.5 25t-102.5 50t-80 25t-51 -29.5t-19 -70.5h-151q0 127 62 195.5t151 68.5z" />
    <glyph glyph-name="uni0304" unicode="&#x304;" 
d="M827 1403v-193h-655v193h655z" />
    <glyph glyph-name="uni0306" unicode="&#x306;" 
d="M535 1155q-146 0 -241 78t-95 225h184q0 -65 39.5 -103t112.5 -38q72 0 111.5 37.5t39.5 103.5h184q0 -147 -94.5 -225t-240.5 -78z" />
    <glyph glyph-name="uni0307" unicode="&#x307;" 
d="M471 1454v-250h-266v250h266z" />
    <glyph glyph-name="uni0308" unicode="&#x308;" 
d="M862 1454v-250h-256v250h256zM203 1204v250h256v-250h-256z" />
    <glyph glyph-name="hookabovecomb" unicode="&#x309;" 
d="M102 1483q68 20 154 20q100 0 154.5 -44.5t54.5 -121.5q0 -72 -54 -127.5t-137 -81.5l-67 86q92 49 92 95q0 26 -18 36.5t-60 10.5q-52 0 -98 -17z" />
    <glyph glyph-name="uni030A" unicode="&#x30a;" 
d="M469 1649q103 0 176.5 -70t73.5 -168q0 -99 -73.5 -169.5t-176.5 -70.5t-176.5 70.5t-73.5 169.5q0 98 73.5 168t176.5 70zM346 1411q0 -55 35 -90t88 -35t88 35t35 90q0 54 -35 88.5t-88 34.5t-88 -34.5t-35 -88.5z" />
    <glyph glyph-name="uni030B" unicode="&#x30b;" 
d="M928 1483l-201 -307h-188l141 307h248zM190 1176l142 307h248l-201 -307h-189z" />
    <glyph glyph-name="uni030C" unicode="&#x30c;" 
d="M940 1473l-209 -297h-334l-209 297h226l151 -185l150 185h225z" />
    <glyph glyph-name="uni031B" unicode="&#x31b;" 
d="M102 883v164h52q48 0 66 27.5t18 109.5h202q0 -96 -14 -153.5t-50.5 -91t-89.5 -45t-141 -11.5h-43z" />
    <glyph glyph-name="dotbelowcomb" unicode="&#x323;" 
d="M369 -119v-250h-267v250h267z" />
    <glyph glyph-name="uni0326" unicode="&#x326;" 
d="M492 -123v-217l-148 -188h-139l135 188h-127v217h279z" />
    <glyph glyph-name="uni0327" unicode="&#x327;" 
d="M418 43l117 -43l-62 -135q98 -1 155.5 -49t57.5 -119q0 -88 -64 -142.5t-171 -54.5q-116 0 -234 80l70 107q92 -56 164 -56q40 0 66 17.5t26 46.5t-31 46t-72 17q-33 0 -57 -6l-70 64z" />
    <glyph glyph-name="uni0328" unicode="&#x328;" 
d="M594 0q-176 -109 -176 -211q0 -35 26.5 -54.5t73.5 -19.5q28 0 60 9v-154q-36 -16 -101 -16q-122 0 -183 52t-61 136q0 77 46.5 151.5t169.5 155.5z" />
    <glyph glyph-name="uni037E" unicode="&#x37e;" horiz-adv-x="577" 
d="M457 297v-297l-164 -303h-150l144 303h-137v297h307zM154 750v297h290v-297h-290z" />
    <glyph glyph-name="tonos" unicode="&#x384;" horiz-adv-x="776" 
d="M436 1186h-227l76 305h288z" />
    <glyph glyph-name="dieresistonos" unicode="&#x385;" horiz-adv-x="1038" 
d="M410 1200l36 291h261l-107 -291h-190zM119 1200v217h235v-217h-235zM721 1200v217h233v-217h-233z" />
    <glyph glyph-name="Alphatonos" unicode="&#x386;" horiz-adv-x="1458" 
d="M20 0l521 1454h377l520 -1454h-297l-99 291h-632l-101 -291h-289zM-2 1149l76 305h288l-137 -305h-227zM492 528h469l-58 168q-147 429 -178 537q-39 -134 -178 -541z" />
    <glyph glyph-name="anoteleia" unicode="&#x387;" horiz-adv-x="495" 
d="M393 827v-297h-291v297h291z" />
    <glyph glyph-name="Epsilontonos" unicode="&#x388;" horiz-adv-x="1286" 
d="M1171 1454v-242h-735v-340h688v-241h-688v-389h758v-242h-1044v1454h1021zM-279 1149l76 305h289l-137 -305h-228z" />
    <glyph glyph-name="Etatonos" unicode="&#x389;" horiz-adv-x="1515" 
d="M1372 1454v-1454h-287v643h-649v-643h-286v1454h286v-569h649v569h287zM-279 1149l76 305h289l-137 -305h-228z" />
    <glyph glyph-name="Iotatonos" unicode="&#x38a;" horiz-adv-x="610" 
d="M451 1454v-1454h-287v1454h287zM-279 1149l76 305h289l-137 -305h-228z" />
    <glyph glyph-name="Omicrontonos" unicode="&#x38c;" horiz-adv-x="1574" 
d="M791 1489q218 0 382 -100.5t249 -272.5t85 -389t-85 -389t-249 -272.5t-382 -100.5q-164 0 -300 58.5t-227.5 160.5t-141.5 241.5t-50 301.5t50 301.5t141.5 241.5t227.5 160.5t300 58.5zM-203 1149l76 305h289l-137 -305h-228zM367 727q0 -231 116 -369.5t308 -138.5
t306.5 138t114.5 370q0 231 -114.5 369.5t-306.5 138.5t-308 -139t-116 -369z" />
    <glyph glyph-name="Upsilontonos" unicode="&#x38e;" horiz-adv-x="1339" 
d="M1329 1454l-514 -844v-610h-287v612l-512 842h316l346 -590l346 590h305zM-373 1149l76 305h289l-137 -305h-228z" />
    <glyph glyph-name="Omegatonos" unicode="&#x38f;" horiz-adv-x="1574" 
d="M76 0v242h223q-225 176 -225 501q0 213 85 381.5t248.5 266.5t380.5 98t381 -98t249 -266.5t85 -381.5q0 -325 -225 -501h221v-242h-575v242q284 132 284 497q0 227 -114 361.5t-306 134.5q-191 0 -306 -134.5t-115 -361.5q0 -365 284 -497v-242h-575zM-203 1149l76 305
h289l-137 -305h-228z" />
    <glyph glyph-name="iotadieresistonos" unicode="&#x390;" horiz-adv-x="499" 
d="M383 0h-266v1047h266v-1047zM-150 1200v217h236v-217h-236zM141 1200l37 291h260l-106 -291h-191zM453 1200v217h233v-217h-233z" />
    <glyph glyph-name="Alpha" unicode="&#x391;" horiz-adv-x="1458" 
d="M20 0l521 1454h377l520 -1454h-297l-99 291h-632l-101 -291h-289zM492 528h469l-58 168q-147 429 -178 537q-39 -134 -178 -541z" />
    <glyph glyph-name="Beta" unicode="&#x392;" horiz-adv-x="1398" 
d="M842 1454q193 0 315.5 -98t122.5 -277q0 -119 -60.5 -199.5t-164.5 -115.5q276 -85 276 -354q0 -191 -122 -300.5t-328 -109.5h-731v1454h692zM436 221h342q131 0 198.5 55.5t67.5 155.5q0 99 -68.5 156t-197.5 57h-342v-424zM436 868h336q111 0 170 50t59 139
q0 176 -227 176h-338v-365z" />
    <glyph glyph-name="Gamma" unicode="&#x393;" horiz-adv-x="1181" 
d="M1126 1212h-690v-1212h-286v1454h976v-242z" />
    <glyph glyph-name="uni0394" unicode="&#x394;" horiz-adv-x="1458" 
d="M541 1454h377l522 -1454h-1420zM389 238h672l-156 458q-127 367 -182 553q-54 -200 -178 -557z" />
    <glyph glyph-name="Epsilon" unicode="&#x395;" horiz-adv-x="1288" 
d="M1171 1454v-242h-735v-340h688v-241h-688v-389h758v-242h-1044v1454h1021z" />
    <glyph glyph-name="Zeta" unicode="&#x396;" horiz-adv-x="1312" 
d="M1223 1454v-235l-789 -977h787v-242h-1131v236l789 976h-760v242h1104z" />
    <glyph glyph-name="Eta" unicode="&#x397;" horiz-adv-x="1521" 
d="M1372 1454v-1454h-287v643h-649v-643h-286v1454h286v-569h649v569h287z" />
    <glyph glyph-name="Theta" unicode="&#x398;" horiz-adv-x="1595" 
d="M799 1489q219 0 385 -98t254 -270.5t88 -393.5t-88 -393.5t-254 -270.5t-385 -98t-385.5 98t-255 270.5t-88.5 393.5t88.5 393.5t255 270.5t385.5 98zM367 727q0 -232 117.5 -370t314.5 -138q196 0 313 138t117 370q0 231 -117 369.5t-313 138.5t-314 -139t-118 -369z
M516 631v235h561v-235h-561z" />
    <glyph glyph-name="Iota" unicode="&#x399;" horiz-adv-x="614" 
d="M451 1454v-1454h-287v1454h287z" />
    <glyph glyph-name="Kappa" unicode="&#x39a;" horiz-adv-x="1425" 
d="M1393 1454l-537 -561l567 -893h-325l-434 690l-228 -237v-453h-286v1454h286v-651l600 651h357z" />
    <glyph glyph-name="Lambda" unicode="&#x39b;" horiz-adv-x="1363" 
d="M1341 0h-297l-223 696q-70 222 -143 482q-60 -222 -141 -478l-222 -700h-292l481 1454h358z" />
    <glyph glyph-name="Mu" unicode="&#x39c;" horiz-adv-x="1865" 
d="M1716 1454v-1454h-278v737q0 2 6 494q-40 -149 -150 -494l-233 -737h-250l-238 737q-21 66 -53.5 167t-57 177.5t-44.5 143.5q6 -243 6 -488v-737h-274v1454h450l191 -592q96 -305 147 -495q51 206 145 495l189 592h444z" />
    <glyph glyph-name="Nu" unicode="&#x39d;" horiz-adv-x="1525" 
d="M1376 1454v-1454h-305l-369 590q-222 359 -286 477q12 -255 12 -565v-502h-278v1454h311l391 -627q201 -327 256 -426q-10 192 -10 525v528h278z" />
    <glyph glyph-name="Xi" unicode="&#x39e;" horiz-adv-x="1355" 
d="M94 0v256h1168v-256h-1168zM113 1198v256h1130v-256h-1130zM188 625v254h979v-254h-979z" />
    <glyph glyph-name="Omicron" unicode="&#x39f;" horiz-adv-x="1579" 
d="M791 1489q218 0 382 -100.5t249 -272.5t85 -389t-85 -389t-249 -272.5t-382 -100.5q-164 0 -300 58.5t-227.5 160.5t-141.5 241.5t-50 301.5t50 301.5t141.5 241.5t227.5 160.5t300 58.5zM367 727q0 -231 116 -369.5t308 -138.5t306.5 138t114.5 370q0 231 -114.5 369.5
t-306.5 138.5t-308 -139t-116 -369z" />
    <glyph glyph-name="Pi" unicode="&#x3a0;" horiz-adv-x="1495" 
d="M1346 0h-287v1212h-623v-1212h-286v1454h1196v-1454z" />
    <glyph glyph-name="Rho" unicode="&#x3a1;" horiz-adv-x="1396" 
d="M850 1454q219 0 349 -125.5t130 -333.5t-130 -332t-349 -124h-414v-539h-286v1454h700zM436 776h363q114 0 179.5 57t65.5 162q0 106 -65.5 164t-179.5 58h-363v-441z" />
    <glyph glyph-name="Sigma" unicode="&#x3a3;" horiz-adv-x="1261" 
d="M106 1212v242h1065v-242h-718l391 -464l-416 -506h752v-242h-1090v236l416 509z" />
    <glyph glyph-name="Tau" unicode="&#x3a4;" horiz-adv-x="1273" 
d="M1219 1454v-246h-439v-1208h-286v1208h-439v246h1164z" />
    <glyph glyph-name="Upsilon" unicode="&#x3a5;" horiz-adv-x="1345" 
d="M1329 1454l-514 -844v-610h-287v612l-512 842h316l346 -590l346 590h305z" />
    <glyph glyph-name="Phi" unicode="&#x3a6;" horiz-adv-x="1746" 
d="M729 -16v131q-159 11 -285 61t-208 131.5t-125 190.5t-43 239q0 265 172 433.5t489 189.5v110h289v-110q317 -21 489 -189.5t172 -433.5q0 -130 -43 -239t-125 -190.5t-208 -131.5t-285 -61v-131h-289zM356 737q0 -172 97.5 -272.5t279.5 -122.5v788
q-182 -20 -279.5 -120.5t-97.5 -272.5zM1014 344q180 20 277.5 120.5t97.5 272.5q0 171 -97 271t-278 122v-786z" />
    <glyph glyph-name="Chi" unicode="&#x3a7;" horiz-adv-x="1443" 
d="M1049 1454h319l-475 -684l530 -770h-321l-381 563l-383 -563h-318l529 772l-473 682h323l326 -481z" />
    <glyph glyph-name="Psi" unicode="&#x3a8;" horiz-adv-x="1738" 
d="M725 0v295q-312 15 -452 157t-140 410v592h287v-584q0 -156 73 -233t232 -92v909h287v-909q159 15 232 92t73 233v584h287v-592q0 -268 -140 -411t-452 -156v-295h-287z" />
    <glyph glyph-name="uni03A9" unicode="&#x3a9;" horiz-adv-x="1574" 
d="M76 0v242h223q-225 176 -225 501q0 213 85 381.5t248.5 266.5t380.5 98t381 -98t249 -266.5t85 -381.5q0 -325 -225 -501h221v-242h-575v242q284 132 284 497q0 227 -114 361.5t-306 134.5q-191 0 -306 -134.5t-115 -361.5q0 -365 284 -497v-242h-575z" />
    <glyph glyph-name="Iotadieresis" unicode="&#x3aa;" horiz-adv-x="614" 
d="M451 1454v-1454h-287v1454h287zM-23 1612v250h256v-250h-256zM381 1612v250h256v-250h-256z" />
    <glyph glyph-name="Upsilondieresis" unicode="&#x3ab;" horiz-adv-x="1345" 
d="M1329 1454l-514 -844v-610h-287v612l-512 842h316l346 -590l346 590h305zM344 1612v250h256v-250h-256zM748 1612v250h256v-250h-256z" />
    <glyph glyph-name="alphatonos" unicode="&#x3ac;" horiz-adv-x="1228" 
d="M528 -31q-204 0 -334.5 151.5t-130.5 401.5q0 251 131 403t334 152q226 0 336 -166v136h248v-1047h-248v137q-111 -168 -336 -168zM334 522q0 -149 69.5 -238t188.5 -89q115 0 188.5 89.5t73.5 237.5q0 150 -74.5 238t-187.5 88q-115 0 -186.5 -89t-71.5 -237zM475 1186
l76 305h289l-138 -305h-227z" />
    <glyph glyph-name="epsilontonos" unicode="&#x3ad;" horiz-adv-x="1081" 
d="M563 -33q-249 0 -374.5 81.5t-125.5 238.5q0 88 50.5 158t156.5 108q-82 38 -124 98.5t-42 136.5q0 138 128 215.5t343 77.5q150 0 257.5 -35.5t220.5 -127.5l-142 -173q-87 66 -162 95.5t-167 29.5q-106 0 -156.5 -32t-50.5 -80q0 -55 44.5 -86t135.5 -31h166v-188h-164
q-223 0 -223 -134q0 -129 229 -129q205 0 352 127l144 -167q-110 -96 -228 -139.5t-268 -43.5zM481 1186l76 305h289l-137 -305h-228z" />
    <glyph glyph-name="etatonos" unicode="&#x3ae;" horiz-adv-x="1167" 
d="M680 1081q179 0 277 -100t98 -264v-1086h-267v1010q0 101 -50 156t-144 55q-93 0 -152 -60.5t-59 -158.5v-633h-266v1047h248v-117q108 151 315 151zM471 1186l76 305h289l-138 -305h-227z" />
    <glyph glyph-name="iotatonos" unicode="&#x3af;" horiz-adv-x="499" 
d="M383 0h-266v1047h266v-1047zM141 1186l76 305h289l-137 -305h-228z" />
    <glyph glyph-name="upsilondieresistonos" unicode="&#x3b0;" horiz-adv-x="1146" 
d="M573 -33q-233 0 -346.5 116t-113.5 320v644h266v-623q0 -112 44 -171.5t148 -59.5q107 0 152 59t45 172v623h266v-644q0 -204 -113.5 -320t-347.5 -116zM174 1200v217h236v-217h-236zM465 1200l37 291h260l-107 -291h-190zM776 1200v217h234v-217h-234z" />
    <glyph glyph-name="alpha" unicode="&#x3b1;" horiz-adv-x="1228" 
d="M528 -31q-204 0 -334.5 151.5t-130.5 401.5q0 251 131 403t334 152q226 0 336 -166v136h248v-1047h-248v137q-111 -168 -336 -168zM334 522q0 -149 69.5 -238t188.5 -89q115 0 188.5 89.5t73.5 237.5q0 150 -74.5 238t-187.5 88q-115 0 -186.5 -89t-71.5 -237z" />
    <glyph glyph-name="beta" unicode="&#x3b2;" horiz-adv-x="1228" 
d="M117 989q0 234 134.5 365t356.5 131q228 0 353.5 -109t125.5 -278q0 -117 -53.5 -196.5t-142.5 -117.5q131 -43 201.5 -141t70.5 -242q0 -189 -127 -309.5t-346 -120.5q-201 0 -307 144v-484h-266v1358zM383 516q0 -148 76 -234.5t196 -86.5q108 0 172 63.5t64 167.5
q0 109 -69.5 166t-186.5 57h-107v217h109q85 0 136.5 57.5t51.5 143.5q0 90 -56.5 141.5t-158.5 51.5q-105 0 -166 -76t-61 -203v-465z" />
    <glyph glyph-name="gamma" unicode="&#x3b3;" horiz-adv-x="1071" 
d="M406 -369v369l-388 1047h281l113 -338q57 -168 129 -412q56 201 123 410l112 340h277l-381 -1047v-369h-266z" />
    <glyph glyph-name="delta" unicode="&#x3b4;" horiz-adv-x="1204" 
d="M602 -33q-239 0 -391 145.5t-152 372.5q0 125 49 233t145 180t222 81h29l-322 272v203h838v-215h-459l326 -276q258 -218 258 -478q0 -106 -38 -200.5t-107 -165t-172 -111.5t-226 -41zM330 487q0 -53 16.5 -104t48.5 -94t85.5 -69.5t121.5 -26.5q128 0 200 86t72 208
q0 54 -16 105.5t-48 95.5t-85 71t-121 27q-129 0 -201.5 -88t-72.5 -211z" />
    <glyph glyph-name="epsilon" unicode="&#x3b5;" horiz-adv-x="1081" 
d="M563 -33q-249 0 -374.5 81.5t-125.5 238.5q0 88 50.5 158t156.5 108q-82 38 -124 98.5t-42 136.5q0 138 128 215.5t343 77.5q150 0 257.5 -35.5t220.5 -127.5l-142 -173q-87 66 -162 95.5t-167 29.5q-106 0 -156.5 -32t-50.5 -80q0 -55 44.5 -86t135.5 -31h166v-188h-164
q-223 0 -223 -134q0 -129 229 -129q205 0 352 127l144 -167q-110 -96 -228 -139.5t-268 -43.5z" />
    <glyph glyph-name="zeta" unicode="&#x3b6;" horiz-adv-x="1024" 
d="M659 -233q105 98 105 161q0 32 -21.5 52t-68.5 20h-117q-97 0 -185 26.5t-158 77.5t-111.5 133.5t-41.5 186.5q0 107 28.5 207.5t74.5 181.5t115 161t137.5 140.5t154.5 124.5h-440v215h815v-199q-143 -100 -245.5 -188t-190 -190.5t-132 -213.5t-44.5 -229
q0 -104 65.5 -156.5t175.5 -52.5h127q135 0 214 -64t79 -179q0 -53 -18.5 -104.5t-52.5 -97.5t-62.5 -77t-68.5 -68z" />
    <glyph glyph-name="eta" unicode="&#x3b7;" horiz-adv-x="1167" 
d="M680 1081q179 0 277 -100t98 -264v-1086h-267v1010q0 101 -50 156t-144 55q-93 0 -152 -60.5t-59 -158.5v-633h-266v1047h248v-117q108 151 315 151z" />
    <glyph glyph-name="theta" unicode="&#x3b8;" horiz-adv-x="1218" 
d="M1133 729q0 -103 -7 -183t-25.5 -166.5t-56.5 -159t-96 -128.5q-132 -125 -338 -125q-208 0 -340 125q-109 107 -146.5 263.5t-37.5 373.5t37.5 373.5t146.5 263.5q132 125 340 125q206 0 338 -125q58 -56 96 -128.5t56.5 -159t25.5 -166.5t7 -183zM354 637
q0 -256 88 -367q64 -77 168 -77q105 0 166 77q78 103 86 367h-508zM354 836h508q-8 248 -86 352q-61 78 -166 78q-103 0 -168 -78q-80 -101 -88 -352z" />
    <glyph glyph-name="iota" unicode="&#x3b9;" horiz-adv-x="499" 
d="M383 0h-266v1047h266v-1047z" />
    <glyph glyph-name="kappa" unicode="&#x3ba;" horiz-adv-x="1124" 
d="M117 0v1047h266v-443l399 443h303l-366 -402l403 -645h-295l-290 465l-154 -160v-305h-266z" />
    <glyph glyph-name="lambda" unicode="&#x3bb;" horiz-adv-x="1064" 
d="M670 305q-26 77 -127 400q-52 -163 -135 -400l-111 -305h-281l406 1047l-35 102q-43 125 -160 125q-47 0 -125 -19l-49 205q91 31 205 31q139 0 221.5 -64.5t136.5 -218.5l433 -1208h-275z" />
    <glyph glyph-name="uni03BC" unicode="&#x3bc;" horiz-adv-x="1155" 
d="M1038 0h-241v131q-80 -164 -250 -164q-99 0 -164 49v-391h-266v1422h266v-674q0 -172 184 -172q94 0 149.5 54.5t55.5 160.5v631h266v-1047z" />
    <glyph glyph-name="nu" unicode="&#x3bd;" horiz-adv-x="1067" 
d="M1051 1047l-357 -1047h-323l-355 1047h281l104 -342q97 -320 136 -476q54 215 133 476l104 342h277z" />
    <glyph glyph-name="xi" unicode="&#x3be;" horiz-adv-x="1024" 
d="M659 -233q105 98 105 161q0 32 -21.5 52t-68.5 20h-117q-141 0 -252 46t-177.5 139.5t-66.5 220.5q0 147 73 240.5t194 129.5q-79 31 -127.5 96t-48.5 152q0 30 7.5 60.5t24.5 63.5t50.5 60.5t80.5 42.5h-219v203h850v-215h-268q-119 0 -186.5 -48.5t-67.5 -146.5
q0 -82 51.5 -130t134.5 -48h283v-215h-281q-128 0 -203 -55.5t-75 -169.5q0 -104 66 -152.5t175 -48.5h127q135 0 214 -64t79 -179q0 -53 -18.5 -104.5t-52.5 -97.5t-62.5 -77t-68.5 -68z" />
    <glyph glyph-name="omicron" unicode="&#x3bf;" horiz-adv-x="1214" 
d="M608 1081q239 0 391 -154.5t152 -402.5t-152 -402.5t-391 -154.5q-240 0 -392.5 154.5t-152.5 402.5t152.5 402.5t392.5 154.5zM334 524q0 -152 74.5 -241.5t199.5 -89.5q124 0 198.5 89.5t74.5 241.5q0 150 -75 241t-198 91q-124 0 -199 -90.5t-75 -241.5z" />
    <glyph glyph-name="pi" unicode="&#x3c0;" horiz-adv-x="1302" 
d="M1227 840h-176v-539q0 -53 21.5 -74.5t66.5 -21.5q38 0 108 16l25 -209q-101 -35 -203 -35q-159 0 -222 73.5t-63 230.5v559h-303v-840h-266v840h-186v207h1198v-207z" />
    <glyph glyph-name="rho" unicode="&#x3c1;" horiz-adv-x="1218" 
d="M109 524q0 250 140 403.5t372 153.5q238 0 386 -154.5t148 -402.5q0 -251 -129.5 -402t-333.5 -151q-207 0 -317 138v-478h-266v893zM365 526q0 -149 75 -237t187 -88q117 0 188.5 88t71.5 237q0 148 -73 239t-193 91q-118 0 -187 -90t-69 -240z" />
    <glyph glyph-name="uni03C2" unicode="&#x3c2;" horiz-adv-x="1073" 
d="M602 -233q4 5 17 17.5t17 17.5t14.5 16t14.5 16.5t11.5 15t10.5 16t6.5 15.5t5 17t1.5 16q0 29 -29.5 49t-115.5 45q-109 33 -193 76t-153 106t-106 151.5t-37 199.5q0 245 146.5 392.5t383.5 147.5q129 0 233 -44.5t207 -151.5l-164 -166q-86 80 -147 108.5t-127 28.5
q-84 0 -145 -46t-89 -116.5t-28 -154.5q0 -218 250 -295q48 -15 72.5 -23.5t68 -25.5t67 -30.5t54.5 -36t47 -45t27.5 -54t11.5 -66.5q0 -47 -18 -94.5t-52 -92t-62.5 -74.5t-68.5 -67z" />
    <glyph glyph-name="sigma" unicode="&#x3c3;" horiz-adv-x="1236" 
d="M1208 1047v-216h-229q160 -114 160 -321q0 -240 -149 -391.5t-388 -151.5q-241 0 -392 153.5t-151 393.5t150 386.5t393 146.5h606zM330 514q0 -141 74 -231t198 -90q123 0 196.5 90.5t73.5 230.5q0 143 -73 230t-197 87q-125 0 -198.5 -86.5t-73.5 -230.5z" />
    <glyph glyph-name="tau" unicode="&#x3c4;" horiz-adv-x="923" 
d="M594 313q0 -60 25.5 -82t80.5 -22q51 0 127 18l33 -213q-118 -39 -231 -39q-162 0 -231.5 70.5t-69.5 220.5v565h-301v216h868v-216h-301v-518z" />
    <glyph glyph-name="upsilon" unicode="&#x3c5;" horiz-adv-x="1146" 
d="M573 -33q-233 0 -346.5 116t-113.5 320v644h266v-623q0 -112 44 -171.5t148 -59.5q107 0 152 59t45 172v623h266v-644q0 -204 -113.5 -320t-347.5 -116z" />
    <glyph glyph-name="phi" unicode="&#x3c6;" horiz-adv-x="1540" 
d="M635 -33q-276 9 -426 149.5t-150 395.5q0 75 10 136.5t37 126t72.5 116.5t120.5 101.5t176 88.5l84 -217q-56 -25 -97.5 -55.5t-66 -62.5t-39 -72t-19.5 -77.5t-5 -84.5q0 -157 73.5 -237.5t229.5 -84.5v494q0 196 107 296.5t278 100.5q206 0 333.5 -144t127.5 -398
q0 -270 -154 -417t-424 -155v-336h-268v336zM903 190q307 12 307 349q0 153 -50.5 235t-139.5 82q-62 0 -89.5 -47.5t-27.5 -140.5v-478z" />
    <glyph glyph-name="chi" unicode="&#x3c7;" horiz-adv-x="1075" 
d="M10 -369l381 697l-371 719h287l230 -465l245 465h279l-373 -693l377 -723h-287l-237 471l-248 -471h-283z" />
    <glyph glyph-name="psi" unicode="&#x3c8;" horiz-adv-x="1581" 
d="M657 -369v340q-275 9 -410.5 142t-135.5 415v519h266v-519q0 -169 64.5 -246.5t215.5 -84.5v1175h267v-1175q151 9 214.5 85.5t63.5 245.5v519h268v-519q0 -282 -135 -414t-411 -143v-340h-267z" />
    <glyph glyph-name="omega" unicode="&#x3c9;" horiz-adv-x="1538" 
d="M1208 494q0 133 -54.5 226.5t-184.5 143.5l82 217q230 -83 329 -227.5t99 -355.5q0 -109 -26.5 -204.5t-75.5 -168.5t-125.5 -115.5t-170.5 -42.5q-119 0 -201 57.5t-110 159.5q-31 -102 -112.5 -159.5t-198.5 -57.5q-95 0 -172 42.5t-126 115.5t-75.5 168.5t-26.5 204.5
q0 211 99 355.5t329 227.5l82 -217q-129 -50 -183 -143.5t-54 -226.5q0 -134 43.5 -217.5t118.5 -83.5q72 0 106.5 54.5t34.5 168.5v299h268v-299q0 -223 144 -223q74 0 117.5 83.5t43.5 217.5z" />
    <glyph glyph-name="iotadieresis" unicode="&#x3ca;" horiz-adv-x="499" 
d="M383 0h-266v1047h266v-1047zM-80 1204v250h256v-250h-256zM324 1204v250h256v-250h-256z" />
    <glyph glyph-name="upsilondieresis" unicode="&#x3cb;" horiz-adv-x="1146" 
d="M573 -33q-233 0 -346.5 116t-113.5 320v644h266v-623q0 -112 44 -171.5t148 -59.5q107 0 152 59t45 172v623h266v-644q0 -204 -113.5 -320t-347.5 -116zM244 1204v250h256v-250h-256zM647 1204v250h256v-250h-256z" />
    <glyph glyph-name="omicrontonos" unicode="&#x3cc;" horiz-adv-x="1204" 
d="M608 1081q239 0 391 -154.5t152 -402.5t-152 -402.5t-391 -154.5q-240 0 -392.5 154.5t-152.5 402.5t152.5 402.5t392.5 154.5zM334 524q0 -152 74.5 -241.5t199.5 -89.5q124 0 198.5 89.5t74.5 241.5q0 150 -75 241t-198 91q-124 0 -199 -90.5t-75 -241.5zM485 1186
l76 305h289l-137 -305h-228z" />
    <glyph glyph-name="upsilontonos" unicode="&#x3cd;" horiz-adv-x="1146" 
d="M573 -33q-233 0 -346.5 116t-113.5 320v644h266v-623q0 -112 44 -171.5t148 -59.5q107 0 152 59t45 172v623h266v-644q0 -204 -113.5 -320t-347.5 -116zM465 1186l76 305h288l-137 -305h-227z" />
    <glyph glyph-name="omegatonos" unicode="&#x3ce;" horiz-adv-x="1538" 
d="M1208 494q0 133 -54.5 226.5t-184.5 143.5l82 217q230 -83 329 -227.5t99 -355.5q0 -109 -26.5 -204.5t-75.5 -168.5t-125.5 -115.5t-170.5 -42.5q-119 0 -201 57.5t-110 159.5q-31 -102 -112.5 -159.5t-198.5 -57.5q-95 0 -172 42.5t-126 115.5t-75.5 168.5t-26.5 204.5
q0 211 99 355.5t329 227.5l82 -217q-129 -50 -183 -143.5t-54 -226.5q0 -134 43.5 -217.5t118.5 -83.5q72 0 106.5 54.5t34.5 168.5v299h268v-299q0 -223 144 -223q74 0 117.5 83.5t43.5 217.5zM666 1186l75 305h289l-137 -305h-227z" />
    <glyph glyph-name="uni0401" unicode="&#x401;" horiz-adv-x="1288" 
d="M1171 1454v-242h-735v-340h688v-241h-688v-389h758v-242h-1044v1454h1021zM342 1612v250h256v-250h-256zM745 1612v250h256v-250h-256z" />
    <glyph glyph-name="uni0402" unicode="&#x402;" horiz-adv-x="1679" 
d="M938 227q85 -14 145 -14q215 0 215 231q0 122 -77.5 180t-208.5 58q-160 0 -293 -47v-635h-287v1212h-377v242h1123v-242h-459v-333q156 55 330 55q269 0 403.5 -128t134.5 -353q0 -214 -125 -347t-356 -133q-82 0 -207 23z" />
    <glyph glyph-name="uni0403" unicode="&#x403;" horiz-adv-x="1181" 
d="M1126 1212h-690v-1212h-286v1454h976v-242zM539 1583l141 297h291l-197 -297h-235z" />
    <glyph glyph-name="uni0404" unicode="&#x404;" horiz-adv-x="1386" 
d="M797 1489q164 0 287.5 -51t254.5 -166l-168 -199q-109 94 -194 129t-184 35q-168 0 -279.5 -98t-144.5 -269h610v-239h-617q25 -192 137.5 -303t288.5 -111q110 0 197 42t209 144l168 -194q-136 -129 -268.5 -186.5t-298.5 -57.5t-303 58t-228.5 160.5t-141.5 243
t-50 304.5q0 216 83.5 386t249.5 271t392 101z" />
    <glyph glyph-name="uni0405" unicode="&#x405;" horiz-adv-x="1320" 
d="M653 1487q179 0 309.5 -51.5t272.5 -173.5l-168 -201q-125 105 -212.5 141.5t-207.5 36.5t-193 -50.5t-73 -127.5q0 -25 7.5 -44.5t18.5 -35t36.5 -29.5t47.5 -23.5t66.5 -22t79 -21t98.5 -23.5q93 -22 161 -43t129 -48t101.5 -58t70 -71.5t43 -90.5t13.5 -113
q0 -210 -156 -341.5t-419 -131.5q-192 0 -336.5 60.5t-308.5 207.5l172 203q146 -128 247.5 -174.5t231.5 -46.5q128 0 206.5 53t78.5 148q0 83 -83 125q-52 27 -215 64q-48 10 -71 16q-195 47 -303 104t-153.5 133.5t-45.5 194.5q0 186 154 310t401 124z" />
    <glyph glyph-name="uni0406" unicode="&#x406;" horiz-adv-x="614" 
d="M451 1454v-1454h-287v1454h287z" />
    <glyph glyph-name="uni0407" unicode="&#x407;" horiz-adv-x="614" 
d="M451 1454v-1454h-287v1454h287zM-23 1612v250h256v-250h-256zM381 1612v250h256v-250h-256z" />
    <glyph glyph-name="uni0408" unicode="&#x408;" horiz-adv-x="968" 
d="M829 389q0 -110 -32.5 -192t-91.5 -131t-137 -73t-175 -24q-96 0 -198.5 24.5t-184.5 63.5l84 230q88 -32 151 -47t132 -15q166 0 166 197v1032h286v-1065z" />
    <glyph glyph-name="uni0409" unicode="&#x409;" horiz-adv-x="2295" 
d="M1747 918q223 0 358.5 -124t135.5 -335t-135.5 -335t-358.5 -124h-651v1212h-500l-4 -606q-1 -126 -10.5 -218t-35.5 -173t-69 -130t-111.5 -77t-162.5 -28q-89 0 -166 22l29 242q54 -8 98 -8q28 0 50.5 6t38.5 21t28 31.5t19.5 47t12 56t7 71t3.5 80.5t1 94l4 811h1054
v-536h365zM1382 238h318q119 0 187.5 56.5t68.5 164.5t-68.5 164.5t-187.5 56.5h-318v-442z" />
    <glyph glyph-name="uni040A" unicode="&#x40a;" horiz-adv-x="2285" 
d="M150 0v1454h286v-557h649v557h287v-557h373q220 0 352.5 -120.5t132.5 -327.5q0 -208 -132.5 -328.5t-352.5 -120.5h-660v659h-649v-659h-286zM1372 238h326q115 0 181.5 54t66.5 157t-66 156.5t-182 53.5h-326v-421z" />
    <glyph glyph-name="uni040B" unicode="&#x40b;" horiz-adv-x="1703" 
d="M719 0h-287v1212h-377v242h1123v-242h-459v-331q150 53 328 53q147 0 251.5 -34.5t164.5 -100.5t87 -151.5t27 -198.5v-449h-289v449q0 127 -69.5 180t-206.5 53q-171 0 -293 -49v-633z" />
    <glyph glyph-name="uni040C" unicode="&#x40c;" horiz-adv-x="1441" 
d="M1100 0l-443 643h-221v-643h-286v1454h286v-569h226l419 569h326l-510 -684l530 -770h-327zM594 1583l141 297h291l-197 -297h-235z" />
    <glyph glyph-name="uni040E" unicode="&#x40e;" horiz-adv-x="1323" 
d="M387 -31q-93 0 -201 31l54 240q82 -19 131 -19q35 0 61 7t55 33t48 71l8 18l-529 1104h299l365 -795l350 795h283l-539 -1182q-37 -83 -69.5 -134.5t-77 -92.5t-102 -58.5t-136.5 -17.5zM295 1866q0 -80 28 -139.5t78.5 -94.5t115.5 -52t145 -17q108 0 187.5 29t129 98.5
t49.5 175.5h-211q0 -142 -155 -142q-156 0 -156 142h-211z" />
    <glyph glyph-name="uni040F" unicode="&#x40f;" horiz-adv-x="1480" 
d="M150 1454h286v-1212h608v1212h287v-1454h-452v-324h-279v324h-450v1454z" />
    <glyph glyph-name="uni0410" unicode="&#x410;" horiz-adv-x="1458" 
d="M20 0l521 1454h377l520 -1454h-297l-99 291h-632l-101 -291h-289zM492 528h469l-58 168q-147 429 -178 537q-39 -134 -178 -541z" />
    <glyph glyph-name="uni0411" unicode="&#x411;" horiz-adv-x="1347" 
d="M150 0v1454h1036v-242h-750v-315h371q220 0 352.5 -121t132.5 -327t-132.5 -327.5t-352.5 -121.5h-657zM436 238h324q115 0 180.5 53.5t65.5 157.5q0 103 -65.5 156.5t-180.5 53.5h-324v-421z" />
    <glyph glyph-name="uni0412" unicode="&#x412;" horiz-adv-x="1398" 
d="M842 1454q193 0 315.5 -98t122.5 -277q0 -119 -60.5 -199.5t-164.5 -115.5q276 -85 276 -354q0 -191 -122 -300.5t-328 -109.5h-731v1454h692zM436 221h342q131 0 198.5 55.5t67.5 155.5q0 99 -68.5 156t-197.5 57h-342v-424zM436 868h336q111 0 170 50t59 139
q0 176 -227 176h-338v-365z" />
    <glyph glyph-name="uni0413" unicode="&#x413;" horiz-adv-x="1181" 
d="M1126 1212h-690v-1212h-286v1454h976v-242z" />
    <glyph glyph-name="uni0414" unicode="&#x414;" horiz-adv-x="1617" 
d="M594 889q-4 -275 -38.5 -418.5t-88.5 -228.5h620v970h-489zM43 -303v545h129q32 48 54.5 93t47.5 121t38 187.5t14 253.5l4 557h1044v-1212h178v-545h-278v303h-952v-303h-279z" />
    <glyph glyph-name="uni0415" unicode="&#x415;" horiz-adv-x="1288" 
d="M1171 1454v-242h-735v-340h688v-241h-688v-389h758v-242h-1044v1454h1021z" />
    <glyph glyph-name="uni0416" unicode="&#x416;" horiz-adv-x="2152" 
d="M1804 0l-403 643h-187v-643h-276v643h-186l-404 -643h-334l496 774l-471 680h326l385 -569h188v569h276v-569h189l385 569h326l-472 -680l496 -774h-334z" />
    <glyph glyph-name="uni0417" unicode="&#x417;" horiz-adv-x="1357" 
d="M670 -35q-174 0 -325 54.5t-292 187.5l166 196q108 -96 210.5 -142t242.5 -46q143 0 229 56.5t86 166.5q0 191 -285 191h-274v231h262q145 0 202.5 47.5t57.5 136.5q0 87 -74 141t-200 54q-125 0 -214 -38.5t-198 -129.5l-168 199q133 115 269.5 167t306.5 52
q264 0 411.5 -113t147.5 -307q0 -108 -56 -188t-161 -123q126 -43 192 -127t66 -205q0 -212 -161.5 -336.5t-440.5 -124.5z" />
    <glyph glyph-name="uni0418" unicode="&#x418;" horiz-adv-x="1525" 
d="M150 1454h278v-528q0 -376 -12 -578q101 196 270 475l379 631h311v-1454h-278v502q0 360 14 618q-92 -173 -301 -524l-356 -596h-305v1454z" />
    <glyph glyph-name="uni0419" unicode="&#x419;" horiz-adv-x="1525" 
d="M150 1454h278v-528q0 -376 -12 -578q101 196 270 475l379 631h311v-1454h-278v502q0 360 14 618q-92 -173 -301 -524l-356 -596h-305v1454zM397 1866q0 -80 28 -139.5t78.5 -94.5t115.5 -52t145 -17q108 0 187.5 29t129 98.5t49.5 175.5h-210q0 -142 -156 -142t-156 142
h-211z" />
    <glyph glyph-name="uni041A" unicode="&#x41a;" horiz-adv-x="1441" 
d="M1100 0l-443 643h-221v-643h-286v1454h286v-569h226l419 569h326l-510 -684l530 -770h-327z" />
    <glyph glyph-name="uni041B" unicode="&#x41b;" horiz-adv-x="1531" 
d="M203 -20q-89 0 -166 22l29 242q54 -8 98 -8q28 0 50.5 6t38.5 21t28 31.5t19.5 47t12 56t7 71t3.5 80.5t1 94l4 811h1054v-1454h-286v1212h-500l-4 -606q-1 -126 -10.5 -218t-35.5 -173t-69 -130t-111.5 -77t-162.5 -28z" />
    <glyph glyph-name="uni041C" unicode="&#x41c;" horiz-adv-x="1865" 
d="M1716 1454v-1454h-278v737q0 2 6 494q-40 -149 -150 -494l-233 -737h-250l-238 737q-21 66 -53.5 167t-57 177.5t-44.5 143.5q6 -243 6 -488v-737h-274v1454h450l191 -592q96 -305 147 -495q51 206 145 495l189 592h444z" />
    <glyph glyph-name="uni041D" unicode="&#x41d;" horiz-adv-x="1521" 
d="M1372 1454v-1454h-287v643h-649v-643h-286v1454h286v-569h649v569h287z" />
    <glyph glyph-name="uni041E" unicode="&#x41e;" horiz-adv-x="1579" 
d="M791 1489q218 0 382 -100.5t249 -272.5t85 -389t-85 -389t-249 -272.5t-382 -100.5q-164 0 -300 58.5t-227.5 160.5t-141.5 241.5t-50 301.5t50 301.5t141.5 241.5t227.5 160.5t300 58.5zM367 727q0 -231 116 -369.5t308 -138.5t306.5 138t114.5 370q0 231 -114.5 369.5
t-306.5 138.5t-308 -139t-116 -369z" />
    <glyph glyph-name="uni041F" unicode="&#x41f;" horiz-adv-x="1495" 
d="M1346 0h-287v1212h-623v-1212h-286v1454h1196v-1454z" />
    <glyph glyph-name="uni0420" unicode="&#x420;" horiz-adv-x="1396" 
d="M850 1454q219 0 349 -125.5t130 -333.5t-130 -332t-349 -124h-414v-539h-286v1454h700zM436 776h363q114 0 179.5 57t65.5 162q0 106 -65.5 164t-179.5 58h-363v-441z" />
    <glyph glyph-name="uni0421" unicode="&#x421;" horiz-adv-x="1390" 
d="M801 1489q164 0 287.5 -51t254.5 -166l-167 -199q-109 94 -193.5 129t-183.5 35q-199 0 -316.5 -138.5t-117.5 -369.5q0 -233 118 -372.5t312 -139.5q110 0 195 41.5t208 144.5l168 -194q-136 -129 -268.5 -186.5t-298.5 -57.5q-167 0 -304.5 58t-229.5 160.5t-142.5 243
t-50.5 304.5q0 161 49 299t140.5 240.5t230 160.5t309.5 58z" />
    <glyph glyph-name="uni0422" unicode="&#x422;" horiz-adv-x="1273" 
d="M1219 1454v-246h-439v-1208h-286v1208h-439v246h1164z" />
    <glyph glyph-name="uni0423" unicode="&#x423;" horiz-adv-x="1323" 
d="M387 -31q-93 0 -201 31l54 240q82 -19 131 -19q35 0 61 7t55 33t48 71l8 18l-529 1104h299l365 -795l350 795h283l-539 -1182q-37 -83 -69.5 -134.5t-77 -92.5t-102 -58.5t-136.5 -17.5z" />
    <glyph glyph-name="uni0424" unicode="&#x424;" horiz-adv-x="1912" 
d="M1114 1376q333 0 530 -171t197 -468t-197 -468t-530 -171h-18v-170h-279v170h-18q-333 0 -530 171t-197 468t197 468t530 171h18v150h279v-150h18zM362 737q0 -197 115.5 -301t321.5 -104h22v811h-22q-206 0 -321.5 -104.5t-115.5 -301.5zM1092 332h22q206 0 321 104
t115 301t-115.5 301.5t-320.5 104.5h-22v-811z" />
    <glyph glyph-name="uni0425" unicode="&#x425;" horiz-adv-x="1443" 
d="M1049 1454h319l-475 -684l530 -770h-321l-381 563l-383 -563h-318l529 772l-473 682h323l326 -481z" />
    <glyph glyph-name="uni0426" unicode="&#x426;" horiz-adv-x="1574" 
d="M150 1454h286v-1212h608v1212h287v-1212h178v-545h-276v303h-1083v1454z" />
    <glyph glyph-name="uni0427" unicode="&#x427;" horiz-adv-x="1406" 
d="M971 1454h286v-1454h-286v563q-150 -53 -328 -53q-147 0 -251 34.5t-164 100.5t-86.5 151.5t-26.5 198.5v459h286v-459q0 -127 69.5 -180t207.5 -53q171 0 293 49v643z" />
    <glyph glyph-name="uni0428" unicode="&#x428;" horiz-adv-x="2170" 
d="M2021 1454v-1454h-1871v1454h286v-1212h506v1212h287v-1212h506v1212h286z" />
    <glyph glyph-name="uni0429" unicode="&#x429;" horiz-adv-x="2265" 
d="M1923 -303v303h-1773v1454h286v-1212h506v1212h287v-1212h506v1212h286v-1212h179v-545h-277z" />
    <glyph glyph-name="uni042A" unicode="&#x42a;" horiz-adv-x="1630" 
d="M430 0v1212h-375v242h662v-536h364q223 0 358.5 -124t135.5 -335t-135.5 -335t-358.5 -124h-651zM717 238h317q119 0 187.5 56.5t68.5 164.5t-68.5 164.5t-187.5 56.5h-317v-442z" />
    <glyph glyph-name="uni042B" unicode="&#x42b;" horiz-adv-x="1888" 
d="M150 0v1454h286v-536h365q223 0 358 -124t135 -335t-135 -335t-358 -124h-651zM436 238h318q119 0 187.5 56.5t68.5 164.5t-68.5 164.5t-187.5 56.5h-318v-442zM1452 0v1454h287v-1454h-287z" />
    <glyph glyph-name="uni042C" unicode="&#x42c;" horiz-adv-x="1349" 
d="M150 0v1454h286v-536h365q223 0 358 -124t135 -335t-135 -335t-358 -124h-651zM436 238h318q119 0 187.5 56.5t68.5 164.5t-68.5 164.5t-187.5 56.5h-318v-442z" />
    <glyph glyph-name="uni042D" unicode="&#x42d;" horiz-adv-x="1386" 
d="M590 1489q226 0 392 -101t249.5 -271t83.5 -386q0 -164 -50 -304.5t-141.5 -243t-228.5 -160.5t-303 -58t-298.5 57.5t-268.5 186.5l168 194q123 -103 209 -144.5t196 -41.5q176 0 288.5 111t137.5 303h-616v239h610q-33 171 -144.5 269t-279.5 98q-99 0 -184.5 -35
t-194.5 -129l-168 199q130 115 254.5 166t288.5 51z" />
    <glyph glyph-name="uni042E" unicode="&#x42e;" horiz-adv-x="2152" 
d="M1364 1489q164 0 299.5 -58.5t226.5 -160.5t141 -241.5t50 -301.5t-50 -301.5t-141 -241.5t-226.5 -160.5t-299.5 -58.5q-152 0 -280.5 50t-218.5 139.5t-145.5 211t-70.5 265.5h-211v-631h-288v1454h288v-582h217q42 276 231 446.5t478 170.5zM940 727
q0 -231 116 -369.5t308 -138.5t307 138t115 370q0 230 -115 369t-307 139t-308 -139t-116 -369z" />
    <glyph glyph-name="uni042F" unicode="&#x42f;" horiz-adv-x="1417" 
d="M1268 1454v-1454h-279v528h-219l-391 -528h-320l410 541q-164 34 -263.5 155.5t-99.5 294.5q0 204 134.5 333.5t345.5 129.5h682zM389 991q0 -105 67 -164t181 -59h352v449h-352q-114 0 -181 -60t-67 -166z" />
    <glyph glyph-name="uni0430" unicode="&#x430;" horiz-adv-x="1146" 
d="M453 -35q-77 0 -143 17t-119 52t-83 94t-30 136q0 70 25 127t65 95t101 68t122 47.5t139 31.5l246 45v24q0 76 -52.5 118t-143.5 42q-98 0 -163.5 -38.5t-162.5 -131.5l-168 154q100 119 218 177t271 58q220 0 337.5 -101.5t117.5 -272.5v-707h-239v109
q-103 -144 -338 -144zM338 283q0 -49 42.5 -77t117.5 -28q53 0 100.5 13.5t88.5 41.5t65 78t24 115v61l-176 -36q-134 -28 -198 -64t-64 -104z" />
    <glyph glyph-name="uni0431" unicode="&#x431;" horiz-adv-x="1202" 
d="M614 -29q-256 0 -400 170.5t-144 495.5q0 187 30.5 323.5t102.5 244t198.5 168.5t309.5 77l350 31l22 -252l-348 -29q-112 -9 -184.5 -29.5t-127.5 -65t-83.5 -117.5t-38.5 -185q52 92 152.5 145t220.5 53q219 0 342 -135t123 -366q0 -240 -148 -384.5t-377 -144.5z
M342 492q0 -137 72 -216t194 -79q121 0 190.5 79t69.5 216q0 129 -69 207.5t-189 78.5t-194 -79t-74 -207z" />
    <glyph glyph-name="uni0432" unicode="&#x432;" horiz-adv-x="1161" 
d="M694 1047q163 0 266 -73.5t103 -207.5q0 -84 -47 -143t-127 -88q96 -27 148.5 -89t52.5 -155q0 -133 -93 -212t-260 -79h-616v1047h573zM383 203h268q89 0 128.5 29.5t39.5 89.5q0 116 -170 116h-266v-235zM383 618h260q156 0 156 117q0 113 -154 113h-262v-230z" />
    <glyph glyph-name="uni0433" unicode="&#x433;" horiz-adv-x="903" 
d="M862 831h-475v-831h-266v1047h741v-216z" />
    <glyph glyph-name="uni0434" unicode="&#x434;" horiz-adv-x="1290" 
d="M37 -256v471h104q117 133 119 434l4 398h834v-832h147v-471h-258v256h-692v-256h-258zM416 215h415v616h-325l-4 -194q-5 -314 -86 -422z" />
    <glyph glyph-name="uni0435" unicode="&#x435;" horiz-adv-x="1148" 
d="M612 -33q-253 0 -401 150t-148 401q0 162 62 289t183 200.5t282 73.5q236 0 362.5 -138.5t126.5 -383.5q0 -58 -4 -104h-751q18 -121 91 -191.5t203 -70.5q88 0 150.5 30.5t161.5 112.5l149 -164q-111 -113 -222 -159t-245 -46zM330 645h489q-8 106 -69 166.5t-168 60.5
q-102 0 -165.5 -60.5t-86.5 -166.5z" />
    <glyph glyph-name="uni0436" unicode="&#x436;" horiz-adv-x="1701" 
d="M1688 0h-297l-279 438h-133v-438h-256v438h-133l-281 -438h-295l361 559l-324 488h287l250 -394h135v394h256v-394h135l250 394h287l-324 -488z" />
    <glyph glyph-name="uni0437" unicode="&#x437;" horiz-adv-x="1064" 
d="M516 -41q-144 0 -264 47t-232 144l146 169q169 -137 352 -137q105 0 160 37.5t55 99.5t-49.5 87.5t-161.5 25.5h-174v197h191q172 0 172 114q0 52 -46 90.5t-143 38.5q-165 0 -340 -135l-127 170q112 89 226.5 132.5t253.5 43.5q74 0 147.5 -17t140.5 -51.5t108.5 -96.5
t41.5 -142q0 -163 -172 -235q194 -64 194 -238q0 -154 -124.5 -249t-354.5 -95z" />
    <glyph glyph-name="uni0438" unicode="&#x438;" horiz-adv-x="1230" 
d="M862 348q0 279 8 440q-71 -136 -190 -337l-264 -451h-295v1047h248v-359q0 -246 -9 -428q107 199 189 336l266 451h295v-1047h-248v348z" />
    <glyph glyph-name="uni0439" unicode="&#x439;" horiz-adv-x="1230" 
d="M862 348q0 279 8 440q-71 -136 -190 -337l-264 -451h-295v1047h248v-359q0 -246 -9 -428q107 199 189 336l266 451h295v-1047h-248v348zM250 1458q0 -106 49.5 -175.5t129 -98.5t187.5 -29q80 0 145 17t115.5 52t78.5 94.5t28 139.5h-211q0 -141 -156 -141
q-155 0 -155 141h-211z" />
    <glyph glyph-name="uni043A" unicode="&#x43a;" horiz-adv-x="1155" 
d="M387 0h-266v1047h266v-394h162l272 394h287l-344 -488l381 -559h-299l-297 438h-162v-438z" />
    <glyph glyph-name="uni043B" unicode="&#x43b;" horiz-adv-x="1241" 
d="M190 -14q-89 0 -155 16l24 211q50 -6 78 -6q35 0 57 10t38 32t24 65.5t11.5 102t4.5 150.5l4 480h844v-1047h-266v831h-336l-4 -268q-1 -127 -10 -215.5t-30 -161t-58 -114.5t-92 -64t-134 -22z" />
    <glyph glyph-name="uni043C" unicode="&#x43c;" horiz-adv-x="1550" 
d="M121 0v1047h393l152 -426q65 -187 112 -351q47 165 113 351l156 426h383v-1047h-248v399q0 104 6 455q-56 -184 -107 -322l-190 -532h-238l-186 532q-81 232 -109 322q11 -218 11 -455v-399h-248z" />
    <glyph glyph-name="uni043D" unicode="&#x43d;" horiz-adv-x="1179" 
d="M1059 0h-266v438h-406v-438h-266v1047h266v-394h406v394h266v-1047z" />
    <glyph glyph-name="uni043E" unicode="&#x43e;" horiz-adv-x="1214" 
d="M608 1081q239 0 391 -154.5t152 -402.5t-152 -402.5t-391 -154.5q-240 0 -392.5 154.5t-152.5 402.5t152.5 402.5t392.5 154.5zM334 524q0 -152 74.5 -241.5t199.5 -89.5q124 0 198.5 89.5t74.5 241.5q0 150 -75 241t-198 91q-124 0 -199 -90.5t-75 -241.5z" />
    <glyph glyph-name="uni043F" unicode="&#x43f;" horiz-adv-x="1165" 
d="M121 0v1047h923v-1047h-266v831h-391v-831h-266z" />
    <glyph glyph-name="uni0440" unicode="&#x440;" horiz-adv-x="1226" 
d="M696 -29q-203 0 -313 138v-478h-266v1416h248v-138q113 168 333 168q203 0 333 -151.5t130 -401.5q0 -251 -131 -402t-334 -151zM373 524q0 -149 74 -235t188 -86q115 0 185.5 86.5t70.5 234.5q0 149 -68 236.5t-186 87.5q-117 0 -190.5 -87.5t-73.5 -236.5z" />
    <glyph glyph-name="uni0441" unicode="&#x441;" horiz-adv-x="1083" 
d="M877 719q-84 80 -145 108.5t-128 28.5q-127 0 -198.5 -94.5t-71.5 -237.5q0 -142 71 -235.5t197 -93.5q76 0 139 36t146 125l176 -147q-109 -135 -216 -188.5t-249 -53.5q-239 0 -387 150.5t-148 406.5t150.5 406.5t390.5 150.5q131 0 234.5 -44t203.5 -154z" />
    <glyph glyph-name="uni0442" unicode="&#x442;" horiz-adv-x="1036" 
d="M995 831h-344v-831h-266v831h-344v216h954v-216z" />
    <glyph glyph-name="uni0443" unicode="&#x443;" horiz-adv-x="1067" 
d="M643 -117q-52 -152 -135.5 -217t-226.5 -65q-114 0 -201 26l45 199q66 -12 123 -12q123 0 166 131l-394 1102h279l92 -275q109 -330 150 -471q98 326 145 473l90 273h271z" />
    <glyph glyph-name="uni0444" unicode="&#x444;" horiz-adv-x="1566" 
d="M1233 524q0 163 -85.5 249t-240.5 91v-682q155 5 240.5 91.5t85.5 250.5zM63 524q0 132 44.5 236.5t125 172t187.5 104.5t235 42v375h258v-375q128 -5 234.5 -42t186.5 -104.5t124.5 -172t44.5 -236.5q0 -106 -29 -195.5t-81.5 -154t-126.5 -110.5t-162.5 -69.5
t-190.5 -27.5v-336h-258v336q-128 5 -235 42t-187.5 105t-125 172.5t-44.5 237.5zM334 524q0 -164 86.5 -250.5t241.5 -91.5v682q-155 -5 -241.5 -91t-86.5 -249z" />
    <glyph glyph-name="uni0445" unicode="&#x445;" horiz-adv-x="1073" 
d="M10 0l377 549l-342 498h289l205 -308l200 308h287l-338 -488l375 -559h-293l-235 358l-238 -358h-287z" />
    <glyph glyph-name="uni0446" unicode="&#x446;" horiz-adv-x="1247" 
d="M944 -256v256h-823v1047h266v-832h401v832h267v-832h147v-471h-258z" />
    <glyph glyph-name="uni0447" unicode="&#x447;" horiz-adv-x="1130" 
d="M743 1047h267v-1047h-267v371q-114 -47 -256 -47q-213 0 -309 87t-96 265v371h266v-340q0 -84 43.5 -122t149.5 -38q126 0 202 33v467z" />
    <glyph glyph-name="uni0448" unicode="&#x448;" horiz-adv-x="1708" 
d="M1587 1047v-1047h-1466v1047h266v-830h334v830h266v-830h334v830h266z" />
    <glyph glyph-name="uni0449" unicode="&#x449;" horiz-adv-x="1779" 
d="M1477 -256v256h-1356v1047h266v-830h336v830h264v-830h334v830h266v-834h148v-469h-258z" />
    <glyph glyph-name="uni044A" unicode="&#x44a;" horiz-adv-x="1314" 
d="M328 0v831h-287v216h553v-312h258q188 0 300 -99t112 -269q0 -169 -112.5 -268t-299.5 -99h-524zM594 217h225q174 0 174 150q0 151 -174 151h-225v-301z" />
    <glyph glyph-name="uni044B" unicode="&#x44b;" horiz-adv-x="1552" 
d="M121 0v1047h266v-312h258q188 0 300 -99t112 -269q0 -169 -112.5 -268t-299.5 -99h-524zM387 217h225q174 0 174 150q0 151 -174 151h-225v-301zM1165 0v1047h267v-1047h-267z" />
    <glyph glyph-name="uni044C" unicode="&#x44c;" horiz-adv-x="1107" 
d="M121 0v1047h266v-312h258q188 0 300 -99t112 -269q0 -169 -112.5 -268t-299.5 -99h-524zM387 217h225q174 0 174 150q0 151 -174 151h-225v-301z" />
    <glyph glyph-name="uni044D" unicode="&#x44d;" horiz-adv-x="1083" 
d="M332 430v197h418q-21 105 -86.5 167t-171.5 62q-76 0 -137.5 -27.5t-147.5 -109.5l-166 164q100 110 203.5 154t234.5 44q240 0 390.5 -150.5t150.5 -406.5t-148 -406.5t-387 -150.5q-142 0 -249 53.5t-216 188.5l177 147q85 -91 148.5 -126t148.5 -35q106 0 172 64
t86 171h-420z" />
    <glyph glyph-name="uni044E" unicode="&#x44e;" horiz-adv-x="1705" 
d="M1100 1081q239 0 390.5 -154.5t151.5 -402.5t-151.5 -402.5t-390.5 -154.5q-220 0 -368 131t-173 348h-176v-446h-266v1047h266v-412h180q34 203 179.5 324.5t357.5 121.5zM825 524q0 -152 75 -241.5t200 -89.5q124 0 198 89.5t74 241.5q0 151 -74.5 241.5t-197.5 90.5
q-125 0 -200 -90.5t-75 -241.5z" />
    <glyph glyph-name="uni044F" unicode="&#x44f;" horiz-adv-x="1144" 
d="M768 0v336h-164l-260 -336h-303l289 358q-117 35 -181.5 123.5t-64.5 210.5q0 161 108 258t291 97h541v-1047h-256zM350 692q0 -64 42 -103.5t124 -39.5h252v285h-252q-82 0 -124 -39t-42 -103z" />
    <glyph glyph-name="uni0451" unicode="&#x451;" horiz-adv-x="1148" 
d="M612 -33q-253 0 -401 150t-148 401q0 162 62 289t183 200.5t282 73.5q236 0 362.5 -138.5t126.5 -383.5q0 -58 -4 -104h-751q18 -121 91 -191.5t203 -70.5q88 0 150.5 30.5t161.5 112.5l149 -164q-111 -113 -222 -159t-245 -46zM281 1204v250h256v-250h-256zM330 645h489
q-8 106 -69 166.5t-168 60.5q-102 0 -165.5 -60.5t-86.5 -166.5zM684 1204v250h256v-250h-256z" />
    <glyph glyph-name="uni0452" unicode="&#x452;" horiz-adv-x="1236" 
d="M799 -391q-113 0 -215 31l45 198q69 -14 116 -14q60 0 86.5 30.5t26.5 100.5v641q0 103 -50.5 159t-145.5 56q-91 0 -150 -61.5t-59 -159.5v-590h-267v1174h-151v163h151v117h267v-117h383v-163h-383v-265q108 131 297 131q179 0 276.5 -100t97.5 -264v-715
q0 -182 -81.5 -267t-243.5 -85z" />
    <glyph glyph-name="uni0453" unicode="&#x453;" horiz-adv-x="903" 
d="M862 831h-475v-831h-266v1047h741v-216zM332 1176l141 297h291l-197 -297h-235z" />
    <glyph glyph-name="uni0454" unicode="&#x454;" horiz-adv-x="1083" 
d="M752 430h-420q20 -107 86 -171t172 -64q85 0 148.5 35t148.5 126l176 -147q-109 -135 -216 -188.5t-249 -53.5q-239 0 -387 150.5t-148 406.5t150.5 406.5t390.5 150.5q131 0 234.5 -44t203.5 -154l-165 -164q-86 82 -147.5 109.5t-137.5 27.5q-106 0 -171.5 -62
t-86.5 -167h418v-197z" />
    <glyph glyph-name="uni0455" unicode="&#x455;" horiz-adv-x="1042" 
d="M518 1081q135 0 239 -36.5t212 -126.5l-144 -175q-92 71 -161 97t-152 26q-79 0 -127.5 -29t-48.5 -75q0 -45 43 -64.5t179 -49.5q15 -3 22 -5q223 -49 314 -120.5t91 -213.5q0 -154 -119 -248t-329 -94q-150 0 -266 44t-240 155l153 172q113 -92 189 -124t170 -32
q81 0 131.5 29t50.5 82q0 29 -15.5 49t-48 34t-69 23.5t-91.5 21.5q-22 4 -34 7q-222 50 -303.5 118.5t-81.5 207.5q0 140 116.5 233.5t319.5 93.5z" />
    <glyph glyph-name="uni0456" unicode="&#x456;" horiz-adv-x="499" 
d="M383 1047v-1047h-266v1047h266zM117 1204v250h266v-250h-266z" />
    <glyph glyph-name="uni0457" unicode="&#x457;" horiz-adv-x="499" 
d="M383 1047v-1047h-266v1047h266zM-80 1204v250h256v-250h-256zM324 1204v250h256v-250h-256z" />
    <glyph glyph-name="uni0458" unicode="&#x458;" horiz-adv-x="507" 
d="M-102 -162q69 -14 116 -14q59 0 85 30.5t26 100.5v1092h266v-1086q0 -182 -81.5 -267t-243.5 -85q-114 0 -216 31zM125 1204v250h266v-250h-266z" />
    <glyph glyph-name="uni0459" unicode="&#x459;" horiz-adv-x="1863" 
d="M1425 686q177 0 282 -91.5t105 -252.5q0 -160 -105 -251t-282 -91h-571v831h-336l-4 -268q-1 -127 -10 -215.5t-30 -161t-58 -114.5t-92 -64t-134 -22q-89 0 -155 16l24 211q50 -6 78 -6q35 0 57 10t38 32t24 65.5t11.5 102t4.5 150.5l4 480h844v-361h305zM1120 217h275
q72 0 108.5 32.5t36.5 92.5q0 61 -36.5 94t-108.5 33h-275v-252z" />
    <glyph glyph-name="uni045A" unicode="&#x45a;" horiz-adv-x="1802" 
d="M121 0v1047h266v-361h406v361h266v-361h305q177 0 282 -91.5t105 -252.5q0 -160 -105 -251t-282 -91h-571v469h-406v-469h-266zM1059 217h274q72 0 110 33t38 92q0 61 -37.5 94t-110.5 33h-274v-252z" />
    <glyph glyph-name="uni045B" unicode="&#x45b;" horiz-adv-x="1236" 
d="M186 0v1174h-151v163h151v117h267v-117h383v-163h-383v-263q106 129 297 129q179 0 276.5 -100t97.5 -264v-676h-266v596q0 103 -50.5 159t-145.5 56q-91 0 -150 -61.5t-59 -159.5v-590h-267z" />
    <glyph glyph-name="uni045C" unicode="&#x45c;" horiz-adv-x="1155" 
d="M387 0h-266v1047h266v-394h162l272 394h287l-344 -488l381 -559h-299l-297 438h-162v-438zM483 1176l142 297h290l-196 -297h-236z" />
    <glyph glyph-name="uni045E" unicode="&#x45e;" horiz-adv-x="1067" 
d="M643 -117q-52 -152 -135.5 -217t-226.5 -65q-114 0 -201 26l45 199q66 -12 123 -12q123 0 166 131l-394 1102h279l92 -275q109 -330 150 -471q98 326 145 473l90 273h271zM168 1458q0 -80 28 -139.5t78.5 -94.5t115.5 -52t145 -17q108 0 187.5 29t129 98.5t49.5 175.5
h-211q0 -141 -155 -141q-156 0 -156 141h-211z" />
    <glyph glyph-name="uni045F" unicode="&#x45f;" horiz-adv-x="1183" 
d="M463 -266v266h-342v1047h266v-832h410v832h266v-1047h-344v-266h-256z" />
    <glyph glyph-name="uni0490" unicode="&#x490;" horiz-adv-x="1181" 
d="M150 0v1454h698v299h278v-541h-690v-1212h-286z" />
    <glyph glyph-name="uni0491" unicode="&#x491;" horiz-adv-x="948" 
d="M121 0v1047h543v270h256v-486h-533v-831h-266z" />
    <glyph glyph-name="Wgrave" unicode="&#x1e80;" horiz-adv-x="1988" 
d="M1937 1454l-352 -1454h-330l-143 561q-74 298 -117 502q-61 -275 -118 -502l-144 -561h-327l-355 1454h291l145 -627q61 -262 97 -475q73 331 112 475l166 627h279l162 -627q50 -188 110 -483q59 329 96 483l146 627h282zM686 1880h291l141 -297h-235z" />
    <glyph glyph-name="wgrave" unicode="&#x1e81;" horiz-adv-x="1622" 
d="M1593 1047l-290 -1047h-316l-78 285q-46 172 -102 426q-50 -248 -96 -426l-74 -285h-318l-290 1047h280l84 -345q41 -161 101 -460q61 285 106 460l90 345h246l90 -345q54 -203 109 -464q64 320 100 464l84 345h274zM506 1473h291l141 -297h-236z" />
    <glyph glyph-name="Wacute" unicode="&#x1e82;" horiz-adv-x="1988" 
d="M1937 1454l-352 -1454h-330l-143 561q-74 298 -117 502q-61 -275 -118 -502l-144 -561h-327l-355 1454h291l145 -627q61 -262 97 -475q73 331 112 475l166 627h279l162 -627q50 -188 110 -483q59 329 96 483l146 627h282zM872 1583l142 297h291l-197 -297h-236z" />
    <glyph glyph-name="wacute" unicode="&#x1e83;" horiz-adv-x="1622" 
d="M1593 1047l-290 -1047h-316l-78 285q-46 172 -102 426q-50 -248 -96 -426l-74 -285h-318l-290 1047h280l84 -345q41 -161 101 -460q61 285 106 460l90 345h246l90 -345q54 -203 109 -464q64 320 100 464l84 345h274zM692 1176l142 297h290l-196 -297h-236z" />
    <glyph glyph-name="Wdieresis" unicode="&#x1e84;" horiz-adv-x="1988" 
d="M1937 1454l-352 -1454h-330l-143 561q-74 298 -117 502q-61 -275 -118 -502l-144 -561h-327l-355 1454h291l145 -627q61 -262 97 -475q73 331 112 475l166 627h279l162 -627q50 -188 110 -483q59 329 96 483l146 627h282zM666 1612v250h256v-250h-256zM1069 1612v250h256
v-250h-256z" />
    <glyph glyph-name="wdieresis" unicode="&#x1e85;" horiz-adv-x="1622" 
d="M1593 1047l-290 -1047h-316l-78 285q-46 172 -102 426q-50 -248 -96 -426l-74 -285h-318l-290 1047h280l84 -345q41 -161 101 -460q61 285 106 460l90 345h246l90 -345q54 -203 109 -464q64 320 100 464l84 345h274zM485 1204v250h256v-250h-256zM889 1204v250h256v-250
h-256z" />
    <glyph glyph-name="uni1E9E" unicode="&#x1e9e;" horiz-adv-x="1533" 
d="M909 -29q-140 0 -309 43l49 236q121 -39 250 -39q133 0 215 57t82 160q0 41 -18.5 73t-48 54.5t-83.5 42.5t-107 33.5t-136 30.5l-68 16v207l307 295q-120 67 -278 67q-163 0 -251.5 -71.5t-88.5 -206.5v-969h-279v981q0 103 33 187.5t90 143.5t136 99.5t170 59t192 18.5
q182 0 321 -50.5t230 -123.5v-182l-281 -271q246 -68 342.5 -167t96.5 -259q0 -94 -39 -178t-110 -148t-179 -101.5t-238 -37.5z" />
    <glyph glyph-name="uni1EA0" unicode="&#x1ea0;" horiz-adv-x="1458" 
d="M20 0l521 1454h377l520 -1454h-297l-99 291h-632l-101 -291h-289zM492 528h469l-58 168q-147 429 -178 537q-39 -134 -178 -541zM596 -369v250h266v-250h-266z" />
    <glyph glyph-name="uni1EA1" unicode="&#x1ea1;" horiz-adv-x="1146" 
d="M453 -35q-77 0 -143 17t-119 52t-83 94t-30 136q0 70 25 127t65 95t101 68t122 47.5t139 31.5l246 45v24q0 76 -52.5 118t-143.5 42q-98 0 -163.5 -38.5t-162.5 -131.5l-168 154q100 119 218 177t271 58q220 0 337.5 -101.5t117.5 -272.5v-707h-239v109
q-103 -144 -338 -144zM338 283q0 -49 42.5 -77t117.5 -28q53 0 100.5 13.5t88.5 41.5t65 78t24 115v61l-176 -36q-134 -28 -198 -64t-64 -104zM483 -369v250h267v-250h-267z" />
    <glyph glyph-name="uni1EA2" unicode="&#x1ea2;" horiz-adv-x="1458" 
d="M20 0l521 1454h377l520 -1454h-297l-99 291h-632l-101 -291h-289zM492 528h469l-58 168q-147 429 -178 537q-39 -134 -178 -541zM537 1890q72 21 153 21q100 0 154.5 -44.5t54.5 -121.5q0 -72 -54 -127.5t-136 -81.5l-68 86q92 49 92 94q0 26 -18 36.5t-60 10.5
q-55 0 -98 -16z" />
    <glyph glyph-name="uni1EA3" unicode="&#x1ea3;" horiz-adv-x="1146" 
d="M453 -35q-77 0 -143 17t-119 52t-83 94t-30 136q0 70 25 127t65 95t101 68t122 47.5t139 31.5l246 45v24q0 76 -52.5 118t-143.5 42q-98 0 -163.5 -38.5t-162.5 -131.5l-168 154q100 119 218 177t271 58q220 0 337.5 -101.5t117.5 -272.5v-707h-239v109
q-103 -144 -338 -144zM338 283q0 -49 42.5 -77t117.5 -28q53 0 100.5 13.5t88.5 41.5t65 78t24 115v61l-176 -36q-134 -28 -198 -64t-64 -104zM393 1483q68 20 154 20q100 0 154.5 -44.5t54.5 -121.5q0 -72 -54 -127.5t-137 -81.5l-67 86q92 49 92 95q0 26 -18 36.5
t-60 10.5q-52 0 -98 -17z" />
    <glyph glyph-name="uni1EA4" unicode="&#x1ea4;" horiz-adv-x="1458" 
d="M20 0l521 1454h377l520 -1454h-297l-99 291h-632l-101 -291h-289zM358 1583l201 266h334l201 -266h-234l-133 158l-135 -158h-234zM492 528h469l-58 168q-147 429 -178 537q-39 -134 -178 -541zM1051 1726l131 267h270l-178 -267h-223z" />
    <glyph glyph-name="uni1EA5" unicode="&#x1ea5;" horiz-adv-x="1146" 
d="M453 -35q-77 0 -143 17t-119 52t-83 94t-30 136q0 70 25 127t65 95t101 68t122 47.5t139 31.5l246 45v24q0 76 -52.5 118t-143.5 42q-98 0 -163.5 -38.5t-162.5 -131.5l-168 154q100 119 218 177t271 58q220 0 337.5 -101.5t117.5 -272.5v-707h-239v109
q-103 -144 -338 -144zM215 1176l201 266h334l200 -266h-233l-133 157l-135 -157h-234zM338 283q0 -49 42.5 -77t117.5 -28q53 0 100.5 13.5t88.5 41.5t65 78t24 115v61l-176 -36q-134 -28 -198 -64t-64 -104zM907 1319l131 266h271l-179 -266h-223z" />
    <glyph glyph-name="uni1EA6" unicode="&#x1ea6;" horiz-adv-x="1458" 
d="M20 0l521 1454h377l520 -1454h-297l-99 291h-632l-101 -291h-289zM348 1583l201 266h334l200 -266h-233l-133 158l-135 -158h-234zM492 528h469l-58 168q-147 429 -178 537q-39 -134 -178 -541zM930 1993h272l131 -267h-223z" />
    <glyph glyph-name="uni1EA7" unicode="&#x1ea7;" horiz-adv-x="1146" 
d="M453 -35q-77 0 -143 17t-119 52t-83 94t-30 136q0 70 25 127t65 95t101 68t122 47.5t139 31.5l246 45v24q0 76 -52.5 118t-143.5 42q-98 0 -163.5 -38.5t-162.5 -131.5l-168 154q100 119 218 177t271 58q220 0 337.5 -101.5t117.5 -272.5v-707h-239v109
q-103 -144 -338 -144zM205 1176l201 266h333l201 -266h-233l-134 157l-135 -157h-233zM338 283q0 -49 42.5 -77t117.5 -28q53 0 100.5 13.5t88.5 41.5t65 78t24 115v61l-176 -36q-134 -28 -198 -64t-64 -104zM786 1585h273l131 -266h-223z" />
    <glyph glyph-name="uni1EA8" unicode="&#x1ea8;" horiz-adv-x="1458" 
d="M20 0l521 1454h377l520 -1454h-297l-99 291h-632l-101 -291h-289zM358 1583l201 266h334l201 -266h-234l-133 158l-135 -158h-234zM492 528h469l-58 168q-147 429 -178 537q-39 -134 -178 -541zM920 2052q72 21 153 21q100 0 154.5 -44.5t54.5 -121.5q0 -72 -54 -127.5
t-136 -81.5l-68 86q92 49 92 94q0 26 -18 36.5t-60 10.5q-55 0 -98 -16z" />
    <glyph glyph-name="uni1EA9" unicode="&#x1ea9;" horiz-adv-x="1146" 
d="M453 -35q-77 0 -143 17t-119 52t-83 94t-30 136q0 70 25 127t65 95t101 68t122 47.5t139 31.5l246 45v24q0 76 -52.5 118t-143.5 42q-98 0 -163.5 -38.5t-162.5 -131.5l-168 154q100 119 218 177t271 58q220 0 337.5 -101.5t117.5 -272.5v-707h-239v109
q-103 -144 -338 -144zM215 1176l201 266h334l200 -266h-233l-133 157l-135 -157h-234zM338 283q0 -49 42.5 -77t117.5 -28q53 0 100.5 13.5t88.5 41.5t65 78t24 115v61l-176 -36q-134 -28 -198 -64t-64 -104zM776 1645q68 20 154 20q100 0 154.5 -44.5t54.5 -121.5
q0 -72 -54 -127.5t-137 -81.5l-67 86q92 49 92 94q0 26 -18 37t-60 11q-52 0 -98 -17z" />
    <glyph glyph-name="uni1EAA" unicode="&#x1eaa;" horiz-adv-x="1458" 
d="M20 0l521 1454h377l520 -1454h-297l-99 291h-632l-101 -291h-289zM360 1583l201 256h334l201 -256h-234l-133 148l-135 -148h-234zM391 1892q0 114 60 173t147 59q46 0 93 -20t87.5 -40t71.5 -20q63 0 63 80h148q0 -117 -51 -174.5t-140 -57.5q-58 0 -139 40t-119 40
q-35 0 -53 -23.5t-18 -56.5h-150zM492 528h469l-58 168q-147 429 -178 537q-39 -134 -178 -541z" />
    <glyph glyph-name="uni1EAB" unicode="&#x1eab;" horiz-adv-x="1146" 
d="M453 -35q-77 0 -143 17t-119 52t-83 94t-30 136q0 70 25 127t65 95t101 68t122 47.5t139 31.5l246 45v24q0 76 -52.5 118t-143.5 42q-98 0 -163.5 -38.5t-162.5 -131.5l-168 154q100 119 218 177t271 58q220 0 337.5 -101.5t117.5 -272.5v-707h-239v109
q-103 -144 -338 -144zM217 1176l201 256h334l200 -256h-233l-133 147l-135 -147h-234zM248 1485q0 114 60 172.5t147 58.5q46 0 93 -20t87.5 -40t71.5 -20q63 0 63 80h148q0 -117 -51 -174t-140 -57q-58 0 -139 40t-119 40q-35 0 -53.5 -23.5t-18.5 -56.5h-149zM338 283
q0 -49 42.5 -77t117.5 -28q53 0 100.5 13.5t88.5 41.5t65 78t24 115v61l-176 -36q-134 -28 -198 -64t-64 -104z" />
    <glyph glyph-name="uni1EAC" unicode="&#x1eac;" horiz-adv-x="1458" 
d="M20 0l521 1454h377l520 -1454h-297l-99 291h-632l-101 -291h-289zM350 1583l209 297h334l209 -297h-225l-150 184l-152 -184h-225zM492 528h469l-58 168q-147 429 -178 537q-39 -134 -178 -541zM596 -369v250h266v-250h-266z" />
    <glyph glyph-name="uni1EAD" unicode="&#x1ead;" horiz-adv-x="1146" 
d="M453 -35q-77 0 -143 17t-119 52t-83 94t-30 136q0 70 25 127t65 95t101 68t122 47.5t139 31.5l246 45v24q0 76 -52.5 118t-143.5 42q-98 0 -163.5 -38.5t-162.5 -131.5l-168 154q100 119 218 177t271 58q220 0 337.5 -101.5t117.5 -272.5v-707h-239v109
q-103 -144 -338 -144zM207 1176l209 297h334l208 -297h-225l-149 184l-152 -184h-225zM338 283q0 -49 42.5 -77t117.5 -28q53 0 100.5 13.5t88.5 41.5t65 78t24 115v61l-176 -36q-134 -28 -198 -64t-64 -104zM483 -369v250h267v-250h-267z" />
    <glyph glyph-name="uni1EAE" unicode="&#x1eae;" horiz-adv-x="1458" 
d="M20 0l521 1454h377l520 -1454h-297l-99 291h-632l-101 -291h-289zM383 1815h184q5 -47 47.5 -79t112.5 -32q71 0 113 31t47 80h184q-7 -116 -105 -186t-239 -70t-239 70.5t-105 185.5zM492 528h469l-58 168q-147 429 -178 537q-39 -134 -178 -541zM612 1815l119 202h262
l-178 -202h-203z" />
    <glyph glyph-name="uni1EAF" unicode="&#x1eaf;" horiz-adv-x="1146" 
d="M453 -35q-77 0 -143 17t-119 52t-83 94t-30 136q0 70 25 127t65 95t101 68t122 47.5t139 31.5l246 45v24q0 76 -52.5 118t-143.5 42q-98 0 -163.5 -38.5t-162.5 -131.5l-168 154q100 119 218 177t271 58q220 0 337.5 -101.5t117.5 -272.5v-707h-239v109
q-103 -144 -338 -144zM240 1407h184q5 -47 47.5 -79t112.5 -32q71 0 112.5 31t46.5 80h185q-7 -116 -105 -186t-239 -70t-239 70.5t-105 185.5zM338 283q0 -49 42.5 -77t117.5 -28q53 0 100.5 13.5t88.5 41.5t65 78t24 115v61l-176 -36q-134 -28 -198 -64t-64 -104z
M469 1407l119 203h262l-178 -203h-203z" />
    <glyph glyph-name="uni1EB0" unicode="&#x1eb0;" horiz-adv-x="1458" 
d="M20 0l521 1454h377l520 -1454h-297l-99 291h-632l-101 -291h-289zM375 1815h184q5 -49 47 -80t113 -31q70 0 112.5 32t47.5 79h184q-7 -115 -105 -185.5t-239 -70.5t-239 70t-105 186zM453 2017h262l119 -202h-203zM492 528h469l-58 168q-147 429 -178 537
q-39 -134 -178 -541z" />
    <glyph glyph-name="uni1EB1" unicode="&#x1eb1;" horiz-adv-x="1146" 
d="M453 -35q-77 0 -143 17t-119 52t-83 94t-30 136q0 70 25 127t65 95t101 68t122 47.5t139 31.5l246 45v24q0 76 -52.5 118t-143.5 42q-98 0 -163.5 -38.5t-162.5 -131.5l-168 154q100 119 218 177t271 58q220 0 337.5 -101.5t117.5 -272.5v-707h-239v109
q-103 -144 -338 -144zM231 1407h185q5 -49 46.5 -80t112.5 -31q70 0 112.5 32t47.5 79h185q-7 -115 -105.5 -185.5t-239.5 -70.5t-239 70t-105 186zM309 1610h262l119 -203h-203zM338 283q0 -49 42.5 -77t117.5 -28q53 0 100.5 13.5t88.5 41.5t65 78t24 115v61l-176 -36
q-134 -28 -198 -64t-64 -104z" />
    <glyph glyph-name="uni1EB2" unicode="&#x1eb2;" horiz-adv-x="1458" 
d="M20 0l521 1454h377l520 -1454h-297l-99 291h-632l-101 -291h-289zM383 1815h184q5 -47 47.5 -79t112.5 -32q71 0 113 31t47 80h184q-7 -116 -105 -186t-239 -70t-239 70.5t-105 185.5zM492 528h469l-58 168q-147 429 -178 537q-39 -134 -178 -541zM530 2114q68 20 154 20
q100 0 154.5 -44.5t54.5 -121.5q0 -72 -54 -127.5t-137 -81.5l-67 86q92 49 92 94q0 26 -18 37t-60 11q-52 0 -98 -17z" />
    <glyph glyph-name="uni1EB3" unicode="&#x1eb3;" horiz-adv-x="1146" 
d="M453 -35q-77 0 -143 17t-119 52t-83 94t-30 136q0 70 25 127t65 95t101 68t122 47.5t139 31.5l246 45v24q0 76 -52.5 118t-143.5 42q-98 0 -163.5 -38.5t-162.5 -131.5l-168 154q100 119 218 177t271 58q220 0 337.5 -101.5t117.5 -272.5v-707h-239v109
q-103 -144 -338 -144zM240 1407h184q5 -47 47.5 -79t112.5 -32q71 0 112.5 31t46.5 80h185q-7 -116 -105 -186t-239 -70t-239 70.5t-105 185.5zM338 283q0 -49 42.5 -77t117.5 -28q53 0 100.5 13.5t88.5 41.5t65 78t24 115v61l-176 -36q-134 -28 -198 -64t-64 -104z
M387 1706q68 20 154 20q100 0 154.5 -44t54.5 -121q0 -72 -54 -127.5t-137 -81.5l-67 86q92 49 92 94q0 26 -18 36.5t-60 10.5q-55 0 -98 -16z" />
    <glyph glyph-name="uni1EB4" unicode="&#x1eb4;" horiz-adv-x="1458" 
d="M20 0l521 1454h377l520 -1454h-297l-99 291h-632l-101 -291h-289zM379 1815h184q5 -47 47.5 -79t112.5 -32q71 0 113 31t47 80h184q-7 -116 -105 -186t-239 -70t-239 70.5t-105 185.5zM391 1884q0 115 60.5 177.5t146.5 62.5q46 0 93 -22t87.5 -44t71.5 -22q35 0 48 23
t15 65h148q0 -118 -51.5 -179t-139.5 -61q-46 0 -93.5 22t-89.5 44t-75 22q-34 0 -52.5 -26.5t-18.5 -61.5h-150zM492 528h469l-58 168q-147 429 -178 537q-39 -134 -178 -541z" />
    <glyph glyph-name="uni1EB5" unicode="&#x1eb5;" horiz-adv-x="1146" 
d="M453 -35q-77 0 -143 17t-119 52t-83 94t-30 136q0 70 25 127t65 95t101 68t122 47.5t139 31.5l246 45v24q0 76 -52.5 118t-143.5 42q-98 0 -163.5 -38.5t-162.5 -131.5l-168 154q100 119 218 177t271 58q220 0 337.5 -101.5t117.5 -272.5v-707h-239v109
q-103 -144 -338 -144zM236 1407h184q5 -47 47.5 -79t112.5 -32q71 0 112.5 31t46.5 80h185q-7 -116 -105 -186t-239 -70t-239 70.5t-105 185.5zM248 1477q0 115 60.5 177t146.5 62q46 0 93 -22t87.5 -44t71.5 -22q35 0 48 23t15 65h148q0 -118 -51.5 -178.5t-139.5 -60.5
q-46 0 -93.5 22t-89.5 44t-75 22q-34 0 -53 -27t-19 -61h-149zM338 283q0 -49 42.5 -77t117.5 -28q53 0 100.5 13.5t88.5 41.5t65 78t24 115v61l-176 -36q-134 -28 -198 -64t-64 -104z" />
    <glyph glyph-name="uni1EB6" unicode="&#x1eb6;" horiz-adv-x="1458" 
d="M20 0l521 1454h377l520 -1454h-297l-99 291h-632l-101 -291h-289zM391 1866h184q0 -66 40 -104t112 -38t112 38t40 104h184q0 -147 -95 -225t-241 -78t-241 78t-95 225zM492 528h469l-58 168q-147 429 -178 537q-39 -134 -178 -541zM596 -369v250h266v-250h-266z" />
    <glyph glyph-name="uni1EB7" unicode="&#x1eb7;" horiz-adv-x="1146" 
d="M453 -35q-77 0 -143 17t-119 52t-83 94t-30 136q0 70 25 127t65 95t101 68t122 47.5t139 31.5l246 45v24q0 76 -52.5 118t-143.5 42q-98 0 -163.5 -38.5t-162.5 -131.5l-168 154q100 119 218 177t271 58q220 0 337.5 -101.5t117.5 -272.5v-707h-239v109
q-103 -144 -338 -144zM248 1458h184q0 -65 39.5 -103t112.5 -38q72 0 111.5 37.5t39.5 103.5h185q0 -147 -95 -225t-241 -78t-241 78t-95 225zM338 283q0 -49 42.5 -77t117.5 -28q53 0 100.5 13.5t88.5 41.5t65 78t24 115v61l-176 -36q-134 -28 -198 -64t-64 -104zM483 -369
v250h267v-250h-267z" />
    <glyph glyph-name="uni1EB8" unicode="&#x1eb8;" horiz-adv-x="1288" 
d="M1171 1454v-242h-735v-340h688v-241h-688v-389h758v-242h-1044v1454h1021zM567 -369v250h267v-250h-267z" />
    <glyph glyph-name="uni1EB9" unicode="&#x1eb9;" horiz-adv-x="1148" 
d="M612 -33q-253 0 -401 150t-148 401q0 162 62 289t183 200.5t282 73.5q236 0 362.5 -138.5t126.5 -383.5q0 -58 -4 -104h-751q18 -121 91 -191.5t203 -70.5q88 0 150.5 30.5t161.5 112.5l149 -164q-111 -113 -222 -159t-245 -46zM330 645h489q-8 106 -69 166.5t-168 60.5
q-102 0 -165.5 -60.5t-86.5 -166.5zM469 -369v250h266v-250h-266z" />
    <glyph glyph-name="uni1EBA" unicode="&#x1eba;" horiz-adv-x="1288" 
d="M1171 1454v-242h-735v-340h688v-241h-688v-389h758v-242h-1044v1454h1021zM481 1890q72 21 154 21q100 0 154.5 -44.5t54.5 -121.5q0 -72 -54 -127.5t-137 -81.5l-67 86q92 49 92 94q0 26 -18 36.5t-60 10.5q-55 0 -98 -16z" />
    <glyph glyph-name="uni1EBB" unicode="&#x1ebb;" horiz-adv-x="1148" 
d="M612 -33q-253 0 -401 150t-148 401q0 162 62 289t183 200.5t282 73.5q236 0 362.5 -138.5t126.5 -383.5q0 -58 -4 -104h-751q18 -121 91 -191.5t203 -70.5q88 0 150.5 30.5t161.5 112.5l149 -164q-111 -113 -222 -159t-245 -46zM330 645h489q-8 106 -69 166.5t-168 60.5
q-102 0 -165.5 -60.5t-86.5 -166.5zM420 1483q68 20 153 20q100 0 154.5 -44.5t54.5 -121.5q0 -72 -54 -127.5t-136 -81.5l-68 86q92 49 92 95q0 26 -17.5 36.5t-59.5 10.5q-53 0 -99 -17z" />
    <glyph glyph-name="uni1EBC" unicode="&#x1ebc;" horiz-adv-x="1288" 
d="M1171 1454v-242h-735v-340h688v-241h-688v-389h758v-242h-1044v1454h1021zM317 1587q0 127 62 195.5t151 68.5q44 0 87 -15.5t71 -34.5t61 -34.5t60 -15.5q33 0 50.5 28.5t17.5 71.5h149q0 -128 -56.5 -196t-144.5 -68q-50 0 -104.5 25.5t-102 50.5t-79.5 25t-51 -30
t-19 -71h-152z" />
    <glyph glyph-name="uni1EBD" unicode="&#x1ebd;" horiz-adv-x="1148" 
d="M612 -33q-253 0 -401 150t-148 401q0 162 62 289t183 200.5t282 73.5q236 0 362.5 -138.5t126.5 -383.5q0 -58 -4 -104h-751q18 -121 91 -191.5t203 -70.5q88 0 150.5 30.5t161.5 112.5l149 -164q-111 -113 -222 -159t-245 -46zM256 1180q0 127 62 195.5t151 68.5
q44 0 87 -16t71 -34.5t61 -34.5t60 -16q33 0 50 29t17 72h150q0 -128 -56.5 -196t-144.5 -68q-50 0 -104.5 25t-102.5 50t-80 25t-50.5 -29.5t-18.5 -70.5h-152zM330 645h489q-8 106 -69 166.5t-168 60.5q-102 0 -165.5 -60.5t-86.5 -166.5z" />
    <glyph glyph-name="uni1EBE" unicode="&#x1ebe;" horiz-adv-x="1288" 
d="M1171 1454v-242h-735v-340h688v-241h-688v-389h758v-242h-1044v1454h1021zM303 1583l201 266h334l200 -266h-233l-133 158l-135 -158h-234zM995 1726l131 267h271l-178 -267h-224z" />
    <glyph glyph-name="uni1EBF" unicode="&#x1ebf;" horiz-adv-x="1148" 
d="M612 -33q-253 0 -401 150t-148 401q0 162 62 289t183 200.5t282 73.5q236 0 362.5 -138.5t126.5 -383.5q0 -58 -4 -104h-751q18 -121 91 -191.5t203 -70.5q88 0 150.5 30.5t161.5 112.5l149 -164q-111 -113 -222 -159t-245 -46zM242 1176l200 266h334l201 -266h-234
l-133 157l-135 -157h-233zM330 645h489q-8 106 -69 166.5t-168 60.5q-102 0 -165.5 -60.5t-86.5 -166.5zM934 1319l131 266h270l-178 -266h-223z" />
    <glyph glyph-name="uni1EC0" unicode="&#x1ec0;" horiz-adv-x="1288" 
d="M1171 1454v-242h-735v-340h688v-241h-688v-389h758v-242h-1044v1454h1021zM293 1583l201 266h333l201 -266h-233l-133 158l-136 -158h-233zM874 1993h273l131 -267h-223z" />
    <glyph glyph-name="uni1EC1" unicode="&#x1ec1;" horiz-adv-x="1148" 
d="M612 -33q-253 0 -401 150t-148 401q0 162 62 289t183 200.5t282 73.5q236 0 362.5 -138.5t126.5 -383.5q0 -58 -4 -104h-751q18 -121 91 -191.5t203 -70.5q88 0 150.5 30.5t161.5 112.5l149 -164q-111 -113 -222 -159t-245 -46zM231 1176l201 266h334l201 -266h-234
l-133 157l-135 -157h-234zM330 645h489q-8 106 -69 166.5t-168 60.5q-102 0 -165.5 -60.5t-86.5 -166.5zM813 1585h272l132 -266h-224z" />
    <glyph glyph-name="uni1EC2" unicode="&#x1ec2;" horiz-adv-x="1288" 
d="M1171 1454v-242h-735v-340h688v-241h-688v-389h758v-242h-1044v1454h1021zM303 1583l201 266h334l200 -266h-233l-133 158l-135 -158h-234zM864 2052q72 21 154 21q100 0 154.5 -44.5t54.5 -121.5q0 -72 -54 -127.5t-137 -81.5l-67 86q92 49 92 94q0 26 -18 36.5
t-60 10.5q-55 0 -98 -16z" />
    <glyph glyph-name="uni1EC3" unicode="&#x1ec3;" horiz-adv-x="1148" 
d="M612 -33q-253 0 -401 150t-148 401q0 162 62 289t183 200.5t282 73.5q236 0 362.5 -138.5t126.5 -383.5q0 -58 -4 -104h-751q18 -121 91 -191.5t203 -70.5q88 0 150.5 30.5t161.5 112.5l149 -164q-111 -113 -222 -159t-245 -46zM242 1176l200 266h334l201 -266h-234
l-133 157l-135 -157h-233zM330 645h489q-8 106 -69 166.5t-168 60.5q-102 0 -165.5 -60.5t-86.5 -166.5zM803 1645q68 20 153 20q100 0 154.5 -44.5t54.5 -121.5q0 -72 -54 -127.5t-136 -81.5l-68 86q92 49 92 94q0 26 -18 37t-59 11q-53 0 -99 -17z" />
    <glyph glyph-name="uni1EC4" unicode="&#x1ec4;" horiz-adv-x="1288" 
d="M1171 1454v-242h-735v-340h688v-241h-688v-389h758v-242h-1044v1454h1021zM305 1583l201 256h334l200 -256h-233l-133 148l-135 -148h-234zM336 1892q0 114 60 173t147 59q46 0 93 -20t87.5 -40t71.5 -20q63 0 63 80h148q0 -117 -51 -174.5t-140 -57.5q-58 0 -139 40
t-119 40q-35 0 -53.5 -23.5t-18.5 -56.5h-149z" />
    <glyph glyph-name="uni1EC5" unicode="&#x1ec5;" horiz-adv-x="1148" 
d="M612 -33q-253 0 -401 150t-148 401q0 162 62 289t183 200.5t282 73.5q236 0 362.5 -138.5t126.5 -383.5q0 -58 -4 -104h-751q18 -121 91 -191.5t203 -70.5q88 0 150.5 30.5t161.5 112.5l149 -164q-111 -113 -222 -159t-245 -46zM244 1176l200 256h334l201 -256h-234
l-133 147l-135 -147h-233zM274 1485q0 114 60 172.5t147 58.5q46 0 93 -20t87.5 -40t71.5 -20q64 0 64 80h147q0 -117 -50.5 -174t-139.5 -57q-58 0 -139 40t-119 40q-35 0 -53.5 -23.5t-18.5 -56.5h-150zM330 645h489q-8 106 -69 166.5t-168 60.5q-102 0 -165.5 -60.5
t-86.5 -166.5z" />
    <glyph glyph-name="uni1EC6" unicode="&#x1ec6;" horiz-adv-x="1288" 
d="M1171 1454v-242h-735v-340h688v-241h-688v-389h758v-242h-1044v1454h1021zM295 1583l209 297h334l209 -297h-226l-149 184l-152 -184h-225zM567 -369v250h267v-250h-267z" />
    <glyph glyph-name="uni1EC7" unicode="&#x1ec7;" horiz-adv-x="1148" 
d="M612 -33q-253 0 -401 150t-148 401q0 162 62 289t183 200.5t282 73.5q236 0 362.5 -138.5t126.5 -383.5q0 -58 -4 -104h-751q18 -121 91 -191.5t203 -70.5q88 0 150.5 30.5t161.5 112.5l149 -164q-111 -113 -222 -159t-245 -46zM233 1176l209 297h334l209 -297h-225
l-150 184l-151 -184h-226zM330 645h489q-8 106 -69 166.5t-168 60.5q-102 0 -165.5 -60.5t-86.5 -166.5zM469 -369v250h266v-250h-266z" />
    <glyph glyph-name="uni1EC8" unicode="&#x1ec8;" horiz-adv-x="614" 
d="M451 1454v-1454h-287v1454h287zM117 1890q72 21 153 21q100 0 154.5 -44.5t54.5 -121.5q0 -72 -54 -127.5t-136 -81.5l-68 86q92 49 92 94q0 26 -17.5 36.5t-59.5 10.5q-56 0 -99 -16z" />
    <glyph glyph-name="uni1EC9" unicode="&#x1ec9;" horiz-adv-x="499" 
d="M383 1047v-1047h-266v1047h266zM59 1483q68 20 154 20q100 0 154.5 -44.5t54.5 -121.5q0 -72 -54 -127.5t-137 -81.5l-67 86q92 49 92 95q0 26 -18 36.5t-60 10.5q-52 0 -98 -17z" />
    <glyph glyph-name="uni1ECA" unicode="&#x1eca;" horiz-adv-x="614" 
d="M451 1454v-1454h-287v1454h287zM174 -369v250h266v-250h-266z" />
    <glyph glyph-name="uni1ECB" unicode="&#x1ecb;" horiz-adv-x="499" 
d="M383 1047v-1047h-266v1047h266zM117 -369v250h266v-250h-266zM117 1204v250h266v-250h-266z" />
    <glyph glyph-name="uni1ECC" unicode="&#x1ecc;" horiz-adv-x="1579" 
d="M791 1489q218 0 382 -100.5t249 -272.5t85 -389t-85 -389t-249 -272.5t-382 -100.5q-164 0 -300 58.5t-227.5 160.5t-141.5 241.5t-50 301.5t50 301.5t141.5 241.5t227.5 160.5t300 58.5zM367 727q0 -231 116 -369.5t308 -138.5t306.5 138t114.5 370q0 231 -114.5 369.5
t-306.5 138.5t-308 -139t-116 -369zM657 -369v250h267v-250h-267z" />
    <glyph glyph-name="uni1ECD" unicode="&#x1ecd;" horiz-adv-x="1214" 
d="M608 1081q239 0 391 -154.5t152 -402.5t-152 -402.5t-391 -154.5q-240 0 -392.5 154.5t-152.5 402.5t152.5 402.5t392.5 154.5zM334 524q0 -152 74.5 -241.5t199.5 -89.5q124 0 198.5 89.5t74.5 241.5q0 150 -75 241t-198 91q-124 0 -199 -90.5t-75 -241.5zM475 -369v250
h266v-250h-266z" />
    <glyph glyph-name="uni1ECE" unicode="&#x1ece;" horiz-adv-x="1579" 
d="M791 1489q218 0 382 -100.5t249 -272.5t85 -389t-85 -389t-249 -272.5t-382 -100.5q-164 0 -300 58.5t-227.5 160.5t-141.5 241.5t-50 301.5t50 301.5t141.5 241.5t227.5 160.5t300 58.5zM367 727q0 -231 116 -369.5t308 -138.5t306.5 138t114.5 370q0 231 -114.5 369.5
t-306.5 138.5t-308 -139t-116 -369zM600 1890q72 21 154 21q100 0 154.5 -44.5t54.5 -121.5q0 -72 -54 -127.5t-137 -81.5l-67 86q92 49 92 94q0 26 -18 36.5t-60 10.5q-55 0 -98 -16z" />
    <glyph glyph-name="uni1ECF" unicode="&#x1ecf;" horiz-adv-x="1214" 
d="M608 1081q239 0 391 -154.5t152 -402.5t-152 -402.5t-391 -154.5q-240 0 -392.5 154.5t-152.5 402.5t152.5 402.5t392.5 154.5zM334 524q0 -152 74.5 -241.5t199.5 -89.5q124 0 198.5 89.5t74.5 241.5q0 150 -75 241t-198 91q-124 0 -199 -90.5t-75 -241.5zM414 1483
q68 20 153 20q100 0 154.5 -44.5t54.5 -121.5q0 -72 -54 -127.5t-136 -81.5l-68 86q92 49 92 95q0 26 -18 36.5t-60 10.5q-52 0 -98 -17z" />
    <glyph glyph-name="uni1ED0" unicode="&#x1ed0;" horiz-adv-x="1579" 
d="M791 1489q218 0 382 -100.5t249 -272.5t85 -389t-85 -389t-249 -272.5t-382 -100.5q-164 0 -300 58.5t-227.5 160.5t-141.5 241.5t-50 301.5t50 301.5t141.5 241.5t227.5 160.5t300 58.5zM367 727q0 -231 116 -369.5t308 -138.5t306.5 138t114.5 370q0 231 -114.5 369.5
t-306.5 138.5t-308 -139t-116 -369zM422 1583l201 266h333l201 -266h-233l-133 158l-136 -158h-233zM1114 1726l131 267h271l-179 -267h-223z" />
    <glyph glyph-name="uni1ED1" unicode="&#x1ed1;" horiz-adv-x="1214" 
d="M608 1081q239 0 391 -154.5t152 -402.5t-152 -402.5t-391 -154.5q-240 0 -392.5 154.5t-152.5 402.5t152.5 402.5t392.5 154.5zM236 1176l200 266h334l201 -266h-234l-133 157l-135 -157h-233zM334 524q0 -152 74.5 -241.5t199.5 -89.5q124 0 198.5 89.5t74.5 241.5
q0 150 -75 241t-198 91q-124 0 -199 -90.5t-75 -241.5zM928 1319l131 266h270l-178 -266h-223z" />
    <glyph glyph-name="uni1ED2" unicode="&#x1ed2;" horiz-adv-x="1579" 
d="M791 1489q218 0 382 -100.5t249 -272.5t85 -389t-85 -389t-249 -272.5t-382 -100.5q-164 0 -300 58.5t-227.5 160.5t-141.5 241.5t-50 301.5t50 301.5t141.5 241.5t227.5 160.5t300 58.5zM367 727q0 -231 116 -369.5t308 -138.5t306.5 138t114.5 370q0 231 -114.5 369.5
t-306.5 138.5t-308 -139t-116 -369zM412 1583l200 266h334l201 -266h-234l-133 158l-135 -158h-233zM993 1993h273l131 -267h-223z" />
    <glyph glyph-name="uni1ED3" unicode="&#x1ed3;" horiz-adv-x="1214" 
d="M608 1081q239 0 391 -154.5t152 -402.5t-152 -402.5t-391 -154.5q-240 0 -392.5 154.5t-152.5 402.5t152.5 402.5t392.5 154.5zM225 1176l201 266h334l201 -266h-234l-133 157l-135 -157h-234zM334 524q0 -152 74.5 -241.5t199.5 -89.5q124 0 198.5 89.5t74.5 241.5
q0 150 -75 241t-198 91q-124 0 -199 -90.5t-75 -241.5zM807 1585h272l131 -266h-223z" />
    <glyph glyph-name="uni1ED4" unicode="&#x1ed4;" horiz-adv-x="1579" 
d="M791 1489q218 0 382 -100.5t249 -272.5t85 -389t-85 -389t-249 -272.5t-382 -100.5q-164 0 -300 58.5t-227.5 160.5t-141.5 241.5t-50 301.5t50 301.5t141.5 241.5t227.5 160.5t300 58.5zM367 727q0 -231 116 -369.5t308 -138.5t306.5 138t114.5 370q0 231 -114.5 369.5
t-306.5 138.5t-308 -139t-116 -369zM422 1583l201 266h333l201 -266h-233l-133 158l-136 -158h-233zM983 2052q72 21 154 21q100 0 154.5 -44.5t54.5 -121.5q0 -72 -54 -127.5t-137 -81.5l-68 86q93 49 93 94q0 26 -18 36.5t-60 10.5q-55 0 -98 -16z" />
    <glyph glyph-name="uni1ED5" unicode="&#x1ed5;" horiz-adv-x="1214" 
d="M608 1081q239 0 391 -154.5t152 -402.5t-152 -402.5t-391 -154.5q-240 0 -392.5 154.5t-152.5 402.5t152.5 402.5t392.5 154.5zM236 1176l200 266h334l201 -266h-234l-133 157l-135 -157h-233zM334 524q0 -152 74.5 -241.5t199.5 -89.5q124 0 198.5 89.5t74.5 241.5
q0 150 -75 241t-198 91q-124 0 -199 -90.5t-75 -241.5zM797 1645q68 20 153 20q100 0 154.5 -44.5t54.5 -121.5q0 -72 -54 -127.5t-136 -81.5l-68 86q92 49 92 94q0 26 -18 37t-60 11q-52 0 -98 -17z" />
    <glyph glyph-name="uni1ED6" unicode="&#x1ed6;" horiz-adv-x="1579" 
d="M791 1489q218 0 382 -100.5t249 -272.5t85 -389t-85 -389t-249 -272.5t-382 -100.5q-164 0 -300 58.5t-227.5 160.5t-141.5 241.5t-50 301.5t50 301.5t141.5 241.5t227.5 160.5t300 58.5zM367 727q0 -231 116 -369.5t308 -138.5t306.5 138t114.5 370q0 231 -114.5 369.5
t-306.5 138.5t-308 -139t-116 -369zM424 1583l201 256h333l201 -256h-233l-133 148l-136 -148h-233zM455 1892q0 114 60 173t147 59q46 0 93 -20t87 -40t71 -20q64 0 64 80h147q0 -117 -50.5 -174.5t-139.5 -57.5q-58 0 -139 40t-119 40q-35 0 -53.5 -23.5t-18.5 -56.5h-149
z" />
    <glyph glyph-name="uni1ED7" unicode="&#x1ed7;" horiz-adv-x="1214" 
d="M608 1081q239 0 391 -154.5t152 -402.5t-152 -402.5t-391 -154.5q-240 0 -392.5 154.5t-152.5 402.5t152.5 402.5t392.5 154.5zM238 1176l200 256h334l201 -256h-234l-133 147l-135 -147h-233zM268 1485q0 114 60 172.5t147 58.5q46 0 93 -20t87.5 -40t71.5 -20
q64 0 64 80h147q0 -117 -50.5 -174t-139.5 -57q-58 0 -139.5 40t-119.5 40q-35 0 -53 -23.5t-18 -56.5h-150zM334 524q0 -152 74.5 -241.5t199.5 -89.5q124 0 198.5 89.5t74.5 241.5q0 150 -75 241t-198 91q-124 0 -199 -90.5t-75 -241.5z" />
    <glyph glyph-name="uni1ED8" unicode="&#x1ed8;" horiz-adv-x="1579" 
d="M791 1489q218 0 382 -100.5t249 -272.5t85 -389t-85 -389t-249 -272.5t-382 -100.5q-164 0 -300 58.5t-227.5 160.5t-141.5 241.5t-50 301.5t50 301.5t141.5 241.5t227.5 160.5t300 58.5zM367 727q0 -231 116 -369.5t308 -138.5t306.5 138t114.5 370q0 231 -114.5 369.5
t-306.5 138.5t-308 -139t-116 -369zM414 1583l209 297h333l209 -297h-225l-149 184l-152 -184h-225zM657 -369v250h267v-250h-267z" />
    <glyph glyph-name="uni1ED9" unicode="&#x1ed9;" horiz-adv-x="1214" 
d="M608 1081q239 0 391 -154.5t152 -402.5t-152 -402.5t-391 -154.5q-240 0 -392.5 154.5t-152.5 402.5t152.5 402.5t392.5 154.5zM227 1176l209 297h334l209 -297h-225l-150 184l-151 -184h-226zM334 524q0 -152 74.5 -241.5t199.5 -89.5q124 0 198.5 89.5t74.5 241.5
q0 150 -75 241t-198 91q-124 0 -199 -90.5t-75 -241.5zM475 -369v250h266v-250h-266z" />
    <glyph glyph-name="uni1EDA" unicode="&#x1eda;" horiz-adv-x="1579" 
d="M791 1489q138 0 251 -35h74q48 0 66 27.5t18 109.5h211q0 -124 -28 -187.5t-93 -88.5q107 -103 162 -254t55 -334q0 -217 -85 -389t-249 -272.5t-382 -100.5q-164 0 -300 58.5t-227.5 160.5t-141.5 241.5t-50 301.5t50 301.5t141.5 241.5t227.5 160.5t300 58.5zM367 727
q0 -231 116 -369.5t308 -138.5t306.5 138t114.5 370q0 231 -114.5 369.5t-306.5 138.5t-308 -139t-116 -369zM668 1583l141 297h291l-197 -297h-235z" />
    <glyph glyph-name="uni1EDB" unicode="&#x1edb;" horiz-adv-x="1214" 
d="M608 1081q112 0 205 -34h49q48 0 66 27.5t18 109.5h203q0 -130 -28.5 -194t-98.5 -89q129 -148 129 -377q0 -248 -152 -402.5t-391 -154.5q-240 0 -392.5 154.5t-152.5 402.5t152.5 402.5t392.5 154.5zM334 524q0 -152 74.5 -241.5t199.5 -89.5q124 0 198.5 89.5
t74.5 241.5q0 150 -75 241t-198 91q-124 0 -199 -90.5t-75 -241.5zM485 1176l142 297h291l-197 -297h-236z" />
    <glyph glyph-name="uni1EDC" unicode="&#x1edc;" horiz-adv-x="1579" 
d="M791 1489q138 0 251 -35h74q48 0 66 27.5t18 109.5h211q0 -124 -28 -187.5t-93 -88.5q107 -103 162 -254t55 -334q0 -217 -85 -389t-249 -272.5t-382 -100.5q-164 0 -300 58.5t-227.5 160.5t-141.5 241.5t-50 301.5t50 301.5t141.5 241.5t227.5 160.5t300 58.5zM367 727
q0 -231 116 -369.5t308 -138.5t306.5 138t114.5 370q0 231 -114.5 369.5t-306.5 138.5t-308 -139t-116 -369zM481 1880h291l141 -297h-235z" />
    <glyph glyph-name="uni1EDD" unicode="&#x1edd;" horiz-adv-x="1214" 
d="M608 1081q112 0 205 -34h49q48 0 66 27.5t18 109.5h203q0 -130 -28.5 -194t-98.5 -89q129 -148 129 -377q0 -248 -152 -402.5t-391 -154.5q-240 0 -392.5 154.5t-152.5 402.5t152.5 402.5t392.5 154.5zM299 1473h291l141 -297h-235zM334 524q0 -152 74.5 -241.5
t199.5 -89.5q124 0 198.5 89.5t74.5 241.5q0 150 -75 241t-198 91q-124 0 -199 -90.5t-75 -241.5z" />
    <glyph glyph-name="uni1EDE" unicode="&#x1ede;" horiz-adv-x="1579" 
d="M791 1489q138 0 251 -35h74q48 0 66 27.5t18 109.5h211q0 -124 -28 -187.5t-93 -88.5q107 -103 162 -254t55 -334q0 -217 -85 -389t-249 -272.5t-382 -100.5q-164 0 -300 58.5t-227.5 160.5t-141.5 241.5t-50 301.5t50 301.5t141.5 241.5t227.5 160.5t300 58.5zM367 727
q0 -231 116 -369.5t308 -138.5t306.5 138t114.5 370q0 231 -114.5 369.5t-306.5 138.5t-308 -139t-116 -369zM600 1890q72 21 154 21q100 0 154.5 -44.5t54.5 -121.5q0 -72 -54 -127.5t-137 -81.5l-67 86q92 49 92 94q0 26 -18 36.5t-60 10.5q-55 0 -98 -16z" />
    <glyph glyph-name="uni1EDF" unicode="&#x1edf;" horiz-adv-x="1214" 
d="M608 1081q112 0 205 -34h49q48 0 66 27.5t18 109.5h203q0 -130 -28.5 -194t-98.5 -89q129 -148 129 -377q0 -248 -152 -402.5t-391 -154.5q-240 0 -392.5 154.5t-152.5 402.5t152.5 402.5t392.5 154.5zM334 524q0 -152 74.5 -241.5t199.5 -89.5q124 0 198.5 89.5
t74.5 241.5q0 150 -75 241t-198 91q-124 0 -199 -90.5t-75 -241.5zM418 1483q68 20 153 20q100 0 154.5 -44.5t54.5 -121.5q0 -72 -54 -127.5t-136 -81.5l-68 86q92 49 92 95q0 26 -17.5 36.5t-59.5 10.5q-53 0 -99 -17z" />
    <glyph glyph-name="uni1EE0" unicode="&#x1ee0;" horiz-adv-x="1579" 
d="M791 1489q138 0 251 -35h74q48 0 66 27.5t18 109.5h211q0 -124 -28 -187.5t-93 -88.5q107 -103 162 -254t55 -334q0 -217 -85 -389t-249 -272.5t-382 -100.5q-164 0 -300 58.5t-227.5 160.5t-141.5 241.5t-50 301.5t50 301.5t141.5 241.5t227.5 160.5t300 58.5zM367 727
q0 -231 116 -369.5t308 -138.5t306.5 138t114.5 370q0 231 -114.5 369.5t-306.5 138.5t-308 -139t-116 -369zM436 1587q0 127 62 195.5t151 68.5q44 0 87 -15.5t71 -34.5t61 -34.5t60 -15.5q33 0 50 28.5t17 71.5h150q0 -128 -56.5 -196t-144.5 -68q-50 0 -104.5 25.5
t-102.5 50.5t-80 25t-50.5 -30t-18.5 -71h-152z" />
    <glyph glyph-name="uni1EE1" unicode="&#x1ee1;" horiz-adv-x="1214" 
d="M608 1081q112 0 205 -34h49q48 0 66 27.5t18 109.5h203q0 -130 -28.5 -194t-98.5 -89q129 -148 129 -377q0 -248 -152 -402.5t-391 -154.5q-240 0 -392.5 154.5t-152.5 402.5t152.5 402.5t392.5 154.5zM254 1180q0 127 62 195.5t151 68.5q44 0 87 -16t70.5 -34.5
t60.5 -34.5t60 -16q33 0 50.5 29t17.5 72h150q0 -128 -56.5 -196t-144.5 -68q-50 0 -104.5 25t-102.5 50t-80 25t-50.5 -29.5t-18.5 -70.5h-152zM334 524q0 -152 74.5 -241.5t199.5 -89.5q124 0 198.5 89.5t74.5 241.5q0 150 -75 241t-198 91q-124 0 -199 -90.5t-75 -241.5z
" />
    <glyph glyph-name="uni1EE2" unicode="&#x1ee2;" horiz-adv-x="1579" 
d="M791 1489q138 0 251 -35h74q48 0 66 27.5t18 109.5h211q0 -124 -28 -187.5t-93 -88.5q107 -103 162 -254t55 -334q0 -217 -85 -389t-249 -272.5t-382 -100.5q-164 0 -300 58.5t-227.5 160.5t-141.5 241.5t-50 301.5t50 301.5t141.5 241.5t227.5 160.5t300 58.5zM367 727
q0 -231 116 -369.5t308 -138.5t306.5 138t114.5 370q0 231 -114.5 369.5t-306.5 138.5t-308 -139t-116 -369zM657 -369v250h267v-250h-267z" />
    <glyph glyph-name="uni1EE3" unicode="&#x1ee3;" horiz-adv-x="1214" 
d="M608 1081q112 0 205 -34h49q48 0 66 27.5t18 109.5h203q0 -130 -28.5 -194t-98.5 -89q129 -148 129 -377q0 -248 -152 -402.5t-391 -154.5q-240 0 -392.5 154.5t-152.5 402.5t152.5 402.5t392.5 154.5zM334 524q0 -152 74.5 -241.5t199.5 -89.5q124 0 198.5 89.5
t74.5 241.5q0 150 -75 241t-198 91q-124 0 -199 -90.5t-75 -241.5zM475 -369v250h266v-250h-266z" />
    <glyph glyph-name="uni1EE4" unicode="&#x1ee4;" horiz-adv-x="1445" 
d="M1307 492q0 -270 -153.5 -398.5t-430.5 -128.5t-430.5 128.5t-153.5 398.5v962h287v-952q0 -135 74 -209t223 -74q148 0 222.5 74t74.5 209v952h287v-962zM590 -369v250h266v-250h-266z" />
    <glyph glyph-name="uni1EE5" unicode="&#x1ee5;" horiz-adv-x="1155" 
d="M1038 1047v-1047h-243v111q-87 -144 -308 -144q-187 0 -278.5 90.5t-91.5 241.5v748h266v-674q0 -82 43.5 -128t130.5 -46q100 0 157.5 55.5t57.5 161.5v631h266zM444 -369v250h267v-250h-267z" />
    <glyph glyph-name="uni1EE6" unicode="&#x1ee6;" horiz-adv-x="1445" 
d="M1307 492q0 -270 -153.5 -398.5t-430.5 -128.5t-430.5 128.5t-153.5 398.5v962h287v-952q0 -135 74 -209t223 -74q148 0 222.5 74t74.5 209v952h287v-962zM532 1890q72 21 154 21q100 0 154.5 -44.5t54.5 -121.5q0 -72 -54 -127.5t-136 -81.5l-68 86q92 49 92 94
q0 26 -18 36.5t-60 10.5q-55 0 -98 -16z" />
    <glyph glyph-name="uni1EE7" unicode="&#x1ee7;" horiz-adv-x="1155" 
d="M1038 1047v-1047h-243v111q-87 -144 -308 -144q-187 0 -278.5 90.5t-91.5 241.5v748h266v-674q0 -82 43.5 -128t130.5 -46q100 0 157.5 55.5t57.5 161.5v631h266zM375 1483q68 20 153 20q100 0 154.5 -44.5t54.5 -121.5q0 -72 -54 -127.5t-136 -81.5l-68 86q92 49 92 95
q0 26 -17.5 36.5t-59.5 10.5q-53 0 -99 -17z" />
    <glyph glyph-name="uni1EE8" unicode="&#x1ee8;" horiz-adv-x="1445" 
d="M1307 492q0 -270 -153.5 -398.5t-430.5 -128.5t-430.5 128.5t-153.5 398.5v962h287v-952q0 -135 74 -209t223 -74q148 0 222.5 74t74.5 209v952h188q48 0 66 27.5t18 109.5h203q0 -154 -41.5 -217.5t-146.5 -77.5v-804zM600 1583l141 297h291l-196 -297h-236z" />
    <glyph glyph-name="uni1EE9" unicode="&#x1ee9;" horiz-adv-x="1155" 
d="M887 1473l-197 -297h-235l141 297h291zM117 299v748h266v-674q0 -82 43.5 -128t130.5 -46q100 0 157.5 55.5t57.5 161.5v631h195q48 0 66 27.5t18 109.5h202q0 -163 -46 -225.5t-169 -73.5v-885h-243v111q-87 -144 -308 -144q-187 0 -278.5 90.5t-91.5 241.5z" />
    <glyph glyph-name="uni1EEA" unicode="&#x1eea;" horiz-adv-x="1445" 
d="M1307 492q0 -270 -153.5 -398.5t-430.5 -128.5t-430.5 128.5t-153.5 398.5v962h287v-952q0 -135 74 -209t223 -74q148 0 222.5 74t74.5 209v952h188q48 0 66 27.5t18 109.5h203q0 -154 -41.5 -217.5t-146.5 -77.5v-804zM414 1880h291l141 -297h-236z" />
    <glyph glyph-name="uni1EEB" unicode="&#x1eeb;" horiz-adv-x="1155" 
d="M268 1473h291l141 -297h-235zM117 299v748h266v-674q0 -82 43.5 -128t130.5 -46q100 0 157.5 55.5t57.5 161.5v631h195q48 0 66 27.5t18 109.5h202q0 -163 -46 -225.5t-169 -73.5v-885h-243v111q-87 -144 -308 -144q-187 0 -278.5 90.5t-91.5 241.5z" />
    <glyph glyph-name="uni1EEC" unicode="&#x1eec;" horiz-adv-x="1445" 
d="M1307 492q0 -270 -153.5 -398.5t-430.5 -128.5t-430.5 128.5t-153.5 398.5v962h287v-952q0 -135 74 -209t223 -74q148 0 222.5 74t74.5 209v952h188q48 0 66 27.5t18 109.5h203q0 -154 -41.5 -217.5t-146.5 -77.5v-804zM532 1890q72 21 154 21q100 0 154.5 -44.5
t54.5 -121.5q0 -72 -54 -127.5t-136 -81.5l-68 86q92 49 92 94q0 26 -18 36.5t-60 10.5q-55 0 -98 -16z" />
    <glyph glyph-name="uni1EED" unicode="&#x1eed;" horiz-adv-x="1155" 
d="M387 1483q68 20 154 20q100 0 154.5 -44.5t54.5 -121.5q0 -72 -54 -127.5t-137 -81.5l-67 86q92 49 92 95q0 26 -18 36.5t-60 10.5q-52 0 -98 -17zM117 299v748h266v-674q0 -82 43.5 -128t130.5 -46q100 0 157.5 55.5t57.5 161.5v631h195q48 0 66 27.5t18 109.5h202
q0 -163 -46 -225.5t-169 -73.5v-885h-243v111q-87 -144 -308 -144q-187 0 -278.5 90.5t-91.5 241.5z" />
    <glyph glyph-name="uni1EEE" unicode="&#x1eee;" horiz-adv-x="1445" 
d="M1307 492q0 -270 -153.5 -398.5t-430.5 -128.5t-430.5 128.5t-153.5 398.5v962h287v-952q0 -135 74 -209t223 -74q148 0 222.5 74t74.5 209v952h188q48 0 66 27.5t18 109.5h203q0 -154 -41.5 -217.5t-146.5 -77.5v-804zM369 1587q0 127 62 195.5t151 68.5q56 0 108 -25
t94.5 -50t75.5 -25t50.5 28.5t17.5 71.5h149q0 -128 -56 -196t-144 -68q-50 0 -104.5 25.5t-102.5 50.5t-80 25t-51 -30t-19 -71h-151z" />
    <glyph glyph-name="uni1EEF" unicode="&#x1eef;" horiz-adv-x="1155" 
d="M436 1444q44 0 87 -16t71 -34.5t61 -34.5t60 -16q33 0 50 29t17 72h150q0 -128 -56.5 -196t-144.5 -68q-50 0 -104.5 25t-102.5 50t-80 25t-50.5 -29.5t-18.5 -70.5h-152q0 127 62 195.5t151 68.5zM117 299v748h266v-674q0 -82 43.5 -128t130.5 -46q100 0 157.5 55.5
t57.5 161.5v631h195q48 0 66 27.5t18 109.5h202q0 -163 -46 -225.5t-169 -73.5v-885h-243v111q-87 -144 -308 -144q-187 0 -278.5 90.5t-91.5 241.5z" />
    <glyph glyph-name="uni1EF0" unicode="&#x1ef0;" horiz-adv-x="1445" 
d="M1307 492q0 -270 -153.5 -398.5t-430.5 -128.5t-430.5 128.5t-153.5 398.5v962h287v-952q0 -135 74 -209t223 -74q148 0 222.5 74t74.5 209v952h188q48 0 66 27.5t18 109.5h203q0 -154 -41.5 -217.5t-146.5 -77.5v-804zM590 -369v250h266v-250h-266z" />
    <glyph glyph-name="uni1EF1" unicode="&#x1ef1;" horiz-adv-x="1155" 
d="M711 -119v-250h-267v250h267zM117 299v748h266v-674q0 -82 43.5 -128t130.5 -46q100 0 157.5 55.5t57.5 161.5v631h195q48 0 66 27.5t18 109.5h202q0 -163 -46 -225.5t-169 -73.5v-885h-243v111q-87 -144 -308 -144q-187 0 -278.5 90.5t-91.5 241.5z" />
    <glyph glyph-name="Ygrave" unicode="&#x1ef2;" horiz-adv-x="1345" 
d="M1329 1454l-514 -844v-610h-287v612l-512 842h316l346 -590l346 590h305zM365 1880h290l142 -297h-236z" />
    <glyph glyph-name="ygrave" unicode="&#x1ef3;" horiz-adv-x="1067" 
d="M643 -117q-52 -152 -135.5 -217t-226.5 -65q-114 0 -201 26l45 199q66 -12 123 -12q123 0 166 131l-394 1102h279l92 -275q109 -330 150 -471q98 326 145 473l90 273h271zM225 1473h291l141 -297h-235z" />
    <glyph glyph-name="uni1EF4" unicode="&#x1ef4;" horiz-adv-x="1345" 
d="M1329 1454l-514 -844v-610h-287v612l-512 842h316l346 -590l346 590h305zM541 -369v250h266v-250h-266z" />
    <glyph glyph-name="uni1EF5" unicode="&#x1ef5;" horiz-adv-x="1067" 
d="M643 -117q-52 -152 -135.5 -217t-226.5 -65q-114 0 -201 26l45 199q66 -12 123 -12q123 0 166 131l-394 1102h279l92 -275q109 -330 150 -471q98 326 145 473l90 273h271zM717 -369v250h266v-250h-266z" />
    <glyph glyph-name="uni1EF6" unicode="&#x1ef6;" horiz-adv-x="1345" 
d="M1329 1454l-514 -844v-610h-287v612l-512 842h316l346 -590l346 590h305zM483 1890q72 21 154 21q100 0 154.5 -44.5t54.5 -121.5q0 -72 -54 -127.5t-137 -81.5l-67 86q92 49 92 94q0 26 -18 36.5t-60 10.5q-55 0 -98 -16z" />
    <glyph glyph-name="uni1EF7" unicode="&#x1ef7;" horiz-adv-x="1067" 
d="M643 -117q-52 -152 -135.5 -217t-226.5 -65q-114 0 -201 26l45 199q66 -12 123 -12q123 0 166 131l-394 1102h279l92 -275q109 -330 150 -471q98 326 145 473l90 273h271zM344 1483q68 20 154 20q100 0 154.5 -44.5t54.5 -121.5q0 -72 -54 -127.5t-137 -81.5l-67 86
q92 49 92 95q0 26 -18 36.5t-60 10.5q-52 0 -98 -17z" />
    <glyph glyph-name="uni1EF8" unicode="&#x1ef8;" horiz-adv-x="1345" 
d="M1329 1454l-514 -844v-610h-287v612l-512 842h316l346 -590l346 590h305zM319 1587q0 127 62 195.5t151 68.5q44 0 87 -15.5t71 -34.5t61 -34.5t60 -15.5q33 0 50.5 28.5t17.5 71.5h149q0 -128 -56.5 -196t-144.5 -68q-50 0 -104.5 25.5t-102 50.5t-79.5 25t-51 -30
t-19 -71h-152z" />
    <glyph glyph-name="uni1EF9" unicode="&#x1ef9;" horiz-adv-x="1067" 
d="M643 -117q-52 -152 -135.5 -217t-226.5 -65q-114 0 -201 26l45 199q66 -12 123 -12q123 0 166 131l-394 1102h279l92 -275q109 -330 150 -471q98 326 145 473l90 273h271zM180 1180q0 127 62 195.5t151 68.5q44 0 87 -16t71 -34.5t61 -34.5t60 -16q33 0 50 29t17 72h150
q0 -128 -56.5 -196t-144.5 -68q-50 0 -104.5 25t-102.5 50t-80 25t-50.5 -29.5t-18.5 -70.5h-152z" />
    <glyph glyph-name="uni2009" unicode="&#x2009;" horiz-adv-x="225" 
 />
    <glyph glyph-name="endash" unicode="&#x2013;" horiz-adv-x="1509" 
d="M1386 709v-228h-1263v228h1263z" />
    <glyph glyph-name="emdash" unicode="&#x2014;" horiz-adv-x="2019" 
d="M1876 709v-228h-1733v228h1733z" />
    <glyph glyph-name="quoteleft" unicode="&#x2018;" horiz-adv-x="464" 
d="M82 883v282l158 289h147l-143 -289h135v-282h-297z" />
    <glyph glyph-name="quoteright" unicode="&#x2019;" horiz-adv-x="464" 
d="M383 1454v-283l-158 -288h-147l143 288h-135v283h297z" />
    <glyph glyph-name="quotesinglbase" unicode="&#x201a;" horiz-adv-x="460" 
d="M379 293v-293l-156 -279h-145l135 279h-131v293h297z" />
    <glyph glyph-name="quotedblleft" unicode="&#x201c;" horiz-adv-x="911" 
d="M82 883v282l158 289h147l-143 -289h135v-282h-297zM528 883v282l158 289h148l-144 -289h135v-282h-297z" />
    <glyph glyph-name="quotedblright" unicode="&#x201d;" horiz-adv-x="911" 
d="M383 1454v-283l-158 -288h-147l143 288h-135v283h297zM524 883l144 288h-136v283h297v-283l-157 -288h-148z" />
    <glyph glyph-name="quotedblbase" unicode="&#x201e;" horiz-adv-x="907" 
d="M379 293v-293l-156 -279h-145l135 279h-131v293h297zM524 -279l135 279h-131v293h297v-293l-155 -279h-146z" />
    <glyph glyph-name="dagger" unicode="&#x2020;" horiz-adv-x="1208" 
d="M741 1454v-510h385v-242h-385v-1105h-274v1105h-385v242h385v510h274z" />
    <glyph glyph-name="daggerdbl" unicode="&#x2021;" horiz-adv-x="1208" 
d="M741 1454v-407h385v-242h-385v-377h385v-242h-385v-589h-274v589h-385v242h385v377h-385v242h385v407h274z" />
    <glyph glyph-name="bullet" unicode="&#x2022;" horiz-adv-x="1062" 
d="M532 999q163 0 280.5 -116.5t117.5 -280.5q0 -162 -118 -279.5t-280 -117.5q-164 0 -280.5 117.5t-116.5 279.5q0 164 116.5 280.5t280.5 116.5z" />
    <glyph glyph-name="ellipsis" unicode="&#x2026;" horiz-adv-x="1468" 
d="M393 297v-297h-291v297h291zM588 0v297h291v-297h-291zM1075 0v297h291v-297h-291z" />
    <glyph glyph-name="perthousand" unicode="&#x2030;" horiz-adv-x="2625" 
d="M1313 1427l153 -96l-960 -1366l-152 98zM102 1075q0 150 96.5 246t243.5 96t244.5 -96t97.5 -246q0 -152 -97 -248t-245 -96t-244 96t-96 248zM285 1075q0 -81 42.5 -131.5t114.5 -50.5q74 0 117 50.5t43 131.5q0 78 -43.5 129t-116.5 51q-72 0 -114.5 -51t-42.5 -129z
M1022 322q0 150 96.5 246t243.5 96t244.5 -96t97.5 -246q0 -152 -97 -248.5t-245 -96.5t-244 96.5t-96 248.5zM1204 322q0 -81 43 -132t115 -51q74 0 117 51t43 132q0 78 -43.5 129t-116.5 51q-72 0 -115 -51t-43 -129zM1810 322q0 150 96.5 246t243.5 96t244.5 -96
t97.5 -246q0 -152 -97 -248.5t-245 -96.5t-244 96.5t-96 248.5zM1993 322q0 -81 42.5 -132t114.5 -51q74 0 117 51t43 132q0 78 -43.5 129t-116.5 51q-72 0 -114.5 -51t-42.5 -129z" />
    <glyph glyph-name="guilsinglleft" unicode="&#x2039;" horiz-adv-x="778" 
d="M655 979l-299 -461l299 -461h-249l-293 461l293 461h249z" />
    <glyph glyph-name="guilsinglright" unicode="&#x203a;" horiz-adv-x="778" 
d="M123 979h250l293 -461l-293 -461h-250l289 461z" />
    <glyph glyph-name="fraction" unicode="&#x2044;" horiz-adv-x="456" 
d="M631 1427l153 -96l-960 -1366l-152 98z" />
    <glyph glyph-name="uni2070" unicode="&#x2070;" horiz-adv-x="817" 
d="M410 698q-173 0 -264 123t-91 318t91 317.5t264 122.5q171 0 260.5 -122t89.5 -318t-89.5 -318.5t-260.5 -122.5zM252 1139q0 -131 41 -202t117 -71q75 0 114 71t39 202t-39 201.5t-114 70.5q-76 0 -117 -70.5t-41 -201.5z" />
    <glyph glyph-name="uni2074" unicode="&#x2074;" horiz-adv-x="811" 
d="M459 721v178h-402v180l320 477h205l-332 -505h209v159h190v-159h111v-152h-111v-178h-190z" />
    <glyph glyph-name="uni2075" unicode="&#x2075;" horiz-adv-x="811" 
d="M414 698q-95 0 -179 26t-188 87l92 139q155 -84 262 -84q69 0 112.5 32t43.5 95q0 56 -39 87.5t-112 31.5q-88 0 -152 -53l-154 16l43 481h568v-161h-408l-18 -174q71 49 184 49q128 0 207.5 -80t79.5 -184q0 -143 -94.5 -225.5t-247.5 -82.5z" />
    <glyph glyph-name="uni2076" unicode="&#x2076;" horiz-adv-x="813" 
d="M412 698q-166 0 -260.5 95.5t-94.5 255.5q0 277 289 507h258v-2q-134 -101 -211.5 -178.5t-111.5 -158.5q67 67 182 67q129 0 212 -83.5t83 -201.5q0 -119 -93.5 -210t-252.5 -91zM254 995q0 -59 43 -94t115 -35q73 0 116 35.5t43 93.5q0 57 -42 93t-113 36t-116.5 -36.5
t-45.5 -92.5z" />
    <glyph glyph-name="uni2077" unicode="&#x2077;" horiz-adv-x="759" 
d="M190 721q11 177 104 359.5t212 314.5h-453v161h676v-143q-296 -331 -328 -692h-211z" />
    <glyph glyph-name="uni2078" unicode="&#x2078;" horiz-adv-x="817" 
d="M408 700q-165 0 -258 72t-93 182q0 73 39 128.5t111 86.5q-55 28 -85 75t-30 106q0 100 87 166.5t229 66.5t228.5 -66.5t86.5 -166.5q0 -121 -115 -183q72 -31 111 -86t39 -127q0 -110 -92.5 -182t-257.5 -72zM250 973q0 -50 41.5 -82.5t116.5 -32.5t116 32.5t41 82.5
t-41.5 85.5t-115.5 35.5t-116 -35.5t-42 -85.5zM272 1333q0 -42 38.5 -72t97.5 -30q60 0 96.5 29.5t36.5 72.5q0 42 -37 69.5t-96 27.5t-97.5 -27.5t-38.5 -69.5z" />
    <glyph glyph-name="uni2079" unicode="&#x2079;" horiz-adv-x="811" 
d="M209 723q128 98 204.5 174.5t110.5 155.5q-69 -60 -176 -60q-130 0 -213.5 83.5t-83.5 201.5q0 119 94 210t252 91q167 0 261 -95t94 -255q0 -278 -289 -508h-254v2zM240 1282q0 -57 42 -93t113 -36q70 0 116 36.5t46 92.5q0 58 -44 93.5t-116 35.5q-71 0 -114 -35.5
t-43 -93.5z" />
    <glyph glyph-name="uni2080" unicode="&#x2080;" horiz-adv-x="817" 
d="M410 -223q-173 0 -264 122.5t-91 317.5t91 317.5t264 122.5q171 0 260.5 -122t89.5 -318t-89.5 -318t-260.5 -122zM252 217q0 -131 41 -201.5t117 -70.5q75 0 114 70.5t39 201.5t-39 201.5t-114 70.5q-76 0 -117 -70.5t-41 -201.5z" />
    <glyph glyph-name="uni2081" unicode="&#x2081;" horiz-adv-x="653" 
d="M276 -201v609l-131 -93l-94 129l268 191h150v-836h-193z" />
    <glyph glyph-name="uni2082" unicode="&#x2082;" horiz-adv-x="815" 
d="M66 -123q0 67 21 121t64 95t83.5 67.5t103.5 58.5q19 10 56.5 28t54 27t42.5 25t37 28.5t20 31t9 38.5q0 42 -36.5 67t-98.5 25q-59 0 -114.5 -23t-129.5 -79l-100 127q158 143 346 143q151 0 238.5 -75t87.5 -179q0 -26 -4.5 -49.5t-10 -42t-18.5 -37t-23 -31.5t-31 -29
t-34 -25.5t-41 -25t-43 -23t-48.5 -24.5t-50.5 -26q-9 -5 -33 -17.5t-33.5 -18l-28.5 -16.5t-28.5 -18t-22 -17.5t-20 -20.5t-12.5 -21h477v-162h-679v78z" />
    <glyph glyph-name="uni2083" unicode="&#x2083;" horiz-adv-x="806" 
d="M399 -223q-190 0 -356 110l92 136q85 -44 144 -61t118 -17q69 0 107.5 29t38.5 81q0 55 -48 84t-126 29q-67 0 -99 -12l-82 112l271 205h-371v162h610v-160l-231 -172q121 -8 196.5 -75.5t75.5 -172.5q0 -115 -91 -196.5t-249 -81.5z" />
    <glyph glyph-name="uni2084" unicode="&#x2084;" horiz-adv-x="811" 
d="M459 -201v178h-402v181l320 477h205l-332 -506h209v160h190v-160h111v-152h-111v-178h-190z" />
    <glyph glyph-name="uni2085" unicode="&#x2085;" horiz-adv-x="811" 
d="M414 -223q-96 0 -179.5 25.5t-187.5 86.5l92 140q155 -84 262 -84q69 0 112.5 32t43.5 95q0 56 -39 87t-112 31q-88 0 -152 -53l-154 17l43 481h568v-162h-408l-18 -174q71 49 184 49q128 0 207.5 -80t79.5 -184q0 -143 -94.5 -225t-247.5 -82z" />
    <glyph glyph-name="uni2086" unicode="&#x2086;" horiz-adv-x="813" 
d="M412 -223q-166 0 -260.5 95t-94.5 255q0 278 289 508h258v-2q-133 -100 -211 -178t-112 -160q67 67 182 67q129 0 212 -83t83 -201q0 -119 -93.5 -210t-252.5 -91zM254 74q0 -59 43 -94t115 -35q73 0 116 35.5t43 93.5q0 57 -42 93t-113 36t-116.5 -36.5t-45.5 -92.5z
" />
    <glyph glyph-name="uni2087" unicode="&#x2087;" horiz-adv-x="759" 
d="M190 -201q11 177 104 359.5t212 314.5h-453v162h676v-143q-296 -330 -328 -693h-211z" />
    <glyph glyph-name="uni2088" unicode="&#x2088;" horiz-adv-x="817" 
d="M408 -221q-165 0 -258 72t-93 182q0 73 39 128.5t111 86.5q-115 59 -115 180q0 100 87 167t229 67t228.5 -67t86.5 -167q0 -120 -115 -182q72 -31 111 -86t39 -127q0 -110 -92.5 -182t-257.5 -72zM250 51q0 -49 41.5 -81.5t116.5 -32.5t116 32t41 82t-41.5 85.5
t-115.5 35.5t-116 -35.5t-42 -85.5zM272 412q0 -42 38.5 -72.5t97.5 -30.5q60 0 96.5 30t36.5 73q0 42 -37 69t-96 27q-60 0 -98 -27t-38 -69z" />
    <glyph glyph-name="uni2089" unicode="&#x2089;" horiz-adv-x="811" 
d="M209 -199q128 98 204.5 174.5t110.5 155.5q-68 -59 -176 -59q-131 0 -214 83t-83 201q0 119 94 210t252 91q167 0 261 -95t94 -255q0 -278 -289 -508h-254v2zM240 360q0 -57 42 -93t113 -36q70 0 116 36.5t46 92.5q0 58 -44 93.5t-116 35.5q-71 0 -114 -35.5t-43 -93.5z
" />
    <glyph glyph-name="Euro" unicode="&#x20ac;" horiz-adv-x="1290" 
d="M821 1427q130 0 225.5 -34.5t192.5 -112.5l-145 -184q-83 57 -138 76.5t-135 19.5q-90 0 -157.5 -59t-102.5 -168h457v-185h-492q-2 -27 -2 -84v-49h494v-184h-467q34 -127 103 -194.5t167 -67.5q80 0 135 19.5t138 76.5l145 -184q-98 -78 -193.5 -113t-224.5 -35
q-214 0 -358 135.5t-195 362.5h-145v184h121v49q0 57 2 84h-123v185h153q57 212 198 337t347 125z" />
    <glyph glyph-name="uni20B9" unicode="&#x20b9;" horiz-adv-x="1208" 
d="M502 743q174 0 213 134h-555v174h547q-47 112 -205 112h-342v230h973v-174h-218q53 -71 68 -168h150v-174h-148q-28 -160 -150.5 -251t-310.5 -91h-22l526 -535h-362l-506 535v208h342z" />
    <glyph glyph-name="uni20BA" unicode="&#x20ba;" horiz-adv-x="1208" 
d="M1143 469q-24 -127 -63 -211t-107.5 -144t-172.5 -87t-255 -27h-285v481l-182 -80v195l182 80v155l-182 -79v194l182 80v367h277v-244l280 123v-195l-280 -123v-155l280 123v-195l-280 -123v-368h14q77 0 128 10.5t95.5 39t73 83.5t45.5 141l25 119l247 -41z" />
    <glyph glyph-name="uni20BD" unicode="&#x20bd;" horiz-adv-x="1249" 
d="M680 743q102 0 162.5 56.5t60.5 152.5q0 98 -60.5 154.5t-162.5 56.5h-158v-420h158zM72 227v174h174v134h-174v208h174v650h456q213 0 340 -116.5t127 -313.5t-127 -312.5t-340 -115.5h-180v-134h387v-174h-387v-227h-276v227h-174z" />
    <glyph glyph-name="uni2116" unicode="&#x2116;" horiz-adv-x="2222" 
d="M150 0v1454h313l383 -627q157 -248 248 -419q-11 212 -11 518v528h281v-1454h-307l-363 590q-175 283 -278 477q14 -238 14 -567v-500h-280zM1524 1124q0 154 97 250t247 96t247 -96t97 -250q0 -153 -97 -248.5t-247 -95.5t-247 95.5t-97 248.5zM1546 539v157h641v-157
h-641zM1714 1124q0 -88 45 -136t109 -48q65 0 110 47.5t45 136.5t-45.5 138t-109.5 49q-63 0 -108.5 -49t-45.5 -138z" />
    <glyph glyph-name="uni2117" unicode="&#x2117;" horiz-adv-x="1753" 
d="M877 -27q-157 0 -297 58t-240 157.5t-158.5 239.5t-58.5 299t58.5 299t158.5 239.5t240 157.5t297 58q210 0 382.5 -98t271.5 -271t99 -385t-99 -385t-271.5 -271t-382.5 -98zM268 727q0 -131 46 -246.5t125.5 -199t193.5 -131.5t244 -48q174 0 313.5 82t217 225
t77.5 318t-77.5 318t-217 225t-313.5 82q-130 0 -244 -48t-193.5 -131.5t-125.5 -199t-46 -246.5zM602 305v848h346q120 0 196.5 -75.5t76.5 -190.5q0 -258 -273 -258h-194v-324h-152zM754 756h164q77 0 115 34.5t38 96.5q0 60 -38 94.5t-115 34.5h-164v-260z" />
    <glyph glyph-name="trademark" unicode="&#x2122;" horiz-adv-x="1953" 
d="M1831 1454v-792h-160v569l-225 -569h-146l-233 561v-561h-162v792h228l241 -586l230 586h227zM61 1305v149h701v-149h-262v-643h-174v643h-265z" />
    <glyph glyph-name="uni2126" unicode="&#x2126;" horiz-adv-x="1574" 
d="M76 0v242h223q-225 176 -225 501q0 213 85 381.5t248.5 266.5t380.5 98t381 -98t249 -266.5t85 -381.5q0 -325 -225 -501h221v-242h-575v242q284 132 284 497q0 227 -114 361.5t-306 134.5q-191 0 -306 -134.5t-115 -361.5q0 -365 284 -497v-242h-575z" />
    <glyph glyph-name="uni2154" unicode="&#x2154;" horiz-adv-x="2119" 
d="M66 635q0 67 21 121t64 95t83.5 67.5t103.5 58.5q19 10 56.5 28t54 27t42.5 25t37 28.5t20 31t9 38.5q0 42 -36.5 67t-98.5 25q-59 0 -114.5 -23t-129.5 -79l-100 127q158 143 346 143q151 0 238.5 -75t87.5 -179q0 -26 -4.5 -49.5t-10 -42t-18.5 -37t-23 -31.5t-31 -29
t-34 -25.5t-41 -25t-43 -23t-48.5 -24.5t-50.5 -26q-9 -5 -33 -17.5t-33.5 -18l-28.5 -16.5t-28.5 -18t-22 -17.5t-20 -20.5t-12.5 -21h477v-162h-679v78zM528 63l959 1364l153 -96l-960 -1366zM1356 88l92 135q85 -44 144 -61t118 -17q69 0 107 29t38 82q0 55 -48 84
t-126 29q-63 0 -98 -13l-82 113l271 205h-371v162h610v-160l-231 -172q121 -8 196.5 -75.5t75.5 -172.5q0 -115 -91 -197t-249 -82q-188 0 -356 111z" />
    <glyph glyph-name="oneeighth" unicode="&#x215b;" horiz-adv-x="1927" 
d="M276 557v608l-131 -92l-94 129l268 191h150v-836h-193zM326 63l958 1364l154 -96l-961 -1366zM1167 229q0 73 39 128.5t111 86.5q-55 28 -85 75t-30 106q0 100 87 166.5t229 66.5t228.5 -66.5t86.5 -166.5q0 -121 -115 -183q72 -31 111 -86t39 -127q0 -110 -92.5 -182
t-257.5 -72t-258 72t-93 182zM1360 248q0 -50 41.5 -82.5t116.5 -32.5t116 32.5t41 82.5t-41.5 85.5t-115.5 35.5t-116 -35.5t-42 -85.5zM1382 608q0 -42 38.5 -72t97.5 -30q60 0 96.5 29.5t36.5 72.5q0 42 -37 69.5t-96 27.5t-97.5 -27.5t-38.5 -69.5z" />
    <glyph glyph-name="threeeighths" unicode="&#x215c;" horiz-adv-x="2080" 
d="M399 535q-190 0 -356 110l92 135q85 -44 144 -61t118 -17q69 0 107.5 29.5t38.5 81.5q0 55 -48 84t-126 29q-64 0 -99 -13l-82 113l271 205h-371v162h610v-160l-231 -172q121 -8 196.5 -75.5t75.5 -172.5q0 -115 -91 -196.5t-249 -81.5zM479 63l959 1364l153 -96
l-960 -1366zM1321 229q0 73 38.5 128.5t110.5 86.5q-114 59 -114 181q0 100 86.5 166.5t228.5 66.5t229 -66.5t87 -166.5q0 -121 -115 -183q71 -31 110 -85.5t39 -127.5q0 -110 -92.5 -182t-257.5 -72t-257.5 72t-92.5 182zM1513 248q0 -50 41.5 -82.5t116.5 -32.5
t116.5 32.5t41.5 82.5t-42 85.5t-116 35.5t-116 -35.5t-42 -85.5zM1536 608q0 -42 38 -72t97 -30q60 0 96.5 29.5t36.5 72.5q0 42 -37 69.5t-96 27.5t-97 -27.5t-38 -69.5z" />
    <glyph glyph-name="fiveeighths" unicode="&#x215d;" horiz-adv-x="2084" 
d="M414 535q-96 0 -179.5 25.5t-187.5 86.5l92 139q155 -84 262 -84q69 0 112.5 32t43.5 95q0 56 -39 87.5t-112 31.5q-88 0 -152 -53l-154 16l43 482h568v-162h-408l-18 -174q71 49 184 49q128 0 207.5 -80t79.5 -184q0 -143 -94.5 -225t-247.5 -82zM483 63l959 1364
l153 -96l-960 -1366zM1325 229q0 73 39 128.5t111 86.5q-55 28 -85 75t-30 106q0 100 86.5 166.5t228.5 66.5t229 -66.5t87 -166.5q0 -121 -115 -183q71 -31 110 -85.5t39 -127.5q0 -110 -92.5 -182t-257.5 -72t-257.5 72t-92.5 182zM1518 248q0 -50 41 -82.5t116 -32.5
t116.5 32.5t41.5 82.5t-42 85.5t-116 35.5t-115.5 -35.5t-41.5 -85.5zM1540 608q0 -42 38 -72t97 -30q60 0 96.5 29.5t36.5 72.5q0 42 -37 69.5t-96 27.5t-97 -27.5t-38 -69.5z" />
    <glyph glyph-name="seveneighths" unicode="&#x215e;" horiz-adv-x="1898" 
d="M190 557q11 177 104 359.5t212 314.5h-453v162h676v-144q-296 -331 -328 -692h-211zM297 63l958 1364l154 -96l-960 -1366zM1139 229q0 73 38.5 128.5t110.5 86.5q-114 59 -114 181q0 100 86.5 166.5t228.5 66.5t228.5 -66.5t86.5 -166.5q0 -121 -114 -183
q71 -31 110 -85.5t39 -127.5q0 -110 -92.5 -182t-257.5 -72t-257.5 72t-92.5 182zM1331 248q0 -50 41.5 -82.5t116.5 -32.5t116.5 32.5t41.5 82.5t-42 85.5t-116 35.5t-116 -35.5t-42 -85.5zM1354 608q0 -42 38 -72t97 -30q60 0 96.5 29.5t36.5 72.5q0 42 -37 69.5t-96 27.5
t-97 -27.5t-38 -69.5z" />
    <glyph glyph-name="arrowleft" unicode="&#x2190;" horiz-adv-x="1904" 
d="M762 -10l-701 702l701 701l158 -158l-439 -432h1301v-223h-1299l437 -430z" />
    <glyph glyph-name="arrowup" unicode="&#x2191;" horiz-adv-x="1523" 
d="M236 733l-154 154l680 680l680 -680l-152 -154l-407 412v-1145h-240v1147z" />
    <glyph glyph-name="arrowright" unicode="&#x2192;" horiz-adv-x="1904" 
d="M1143 -10l-158 160l436 430h-1298v223h1300l-438 432l158 158l700 -701z" />
    <glyph glyph-name="arrowdown" unicode="&#x2193;" horiz-adv-x="1523" 
d="M762 -113l-680 680l154 154l407 -414v1147h240v-1145l407 412l152 -154z" />
    <glyph glyph-name="uni2196" unicode="&#x2196;" horiz-adv-x="1542" 
d="M1321 117l-959 960v-647h-219v1024h1024v-217h-649l963 -963z" />
    <glyph glyph-name="uni2197" unicode="&#x2197;" horiz-adv-x="1542" 
d="M221 117l-160 157l963 963h-649v217h1024v-1024h-219v647z" />
    <glyph glyph-name="uni2198" unicode="&#x2198;" horiz-adv-x="1542" 
d="M375 0v217h649l-963 963l160 157l959 -960v647h219v-1024h-1024z" />
    <glyph glyph-name="uni2199" unicode="&#x2199;" horiz-adv-x="1542" 
d="M143 0v1024h219v-647l959 960l160 -157l-963 -963h649v-217h-1024z" />
    <glyph glyph-name="partialdiff" unicode="&#x2202;" horiz-adv-x="1165" 
d="M315 1489q174 -23 309.5 -81.5t224.5 -140.5t146.5 -191t82 -225.5t24.5 -250.5q0 -302 -143 -468.5t-388 -166.5q-121 0 -219 42.5t-160 115t-95.5 164.5t-33.5 194q0 99 31.5 187.5t88.5 156.5t144 108t191 40q178 0 291 -113q-121 328 -551 385zM330 475
q0 -120 65.5 -198t175.5 -78q109 0 178.5 79t69.5 197q0 116 -72 194.5t-180 78.5t-172.5 -77.5t-64.5 -195.5z" />
    <glyph glyph-name="uni2206" unicode="&#x2206;" horiz-adv-x="1458" 
d="M541 1454h377l522 -1454h-1420zM389 238h672l-156 458q-127 367 -182 553q-54 -200 -178 -557z" />
    <glyph glyph-name="product" unicode="&#x220f;" horiz-adv-x="1480" 
d="M1331 1454v-1679h-287v1437h-608v-1437h-286v1679h1181z" />
    <glyph glyph-name="summation" unicode="&#x2211;" horiz-adv-x="1236" 
d="M1124 1454v-237h-686l492 -605l-496 -614h742v-238h-1074v228l488 624l-484 615v227h1018z" />
    <glyph glyph-name="minus" unicode="&#x2212;" horiz-adv-x="1228" 
d="M1147 750v-230h-1065v230h1065z" />
    <glyph glyph-name="radical" unicode="&#x221a;" horiz-adv-x="1304" 
d="M406 0l-365 1047h297l258 -760l377 1167h295l-502 -1454h-360z" />
    <glyph glyph-name="infinity" unicode="&#x221e;" horiz-adv-x="1691" 
d="M1219 963q152 0 257 -106t105 -263t-104 -262t-256 -105q-96 0 -196.5 53.5t-184.5 151.5q-170 -205 -367 -205q-151 0 -255.5 105t-104.5 262t105.5 263t258.5 106q206 0 381 -209q169 209 361 209zM332 592q0 -68 44 -112t103 -44q116 0 238 142q-77 94 -125.5 132
t-112.5 38q-58 0 -102.5 -44t-44.5 -112zM981 602q35 -42 58 -67t54 -50.5t62 -37t66 -11.5q57 0 99 43.5t42 112.5q0 68 -43 112t-102 44q-63 0 -118.5 -35.5t-117.5 -110.5z" />
    <glyph glyph-name="integral" unicode="&#x222b;" horiz-adv-x="1228" 
d="M709 -47q0 -182 -82 -267t-244 -85q-116 0 -215 30l47 199q69 -14 117 -14q59 0 84.5 30.5t25.5 100.5v1200q0 170 87.5 255t252.5 85q114 0 224 -37l-48 -199q-78 17 -122 17q-65 0 -96 -31t-31 -104v-1180z" />
    <glyph glyph-name="approxequal" unicode="&#x2248;" horiz-adv-x="1249" 
d="M414 997q67 0 143 -27.5t147 -55t127 -27.5q54 0 96 18.5t107 79.5l123 -162q-95 -95 -159.5 -127t-153.5 -32q-63 0 -137 27.5l-148 55t-135 27.5q-58 0 -100.5 -22t-108.5 -78l-123 162q88 88 160.5 124.5t161.5 36.5zM92 426q88 88 160.5 125t161.5 37q54 0 114 -17.5
t104.5 -38t99.5 -38t99 -17.5q54 0 96 18.5t107 79.5l123 -161q-95 -95 -159.5 -127.5t-153.5 -32.5q-50 0 -107.5 17.5t-101 38t-102 38t-109.5 17.5q-57 0 -100 -22.5t-109 -78.5z" />
    <glyph glyph-name="notequal" unicode="&#x2260;" horiz-adv-x="1228" 
d="M911 1159l-73 -205h309v-229h-393l-66 -180h459v-230h-543l-74 -202h-225l74 202h-297v230h381l65 180h-446v229h530l74 205h225z" />
    <glyph glyph-name="lessequal" unicode="&#x2264;" horiz-adv-x="1228" 
d="M1106 1227v-234l-682 -235l682 -236v-233l-983 368v201zM82 0v229h1065v-229h-1065z" />
    <glyph glyph-name="greaterequal" unicode="&#x2265;" horiz-adv-x="1228" 
d="M123 1227l983 -369v-201l-983 -368v233l682 236l-682 235v234zM82 0v229h1065v-229h-1065z" />
    <glyph glyph-name="lozenge" unicode="&#x25ca;" horiz-adv-x="1261" 
d="M764 1454l436 -729l-436 -725h-266l-437 725l437 729h266zM344 725l287 -473l284 473l-284 477z" />
    <glyph glyph-name="uni2923" unicode="&#x2923;" horiz-adv-x="1335" 
d="M408 -94q189 200 257 286q156 198 165 354q1 10 1 21q0 78 -26.5 155t-83.5 158.5t-112.5 146.5t-147.5 161v-420h-215v799h798v-211h-415q65 -68 99.5 -104.5t91.5 -101.5t88.5 -109t71.5 -108t60.5 -117.5t35 -118.5t14.5 -130q0 -64 -17 -132t-34.5 -118t-67.5 -124.5
t-73 -109.5t-97 -118t-94 -104.5t-107 -111.5q-9 -10 -14 -15z" />
    <glyph glyph-name="uni2924" unicode="&#x2924;" horiz-adv-x="1335" 
d="M750 -266q-195 203 -273 299q-200 248 -226 462q-5 36 -5 72q0 65 14.5 130t35 118.5t60.5 117.5t71.5 108t88.5 109t91.5 101.5t99.5 104.5h-416v211h799v-799h-216v420q-92 -96 -147.5 -161t-112.5 -146.5t-83.5 -158.5t-26.5 -155q0 -77 26 -150t101 -171.5
t116 -144.5t163 -175q12 -13 18 -20z" />
    <glyph glyph-name="uni2925" unicode="&#x2925;" horiz-adv-x="1335" 
d="M928 1513q-189 -200 -256 -284q-156 -197 -167 -352q-1 -12 -1 -25q0 -78 26.5 -155t83.5 -158.5t112.5 -146.5t147.5 -161v420h216v-798h-799v210h416q-65 68 -99.5 104.5t-91.5 101.5t-88.5 109t-71.5 108t-60.5 117.5t-35 118.5t-14.5 130q0 75 16 147t60.5 151.5
t74 129.5t108.5 140.5t108 121.5t125 131q8 9 12 13z" />
    <glyph glyph-name="uni2926" unicode="&#x2926;" horiz-adv-x="1335" 
d="M586 1686q196 -204 275 -302q201 -251 225 -466q4 -33 4 -66q0 -65 -14.5 -130t-35 -118.5t-60.5 -117.5t-71.5 -108t-88.5 -109t-91.5 -101.5t-99.5 -104.5h415v-210h-798v798h215v-420q92 96 147.5 161t112.5 146.5t83.5 158.5t26.5 155q0 62 -21 126.5t-59 126.5
t-88.5 125.5t-112 130.5t-126.5 136l-16 16z" />
    </font>
</defs>
</svg>
