<svg xmlns="http://www.w3.org/2000/svg" xmlns:xlink="http://www.w3.org/1999/xlink" version="1.2" baseProfile="tiny" fill="none" viewBox="0 0 80 80">
  <rect width="80" height="80" fill="#000" rx="40"/>
  <path fill="#FFF8BA" fill-rule="evenodd" d="M39.651 6.783c-18.153 0-32.868 14.715-32.868 32.868 0 18.153 14.715 32.869 32.868 32.869 18.153 0 32.869-14.716 32.869-32.869S57.804 6.783 39.65 6.783ZM4 39.65C4 19.961 19.962 4 39.651 4c19.69 0 35.651 15.962 35.651 35.651 0 19.69-15.961 35.651-35.65 35.651C19.961 75.302 4 59.341 4 39.652Zm25.436-24.52h7.218l-2.619 7.568 2.382-.937a1.391 1.391 0 0 1 1.72 1.98l-8.904 15.726-2.562-1.019 2.11-8.566-2.212 1.478a1.391 1.391 0 0 1-2.09-1.603l4.957-14.628Zm1.995 2.782-3.008 8.874c1.706-.929 3.779.579 3.364 2.522l2.011-3.552c-1.729.42-3.332-1.253-2.722-3.017l1.67-4.827h-1.315ZM19.478 44.274l5.508-.565-.284-2.768-11.92 1.223.284 2.768 3.615-.37c-.383 12.724 10.566 21.823 22.565 21.823 12.177 0 22.089-9.7 22.867-21.9l4.359.447.284-2.768-11.92-1.223-.284 2.768 4.79.492c-.636 10.853-9.42 19.402-20.096 19.402-10.842 0-20.304-8.236-19.768-19.329ZM55.206 15.13h-7.218L43.03 29.758a1.391 1.391 0 0 0 2.091 1.603l2.212-1.478-2.11 8.566 2.562 1.019 8.904-15.726a1.391 1.391 0 0 0-1.72-1.98l-2.382.937 2.619-7.569Zm-8.23 11.657 3.007-8.874h1.315l-1.67 4.827c-.61 1.764.993 3.437 2.722 3.018l-2.011 3.551c.414-1.943-1.658-3.45-3.364-2.522Z" clip-rule="evenodd"/>
</svg>